<?xml version="1.0" encoding="UTF-8"?>
<svg width="25px" height="25px" viewBox="0 0 25 25" version="1.1" xmlns="http://www.w3.org/2000/svg" xmlns:xlink="http://www.w3.org/1999/xlink">
    <!-- Generator: Sketch 45.2 (43514) - http://www.bohemiancoding.com/sketch -->
    <title>academy</title>
    <desc>Created with Sketch.</desc>
    <defs>
        <path d="M10.9665883,15.6306471 C10.9675012,15.6306471 10.9554527,15.6253002 10.9322477,15.609319 L7.79509204,12.1198624 C7.70275477,12.0171557 7.5446404,12.0087496 7.44193371,12.1010869 C7.33922701,12.1934242 7.33082093,12.3515385 7.4231582,12.4542452 L10.5945153,15.981744 L10.6140842,15.9964207 C10.7276144,16.0815684 10.8401296,16.1307938 10.9665883,16.1307938 C11.1143042,16.1307938 11.2458057,16.0732618 11.3458769,15.9731906 L14.5100184,12.4542452 C14.6023557,12.3515385 14.5939496,12.1934242 14.4912429,12.1010869 C14.3885362,12.0087496 14.2304219,12.0171557 14.1380846,12.1198624 L10.9890128,15.6225733 C10.9820238,15.6287819 10.9764877,15.6306471 10.9665883,15.6306471 Z" id="path-1"></path>
        <path d="M10.9497166,18.6844202 C10.9506262,18.6844202 10.938668,18.6791119 10.9156273,18.663265 L7.79553696,15.1741317 C7.70347374,15.0711792 7.54538234,15.0623518 7.44242992,15.154415 C7.3394775,15.2464782 7.33065006,15.4045697 7.42271328,15.5075221 L10.5773744,19.0353152 L10.5972126,19.0501938 C10.7107427,19.1353414 10.8232579,19.1845668 10.9497166,19.1845668 C11.0974325,19.1845668 11.2289341,19.1270349 11.3290053,19.0269637 L14.5095743,15.5085109 C14.6021837,15.4060495 14.594197,15.2479134 14.4917356,15.1553041 C14.3892742,15.0626947 14.2311381,15.0706814 14.1385287,15.1731428 L10.9722984,18.6762061 C10.9652348,18.6825269 10.9596901,18.6844202 10.9497166,18.6844202 Z" id="path-2"></path>
    </defs>
    <g id="Page-1" stroke="none" stroke-width="1" fill="none" fill-rule="evenodd">
        <g id="academy">
            <g id="Group" transform="translate(1.673789, 0.401770)">
                <path d="M10.9665883,1.42169554 C16.6017275,1.42169554 21.1739513,6.01079096 21.1739513,11.6290585 C21.1739513,17.2641977 16.5848559,21.8364215 10.9665883,21.8364215 C5.33144909,21.8364215 0.759225345,17.2641977 0.759225345,11.6290585 C0.759225345,5.99391929 5.33144909,1.42169554 10.9665883,1.42169554 M10.9665883,0.6624702 C4.90965723,0.6624702 0,5.57212743 0,11.6290585 C0,17.6859896 4.90965723,22.5956468 10.9665883,22.5956468 C17.0235194,22.5956468 21.9331766,17.6859896 21.9331766,11.6290585 C21.9331766,5.57212743 17.0235194,0.6624702 10.9665883,0.6624702" id="Shape" fill="#9A9BA5" fill-rule="nonzero"></path>
                <g id="Shape" fill-rule="nonzero">
                    <use fill="#9A9BA5" fill-rule="evenodd" xlink:href="#path-1"></use>
                    <path d="M10.9665883,15.6306471 C10.9675012,15.6306471 10.9554527,15.6253002 10.9322477,15.609319 L7.79509204,12.1198624 C7.70275477,12.0171557 7.5446404,12.0087496 7.44193371,12.1010869 C7.33922701,12.1934242 7.33082093,12.3515385 7.4231582,12.4542452 L10.5945153,15.981744 L10.6140842,15.9964207 C10.7276144,16.0815684 10.8401296,16.1307938 10.9665883,16.1307938 C11.1143042,16.1307938 11.2458057,16.0732618 11.3458769,15.9731906 L14.5100184,12.4542452 C14.6023557,12.3515385 14.5939496,12.1934242 14.4912429,12.1010869 C14.3885362,12.0087496 14.2304219,12.0171557 14.1380846,12.1198624 L10.9890128,15.6225733 C10.9820238,15.6287819 10.9764877,15.6306471 10.9665883,15.6306471 Z"></path>
                </g>
                <g id="Shape" fill-rule="nonzero">
                    <use fill="#9A9BA5" fill-rule="evenodd" xlink:href="#path-2"></use>
                    <path d="M10.9497166,18.6844202 C10.9506262,18.6844202 10.938668,18.6791119 10.9156273,18.663265 L7.79553696,15.1741317 C7.70347374,15.0711792 7.54538234,15.0623518 7.44242992,15.154415 C7.3394775,15.2464782 7.33065006,15.4045697 7.42271328,15.5075221 L10.5773744,19.0353152 L10.5972126,19.0501938 C10.7107427,19.1353414 10.8232579,19.1845668 10.9497166,19.1845668 C11.0974325,19.1845668 11.2289341,19.1270349 11.3290053,19.0269637 L14.5095743,15.5085109 C14.6021837,15.4060495 14.594197,15.2479134 14.4917356,15.1553041 C14.3892742,15.0626947 14.2311381,15.0706814 14.1385287,15.1731428 L10.9722984,18.6762061 C10.9652348,18.6825269 10.9596901,18.6844202 10.9497166,18.6844202 Z"></path>
                </g>
                <polygon id="*" fill="#9A9BA5" points="8 9.03208509 9.91639025 8.00489991 8 6.99304586 8.55192039 6.02718517 10.4069862 7.19235045 10.3149994 5 11.4341713 5 11.3575157 7.19235045 13.1972504 6.02718517 13.7491708 6.99304586 11.8327805 8.00489991 13.7491708 9.03208509 13.1972504 9.99794578 11.3575157 8.8327805 11.4341713 11.0097998 10.3149994 11.0097998 10.4069862 8.8327805 8.55192039 9.99794578"></polygon>
            </g>
        </g>
    </g>
</svg>