<?xml version="1.0" encoding="UTF-8"?>
<svg width="25px" height="25px" viewBox="0 0 25 25" version="1.1" xmlns="http://www.w3.org/2000/svg" xmlns:xlink="http://www.w3.org/1999/xlink">
    <!-- Generator: Sketch 45.2 (43514) - http://www.bohemiancoding.com/sketch -->
    <title>bug</title>
    <desc>Created with Sketch.</desc>
    <defs></defs>
    <g id="Page-1" stroke="none" stroke-width="1" fill="none" fill-rule="evenodd">
        <g id="bug" fill-rule="nonzero" fill="#9A9BA5">
            <path d="M8.03896099,3.20198715 C8.03896099,2.53782095 8.58617247,2 9.26058287,2 C10.0647532,2 10.6486731,2.75380302 10.4386669,3.51614288 C10.3592742,3.80298072 10.4028121,4.10945329 10.5564753,4.36555851 C10.8988026,4.93240472 11.4818688,5.2815615 12.2442086,5.28582992 C12.9954506,5.28241518 13.5862,4.93752683 13.931942,4.36555851 C14.0864588,4.11030698 14.129143,3.8038344 14.0497504,3.51614288 C13.8397441,2.7546567 14.4219567,2 15.2278344,2 C15.9022448,2 16.4494563,2.53782095 16.4494563,3.20198715 C16.4494563,3.77822388 16.0379806,4.25543327 15.4950375,4.37580272 C15.2201512,4.43641429 14.9828271,4.60544373 14.8385545,4.84362158 C14.3152461,5.71181826 15.0033155,6.48013391 15.6324806,7.25357166 C14.5995229,7.7333421 13.4777821,7.97578837 12.2442086,7.97578837 C10.9910004,7.97578837 9.87865012,7.73931789 8.85081452,7.25869377 C9.4893702,6.47330444 10.1782932,5.71950142 9.64900911,4.8427679 C9.50559019,4.60459005 9.26826603,4.4355606 8.99337976,4.37494904 C8.4504367,4.25543327 8.03896099,3.77822388 8.03896099,3.20198715 Z M19.5508904,15.191126 L21.5886343,15.191126 C22.0863321,15.191126 22.4884173,14.7950166 22.4884173,14.3058556 C22.4884173,13.8166947 22.0854784,13.4205853 21.5886343,13.4205853 L19.5380852,13.4205853 C19.0472169,13.4205853 18.5674464,13.0850874 18.4906149,12.5225096 C18.4120759,11.9445655 18.7347685,11.543334 19.1436832,11.3845488 L21.0482523,10.6452584 C21.5100953,10.4659848 21.7371753,9.95121327 21.5553406,9.49619967 C21.3726522,9.04118607 20.8501976,8.81752085 20.3883545,8.99764818 L18.4300033,9.75828067 C18.1491412,9.86669855 17.8033992,9.7890133 17.6394918,9.41595337 C17.4815603,9.05484501 17.301433,8.71934718 17.1102077,8.40177671 C15.6469933,9.24777761 14.0198715,9.68315648 12.2442086,9.68315648 C10.4403742,9.68315648 8.83374084,9.25802182 7.37564848,8.40604513 C7.19039904,8.71251771 7.01624749,9.03606396 6.86258437,9.38436706 C6.66879809,9.82316066 6.31110447,9.85560065 6.05926767,9.75742699 L4.10006277,8.99764818 C3.63736601,8.81837453 3.11576506,9.04118607 2.93307667,9.49619967 C2.75124197,9.95121327 2.97832192,10.4659848 3.440165,10.6452584 L5.34473412,11.3845488 C5.76816141,11.5484561 6.0737803,11.9770055 6.00463189,12.4721423 C5.91414138,13.1192348 5.42156568,13.4205853 4.95033209,13.4205853 L2.89978299,13.4205853 C2.40293887,13.4205853 2,13.8166947 2,14.3058556 C2,14.7950166 2.40293887,15.191126 2.89978299,15.191126 L4.93752683,15.191126 C5.42668779,15.191126 5.92694664,15.5086965 6.01743715,16.09347 C6.11304977,16.714952 5.82279719,17.1426477 5.37632043,17.3415561 L3.31040502,18.2618275 C2.85795247,18.463297 2.65648304,18.9883127 2.86136721,19.4339357 C3.06625138,19.8795588 3.59980392,20.0767598 4.05225646,19.8761441 L6.23854132,18.9029442 C6.50062233,18.7859895 6.82587595,18.8124537 7.00771065,19.1240484 C7.89810312,20.6564113 9.69083963,22.2041405 12.2442086,22.4884173 C14.748064,22.2092626 16.5194584,20.7161692 17.4286319,19.2128316 C17.6514434,18.84404 17.9647455,18.774038 18.2507296,18.9020906 L20.4370145,19.8752904 C20.8886134,20.0767598 21.4221659,19.8795588 21.6279037,19.433082 C21.8327879,18.987459 21.6313185,18.4624433 21.1788659,18.2609738 L19.1129505,17.3407024 C18.6903769,17.1520383 18.3728065,16.7106836 18.4615896,16.1600574 C18.5708612,15.4745491 19.0736811,15.191126 19.5508904,15.191126 L19.5508904,15.191126 Z" id="Shape"></path>
        </g>
    </g>
</svg>