<?xml version="1.0" encoding="UTF-8"?>
<svg width="25px" height="25px" viewBox="0 0 25 25" version="1.1" xmlns="http://www.w3.org/2000/svg" xmlns:xlink="http://www.w3.org/1999/xlink">
    <!-- Generator: Sketch 45.2 (43514) - http://www.bohemiancoding.com/sketch -->
    <title>forums</title>
    <desc>Created with Sketch.</desc>
    <defs></defs>
    <g id="Page-1" stroke="none" stroke-width="1" fill="none" fill-rule="evenodd">
        <g id="forums" fill-rule="nonzero" fill="#9A9BA5">
            <path d="M19.5027692,9.89155641 C19.5027692,5.8879846 15.5825364,3 11.2513846,3 C6.89382839,3 3,5.9094382 3,9.89155641 C3,11.3033683 3.50746015,12.6896009 4.40686107,13.7655815 C4.44564258,15.0255679 3.70466824,16.8334463 3.03630609,18.148717 C4.82520627,17.8260878 7.36993328,17.1106928 8.5226517,16.4035491 C14.8737424,17.952334 19.5027692,14.0585056 19.5027692,9.89155641 Z M7.53826152,11.0302475 C6.96974112,11.0302475 6.50683845,10.5681699 6.50683845,9.99882441 C6.50683845,9.42947887 6.96974112,8.96740133 7.53826152,8.96740133 C8.10678192,8.96740133 8.5696846,9.42947887 8.5696846,9.99882441 C8.5696846,10.5681699 8.10678192,11.0302475 7.53826152,11.0302475 Z M11.2513846,11.0302475 C10.6828642,11.0302475 10.2199615,10.5681699 10.2199615,9.99882441 C10.2199615,9.42947887 10.6828642,8.96740133 11.2513846,8.96740133 C11.819905,8.96740133 12.2828077,9.42947887 12.2828077,9.99882441 C12.2828077,10.5681699 11.819905,11.0302475 11.2513846,11.0302475 Z M14.9645076,11.0302475 C14.3959873,11.0302475 13.9330846,10.5681699 13.9330846,9.99882441 C13.9330846,9.42947887 14.3959873,8.96740133 14.9645076,8.96740133 C15.533028,8.96740133 15.9959307,9.42947887 15.9959307,9.99882441 C15.9959307,10.5681699 15.533028,11.0302475 14.9645076,11.0302475 Z M21.8816433,18.2823894 C21.8577143,19.108353 22.3420706,20.2916015 22.779394,21.1530461 C21.6085225,20.9401604 19.942568,20.473132 19.1883914,20.0102293 C16.4118005,20.6851926 14.1434949,19.7709392 12.9396179,18.2774386 C16.6997738,17.7328472 19.7395839,15.3424211 20.7693567,12.219272 C21.9905616,13.0270825 22.803323,14.2746919 22.803323,15.7459138 C22.803323,16.6700688 22.4707922,17.5785463 21.8816433,18.2823894 Z" id="Shape"></path>
        </g>
    </g>
</svg>