<?xml version="1.0" encoding="UTF-8"?>
<svg width="25px" height="25px" viewBox="0 0 25 25" version="1.1" xmlns="http://www.w3.org/2000/svg" xmlns:xlink="http://www.w3.org/1999/xlink">
    <!-- Generator: Sketch 45.2 (43514) - http://www.bohemiancoding.com/sketch -->
    <title>stackoverflow</title>
    <desc>Created with Sketch.</desc>
    <defs></defs>
    <g id="Page-1" stroke="none" stroke-width="1" fill="none" fill-rule="evenodd">
        <g id="stackoverflow" fill="#9A9BA5">
            <polygon id="Shape" fill-rule="nonzero" points="17.4582587 14.4582587 17.4582587 22.7201208 5.06546552 22.7201208 5.06546552 14.4582587 3 14.4582587 3 24.7855863 19.5237242 24.7855863 19.5237242 14.4582587"></polygon>
            <path d="M16.4255259,21.687388 L6.09819829,21.687388 L6.09819829,19.6219225 L16.4255259,19.6219225 L16.4255259,21.687388 Z M22.6219225,9.64056033 L22.6219225,9.64056033 L20.5626533,9.99788587 L18.8896263,0.357325536 L20.9478627,0 L22.6219225,9.64056033 Z M16.4627043,16.8046275 L16.4627043,16.8046275 L16.2799106,18.7874744 L6.20560249,17.8797023 L6.39769079,15.7977131 L16.4627043,16.8046275 Z M17.0183145,14.1329478 L16.5060791,16.0393725 L6.89546798,13.4575406 L7.43868541,11.4395808 L17.0183145,14.1329478 Z M18.2617248,11.6409637 L17.2000755,13.4420496 L8.63045902,8.41780474 L9.69314103,6.61775154 L18.2617248,11.6409637 Z M20.1888041,10.1259447 L20.1888041,10.1259447 L18.4620749,11.3032601 L12.9483147,3.21799529 L14.6750439,2.04067994 L20.1888041,10.1259447 Z" id="Combined-Shape"></path>
        </g>
    </g>
</svg>