<?xml version="1.0" encoding="UTF-8" standalone="no"?>
<svg width="1000px" height="584px" viewBox="0 0 1000 584" version="1.1" xmlns="http://www.w3.org/2000/svg" xmlns:xlink="http://www.w3.org/1999/xlink">
    <!-- Generator: Sketch 39.1 (31720) - http://www.bohemiancoding.com/sketch -->
    <title>language-android-news</title>
    <desc>Created with Sketch.</desc>
    <defs></defs>
    <g id="Page-1" stroke="none" stroke-width="1" fill="none" fill-rule="evenodd">
        <g id="language-android-news">
            <g id="Group-2" transform="translate(140.000000, 92.000000)">
                <g id="Group-Copy" transform="translate(320.000000, 0.000000)">
                    <circle id="Oval-3" fill="#1C233F" cx="200" cy="200" r="200"></circle>
                    <path d="M187.882353,263 L236.117647,263 L236.117647,205.307692 L187.882353,205.307692 L187.882353,263 L187.882353,263 Z M130,263 L178.235294,263 L178.235294,138 L130,138 L130,263 L130,263 Z M245.764706,263 L294,263 L294,205.307692 L245.764706,205.307692 L245.764706,263 L245.764706,263 Z M187.882353,138 L187.882353,195.692308 L294,195.692308 L294,138 L187.882353,138 L187.882353,138 Z" id="Shape" fill="#FFFFFF"></path>
                </g>
                <g id="Group">
                    <circle id="Oval-3" fill="#67C33F" cx="200" cy="200" r="200"></circle>
                    <path d="M277.253219,161.36944 C270.171674,161.36944 264.377682,167.163432 264.377682,174.244977 L264.377682,225.747122 C264.377682,232.828668 270.171674,238.622659 277.253219,238.622659 C284.334764,238.622659 290.128755,232.828668 290.128755,225.747122 L290.128755,174.244977 C290.128755,167.163432 284.334764,161.36944 277.253219,161.36944 L277.253219,161.36944 Z M122.746781,161.36944 C115.665236,161.36944 109.871245,167.163432 109.871245,174.244977 L109.871245,225.747122 C109.871245,232.828668 115.665236,238.622659 122.746781,238.622659 C129.828326,238.622659 135.622318,232.828668 135.622318,225.747122 L135.622318,174.244977 C135.622318,167.163432 129.828326,161.36944 122.746781,161.36944 L122.746781,161.36944 Z M142.060086,245.060427 C142.060086,255.727809 150.706009,264.373732 161.373391,264.373732 L167.811159,264.373732 L167.811159,290.124805 C167.811159,297.20635 173.60515,303.000341 180.686695,303.000341 C187.76824,303.000341 193.562232,297.20635 193.562232,290.124805 L193.562232,264.373732 L206.437768,264.373732 L206.437768,290.124805 C206.437768,297.20635 212.23176,303.000341 219.313305,303.000341 C226.39485,303.000341 232.188841,297.20635 232.188841,290.124805 L232.188841,264.373732 L238.626609,264.373732 C249.293991,264.373732 257.939914,255.727809 257.939914,245.060427 L257.939914,174.244977 L142.060086,174.244977 L142.060086,245.060427 L142.060086,245.060427 Z M223.858369,114.998195 L232.008584,99.3479809 C232.420601,98.5625731 232.111588,97.5840324 231.32618,97.178453 C230.540773,96.7728736 229.562232,97.0754487 229.156652,97.8608564 L220.88412,113.749268 C214.407725,111.244977 207.364807,109.867294 200,109.867294 C192.635193,109.867294 185.598712,111.244977 179.11588,113.749268 L170.843348,97.8608564 C170.437768,97.0754487 169.459227,96.7664358 168.67382,97.178453 C167.888412,97.5904701 167.579399,98.5625731 167.991416,99.3479809 L176.141631,115.004633 C157.909871,123.257852 144.706009,140.672015 142.420601,161.375878 L257.585837,161.375878 C255.300429,140.672015 242.096567,123.257852 223.864807,115.004633 L223.858369,114.998195 Z M174.248927,151.390899 C169.092275,151.390899 164.914163,147.212788 164.914163,142.056135 C164.914163,136.899483 169.092275,132.721371 174.248927,132.721371 C179.405579,132.721371 183.583691,136.899483 183.583691,142.056135 C183.583691,147.212788 179.405579,151.390899 174.248927,151.390899 L174.248927,151.390899 Z M225.751073,151.390899 C220.594421,151.390899 216.416309,147.212788 216.416309,142.056135 C216.416309,136.899483 220.594421,132.721371 225.751073,132.721371 C230.907725,132.721371 235.085837,136.899483 235.085837,142.056135 C235.085837,147.212788 230.907725,151.390899 225.751073,151.390899 L225.751073,151.390899 Z" id="Shape" fill="#FFFFFF"></path>
                </g>
            </g>
        </g>
    </g>
</svg>