<?xml version="1.0" encoding="UTF-8"?>
<svg width="250px" height="250px" viewBox="0 0 250 250" version="1.1" xmlns="http://www.w3.org/2000/svg" xmlns:xlink="http://www.w3.org/1999/xlink">
    <!-- Generator: Sketch 41.2 (35397) - http://www.bohemiancoding.com/sketch -->
    <title>Connect</title>
    <desc>Created with Sketch.</desc>
    <defs>
        <path d="M173.875146,113.189331 L133.875147,129.189331 C132.765597,129.638231 131.987717,130.805031 132.000147,132.001831 L132.000147,186.001831 C132.000157,187.188331 132.775317,188.338131 133.875147,188.783031 L173.875146,204.783031 C174.587846,205.071331 175.412446,205.071331 176.125146,204.783031 L216.125146,188.783031 C217.224976,188.338131 218.000136,187.188331 218.000146,186.001831 L218.000146,132.001831 C218.012546,130.805031 217.234696,129.638231 216.125146,129.189331 L176.125146,113.189331 C175.712736,113.039631 175.293496,112.989331 174.906396,113.001831 C174.519296,113.014831 174.164346,113.089831 173.875146,113.189331 Z M206.875096,131.970631 L195.000146,136.751831 L163.093896,123.970631 L175.000146,119.220631 L206.875096,131.970631 Z M155.000096,127.220631 L186.875096,139.970631 L175.000096,144.751831 L143.125097,131.970631 L155.000096,127.220631 Z M172.000096,150.033001 L172.000096,197.564331 L138.000096,183.939331 L138.000096,136.439331 L172.000096,150.033001 Z M212.000096,136.751831 L212.000096,183.939331 L198.000096,189.533031 L198.000096,178.001831 C198.016976,177.189984 197.704064,176.405964 197.132829,175.82884 C196.561594,175.251716 195.780824,174.930779 194.968846,174.939331 C194.167716,174.947597 193.403168,175.275931 192.845531,175.851187 C192.287895,176.426443 191.983494,177.200832 192.000146,178.001831 L192.000146,191.939331 L178.000146,197.564331 L178.000146,150.033001 L192.000146,144.439331 L192.000146,156.001801 C191.984845,157.083709 192.553272,158.090046 193.487765,158.635465 C194.422258,159.180884 195.578035,159.180884 196.512528,158.635465 C197.44702,158.090046 198.015447,157.083709 198.000146,156.001801 L198.000146,142.033031 L212.000146,136.439331 L212.000096,136.751831 Z" id="path-1"></path>
        <mask id="mask-2" maskContentUnits="userSpaceOnUse" maskUnits="objectBoundingBox" x="0" y="0" width="86.0002925" height="91.9992564" fill="white">
            <use xlink:href="#path-1"></use>
        </mask>
        <path d="M69.0938958,114.001831 C69.4809958,114.014831 69.8359358,114.089831 70.1251458,114.189331 L110.125147,130.189331 C111.234697,130.638231 112.012577,131.805031 112.000147,133.001831 L112.000147,187.001841 C112.000137,188.188341 111.224977,189.338141 110.125147,189.783041 L70.1251458,205.783041 C69.4124458,206.071341 68.5878458,206.071341 67.8751458,205.783041 L27.8751462,189.783041 C26.7753162,189.338141 26.0001562,188.188341 26.0001462,187.001841 L26.0001462,133.001831 C25.9877462,131.805031 26.7655962,130.638231 27.8751462,130.189331 L67.8751458,114.189331 C68.2875558,114.039631 68.7067958,113.989331 69.0938958,114.001831 Z M69.0001958,120.220631 L37.1251958,132.970631 L49.0001458,137.751831 L80.9063958,124.970631 L69.0001458,120.220631 L69.0001958,120.220631 Z M89.0001958,128.220631 L57.1251958,140.970631 L69.0001958,145.751831 L100.875196,132.970631 L89.0001958,128.220631 Z M106.000197,137.439331 L72.0001958,151.033011 L72.0001958,198.564341 L106.000197,184.939341 L106.000197,137.439331 Z M32.0001958,137.439331 L32.0001958,184.939341 L66.0001958,198.564341 L66.0001958,151.033011 L52.0001958,145.439331 L52.0001958,157.001811 C52.0154966,158.083719 51.4470699,159.090056 50.5125772,159.635475 C49.5780845,160.180894 48.422307,160.180894 47.4878143,159.635475 C46.5533216,159.090056 45.9848949,158.083719 46.0001958,157.001811 L46.0001958,143.033031 L32.0001958,137.439331 L32.0001958,137.439331 Z" id="path-3"></path>
        <mask id="mask-4" maskContentUnits="userSpaceOnUse" maskUnits="objectBoundingBox" x="0" y="0" width="86.0002936" height="91.9992664" fill="white">
            <use xlink:href="#path-3"></use>
        </mask>
        <path d="M41.8751463,0.189331449 L1.87514685,16.1893314 C0.765596848,16.6382314 -0.0122831519,17.8050314 0.000146848148,19.0018314 L0.000146848148,73.0018314 C0.000156848148,74.1883314 0.775316848,75.3381314 1.87514685,75.7830314 L41.8751463,91.7830314 C42.5878463,92.0713314 43.4124463,92.0713314 44.1251463,91.7830314 L84.1251463,75.7830314 C85.2249763,75.3381314 86.0001363,74.1883314 86.0001463,73.0018314 L86.0001463,19.0018314 C86.0125463,17.8050314 85.2346963,16.6382314 84.1251463,16.1893314 L44.1251463,0.189331449 C43.7127363,0.0396314492 43.2934963,-0.0106685508 42.9063963,0.00183144916 C42.5192963,0.0148314492 42.1643463,0.0898314492 41.8751463,0.189331449 Z M74.8750963,18.9706314 L63.0001463,23.7518314 L31.0938963,10.9706314 C31.0938963,10.9706314 42.9679229,6.01317192 43.0001462,5.99961145 C58.8108966,12.4717029 74.8750963,18.9706314 74.8750963,18.9706314 Z M23.0000963,14.2206314 L54.8750963,26.9706314 L43.0000963,31.7518314 L11.1250973,18.9706314 L23.0000963,14.2206314 Z M40.0000963,37.0330014 L40.0000963,84.5643314 L6.00009635,70.9393314 L6.00009635,23.4393314 L40.0000963,37.0330014 Z M80.0000963,70.9393314 L66.0000963,76.5330314 L66.0000963,65.0018314 C66.0169756,64.1899838 65.7040637,63.405964 65.1328287,62.82884 C64.5615937,62.251716 63.7808244,61.9307795 62.9688463,61.9393314 C62.1677161,61.9475966 61.4031679,62.275931 60.8455312,62.8511869 C60.2878946,63.4264428 59.9834944,64.2008316 60.0001463,65.0018314 L60.0001463,78.9393314 L46.0001463,84.5643314 L46.0001463,37.0330014 L60.0001463,31.4393314 L60.0001463,43.0018014 C59.9848455,44.0837092 60.5532722,45.0900455 61.4877649,45.6354646 C62.4222576,46.1808837 63.5780351,46.1808837 64.5125278,45.6354646 C65.4470205,45.0900455 66.0154472,44.0837092 66.0001463,43.0018014 L66.0001463,29.0330314 L80.0000963,23.4393314 L80.0000963,70.9393314 Z" id="path-5"></path>
        <mask id="mask-6" maskContentUnits="userSpaceOnUse" maskUnits="objectBoundingBox" x="0" y="0" width="86.0002925" height="91.9992564" fill="white">
            <use xlink:href="#path-5"></use>
        </mask>
    </defs>
    <g id="Page-1" stroke="none" stroke-width="1" fill="none" fill-rule="evenodd">
        <g id="Connect">
            <use id="Shape" stroke="#FFFFFF" mask="url(#mask-2)" stroke-width="2" fill="#9A9BA5" xlink:href="#path-1"></use>
            <use id="Shape" stroke="#FFFFFF" mask="url(#mask-4)" stroke-width="2" fill="#9A9BA5" xlink:href="#path-3"></use>
            <polygon id="Path-3" fill="#FFFFFF" points="139 119.5 174 136 211 119.5 210.5 97.5 189.5 106 177 95 167.5 101 162 106.5 139 95"></polygon>
            <path d="M161.764094,45.0100117 C161.528103,45.0209117 161.294131,45.0741117 161.076594,45.1662617 L126.076594,61.1662617 C124.951499,61.6784417 124.683869,63.3163017 125.389094,64.2912617 L136.264094,77.0100117 L125.389094,89.6975417 C124.734648,90.6167417 124.951499,92.3103417 126.076594,92.8225417 L136.920344,97.7913417 L136.920344,121.010042 C136.926144,121.773342 137.410385,122.512442 138.107844,122.822542 L174.076594,138.822542 C174.586293,139.049142 175.191895,139.049142 175.701594,138.822542 L211.732844,122.822542 C212.430303,122.512442 212.914551,121.773342 212.920344,121.010042 L212.920344,97.7913417 L223.764094,92.8225417 C224.889189,92.3103417 225.257852,90.6346417 224.451594,89.6975417 L213.576594,77.0100117 L224.451594,64.2912617 C225.257852,63.3541817 224.889189,61.6784417 223.764094,61.1662617 L188.764094,45.1662617 C188.451385,45.0300517 188.103448,44.9756917 187.764094,45.0100117 C187.269473,45.0459117 186.791254,45.2736617 186.451594,45.6350117 L174.920344,58.0412617 L163.389094,45.6350117 C162.978349,45.1970517 162.362456,44.9601717 161.764094,45.0100117 Z M161.451594,49.4162617 L171.545344,60.2912617 L139.482844,74.5725117 L130.170344,63.7287617 L161.451594,49.4162617 Z M188.389094,49.4162617 L219.670344,63.7287617 L210.357844,74.5725117 L178.295344,60.2912617 L188.389094,49.4162617 Z M174.920344,63.1975117 L205.982844,77.0100117 L174.920344,90.7913417 L143.857844,77.0100117 L174.920344,63.1975117 Z M139.482844,79.4162617 L171.545344,93.6975417 L161.451594,104.572542 L130.170344,90.2600417 L139.482844,79.4162617 Z M210.357844,79.4162617 L219.670344,90.2600417 L188.389094,104.572542 L178.295344,93.6975417 L210.357844,79.4162617 Z M172.920344,98.1038417 L172.920344,133.916242 L140.920344,119.697542 L140.920344,99.6038417 L161.076594,108.822542 C161.840913,109.173842 162.821891,108.975042 163.389094,108.353842 L172.920344,98.1038417 Z M176.920344,98.1038417 L186.451594,108.353842 C187.018797,108.975042 187.999775,109.173842 188.764094,108.822542 L208.920344,99.6038417 L208.920344,119.697542 L176.920344,133.885042 L176.920344,98.1038417 Z" id="Shape" fill="#59569E"></path>
            <g id="Group" transform="translate(27.000000, 47.000000)">
                <path d="M6,70.5 L40,84.5 L46,84 C46,84 74.5,73 80,70 C82,64.5 40,58 40,58 L11,56 L6,70.5 Z" id="Path-2" fill="#FFFFFF"></path>
                <use id="Shape-Copy" stroke="#FFFFFF" mask="url(#mask-6)" stroke-width="2" fill="#9A9BA5" xlink:href="#path-5"></use>
            </g>
        </g>
    </g>
</svg>