<?xml version="1.0" encoding="UTF-8"?>
<svg width="250px" height="250px" viewBox="0 0 250 250" version="1.1" xmlns="http://www.w3.org/2000/svg" xmlns:xlink="http://www.w3.org/1999/xlink">
    <!-- Generator: Sketch 41.2 (35397) - http://www.bohemiancoding.com/sketch -->
    <title>Consolidate</title>
    <desc>Created with Sketch.</desc>
    <defs>
        <rect id="path-1" x="0" y="0.281528137" width="65.1303919" height="73.287866" rx="8"></rect>
        <filter x="-50%" y="-50%" width="200%" height="200%" filterUnits="objectBoundingBox" id="filter-2">
            <feOffset dx="0" dy="2" in="SourceAlpha" result="shadowOffsetOuter1"></feOffset>
            <feGaussianBlur stdDeviation="2" in="shadowOffsetOuter1" result="shadowBlurOuter1"></feGaussianBlur>
            <feColorMatrix values="0 0 0 0 0   0 0 0 0 0   0 0 0 0 0  0 0 0 0.203804348 0" type="matrix" in="shadowBlurOuter1"></feColorMatrix>
        </filter>
        <linearGradient x1="50%" y1="0%" x2="50%" y2="100%" id="linearGradient-3">
            <stop stop-color="#FCC397" offset="0%"></stop>
            <stop stop-color="#FC9F95" offset="16.0654496%"></stop>
            <stop stop-color="#F77C88" offset="30.0482302%"></stop>
            <stop stop-color="#F25192" offset="42.703683%"></stop>
            <stop stop-color="#D34CA3" offset="56.3317124%"></stop>
            <stop stop-color="#9A50A5" offset="69.1147162%"></stop>
            <stop stop-color="#59569E" offset="83.848852%"></stop>
            <stop stop-color="#39477F" offset="100%"></stop>
        </linearGradient>
    </defs>
    <g id="Page-1" stroke="none" stroke-width="1" fill="none" fill-rule="evenodd">
        <g id="Consolidate">
            <g id="Group-2" transform="translate(12.000000, 15.000000)">
                <g id="Group-8">
                    <g id="Phone-Copy" transform="translate(65.887147, 163.913793)" stroke="#9A9BA5" stroke-width="2">
                        <path d="M35.4810087,5.12913891 C35.4810087,2.38315002 33.2159979,0.154521359 30.4251809,0.154521359 L5.14604183,0.154521359 C2.35522487,0.154521359 0.0902140114,2.38315002 0.0902140114,5.12913891 L0.0902140114,54.8753144 C0.0902140114,57.6213033 2.35522487,59.8499319 5.14604183,59.8499319 L30.4251809,59.8499319 C33.2159979,59.8499319 35.4810087,57.6213033 35.4810087,54.8753144 L35.4810087,5.12913891 Z M13.9937405,5.12913891 L21.5774822,5.12913891 C22.2751865,5.12913891 22.8414392,5.68629607 22.8414392,6.3727933 C22.8414392,7.05929052 22.2751865,7.61644768 21.5774822,7.61644768 L13.9937405,7.61644768 C13.2960363,7.61644768 12.7297836,7.05929052 12.7297836,6.3727933 C12.7297836,5.68629607 13.2960363,5.12913891 13.9937405,5.12913891 Z M17.7856114,54.8753144 C16.387675,54.8753144 15.2576975,53.7610001 15.2576975,52.3880056 C15.2576975,51.0150112 16.387675,49.9006968 17.7856114,49.9006968 C19.1810199,49.9006968 20.3109974,51.0150112 20.3109974,52.3880056 C20.3109974,53.7610001 19.1810199,54.8753144 17.7856114,54.8753144 Z M30.4251809,47.4133881 L5.14604183,47.4133881 L5.14604183,12.5313698 L30.4251809,12.5313698 L30.4251809,47.4133881 Z" id="Shape-Copy"></path>
                        <path d="M35.8061012,4.97461755 C35.8061012,2.22862866 33.5410903,0 30.7502734,0 L5.47113427,0 C2.68031732,0 0.415306453,2.22862866 0.415306453,4.97461755 L0.415306453,54.720793 C0.415306453,57.4667819 2.68031732,59.6954106 5.47113427,59.6954106 L30.7502734,59.6954106 C33.5410903,59.6954106 35.8061012,57.4667819 35.8061012,54.720793 L35.8061012,4.97461755 Z M14.318833,4.97461755 L21.9025747,4.97461755 C22.6002789,4.97461755 23.1665316,5.53177471 23.1665316,6.21827194 C23.1665316,6.90476916 22.6002789,7.46192632 21.9025747,7.46192632 L14.318833,7.46192632 C13.6211287,7.46192632 13.054876,6.90476916 13.054876,6.21827194 C13.054876,5.53177471 13.6211287,4.97461755 14.318833,4.97461755 Z M18.1107038,54.720793 C16.7127674,54.720793 15.5827899,53.6064787 15.5827899,52.2334843 C15.5827899,50.8604898 16.7127674,49.7461755 18.1107038,49.7461755 C19.5061123,49.7461755 20.6360898,50.8604898 20.6360898,52.2334843 C20.6360898,53.6064787 19.5061123,54.720793 18.1107038,54.720793 Z M30.7502734,47.2588667 L5.47113427,47.2588667 L5.47113427,12.3768485 L30.7502734,12.3768485 L30.7502734,47.2588667 Z" id="Shape"></path>
                    </g>
                    <g id="Group-7" transform="translate(123.272727, 162.500000)" stroke="#9A9BA5" stroke-width="2">
                        <path d="M6.58419627e-14,8.66493175 C6.58419627e-14,11.1134447 0.00253022839,49.2832076 6.58419627e-14,51.7592601 C-0.00506045678,57.3022126 8.8760412,60.0862069 17.7470219,60.0862069 C26.5901702,60.0862069 35.4231975,57.3197378 35.4231975,51.7592601 L35.4231975,8.66493175 C35.4231975,2.78649784 26.8937976,0 18.2049933,0 C9.18978952,0 6.58419627e-14,3.00180675 6.58419627e-14,8.66493175 L6.58419627e-14,8.66493175 Z M17.7115987,5.00718391 C18.4099418,5.00718391 18.9767129,5.56548491 18.9767129,6.25897989 C18.9767129,6.94997126 18.4099418,7.51077586 17.7115987,7.51077586 C17.0132557,7.51077586 16.4464845,6.94997126 16.4464845,6.25897989 C16.4464845,5.56548491 17.0132557,5.00718391 17.7115987,5.00718391 L17.7115987,5.00718391 Z M17.7115987,55.079023 C16.3149127,55.079023 15.1813704,53.9574138 15.1813704,52.575431 C15.1813704,51.1909447 16.3149127,50.0718391 17.7115987,50.0718391 C19.1082848,50.0718391 20.2418271,51.1909447 20.2418271,52.575431 C20.2418271,53.9574138 19.1082848,55.079023 17.7115987,55.079023 Z M30.3627407,47.5682471 L5.06045678,47.5682471 L5.06045678,10.0143678 L30.3627407,10.0143678 L30.3627407,47.5682471 Z" id="Shape"></path>
                        <path d="M0.70846395,9.3718283 C0.70846395,11.8203412 0.710994178,49.9901042 0.70846395,52.4661566 C0.703403493,58.0091092 9.58450515,60.7931034 18.4554859,60.7931034 C27.2986341,60.7931034 36.1316614,58.0266343 36.1316614,52.4661566 L36.1316614,9.3718283 C36.1316614,3.4933944 27.6022615,0.706896552 18.9134572,0.706896552 C9.89825347,0.706896552 0.70846395,3.7087033 0.70846395,9.3718283 L0.70846395,9.3718283 Z M18.4200627,5.71408046 C19.1184057,5.71408046 19.6851769,6.27238147 19.6851769,6.96587644 C19.6851769,7.65686782 19.1184057,8.21767241 18.4200627,8.21767241 C17.7217197,8.21767241 17.1549485,7.65686782 17.1549485,6.96587644 C17.1549485,6.27238147 17.7217197,5.71408046 18.4200627,5.71408046 L18.4200627,5.71408046 Z M18.4200627,55.7859195 C17.0233766,55.7859195 15.8898343,54.6643103 15.8898343,53.2823276 C15.8898343,51.8978412 17.0233766,50.7787356 18.4200627,50.7787356 C19.8167488,50.7787356 20.9502911,51.8978412 20.9502911,53.2823276 C20.9502911,54.6643103 19.8167488,55.7859195 18.4200627,55.7859195 Z M31.0712047,48.2751437 L5.76892073,48.2751437 L5.76892073,10.7212644 L31.0712047,10.7212644 L31.0712047,48.2751437 Z" id="Shape"></path>
                    </g>
                    <g id="Group-6" stroke="#9A9BA5" stroke-width="2">
                        <path d="M75.0831086,4.29194809 L75.0831086,4.17637321 C75.0839703,4.15657729 75.0844025,4.13674755 75.0844025,4.11688494 C75.0844025,1.84319218 69.4202273,0 62.4331131,0 C55.4459988,0 49.7818236,1.84319218 49.7818236,4.11688494 C49.7818236,4.11720428 49.7818237,4.11752359 49.781824,4.11784286 L49.781913,23.8802307 C49.872145,26.1528673 55.5348575,27.9948177 62.5196176,27.9948177 C69.5067319,27.9948177 75.1709071,26.1516255 75.0831086,23.8779327 C75.0844541,23.84309 75.0844488,23.8083483 75.0831086,23.7737128 L75.0831086,23.7737065 L75.0831086,4.30141961 C74.8073848,6.62849138 69.333737,8.4024134 62.4331131,8.4024134 C55.351195,8.4024134 49.7881858,6.53405753 49.7881858,4.11688494 C49.7881858,6.2470979 54.6321435,8.40241329 62.4331129,8.40241329 C70.0203993,8.40241329 74.8255571,6.36355693 75.0831086,4.29194809 Z" id="Server"></path>
                        <path d="M174.976526,4.29194809 L174.976526,4.17637321 C174.977387,4.15657729 174.977819,4.13674755 174.977819,4.11688494 C174.977819,1.84319218 169.313644,0 162.32653,0 C155.339416,0 149.675241,1.84319218 149.675241,4.11688494 C149.675241,4.11720428 149.675241,4.11752359 149.675241,4.11784286 L149.67533,23.8802307 C149.765562,26.1528673 155.428274,27.9948177 162.413035,27.9948177 C169.400149,27.9948177 175.064324,26.1516255 174.976526,23.8779327 C174.977871,23.84309 174.977866,23.8083483 174.976526,23.7737128 L174.976526,23.7737065 L174.976526,4.30141961 C174.700802,6.62849138 169.227154,8.4024134 162.32653,8.4024134 C155.244612,8.4024134 149.681603,6.53405753 149.681603,4.11688494 C149.681603,6.2470979 154.52556,8.40241329 162.32653,8.40241329 C169.913816,8.40241329 174.718974,6.36355693 174.976526,4.29194809 Z" id="Server-Copy"></path>
                        <rect id="Rectangle-4" x="0" y="0" width="27.630094" height="27.5689655" rx="4"></rect>
                        <rect id="Rectangle-4-Copy" x="99.184953" y="0" width="27.630094" height="27.5689655" rx="4"></rect>
                        <rect id="Rectangle-4-Copy-2" x="198.369906" y="0" width="27.630094" height="27.5689655" rx="4"></rect>
                    </g>
                    <path d="M114.845259,80.6066148 L162.693696,33.6449128 L161.782793,32.5619837 L111.872115,81.5477094 L113.292602,33.3918197 L111.998934,32.8150769 L110.557427,81.6836024 L63.7322732,32.9016459 L62.3743098,33.3052507 L108.007274,80.8451968 L13.9512316,32.5932941 L12.9703985,33.6136025 L110.676793,83.7381808 L111.16721,83.2280266 L111.492318,83.8560987 L212.155829,33.7315204 L211.505613,32.4753762 L114.845259,80.6066148 Z" id="Combined-Shape-Copy" fill="#9A9BA5"></path>
                </g>
                <path d="M112.654992,140.121656 L84.8535665,158.029705 L84.5559619,158.221404 L84.171713,157.627512 L84.4693175,157.435812 L112.382601,139.455712 L112.518668,139.223401 L112.636544,139.292137 L112.751248,139.218251 L112.897509,139.444311 L140.100364,155.306912 L140.406198,155.48525 L140.04873,156.095565 L139.742896,155.917226 L112.654992,140.121656 Z" id="Combined-Shape" stroke="#979797" stroke-linecap="square"></path>
                <g id="Group-4" transform="translate(79.000000, 67.000000)">
                    <g id="Server">
                        <g id="Rectangle">
                            <use fill="black" fill-opacity="1" filter="url(#filter-2)" xlink:href="#path-1"></use>
                            <use fill="#FFFFFF" fill-rule="evenodd" xlink:href="#path-1"></use>
                        </g>
                        <polygon id="Combined-Shape-path" stroke="#1C233F" stroke-width="2" fill-opacity="0.190500453" fill="#D8D8D8" points="65.1303919 10.4231538 65.1303919 19.8587989 0.497178564 19.8587989 0.497178564 10.4231538"></polygon>
                        <path d="M3.43697048,0.987508646 L62.1906002,0.987508646 C63.8142021,0.987508646 65.1303919,2.28958815 65.1303919,3.88906943 L65.1303919,10.4231538 L0.497178564,10.4231538 L0.497178564,3.88906943 C0.497178564,2.28658166 1.81018891,0.987508646 3.43697048,0.987508646 Z" id="Combined-Shape-path" stroke="#1C233F" stroke-width="2" fill="#D8D8D8"></path>
                        <path d="M3.43697048,0.987508646 L62.1906002,0.987508646 C63.8142021,0.987508646 65.1303919,2.28586371 65.1303919,3.88884142 L65.1303919,70.6680612 C65.1303919,72.2704231 63.8173814,73.5693941 62.1906002,73.5693941 L3.43697048,73.5693941 C1.81336824,73.5693941 0.497178564,72.2710391 0.497178564,70.6680612 L0.497178564,3.88884142 C0.497178564,2.28647957 1.81018891,0.987508646 3.43697048,0.987508646 Z M59.8422199,14.9232307 L59.8422199,15.2135582 L12.2486719,15.2135582 L12.2486719,14.9232307 L59.8422199,14.9232307 Z M59.8422199,5.34242178 L59.8422199,5.63274932 L12.2486719,5.63274932 L12.2486719,5.34242178 L59.8422199,5.34242178 Z M8.13564924,5.63274932 C8.13564924,5.1517189 7.74105003,4.76176669 7.25428725,4.76176669 C6.76752442,4.76176669 6.37292526,5.1517189 6.37292526,5.63274932 C6.37292526,6.11377976 6.76752442,6.50373194 7.25428725,6.50373194 C7.74105003,6.50373194 8.13564924,6.11377976 8.13564924,5.63274932 Z M8.13564924,15.2135582 C8.13564924,14.7325278 7.74105003,14.3425756 7.25428725,14.3425756 C6.76752442,14.3425756 6.37292526,14.7325278 6.37292526,15.2135582 C6.37292526,15.6945886 6.76752442,16.0845408 7.25428725,16.0845408 C7.74105003,16.0845408 8.13564924,15.6945886 8.13564924,15.2135582 Z" id="Combined-Shape" stroke="#1C233F" stroke-width="2"></path>
                    </g>
                    <g id="ROS" transform="translate(26.350464, 40.487854)" fill="url(#linearGradient-3)">
                        <path d="M5.44355915,5.68387951 C4.53485656,6.25638455 3.5574621,6.72593827 2.57985497,7.098087 C2.2378546,7.22827733 1.92082631,7.33679967 1.63730048,7.424531 C1.46976253,7.47637225 1.35252494,7.50930809 1.29408888,7.52426754 C1.09824028,7.58509826 0.968027078,7.63253042 0.870749317,7.67721905 C0.800691604,7.709403 0.741764564,7.74219717 0.685801707,7.78504558 C0.491679825,7.93367642 0.362354438,8.13877544 0.484333782,8.45488118 C0.583947665,8.71302764 0.751011509,8.7910397 0.959286854,8.82550691 C1.02333374,8.83610596 1.08786426,8.83888833 1.16131674,8.8371003 C1.26996495,8.83445541 1.40942235,8.82068928 1.58094175,8.79652817 L11.0208626,7.47974281 C7.70713036,9.34457647 1.08181568,13.0776819 1.08181568,13.0776819 C-0.0102750737,13.6930323 0.341108828,14.6927952 1.58094175,14.5181459 L10.6589042,13.2509119 C9.68434707,13.7987844 8.7195958,14.4029407 7.80865417,15.0546078 C5.87888224,16.435123 4.40635259,17.8725519 3.57139607,19.3533345 L4.56662088,19.8955901 C5.30613653,18.5840705 6.67061062,17.2521214 8.47820761,15.9590073 C9.49744836,15.2298655 10.5923001,14.5592491 11.6873641,13.9635946 C12.0706596,13.7551029 12.4262836,13.5710423 12.7448802,13.4133484 C12.9345882,13.3194497 13.0687217,13.2556864 13.1379488,13.2239646 C14.2813526,12.6469162 13.9506848,11.6457134 12.6966384,11.822365 L3.23875827,13.1512974 C3.23899739,13.1514597 13.1957645,7.54121121 13.1957645,7.54121121 C14.2790259,6.93083581 13.9492085,5.92430369 12.6966384,6.10074727 L5.17160344,7.14528394 C5.16852337,7.14559124 5.7664841,6.80898634 6.05756095,6.62560073 C8.53567967,5.06432478 10.1789774,3.03989511 10.5536301,0.495368159 L9.42748508,0.335144585 C9.107267,2.5099682 7.66902885,4.28177861 5.44355915,5.68387951 Z" id="Path-12-Copy-2"></path>
                    </g>
                    <path d="M50.2132553,31.7626998 L50.2132553,31.602635 C50.2144404,31.5752187 50.215035,31.5477556 50.215035,31.520247 C50.215035,28.3713086 42.4242301,25.8185896 32.8137852,25.8185896 C23.2033404,25.8185896 15.4125355,28.3713086 15.4125355,31.520247 C15.4125355,31.5206893 15.4125357,31.5211315 15.412536,31.5215737 L15.4126584,58.8913854 C15.5367683,62.0388611 23.3255612,64.5898603 32.9327682,64.5898603 C42.543213,64.5898603 50.3340179,62.0371413 50.2132553,58.8882028 C50.2151059,58.8399475 50.2150986,58.7918323 50.2132553,58.743864 L50.2132553,58.7438552 L50.2132553,31.7758173 C49.8340102,34.9986827 42.3052668,37.4554664 32.8137852,37.4554664 C23.0729422,37.4554664 15.4212864,34.8678971 15.4212864,31.520247 C15.4212864,34.4704739 22.0839209,37.4554662 32.813785,37.4554662 C43.2497383,37.4554662 49.8590054,34.6317632 50.2132553,31.7626998 Z" id="Server-Copy-2" stroke="#1C233F" stroke-width="2"></path>
                </g>
            </g>
        </g>
    </g>
</svg>