<?xml version="1.0" encoding="UTF-8"?>
<svg width="250px" height="250px" viewBox="0 0 250 250" version="1.1" xmlns="http://www.w3.org/2000/svg" xmlns:xlink="http://www.w3.org/1999/xlink">
    <!-- Generator: Sketch 41.2 (35397) - http://www.bohemiancoding.com/sketch -->
    <title>play</title>
    <desc>Created with Sketch.</desc>
    <defs>
        <linearGradient x1="50%" y1="0%" x2="50%" y2="100%" id="linearGradient-1">
            <stop stop-color="#FCC397" offset="0%"></stop>
            <stop stop-color="#FC9F95" offset="16.0654496%"></stop>
            <stop stop-color="#F77C88" offset="30.0482302%"></stop>
            <stop stop-color="#F25192" offset="42.703683%"></stop>
            <stop stop-color="#D34CA3" offset="56.3317124%"></stop>
            <stop stop-color="#9A50A5" offset="69.1147162%"></stop>
            <stop stop-color="#59569E" offset="83.848852%"></stop>
            <stop stop-color="#39477F" offset="100%"></stop>
        </linearGradient>
    </defs>
    <g id="Page-1" stroke="none" stroke-width="1" fill="none" fill-rule="evenodd">
        <g id="play">
            <path d="M107.995653,30.450088 L107.995653,30.0609716 C107.998548,29.9943229 108,29.9275603 108,29.8606871 C108,22.205641 88.9721019,16 65.4999999,16 C42.0278981,16 23,22.205641 23,29.8606871 C23,29.8617623 23.0000004,29.8628373 23.0000011,29.8639122 L23.0003001,96.3997223 C23.3034204,104.051213 42.3264045,110.252673 65.7905983,110.252673 C89.2627002,110.252673 108.290598,104.047032 107.995653,96.3919855 C108.000173,96.2746772 108.000155,96.1577093 107.995653,96.0410989 L107.995653,96.0410776 L107.995653,30.4819766 C107.069403,38.3167386 88.6815514,44.2891615 65.4999999,44.2891615 C41.7094198,44.2891615 23.0213727,37.9987996 23.0213727,29.8606871 C23.0213727,37.0326668 39.2938801,44.2891612 65.4999995,44.2891612 C90.9882846,44.2891612 107.13045,37.4247599 107.995653,30.450088 Z" id="Server-Copy" stroke="#9A9BA5" stroke-width="4"></path>
            <path d="M107.995653,145.450088 L107.995653,145.060972 C107.998548,144.994323 108,144.92756 108,144.860687 C108,137.205641 88.9721019,131 65.4999999,131 C42.0278981,131 23,137.205641 23,144.860687 C23,144.861762 23.0000004,144.862837 23.0000011,144.863912 L23.0003001,211.399722 C23.3034204,219.051213 42.3264045,225.252673 65.7905983,225.252673 C89.2627002,225.252673 108.290598,219.047032 107.995653,211.391985 C108.000173,211.274677 108.000155,211.157709 107.995653,211.041099 L107.995653,211.041078 L107.995653,145.481977 C107.069403,153.316739 88.6815514,159.289162 65.4999999,159.289162 C41.7094198,159.289162 23.0213727,152.9988 23.0213727,144.860687 C23.0213727,152.032667 39.2938801,159.289161 65.4999995,159.289161 C90.9882846,159.289161 107.13045,152.42476 107.995653,145.450088 Z" id="Server-Copy-2" stroke="#9A9BA5" stroke-width="4"></path>
            <g id="Group" transform="translate(143.000000, 131.000000)">
                <path d="M84.9956534,14.450088 L84.9956534,14.0609716 C84.9985479,13.9943229 85,13.9275603 85,13.8606871 C85,6.20564102 65.9721019,0 42.4999999,0 C19.0278981,0 0,6.20564102 0,13.8606871 C0,13.8617623 3.75308039e-07,13.8628373 1.12580432e-06,13.8639122 L0.000300101722,80.3997223 C0.3034204,88.0512125 19.3264045,94.2526727 42.7905983,94.2526727 C66.2627002,94.2526727 85.2905983,88.0470317 84.9956534,80.3919855 C85.0001732,80.2746772 85.0001554,80.1577093 84.9956534,80.0410989 L84.9956534,80.0410776 L84.9956534,14.4819766 C84.0694028,22.3167386 65.6815514,28.2891615 42.4999999,28.2891615 C18.7094198,28.2891615 0.0213727212,21.9987996 0.0213727212,13.8606871 C0.0213727212,21.0326668 16.2938801,28.2891612 42.4999995,28.2891612 C67.9882846,28.2891612 84.1304498,21.4247599 84.9956534,14.450088 Z" id="Server-Copy-3" stroke="#1D2340" stroke-width="4"></path>
                <g id="ROS" transform="translate(25.442748, 38.020134)" fill="url(#linearGradient-1)">
                    <path d="M12.0182606,12.5766631 C10.0120319,13.8434393 7.8541457,14.8824161 5.69578995,15.7058658 C4.94072335,15.9939367 4.24079001,16.2340629 3.6148232,16.4281852 C3.24493382,16.5428938 2.9860973,16.6157706 2.85708247,16.6488712 C2.42468899,16.7834707 2.13720498,16.8884234 1.92243566,16.9873055 C1.76776262,17.0585186 1.63766382,17.1310819 1.51410932,17.2258922 C1.08552807,17.5547661 0.800004181,18.0085867 1.06930952,18.7080307 C1.28923652,19.2792288 1.65807917,19.4518453 2.11790836,19.5281105 C2.25931073,19.5515629 2.40178087,19.5577194 2.56394886,19.5537631 C2.8038218,19.5479108 3.11171509,19.5174506 3.49039469,19.4639895 L24.3318011,16.5503518 C17.015761,20.6766505 2.38842683,28.9368555 2.38842683,28.9368555 C-0.0226852524,30.2984351 0.753098236,32.5106003 3.49039469,32.1241555 L23.5326714,29.3201596 C21.3810494,30.5324316 19.2510767,31.8692422 17.2399047,33.3111794 C12.9793646,36.3658316 9.72832156,39.5464162 7.88490904,42.822929 L10.082161,44.0227724 C11.7148597,41.120786 14.7273383,38.1735957 18.7181412,35.3123352 C20.9684154,33.6989704 23.3856231,32.2151044 25.8032995,30.8971056 C26.6495373,30.4357781 27.4346821,30.0285091 28.1380779,29.6795813 C28.5569144,29.4718126 28.8530535,29.3307243 29.0058927,29.2605336 C31.5302936,27.9837045 30.800247,25.7683531 28.0315701,26.1592282 L7.1505131,29.0997436 C7.15104102,29.1001028 29.1335379,16.6863623 29.1335379,16.6863623 C31.5251566,15.3357908 30.7969876,13.1086473 28.0315701,13.4990622 L11.4178383,15.810298 C11.4110381,15.810978 12.7312126,15.0661757 13.3738505,14.6604002 C18.8450277,11.2057806 22.4730915,6.72634538 23.3002477,1.09609615 L20.8139509,0.741571058 C20.1069751,5.55378144 16.9316407,9.47424853 12.0182606,12.5766631 Z" id="Path-12-Copy-2"></path>
                </g>
            </g>
            <path d="M227.995653,30.450088 L227.995653,30.0609716 C227.998548,29.9943229 228,29.9275603 228,29.8606871 C228,22.205641 208.972102,16 185.5,16 C162.027898,16 143,22.205641 143,29.8606871 C143,29.8617623 143,29.8628373 143.000001,29.8639122 L143.0003,96.3997223 C143.30342,104.051213 162.326405,110.252673 185.790598,110.252673 C209.2627,110.252673 228.290598,104.047032 227.995653,96.3919855 C228.000173,96.2746772 228.000155,96.1577093 227.995653,96.0410989 L227.995653,96.0410776 L227.995653,30.4819766 C227.069403,38.3167386 208.681551,44.2891615 185.5,44.2891615 C161.70942,44.2891615 143.021373,37.9987996 143.021373,29.8606871 C143.021373,37.0326668 159.29388,44.2891612 185.499999,44.2891612 C210.988285,44.2891612 227.13045,37.4247599 227.995653,30.450088 Z" id="Server-Copy-4" stroke="#9A9BA5" stroke-width="4"></path>
        </g>
    </g>
</svg>