<?xml version="1.0" encoding="utf-8"?>
<svg xmlns="http://www.w3.org/2000/svg" viewBox="0 0 800 250">
<path fill="#1D2340" d="M412.091,244.744l-10.936-21.226C395.932,231.196,378.91,250,347.566,250
	c-34.684,0-60.954-24.585-60.954-53.332c0-29.194,20.322-67.75,102.78-67.75c0-19.373-16.795-26.582-34.539-26.582
	c-13.581,0-32.899,5.725-49.381,21.281l-15.69-44.159c10.836-6.729,35.834-23.96,73.062-23.96c55.475,0,78.14,33.49,78.14,87.458
	v101.798h-28.892v-0.01H412.091z M337.713,190.05c0,12.331,19.954,24.116,36.637,15.199c16.27-8.696,14.92-22.308,14.92-41.547
	C358.458,163.703,337.713,174.829,337.713,190.05L337.713,190.05z M213.283,204.346c22.565,0,39.974-10.568,39.974-10.568
	l14.597,40.498c-7.343,3.995-31.615,14.15-60.485,14.15c-66.422,0-93.105-43.969-93.105-96.564
	c0-49.683,29.885-94.857,83.117-94.857c52.294,0,87.927,43.4,78.597,113.036H164.906
	C167.327,194.838,188.865,204.346,213.283,204.346L213.283,204.346z M165.609,130.994h60.764
	c-1.451-24.406-15.925-33.044-30.019-33.044C182.27,97.95,167.327,109.355,165.609,130.994L165.609,130.994z M553.629,244.655
	h51.624V143.693c0-16.672,9.887-36.458,26.939-36.458c17.097,0,18.547,23.625,18.547,34.896
	c0.089,0.324,0.056,102.523,0.056,102.523h51.658V144.452c0-22.81,12.733-37.005,26.571-37.005
	c16.851,0,19.418,18.659,19.418,36.246l0.112,100.961H800V127.59c0-23.391-8.046-70.239-58.878-70.239
	c-24.149,0-38.166,7.979-49.515,28.167c-10.602-18.994-29.975-28.245-49.102-28.245c-19.116,0-39.818,10.066-50.486,30.845
	L581.875,62.92H553.63L553.629,244.655L553.629,244.655z M0,244.655h51.636V143.693c0-16.672,4.129-37.351,21.181-37.351
	c7.823,0,14.597,2.065,20.88,7.343c0.201,0.201,18.815-43.031,18.614-42.831c-11.573-10.568-23.647-13.079-32.452-13.079
	c-19.116,0-35.075,11.573-41.469,28.881L28.246,62.908H0V244.655L0,244.655z M470.601,0h52.339v244.788h-52.339V0L470.601,0z"/>
</svg>
