<?xml version="1.0" encoding="UTF-8" standalone="no"?>
<svg width="90px" height="29px" viewBox="0 0 90 29" version="1.1" xmlns="http://www.w3.org/2000/svg" xmlns:xlink="http://www.w3.org/1999/xlink">
    <!-- Generator: Sketch 3.8.2 (29753) - http://www.bohemiancoding.com/sketch -->
    <title>Page 1 Copy 15</title>
    <desc>Created with Sketch.</desc>
    <defs></defs>
    <g id="Page-1" stroke="none" stroke-width="1" fill="none" fill-rule="evenodd">
        <g id="Page-1-Copy-15">
            <g id="Logo" transform="translate(0.073489, 0.000000)">
                <path d="M20.4542409,1.37900091 C18.5939718,0.494788452 16.5127743,0 14.3160127,0 C10.4837864,0 7.00324942,1.50576086 4.43377117,3.9579131 C1.70199161,6.56495576 25.289394,3.67721826 20.4542409,1.37900091 Z" id="Melon" fill="#FCC397"></path>
                <path d="M25.5001513,5.37854023 C25.5165053,5.39897853 24.3325199,6.98142599 20.7740851,7.43067404 C13.5916269,8.33745064 1.26054384,8.433324 1.27912946,8.39248498 C2.04194479,6.71631672 3.11851423,5.21310446 4.43380889,3.95787711 C5.98354139,4.44173756 7.6703612,4.56231236 9.26590102,4.26828167 C11.9004285,3.78630925 14.244348,2.26403989 16.8502911,1.64367934 C18.0069867,1.36579811 19.2671753,1.28462958 20.4540488,1.3789096 C22.4262329,2.31628046 24.150116,3.69133928 25.5001513,5.37854023 Z" id="Peach" fill="#FC9F95"></path>
                <path d="M28.4574018,12.0734548 C28.4664748,12.1311271 12.2609683,13.6544133 4.36523058,13.2104187 C1.79271926,13.0657608 0.274534213,11.510412 0.291945415,11.4254913 C0.508920902,10.3672236 0.842672214,9.35152564 1.27914429,8.3924524 C3.56025259,7.14387781 6.24396667,6.42331354 8.84628104,6.45174973 C12.109665,6.48515376 15.3111161,7.57317073 18.5745,7.49204666 C20.9980339,7.43040906 23.4408269,6.65689609 25.5001256,5.37850809 C27.0177594,7.27515334 28.0629664,9.56625053 28.4574018,12.0734548 Z" id="Sexy-Salmon" fill="#F77C88"></path>
                <path d="M28.6320255,14.3160127 C28.6320255,14.3953356 28.630095,14.5535245 28.630095,14.5535245 C28.630095,14.5535245 24.1290032,15.6888127 18.3321661,15.6210804 C10.2128199,15.526211 0.000318556884,14.2165547 0.000521118133,14.1925716 C0.00854373566,13.2426986 0.109073894,12.3148893 0.293542466,11.4177129 C2.23881467,12.6179881 4.59793891,13.2058333 6.86857615,12.9584067 C8.67415646,12.7627545 10.3892195,12.0946739 12.0614061,11.3836453 C13.7335926,10.6726166 15.396251,9.90909595 17.1637187,9.49870358 C19.7601337,8.89743105 22.5375831,9.10739924 25.0196605,10.0856601 C26.2271476,10.561841 27.4252485,11.2464303 28.4571654,12.0719527 C28.5722645,12.8030655 28.6320255,13.5525601 28.6320255,14.3160127 Z" id="Flamingo" fill="#F25192"></path>
                <path d="M12.3963687,18.9643009 C8.10123278,19.7574813 0.730256197,18.8426255 0.711681131,18.7860596 C0.249828052,17.3795964 0,15.8769798 0,14.3160127 C0,14.2747904 0.000174228654,14.2336087 0.000521989746,14.1924684 C0.652557522,13.6754368 1.41417908,13.2144139 2.15768207,12.8561835 C3.99661083,11.9638187 6.08327092,11.5916024 8.11752631,11.7920265 C10.1279614,11.9924507 12.0478792,12.7368834 13.9058642,13.5385801 C15.4712114,14.2140073 17.026414,14.9436294 18.6512422,15.447785 C18.8104063,15.4971708 17.1243229,18.0911922 12.3963687,18.9643009 Z" id="Mulberry" fill="#D34CA3"></path>
                <path d="M28.1155503,18.1402439 C27.8156381,18.6467482 24.9632254,20.3530438 21.0966259,20.6452683 C15.977063,21.0321875 9.92910273,19.4846617 11.9353305,18.6971269 C15.093905,17.4564058 17.8332419,15.2278798 21.0966258,14.297339 C23.5345033,13.598963 26.2368877,13.7093834 28.6300994,14.5532588 C28.609945,15.79367 28.432032,16.9957284 28.1155503,18.1402439 Z" id="Grape-Jelly" fill="#9A50A5"></path>
                <path d="M26.7300962,21.4509754 C24.2580867,25.7427461 6.32933722,26.8190235 3.71020516,23.9320497 C2.37697706,22.4624809 1.34496593,20.714629 0.711649016,18.7859711 C2.91338095,17.5275716 5.49073964,16.9931071 7.96805299,17.3319194 C11.1742682,17.7709438 14.0469988,19.5604454 17.2103374,20.257158 C19.7638758,20.8202545 22.4698642,20.6436903 24.9281213,19.7560976 C26.0393857,19.3517604 27.1412611,18.8099092 28.1156152,18.1399979 C27.791913,19.3107077 27.3232274,20.4212127 26.7300962,21.4509754 Z" id="Indigo" fill="#59569E"></path>
                <path d="M26.7506873,21.4151111 C24.2838748,25.7266421 19.6392378,28.6320255 14.3160123,28.6320255 C10.1102116,28.6320255 6.32800919,26.8183854 3.70882546,23.9305257 C4.14347177,24.096693 4.62959882,24.2403315 5.07515708,24.3658537 C7.56676262,25.0530223 10.2489307,25.0339343 12.7262441,24.3038176 C14.3126774,23.8361612 15.8038295,23.0917285 17.3616785,22.528632 C20.3343862,21.4566736 23.6063356,21.0791682 26.7506873,21.4151111 L26.7506873,21.4151111 Z" id="East-Bay" fill="#39477F"></path>
            </g>
            <path d="M67.5437414,4.48963213 L71.1201673,4.48963213 L71.1201673,21.3106715 L67.5437414,21.3106715 L67.5437414,4.48963213 Z M35.3868592,21.3015456 L38.9152604,21.3015456 L38.9152604,14.3638077 C38.9152604,13.2181003 39.1973998,11.7971014 40.3625464,11.7971014 C40.8970988,11.7971014 41.3600375,11.9390057 41.7893347,12.301743 C41.8030981,12.3155117 43.0750117,9.3447771 43.0612482,9.35854586 C42.2704205,8.63230252 41.4454147,8.45975531 40.8437834,8.45975531 C39.5375331,8.45975531 38.4470235,9.25504037 38.0101001,10.4443983 L37.3169695,8.81245337 L35.3868592,8.81245337 L35.3868592,21.3015456 Z M73.1236347,21.3015456 L76.6511364,21.3015456 L76.6511364,14.3638077 C76.6511364,13.2181003 77.326717,11.858471 78.4919392,11.858471 C79.6601847,11.858471 79.7593254,13.4818989 79.7593254,14.256428 C79.7653719,14.2787062 79.7631045,21.3014695 79.7631045,21.3014695 L83.2930173,21.3014695 L83.2930173,14.4158991 C83.2930173,12.8485129 84.1630396,11.873077 85.1086438,11.873077 C86.2601328,11.873077 86.4354826,13.1552846 86.4354826,14.3638077 L86.4431164,21.3014695 L89.9585024,21.3014695 L89.9585024,13.2572602 C89.9585024,11.6498768 89.4086447,8.43062703 85.9352821,8.43062703 C84.2851799,8.43062703 83.3273315,8.97891918 82.551862,10.3661469 C81.8274103,9.06097614 80.5036476,8.42530676 79.1966414,8.42530676 C77.8903911,8.42530676 76.4758471,9.11694172 75.7468756,10.5448593 L75.0536769,8.81329061 L73.1237102,8.81329061 L73.1236347,21.3015456 Z M46.7031657,13.4911009 L50.8552757,13.4911009 C50.7561425,11.8140669 49.7671166,11.2204497 48.8040229,11.2204497 C47.8416925,11.2204497 46.8205972,12.0041809 46.7031657,13.4911009 L46.7031657,13.4911009 Z M49.960848,18.5316485 C51.5027322,18.5316485 52.6922993,17.8054127 52.6922993,17.8054127 L53.6897224,20.5883114 C53.1879876,20.8628373 51.5294277,21.5607097 49.5567422,21.5607097 C45.0179784,21.5607097 43.1947181,18.5392521 43.1947181,14.9250998 C43.1947181,11.5110932 45.2368255,8.40682663 48.8742006,8.40682663 C52.4475201,8.40682663 54.8823959,11.3891913 54.2448482,16.1743051 L46.655141,16.1743051 C46.8205972,17.8782677 48.2923037,18.5316485 49.960848,18.5316485 L49.960848,18.5316485 Z M58.4632811,17.5492939 C58.4632811,18.3965943 59.8267772,19.2064854 60.96674,18.5937031 C62.0784956,17.9961356 61.9862405,17.060773 61.9862405,15.7387128 C59.8808408,15.7387889 58.4632811,16.5033549 58.4632811,17.5492939 L58.4632811,17.5492939 Z M63.5456672,21.3076293 L62.7983973,19.8490696 C62.4414698,20.3766759 61.2783638,21.6688474 59.1365942,21.6688474 C56.7665298,21.6688474 54.9714767,19.9794124 54.9714767,18.0040437 C54.9714767,15.9979522 56.360149,13.3485192 61.9946376,13.3485192 C61.9946376,12.017257 60.8469579,11.5218174 59.6344743,11.5218174 C58.7064732,11.5218174 57.3864594,11.9152814 56.2602601,12.9841835 L55.1881244,9.94971983 C55.9285163,9.48736639 57.6366806,8.30332875 60.1805228,8.30332875 C63.9712533,8.30332875 65.5199399,10.6046305 65.5199399,14.3131623 L65.5199399,21.3083897 L63.5457428,21.3083897 L63.5457428,21.3076293 L63.5456672,21.3076293 Z" id="Fill-10" fill="#1C233F"></path>
        </g>
    </g>
</svg>