<?xml version="1.0" encoding="UTF-8" standalone="no"?>
<svg width="20px" height="18px" viewBox="0 0 20 18" version="1.1" xmlns="http://www.w3.org/2000/svg" xmlns:xlink="http://www.w3.org/1999/xlink">
    <!-- Generator: Sketch 3.6.1 (26313) - http://www.bohemiancoding.com/sketch -->
    <title>Untitled</title>
    <desc>Created with Sketch.</desc>
    <defs></defs>
    <g id="Page-1" stroke="none" stroke-width="1" fill="none" fill-rule="evenodd">
        <g id="social_hatena" fill="#9A9BA5">
            <g id="Page-1">
                <path d="M0,0 L0,17.5824176 L7.70833333,17.5824176 C9.79166667,17.5824176 11.875,16.9230769 12.7083333,14.9450549 C13.75,12.967033 13.3333333,9.89010989 11.4583333,8.57142857 C10.8333333,8.13186813 10.2083333,7.91208791 9.58333333,7.69230769 C11.0416667,7.47252747 12.2916667,6.37362637 12.2916667,4.83516484 C12.5,3.2967033 12.0833333,1.31868132 10.625,0.659340659 C8.95833333,0 6.66666667,0 5,0 L0,0 L0,0 L0,0 Z M15.625,0 L15.625,11.6483516 L19.7916667,11.6483516 L19.7916667,0 L15.625,0 L15.625,0 L15.625,0 Z M4.16666667,3.2967033 C4.16666667,3.2967033 6.45833333,3.2967033 7.08333333,3.51648352 C8.33333333,3.95604396 8.33333333,6.15384615 6.875,6.37362637 C6.45833333,6.59340659 4.16666667,6.59340659 4.16666667,6.59340659 L4.16666667,3.2967033 L4.16666667,3.2967033 L4.16666667,3.2967033 Z M4.16666667,10.1098901 C4.16666667,10.1098901 6.45833333,10.1098901 7.5,10.3296703 C8.75,10.5494505 9.16666667,11.8681319 8.54166667,12.967033 C8.125,13.8461538 7.29166667,13.8461538 6.45833333,13.8461538 L4.16666667,13.8461538 L4.16666667,10.1098901 L4.16666667,10.1098901 L4.16666667,10.1098901 Z M17.7083333,12.7472527 C16.4426808,12.7472527 15.4166667,13.8296413 15.4166667,15.1648352 C15.4166667,16.5000291 16.4426808,17.5824176 17.7083333,17.5824176 C18.9739859,17.5824176 20,16.5000291 20,15.1648352 C20,13.8296413 18.9739859,12.7472527 17.7083333,12.7472527 L17.7083333,12.7472527 L17.7083333,12.7472527 Z" id="Shape"></path>
            </g>
        </g>
    </g>
</svg>