<svg width="614px" height="324px" viewBox="0 0 614 324">
    <defs>
        <path d="M311.40945,137.488035 C306.226313,134.882786 304.061981,128.366922 296.190893,129.94945 C290.848432,131.023582 278.708772,131.338071 274.79669,135.270804 C268.981219,141.116974 255.002051,165.149537 258.034221,174.294067 C259.269397,178.019153 261.97018,182.207538 263.548191,185.380221 C265.546531,189.397998 278.884841,197.609326 284.280718,195.801206 C287.795122,194.623554 293.965829,190.691786 297.955363,192.697083 C300.134261,193.792283 301.065822,196.932577 302.587098,198.461883 C306.317676,202.212155 303.991794,211.263644 306.336597,215.978007 C306.867912,217.046247 308.261093,221.199344 307.65995,222.407976 C305.755563,226.236856 303.09669,230.069017 304.131009,235.267915 C305.287014,241.078449 310.17622,245.789045 311.188891,251.897147 C311.756315,255.319664 313.484992,268.350151 316.482302,269.856717 C331.684112,277.497745 344.596668,257.558002 352.433385,249.679916 C355.07615,247.023201 350.960594,238.229047 352.653944,234.824469 C354.847573,230.414051 359.363404,227.228053 360.81462,222.851423 C361.199852,221.689626 356.765436,216.927537 355.962326,215.312838 C353.79994,210.965235 367.069636,198.461883 368.313619,198.461883 C371.939256,198.24016 377.17438,179.875757 375.592059,178.285082 C372.29888,174.974519 362.46965,180.392296 358.609032,176.511298 C350.607962,168.467992 347.03359,146.471735 340.523211,139.926989 C339.249069,138.646121 328.913949,138.346738 326.848565,137.931481 C322.7719,137.931481 315.029624,139.307677 311.40945,137.488035 Z M368.237225,255.318065 C368.910278,256.016124 371.182113,246.984632 371.669418,245.973811 C374.348917,240.415698 378.923008,230.814044 372.95649,226.172891 C363.654178,229.388871 362.037726,248.888223 368.237225,255.318065 Z M306.373176,25.1588728 C307.273629,26.9653896 311.629764,25.0679888 313.116037,25.8134408 C322.422781,30.481311 337.127855,16.2131105 323.121572,16.2131105 L316.813735,16.2131105 C313.649688,16.2131105 310.895998,16.4065674 307.678246,16.8676784 C307.306747,18.3583049 305.712078,23.8325578 306.373176,25.1588728 Z M387.354841,35.3445934 C386.173404,36.5405797 379.780447,42.8517317 380.866542,43.9512021 C384.149588,47.2746783 397.08369,36.593931 399.660236,33.9856552 C401.262954,32.3632 405.128057,32.7538026 406.596004,31.2677788 C406.689065,31.1735716 406.689065,29.0970889 406.596004,29.0028817 C404.614088,26.9965593 394.544653,30.3862775 393.395671,30.8147994 C391.192818,32.3014535 389.034585,33.6441639 387.354841,35.3445934 Z M259.511063,59.1778532 C272.263967,59.1778532 264.363346,65.8456477 261.029676,69.3032261 C259.700619,70.6816827 242.201478,68.5805 247.145215,63.4530107 C248.560652,61.9849634 250.034692,61.0331458 252.568832,59.1778532 L259.511063,59.1778532 Z M281.478689,87.2705763 C281.478689,88.7818465 278.53633,93.7043264 279.701929,94.8392357 C279.919933,95.0514999 292.763318,90.6894286 289.47411,87.4868237 C286.827744,84.9101341 284.245322,79.6392751 282.589165,75.8094636 C274.476761,73.1765273 281.478689,83.6868081 281.478689,87.2705763 Z M270.658907,94.3208891 C271.464494,97.9134154 275.811885,97.5150886 274.306667,89.1244131 C272.89719,84.4102285 270.031761,91.5241246 270.658907,94.3208891 Z M281.618165,113.239525 C277.073237,117.780111 272.907218,108.08626 270.125883,119.20097 C267.406058,130.069878 280.564265,131.293579 286.480285,125.38321 C290.603926,121.263509 284.493044,115.446866 294.43648,112.135553 C300.014194,110.278092 303.326669,115.537707 307.696806,116.993028 C312.38855,118.555448 314.558001,114.788424 317.863055,115.889056 C323.508498,117.769073 328.651359,122.864538 334.659468,119.863353 C337.502401,118.443245 335.020077,112.015465 337.974549,111.031582 C340.345459,110.242034 347.947835,111.196347 349.02482,109.044433 C351.755296,103.5887 336.42284,101.762888 339.521587,98.6671022 C343.839232,94.3535821 351.91254,90.2476487 354.991967,84.0946796 C357.593159,78.8972655 356.202669,72.6326709 357.644032,66.8727256 C358.128942,64.9349387 359.505347,59.5520859 358.528054,57.5993657 C356.872987,54.292395 346.927389,52.1076374 343.278679,51.1963315 C331.782596,48.3250564 324.262974,44.0251323 312.116914,50.0923601 C309.49213,51.4034984 307.244817,61.3661592 305.265746,64.0023999 C301.049623,69.6185268 293.719281,69.1932 298.193572,78.133234 C298.644614,79.0344564 297.948677,81.200487 298.635583,81.8867368 C300.548599,83.7979249 304.952769,79.5869106 305.486751,80.1203825 C307.683104,82.3146365 302.464075,84.3154739 309.022838,84.3154739 C310.93665,84.3154739 314.603702,84.9221816 315.653001,83.8738853 C316.374208,83.1533677 316.585263,79.1408158 317.200039,77.9124397 C317.613876,77.0855565 320.95443,75.9198941 320.073109,74.1589369 C318.877555,71.7701127 317.066949,70.0541086 317.863055,66.8727256 C318.258276,65.2933513 324.304896,58.9567833 326.703272,61.3528685 C329.540129,64.1870152 321.770467,67.7648435 322.94618,71.2886112 C324.018945,74.5038301 331.234503,72.9414747 330.239359,77.9124397 C328.593636,86.1331949 316.037544,87.6247724 307.609187,89.4522569 C305.316805,89.9493043 303.966208,85.311104 302.587098,86 C302.015536,86.285508 301.450667,88.875748 300,90.091014 C298.57258,91.2868049 296.256741,91.1079285 295.983518,91.3808909 C294.760889,92.6023521 295.961511,96.2823369 295.099496,98.0047194 C294.938572,98.3262597 284.292415,101.205128 282.060176,101.316634 C281.404244,103.937857 283.19482,111.664376 281.618165,113.239525 Z M356.739171,90.5738137 C354.799248,94.4673439 346.994545,94.7403605 345.301148,98.1390976 C344.680856,99.3840572 349.371546,101.702107 349.980339,102.313047 C352.778976,105.121554 360.359123,114.632487 358.298902,120.834949 C357.236433,124.033597 331.34629,120.740092 334.902946,127.87849 C337.668342,133.428788 347.090145,128.630308 350.240295,131.791568 C352.54508,134.104481 347.41523,145.130595 349.980339,147.704751 C359.527106,157.285187 355.112636,178.657562 374.15616,174.835425 C381.931967,173.274779 384.580369,170.113634 389.493509,165.183166 C392.934904,161.729634 390.298117,148.93043 400.671577,152.400445 C416.169896,157.584771 413.931546,165.187703 420.168207,177.705015 C421.632127,180.643182 421.129115,185.568365 423.232737,187.600443 C425.336358,189.632522 429.234541,173.334606 430.566409,170.661475 C433.910357,163.949994 439.931098,161.785503 445.123893,156.574394 C445.48323,156.21379 446.480216,156.892014 446.683623,157.096138 C450.981369,161.409041 449.903376,169.19689 453.962365,173.270193 C458.772526,178.097319 466.800635,178.066713 471.379355,182.66158 C473.117393,182.922452 474.673628,185.704328 476.578456,184.748555 C476.683399,184.695899 476.578456,182.93371 476.578456,182.922452 C476.578456,177.750833 472.133034,169.670544 474.498815,164.922294 C475.899543,162.110958 480.238437,162.212829 482.817377,160.487472 C490.0914,155.621022 496.037434,149.829511 501.534142,144.313417 C505.313311,140.52092 500.906937,128.553431 498.154726,125.791515 C498.059082,125.695534 497.21395,124.12689 497.634816,123.70454 C501.788515,119.536192 509.920465,130.680081 511.67239,128.921977 C513.549849,127.037896 510.330521,122.776171 513.23212,120.834949 C517.67017,117.865815 524.086357,117.246844 527.789604,113.530537 C529.912397,111.400257 530.61328,105.852795 533.508615,104.400022 C535.105667,103.59868 538.611959,103.191758 540.007492,101.791304 C544.104615,97.6797305 533.890271,93.1659209 532.468795,90.3129418 C529.78709,84.9306167 535.928833,81.3893609 539.747537,78.8345799 C545.122277,75.2387829 550.458928,78.2342628 556.384661,76.7476051 C558.501651,76.2164911 571.740053,71.3236161 572.24192,72.8345272 C573.487931,76.585743 566.944135,77.6697124 564.703223,79.3563237 C559.461008,83.3018506 558.661492,91.2934439 563.403447,96.0521227 C564.814632,97.4682838 572.964446,84.4087905 573.80165,83.0085297 C575.049206,80.9219374 577.181066,78.4657061 577.181066,76.2258613 C577.181066,75.7844236 577.243642,75.4118476 577.700976,75.1823739 C582.46646,72.7912287 609.523072,60.7264645 611.235179,59.0083186 C613.041111,57.1960177 607.963272,51.3351466 606.555988,52.7473939 C603.63324,55.68045 589.063705,54.4304678 585.239673,53.7908813 C568.808397,51.0426772 552.995714,46.3802076 536.628076,43.0951351 C521.886695,40.136461 507.550255,37.616826 492.435715,37.616826 C490.91691,37.616826 478.2581,38.9009864 477.618276,37.616826 C476.48884,35.3499866 484.629068,33.9405508 483.337288,30.051542 C482.374361,27.152575 469.0859,24.2969265 465.920298,25.3558486 C451.659607,30.126177 437.296315,39.1820572 421.467982,39.1820572 C417.129354,39.1820572 410.012164,36.7127034 406.650544,38.3994416 C401.312262,41.0779959 398.365151,45.2579716 391.57315,47.5299567 C380.428631,51.2578976 370.679487,48.410173 362.718138,56.3995999 C365.854546,68.9894785 361.342295,81.3350972 356.739171,90.5738137 Z M451.682723,8.35761645 C449.667715,9.32332686 454.787844,20.1304786 456.623189,20.570281 C464.154879,22.3750954 467.407615,19.1593546 460.003507,14.0900917 C457.765218,13.3749451 455.040743,6.74825597 451.682723,8.35761645 Z M531.431148,127.446806 C529.06155,132.231524 523.138815,133.705175 519.115182,135.736315 C517.727732,136.436704 518.806838,140.113988 519.88493,140.658212 C523.547797,142.507237 526.174218,137.353839 528.865322,135.995363 C541.007828,129.865794 539.673085,125.71349 541.951036,112.681118 C535.683881,114.790235 533.901892,122.457854 531.431148,127.446806 Z M460.280874,198.722807 C461.447512,204.533793 465.547507,216.270908 472.586574,218.023975 C474.815432,218.579068 478.482084,218.613068 480.441276,219.588934 C481.710288,220.221025 487.702789,223.831437 488.819625,222.718853 C492.298457,219.253266 475.594958,212.674454 474.157514,211.242483 C465.661154,202.778471 479.279487,197.112035 465.255518,187.507264 C460.429536,180.29585 459.757844,196.117615 460.280874,198.722807 Z M486.918321,197.387388 C485.996719,199.193323 482.828066,200.364073 481.657617,201.510855 C479.51202,203.613069 485.445125,209.938094 486.655286,210.530939 C488.494693,211.432047 490.492859,209.500073 492.179024,209.500073 C493.527796,209.500073 499.609729,210.466548 500.333115,209.757789 C501.937974,208.18538 496.650622,200.572653 496.650622,198.418255 C496.650622,193.612504 497.367506,194.065466 494.546341,188.882737 C490.396576,188.882737 488.561157,194.168151 486.918321,197.387388 Z M524.039915,208.85976 C526.653335,212.755932 538.491053,216.429095 542.514605,218.428575 C543.557155,218.946664 549.2113,224.703639 550.320812,223.600908 C553.900442,220.043155 538.670652,209.603804 535.489018,208.85976 C533.686813,207.516366 520.072923,202.94564 524.039915,208.85976 Z M487.125697,248.110201 C485.934007,250.506972 486.091775,254.440297 486.091775,257.207846 C486.091775,259.676147 485.848548,262.192584 486.608736,264.485961 C493.544151,285.409109 509.29347,259.271836 520.728147,262.146567 C529.013887,264.229641 539.333838,283.073611 549.419469,278.002462 C554.384901,275.505796 552.879299,268.50424 554.072116,263.706163 C554.745544,260.997319 560.149484,255.394509 558.724763,252.529057 C556.386132,247.825515 548.599299,246.460643 546.059224,241.351951 C542.462646,234.118377 541.128947,227.305956 533.393686,223.416594 C528.925045,221.16972 518.485543,227.367274 514.266137,228.615248 C509.49109,240.619939 492.211728,237.880984 487.125697,248.110201 Z M594.702064,276.652789 C593.183421,277.398603 574.576783,305.936894 584.59148,302.002276 C589.665584,300.00874 589.658968,293.196014 594.169928,290.242205 C597.277785,288.207157 598.995484,285.167477 601.087696,281.879488 C598.938491,281.17583 597.600539,275.229332 594.702064,276.652789 Z M598.920241,260.389826 C599.225882,261.303009 605.274349,268.393992 606.246596,267.42571 C608.059679,265.620023 604.499196,257.691046 604.153352,257.002179 C601.501445,257.002179 597.607941,256.468987 598.920241,260.389826 Z M157.702169,180.724164 C156.789503,182.564411 157.64738,189.490313 156.523944,190.622928 C152.387018,194.793654 149.323114,201.711256 147.490885,207.252851 C146.758633,209.467558 153.654516,232.472468 154.952978,233.781538 C157.026678,235.872181 161.031297,236.741915 163.200553,238.928895 C166.090974,241.842932 164.899533,256.359494 163.593295,260.310225 C161.923009,265.362023 164.322008,272.699162 162.022328,277.336099 C155.379575,290.730153 155.868564,315.21496 168.698937,321.682561 C172.270845,323.483107 170.269904,308.263844 170.269904,306.24049 C170.269904,297.189637 174.318607,290.28019 179.695704,284.85916 C184.300281,280.216961 195.398493,277.74592 198.547306,271.396841 C200.810422,266.833627 204.81535,253.595018 207.580365,250.807412 C211.175571,247.182832 216.411114,246.655918 219.362616,243.680302 C221.473804,241.551864 218.177489,234.184446 220.148099,232.197736 C222.850574,229.473181 231.067493,222.538911 227.610191,215.567813 C224.096834,208.483686 216.611204,213.585822 211.507782,208.440703 C202.651033,199.511591 193.674525,186.978779 182.837638,181.516065 C178.573014,179.366331 173.27382,180.62492 168.306195,178.34846 C165.312851,178.34846 158.985956,178.135613 157.702169,180.724164 Z M170.517234,28.3616613 C172.690001,32.7212656 180.927773,26.9724094 183.885249,29.9394609 C188.961178,35.0318237 188.784701,44.7160236 192.928318,48.8730561 C194.732791,50.6833714 199.52681,47.9125707 201.185033,51.2397555 C205.032456,58.9595138 194.63947,64.0010451 209.048572,78.4567986 C210.411399,79.8240385 213.423789,72.8336326 213.766695,72.1456002 C215.684981,68.2966054 220.466891,62.0790071 223.989295,60.3121032 C230.932258,56.829382 244.109464,52.7491882 248.759441,48.0841563 C254.332431,42.4931223 249.941976,28.3556337 253.084387,22.050463 C254.660008,18.8890174 265.376167,12.0020258 262.91381,7.06136677 C260.544594,2.30759427 248.833492,5.60075247 243.648141,4.30021747 C227.765432,0.31668458 205.595938,-1.9986409 189.782903,2.32796797 C189.782903,12.5355176 166.845467,20.994351 170.517234,28.3616613 Z M122.171279,28.3410105 C114.662778,35.8348285 99.2773927,30.2983179 89.8564916,27.9476984 C87.8692568,27.4518613 78.005,24.0435287 76.0635943,25.9811378 C72.9984775,29.0402606 54.3693349,48.3065179 52.4186276,48.793241 C37.1343276,52.6068436 17.3445945,36.7975534 2.76419745,44.0734955 C1.28414371,44.8120752 1.11884251,50.8975793 0.399700772,52.3330501 C-1.38484169,55.8951555 3.30079367,62.0570106 4.73461134,64.9190381 C6.21061348,67.8652695 -0.0204706767,67.9874221 1.18786633,71.6053442 C2.34413745,75.0673741 10.1540623,83.1592934 13.0103497,84.5846443 C15.3291613,85.7417828 24.8386157,72.7867234 34.2908198,75.1451533 C49.4379872,78.9245398 50.1936603,87.4770856 60.694366,97.9572565 C62.108426,99.3685512 66.6639777,98.0155124 68.1819388,99.530505 C70.1135895,101.458378 63.653751,104.843976 65.8174421,107.003435 C73.1047023,114.276445 75.3301213,132.284582 81.1866705,143.974775 C82.5104092,146.617075 95.4906276,154.754018 95.7677333,154.20089 C97.2167965,151.308431 92.9995451,144.377677 94.1914022,143.188151 C94.7559984,142.624659 97.9111926,146.900667 98.13223,147.121272 C103.842354,152.820229 103.777918,162.195411 108.772465,167.18019 C108.997671,167.404956 134.772845,177.795085 137.146425,178.979554 C138.2688,179.539644 150.867954,191.243458 154.88015,187.239109 C156.819244,185.303807 145.631099,182.727891 143.845832,180.946115 C141.706234,178.810701 146.593509,175.822176 144.633998,173.866496 C141.924084,171.161882 138.463594,176.10237 136.35826,171.899936 C134.363121,167.917463 138.764498,160.769979 133.205597,158.920636 C126.883624,156.817432 126.905552,168.362761 121.383114,165.606942 C118.185975,164.011499 117.442286,157.262396 117.442286,153.807578 C117.442286,144.721177 122.885905,147.276842 130.447018,144.761399 C131.951351,144.260935 136.33609,140.817215 137.146425,141.22159 C143.371338,144.32796 142.147766,146.213151 146.210329,150.267769 C146.44492,150.501901 147.734441,152.679759 148.574826,151.841018 C151.644099,148.777747 145.173491,138.716591 148.180743,135.71522 C149.622143,134.276639 152.785512,135.839202 154.091985,134.535284 C159.471815,129.165974 162.581233,119.949863 165.914468,113.296429 C169.303895,106.530832 178.33014,114.865557 180.889614,109.75662 C183.453254,104.639367 170.216611,102.316393 173.796124,98.7438808 C174.581674,97.9598665 185.24209,96.0257585 186.01269,97.5639444 C188.804451,103.136548 185.052118,106.216811 194.682511,106.216811 C195.49485,106.216811 196.280019,106.17454 196.652925,105.430187 C197.874896,102.991023 193.108886,99.9265185 192.318014,99.1371929 C190.429509,97.2523805 193.041536,91.9930572 191.135766,90.091014 C187.520306,86.4826243 179.528357,83.8340164 177.342869,79.4715867 C174.372152,73.5417722 171.33999,63.1353924 175.372455,55.086235 C175.577157,54.6776312 176.281174,52.4533684 175.766537,51.939738 C168.603808,44.791016 156.362673,40.7397492 151.727488,31.4875075 C151.404298,30.8423911 151.333405,29.9208702 151.333405,29.1276348 C151.333405,26.8426688 157.42049,27.5966997 158.820978,24.8012014 C161.937882,18.5795845 167.520899,12.1551305 170.643461,5.92221946 C170.771445,5.6667531 173.216536,3.7705172 172.219792,2.77572246 C169.217671,-0.220527668 161.980943,3.56234671 158.820978,3.56234671 C156.774456,3.56234671 150.940291,5.33176814 148.968908,6.31553158 C141.047832,10.2683247 126.203473,5.00345901 117.048203,7.49546795 C117.048203,11.0768997 125.172467,25.3456921 122.171279,28.3410105 Z M130.477955,71.4570778 C128.276363,73.6574115 122.003167,72.1214525 119.93441,74.1890273 C119.842368,74.2810168 119.93441,74.449213 119.93441,74.5793058 C119.93441,79.0164499 137.637364,80.9540668 141.412001,84.7265468 C144.887723,88.2002823 145.129728,97.1218676 150.003037,99.5571297 C152.814849,100.962232 150.903644,92.2930468 151.565044,90.9710028 C152.664382,88.7735834 157.049584,81.6568415 156.251063,79.2626478 C155.67703,77.5415317 156.207669,78.8506845 155.47006,78.4820908 C147.604975,74.5517955 144.05943,69.4387707 137.116483,64.0417863 C134.308482,64.9772516 131.911174,70.0246778 130.477955,71.4570778 Z M152.520314,166.217921 C152.898103,166.59397 165.465365,167.93117 165.601001,167.796158 C168.150227,165.25867 159.476161,161.915831 158.862465,160.69409 C158.115971,159.207976 158.887142,150.645109 157.673312,150.040989 C156.040649,149.228416 155.479822,155.775412 154.89862,156.353938 C154.100084,157.148797 145.325735,157.625549 144.19624,157.932175 C150.426935,159.482677 149.076798,162.790261 152.520314,166.217921 Z M11.3374257,153.509686 C12.4303069,152.352551 13.4694998,154.950534 13.6511259,155.142839 C16.7275882,158.400175 20.5733091,164.442566 17.5072929,168.616349 C16.1372911,166.440527 7.97345193,157.071437 11.3374257,153.509686 Z M426.145099,191.505991 C425.900935,190.576713 426.537864,189.088939 427.410715,189.088939 C428.283566,189.088939 428.989243,191.788602 428.184568,192.10521 C427.379894,192.421817 426.389263,192.435269 426.145099,191.505991 Z" id="path-1"></path>
        <mask id="mask-2" maskContentUnits="userSpaceOnUse" maskUnits="objectBoundingBox" x="-2" y="-2" width="615.618882" height="325.830243">
            <rect x="-2" y="-2" width="615.618882" height="325.830243" fill="white"></rect>
            <use xlink:href="#path-1" fill="black"></use>
        </mask>
    </defs>
    <g id="about" stroke="none" stroke-width="1" fill="none" fill-rule="evenodd">
        <g id="about-copy-12" transform="translate(-452.000000, -1419.000000)">
            <g id="fact-sheet" transform="translate(0.000000, 966.000000)">
                <g id="around-the-world" transform="translate(453.000000, 454.000000)">
                    <use id="world-outline" stroke="#EBEBF2" mask="url(#mask-2)" stroke-width="4" opacity="0.2" xlink:href="#path-1"></use>
                    <ellipse id="interest-dot" class="tip-dot" fill="#FCC397" cx="75.8364739" cy="88.733219" rx="1.91385179" ry="1.91385179"></ellipse>
                    <ellipse id="interest-dot" class="tip-dot" fill="#FCC397" cx="284.865881" cy="88.8658811" rx="1.91385179" ry="1.91385179"></ellipse>
                    <ellipse id="interest-dot" class="tip-dot" fill="#FCC397" cx="287.773455" cy="116.233786" rx="1.91385179" ry="1.91385179"></ellipse>
                    <ellipse id="interest-dot" class="tip-dot" fill="#FCC397" cx="535.004929" cy="128.90665" rx="1.91385179" ry="1.91385179"></ellipse>
                    <ellipse id="interest-dot" class="tip-dot" fill="#FCC397" cx="511.228461" cy="128.372304" rx="1.91385179" ry="1.91385179"></ellipse>
                    <ellipse id="interest-dot" class="tip-dot" fill="#FCC397" cx="485.865881" cy="119.865881" rx="1.91385179" ry="1.91385179"></ellipse>
                    <ellipse id="interest-dot" class="tip-dot" fill="#FCC397" cx="491.865881" cy="260.865881" rx="1.91385179" ry="1.91385179"></ellipse>
                    <polygon id="interest-dot-special" class="tip-dot-special" fill="#FCC397" points="71 114.536842 74.2526316 116.5 73.3894737 112.8 76.2631579 110.310526 72.4789474 109.989474 71 106.5 69.5210526 109.989474 65.7368421 110.310526 68.6105263 112.8 67.7473684 116.5"></polygon>
                    <polygon id="interest-dot-special" class="tip-dot-special" fill="#FCC397" points="303.263158 90.0368421 306.515789 92 305.652632 88.3 308.526316 85.8105263 304.742105 85.4894737 303.263158 82 301.784211 85.4894737 298 85.8105263 300.873684 88.3 300.010526 92"></polygon>
                </g>
            </g>
        </g>
    </g>
</svg>