<?xml version="1.0" encoding="UTF-8" standalone="no"?>
<svg width="289px" height="228px" viewBox="0 0 289 228" version="1.1" xmlns="http://www.w3.org/2000/svg" xmlns:xlink="http://www.w3.org/1999/xlink">
    <!-- Generator: Sketch 41.2 (35397) - http://www.bohemiancoding.com/sketch -->
    <title>Group 6</title>
    <desc>Created with Sketch.</desc>
    <defs>
        <linearGradient x1="50%" y1="0%" x2="50%" y2="100%" id="linearGradient-1">
            <stop stop-color="#1FC0F2" offset="0%"></stop>
            <stop stop-color="#2064BD" offset="100%"></stop>
        </linearGradient>
    </defs>
    <g id="about" stroke="none" stroke-width="1" fill="none" fill-rule="evenodd">
        <g id="Artboard" transform="translate(-16.000000, -12.000000)">
            <g id="Group-6" transform="translate(16.000000, 12.000000)">
                <g id="Group-2">
                    <g id="google" transform="translate(199.000000, 5.000000)">
                        <path d="M38.2746667,15.6008533 C38.2746667,19.8234667 34.9713067,22.93504 30.9173333,22.93504 C26.86336,22.93504 23.56,19.8234667 23.56,15.6008533 C23.56,11.34848 26.86336,8.26666667 30.9173333,8.26666667 C34.9713067,8.26666667 38.2746667,11.34848 38.2746667,15.6008533 L38.2746667,15.6008533 Z M35.0539733,15.6008533 C35.0539733,12.9621333 33.1394133,11.1566933 30.9173333,11.1566933 C28.6952533,11.1566933 26.7806933,12.9621333 26.7806933,15.6008533 C26.7806933,18.21312 28.6952533,20.0450133 30.9173333,20.0450133 C33.1394133,20.0450133 35.0539733,18.2098133 35.0539733,15.6008533 L35.0539733,15.6008533 Z" id="Shape" fill="#EA4335"></path>
                        <path d="M54.1466667,15.6008533 C54.1466667,19.8234667 50.8433067,22.93504 46.7893333,22.93504 C42.73536,22.93504 39.432,19.8234667 39.432,15.6008533 C39.432,11.3517867 42.73536,8.26666667 46.7893333,8.26666667 C50.8433067,8.26666667 54.1466667,11.34848 54.1466667,15.6008533 L54.1466667,15.6008533 Z M50.9259733,15.6008533 C50.9259733,12.9621333 49.0114133,11.1566933 46.7893333,11.1566933 C44.5672533,11.1566933 42.6526933,12.9621333 42.6526933,15.6008533 C42.6526933,18.21312 44.5672533,20.0450133 46.7893333,20.0450133 C49.0114133,20.0450133 50.9259733,18.2098133 50.9259733,15.6008533 L50.9259733,15.6008533 Z" id="Shape" fill="#FBBC05"></path>
                        <path d="M69.3573333,8.70976 L69.3573333,21.8769067 C69.3573333,27.2932267 66.1630933,29.5053867 62.38688,29.5053867 C58.8322133,29.5053867 56.6928,27.1278933 55.8859733,25.1835733 L58.6900267,24.01632 C59.1893333,25.2100267 60.4128,26.6186667 62.3835733,26.6186667 C64.8007467,26.6186667 66.2986667,25.12736 66.2986667,22.32 L66.2986667,21.2651733 L66.18624,21.2651733 C65.4653867,22.1546667 64.0765867,22.9317333 62.3240533,22.9317333 C58.65696,22.9317333 55.2973867,19.7374933 55.2973867,15.6273067 C55.2973867,11.48736 58.65696,8.26666667 62.3240533,8.26666667 C64.07328,8.26666667 65.46208,9.04373333 66.18624,9.90677333 L66.2986667,9.90677333 L66.2986667,8.71306667 L69.3573333,8.71306667 L69.3573333,8.70976 Z M66.5268267,15.6273067 C66.5268267,13.0448 64.8040533,11.1566933 62.6117333,11.1566933 C60.3896533,11.1566933 58.528,13.0448 58.528,15.6273067 C58.528,18.18336 60.3896533,20.0450133 62.6117333,20.0450133 C64.8040533,20.0450133 66.5268267,18.18336 66.5268267,15.6273067 L66.5268267,15.6273067 Z" id="Shape" fill="#4285F4"></path>
                        <polygon id="Shape" fill="#34A853" points="74.4 0.992 74.4 22.4853333 71.2586667 22.4853333 71.2586667 0.992"></polygon>
                        <path d="M86.64128,18.01472 L89.14112,19.68128 C88.3342933,20.8749867 86.3899733,22.9317333 83.0304,22.9317333 C78.864,22.9317333 75.7524267,19.71104 75.7524267,15.5975467 C75.7524267,11.2360533 78.8904533,8.26336 82.6699733,8.26336 C86.4759467,8.26336 88.3376,11.2922667 88.9460267,12.9290667 L89.28,13.7623467 L79.4757333,17.8229333 C80.2263467,19.2944 81.3936,20.0450133 83.0304,20.0450133 C84.6705067,20.0450133 85.808,19.2381867 86.64128,18.01472 L86.64128,18.01472 Z M78.9466667,15.376 L85.50048,12.6546133 C85.1400533,11.7386667 84.0554667,11.10048 82.7790933,11.10048 C81.1422933,11.10048 78.864,12.5454933 78.9466667,15.376 L78.9466667,15.376 Z" id="Shape" fill="#EA4335"></path>
                        <path d="M11.6692267,13.6929067 L11.6692267,10.5813333 L22.1546667,10.5813333 C22.2571733,11.1236267 22.31008,11.76512 22.31008,12.45952 C22.31008,14.7940267 21.6718933,17.6807467 19.6151467,19.7374933 C17.6146133,21.8206933 15.05856,22.9317333 11.6725333,22.9317333 C5.39648,22.9317333 0.11904,17.8196267 0.11904,11.5435733 C0.11904,5.26752 5.39648,0.155413333 11.6725333,0.155413333 C15.1445333,0.155413333 17.61792,1.51776 19.4762667,3.29344 L17.28064,5.48906667 C15.9480533,4.23914667 14.1426133,3.26698667 11.6692267,3.26698667 C7.08618667,3.26698667 3.50176,6.96053333 3.50176,11.5435733 C3.50176,16.1266133 7.08618667,19.82016 11.6692267,19.82016 C14.64192,19.82016 16.3349333,18.6264533 17.41952,17.5418667 C18.2990933,16.6622933 18.87776,15.40576 19.10592,13.6896 L11.6692267,13.6929067 L11.6692267,13.6929067 Z" id="Shape" fill="#4285F4"></path>
                    </g>
                    <g id="Amazon" transform="translate(0.000000, 7.000000)">
                        <path d="M55.670305,21.3737968 C50.4567486,25.2562903 42.9000169,27.3277409 36.3938116,27.3277409 C27.2710621,27.3277409 19.0582467,23.9187248 12.8449343,18.2488665 C12.3567743,17.8030088 12.7941639,17.1953852 13.3799589,17.542598 C20.085334,21.4842755 28.3762602,23.8555948 36.9405535,23.8555948 C42.7164686,23.8555948 49.0703704,22.6482323 54.9126791,20.1427638 C55.7952743,19.7639822 56.5333729,20.7267153 55.670305,21.3737968 Z M57.8377407,18.8683283 C57.1738396,18.0081832 53.4325761,18.4619301 51.7533034,18.6631569 C51.2417089,18.7262869 51.1636057,18.2764861 51.6244268,17.9529424 C54.6041616,15.8341446 59.4935819,16.4457158 60.0637538,17.1559273 C60.6339228,17.8700864 59.915353,22.8218425 57.1152607,25.1852666 C56.6856796,25.5482638 56.2756243,25.3549307 56.4669855,24.8735626 C57.0957349,23.2874232 58.5055447,19.7324195 57.8377407,18.8683283 Z" id="path8" fill="#FF9900"></path>
                        <path d="M51.8704627,2.99509356 L51.8704627,0.93547972 C51.8704627,0.623775754 52.1047798,0.414658246 52.38596,0.414658246 L61.5126122,0.414658246 C61.8055112,0.414658246 62.0398283,0.62772185 62.0398283,0.93547972 L62.0398283,2.69917247 C62.0359255,2.99509356 61.7898897,3.38176432 61.3524956,3.99333547 L56.6231949,10.8153154 C58.3805753,10.7719159 60.2355863,11.0362697 61.8289428,11.9437634 C62.1882292,12.1489348 62.2858612,12.448802 62.3131985,12.7447261 L62.3131985,14.9424368 C62.3131985,15.2423039 61.9851537,15.5934613 61.6414888,15.411965 C58.8335865,13.9244644 55.1040388,13.762694 51.9993363,15.4277479 C51.6830087,15.601355 51.3510596,15.2541407 51.3510596,14.9542735 L51.3510596,12.86704 C51.3510596,12.5316625 51.3549624,11.9595448 51.6869115,11.4505601 L57.1660295,3.51197044 L52.3976758,3.51197044 C52.1047798,3.51197044 51.8704627,3.30285444 51.8704627,2.99509356 Z M18.5778937,15.8459814 L15.801236,15.8459814 C15.5356788,15.8262554 15.3247918,15.6250286 15.3052645,15.368561 L15.3052645,0.97099308 C15.3052645,0.68296268 15.5434873,0.454114692 15.8402891,0.454114692 L18.4294929,0.454114692 C18.6989603,0.46594395 18.9137486,0.675068983 18.9332774,0.93547972 L18.9332774,2.81754331 L18.9840462,2.81754331 C19.6596602,0.998609733 20.9288762,0.150301412 22.6393935,0.150301412 C24.3772451,0.150301412 25.4629143,0.998609733 26.2439718,2.81754331 C26.9156815,0.998609733 28.4426476,0.150301412 30.0789644,0.150301412 C31.2427399,0.150301412 32.5158631,0.635612537 33.2930148,1.72460412 C34.1717043,2.93590964 33.9920603,4.69565629 33.9920603,6.23839626 L33.988156,15.3251614 C33.988156,15.6131918 33.7499332,15.8459814 33.4531314,15.8459814 L30.6803765,15.8459814 C30.4031035,15.8262554 30.1805022,15.601355 30.1805022,15.3251614 L30.1805022,7.69432963 C30.1805022,7.08670458 30.2351739,5.57158578 30.102396,4.99552348 C29.8954162,4.02884883 29.2744754,3.7565983 28.4699849,3.7565983 C27.7982752,3.7565983 27.0953239,4.21034517 26.810238,4.93634106 C26.525152,5.66233546 26.5524893,6.87758406 26.5524893,7.69432963 L26.5524893,15.3251614 C26.5524893,15.6131918 26.3142665,15.8459814 26.0174647,15.8459814 L23.2447128,15.8459814 C22.9635326,15.8262554 22.7448355,15.601355 22.7448355,15.3251614 L22.7409313,7.69432963 C22.7409313,6.08846266 23.0025827,3.72503404 21.0304154,3.72503404 C19.0348121,3.72503404 19.1129183,6.02927574 19.1129183,7.69432963 L19.1129183,15.3251614 C19.1129183,15.6131918 18.8746955,15.8459814 18.5778937,15.8459814 Z M69.8972646,0.150301412 C74.0173417,0.150301412 76.2472591,3.72503404 76.2472591,8.27039043 C76.2472591,12.6618656 73.7830217,16.1458486 69.8972646,16.1458486 C65.8513864,16.1458486 63.6488034,12.5711159 63.6488034,8.11651074 C63.6488034,3.63428437 65.8787237,0.150301412 69.8972646,0.150301412 Z M69.9206947,3.08979083 C67.874327,3.08979083 67.7454504,5.90696181 67.7454504,7.66276538 C67.7454504,9.42251203 67.7181131,13.1787425 69.8972646,13.1787425 C72.0490773,13.1787425 72.150615,10.1485079 72.150615,8.30195318 C72.150615,7.08670458 72.0998462,5.63471579 71.7366525,4.48259269 C71.4242292,3.48040769 70.8032914,3.08979083 69.9206947,3.08979083 Z M81.5896921,15.8459814 L78.8247501,15.8459814 C78.5474727,15.8262554 78.3248713,15.601355 78.3248713,15.3251614 L78.3209686,0.923642937 C78.3444001,0.659286103 78.5748129,0.454114692 78.8559932,0.454114692 L81.4295784,0.454114692 C81.671704,0.46594395 81.8708738,0.631667946 81.9255499,0.856568333 L81.9255499,3.05822357 L81.9763158,3.05822357 C82.7534705,1.08935941 83.8430425,0.150301412 85.7605381,0.150301412 C87.006324,0.150301412 88.2208698,0.604048283 89.0019272,1.84691805 C89.7283101,2.99903965 89.7283101,4.93634106 89.7283101,6.32914292 L89.7283101,15.3922375 C89.6970685,15.6447546 89.4666556,15.8459814 89.1932884,15.8459814 L86.4088177,15.8459814 C86.1549718,15.8262554 85.9440863,15.6368654 85.9167519,15.3922375 L85.9167519,7.5720157 C85.9167519,5.99771299 86.0963944,3.69346828 84.1788973,3.69346828 C83.5032849,3.69346828 82.8823426,4.15116276 82.573825,4.84558988 C82.1832985,5.72546547 82.1325297,6.60139345 82.1325297,7.5720157 L82.1325297,15.3251614 C82.1286269,15.6131918 81.8864968,15.8459814 81.589695,15.8459814 L81.5896921,15.8459814 Z M44.5949126,8.96876516 C44.5949126,10.0617013 44.6222499,10.9731397 44.0755096,11.9437634 C43.6342127,12.7328893 42.9312614,13.2182005 42.1541097,13.2182005 C41.0879663,13.2182005 40.4631212,12.3975088 40.4631212,11.1862033 C40.4631212,8.795158 42.5836908,8.3611401 44.5949126,8.3611401 L44.5949126,8.96876516 Z M47.3950034,15.8065249 C47.2114567,15.9722414 46.945895,15.9840782 46.7389153,15.8736026 C45.817267,15.100261 45.6493403,14.7412099 45.1455588,14.0033788 C43.6224969,15.5737354 42.5407305,16.0432621 40.5685617,16.0432621 C38.2292951,16.0432621 36.4133374,14.5873287 36.4133374,11.6715174 C36.4133374,9.39489237 37.6317888,7.84426322 39.3735462,7.08670458 C40.8809865,6.4159465 42.9859331,6.29758017 44.5949126,6.11213623 L44.5949126,5.74913903 C44.5949126,5.08232705 44.6456815,4.29320265 44.2551535,3.71714486 C43.9192987,3.20026647 43.271019,2.98720287 42.6969443,2.98720287 C41.6386094,2.98720287 40.6974383,3.53564401 40.467024,4.67198273 C40.4201609,4.92450428 40.2366141,5.17307824 39.9827683,5.18491502 L37.2920269,4.89293702 C37.0655198,4.8416468 36.8116769,4.65619985 36.8780673,4.30504244 C37.4951022,1.00650343 40.4474997,0.012204604 43.0874708,0.012204604 C44.4387017,0.012204604 46.2038907,0.3752018 47.2700341,1.40895406 C48.621262,2.68338959 48.4923884,4.38395233 48.4923884,6.23445016 L48.4923884,10.6061979 C48.4923884,11.9200914 49.0313173,12.4961492 49.5390046,13.2063637 C49.7147443,13.4588807 49.7537974,13.762694 49.5272814,13.952084 C48.9610152,14.429506 47.9534506,15.3172707 47.3989002,15.8144186 L47.3949975,15.8065174 L47.3950034,15.8065249 Z M8.19373981,8.96876516 C8.19373981,10.0617013 8.22107415,10.9731397 7.6743366,11.9437634 C7.23303676,12.7328893 6.53399124,13.2182005 5.75293377,13.2182005 C4.68679034,13.2182005 4.06585102,12.3975088 4.06585102,11.1862033 C4.06585102,8.795158 6.18642062,8.3611401 8.19373981,8.3611401 L8.19373981,8.96876516 Z M10.9938291,15.8065249 C10.8102809,15.9722414 10.5447193,15.9840782 10.3377395,15.8736026 C9.41609414,15.100261 9.25207024,14.7412099 8.74438296,14.0033788 C7.22132098,15.5737354 6.14346474,16.0432621 4.16738728,16.0432621 C1.83202491,16.0432621 0.0121643015,14.5873287 0.0121643015,11.6715174 C0.0121643015,9.39489237 1.23451863,7.84426322 2.97237027,7.08670458 C4.47981057,6.4159465 6.58476012,6.29758017 8.19373981,6.11213623 L8.19373981,5.74913903 C8.19373981,5.08232705 8.24450869,4.29320265 7.85788496,3.71714486 C7.51812272,3.20026647 6.86984757,2.98720287 6.29967415,2.98720287 C5.24134372,2.98720287 4.29626235,3.53564401 4.06585102,4.67198273 C4.01898641,4.92450428 3.83543819,5.17307824 3.58550106,5.18491502 L0.890853765,4.89293702 C0.664346698,4.8416468 0.41440807,4.65619985 0.476892727,4.30504244 C1.09783354,1.00650343 4.04632372,0.012204604 6.68629936,0.012204604 C8.03752593,0.012204604 9.80271488,0.3752018 10.8688583,1.40895406 C12.2200892,2.68338959 12.0912126,4.38395233 12.0912126,6.23445016 L12.0912126,10.6061979 C12.0912126,11.9200914 12.6301445,12.4961492 13.1378318,13.2063637 C13.3174742,13.4588807 13.3565273,13.762694 13.1300203,13.952084 C12.5637541,14.429506 11.556191,15.3172707 11.0016377,15.8144186 L10.9938291,15.8065174" id="path12" fill="#221F1F"></path>
                    </g>
                    <g id="Intel" transform="translate(117.000000, 0.000000)" fill="#127CC1">
                        <path d="M12.9510548,7.0869158 L12.9510548,8.24020689 C29.9279121,-0.572551763 54.0172307,-0.516351055 56.2093182,12.1090457 C56.9479631,16.2915435 54.6215208,20.6415162 50.4501401,23.1444447 L50.4501401,26.4199517 C55.4715863,24.5670677 60.6044532,18.570077 59.1175223,11.218741 C56.3216518,-2.48726501 29.9502356,-3.35525332 12.9510548,7.0869158 Z M2.53909551,25.3336087 C1.68923294,20.7761331 3.75812841,15.9389843 6.4871262,12.9378267 L6.4871262,11.3309375 C1.56624385,15.6868488 -1.10673911,21.1964596 0.436611487,27.7019203 C2.40484259,36.0501265 12.8951414,40.7755911 28.9103079,39.2021773 C35.2513492,38.5865292 43.5498654,36.5260426 49.3090415,33.329565 L49.3090415,28.7882613 C44.0752067,31.9403121 35.4188859,34.5444833 28.2056584,35.2158211 C16.4741033,36.3077914 4.25038927,34.5890121 2.53909551,25.3336087 Z M48.3694752,9.2373443 L45.2941382,9.2373443 L45.2941382,23.0735279 C45.2941382,24.6985526 46.065965,26.1119164 48.3694752,26.3359806 L48.3694752,9.2373443 Z M11.7321234,14.2939453 L8.65658451,14.2939453 L8.65658451,23.3310071 C8.65658451,24.956646 9.42841212,26.3694976 11.7321234,26.5934598 L11.7321234,14.2939453 Z M8.6565843,9.65779689 L11.7321231,9.65779689 L11.7321231,12.6011686 L8.6565843,12.6011686 L8.6565843,9.65779689 Z M26.6175567,22.9721567 L26.6175567,10.969686 L29.6595069,10.969686 L29.6595069,14.2939453 L31.9631164,14.2939453 L31.9631164,16.78304 L29.6595069,16.78304 L29.6595069,22.787145 C29.6595069,23.4932627 29.994986,23.8805068 30.7216566,23.8805068 L31.9631164,23.8805068 L31.9631164,26.4480127 L30.1625247,26.4480127 C27.66885,26.4480127 26.6175567,24.6986567 26.6175567,22.9721567 Z M38.4721002,24.0651064 C39.8255893,24.0651064 40.4965496,23.683912 41.2794377,22.9053267 L43.1583696,24.7271503 C41.9504995,25.9264966 40.6868176,26.6554705 38.4500811,26.6554705 C35.5313229,26.6554705 32.7351461,25.0465381 32.7351461,20.3596527 C32.7351461,16.3515176 35.1731105,14.0867942 38.3829037,14.0867942 C41.6373438,14.0867942 43.5047072,16.7383502 43.5047072,20.2198435 L43.5047072,21.3299114 L35.7661384,21.3299114 C35.7661384,22.9052247 36.7497451,24.0651064 38.4721002,24.0651064 Z M36.067827,17.9100204 C35.8665992,18.3527152 35.7993203,18.6892206 35.7661384,19.2332872 L40.474427,19.2332872 C40.4072496,17.9043829 39.8141222,16.6318533 38.248346,16.6318533 C37.2085198,16.6318533 36.403509,17.17551 36.067827,17.9100204 Z M20.0192737,16.78304 C20.9137866,16.78304 21.2829568,17.2260422 21.2829568,17.9491751 L21.2829568,26.4647192 L24.3361692,26.4647192 L24.3361692,17.9380027 C24.3361692,16.205661 23.4190277,14.2938429 20.7462479,14.2938429 L14.4498573,14.2938429 L14.4498573,26.4646172 L17.4918075,26.4646172 L17.4918075,16.7829373 L20.0192737,16.78304 Z" id="path6-copy"></path>
                    </g>
                </g>
                <g id="Group-3" transform="translate(2.000000, 68.000000)">
                    <g id="ebay" transform="translate(0.000000, 5.000000)">
                        <g id="Group">
                            <path d="M11.5635713,7.82728602 C5.27228003,7.82728602 0.0297511646,10.4963677 0.0297511646,18.5488652 C0.0297511646,24.9282161 3.55497233,28.945548 11.7260194,28.945548 C21.3437243,28.945548 21.9602541,22.6100693 21.9602541,22.6100693 L17.3000222,22.6100693 C17.3000222,22.6100693 16.3008295,26.021481 11.4417351,26.021481 C7.4841355,26.021481 4.63767471,23.3480065 4.63767471,19.600743 L22.4475986,19.600743 L22.4475986,17.2492798 C22.4475986,13.5420581 20.0941893,7.82728602 11.5635713,7.82728602 L11.5635713,7.82728602 Z M11.4011229,10.832577 C15.168348,10.832577 17.7366017,13.1404588 17.7366017,16.5994869 L4.74074807,16.5994869 C4.74074807,12.9273055 8.09297345,10.832577 11.4011229,10.832577 L11.4011229,10.832577 Z" id="e" fill="#E53238"></path>
                            <path d="M22.4442928,0.0297737226 L22.4442928,24.9016153 C22.4442928,26.3134199 22.3435294,28.2957554 22.3435294,28.2957554 L26.7884087,28.2957554 C26.7884087,28.2957554 26.9479505,26.872014 26.9479505,25.570853 C26.9479505,25.570853 29.144008,29.006466 35.1152509,29.006466 C41.4032102,29.006466 45.6743812,24.6409411 45.6743812,18.3864169 C45.6743812,12.5679231 41.7511726,7.88820397 35.1254023,7.88820397 C28.9208365,7.88820397 26.9928417,11.2386975 26.9928417,11.2386975 L26.9928417,0.0297737226 L22.4442928,0.0297737226 Z M33.9781121,10.9645661 C38.2481256,10.9645661 40.9633855,14.1336553 40.9633855,18.3864169 C40.9633855,22.9467317 37.8273511,25.9301038 34.0085722,25.9301038 C29.4511942,25.9301038 26.9928417,22.3717222 26.9928417,18.427029 C26.9928417,14.7513436 29.1987934,10.9645661 33.9781121,10.9645661 L33.9781121,10.9645661 Z" id="b" fill="#0064D2"></path>
                            <path d="M56.7208562,7.82728602 C47.2560843,7.82728602 46.6490707,13.0097318 46.6490707,13.8378683 L51.3600664,13.8378683 C51.3600664,13.8378683 51.6071098,10.8122709 56.3959607,10.8122709 C59.5078334,10.8122709 61.9191997,12.2366246 61.9191997,14.9750054 L61.9191997,15.9496944 L56.3959607,15.9496944 C49.0634688,15.9496944 45.1870364,18.094738 45.1870364,22.4476212 C45.1870364,26.7314834 48.7687359,29.0623076 53.6089597,29.0623076 C60.2054331,29.0623076 62.330394,25.4173769 62.330394,25.4173769 C62.330394,26.8671308 62.4421666,28.2957554 62.4421666,28.2957554 L66.6301954,28.2957554 C66.6301954,28.2957554 66.4677461,26.5249306 66.4677461,25.3919942 L66.4677461,15.5994156 C66.4677461,9.17855583 61.2886522,7.82728602 56.7208562,7.82728602 L56.7208562,7.82728602 Z M61.9191997,18.8737614 L61.9191997,20.1733468 C61.9191997,21.8683604 60.8732569,26.082399 54.7156383,26.082399 C51.3437474,26.082399 49.898035,24.3995757 49.898035,22.4476212 C49.898035,18.8966309 54.7665977,18.8737614 61.9191997,18.8737614 L61.9191997,18.8737614 Z" id="a" fill="#F5AF02"></path>
                            <polygon id="y" fill="#86B817" points="63.9309451 8.64034542 69.2308175 8.64034542 76.8368707 23.8785638 84.425522 8.64034542 89.2264463 8.64034542 75.4038476 35.7691805 70.3679534 35.7691805 74.3566374 28.2066477"></polygon>
                        </g>
                    </g>
                    <g id="Mcdonald's" transform="translate(119.000000, 0.000000)" fill="#FFC300">
                        <path d="M32.307175,2.7833721 C36.1773919,2.7833721 39.3167524,19.0694127 39.3167524,39.1825898 L44.9642791,39.1825898 C44.9642791,17.5286173 39.2669213,0 32.2905647,0 C28.3040752,0 24.7826762,5.25195809 22.457224,13.5026684 C20.1317718,5.25195809 16.6103727,0 12.6571041,0 C5.68074751,0 0,17.5120496 0,39.1660221 L5.64752676,39.1660221 C5.64752676,19.0528449 8.75366641,2.7833721 12.6238833,2.7833721 C16.4941002,2.7833721 19.6334606,17.8268358 19.6334606,36.38265 L25.2477667,36.38265 C25.2477667,17.8268358 28.4037375,2.7833721 32.2739543,2.7833721" id="Shape"></path>
                    </g>
                    <g id="Hipmunk" transform="translate(194.000000, 7.000000)" fill="#3393DE">
                        <path d="M32.1030894,7.49527806 L36.104957,7.49527806 L36.104957,8.3906542 C38.3193088,6.85846415 40.4491468,6.70732899 42.5319744,8.62506792 C42.90918,8.21710078 43.3620662,7.84230966 43.9142132,7.62903531 C45.7701485,6.91232815 47.5173163,7.13756393 49.0890188,8.36199193 C50.0626868,9.12052644 50.4583073,10.2153348 50.5613857,11.4160656 C50.6127377,12.0133843 50.6140852,12.6161947 50.6158817,13.2165977 C50.6218703,15.322334 50.6182023,17.4281456 50.6182023,19.5338819 L50.6182023,19.9640416 L46.3761927,19.9640416 L46.3761927,19.5451663 C46.3761927,17.3892522 46.3830795,15.2333381 46.3724498,13.0774992 C46.368707,12.334838 46.2195914,11.6258042 45.6380255,11.0978468 C45.2553553,10.7505895 44.7825571,10.635489 44.2819119,10.7095144 C43.8005799,10.7806811 43.5246561,11.1389218 43.4700104,11.6944884 C43.4602789,11.7937907 43.4669412,11.8948985 43.4669412,11.9951789 C43.4668664,14.5020365 43.4668664,17.0088941 43.4668664,19.5158269 L43.4668664,19.9586251 L39.2546499,19.9586251 L39.2546499,19.5400507 C39.2546499,17.3841366 39.2661779,15.228072 39.2449933,13.0723836 C39.2408013,12.641923 39.1657944,12.1945359 39.0292548,11.7867944 C38.7500373,10.9526547 37.7799624,10.4963153 36.9655906,10.7537491 C36.575285,10.8771247 36.3696522,11.1438869 36.328331,11.5444064 C36.3155304,11.6684591 36.3207704,11.7946935 36.3207704,11.9199498 C36.3203961,14.4519339 36.320471,16.9838428 36.320471,19.5158269 L36.320471,19.9576471 L32.1030894,19.9576471 L32.1030894,7.49527806 Z M22.5738408,8.35010574 C22.7174148,8.25283458 22.8617395,8.15684232 23.0040431,8.05806657 C24.6240285,6.93354274 26.3470922,6.85590637 28.1030932,7.64159856 C29.8897856,8.44090721 31.0273909,9.83520241 31.4128308,11.7670092 C31.7659324,13.5363964 31.7246112,15.3002167 30.8988611,16.9578888 C30.0250526,18.712155 28.6333069,19.8150881 26.6921841,20.1540702 C25.281275,20.4003701 23.9525591,20.1894278 22.7348565,19.2935251 C22.7348565,21.3182397 22.7348565,25.3490133 22.7348565,25.3490133 L18.531548,25.3490874 L18.4933723,7.49490632 L22.5738408,7.49490632 L22.5738408,8.35010574 Z M22.5618614,13.3219936 C22.6203998,12.6483927 22.818996,12.0400906 23.2682891,11.5097258 C24.225264,10.3800112 26.4467272,10.6324799 27.0368268,12.1442076 C27.4317735,13.1558879 27.4950279,14.185924 27.0969371,15.2115216 C26.6463714,16.3722306 25.5668553,16.7693648 24.6172913,16.6614863 C23.3229349,16.514564 22.5913552,15.4571445 22.574662,14.4101818 C22.5740632,14.3727177 22.5690477,14.3354041 22.5660534,14.2980153 C22.5143271,13.9728753 22.5211391,13.6475097 22.5618614,13.3219936 Z M4.73872873,8.48566849 C5.18502755,8.22680533 5.55182799,7.99239161 5.93704331,7.79431353 C7.66212822,6.90751349 10.1131786,7.36422905 11.2882874,8.68878692 C11.903015,9.38157124 12.2028182,10.2015679 12.307768,11.0998027 C12.3655578,11.5954117 12.3763373,12.0987693 12.3778344,12.5986663 C12.3847213,14.9048128 12.3808287,17.2108841 12.3808287,19.5169554 L12.3808287,19.9583994 L8.13432764,19.9583994 L8.13432764,19.5394489 C8.13432764,17.4339382 8.13223164,15.3283524 8.1354505,13.2227665 C8.13642364,12.6500477 8.02877894,12.1106555 7.76909921,11.5938319 C7.28933921,10.6387991 6.275922,10.5078253 5.45952902,10.7477308 C5.09662116,10.8544056 4.87384604,11.1188357 4.82107169,11.5043846 C4.79404823,11.701936 4.76829734,11.9018196 4.76799791,12.1005748 C4.76440477,14.5822306 4.76567734,17.0637361 4.76567734,19.5453167 L4.76567734,19.9693076 L0.580783775,19.9693076 L0.580783775,2.64458418 C1.96287285,2.47321241 3.33103848,2.3035709 4.73872873,2.12896428 L4.73872873,8.48566849 Z M77.4679943,2.64059704 C78.8542754,2.46997756 80.2235639,2.30138926 81.636045,2.12761016 L81.636045,11.7063746 C81.6632182,11.7193139 81.6902417,11.7321781 81.7172651,11.7451175 C83.1945726,10.1965275 84.6718801,8.64786232 86.1168492,7.13320064 C86.9759857,7.968544 87.8240433,8.79328007 88.6968786,9.64201421 C87.8293581,10.4945098 86.9850434,11.3241358 86.1108606,12.1831763 C87.3992285,14.0202696 88.6865483,15.8558585 89.9923579,17.7179279 C88.807817,18.6069848 87.6525453,19.47415 86.4596954,20.369451 C84.8665089,18.1758471 83.2898659,16.0050377 81.6635176,13.7656193 L81.6635176,19.9136381 L77.4679943,19.9136381 L77.4679943,2.64059704 Z M51.6060932,7.49753493 L55.8082039,7.49753493 L55.8082039,7.89429293 C55.8082039,9.88726091 55.7931576,11.8804546 55.8189085,13.8731969 C55.8251965,14.3657214 55.900428,14.8778056 56.0550082,15.3437743 C56.4056395,16.4010434 57.4909197,16.9259917 58.5535929,16.6212388 C59.0581307,16.4765733 59.2630149,16.0970428 59.3197567,15.6182851 C59.3623505,15.2588407 59.3872779,14.8951083 59.3882511,14.5331813 C59.3943145,12.3396527 59.3912454,10.1461241 59.3912454,7.95252022 L59.3912454,7.50987249 L63.5657338,7.50987249 L63.5657338,19.9147666 L59.5545838,19.9147666 L59.5545838,18.869158 C59.1568674,19.1109442 58.8146949,19.3278295 58.4642134,19.5302709 C57.6267855,20.0139937 56.7329902,20.2656349 55.7564776,20.2461505 C53.7720124,20.2064296 51.9988691,18.6822138 51.6912059,16.7103852 C51.6393298,16.3781737 51.6105846,16.0387403 51.6096864,15.7025417 C51.6031738,13.1078917 51.6060932,10.5132418 51.6060932,7.91851669 L51.6060932,7.49753493 Z M76.4538286,19.9747994 L72.2666893,19.9747994 L72.2666893,19.5626194 C72.2666893,17.5573139 72.2744744,15.5520083 72.2607007,13.5469285 C72.2576316,13.0995413 72.2100972,12.6470386 72.1285028,12.2070239 C71.9684581,11.3436953 71.4028368,10.8188975 70.5412301,10.6933402 C70.3341001,10.6631733 70.1194096,10.6493312 69.9113813,10.66701 C69.2229942,10.725463 68.8288709,11.1595346 68.8243795,11.8527703 C68.8194389,12.6171727 68.8231817,13.3818007 68.8231817,14.1462783 L68.8231817,19.5228232 L68.8231817,19.9600545 L64.5986138,19.9600545 L64.5986138,7.51115138 L68.6204684,7.51115138 L68.6204684,8.53855451 C68.7594782,8.43556594 68.8477349,8.37530747 68.930527,8.30797748 C70.9289157,6.68370707 73.5620188,7.22798924 74.883773,8.3484507 C75.5869818,8.94441523 76.003712,9.72476616 76.2095694,10.6046451 C76.3483547,11.1970739 76.45046,11.8128237 76.457272,12.4193955 C76.4846697,14.8629855 76.4688,17.3070268 76.4681263,19.7509929 C76.4681263,19.8129817 76.4604909,19.8749704 76.4538286,19.9747994 Z M17.5339257,19.972392 L13.3436424,19.972392 L13.3436424,7.50821745 L17.5339257,7.50821745 L17.5339257,19.972392 Z M13.4572008,6.35984601 L13.4572008,0.260726068 C14.7990916,1.27300816 16.096068,2.2515124 17.4300987,3.25792662 C16.0994366,4.29691502 14.8011876,5.310476 13.4572008,6.35984601 Z M22.5618614,13.3219936 C22.5639239,13.6473593 22.5658779,13.9726497 22.5679404,14.2980153 C22.5658779,13.9726497 22.5639239,13.6473593 22.5618614,13.3219936 Z" id="Fill-2"></path>
                    </g>
                </g>
                <g id="Group-4" transform="translate(0.000000, 137.000000)">
                    <path d="M76.8272476,22.8638141 C78.0810685,22.9849977 79.3329809,23.1157234 80.5829849,23.25122 L83.3425358,16.4372667 L85.9656359,23.8790846 C87.3120142,24.0479783 88.6564842,24.2245056 89.9980916,24.4096207 L85.3997943,11.3590061 L90,0.00019084031 L86.1039951,0.00019084031 L86.0639186,0.0555345301 L83.5791778,6.19200469 L81.397873,0.00019084031 L77.5514866,0.00019084031 L81.5228734,11.2693111 L76.8272476,22.8638141 L76.8272476,22.8638141 Z M73.9175054,22.5971186 L73.9175054,0.00067175789 L70.0720732,0.00067175789 L70.0720732,22.2803237 C71.3554743,22.3786065 72.6379211,22.4854771 73.9175054,22.5971186 Z M45.034107,21.333084 C46.0722783,21.333084 47.1085411,21.3407176 48.1438498,21.3493436 L48.1438498,13.0477901 L52.7631395,13.0477901 L52.7631395,9.51247341 L48.1438498,9.51247341 L48.1438498,3.53917171 L53.4635235,3.53917171 L53.4635235,3.8168062e-05 L44.2831504,3.8168062e-05 L44.2831504,21.3359848 C44.5331512,21.3359848 44.783152,21.3329314 45.034107,21.3329314 L45.034107,21.333084 Z M33.0955189,21.5491229 C34.3760574,21.5033212 35.6585042,21.4651532 36.9428595,21.4336645 L36.9428595,3.53952286 L40.5363826,3.53952286 L40.5363826,0.000389314232 L29.5010416,0.000389314232 L29.5010416,3.53952286 L33.0955189,3.53952286 L33.0955189,21.5491229 Z M3.68894319,23.9322374 L3.68894319,10.4694078 L8.24143878,23.3883426 C9.64125245,23.2308993 11.0439287,23.0829981 12.4494676,22.9436846 L12.4494676,0.0008625982 L8.76052442,0.0008625982 L8.76052442,13.945564 L3.84734064,0.0008625982 L3.68894319,0.0008625982 L0,0.0008625982 L0,24.4160176 L0.0229008372,24.4160176 C1.24237042,24.247124 2.4647026,24.0868181 3.68894319,23.9322374 Z M25.7940679,3.53923278 L25.7940679,9.9236961e-05 L16.6127406,9.9236961e-05 L16.6127406,19.0173361 L16.6127406,22.5574238 L16.6127406,22.5604773 C19.6595061,22.2971177 22.7167679,22.0766971 25.7864343,21.8973072 L25.7864343,21.8942538 L25.7864343,20.8742123 L25.7864343,18.3551202 C24.0116194,18.458174 22.2406213,18.5774492 20.47344,18.709129 L20.47344,13.0488054 L25.0927297,13.0488054 L25.0927297,9.51158027 L20.47344,9.51158027 L20.47344,3.53923278 L25.7940679,3.53923278 L25.7940679,3.53923278 Z M61.0844488,18.1861273 L61.0844488,0 L57.2227951,0 L57.2227951,18.019142 L57.2227951,21.5582756 L57.2227951,21.5620924 C60.2943699,21.6746882 63.3544943,21.8321314 66.4041224,22.0296512 L66.4041224,22.025071 L66.4041224,20.8819375 L66.4041224,18.4859374 C64.6340785,18.3714333 62.8611721,18.2721963 61.0844488,18.1863182 L61.0844488,18.1861273 Z" id="Combined-Shape" fill="#B81D24"></path>
                    <path d="M120.618449,24.6288594 C118.830697,24.5569955 117.368046,24.0620021 116.224374,23.14264 C116.006109,22.9670072 115.486008,22.4404184 115.311518,22.2183218 C114.847744,21.6282327 114.532438,21.0539411 114.322132,20.4167687 C113.67499,18.4553804 114.008051,15.8816004 115.274784,13.0569163 C116.359374,10.6386348 118.032943,8.24017779 120.952734,4.91833192 C121.382836,4.42953363 122.66365,3 122.671915,3 C122.674976,3 122.605181,3.12235445 122.517324,3.2713481 C121.758141,4.55808325 121.10855,6.07372963 120.754673,7.38586495 C120.186205,9.49129076 120.254776,11.2981098 120.955489,12.6991457 C121.438856,13.6643519 122.267528,14.500389 123.199363,14.9625481 C124.830687,15.7713265 127.219051,15.8382342 130.135781,15.1583152 C130.336597,15.111232 140.287398,12.4383293 152.248809,9.21839387 C164.210219,5.99814866 173.998469,3.36551456 174,3.36768287 C174.003367,3.37047069 146.210247,15.4045729 131.782411,21.6477474 C129.497517,22.6361855 128.886498,22.8858506 127.812316,23.2674725 C125.066401,24.2432105 122.606711,24.708777 120.618449,24.6288594 L120.618449,24.6288594 Z" id="Shape" fill="#000000"></path>
                    <g id="BBC" transform="translate(199.000000, 1.000000)" fill="#000000">
                        <path d="M48.7628222,16.476911 C48.7628222,19.2470461 45.2945663,19.0828079 45.2945663,19.0828079 L41.8263105,19.0828079 L41.8263105,14.0761273 L45.2945663,14.0761273 C48.8661266,14.0556899 48.7628222,16.476911 48.7628222,16.476911 L48.7628222,16.476911 Z M41.8263105,6.44286629 L44.4688737,6.44286629 C47.2144937,6.58666708 47.1111892,8.61785322 47.1111892,8.61785322 C47.1111892,11.141754 44.0764653,11.1828752 44.0764653,11.1828752 L41.8263105,11.1828752 L41.8263105,6.44286629 L41.8263105,6.44286629 Z M48.122929,12.1678121 C48.122929,12.1678121 50.4969501,11.1624377 50.4763883,8.4947361 C50.4763883,8.4947361 50.8373346,4.12432481 45.0106648,3.59073524 L38.5438541,3.59073524 L38.5438541,21.9145015 L45.9552691,21.9145015 C45.9552691,21.9145015 52.1485831,21.9351851 52.1485831,16.7435827 C52.1485831,16.7435827 52.2930111,13.2143075 48.122929,12.1678121 L48.122929,12.1678121 Z M31.3898332,0 L58.6101914,0 L58.6101914,25.4960768 L31.3898332,25.4960768 L31.3898332,0 Z M17.3729889,16.476911 C17.3729889,19.2470461 13.9047331,19.0828079 13.9047331,19.0828079 L10.4364773,19.0828079 L10.4364773,14.0761273 L13.9047331,14.0761273 C17.4762934,14.0556899 17.3729889,16.476911 17.3729889,16.476911 Z M10.4364773,6.44286629 L13.0790405,6.44286629 C15.8246604,6.58666708 15.721356,8.61785322 15.721356,8.61785322 C15.721356,11.141754 12.6866321,11.1828752 12.6866321,11.1828752 L10.4364773,11.1828752 L10.4364773,6.44286629 L10.4364773,6.44286629 Z M16.7330957,12.1678121 C16.7330957,12.1678121 19.1071168,11.1624377 19.086555,8.4947361 C19.086555,8.4947361 19.4475014,4.12432481 13.6208316,3.59073524 L7.15402085,3.59073524 L7.15402085,21.9145015 L14.5654358,21.9145015 C14.5654358,21.9145015 20.7587498,21.9351851 20.7587498,16.7435827 C20.7587498,16.7435827 20.9031779,13.2143075 16.7330957,12.1678121 L16.7330957,12.1678121 Z M0,0 L27.2203582,0 L27.2203582,25.4960768 L0,25.4960768 L0,0 Z M84.4465792,4.90424723 L84.4465792,8.28996785 C84.4465792,8.28996785 81.1227515,6.25853548 77.4481344,6.21741436 C77.4481344,6.21741436 70.5943654,6.08444788 70.2846997,12.7480385 C70.2846997,12.7480385 70.0369672,18.8780396 77.3656395,19.2269535 C77.3656395,19.2269535 80.4417347,19.5963049 84.6118168,16.9492869 L84.6118168,20.4581246 C84.6118168,20.4581246 79.0172724,23.761603 72.5348546,21.2172648 C72.5348546,21.2172648 67.0847382,19.2375416 66.8781293,12.7480385 C66.8781293,12.7480385 66.6509585,6.07385981 73.9179454,3.85775177 C73.9179454,3.85775177 75.8586823,3.11904908 79.3474999,3.44727931 C79.3474999,3.44727931 81.4324172,3.65263865 84.4465792,4.90424723 Z M62.7796418,25.4960769 L90,25.4960769 L90,1.31145498e-07 L62.7796418,1.31145498e-07 L62.7796418,25.4960769 L62.7796418,25.4960769 Z" id="Shape-Copy"></path>
                    </g>
                </g>
                <g id="Group-5" transform="translate(1.000000, 192.000000)">
                    <g id="Alibaba" fill="#F47937">
                        <path d="M26.7849171,20.2570857 L30.8774982,20.2570857 L30.8774982,23.0429031 L26.7849171,23.0429031 L26.7849171,20.2570857 Z M26.8933299,24.5734357 L30.7133303,24.5734357 L30.7133303,34.5715194 L26.8933299,34.5715194 L26.8933299,24.5734357 Z M72.0224576,29.3263053 C72.0224576,28.397441 71.8040833,27.6872243 71.3131285,27.1406055 C70.8213993,26.5947621 70.1128445,26.3218404 69.2943283,26.3218404 C69.2943283,26.3218404 69.2943283,26.3218404 69.2393476,26.3218404 C68.366625,26.3761146 67.7115023,26.5947621 67.219773,27.1406055 C66.7295926,27.6872243 66.5112183,28.4524906 66.5112183,29.435629 C66.5112183,30.4195428 66.7295926,31.1840338 67.219773,31.7306525 C67.7115023,32.276496 68.366625,32.4951435 69.2393476,32.4951435 C70.1128445,32.4951435 70.8213993,32.2222217 71.3131285,31.675603 C71.8040833,31.1297596 72.0224576,30.3102191 72.0224576,29.3263053 L72.0224576,29.3263053 Z M69.2393476,24.5183861 C69.7303024,24.4090624 70.276238,24.3547882 70.8213993,24.3547882 C72.4042253,24.3547882 73.65949,24.7913078 74.5871934,25.7209474 C75.4599159,26.6498117 75.9516452,27.9058718 75.9516452,29.4906786 C75.9516452,31.1840338 75.5148967,32.4951435 74.5871934,33.4240077 C73.7136964,34.3528719 72.4592061,34.8452165 70.87638,34.8452165 C70.3312188,34.8452165 69.7845088,34.7358928 69.2393476,34.626569 C68.9659926,34.5172452 68.693412,34.4079215 68.4208314,34.2985977 C67.7115023,33.9163523 67.0563795,33.4240077 66.5112183,32.713791 L66.5112183,33.0417622 L66.5112183,33.8070285 C66.5112183,34.0799502 66.4562376,34.3528719 66.4012568,34.5715194 L62.5820307,34.5715194 C62.6362371,34.189274 62.6362371,33.8070285 62.6912179,33.4240077 C62.6912179,33.0417622 62.7461986,32.6595168 62.7461986,32.3315455 L62.7461986,20.2570857 L66.5112183,20.2570857 L66.5112183,25.9938691 C67.1113603,25.4472504 67.7657086,25.0099553 68.4758121,24.7370336 C68.7483927,24.6277099 68.9659926,24.5734357 69.2393476,24.5183861 L69.2393476,24.5183861 Z M85.8830269,33.0968118 C85.5012591,33.6977048 84.9003428,34.0799502 84.0818266,34.4079215 C83.9184331,34.462971 83.7000588,34.5172452 83.5366654,34.5715194 C82.8815426,34.7358928 82.1180072,34.8452165 81.2445102,34.8452165 C79.9892455,34.8452165 79.0065614,34.5715194 78.2980067,34.025676 C77.642884,33.5333315 77.2611162,32.7680652 77.2611162,31.7849267 C77.2611162,31.1840338 77.4245097,30.6381903 77.6978647,30.1466211 C77.9704453,29.7093261 78.3529874,29.3263053 78.8431679,28.998334 C79.2249357,28.7254123 79.825852,28.561039 80.5351811,28.4524906 C81.1903038,28.3431668 82.1722135,28.2881173 83.5366654,28.2881173 L83.9734138,28.2881173 L85.8280461,28.2881173 L85.8280461,28.1245193 L85.8280461,28.0151956 C85.8280461,27.4685768 85.6646526,27.0320571 85.3370913,26.7583601 C85.0103043,26.4854384 84.5735558,26.3218404 83.9734138,26.3218404 C83.8100203,26.3218404 83.6450781,26.3761146 83.5366654,26.3761146 C83.0449361,26.3761146 82.6631684,26.4854384 82.3905878,26.6498117 C82.0630264,26.8134096 81.8446522,27.1406055 81.7904458,27.5779006 L77.916239,27.5779006 C78.0246517,26.4854384 78.6247937,25.6658979 79.6067034,25.1200544 C80.4809747,24.6277099 81.7904458,24.4090624 83.5366654,24.3547882 L84.0276202,24.3547882 C85.8830269,24.3547882 87.3016851,24.6819841 88.175182,25.2836524 C89.0479046,25.8845454 89.4838787,26.8676838 89.4838787,28.1787935 L89.4838787,33.2604097 C89.4838787,33.5333315 89.5388595,33.8070285 89.5388595,34.025676 C89.5938402,34.189274 89.6480466,34.4079215 89.7030273,34.5715194 L86.1563819,34.5715194 C86.0464204,34.4079215 85.992214,34.189274 85.9372333,33.9706265 C85.9372333,33.8070285 85.8830269,33.5333315 85.8830269,33.3146839 L85.8830269,33.0968118 L85.8830269,33.0968118 Z M83.5366654,32.6595168 C84.1917881,32.6052426 84.7369493,32.3858197 85.118717,32.0586238 C85.5554655,31.675603 85.8280461,31.07471 85.8280461,30.3644933 L85.8280461,30.1466211 L85.5012591,30.1466211 C84.7369493,30.1466211 84.0818266,30.1466211 83.5366654,30.2008953 C82.9365234,30.2559449 82.4997749,30.3102191 82.1722135,30.473817 C81.5720716,30.6381903 81.2445102,31.0204358 81.2445102,31.5662792 C81.2445102,31.8942505 81.4079037,32.1671722 81.7354651,32.3858197 C82.0630264,32.550193 82.5547556,32.6595168 83.1548976,32.6595168 L83.5366654,32.6595168 L83.5366654,32.6595168 Z M56.5248559,33.0968118 C56.0881074,33.6977048 55.4879654,34.0799502 54.6694492,34.4079215 C54.5060557,34.462971 54.3418878,34.5172452 54.1235136,34.5715194 C53.4691652,34.7358928 52.7048554,34.8452165 51.8321328,34.8452165 C50.5768681,34.8452165 49.594184,34.5715194 48.9398357,34.025676 C48.2305066,33.5333315 47.9037196,32.7680652 47.9037196,31.7849267 C47.9037196,31.1840338 48.0121323,30.6381903 48.2854873,30.1466211 C48.5572936,29.7093261 48.9398357,29.3263053 49.4307905,28.998334 C49.867539,28.7254123 50.4127002,28.561039 51.1220293,28.4524906 C51.7771521,28.3431668 52.7590618,28.2881173 54.1235136,28.2881173 L54.5602621,28.2881173 L56.4156687,28.2881173 L56.4156687,28.1245193 L56.4156687,28.0151956 C56.4156687,27.4685768 56.2522752,27.0320571 55.9254883,26.7583601 C55.5971525,26.4854384 55.160404,26.3218404 54.5602621,26.3218404 C54.3968686,26.3218404 54.2876815,26.3761146 54.1235136,26.3761146 C53.6325587,26.3761146 53.250791,26.4854384 52.977436,26.6498117 C52.650649,26.8134096 52.4872555,27.1406055 52.377294,27.5779006 L48.5030872,27.5779006 C48.6672551,26.4854384 49.2124163,25.6658979 50.1951004,25.1200544 C51.1220293,24.6277099 52.4322748,24.4090624 54.1235136,24.3547882 L54.6152428,24.3547882 C56.4706495,24.3547882 57.8893077,24.6819841 58.7620303,25.2836524 C59.6355272,25.8845454 60.1264821,26.8676838 60.1264821,28.1787935 L60.1264821,33.2604097 L60.1264821,34.025676 C60.1806885,34.189274 60.2356692,34.4079215 60.2898756,34.5715194 L56.7432301,34.5715194 C56.634043,34.4079215 56.5790622,34.189274 56.5790622,33.9706265 C56.5248559,33.8070285 56.5248559,33.5333315 56.5248559,33.3146839 L56.5248559,33.0968118 L56.5248559,33.0968118 Z M54.1235136,32.6595168 C54.8336171,32.6052426 55.3237975,32.3858197 55.7063396,32.0586238 C56.1972945,31.675603 56.4156687,31.07471 56.4156687,30.3644933 L56.4156687,30.1466211 L56.0881074,30.1466211 C55.3237975,30.1466211 54.6694492,30.1466211 54.1235136,30.2008953 C53.577578,30.2559449 53.1416039,30.3102191 52.8140425,30.473817 C52.1589198,30.6381903 51.8863392,31.0204358 51.8863392,31.5662792 C51.8863392,31.8942505 52.050507,32.1671722 52.3223133,32.3858197 C52.650649,32.550193 53.1416039,32.6595168 53.7959522,32.6595168 L54.1235136,32.6595168 L54.1235136,32.6595168 Z M42.6100802,29.3263053 C42.6100802,28.397441 42.391706,27.6872243 41.8999767,27.1406055 C41.4090219,26.5947621 40.7546735,26.3218404 39.8819509,26.3218404 C38.9534732,26.3761146 38.2983505,26.5947621 37.80817,27.1406055 C37.3164408,27.6872243 37.0980666,28.4524906 37.0980666,29.435629 C37.0980666,30.4195428 37.3164408,31.1840338 37.80817,31.7306525 C38.2983505,32.276496 39.008454,32.4951435 39.8269702,32.4951435 L39.8819509,32.4951435 C40.7546735,32.4951435 41.4090219,32.2222217 41.8999767,31.675603 C42.391706,31.1297596 42.6100802,30.3102191 42.6100802,29.3263053 L42.6100802,29.3263053 Z M39.8819509,24.5183861 C40.3729058,24.4090624 40.8638606,24.3547882 41.4090219,24.3547882 C42.9918479,24.3547882 44.2471126,24.7913078 45.174816,25.7209474 C46.1017449,26.6498117 46.5384934,27.9058718 46.5384934,29.4906786 C46.5384934,31.1840338 46.1017449,32.4951435 45.2290223,33.4240077 C44.301319,34.3528719 43.1002607,34.8452165 41.518209,34.8452165 C40.918067,34.8452165 40.3729058,34.7358928 39.8819509,34.626569 C39.5536152,34.5172452 39.2810346,34.4079215 39.0626603,34.2985977 C38.2983505,33.9163523 37.6440022,33.4240077 37.1530473,32.713791 L37.1530473,33.0417622 C37.1530473,33.3146839 37.1530473,33.5333315 37.0980666,33.8070285 C37.0980666,34.0799502 37.0438602,34.3528719 37.0438602,34.5715194 L33.1696533,34.5715194 C33.2238597,34.189274 33.2780661,33.8070285 33.2780661,33.4240077 C33.3330468,33.0417622 33.3330468,32.6595168 33.3330468,32.3315455 L33.3330468,20.2570857 L37.1530473,20.2570857 L37.1530473,25.9938691 C37.6982085,25.4472504 38.3533312,25.0099553 39.0626603,24.7370336 C39.335241,24.6277099 39.6085959,24.5734357 39.8819509,24.5183861 L39.8819509,24.5183861 Z M10.1412378,20.2570857 L12.9243478,20.2570857 L19.909226,34.5715194 L15.3249157,34.5715194 L14.0704254,31.675603 L6.26703097,31.675603 L4.90257915,34.5715194 L0.59162383,34.5715194 L8.06745689,20.2570857 L10.1412378,20.2570857 L10.1412378,20.2570857 Z M10.1412378,28.8897856 L12.7609543,28.8897856 L10.3046313,23.3708744 L10.1412378,23.6437961 L7.57572766,28.8897856 L10.1412378,28.8897856 L10.1412378,28.8897856 Z M38.3328185,9.68340141 L38.3328185,8.29249511 C38.85509,8.5869307 39.1171534,8.61943936 39.1496214,8.6853855 L40.8495548,6.98332487 L40.2934238,5.54365558 C45.2290285,3.80862189 47.2230294,3.15426897 51.2430356,2.4674074 L50.5241006,1.78008142 L51.1287017,1.43641842 L50.5241006,1.78008142 L51.2430356,2.4674074 C47.2230294,3.15426897 45.2290285,3.80862189 40.2934238,5.54365558 L40.8495548,6.98332487 L39.1496214,8.6853855 C39.1171534,8.61943936 38.85509,8.5869307 38.3328185,8.29249511 L38.3328185,9.68340141 Z M56.3809549,3.24582293 C56.5572449,3.587343 56.6101941,4.00402415 56.5051759,4.52892094 C56.6359757,2.99079685 54.7403065,2.40192567 51.7991666,1.55066315 L51.2430356,1.91104488 L52.3214381,2.79435165 C47.517097,3.64514976 44.5425615,4.59440267 41.0128226,5.83809117 L41.5030899,7.08177968 L39.7377566,8.84885763 C40.0318242,8.91433936 43.1046915,9.99409133 46.3074309,7.70315952 C46.3403628,7.70315952 46.3732947,7.67065086 46.3732947,7.63767779 C46.2749629,7.47420566 46.0787632,7.31073353 45.8171637,7.08177968 C46.7327622,7.146797 47.3538292,7.99759511 47.2230294,8.84885763 L46.7981621,8.84885763 C46.8635619,8.5869307 46.7981621,8.25952204 46.6668984,8.06354125 C44.2160259,9.89563652 41.3068902,10.1580279 38.85509,9.30676534 L38.85509,11.4667337 C37.6788196,11.8921327 35.5215508,13.201303 35.5544826,14.4775001 C35.6172698,15.0787661 35.9250628,15.3127147 36.2111941,15.4757341 C36.3188343,15.5158529 36.4169045,15.546278 36.4776228,15.5585405 C39.1905588,17.0966646 46.3074309,14.9358723 46.3074309,14.9358723 C43.6278907,16.3105242 41.0782225,17.3902762 37.1556204,17.5537483 C32.0572118,17.4557579 31.239945,14.0195924 33.6588134,10.4199548 C35.9464182,6.78687968 39.5744888,3.54715937 45.3598282,1.48518142 C47.0263659,0.896310235 49.511098,0.208984252 51.8641027,0.17647559 C55.2959736,0.14350252 58.5975086,1.2237189 58.401309,4.52892094 C58.2705092,7.04880661 54.6424385,10.6159356 52.7467693,13.201303 C51.9295026,14.314028 51.7991666,15.0338627 53.1716367,14.9683809 C58.2380411,14.6409723 62.8137145,12.8738943 67.0628522,11.0413346 C64.1861846,13.0053222 49.3144345,20.4665244 49.2494985,15.3612713 C49.2819665,14.7394271 49.5760341,14.0521011 50.0338333,13.3322664 C50.5241006,12.6124318 51.1780995,11.826651 51.8641027,11.0743077 C52.8775691,9.89563652 55.3943054,7.11428834 56.2115721,5.41222771 C56.6483623,4.44811185 56.6568753,3.76174306 56.3809549,3.24582293 Z M20.5643487,20.2570857 L24.3843492,20.2570857 L24.3843492,34.5715194 L20.5643487,34.5715194 L20.5643487,20.2570857 Z" id="Fill-4"></path>
                    </g>
                    <path d="M119,6 L119,35.1262136 L149.321115,35.1262136 L179,6.00327887 L119,6.00327887 L119,6 Z M154.477326,11.6644558 L148.553245,11.6644558 L148.553245,25.7361532 L143.37797,11.6644558 L138.24828,11.6644558 L133.826503,23.4291529 C133.359254,20.4638706 130.284255,19.4372722 127.866892,18.6718437 C126.273417,18.159549 124.577375,17.4068441 124.592793,16.5731096 C124.606201,15.8913893 125.503829,15.2592244 127.274283,15.3536473 C128.467546,15.4139173 129.520031,15.5103492 131.609582,16.5195363 L133.667625,12.9381611 C131.761086,11.965136 129.119148,11.3544004 126.957867,11.3497127 L126.94446,11.3497127 C124.423189,11.3497127 122.322242,12.1707235 121.019038,13.5147437 C120.113365,14.4549552 119.623322,15.6442825 119.6012,16.9682127 C119.567682,18.781669 120.236043,20.0687675 121.63511,21.0980446 C122.818988,21.9645927 124.329337,22.5224247 125.663378,22.9402965 C127.309142,23.4472339 128.652569,23.8898833 128.63715,24.833443 C128.623743,25.1769818 128.495702,25.4990913 128.246993,25.7535645 C127.837396,26.1788026 127.207916,26.3361741 126.337102,26.3555945 C124.65849,26.3890778 123.413608,26.1279079 121.430647,24.9573313 L119.6012,28.5889315 C121.578128,29.7133011 123.918399,30.3709134 126.306936,30.3709134 L126.615977,30.3709134 C128.694132,30.3307334 130.372744,29.7380788 131.71416,28.6612554 L131.93136,28.4717399 L131.338751,30.0628669 L136.71849,30.0628669 L137.622152,27.3179049 C138.567377,27.6373357 139.643995,27.8168063 140.783628,27.8168063 C141.895776,27.8168063 142.944909,27.6493897 143.873375,27.3440219 L144.742178,30.0628669 L153.520034,30.0628669 L153.520034,24.3774003 L155.435288,24.3774003 C160.060858,24.3774003 162.8,22.0255324 162.8,18.0785194 C162.8,13.6855086 160.139962,11.6704828 154.476656,11.6704828 L154.477326,11.6644558 Z M140.782288,23.709743 C140.091804,23.709743 139.444224,23.5838458 138.884463,23.3735706 L140.763517,17.4537207 L140.80374,17.4537207 L142.643912,23.3896426 C142.089514,23.5878638 141.458693,23.709743 140.784299,23.709743 L140.782288,23.709743 Z M154.823238,20.3024811 L153.518694,20.3024811 L153.518694,15.5364662 L154.823238,15.5364662 C156.564866,15.5364662 157.951196,16.1097005 157.951196,17.8890038 C157.951196,19.7265681 156.564866,20.3024811 154.823238,20.3024811 Z M158.019385,31.5597385 C157.037106,31.5597385 156.2,32.3136501 156.2,33.3333216 C156.2,34.3604575 157.037044,35.1262136 158.019385,35.1262136 C158.98804,35.1262136 159.8,34.3605809 159.8,33.3333216 C159.8,32.3136501 158.98804,31.5597385 158.019385,31.5597385 Z M158.019385,31.8489405 C158.820755,31.8489405 159.451557,32.4937844 159.451557,33.3333216 C159.451557,34.1872324 158.820755,34.8177644 158.019385,34.8177644 C157.204267,34.8177644 156.548443,34.1872324 156.548443,33.3333216 C156.548443,32.4937844 157.204267,31.8489405 158.019385,31.8489405 Z M157.322623,32.3116143 L157.322623,34.3550905 L157.632295,34.3550905 L157.632295,33.4682989 L157.980615,33.4682989 L158.541926,34.3550905 L158.890307,34.3550905 L158.290287,33.4682989 C158.590111,33.431285 158.832213,33.2576281 158.832213,32.8899566 C158.832213,32.4871219 158.584723,32.3116143 158.096803,32.3116143 L157.322623,32.3116143 Z M157.632295,32.5815074 L158.058033,32.5815074 C158.267433,32.5815074 158.503217,32.6154368 158.503217,32.8706477 C158.503217,33.1896459 158.26446,33.2177148 158,33.2177148 L157.632295,33.2177148 L157.632295,32.5815074 Z" id="Combined-Shape" fill="url(#linearGradient-1)"></path>
                    <path d="M261.652974,29.0225949 L258.839609,21.1667511 L257.08759,21.1667511 L265.44552,13 L259.605937,13 L251.467371,20.986231 L253.985237,13 L248.875903,13 L243.877094,28.9144455 L241.10246,21.1667511 L239.350441,21.1667511 L247.708371,13 L241.868788,13 L233.730222,20.986231 L236.248088,13 L231.138754,13 L225.372292,31.3568523 L230.481626,31.3568523 L233.693661,21.1667511 L235.701123,21.1667511 L239.350441,31.3568523 L243.93085,31.3568523 L248.219256,31.3568523 L251.43081,21.1667511 L253.437791,21.1667511 L257.08759,31.3568523 L261.704319,31.3568523 L274.459615,31.3568523 L275.481867,28.1046315 L267.050816,28.1046315 L268.474271,23.5516177 L276.321316,23.5516177 L277.343086,20.299397 L269.496523,20.299397 L270.810297,16.1074236 L279.204306,16.1074236 L280.226077,13 L266.686173,13 L261.652974,29.0225949 Z M217.489168,31.3568523 L222.598502,31.3568523 L228.364964,13 L223.25563,13 L217.489168,31.3568523 Z M277.124204,31.3568523 L282.233538,31.3568523 L288,13 L282.890185,13 L277.124204,31.3568523 Z M220.48184,13 L216.248515,13 L212.270152,25.6835656 L209.824926,13 L203.766462,13 L198,31.3568523 L202.270366,31.3568523 L206.39449,18.022652 L208.985477,31.3568523 L214.715378,31.3568523 L220.48184,13 Z M285.621641,29.1977549 C286.145996,29.1977549 286.559708,29.6073785 286.559708,30.1508442 C286.559708,30.7033597 286.145996,31.1101255 285.621641,31.1101255 C285.091033,31.1101255 284.677321,30.7033597 284.677321,30.1508442 C284.677321,29.6073785 285.091033,29.1977549 285.621641,29.1977549 L285.621641,29.0062797 C284.983756,29.0062797 284.444488,29.4921123 284.444488,30.1508442 C284.444488,30.8157681 284.983756,31.3011244 285.621641,31.3011244 C286.253273,31.3011244 286.79254,30.8157681 286.79254,30.1508442 C286.79254,29.4921123 286.253273,29.0062797 285.621641,29.0062797 L285.621641,29.1977549 Z M285.376301,29.6621538 L285.652429,29.6621538 C285.79338,29.6621538 285.94347,29.6921611 285.94347,29.8564868 C285.94347,30.0598697 285.790012,30.0717773 285.618274,30.0717773 L285.376301,30.0717773 L285.376301,30.2418188 L285.609134,30.2418188 L285.96175,30.8157681 L286.188811,30.8157681 L285.808292,30.2327689 C286.004565,30.2084773 286.155136,30.1051188 286.155136,29.8683945 C286.155136,29.6073785 285.998792,29.4921123 285.682736,29.4921123 L285.174256,29.4921123 L285.174256,30.8157681 L285.376301,30.8157681 L285.376301,29.6621538 Z" id="Fill-2-Copy" fill="#0854A0"></path>
                </g>
            </g>
        </g>
    </g>
</svg>