<?xml version="1.0" encoding="UTF-8"?>
<svg width="534px" height="220px" viewBox="0 0 534 220" version="1.1" xmlns="http://www.w3.org/2000/svg" xmlns:xlink="http://www.w3.org/1999/xlink">
    <!-- Generator: Sketch 41.2 (35397) - http://www.bohemiancoding.com/sketch -->
    <title>squiggle</title>
    <desc>Created with Sketch.</desc>
    <defs>
        <linearGradient x1="83.856429%" y1="0%" x2="16.143571%" y2="100%" id="linearGradient-1">
            <stop stop-color="#EDEDED" offset="0%"></stop>
            <stop stop-color="#9A9BA5" offset="100%"></stop>
        </linearGradient>
        <linearGradient x1="85.28%" y1="0%" x2="14.72%" y2="100%" id="linearGradient-2">
            <stop stop-color="#EDEDED" offset="0%"></stop>
            <stop stop-color="#9A9BA5" offset="100%"></stop>
        </linearGradient>
    </defs>
    <g id="Page-1" stroke="none" stroke-width="1" fill="none" fill-rule="evenodd" opacity="0.496326959">
        <g id="squiggle" transform="translate(266.000000, -1.000000)" fill="url(#linearGradient-2)">
            <g id="about">
                <g id="about-copy-12">
                    <g id="Group-5">
                        <g id="what-we-do-graphic">
                            <path d="M259.061663,1.49279756 C259.085705,1.58736309 259.133499,1.78016455 259.202746,2.06715355 C259.319312,2.55024987 259.452739,3.1194586 259.600728,3.77072924 C260.024812,5.63703998 260.479609,7.78315123 260.946737,10.1766263 L264.872666,9.41041279 C264.397502,6.97576359 263.93424,4.78970695 263.501294,2.88439807 C263.349323,2.21560185 263.211843,1.62910274 263.091156,1.12892423 C263.018051,0.825948318 262.966345,0.617365864 262.938337,0.507202442 L259.061663,1.49279756 Z M262.506921,18.9738268 C262.970654,21.869564 263.395486,24.822221 263.773809,27.8182757 L267.742295,27.3171601 C267.358307,24.2762434 266.927184,21.2798629 266.456595,18.3413123 L262.506921,18.9738268 Z M264.739241,36.6933447 C265.010297,39.6749166 265.225305,42.6445095 265.379893,45.5942464 L269.374412,45.3849032 C269.217094,42.383106 268.998404,39.3626536 268.722814,36.3311972 L264.739241,36.6933447 Z M265.658589,54.5094902 C265.686334,57.5287728 265.642863,60.4978381 265.524658,63.4101748 L269.521368,63.5723919 C269.642322,60.5923139 269.686762,57.5570209 269.65842,54.4727353 L265.658589,54.5094902 Z M264.912269,72.2704776 C264.612151,75.2867925 264.220923,78.2155555 263.735264,81.0503075 L267.677822,81.7257595 C268.17974,78.7961059 268.583394,75.7743251 268.892615,72.666514 L264.912269,72.2704776 Z M261.881172,89.6899293 C261.114047,92.6178334 260.22742,95.4105496 259.217903,98.0610234 L262.955941,99.4847745 C264.017898,96.6966219 264.947902,93.7672763 265.750566,90.7037286 L261.881172,89.6899293 Z M255.505527,105.924173 C254.05405,108.449909 252.411355,110.824119 250.579111,113.053638 L253.669435,115.593302 C255.642114,113.192899 257.411264,110.635922 258.97364,107.917209 L255.505527,105.924173 Z M244.511753,119.31784 C242.374105,121.200745 240.059418,122.955566 237.567713,124.588352 L239.76009,127.934018 C242.407653,126.1991 244.873336,124.329806 247.155669,122.319458 L244.511753,119.31784 Z M229.966183,128.926755 C227.418926,130.192435 224.728062,131.363806 221.891539,132.445999 L223.317376,136.183242 C226.271697,135.056107 229.080584,133.833359 231.746089,132.508924 L229.966183,128.926755 Z M213.518679,135.261429 C210.773906,136.07228 207.913966,136.817633 204.93322,137.502111 L205.828454,141.400644 C208.887268,140.698238 211.826418,139.932242 214.65193,139.097539 L213.518679,135.261429 Z M196.199437,139.275325 C193.364378,139.781879 190.429606,140.24479 187.38252,140.668588 L187.933548,144.630452 C191.030311,144.199745 194.015792,143.728836 196.902994,143.212965 L196.199437,139.275325 Z M178.487009,141.763182 C175.625662,142.073335 172.664652,142.357486 169.572079,142.620913 L169.911572,146.60648 C173.033711,146.340535 176.025095,146.053469 178.91806,145.739889 L178.487009,141.763182 Z M160.60426,143.30464 C157.788797,143.497 154.84875,143.679641 151.642108,143.863494 L151.871071,147.856935 C155.091485,147.672293 158.045853,147.488762 160.876915,147.295336 L160.60426,143.30464 Z M142.710152,144.347427 C141.920262,144.38846 141.098838,144.430865 140.096917,144.482388 C139.562296,144.50988 138.792921,144.549383 137.491892,144.616194 C135.942733,144.695801 134.825754,144.753516 133.723439,144.811073 L133.932015,148.805631 C135.033014,148.748143 136.149017,148.690479 137.697171,148.610923 C138.997946,148.544125 139.767527,148.504612 140.30234,148.47711 C141.3049,148.425554 142.12698,148.383115 142.91766,148.342041 L142.710152,144.347427 Z M124.74242,145.304032 C121.485338,145.495074 118.531172,145.685712 115.735068,145.887832 L116.023461,149.877422 C118.800126,149.676707 121.736577,149.487212 124.976635,149.297169 L124.74242,145.304032 Z M106.708682,146.634712 C103.526299,146.936707 100.534954,147.267588 97.6958659,147.635046 L98.209297,151.601958 C101.001152,151.240613 103.947653,150.914692 107.086567,150.616822 L106.708682,146.634712 Z M88.6764826,149.020675 C86.9096173,149.341162 85.2073659,149.682909 83.5661391,150.047626 C82.2819899,150.332992 81.0121069,150.629667 79.7564176,150.93755 L80.7089644,154.822476 C81.9363851,154.521524 83.1779918,154.231456 84.4338609,153.952374 C86.0227636,153.599285 87.6738363,153.267813 89.3903837,152.956452 L88.6764826,149.020675 Z M70.9815722,153.340035 C68.0089974,154.243215 65.1264823,155.214444 62.332784,156.251985 L63.7253901,160.001738 C66.4429343,158.99248 69.2488318,158.047066 72.144432,157.167274 L70.9815722,153.340035 Z M53.8761913,159.714682 C51.0350397,160.993049 48.3017101,162.34625 45.6743546,163.771632 L47.5817955,167.287549 C50.1218097,165.90955 52.7663569,164.600304 55.517489,163.36244 L53.8761913,159.714682 Z M37.7985358,168.463697 C35.1859864,170.17057 32.7024379,171.955341 30.3449897,173.813787 L32.8213518,176.955065 C35.0857059,175.170008 37.4729703,173.45443 39.9863359,171.812359 L37.7985358,168.463697 Z M23.3844143,179.858229 C21.1265989,182.019787 19.0223804,184.252284 17.0668213,186.548654 L20.1121918,189.142053 C21.9801647,186.948534 23.9912485,184.814849 26.1505798,182.747577 L23.3844143,179.858229 Z M11.4873616,193.84969 C9.71506456,196.446383 8.1282802,199.081652 6.71727313,201.742139 L10.251043,203.616297 C11.5933075,201.085426 13.1035294,198.577309 14.7911901,196.104622 L11.4873616,193.84969 Z M2.86034995,210.161708 C1.65915575,213.256719 0.740993576,216.21631 0.0684083363,218.990642 L3.95580238,219.933068 C4.58774871,217.326367 5.45366245,214.535192 6.58935308,211.608959 L2.86034995,210.161708 Z" id="squiggle"></path>
                        </g>
                    </g>
                </g>
            </g>
        </g>
    </g>
</svg>