<?xml version="1.0" encoding="UTF-8"?>
<svg width="387px" height="311px" viewBox="0 0 387 311" version="1.1" xmlns="http://www.w3.org/2000/svg" xmlns:xlink="http://www.w3.org/1999/xlink">
    <!-- Generator: Sketch 41.2 (35397) - http://www.bohemiancoding.com/sketch -->
    <title>what-we-do-hero</title>
    <desc>Created with Sketch.</desc>
    <defs>
        <path d="M104.058855,8.81759487 C92.203864,3.16356923 78.9402147,0 64.9406082,0 C40.51839,0 18.3368873,9.62801538 1.96214669,25.3073333 C-15.4471914,41.9770974 134.872952,23.5125692 104.058855,8.81759487 Z" id="path-1"></path>
        <path d="M154.462791,25.8474103 C154.566798,25.9780051 147.021717,36.0966667 124.3439,38.9691436 C78.5710197,44.7671897 -0.0133810376,45.3798872 0.104615385,45.1193077 C4.96618962,34.4013744 11.8270125,24.7898359 20.2090161,16.7637436 C30.0854383,19.8577436 40.8352773,20.6284974 51.0036494,18.7482974 C67.7932021,15.6665026 82.7306977,5.93291282 99.33839,1.96624615 C106.709517,0.189789744 114.740572,-0.329538462 122.304508,0.273394872 C134.872952,6.26672308 145.859392,15.0592974 154.462791,25.8474103 Z" id="path-3"></path>
        <path d="M179.999284,43.0249077 C180.057066,43.3935026 76.78161,53.1338051 26.4628265,50.2948923 C10.0686225,49.3697436 0.39352415,39.4250051 0.504221825,38.8818769 C1.8867263,32.1147436 4.01370304,25.6203949 6.7957424,19.4879282 C21.3330233,11.5045538 38.435814,6.89711795 55.0197853,7.07897436 C75.8169589,7.2925641 96.2193918,14.2494872 117.016565,13.7307692 C132.461932,13.3365436 148.029553,8.39041538 161.153309,0.216641026 C170.824758,12.3436564 177.485474,26.9934718 179.999284,43.0249077 Z" id="path-5"></path>
        <path d="M182.93703,32.9538462 C182.93703,33.4609692 182.924866,34.4727744 182.924866,34.4727744 C182.924866,34.4727744 154.239571,41.7317744 117.296959,41.2984923 C65.553703,40.6918974 0.470161002,32.317959 0.47137746,32.1647846 C0.523076923,26.0909026 1.16354204,20.1586 2.33924866,14.4215795 C14.7361717,22.0961641 29.7703757,25.8553436 44.2407513,24.2729487 C55.7478354,23.0219231 66.6777102,18.7501282 77.3344902,14.2037179 C87.9912701,9.65730769 98.5872272,4.77525641 109.85102,2.15115385 C126.397281,-1.69346154 144.097961,-0.350897436 159.915564,5.90423077 C167.610877,8.94941026 175.246583,13.3267795 181.822755,18.6048872 C182.556279,23.2800615 182.93703,28.0724051 182.93703,32.9538462 Z" id="path-7"></path>
        <path d="M79.4687657,46.1988513 C52.0966369,51.2706923 5.12189624,45.4207744 5.00389982,45.0588923 C2.06067979,36.0661538 0.468336315,26.4576667 0.468336315,16.4769231 C0.468336315,16.2132923 0.469552773,15.9502718 0.47137746,15.6872513 C4.62679785,12.3808821 9.48046512,9.43334359 14.2191771,7.14244103 C25.9385331,1.43654359 39.2362433,-0.94345641 52.200644,0.338082051 C65.0129875,1.61962051 77.2481216,6.37962051 89.0891234,11.5057744 C99.0646869,15.824559 108.975778,20.4899692 119.330877,23.7133436 C120.344794,24.0294564 109.599821,40.6162256 79.4687657,46.1988513 Z" id="path-9"></path>
        <path d="M0.425760269,33.4092401 C0.789395004,38.6206991 33.2445852,45.6504719 61.3192129,43.5216564 C85.9603936,41.6530513 104.138533,30.7422769 106.049589,27.5036462 C108.066476,20.1854513 109.200823,12.4998821 109.329159,4.56837949 C94.0772093,-0.827507692 76.8552057,-1.53357436 61.3192129,2.93167179 C40.5220394,8.88167179 23.0646512,23.131159 2.93531306,31.0644923 C1.27563038,31.7181888 0.480850407,32.4537691 0.425760286,33.2335484 L0.425760286,33.4092455 L0.425760269,33.4092401 Z" id="path-11"></path>
        <path d="M165.950411,27.3144667 C150.196673,54.7564769 35.9384258,61.6383385 19.2474061,43.1786923 C10.7504472,33.7819641 4.17366726,22.6057282 0.13745975,10.2736667 C14.1693023,2.2274359 30.5945259,-1.19 46.3817174,0.976410256 C66.8145617,3.78358974 85.122254,15.2258974 105.282004,19.6807692 C121.55517,23.2812821 138.800286,22.1523077 154.46644,16.4769231 C161.548658,13.8912667 168.570662,10.426841 174.780072,6.14345128 C172.716959,13.6288564 169.730555,20.7298 165.950411,27.3144667 Z" id="path-13"></path>
        <path d="M147.226691,0.843984615 C131.505796,28.4123179 101.906333,46.9897436 67.9817531,46.9897436 C41.1789267,46.9897436 17.0748122,35.393041 0.383184258,16.9279026 C3.15305903,17.990359 6.25137746,18.9087949 9.09059034,19.7112821 C24.9696243,24.1051282 42.0626834,23.9830769 57.850483,19.3146154 C67.9604651,16.324359 77.4634347,11.564359 87.3915564,7.96384615 C106.336064,1.10944615 127.187979,-1.30411795 147.226691,0.843984615 Z" id="path-15"></path>
    </defs>
    <g id="Page-1" stroke="none" stroke-width="1" fill="none" fill-rule="evenodd">
        <g id="what-we-do-hero">
            <g id="about">
                <g id="about-copy-12">
                    <g id="Group-5">
                        <g id="what-we-do-graphic">
                            <g id="what-we-do-hero">
                                <g id="realm" transform="translate(65.000000, 116.000000)">
                                    <g id="logo">
                                        <g id="Oval">
                                            <g id="path-1-link" fill="#000000">
                                                <circle id="path-1" cx="97" cy="97" r="97"></circle>
                                            </g>
                                            <g id="path-1-link" stroke="#EBEBF2" fill="#FFFFFF">
                                                <circle id="path-1" cx="97" cy="97" r="97"></circle>
                                            </g>
                                        </g>
                                        <g id="Group" transform="translate(5.000000, 5.000000)">
                                            <g id="Group-3" transform="translate(26.762075, 0.000000)">
                                                <g id="Fill-1-Clipped">
                                                    <mask id="mask-2" fill="white">
                                                        <use xlink:href="#path-1"></use>
                                                    </mask>
                                                    <g id="path-3"></g>
                                                    <polygon id="Fill-1" fill="#FDC297" mask="url(#mask-2)" points="0.547406082 31.9530256 108.276923 31.9530256 108.276923 -0.0488205128 0.547406082 -0.0488205128"></polygon>
                                                </g>
                                            </g>
                                            <g id="Group-6" transform="translate(8.515206, 8.543590)">
                                                <g id="Fill-4-Clipped">
                                                    <mask id="mask-4" fill="white">
                                                        <use xlink:href="#path-3"></use>
                                                    </mask>
                                                    <g id="path-5"></g>
                                                    <polygon id="Fill-4" fill="#FC9D95" mask="url(#mask-4)" points="0.0364937388 45.2322051 154.477996 45.2322051 154.477996 -0.0244102564 0.0364937388 -0.0244102564"></polygon>
                                                </g>
                                            </g>
                                            <g id="Group-9" transform="translate(1.824687, 34.174359)">
                                                <g id="Fill-7-Clipped">
                                                    <mask id="mask-6" fill="white">
                                                        <use xlink:href="#path-5"></use>
                                                    </mask>
                                                    <g id="path-7"></g>
                                                    <polygon id="Fill-7" fill="#F77B89" mask="url(#mask-6)" points="0.450089445 50.8709744 180.072272 50.8709744 180.072272 0.195282051 0.450089445 0.195282051"></polygon>
                                                </g>
                                            </g>
                                            <g id="Group-12" transform="translate(0.000000, 58.584615)">
                                                <g id="Fill-10-Clipped">
                                                    <mask id="mask-8" fill="white">
                                                        <use xlink:href="#path-7"></use>
                                                    </mask>
                                                    <g id="path-9"></g>
                                                    <polygon id="Fill-10" fill="#F14F93" mask="url(#mask-8)" points="0.450089445 41.3265641 182.991771 41.3265641 182.991771 -0.0488205128 0.450089445 -0.0488205128"></polygon>
                                                </g>
                                            </g>
                                            <g id="Group-15" transform="translate(0.000000, 75.061538)">
                                                <g id="Fill-13-Clipped">
                                                    <mask id="mask-10" fill="white">
                                                        <use xlink:href="#path-9"></use>
                                                    </mask>
                                                    <g id="path-11"></g>
                                                    <polygon id="Fill-13" fill="#D14DA3" mask="url(#mask-10)" points="0.450089445 48.2834872 119.419678 48.2834872 119.419678 -0.0488205128 0.450089445 -0.0488205128"></polygon>
                                                </g>
                                            </g>
                                            <g id="Group-18" transform="translate(73.595707, 88.487179)">
                                                <g id="Fill-16-Clipped">
                                                    <mask id="mask-12" fill="white">
                                                        <use xlink:href="#path-11"></use>
                                                    </mask>
                                                    <g id="path-13"></g>
                                                    <polygon id="Fill-16" fill="#9752A5" mask="url(#mask-12)" points="0.425760286 43.9384615 109.396064 43.9384615 109.396064 -0.0732307692 0.425760286 -0.0732307692"></polygon>
                                                </g>
                                            </g>
                                            <g id="Group-21" transform="translate(4.865832, 109.846154)">
                                                <g id="Fill-19-Clipped">
                                                    <mask id="mask-14" fill="white">
                                                        <use xlink:href="#path-13"></use>
                                                    </mask>
                                                    <g id="path-15"></g>
                                                    <polygon id="Fill-19" fill="#54589E" mask="url(#mask-14)" points="0.109481216 53.5561026 174.841503 53.5561026 174.841503 0.317333333 0.109481216 0.317333333"></polygon>
                                                </g>
                                            </g>
                                            <g id="Group-24" transform="translate(23.720930, 136.087179)">
                                                <g id="Fill-22-Clipped">
                                                    <mask id="mask-16" fill="white">
                                                        <use xlink:href="#path-15"></use>
                                                    </mask>
                                                    <g id="path-17"></g>
                                                    <polygon id="Fill-22" fill="#354980" mask="url(#mask-16)" points="0.377101968 47.0141538 147.227907 47.0141538 147.227907 0.0732307692 0.377101968 0.0732307692"></polygon>
                                                </g>
                                            </g>
                                        </g>
                                    </g>
                                </g>
                                <g id="languages">
                                    <g id="apple" transform="translate(63.840517, 0.909483)">
                                        <g id="Oval-Copy-2">
                                            <g id="path-19-link" fill="#000000">
                                                <ellipse id="path-19" cx="55" cy="55" rx="55" ry="55"></ellipse>
                                            </g>
                                            <g id="path-19-link" stroke="#EBEBF2" fill="#FFFFFF">
                                                <ellipse id="path-19" cx="55" cy="55" rx="55" ry="55"></ellipse>
                                            </g>
                                        </g>
                                        <ellipse id="Oval" fill="#303030" cx="55" cy="55" rx="50" ry="50"></ellipse>
                                        <g id="Page-1" transform="translate(37.159483, 30.090517)" fill="#FFFFFF">
                                            <g id="Group">
                                                <g id="apple">
                                                    <path d="M34.3719231,29.9773321 C33.7308149,32.0332996 32.7191484,34.089267 31.3369235,36.1452345 C29.2146345,39.3697242 27.1007673,40.981969 24.9953218,40.981969 C24.1889362,40.981969 23.0372576,40.7187883 21.5402859,40.192427 C20.1254265,39.6660656 18.8837401,39.4028849 17.8152265,39.4028849 C16.8119818,39.4028849 15.6439859,39.6744874 14.311239,40.2176923 C12.978492,40.7766881 11.8926085,41.056186 11.0535885,41.056186 C8.5533721,41.056186 6.0778946,38.9260016 3.6271561,34.6656327 C1.20905204,30.3726295 0,26.2359556 0,22.255611 C0,18.5047599 0.92955416,15.4287041 2.7886625,13.0274436 C4.6309272,10.6588175 6.9669189,9.4745045 9.7966376,9.4745045 C10.9809507,9.4745045 12.4368662,9.7213679 14.1643842,10.2150949 C15.8750586,10.7088218 17.0098937,10.9556853 17.5688894,10.9556853 C18.3089535,10.9556853 19.4848448,10.6761874 21.0965633,10.1171917 C22.7746033,9.5581959 24.197358,9.278698 25.3648275,9.278698 C27.321839,9.278698 29.0735696,9.8134812 30.6200193,10.8830475 C31.4748302,11.4746776 32.3301674,12.2973804 33.1860309,13.3511559 C31.8869711,14.4533565 30.9495215,15.4239669 30.3736822,16.2629869 C29.3041159,17.8094366 28.7693328,19.5116892 28.7693328,21.3697448 C28.7693328,23.4088687 29.3367503,25.2427117 30.4715854,26.8712737 C31.6064205,28.4998358 32.9060067,29.5362413 34.370344,29.9804903 L34.3719231,29.9773321 Z M25.0948041,1.03587915 C25.0948041,2.0391239 24.8563624,3.15764179 24.379479,4.39143281 C23.8857521,5.62522384 23.120949,6.7600589 22.0850699,7.7959381 C21.1965719,8.6844361 20.3086003,9.2765926 19.421155,9.5724077 C18.8126813,9.753476 17.9573441,9.8934881 16.8551434,9.992444 C16.9046214,7.5417055 17.5462559,5.42783833 18.7800469,3.65084238 C19.9969944,1.89069 22.0529618,0.67374254 24.9479493,0 C24.9647929,0.04947797 24.985321,0.14001212 25.0095336,0.27160246 C25.0337462,0.4031928 25.0542743,0.49372695 25.0711179,0.54320492 C25.0711179,0.60952645 25.0753288,0.69163883 25.0837505,0.78954204 C25.0921723,0.88744525 25.0963832,0.96955762 25.0963832,1.03587915 L25.0948041,1.03587915 Z" id="Shape"></path>
                                                </g>
                                            </g>
                                        </g>
                                    </g>
                                    <g id="react-native" transform="translate(0.816826, 105.148969)">
                                        <g id="Oval-Copy-3">
                                            <g id="path-21-link" fill="#000000">
                                                <ellipse id="path-21" cx="30" cy="30" rx="30" ry="30"></ellipse>
                                            </g>
                                            <g id="path-21-link" stroke="#EBEBF2" fill="#FFFFFF">
                                                <ellipse id="path-21" cx="30" cy="30" rx="30" ry="30"></ellipse>
                                            </g>
                                        </g>
                                        <ellipse id="Oval" fill="#39477F" cx="30.2525253" cy="30" rx="25.2525253" ry="25"></ellipse>
                                        <g id="react" transform="translate(15.432246, 16.018273)" fill="#FFFFFF">
                                            <ellipse id="Oval" cx="14.7900633" cy="12.9077301" rx="2.63551217" ry="2.5940283"></ellipse>
                                            <path d="M14.7900633,8.25402255 C18.1952395,8.25402255 21.4299581,8.72654724 23.8891305,9.5598243 C26.6203206,10.4852587 28.2863001,11.8534948 28.2863001,12.9077301 C28.2863001,14.0306966 26.4870839,15.4885757 23.5656731,16.4412887 C21.2399009,17.1997469 18.1281492,17.6131455 14.7900633,17.6131455 C11.2833201,17.6131455 8.13646872,17.2078023 5.83767926,16.434414 C4.39852754,15.9502527 3.21003776,15.3210425 2.39541418,14.6343969 C1.66339672,14.0173798 1.29382649,13.4047799 1.29382649,12.9077301 C1.29382649,11.8499487 2.89606078,10.5007173 5.56834801,9.58369368 C8.02854916,8.73951335 11.3424396,8.25402255 14.7900633,8.25402255 L14.7900633,8.25402255 L14.7900633,8.25402255 Z M14.7900633,7.01303387 C11.2084994,7.01303387 7.75581302,7.51885853 5.15327851,8.41187838 C2.02853787,9.48416613 0.0329918401,11.1646029 0.0329918401,12.9077301 C0.0329918401,14.7080667 2.1752464,16.5137717 5.42988099,17.6086999 C7.87627616,18.4317476 11.1554419,18.8541342 14.7900633,18.8541342 C18.2540059,18.8541342 21.4966658,18.4233443 23.9622226,17.619301 C27.3457266,16.5158929 29.5471347,14.7321234 29.5471347,12.9077301 C29.5471347,11.158302 27.4872125,9.46652847 24.2995468,8.38642229 C21.7001518,7.50563156 18.3280212,7.01303387 14.7900633,7.01303387 L14.7900633,7.01303387 L14.7900633,7.01303387 Z" id="Shape"></path>
                                            <path d="M9.57922937,9.97585029 C7.78991965,13.0297358 6.51025842,16.2262636 5.99614243,18.8913394 C5.37883925,22.0912663 5.86089742,24.6322048 7.39505555,25.5030498 C8.97964097,26.4024431 11.6390799,25.4779878 14.2286586,23.2499626 C16.1752354,21.5752272 18.1851423,18.9903454 20.0008975,15.8913173 C21.7313621,12.9378388 22.9721507,9.95781712 23.496241,7.4539119 C24.2154319,4.01783463 23.7452248,1.24964313 22.1395034,0.338253024 C20.5997954,-0.535677278 18.0817565,0.375527962 15.5386475,2.55384198 C13.4648528,4.33019074 11.3466737,6.95930914 9.57923052,9.97584828 L9.57922937,9.97585029 Z M10.6714551,10.5958143 C12.3725654,7.69248712 14.4044324,5.17050065 16.3663569,3.4899765 C18.5452903,1.62359912 20.5817862,0.88665031 21.5096443,1.41329776 C22.4980055,1.97428091 22.8823055,4.23672222 22.2613395,7.20351074 C21.7669607,9.56546557 20.5762614,12.4251869 18.9086691,15.2713579 C17.1568002,18.2613484 15.2279963,20.741926 13.3988642,22.315618 C12.2537795,23.3008275 11.1062667,23.9998346 10.0949692,24.3513747 C9.18622605,24.6672655 8.46242558,24.6763315 8.02493224,24.428015 C7.09396897,23.8995658 6.70692305,21.8594388 7.23484591,19.1228345 C7.72084446,16.6035141 8.94906111,13.5354921 10.6714563,10.5958122 L10.6714551,10.5958143 Z" id="Combined-Shape"></path>
                                            <path d="M9.58422453,15.8998729 C11.3787436,18.9507971 13.553325,21.6384026 15.6423772,23.4077807 C18.1507078,25.5322856 20.6280919,26.3902033 22.1608065,25.5168613 C23.7438433,24.6148543 24.2582912,21.8853959 23.590405,18.5644583 C23.0883829,16.0681587 21.8168654,13.0633107 19.9958514,9.96729843 C18.2603258,7.01660719 16.2569575,4.47033487 14.314694,2.77296971 C11.6494383,0.44366593 8.97797063,-0.537857675 7.3738181,0.376216386 C5.83557634,1.25268083 5.38007619,3.85500011 6.02743661,7.11144825 C6.55531761,9.76695399 7.81167651,12.8862122 9.58422043,15.8998659 L9.58422453,15.8998729 Z M10.6753961,15.2781132 C8.96937751,12.3775649 7.76421381,9.3854129 7.26480834,6.87315325 C6.71015162,4.08303704 7.07854108,1.97839025 8.0055136,1.45021678 C8.99292659,0.887571667 11.1763076,1.68976742 13.4775583,3.70094851 C15.3097178,5.30209255 17.2322081,7.74556943 18.9046791,10.5890568 C20.6616245,13.5761424 21.8818356,16.4597432 22.3535684,18.8054297 C22.648899,20.273905 22.6910941,21.6015169 22.4954669,22.6394373 C22.3196786,23.5721012 21.9661796,24.1938212 21.5291129,24.4428598 C20.5990067,24.9728351 18.6099171,24.2840136 16.4647782,22.4671247 C14.4899726,20.7945108 12.4028063,18.2149433 10.675392,15.2781062 L10.6753961,15.2781132 Z" id="Combined-Shape"></path>
                                        </g>
                                    </g>
                                    <g id="xamarin" transform="translate(196.189737, 49.063246)">
                                        <g id="Oval-Copy-4">
                                            <g id="path-23-link" fill="#000000">
                                                <ellipse id="path-23" cx="31.5" cy="31.5" rx="31.5" ry="31.5"></ellipse>
                                            </g>
                                            <g id="path-23-link" stroke="#EBEBF2" fill="#FFFFFF">
                                                <ellipse id="path-23" cx="31.5" cy="31.5" rx="31.5" ry="31.5"></ellipse>
                                            </g>
                                        </g>
                                        <ellipse id="Oval" fill="#3498DB" cx="31.5" cy="31.5" rx="26.5" ry="26.5"></ellipse>
                                        <path d="M25.0196737,18 C24.1754172,18.0017961 23.3489851,18.4825816 22.9239808,19.2160362 L16.3137895,30.735908 C15.8954035,31.4713264 15.8954035,32.4325709 16.3137895,33.1679895 L22.9239808,44.6878611 C23.3490298,45.4213218 24.1754172,45.902236 25.0196737,45.9038973 L38.2400096,45.9038973 C39.0842664,45.9021014 39.9106533,45.4213218 40.3357023,44.6878611 L46.9458924,33.1679895 C47.3642782,32.4325709 47.3642349,31.4713264 46.9458924,30.735908 L40.3357023,19.2160362 C39.9106533,18.4825816 39.0842664,18.0016614 38.2400096,18 L25.0196737,18 L25.0196737,18 Z M25.1396489,24.7392644 C25.1578099,24.7374683 25.176858,24.7374683 25.1950755,24.7392644 L27.4753846,24.7392644 C27.5763236,24.7413599 27.6742348,24.7998835 27.7246418,24.8877856 L31.5929121,31.803426 C31.612383,31.8376181 31.6249289,31.875714 31.6296894,31.9148153 C31.634453,31.8757048 31.646987,31.8376062 31.6664668,31.803426 L35.5254785,24.8877856 C35.5774851,24.7972192 35.6799828,24.7383723 35.7839521,24.7392644 L38.064262,24.7392644 C38.2661859,24.7410605 38.4174018,24.9962144 38.3227782,25.175554 L34.5468803,31.9519502 L38.3227782,38.7190636 C38.426358,38.8994328 38.2714213,39.166417 38.064262,39.164633 L35.7839521,39.164633 C35.6781657,39.1637349 35.5750621,39.1008168 35.5254785,39.0068288 L31.6664668,32.0911885 C31.6469959,32.0569961 31.63445,32.0188975 31.6296894,31.9797989 C31.6249259,32.0189067 31.6123919,32.0570111 31.5929121,32.0911885 L27.7246418,39.0068288 C27.6765302,39.0981586 27.578098,39.160475 27.4753846,39.164633 L25.1950755,39.164633 C24.9879159,39.166429 24.8330211,38.8994328 24.9366009,38.7190636 L28.7124976,31.9519502 L24.9366009,25.175554 C24.8460881,25.0119274 24.9565184,24.77419 25.1396489,24.7392644 L25.1396489,24.7392644 L25.1396489,24.7392644 Z" id="Logo" fill="#FFFFFF"></path>
                                    </g>
                                    <g id="android" transform="translate(275.711814, 99.575529)">
                                        <g id="Oval-Copy-6">
                                            <g id="path-25-link" fill="#000000">
                                                <ellipse id="path-25" cx="55" cy="55" rx="55" ry="55"></ellipse>
                                            </g>
                                            <g id="path-25-link" stroke="#EBEBF2" fill="#FFFFFF">
                                                <ellipse id="path-25" cx="55" cy="55" rx="55" ry="55"></ellipse>
                                            </g>
                                        </g>
                                        <ellipse id="Oval-Copy" fill="#7ED321" cx="55" cy="55" rx="50" ry="50"></ellipse>
                                        <path d="M75.6516563,42.3185655 C73.7979253,42.3185655 72.2812363,43.8349003 72.2812363,45.6881984 L72.2812363,59.1667299 C72.2812363,61.0200279 73.7979253,62.5363627 75.6516563,62.5363627 C77.5053873,62.5363627 79.0220763,61.0200279 79.0220763,59.1667299 L79.0220763,45.6881984 C79.0220763,43.8349003 77.5053873,42.3185655 75.6516563,42.3185655 L75.6516563,42.3185655 Z M35.2066162,42.3185655 C33.3528852,42.3185655 31.8361962,43.8349003 31.8361962,45.6881984 L31.8361962,59.1667299 C31.8361962,61.0200279 33.3528852,62.5363627 35.2066162,62.5363627 C37.0603472,62.5363627 38.5770362,61.0200279 38.5770362,59.1667299 L38.5770362,45.6881984 C38.5770362,43.8349003 37.0603472,42.3185655 35.2066162,42.3185655 L35.2066162,42.3185655 Z M40.2622462,64.2211792 C40.2622462,67.01292 42.5254833,69.2756285 45.3178762,69.2756285 L47.0030862,69.2756285 L47.0030862,76.0148942 C47.0030862,77.8681923 48.5197752,79.3845271 50.3735063,79.3845271 C52.2272373,79.3845271 53.7439263,77.8681923 53.7439263,76.0148942 L53.7439263,69.2756285 L57.1143463,69.2756285 L57.1143463,76.0148942 C57.1143463,77.8681923 58.6310353,79.3845271 60.4847663,79.3845271 C62.3384973,79.3845271 63.8551863,77.8681923 63.8551863,76.0148942 L63.8551863,69.2756285 L65.5403963,69.2756285 C68.3327893,69.2756285 70.5960263,67.01292 70.5960263,64.2211792 L70.5960263,45.6881984 L40.2622462,45.6881984 L40.2622462,64.2211792 L40.2622462,64.2211792 Z M61.6745245,30.1828327 L63.8080004,26.087044 C63.9158538,25.8814964 63.8349638,25.6254043 63.6293681,25.5192608 C63.4237725,25.4131174 63.1676206,25.4923038 63.0614524,25.6978514 L60.8959575,29.8559783 C59.2006363,29.2005847 57.3570165,28.840034 55.4291363,28.840034 C53.501256,28.840034 51.6593215,29.2005847 49.962315,29.8559783 L47.7968202,25.6978514 C47.6906519,25.4923038 47.4345,25.4114326 47.2289044,25.5192608 C47.0233088,25.6270891 46.9424187,25.8814964 47.0502721,26.087044 L49.183748,30.1845175 C44.4112333,32.3444522 40.9548675,36.9018807 40.356618,42.3202503 L70.5033397,42.3202503 C69.9050902,36.9018807 66.4487245,32.3444522 61.6762097,30.1845175 L61.6745245,30.1828327 Z M48.6882962,39.7071 C47.338443,39.7071 46.2447417,38.6136542 46.2447417,37.2641162 C46.2447417,35.9145782 47.338443,34.8211324 48.6882962,34.8211324 C50.0381495,34.8211324 51.1318508,35.9145782 51.1318508,37.2641162 C51.1318508,38.6136542 50.0381495,39.7071 48.6882962,39.7071 L48.6882962,39.7071 Z M62.1699763,39.7071 C60.8201231,39.7071 59.7264218,38.6136542 59.7264218,37.2641162 C59.7264218,35.9145782 60.8201231,34.8211324 62.1699763,34.8211324 C63.5198295,34.8211324 64.6135308,35.9145782 64.6135308,37.2641162 C64.6135308,38.6136542 63.5198295,39.7071 62.1699763,39.7071 L62.1699763,39.7071 Z" id="Shape" fill="#FFFFFF"></path>
                                    </g>
                                </g>
                            </g>
                        </g>
                    </g>
                </g>
            </g>
        </g>
    </g>
</svg>