<?xml version="1.0" encoding="UTF-8" standalone="no"?>
<svg width="1000px" height="584px" viewBox="0 0 1000 584" version="1.1" xmlns="http://www.w3.org/2000/svg" xmlns:xlink="http://www.w3.org/1999/xlink">
    <!-- Generator: Sketch 39.1 (31720) - http://www.bohemiancoding.com/sketch -->
    <title>language-react-native-news</title>
    <desc>Created with Sketch.</desc>
    <defs></defs>
    <g id="Page-1" stroke="none" stroke-width="1" fill="none" fill-rule="evenodd">
        <g id="language-react-native-news">
            <g id="Group-2" transform="translate(140.000000, 92.000000)">
                <g id="Group-Copy" transform="translate(320.000000, 0.000000)">
                    <circle id="Oval-3" fill="#1C233F" cx="200" cy="200" r="200"></circle>
                    <path d="M187.882353,263 L236.117647,263 L236.117647,205.307692 L187.882353,205.307692 L187.882353,263 L187.882353,263 Z M130,263 L178.235294,263 L178.235294,138 L130,138 L130,263 L130,263 Z M245.764706,263 L294,263 L294,205.307692 L245.764706,205.307692 L245.764706,263 L245.764706,263 Z M187.882353,138 L187.882353,195.692308 L294,195.692308 L294,138 L187.882353,138 L187.882353,138 Z" id="Shape" fill="#FFFFFF"></path>
                </g>
                <g id="Group">
                    <circle id="Oval-3" fill="#39477F" cx="200" cy="200" r="200"></circle>
                    <g id="react" transform="translate(87.553648, 99.570815)" fill="#FFFFFF">
                        <ellipse id="Oval" cx="114.99338" cy="102.64573" rx="20.4912209" ry="20.6284084"></ellipse>
                        <path d="M114.99338,65.6382 C141.468772,65.6382 166.618849,69.395843 185.739021,76.0222855 C206.974142,83.3815877 219.927204,94.2621679 219.927204,102.64573 C219.927204,111.57586 205.93822,123.169306 183.224125,130.745535 C165.141147,136.776998 140.947142,140.064455 114.99338,140.064455 C87.7283004,140.064455 63.2613955,136.841057 45.3882082,130.690866 C34.1987415,126.840686 24.9581821,121.837037 18.6244487,116.376647 C12.9329813,111.469962 10.0595568,106.598403 10.0595568,102.64573 C10.0595568,94.2339686 22.5169975,83.5045189 43.2941461,76.2121013 C62.4223162,69.498953 88.1879574,65.6382 114.99338,65.6382 L114.99338,65.6382 L114.99338,65.6382 Z M114.99338,55.7695253 C87.1465669,55.7695253 60.301781,59.7919786 40.0669629,66.8935119 C15.7719695,75.4206315 0.256512981,88.7839153 0.256512981,102.64573 C0.256512981,116.962489 16.9126346,131.321939 42.2175591,140.029102 C61.2383871,146.574198 86.7340426,149.933129 114.99338,149.933129 C141.925684,149.933129 167.137505,146.507373 186.307315,140.113405 C212.614205,131.338807 229.730248,117.153794 229.730248,102.64573 C229.730248,88.7338087 213.714264,75.2803721 188.930025,66.6910782 C168.719617,59.6867942 142.501156,55.7695253 114.99338,55.7695253 L114.99338,55.7695253 L114.99338,55.7695253 Z" id="Shape"></path>
                        <path d="M82.9710241,84.2607555 C96.19723,61.1727197 111.995084,41.1172072 127.249131,27.7532287 C144.190433,12.9112954 160.024276,7.05088095 167.238413,11.2389226 C174.922964,15.700011 177.910912,33.6915509 173.082875,57.2842485 C169.239059,76.0671465 159.981321,98.8084172 147.015718,121.441932 C133.394862,145.219138 118.398328,164.945356 104.176747,177.459777 C95.2736644,185.294427 86.3517026,190.853118 78.4888209,193.648659 C71.423304,196.160708 65.7957241,196.232803 62.3941945,194.258124 C55.1559149,190.055754 52.1466161,173.832117 56.2512392,152.069906 C60.0298989,132.035595 69.5793363,107.637862 82.9710331,84.2607394 L82.9710241,84.2607555 L82.9710241,84.2607555 Z M74.4789217,79.3306358 C60.5669615,103.615952 50.6175402,129.035598 46.6202662,150.228995 C41.8207073,175.675672 45.5687304,195.881895 57.4968761,202.807089 C69.8170961,209.959305 90.4943485,202.607789 110.628435,184.889935 C125.763153,171.571991 141.390267,151.016317 155.507842,126.372015 C168.962278,102.885162 178.609464,79.1872312 182.684288,59.2755056 C188.276028,31.9508981 184.620148,9.9374972 172.135595,2.68987872 C160.164298,-4.25984932 140.586437,2.98629902 120.813655,20.308836 C104.689812,34.4348376 88.220878,55.3422919 74.4789307,79.3306197 L74.4789217,79.3306358 L74.4789217,79.3306358 Z" id="Shape"></path>
                        <path d="M83.0016656,121.495652 C69.7372973,98.4297142 60.3670974,74.6353194 56.4841984,54.6571571 C52.1717185,32.4694051 55.0359624,15.7326896 62.2432138,11.5325126 C69.9203924,7.05820783 86.896274,13.4374835 104.788597,29.4309346 C119.033716,42.1636613 133.981162,61.5948444 146.984696,84.2070185 C160.645022,107.961124 170.132216,130.89229 173.799959,149.545818 C176.096167,161.223528 176.424236,171.781053 174.903226,180.034875 C173.536465,187.451668 170.787995,192.395752 167.389782,194.376173 C160.158166,198.590679 144.692908,193.112986 128.014361,178.664598 C112.660162,165.363524 96.4323544,144.850112 83.0016337,121.495596 L83.0016656,121.495652 L83.0016656,121.495652 Z M74.5177594,126.440052 C88.4702225,150.701819 105.377687,172.074378 121.620158,186.144947 C141.122536,203.039579 160.384305,209.861971 172.301227,202.916921 C184.609406,195.74392 188.609261,174.038535 183.416417,147.629549 C179.513174,127.778305 169.62707,103.882948 155.468608,79.2626291 C141.974821,55.7979414 126.398546,35.5493012 111.297363,22.0513985 C90.5748854,3.52815041 69.8041091,-4.27718841 57.331754,2.99177356 C45.3718579,9.96165374 41.8303245,30.6559943 46.8635798,56.5521429 C50.9678773,77.6694364 60.736122,102.474614 74.5177275,126.439996 L74.5177594,126.440052 L74.5177594,126.440052 Z" id="Shape"></path>
                    </g>
                </g>
            </g>
        </g>
    </g>
</svg>