<?xml version="1.0" encoding="UTF-8"?>
<svg width="399px" height="157px" viewBox="0 0 399 157" version="1.1" xmlns="http://www.w3.org/2000/svg" xmlns:xlink="http://www.w3.org/1999/xlink">
    <!-- Generator: Sketch 41.2 (35397) - http://www.bohemiancoding.com/sketch -->
    <title>Offline-First</title>
    <desc>Created with Sketch.</desc>
    <defs>
        <rect id="path-1" x="0" y="0.570178576" width="131" height="148.429821" rx="8"></rect>
        <filter x="-50%" y="-50%" width="200%" height="200%" filterUnits="objectBoundingBox" id="filter-2">
            <feOffset dx="0" dy="2" in="SourceAlpha" result="shadowOffsetOuter1"></feOffset>
            <feGaussianBlur stdDeviation="2" in="shadowOffsetOuter1" result="shadowBlurOuter1"></feGaussianBlur>
            <feColorMatrix values="0 0 0 0 0   0 0 0 0 0   0 0 0 0 0  0 0 0 0.203804348 0" type="matrix" in="shadowBlurOuter1"></feColorMatrix>
        </filter>
        <linearGradient x1="50%" y1="0%" x2="50%" y2="100%" id="linearGradient-3">
            <stop stop-color="#FCC397" offset="0%"></stop>
            <stop stop-color="#FC9F95" offset="16.0654496%"></stop>
            <stop stop-color="#F77C88" offset="30.0482302%"></stop>
            <stop stop-color="#F25192" offset="42.703683%"></stop>
            <stop stop-color="#D34CA3" offset="56.3317124%"></stop>
            <stop stop-color="#9A50A5" offset="69.1147162%"></stop>
            <stop stop-color="#59569E" offset="83.848852%"></stop>
            <stop stop-color="#39477F" offset="100%"></stop>
        </linearGradient>
        <linearGradient x1="0%" y1="0%" x2="96.2591493%" y2="0%" id="linearGradient-4">
            <stop stop-color="#FFFFFF" offset="0%"></stop>
            <stop stop-color="#9A9BA5" offset="100%"></stop>
        </linearGradient>
    </defs>
    <g id="Page-1" stroke="none" stroke-width="1" fill="none" fill-rule="evenodd">
        <g id="Offline-First" transform="translate(-13.000000, -7.000000)">
            <g transform="translate(13.000000, 9.000000)">
                <g id="Group-4" transform="translate(264.000000, 0.000000)">
                    <g id="Server">
                        <g id="Rectangle">
                            <use fill="black" fill-opacity="1" filter="url(#filter-2)" xlink:href="#path-1"></use>
                            <use fill="#FFFFFF" fill-rule="evenodd" xlink:href="#path-1"></use>
                        </g>
                        <polygon id="Combined-Shape-path" stroke="#1C233F" stroke-width="2" fill-opacity="0.190500453" fill="#D8D8D8" points="131 21.11 131 40.22 1 40.22 1 21.11"></polygon>
                        <path d="M6.91294984,2 L125.087051,2 C128.352682,2 131,4.63709995 131,7.87652736 L131,21.11 L1,21.11 L1,7.87652736 C1,4.63101092 3.64092309,2 6.91294984,2 Z" id="Combined-Shape-path" stroke="#1C233F" stroke-width="2" fill="#D8D8D8"></path>
                        <path d="M6.91294984,2 L125.087051,2 C128.352682,2 131,4.62955685 131,7.87606555 L131,143.123934 C131,146.369196 128.359077,149 125.087051,149 L6.91294984,149 C3.64731782,149 1,146.370443 1,143.123934 L1,7.87606555 C1,4.63080416 3.64092309,2 6.91294984,2 Z M120.363636,30.224 L120.363636,30.812 L24.6363636,30.812 L24.6363636,30.224 L120.363636,30.224 Z M120.363636,10.82 L120.363636,11.408 L24.6363636,11.408 L24.6363636,10.82 L120.363636,10.82 Z M16.3636364,11.408 C16.3636364,10.4337697 15.5699593,9.644 14.5909091,9.644 C13.6118588,9.644 12.8181819,10.4337697 12.8181819,11.408 C12.8181819,12.3822303 13.6118588,13.172 14.5909091,13.172 C15.5699593,13.172 16.3636364,12.3822303 16.3636364,11.408 Z M16.3636364,30.812 C16.3636364,29.8377697 15.5699593,29.048 14.5909091,29.048 C13.6118588,29.048 12.8181819,29.8377697 12.8181819,30.812 C12.8181819,31.7862303 13.6118588,32.576 14.5909091,32.576 C15.5699593,32.576 16.3636364,31.7862303 16.3636364,30.812 Z" id="Combined-Shape" stroke="#1C233F" stroke-width="2"></path>
                    </g>
                    <g id="ROS" transform="translate(53.000000, 82.000000)" fill="url(#linearGradient-3)">
                        <path d="M10.9489015,11.5115539 C9.12118278,12.6710476 7.15530064,13.6220342 5.18899076,14.3757465 C4.50110837,14.6394209 3.8634536,14.859211 3.29318397,15.0368931 C2.95620656,15.1418872 2.72040076,15.2085921 2.60286539,15.2388894 C2.20894536,15.3620898 1.94704106,15.4581541 1.75138145,15.5486619 C1.61047089,15.6138441 1.491948,15.6802621 1.37938712,15.7670429 C0.988940111,16.0680647 0.728821522,16.4834515 0.97416465,17.1236601 C1.17452301,17.6464838 1.51054684,17.8044815 1.92946141,17.8742879 C2.0582821,17.8957541 2.18807556,17.9013892 2.33581418,17.8977679 C2.55434374,17.8924113 2.83484135,17.8645307 3.17982685,17.8155973 L22.1668096,15.1487136 C15.501735,18.9255588 2.17590973,26.4862125 2.17590973,26.4862125 C-0.0206667672,27.7324809 0.686089168,29.7572993 3.17982685,29.4035823 L21.4387847,26.8370549 C19.4786094,27.9466603 17.5381572,29.1702574 15.7059349,30.4900779 C11.8244885,33.2860336 8.86271634,36.1972566 7.18332672,39.1962837 L9.18507194,40.2945132 C10.6724966,37.6382942 13.4169313,34.9406994 17.0526411,32.3217572 C19.1026907,30.8450271 21.3048205,29.4868287 23.5073772,28.2804504 C24.2783186,27.8581924 24.9936029,27.4854147 25.634412,27.1660374 C26.0159813,26.9758645 26.2857706,26.8467248 26.4250105,26.7824785 C28.7247956,25.6137833 28.059707,23.5860485 25.537381,23.9438207 L6.51427576,26.6353057 C6.5147567,26.6356345 26.5412981,15.2732054 26.5412981,15.2732054 C28.7201157,14.0370129 28.0567376,11.9984847 25.537381,12.3558357 L10.4019035,14.4713344 C10.3957084,14.4719568 11.5984166,13.7902313 12.1838739,13.4188207 C17.1682375,10.2567705 20.473484,6.15669568 21.2270416,1.0032685 L18.9619701,0.678767901 C18.3178995,5.0834354 15.4250995,8.67188075 10.9489015,11.5115539 Z" id="Path-12-Copy-2"></path>
                    </g>
                    <path d="M100.99642,64.3289553 L100.99642,64.0047763 C100.998804,63.9492502 101,63.8936292 101,63.837916 C101,57.460375 85.3299663,52.2903565 65.9999999,52.2903565 C46.6700337,52.2903565 31,57.460375 31,63.837916 C31,63.8388118 31.0000003,63.8397074 31.0000009,63.8406029 L31.0002471,119.272648 C31.2498756,125.647226 46.9158626,130.813762 66.2393163,130.813762 C85.5692825,130.813762 101.239316,125.643743 100.99642,119.266202 C101.000143,119.168471 101.000128,119.071023 100.99642,118.973873 L100.99642,118.973855 L100.99642,64.3555222 C100.233626,70.8827874 85.0906894,75.8585082 65.9999999,75.8585082 C46.4077575,75.8585082 31.0176011,70.6179074 31.0176011,63.837916 C31.0176011,69.8130068 44.4184895,75.8585079 65.9999995,75.8585079 C86.990352,75.8585079 100.2839,70.1396658 100.99642,64.3289553 Z" id="Server-Copy-2" stroke="#1C233F" stroke-width="2"></path>
                </g>
                <g id="Arrows" transform="translate(118.000000, 48.000000)" stroke-width="2">
                    <g id="Group" transform="translate(0.000000, 50.000000)">
                        <path d="M0,1 C0,1 53.0087335,29.5 114.504367,1" id="Path-2" stroke="url(#linearGradient-4)" stroke-dasharray="6"></path>
                        <polyline id="Path-3" stroke="#9A9BA5" points="106 0 111.5 2 110 8"></polyline>
                    </g>
                    <g id="Group-Copy" transform="translate(57.500000, 7.000000) rotate(-180.000000) translate(-57.500000, -7.000000) translate(0.000000, 0.000000)">
                        <path d="M0,1 C0,1 53.0087335,29.5 114.504367,1" id="Path-2" stroke="url(#linearGradient-4)" stroke-dasharray="6"></path>
                        <polyline id="Path-3" stroke="#9A9BA5" points="106 1.77635684e-15 111.5 2 110 8"></polyline>
                    </g>
                </g>
                <g id="Group-5" transform="translate(0.000000, 2.000000)">
                    <g id="Phone" stroke="#9A9BA5" stroke-width="2">
                        <path d="M86.2160963,12.0047442 C86.2160963,5.37812541 80.7622662,0 74.0423683,0 L13.173728,0 C6.45383016,0 1,5.37812541 1,12.0047442 L1,132.052186 C1,138.678805 6.45383016,144.056931 13.173728,144.056931 L74.0423683,144.056931 C80.7622662,144.056931 86.2160963,138.678805 86.2160963,132.052186 L86.2160963,12.0047442 Z M34.4777521,12.0047442 L52.7383442,12.0047442 C54.4183187,12.0047442 55.7817762,13.3492756 55.7817762,15.0059303 C55.7817762,16.662585 54.4183187,18.0071163 52.7383442,18.0071163 L34.4777521,18.0071163 C32.7977777,18.0071163 31.4343201,16.662585 31.4343201,15.0059303 C31.4343201,13.3492756 32.7977777,12.0047442 34.4777521,12.0047442 Z M43.6080482,132.052186 C40.2420124,132.052186 37.5211841,129.363124 37.5211841,126.049814 C37.5211841,122.736505 40.2420124,120.047442 43.6080482,120.047442 C46.9679971,120.047442 49.6888253,122.736505 49.6888253,126.049814 C49.6888253,129.363124 46.9679971,132.052186 43.6080482,132.052186 Z M74.0423683,114.04507 L13.173728,114.04507 L13.173728,29.8678036 L74.0423683,29.8678036 L74.0423683,114.04507 Z" id="Shape"></path>
                    </g>
                    <g id="ROS-Copy" transform="translate(50.000000, 90.000000)" fill="url(#linearGradient-3)">
                        <path d="M3.92980594,4.26571766 C3.37898659,4.61922184 2.78652896,4.90915676 2.19394242,5.13894712 C1.9866354,5.21933563 1.79446547,5.28634482 1.62260339,5.3405162 C1.52104855,5.37252658 1.44998379,5.39286344 1.41456217,5.40210044 C1.29584655,5.43966153 1.21691648,5.46894943 1.15795058,5.49654327 C1.11548438,5.51641587 1.07976515,5.53666526 1.04584269,5.56312283 C0.928173732,5.65489778 0.849781829,5.78154009 0.923720853,5.97672563 C0.984102825,6.13612309 1.08537028,6.18429314 1.21161851,6.20557557 C1.25044118,6.21212016 1.28955702,6.21383819 1.33408099,6.21273413 C1.39993921,6.21110099 1.48447274,6.20260083 1.58844097,6.18768209 L7.31054535,5.37460779 C5.30189275,6.52608499 1.2858906,8.83116235 1.2858906,8.83116235 C0.623908645,9.21112222 0.836903585,9.82844491 1.58844097,9.72060435 L7.09114059,8.93812649 C6.50040284,9.27642084 5.91560901,9.64946872 5.36343244,10.051853 C4.19368148,10.9042785 3.30109259,11.7918465 2.79497518,12.7061841 L3.39824086,13.0410101 C3.84650582,12.2311872 4.67359572,11.4087498 5.76928909,10.6102918 C6.38711228,10.1600692 7.05076781,9.74598436 7.71455204,9.37818609 C7.94689052,9.2494489 8.16245566,9.13579718 8.35557622,9.03842604 C8.4705697,8.9804465 8.55187606,8.94107464 8.59383879,8.92148736 C9.2869247,8.56517784 9.08648704,7.94696602 8.326334,8.05604289 L2.59334338,8.8766176 C2.59348832,8.87671785 8.62888436,5.41256263 8.62888436,5.41256263 C9.28551432,5.03567467 9.08559214,4.41417217 8.326334,4.52312063 L3.76495721,5.16808977 C3.7630902,5.16827952 4.1255502,4.96043639 4.3019894,4.84720143 C5.80412637,3.88316174 6.80022805,2.63313893 7.02732759,1.0619721 L6.34470332,0.963038994 C6.15059986,2.30592543 5.27879712,3.39996364 3.92980594,4.26571766 Z" id="Path-12-Copy-2"></path>
                    </g>
                    <g id="Arrows-Copy" opacity="0.377094656" transform="translate(44.800829, 69.657063) rotate(-285.000000) translate(-44.800829, -69.657063) translate(36.300829, 61.657063)" stroke="#08293D">
                        <g id="Group" transform="translate(0.668710, 10.976270)">
                            <path d="M2.93098879e-14,2.15935216 C2.93098879e-14,2.15935216 6.98067621,6.70088872 15.0789852,2.15935216" id="Path-2" stroke-dasharray="1"></path>
                            <polyline id="Path-3" points="13.0090446 0.275460754 15.7075539 1.55226824 15.0451682 4.7583812"></polyline>
                        </g>
                        <g id="Group-Copy-2" transform="translate(8.359123, 3.040554) rotate(-180.000000) translate(-8.359123, -3.040554) translate(0.359123, 0.540554)">
                            <path d="M2.93098879e-14,2.15935216 C2.93098879e-14,2.15935216 6.98067621,6.70088872 15.0789852,2.15935216" id="Path-2" stroke-dasharray="1"></path>
                            <polyline id="Path-3" points="13.0090446 0.275460754 15.7075539 1.55226824 15.0451682 4.7583812"></polyline>
                        </g>
                    </g>
                    <g id="Group-2" transform="translate(19.000000, 36.000000)" fill="#59569E">
                        <rect id="Rectangle-2" fill-opacity="0.15" x="0" y="0" width="23" height="23" rx="4"></rect>
                        <path d="M6.644,8.62696296 L7.428,8.62696296 L9.516,13.962963 L8.66,13.962963 L8.108,12.474963 L5.916,12.474963 L5.364,13.962963 L4.556,13.962963 L6.644,8.62696296 Z M7.876,11.826963 L7.012,9.48296296 L6.14,11.826963 L7.876,11.826963 Z M10.82,13.154963 C10.9053338,13.2242966 11.0279992,13.2909626 11.188,13.354963 C11.3480008,13.4189633 11.5479988,13.450963 11.788,13.450963 C11.9693342,13.450963 12.1359992,13.41763 12.288,13.350963 C12.4400008,13.284296 12.5706661,13.1909636 12.68,13.070963 C12.7893339,12.9509624 12.873333,12.8109638 12.932,12.650963 C12.990667,12.4909622 13.02,12.3149639 13.02,12.122963 C13.02,11.9416287 13.0000002,11.7709638 12.96,11.610963 C12.9199998,11.4509622 12.8560004,11.3096302 12.768,11.186963 C12.6799996,11.0642957 12.5666674,10.9669633 12.428,10.894963 C12.2893326,10.8229626 12.1186677,10.786963 11.916,10.786963 C11.6599987,10.786963 11.4413342,10.8576289 11.26,10.998963 C11.0786658,11.140297 10.950667,11.3469616 10.876,11.618963 C10.8493332,11.7042967 10.8333334,11.7962958 10.828,11.894963 C10.8226666,11.9936301 10.82,12.0962958 10.82,12.202963 L10.82,13.154963 Z M10.108,15.562963 L10.108,10.478963 C10.108,10.428296 10.1053334,10.3496302 10.1,10.242963 L10.788,10.242963 L10.812,10.770963 C10.8493335,10.7229627 10.9026663,10.6642966 10.972,10.594963 C11.0413337,10.5256293 11.1279995,10.4589633 11.232,10.394963 C11.3360005,10.3309626 11.4573326,10.2762965 11.596,10.230963 C11.7346674,10.1856294 11.8946658,10.162963 12.076,10.162963 C12.3640014,10.162963 12.6133323,10.2162958 12.824,10.322963 C13.0346677,10.4296302 13.2093326,10.5736287 13.348,10.754963 C13.4866674,10.9362972 13.589333,11.1442951 13.656,11.378963 C13.722667,11.6136308 13.756,11.8616283 13.756,12.122963 C13.756,12.4589646 13.6986672,12.7496284 13.584,12.994963 C13.4693328,13.2402975 13.3200009,13.4429622 13.136,13.602963 C12.9519991,13.7629638 12.7466678,13.8816292 12.52,13.958963 C12.2933322,14.0362967 12.0706678,14.074963 11.852,14.074963 C11.6013321,14.074963 11.4000008,14.0496299 11.248,13.998963 C11.0959992,13.948296 10.953334,13.8936299 10.82,13.834963 L10.82,15.562963 L10.108,15.562963 Z M15.284,13.154963 C15.3693338,13.2242966 15.4919992,13.2909626 15.652,13.354963 C15.8120008,13.4189633 16.0119988,13.450963 16.252,13.450963 C16.4333342,13.450963 16.5999992,13.41763 16.752,13.350963 C16.9040008,13.284296 17.0346661,13.1909636 17.144,13.070963 C17.2533339,12.9509624 17.337333,12.8109638 17.396,12.650963 C17.454667,12.4909622 17.484,12.3149639 17.484,12.122963 C17.484,11.9416287 17.4640002,11.7709638 17.424,11.610963 C17.3839998,11.4509622 17.3200004,11.3096302 17.232,11.186963 C17.1439996,11.0642957 17.0306674,10.9669633 16.892,10.894963 C16.7533326,10.8229626 16.5826677,10.786963 16.38,10.786963 C16.1239987,10.786963 15.9053342,10.8576289 15.724,10.998963 C15.5426658,11.140297 15.414667,11.3469616 15.34,11.618963 C15.3133332,11.7042967 15.2973334,11.7962958 15.292,11.894963 C15.2866666,11.9936301 15.284,12.0962958 15.284,12.202963 L15.284,13.154963 Z M14.572,15.562963 L14.572,10.478963 C14.572,10.428296 14.5693334,10.3496302 14.564,10.242963 L15.252,10.242963 L15.276,10.770963 C15.3133335,10.7229627 15.3666663,10.6642966 15.436,10.594963 C15.5053337,10.5256293 15.5919995,10.4589633 15.696,10.394963 C15.8000005,10.3309626 15.9213326,10.2762965 16.06,10.230963 C16.1986674,10.1856294 16.3586658,10.162963 16.54,10.162963 C16.8280014,10.162963 17.0773323,10.2162958 17.288,10.322963 C17.4986677,10.4296302 17.6733326,10.5736287 17.812,10.754963 C17.9506674,10.9362972 18.053333,11.1442951 18.12,11.378963 C18.186667,11.6136308 18.22,11.8616283 18.22,12.122963 C18.22,12.4589646 18.1626672,12.7496284 18.048,12.994963 C17.9333328,13.2402975 17.7840009,13.4429622 17.6,13.602963 C17.4159991,13.7629638 17.2106678,13.8816292 16.984,13.958963 C16.7573322,14.0362967 16.5346678,14.074963 16.316,14.074963 C16.0653321,14.074963 15.8640008,14.0496299 15.712,13.998963 C15.5599992,13.948296 15.417334,13.8936299 15.284,13.834963 L15.284,15.562963 L14.572,15.562963 Z" id="App"></path>
                    </g>
                </g>
                <path d="M65.9988791,87.0600639 L65.9988791,86.9585521 C65.9996255,86.9411649 66,86.9237481 66,86.9063023 C66,84.9092706 61.093163,83.2903565 55.0402727,83.2903565 C48.9873824,83.2903565 44.0805454,84.9092706 44.0805454,86.9063023 C44.0805454,86.9065828 44.0805455,86.9068633 44.0805457,86.9071437 L44.0806228,104.264861 C44.1587902,106.260965 49.0643601,107.878788 55.115211,107.878788 C61.1681013,107.878788 66.0749383,106.259874 65.9988791,104.262842 C66.0000447,104.232239 66.0000401,104.201725 65.9988791,104.171304 L65.9988791,104.171298 L65.9988791,87.068383 C65.7600214,89.1122986 61.018237,90.6703713 55.0402727,90.6703713 C48.9052546,90.6703713 44.0860569,89.0293554 44.0860569,86.9063023 C44.0860569,88.7773127 48.282345,90.6703712 55.0402726,90.6703712 C61.613088,90.6703712 65.7757639,88.8796011 65.9988791,87.0600639 Z" id="Server" stroke="#1C233F" stroke-width="2"></path>
                <g id="offline" transform="translate(160.000000, 27.000000)">
                    <g id="Group-3" transform="translate(7.000000, 15.000000)" fill="#FFFFFF">
                        <rect id="Rectangle-3" x="8" y="66" width="9" height="6" rx="3"></rect>
                        <polygon id="Path-5" points="5 0.5 0.5 11 14 10 19.5 0"></polygon>
                    </g>
                    <polyline id="Path-4" stroke="#9A9BA5" stroke-width="2" points="17.4742699 0.392392254 0.5 40.245026 17.4742699 62.385378 4.92807041 101.5"></polyline>
                    <polyline id="Path-4-Copy" stroke="#9A9BA5" stroke-width="2" points="32.2345046 0.392392254 15.2602347 40.245026 32.2345046 62.385378 19.6883051 101.5"></polyline>
                </g>
            </g>
        </g>
    </g>
</svg>