<?xml version="1.0" encoding="UTF-8" standalone="no"?>
<svg width="40px" height="40px" viewBox="0 0 40 40" version="1.1" xmlns="http://www.w3.org/2000/svg" xmlns:xlink="http://www.w3.org/1999/xlink">
    <!-- Generator: Sketch 3.7 (28169) - http://www.bohemiancoding.com/sketch -->
    <title>Group 4</title>
    <desc>Created with Sketch.</desc>
    <defs></defs>
    <g id="Page-1" stroke="none" stroke-width="1" fill="none" fill-rule="evenodd">
        <g id="Group-2-Copy" transform="translate(-80.000000, 0.000000)" fill="#FFFFFF">
            <g id="Group-4" transform="translate(80.000000, 0.000000)">
                <g id="iconmonstr-android-os-1" transform="translate(11.000000, 10.000000)">
                    <path d="M3.5,7 L3.500875,15.2635 C3.500875,16.016875 4.109875,16.625 4.86325,16.625 L5.25,16.625 L5.25,19.72425 C5.25,20.42775 5.868625,21 6.57125,21 C7.2765,21 7.875,20.42775 7.875,19.723375 L7.875,16.625 L9.625,16.625 L9.625,19.72425 C9.625,20.42775 10.243625,21 10.947125,21 C11.652375,21 12.25,20.42775 12.25,19.723375 L12.25,16.625 L12.6385,16.624125 C13.38925,16.624125 14,16.015125 14,15.26175 L14,7 L3.5,7 L3.5,7 Z M17.5,8.287125 C17.5,7.58275 16.891875,7 16.1875,7 C15.483125,6.999125 14.875,7.583625 14.875,8.288 L14.875,13.63075 C14.875,14.336 15.48225,14.875 16.1875,14.875 C16.891875,14.875 17.5,14.336875 17.5,13.63075 L17.5,8.287125 L17.5,8.287125 Z M2.625,8.287125 C2.625,7.58275 2.016875,7 1.3125,7 C0.608125,6.999125 0,7.583625 0,8.288 L0,13.63075 C0,14.336 0.60725,14.875 1.3125,14.875 C2.016875,14.875 2.625,14.336875 2.625,13.63075 L2.625,8.287125 L2.625,8.287125 Z M11.332125,1.889125 L12.154625,0.2625 C12.214125,0.147 12.138,5.04804532e-16 12.012,5.04804532e-16 C11.95425,5.04804532e-16 11.89825,0.03325 11.8685,0.091875 L11.038125,1.735125 C9.6985,1.09025 7.937125,1.024625 6.46275,1.735125 L5.6315,0.091875 C5.602625,0.03325 5.546625,4.4408921e-16 5.488,4.4408921e-16 C5.362,4.4408921e-16 5.285875,0.147 5.345375,0.2625 L6.167875,1.889125 C4.5535,2.793875 3.5,4.150125 3.5,6.124125 L14,6.124125 C14,4.150125 12.9465,2.793875 11.332125,1.889125 L11.332125,1.889125 Z M6.563375,4.375 C6.321875,4.375 6.125,4.179 6.125,3.9375 C6.125,3.69775 6.321875,3.5 6.563375,3.5 C6.804875,3.5 7,3.69775 7,3.9375 C7,4.179 6.804875,4.375 6.563375,4.375 L6.563375,4.375 Z M10.936625,4.375 C10.695125,4.375 10.5,4.179 10.5,3.9375 C10.5,3.69775 10.695125,3.5 10.936625,3.5 C11.178125,3.5 11.375,3.69775 11.375,3.9375 C11.375,4.179 11.178125,4.375 10.936625,4.375 L10.936625,4.375 Z" id="Shape"></path>
                </g>
            </g>
        </g>
    </g>
</svg>