<?xml version="1.0" encoding="UTF-8" standalone="no"?>
<svg width="40px" height="40px" viewBox="0 0 40 40" version="1.1" xmlns="http://www.w3.org/2000/svg" xmlns:xlink="http://www.w3.org/1999/xlink">
    <!-- Generator: Sketch 3.8.1 (29687) - http://www.bohemiancoding.com/sketch -->
    <title>Slice 1</title>
    <desc>Created with Sketch.</desc>
    <defs></defs>
    <g id="Page-1" stroke="none" stroke-width="1" fill="none" fill-rule="evenodd">
        <g id="objc" transform="translate(11.000000, 14.000000)" fill="#FFFFFF">
            <g id="Page-1">
                <path d="M0.065,0.41 L3.83,0.41 L3.83,2.165 L2.075,2.165 L2.075,10.625 L3.83,10.625 L3.83,12.395 L0.065,12.395 L0.065,0.41 Z M13.7,9.155 C13.4899989,9.44500145 13.2350015,9.71749872 12.935,9.9725 C12.6349985,10.2275013 12.3025018,10.4499991 11.9375,10.64 C11.5724982,10.8300009 11.1775021,10.9799994 10.7525,11.09 C10.3274979,11.2000006 9.8850023,11.255 9.425,11.255 C8.6649962,11.255 7.97000315,11.1250013 7.34,10.865 C6.70999685,10.6049987 6.16750228,10.2425023 5.7125,9.7775 C5.25749772,9.31249767 4.90500125,8.76250317 4.655,8.1275 C4.40499875,7.49249682 4.28,6.7950038 4.28,6.035 C4.28,5.2949963 4.40499875,4.60250322 4.655,3.9575 C4.90500125,3.31249677 5.25749772,2.75250237 5.7125,2.2775 C6.16750228,1.80249762 6.71249683,1.42750137 7.3475,1.1525 C7.98250318,0.877498625 8.68499615,0.74 9.455,0.74 C10.3850046,0.74 11.1974965,0.9099983 11.8925,1.25 C12.5875035,1.5900017 13.1649977,2.0799968 13.625,2.72 L12.08,4.205 C11.7799985,3.7849979 11.4250021,3.44750127 11.015,3.1925 C10.6049979,2.93749872 10.1150028,2.81 9.545,2.81 C9.09499775,2.81 8.6900018,2.89249918 8.33,3.0575 C7.9699982,3.22250083 7.66500125,3.44999855 7.415,3.74 C7.16499875,4.03000145 6.97250068,4.36749808 6.8375,4.7525 C6.70249933,5.13750193 6.635,5.54499785 6.635,5.975 C6.635,6.4150022 6.70249933,6.8249981 6.8375,7.205 C6.97250068,7.5850019 7.16499875,7.9149986 7.415,8.195 C7.66500125,8.4750014 7.96499825,8.6949992 8.315,8.855 C8.66500175,9.0150008 9.0599978,9.095 9.5,9.095 C9.8600018,9.095 10.1724987,9.05750038 10.4375,8.9825 C10.7025013,8.90749962 10.937499,8.80750062 11.1425,8.6825 C11.347501,8.55749937 11.5299992,8.41250083 11.69,8.2475 C11.8500008,8.08249918 12.0049993,7.91500085 12.155,7.745 L13.7,9.155 Z M14.225,10.625 L15.98,10.625 L15.98,2.165 L14.225,2.165 L14.225,0.41 L17.99,0.41 L17.99,12.395 L14.225,12.395 L14.225,10.625 Z" id="[C]"></path>
            </g>
        </g>
    </g>
</svg>