<?xml version="1.0" encoding="UTF-8" standalone="no"?>
<svg width="50px" height="50px" viewBox="0 0 50 50" version="1.1" xmlns="http://www.w3.org/2000/svg" xmlns:xlink="http://www.w3.org/1999/xlink">
    <!-- Generator: Sketch 40.1 (33804) - http://www.bohemiancoding.com/sketch -->
    <title>JavaScript</title>
    <g id="JavaScript" fill="#FFFFFF">
               <g transform="translate(4.000000, 6.000000)">
                   <ellipse id="Oval" cx="20.9948735" cy="18.9338603" rx="3.741177" ry="3.80508184"></ellipse>
                   <path d="M20.9948735,12.107513 C25.8286083,12.107513 30.4203741,12.8006415 33.9112324,14.0229441 C37.7882267,15.3804287 40.1531272,17.3874424 40.1531272,18.9338603 C40.1531272,20.5810972 37.5990938,22.719605 33.4520763,24.1171035 C30.1505832,25.229657 25.7333719,25.8360559 20.9948735,25.8360559 C16.0169617,25.8360559 11.5499257,25.2414732 8.28673517,24.1070193 C6.24382246,23.3968215 4.55673078,22.4738568 3.40035176,21.4666423 C2.36123423,20.5615634 1.83661983,19.6629638 1.83661983,18.9338603 C1.83661983,17.3822408 4.11103242,15.4031044 7.90441257,14.0579572 C11.3967311,12.819661 16.1008834,12.107513 20.9948735,12.107513 L20.9948735,12.107513 L20.9948735,12.107513 Z M20.9948735,10.2871537 C15.9107519,10.2871537 11.0095752,11.0291287 7.31521079,12.3390657 C2.87956144,13.911964 0.0468327617,16.376933 0.0468327617,18.9338603 C0.0468327617,21.5747059 3.08781796,24.2234261 7.70785509,25.8295348 C11.1805757,27.0368323 15.8354355,27.6564152 20.9948735,27.6564152 C25.9120288,27.6564152 30.5150675,27.0245058 34.0149885,25.8450851 C38.8179591,24.2265375 41.9429143,21.6099937 41.9429143,18.9338603 C41.9429143,16.3676905 39.0188019,13.886092 34.4938288,12.3017251 C30.8039211,11.0097266 26.0170953,10.2871537 20.9948735,10.2871537 L20.9948735,10.2871537 L20.9948735,10.2871537 Z" id="Shape"></path>
                   <path d="M15.1484038,15.5425985 C17.5631734,11.2838179 20.4474606,7.58441151 23.2324626,5.11931431 C26.3255144,2.38159603 29.2163724,1.30059375 30.5334908,2.07311294 C31.9364949,2.89599787 32.4820185,6.21468732 31.6005413,10.566557 C30.8987581,14.0312191 29.2085299,18.2260359 26.8413398,22.4009763 C24.3545172,26.7868801 21.6165306,30.4255454 19.0200307,32.7339347 C17.3945537,34.1791011 15.7656299,35.2044481 14.3300672,35.7201089 C13.0400831,36.1834772 12.0126298,36.1967758 11.3915968,35.8325298 C10.0700706,35.0573676 9.52064898,32.0647827 10.270049,28.0505614 C10.9599364,24.3550657 12.7034214,19.8547006 15.1484054,15.5425956 L15.1484038,15.5425985 L15.1484038,15.5425985 Z M13.5979613,14.6331969 C11.0579904,19.1128259 9.24147852,23.8016913 8.5116777,27.7109901 C7.63540004,32.4048416 8.31969395,36.132048 10.4974707,37.4094575 C12.7468303,38.7287435 16.5219719,37.3726951 20.1979453,34.1044893 C22.9611607,31.6478834 25.8142752,27.8562182 28.3917861,23.3103712 C30.8482249,18.9780255 32.6095562,14.6067447 33.3535157,10.933861 C34.3744255,5.89360941 33.7069546,1.83305417 31.427592,0.496170546 C29.2419369,-0.785764705 25.6675163,0.550847741 22.057508,3.74613404 C19.1137033,6.35179275 16.1068939,10.2083469 13.597963,14.6331939 L13.5979613,14.6331969 L13.5979613,14.6331969 Z" id="Shape"></path>
                   <path d="M15.1539981,22.4108855 C12.732261,18.156181 11.0215003,13.7671066 10.3125814,10.0819681 C9.52523203,5.98925234 10.0481703,2.9020257 11.3640315,2.12726806 C12.7656896,1.30194525 15.8650548,2.47865582 19.131739,5.42878115 C21.7325364,7.77743869 24.4615606,11.3616823 26.835676,15.5326863 C29.329705,19.9143289 31.0618259,24.1441737 31.7314627,27.5849724 C32.150692,29.7390232 32.210589,31.6864467 31.9328913,33.2089329 C31.6833553,34.5770222 31.1815544,35.4889997 30.561127,35.854305 C29.2408174,36.6317056 26.4172538,35.6212996 23.3721742,32.9561741 C20.568887,30.50268 17.6061011,26.7188102 15.1539923,22.4108752 L15.1539981,22.4108855 L15.1539981,22.4108855 Z M13.6050521,23.3229212 C16.1524179,27.7982063 19.2392918,31.740553 22.2047549,34.3359867 C25.7653944,37.4523424 29.2821046,38.7107894 31.4578322,37.4297171 C33.7049935,36.1065973 34.4352654,32.1028581 33.4871838,27.2315005 C32.7745507,23.5697732 30.969599,19.1620755 28.384623,14.6206525 C25.9209999,10.2923953 23.0771674,6.55736486 20.3200746,4.06756422 C16.5366759,0.650796745 12.7444592,-0.788963046 10.4673236,0.551857564 C8.28375003,1.83751005 7.63715589,5.65475361 8.55610059,10.431514 C9.30544118,14.3267748 11.0888748,18.9022965 13.6050463,23.3229109 L13.6050521,23.3229212 L13.6050521,23.3229212 Z" id="Shape"></path>
               </g>
        </g>
</svg>