<?xml version="1.0" encoding="UTF-8" standalone="no"?>
<svg width="40px" height="40px" viewBox="0 0 40 40" version="1.1" xmlns="http://www.w3.org/2000/svg" xmlns:xlink="http://www.w3.org/1999/xlink">
    <!-- Generator: Sketch 3.7 (28169) - http://www.bohemiancoding.com/sketch -->
    <title>Group 6</title>
    <desc>Created with Sketch.</desc>
    <defs></defs>
    <g id="Page-1" stroke="none" stroke-width="1" fill="none" fill-rule="evenodd">
        <g id="Group-2-Copy" transform="translate(-160.000000, 0.000000)" fill="#FFFFFF">
            <g id="Group-6" transform="translate(160.000000, 0.000000)">
                <path d="M28.4212689,23.0560471 C28.4212689,23.0560471 29.4487541,24.2352457 29.9624967,25.697452 C30.4762394,27.1596582 30.4705786,28.9520401 30.3771709,28.999208 C30.2837631,29.046376 29.0794051,26.9709864 26.9734488,26.9709864 C24.8674923,26.9709864 23.7975845,28.999208 20.0612753,28.999208 C11.6486102,28.999208 8,22.0301445 8,22.0301445 C8,22.0301445 11.7012821,24.7069252 15.577704,24.6125893 C19.454126,24.5182534 20.528314,23.3862227 20.528314,23.3862227 C20.528314,23.3862227 18.7950358,21.9214648 15.811223,18.97602 C12.8274103,16.0305753 10.0199426,11.9715804 10.0199426,11.9715804 C10.0199426,11.9715804 14.5178426,15.571809 15.9605652,16.6308453 C17.4032878,17.6898817 18.8460105,18.6496333 18.8460105,18.6496333 C18.8460105,18.6496333 17.4487519,17.127269 16.4650773,15.9027582 C15.4814027,14.6782474 12.9622867,10.9810536 12.9622867,10.9810536 C12.9622867,10.9810536 16.8258957,14.5039577 18.5836973,15.9027579 C20.3414989,17.301558 23.7041779,19.6599552 23.7041779,19.6599552 C23.7041779,19.6599552 25.7299584,14.9903288 21.806833,9 C31.3344234,15.2261685 28.4212689,23.0560471 28.4212689,23.0560471 Z" id="Swift-logo"></path>
            </g>
        </g>
    </g>
</svg>