<?xml version="1.0" encoding="UTF-8" standalone="no"?>
<svg width="40px" height="40px" viewBox="0 0 40 40" version="1.1" xmlns="http://www.w3.org/2000/svg" xmlns:xlink="http://www.w3.org/1999/xlink">
    <!-- Generator: Sketch 3.7 (28169) - http://www.bohemiancoding.com/sketch -->
    <title>Group 5</title>
    <desc>Created with Sketch.</desc>
    <defs></defs>
    <g id="Page-1" stroke="none" stroke-width="1" fill="none" fill-rule="evenodd">
        <g id="Group-2-Copy" transform="translate(-120.000000, 0.000000)" fill="#FFFFFF">
            <g id="Group-5" transform="translate(120.000000, 0.000000)">
                <path d="M13.9654693,10.8715888 L9.22503124,19.128408 C8.92498959,19.655516 8.92498959,20.344484 9.22503124,20.8715921 L13.9654693,29.1284112 C14.2702893,29.654116 14.8629254,29.9988092 15.4683763,30 L24.9492189,30 C25.5546699,29.9987127 26.1473057,29.654116 26.4521257,29.1284112 L31.1925629,20.8715921 C31.4926044,20.344484 31.4925734,19.655516 31.1925629,19.128408 L26.4521257,10.8715888 C26.1473057,10.3458883 25.5546699,10.0011908 24.9492189,10 L15.4683763,10 C14.8629254,10.0012874 14.2702572,10.3458883 13.9654693,10.8715888 Z M15.5544154,14.8303392 C15.5674394,14.8290518 15.5810995,14.8290518 15.594164,14.8303392 L17.2294668,14.8303392 C17.3018543,14.8318411 17.3720704,14.8737876 17.4082193,14.9367911 L20.1823139,19.893547 C20.1962773,19.9180541 20.2052744,19.9453591 20.2086884,19.9733848 C20.2121045,19.9453525 20.2210932,19.9180455 20.235063,19.893547 L23.0025178,14.9367911 C23.0398139,14.871878 23.1133191,14.8296998 23.1878798,14.8303392 L24.8231831,14.8303392 C24.967991,14.8316265 25.0764341,15.0145069 25.0085756,15.1430478 L22.3007251,20.0000011 L25.0085756,24.8503009 C25.0828569,24.9795798 24.9717455,25.1709396 24.8231831,25.1696609 L23.1878798,25.1696609 C23.112016,25.1690171 23.0380763,25.1239209 23.0025178,25.0565554 L20.235063,20.0997996 C20.2210996,20.0752923 20.2121024,20.0479853 20.2086884,20.0199615 C20.2052723,20.0479919 20.1962837,20.0753031 20.1823139,20.0997996 L17.4082193,25.0565554 C17.3737166,25.1220156 17.3031268,25.1666807 17.2294668,25.1696609 L15.594164,25.1696609 C15.4456015,25.1709481 15.3345201,24.9795798 15.4088014,24.8503009 L18.1166511,20.0000011 L15.4088014,15.1430478 C15.3438909,15.0257692 15.423085,14.8553719 15.5544154,14.8303392 L15.5544154,14.8303392 L15.5544154,14.8303392 Z" id="Logo"></path>
            </g>
        </g>
    </g>
</svg>