<?xml version="1.0" encoding="UTF-8" standalone="no"?>
<svg width="420px" height="400px" viewBox="0 0 420 400" version="1.1" xmlns="http://www.w3.org/2000/svg" xmlns:xlink="http://www.w3.org/1999/xlink">
    <!-- Generator: Sketch 40 (33762) - http://www.bohemiancoding.com/sketch -->
    <title>rmp-what-it-is copy 2</title>
    <desc>Created with Sketch.</desc>
    <defs>
        <linearGradient x1="50%" y1="0%" x2="50%" y2="100%" id="linearGradient-1">
            <stop stop-color="#FCC397" offset="0%"></stop>
            <stop stop-color="#FC9F95" offset="16.0654496%"></stop>
            <stop stop-color="#F77C88" offset="30.0482302%"></stop>
            <stop stop-color="#F25192" offset="42.703683%"></stop>
            <stop stop-color="#D34CA3" offset="56.3317124%"></stop>
            <stop stop-color="#9A50A5" offset="69.1147162%"></stop>
            <stop stop-color="#59569E" offset="83.848852%"></stop>
            <stop stop-color="#39477F" offset="100%"></stop>
        </linearGradient>
        <path d="M36.9371482,0 L12.3123827,0 C6.87277205,0 0,1.96735897 0,7.46153846 L0,87.0512821 C0,92.5454615 6.87277205,97 12.3123827,97 L36.9371482,97 C42.3767589,97 49.249531,92.5454615 49.249531,87.0512821 L49.249531,7.46153846 C49.249531,1.96735897 42.3742964,0 36.9371482,0 L36.9371482,0 L36.9371482,0 L36.9371482,0 Z M2.46247655,87.0512821 L2.46247655,9.78953846 L46.7870544,9.78953846 L46.7870544,87.0512821 L2.46247655,87.0512821 L2.46247655,87.0512821 Z M21.5212307,94.5155117 C19.1856971,94.5155117 18.1538274,93.2024121 18.1538274,91.0791162 L18.1538274,89.7056047 L31.0769037,89.7056047 L31.0769037,91.0791162 C31.0769037,93.2382188 30.1579402,94.5155117 27.8679484,94.5155117 L21.5212307,94.5155117 Z" id="path-2"></path>
        <mask id="mask-3" maskContentUnits="userSpaceOnUse" maskUnits="objectBoundingBox" x="-2" y="-2" width="53.249531" height="101">
            <rect x="-2" y="-2" width="53.249531" height="101" fill="white"></rect>
            <use xlink:href="#path-2" fill="black"></use>
        </mask>
        <path d="M0,4.99456525 C0,2.23614303 2.24115505,0 4.99473785,0 L41.4713303,0 C44.2298479,0 46.4660682,2.23099732 46.4660682,4.99456525 L46.4660682,93.0054348 C46.4660682,95.763857 44.2249131,98 41.4713303,98 L4.99473785,98 C2.23622031,98 0,95.7690027 0,93.0054348 L0,4.99456525 Z M23.2330341,94.1598226 C25.071885,94.1598226 26.5625682,92.6892657 26.5625682,90.8752419 C26.5625682,89.0612181 25.071885,87.5906613 23.2330341,87.5906613 C21.3941832,87.5906613 19.9035,89.0612181 19.9035,90.8752419 C19.9035,92.6892657 21.3941832,94.1598226 23.2330341,94.1598226 Z" id="path-4"></path>
        <mask id="mask-5" maskContentUnits="userSpaceOnUse" maskUnits="objectBoundingBox" x="-2" y="-2" width="50.4660682" height="102">
            <rect x="-2" y="-2" width="50.4660682" height="102" fill="white"></rect>
            <use xlink:href="#path-4" fill="black"></use>
        </mask>
        <polygon id="path-6" points="3.20455643 83.7741935 3.20455643 14.2258065 43.2615117 14.2258065 43.2615117 83.7741935"></polygon>
        <mask id="mask-7" maskContentUnits="userSpaceOnUse" maskUnits="objectBoundingBox" x="0" y="0" width="40.0569553" height="69.5483871" fill="white">
            <use xlink:href="#path-6"></use>
        </mask>
        <path d="M0,4.99574362 C0,2.23667061 2.23558333,0 4.99183915,0 L77.7881596,0 C80.5450763,0 82.7799988,2.23561017 82.7799988,4.99574362 L82.7799988,119.981472 C82.7799988,122.740545 80.5444155,124.977216 77.7881596,124.977216 L4.99183915,124.977216 C2.23492252,124.977216 0,122.741606 0,119.981472 L0,4.99574362 Z M41.8006449,119.715943 C44.28556,119.715943 46.2999817,117.73419 46.2999817,115.289575 C46.2999817,112.84496 44.28556,110.863207 41.8006449,110.863207 C39.3157299,110.863207 37.3013082,112.84496 37.3013082,115.289575 C37.3013082,117.73419 39.3157299,119.715943 41.8006449,119.715943 Z" id="path-8"></path>
        <mask id="mask-9" maskContentUnits="userSpaceOnUse" maskUnits="objectBoundingBox" x="-2" y="-2" width="86.7799988" height="128.977216">
            <rect x="-2" y="-2" width="86.7799988" height="128.977216" fill="white"></rect>
            <use xlink:href="#path-8" fill="black"></use>
        </mask>
        <polygon id="path-10" points="4 107.720001 4 12 79.3600006 12 79.3600006 107.720001"></polygon>
        <mask id="mask-11" maskContentUnits="userSpaceOnUse" maskUnits="objectBoundingBox" x="0" y="0" width="75.3600006" height="95.7200012" fill="white">
            <use xlink:href="#path-10"></use>
        </mask>
        <path d="M18.8115086,5.982686 L18.8115086,0.997532561 C18.8115086,0.453859538 18.3652006,0 17.8146517,0 L5.94725397,0 C5.395882,0 4.95039701,0.44661054 4.95039701,0.997532561 L4.95039701,5.982686 L0.990767143,5.982686 C0.453457491,5.982686 0,6.42941939 0,6.98049296 L0,28.915623 C0,29.4567505 0.443581559,29.91343 0.990767143,29.91343 L4.95039701,29.91343 L4.95039701,34.8985834 C4.95039701,35.4422565 5.39670507,35.896116 5.94725397,35.896116 L17.8146517,35.896116 C18.3660236,35.896116 18.8115086,35.4495055 18.8115086,34.8985834 L18.8115086,29.91343 L22.7711385,29.91343 C23.3084481,29.91343 23.7619056,29.4666966 23.7619056,28.915623 L23.7619056,6.98049296 C23.7619056,6.4393655 23.3183241,5.982686 22.7711385,5.982686 L18.8115086,5.982686 Z M2.9702382,9.96456007 C2.9702382,9.41750487 3.41077036,8.974029 3.97945752,8.974029 L19.7824481,8.974029 C20.3398246,8.974029 20.7916674,9.41769132 20.7916674,9.96456007 L20.7916674,25.9315559 C20.7916674,26.4786111 20.3511353,26.922087 19.7824481,26.922087 L3.97945752,26.922087 C3.42208108,26.922087 2.9702382,26.4784247 2.9702382,25.9315559 L2.9702382,9.96456007 Z" id="path-12"></path>
        <mask id="mask-13" maskContentUnits="userSpaceOnUse" maskUnits="objectBoundingBox" x="-2" y="-2" width="27.7619056" height="39.896116">
            <rect x="-2" y="-2" width="27.7619056" height="39.896116" fill="white"></rect>
            <use xlink:href="#path-12" fill="black"></use>
        </mask>
    </defs>
    <g id="Diagrams-&amp;-Graphics-" stroke="none" stroke-width="1" fill="none" fill-rule="evenodd">
        <g id="rmp-what-it-is-copy-2">
            <g id="rosDark" transform="translate(142.000000, 15.000000)">
                <g id="Group-2" transform="translate(49.818182, 104.832000)"></g>
                <g id="Group-3">
                    <path d="M0,6.23582467 C0,2.7918738 2.78312664,0 6.23133945,0 L130.768661,0 C134.210134,0 137,2.79055013 137,6.23582467 L137,149.764175 C137,153.208126 134.216873,156 130.768661,156 L6.23133945,156 C2.7898657,156 0,153.20945 0,149.764175 L0,6.23582467 L0,6.23582467 L0,6.23582467 Z M137,92.352 L137,149.759446 C137,153.206009 134.216873,156 130.768661,156 L6.23133945,156 C2.7898657,156 0,153.203633 0,149.759446 L0,92.352 L0,92.352 M0,40.56 L137,40.56 L137,92.352 M0,92.352 L0,40.56 L0,40.56 L0,40.56 M0,20.28 L137,20.28 L137,40.56 L0,40.56 L0,20.28 L0,20.28 L0,20.28 Z M0,6.23631475 C0,2.79209322 2.78312664,0 6.23133945,0 L130.768661,0 C134.210134,0 137,2.79855505 137,6.23631475 L137,20.28 L0,20.28 L0,6.23631475 L0,6.23631475 L0,6.23631475 Z M24.9090909,29.952 L125.790909,29.952 L125.790909,30.576 L24.9090909,30.576 L24.9090909,29.952 L24.9090909,29.952 L24.9090909,29.952 Z M24.9090909,9.36 L125.790909,9.36 L125.790909,9.984 L24.9090909,9.984 L24.9090909,9.36 L24.9090909,9.36 L24.9090909,9.36 Z M14.3227273,11.856 C15.3544956,11.856 16.1909091,11.0178771 16.1909091,9.984 C16.1909091,8.95012295 15.3544956,8.112 14.3227273,8.112 C13.2909589,8.112 12.4545455,8.95012295 12.4545455,9.984 C12.4545455,11.0178771 13.2909589,11.856 14.3227273,11.856 L14.3227273,11.856 L14.3227273,11.856 Z M14.3227273,32.448 C15.3544956,32.448 16.1909091,31.6098771 16.1909091,30.576 C16.1909091,29.5421229 15.3544956,28.704 14.3227273,28.704 C13.2909589,28.704 12.4545455,29.5421229 12.4545455,30.576 C12.4545455,31.6098771 13.2909589,32.448 14.3227273,32.448 L14.3227273,32.448 L14.3227273,32.448 Z" id="Combined-Shape" stroke="#1C233F" stroke-width="2"></path>
                    <g id="Group" transform="translate(34.250000, 58.032000)">
                        <path d="M70.9700163,12.2478605 L70.9700163,11.9180464 C70.9724326,11.8615551 70.9736448,11.8049673 70.9736448,11.7482857 C70.9736448,5.25988669 55.089518,0 35.4954545,0 C15.9013911,0 0.0172643149,5.25988669 0.0172643149,11.7482857 C0.0172643149,11.749197 0.0172646282,11.7501082 0.0172652547,11.7510193 L0.0175148341,68.146615 C0.270553884,74.6320001 16.1505786,79.8883431 35.7380405,79.8883431 C55.3321039,79.8883431 71.2162307,74.6284564 70.9700163,68.1400573 C70.9737894,68.0406271 70.9737745,67.9414854 70.9700163,67.8426467 L70.9700163,67.8426286 L70.9700163,12.2748892 C70.1968,18.915615 54.846972,23.9778266 35.4954545,23.9778266 C15.6355315,23.9778266 0.0351058553,18.6461307 0.0351058553,11.7482857 C0.0351058553,17.8272388 13.619085,23.9778263 35.4954541,23.9778263 C56.7725889,23.9778263 70.2477609,18.159576 70.9700163,12.2478605 Z" id="Server" stroke="#1C233F" stroke-width="2"></path>
                        <path d="M31.9007163,42.1572274 C30.117636,43.3057701 28.1997667,44.2477749 26.2814801,44.9943687 C25.6103979,45.2555527 24.9883166,45.473267 24.4319747,45.649271 C24.1032273,45.7532734 23.8731806,45.8193483 23.7585158,45.8493595 C23.3742165,45.9713963 23.1187087,46.0665533 22.9278277,46.1562063 C22.7903586,46.2207728 22.6747304,46.2865635 22.5649186,46.3725247 C22.1840075,46.6707035 21.9302418,47.0821671 22.1695929,47.7163291 C22.3650579,48.2342149 22.692875,48.3907204 23.1015584,48.4598675 C23.2272329,48.481131 23.3538564,48.4867129 23.4979868,48.4831258 C23.7111792,48.4778197 23.9848262,48.4502025 24.3213861,48.4017312 L42.8446488,45.7600353 C36.3423557,49.5012095 23.3419877,56.9904554 23.3419877,56.9904554 C21.1990583,58.2249532 21.8885531,60.2306479 24.3213861,59.8802716 L42.1344045,57.3379842 C40.2221027,58.4371098 38.3290422,59.6491504 36.5415684,60.9565056 C32.7549188,63.7260545 29.8654821,66.609782 28.2271083,69.5804843 L30.1799648,70.6683414 C31.631062,68.0372094 34.3084692,65.3650925 37.8553839,62.7708853 C39.8553651,61.3081025 42.0037121,59.9627318 44.1524757,58.7677473 C44.9045883,58.3494774 45.6024032,57.9802205 46.2275618,57.6638596 C46.599812,57.4754828 46.8630122,57.3475628 46.9988515,57.2839233 C49.2424688,56.126266 48.5936237,54.1176825 46.1329006,54.4720756 L27.5743976,57.1381405 C27.5748668,57.1384662 47.112299,45.8833514 47.112299,45.8833514 C49.2379032,44.6588343 48.5907268,42.6395593 46.1329006,42.9935352 L31.3670776,45.0890538 C31.3610338,45.0896703 32.5343682,44.4143835 33.1055269,44.0464807 C37.9681571,40.914295 41.1926794,36.852944 41.9278328,31.7481892 L39.7180813,31.4267534 C39.0897409,35.7898203 36.2675919,39.344374 31.9007163,42.1572274 Z" id="Path-12-Copy-2" fill="url(#linearGradient-1)"></path>
                    </g>
                </g>
            </g>
            <g id="mobile-devices" transform="translate(97.000000, 260.000000)">
                <g id="android" transform="translate(0.000000, 27.000000)">
                    <use id="Combined-Shape" stroke="#1C233F" mask="url(#mask-3)" stroke-width="4" xlink:href="#path-2"></use>
                    <path d="M21.3714721,40.1910417 C19.7292497,41.2535885 17.9628862,42.1250618 16.1961383,42.8157552 C15.5780696,43.0573833 15.0051308,43.2587965 14.4927382,43.4216224 C14.1899608,43.5178377 13.9780871,43.5789653 13.8724805,43.6067295 C13.5185397,43.7196289 13.2832162,43.8076612 13.1074142,43.8906015 C12.9808047,43.9503337 12.8743108,44.0111983 12.7731738,44.0907233 C12.4223535,44.3665763 12.1886345,44.747232 12.4090776,45.3339119 C12.5891015,45.8130216 12.891022,45.9578089 13.2674207,46.0217787 C13.3831673,46.0414501 13.4997879,46.0466141 13.6325325,46.0432955 C13.8288834,46.0383867 14.080913,46.0128373 14.3908857,45.9679952 L31.4508675,43.5240934 C25.4622357,46.9851513 13.4888568,53.9136483 13.4888568,53.9136483 C11.5152123,55.0557144 12.1502391,56.911235 14.3908857,56.5870927 L30.7967304,54.2351562 C29.0354946,55.2519861 27.29198,56.3732764 25.6457111,57.5827449 C22.1581953,60.1449269 19.4970152,62.8127385 17.9880679,65.5610128 L19.7866547,66.5674178 C21.1231197,64.1332889 23.5890199,61.6612437 26.8557393,59.2612749 C28.6977281,57.9080163 30.6763623,56.6633788 32.6553801,55.5578674 C33.3480782,55.170915 33.9907678,54.8293058 34.5665409,54.5366321 C34.9093844,54.3623598 35.1517926,54.2440176 35.276901,54.1851431 C37.3432794,53.1141641 36.7456911,51.2559711 34.4793576,51.5838293 L17.3869193,54.0502757 C17.3873515,54.0505769 35.3813865,43.6381763 35.3813865,43.6381763 C37.3390745,42.5053436 36.743023,40.6372596 34.4793576,40.9647318 L20.8799892,42.9033508 C20.8744229,42.9039212 21.9550674,42.2791958 22.4811064,41.9388393 C26.9596037,39.0411725 29.9293987,35.2839106 30.6064772,30.5613686 L28.5712893,30.264 C27.9925859,34.3003871 25.393378,37.5887976 21.3714721,40.1910417 Z" id="ziggy-android" fill="url(#linearGradient-1)"></path>
                </g>
                <g id="iphone" transform="translate(62.000000, 26.000000)">
                    <use id="iphone-outline" stroke="#1C233F" mask="url(#mask-5)" stroke-width="4" xlink:href="#path-4"></use>
                    <use id="screen-5-path" stroke="#1C233F" mask="url(#mask-7)" stroke-width="4" xlink:href="#path-6"></use>
                    <path d="M20.1966158,40.6053823 C18.524286,41.6788833 16.7255391,42.5593408 14.9264009,43.2571547 C14.2970009,43.5012738 13.7135582,43.7047635 13.1917717,43.869268 C12.8834434,43.9664752 12.6676854,44.028233 12.5601426,44.0562835 C12.1997129,44.1703468 11.9600752,44.2592866 11.7810501,44.3430819 C11.6521195,44.4034299 11.5436732,44.464922 11.4406819,44.5452668 C11.08343,44.8239637 10.8454261,45.2085437 11.0699107,45.8012718 C11.253235,46.2853208 11.5606908,46.4316007 11.9439901,46.49623 C12.0618587,46.5161042 12.1806174,46.5213214 12.3157956,46.5179686 C12.5157462,46.5130093 12.7723964,46.4871965 13.088052,46.4418921 L30.4608001,43.9727953 C24.3623767,47.4695343 12.1694859,54.4694591 12.1694859,54.4694591 C10.1596578,55.6232991 10.8063268,57.4979488 13.088052,57.1704648 L29.7946705,54.7942816 C28.0011453,55.8215942 26.2256663,56.9544442 24.5492158,58.1763815 C20.9977622,60.7649777 18.2877938,63.4602925 16.7511825,66.2368995 L18.5827434,67.2536799 C19.9437102,64.7944568 22.4548186,62.2969267 25.7814278,59.8722159 C27.6571865,58.5050062 29.6720956,57.2475373 31.6873954,56.1306289 C32.392793,55.7396873 33.0472652,55.3945564 33.6335941,55.0988654 C33.9827232,54.9227965 34.2295755,54.8032343 34.3569775,54.7437528 C36.4612396,53.6617328 35.8526955,51.7843831 33.5448125,52.1156214 L16.1390129,54.607495 C16.1394529,54.6077994 34.4633786,44.0880544 34.4633786,44.0880544 C36.4569575,42.943543 35.8499785,41.0562004 33.5448125,41.3870487 L19.6961224,43.3456534 C19.690454,43.3462297 20.7909103,42.7150638 21.3265933,42.3711985 C25.8871965,39.4436588 28.9114376,35.6476623 29.6009293,30.8764343 L27.5284296,30.576 C26.9391166,34.6539994 24.2922566,37.976311 20.1966158,40.6053823 Z" id="ziggy-iphone" fill="url(#linearGradient-1)"></path>
                </g>
                <g id="ipad" transform="translate(121.000000, 0.000000)">
                    <use id="ipad-outline" stroke="#1C233F" mask="url(#mask-9)" stroke-width="4" xlink:href="#path-8"></use>
                    <use id="screen-5-path" stroke="#1C233F" mask="url(#mask-11)" stroke-width="4" xlink:href="#path-10"></use>
                    <path d="M37.3720594,47.4066233 C35.1304259,48.8416093 32.7193396,50.0185473 30.3077288,50.9513394 C29.464065,51.277662 28.6820035,51.5496737 27.9825876,51.7695726 C27.5692965,51.8995128 27.2800889,51.9820666 27.1359358,52.0195626 C26.6528066,52.1720349 26.3315901,52.2909239 26.0916204,52.4029361 C25.9187984,52.4836053 25.7734343,52.5658039 25.6353822,52.6732036 C25.1565125,53.0457474 24.8374861,53.5598288 25.1383909,54.352149 C25.3841235,54.9991941 25.7962451,55.1947316 26.3100292,55.2811237 C26.4680234,55.3076903 26.6272105,55.3146643 26.8084068,55.3101825 C27.0764258,55.3035532 27.4204463,55.2690484 27.843559,55.2084884 L51.1304342,51.9079611 C42.9559517,56.5821734 26.6122896,65.9392157 26.6122896,65.9392157 C23.9182647,67.4815937 24.7850764,69.9875029 27.843559,69.5497438 L50.237537,66.3734172 C47.8334501,67.7466616 45.4535527,69.2609816 43.2063957,70.8943875 C38.4459365,74.3546539 34.8134258,77.9575746 32.7537127,81.6691616 L35.2087837,83.0283272 C37.0330583,79.7409984 40.3990122,76.4024632 44.8580841,73.1612681 C47.3723989,71.3336715 50.0732346,69.6527693 52.7745939,68.1597591 C53.7201268,67.6371739 54.5973981,67.1758254 55.3833283,66.780565 C55.8513098,66.5452075 56.182197,66.3853846 56.3529699,66.3058737 C59.1735764,64.8594999 58.3578684,62.3499815 55.2643231,62.7927592 L31.9331449,66.1237331 C31.9337348,66.12414 56.4955926,52.0620319 56.4955926,52.0620319 C59.1678367,50.5321238 58.3542264,48.0092475 55.2643231,48.4515038 L36.7011853,51.0696388 C36.6935872,51.0704091 38.1686671,50.2267077 38.8867102,49.767051 C44.9998591,45.8537072 49.0536292,40.7794669 49.9778414,34.4016009 L47.1998099,34 C46.4098798,39.4512033 42.861961,43.8922524 37.3720594,47.4066233 Z" id="ziggy-ipad" fill="url(#linearGradient-1)"></path>
                </g>
                <g id="watch" transform="translate(216.000000, 88.000000)">
                    <use id="watch-outline" stroke="#1C233F" mask="url(#mask-13)" stroke-width="4" xlink:href="#path-12"></use>
                    <path d="M10.3296678,15.0999867 C9.79346191,15.4450881 9.21393192,15.728892 8.63413365,15.9533457 C8.2886323,16.0870976 8.02473509,16.1699205 7.88507255,16.2060773 C7.7168297,16.259022 7.61531612,16.2968225 7.53258859,16.3354305 C7.4643458,16.3672786 7.40419652,16.4010207 7.34239922,16.4478228 C7.26936197,16.5049052 7.26936197,16.5049052 7.16377221,16.6336256 C7.03647386,16.8443213 7.03647386,16.8443213 7.04928462,17.255991 C7.22691725,17.6217295 7.22691725,17.6217295 7.42941536,17.7471151 C7.57733522,17.8128977 7.57733522,17.8128977 7.66623513,17.8313263 C7.74126351,17.8456937 7.80938752,17.8494418 7.88375977,17.8480604 C7.97446703,17.8463757 8.08135629,17.8358571 8.20983681,17.8174744 L11.9798569,17.2808975 C11.9838972,17.2775842 7.63839162,19.7645709 7.63839162,19.7645709 C7.49775277,19.8450602 7.38203207,19.9265424 7.28708597,20.0191448 C7.05892007,20.2416788 6.92123166,20.5194683 7.04877083,20.9002975 C7.17764475,21.2851123 7.45975952,21.4237555 7.77848648,21.4602955 C7.9101928,21.4753948 8.05084851,21.468745 8.20983681,21.4459973 L11.9876401,20.9077721 C11.8865381,20.9739808 11.7989617,21.0336785 11.7293486,21.0844935 C10.4985362,21.9829413 9.55176529,22.9264166 8.99863992,23.9227861 L10.3257237,24.6588629 C10.7524459,23.8901892 11.5555868,23.089844 12.6244307,22.3096273 C13.2408749,21.8596456 13.9051061,21.4452637 14.5696138,21.0777173 C14.8022122,20.9490646 15.0177971,20.8356878 15.2105204,20.7388286 C15.3241886,20.6817011 15.40352,20.643434 15.4426988,20.6252282 C15.607096,20.5412726 15.7191659,20.4721479 15.8122546,20.3956378 C16.0738419,20.1806382 16.2372464,19.9285441 16.1147621,19.5103622 C15.9877559,19.0767417 15.6972976,18.9549151 15.3516588,18.9285798 C15.2309316,18.9193812 15.0997662,18.9276911 14.9478824,18.9494223 L11.1898789,19.4808792 C12.6353655,18.6528531 15.5193276,17.0023259 15.5193276,17.0023259 C15.6583744,16.9227477 15.7732653,16.8420253 15.8676924,16.7506525 C16.0936955,16.5319598 16.231504,16.2624113 16.1155133,15.8850987 C15.9939335,15.489605 15.706538,15.3446382 15.3830225,15.306762 C15.2503782,15.2912325 15.1087403,15.2978842 14.9478824,15.3208995 L12.0349169,15.7285283 C13.1622064,14.7849774 13.906796,13.6222662 14.1104262,12.2175454 L12.6084057,12 C12.4277543,13.2462037 11.6124416,14.2743951 10.3296678,15.0999867 Z" id="ziggy-watch" fill="url(#linearGradient-1)"></path>
                </g>
            </g>
            <path d="M233.174221,235.413186 L229.221219,231.460184 C228.83957,231.078535 228.200784,231.072914 227.810259,231.463439 C227.417013,231.856686 227.418278,232.485671 227.807005,232.874398 L233.470368,238.537761 C233.660663,238.728055 233.914885,238.824864 234.170384,238.825694 C234.430683,238.829085 234.684245,238.731589 234.878073,238.537761 L240.541436,232.874398 C240.923085,232.492749 240.928706,231.853963 240.538182,231.463439 C240.144935,231.070192 239.515949,231.071457 239.127222,231.460184 L235.174221,235.413186 L235.174221,194.173528 C235.174221,193.615926 234.726505,193.170545 234.174221,193.170545 C233.618085,193.170545 233.174221,193.619596 233.174221,194.173528 L233.174221,235.413186 L233.174221,235.413186 Z" id="Combined-Shape" fill="#1C233F"></path>
            <path d="M193.174221,235.413186 L189.221219,231.460184 C188.83957,231.078535 188.200784,231.072914 187.810259,231.463439 C187.417013,231.856686 187.418278,232.485671 187.807005,232.874398 L193.470368,238.537761 C193.660663,238.728055 193.914885,238.824864 194.170384,238.825694 C194.430683,238.829085 194.684245,238.731589 194.878073,238.537761 L200.541436,232.874398 C200.923085,232.492749 200.928706,231.853963 200.538182,231.463439 C200.144935,231.070192 199.515949,231.071457 199.127222,231.460184 L195.174221,235.413186 L195.174221,194.173528 C195.174221,193.615926 194.726505,193.170545 194.174221,193.170545 C193.618085,193.170545 193.174221,193.619596 193.174221,194.173528 L193.174221,235.413186 L193.174221,235.413186 Z" id="Combined-Shape-Copy" fill="#1C233F" transform="translate(194.172383, 215.998162) scale(1, -1) translate(-194.172383, -215.998162) "></path>
        </g>
    </g>
</svg>