<?xml version="1.0" encoding="UTF-8" standalone="no"?>
<svg width="32px" height="32px" viewBox="0 0 32 32" version="1.1" xmlns="http://www.w3.org/2000/svg" xmlns:xlink="http://www.w3.org/1999/xlink">
    <!-- Generator: Sketch 40.1 (33804) - http://www.bohemiancoding.com/sketch -->
    <title>rmp-prescence copy</title>
    <desc>Created with Sketch.</desc>
    <defs></defs>
    <g id="Diagrams-&amp;-Graphics-" stroke="none" stroke-width="1" fill="none" fill-rule="evenodd">
        <g id="rmp-prescence-copy" fill="#39477F">
            <g id="rmp-presence" transform="translate(0.000000, 1.000000)">
                <path d="M24.437529,7.97462253 C24.5643239,7.97593314 24.6912079,7.93011243 24.7865329,7.83478742 L28.3347874,4.28653292 C28.5208447,4.10047566 28.5236893,3.78104858 28.3284271,3.58578644 C28.1388756,3.39623486 27.8194301,3.38767669 27.6276806,3.57942614 L24.4393398,6.76776695 L23.3754192,5.7038463 C23.1776864,5.50611352 22.866835,5.51184464 22.6715729,5.70710678 C22.4820213,5.89665835 22.474851,6.21749165 22.6683124,6.41095308 L24.0890469,7.8316876 C24.1868415,7.92948217 24.3123059,7.97750768 24.4377713,7.97744969 Z M25.5,11 C28.5375661,11 31,8.53756612 31,5.5 C31,2.46243388 28.5375661,0 25.5,0 C22.4624339,0 20,2.46243388 20,5.5 C20,8.53756612 22.4624339,11 25.5,11 Z" id="Combined-Shape" opacity="0.498775653"></path>
                <path d="M9.98657718,29.6979866 C5.82550336,29.6979866 2.14711409,27.5675168 0,24.3385235 C0.0499328859,21.0263087 6.65771812,19.2120805 9.98657718,19.2120805 C13.2987919,19.2120805 19.9232215,21.0263087 19.9731544,24.3385235 C17.8260403,27.5675168 14.147651,29.6979866 9.98657718,29.6979866 L9.98657718,29.6979866 Z" id="Shape"></path>
                <path d="M9.98657718,6.06308725 C12.7495302,6.06308725 14.9798658,8.29342282 14.9798658,11.0563758 C14.9798658,13.8193289 12.7495302,16.0496644 9.98657718,16.0496644 C7.22362416,16.0496644 4.99328859,13.8193289 4.99328859,11.0563758 C4.99328859,8.29342282 7.22362416,6.06308725 9.98657718,6.06308725 L9.98657718,6.06308725 Z" id="Shape"></path>
            </g>
        </g>
    </g>
</svg>