<?xml version="1.0" encoding="UTF-8" standalone="no"?>
<svg width="863px" height="473px" viewBox="0 0 863 473" version="1.1" xmlns="http://www.w3.org/2000/svg" xmlns:xlink="http://www.w3.org/1999/xlink">
    <!-- Generator: Sketch 40 (33762) - http://www.bohemiancoding.com/sketch -->
    <title>offline-first copy</title>
    <desc>Created with Sketch.</desc>
    <defs>
        <path d="M103.116205,0.616 L34.3720685,0.616 C19.1864886,0.616 0,6.10886626 0,21.4486154 L0,243.663179 C0,259.002929 19.1864886,271.44 34.3720685,271.44 L103.116205,271.44 C118.301785,271.44 137.488274,259.002929 137.488274,243.663179 L137.488274,21.4486154 C137.488274,6.10886626 118.294911,0.616 103.116205,0.616 L103.116205,0.616 L103.116205,0.616 L103.116205,0.616 Z M6.8744137,243.663179 L6.8744137,27.9483914 L130.61386,27.9483914 L130.61386,243.663179 L6.8744137,243.663179 L6.8744137,243.663179 Z M60.0801024,264.503309 C53.5600711,264.503309 50.6794348,260.837135 50.6794348,254.908892 L50.6794348,251.074048 L86.7563562,251.074048 L86.7563562,254.908892 C86.7563562,260.937107 84.1909164,264.503309 77.7980226,264.503309 L60.0801024,264.503309 Z" id="path-1"></path>
        <mask id="mask-2" maskContentUnits="userSpaceOnUse" maskUnits="objectBoundingBox" x="-4" y="-4" width="145.488274" height="278.824">
            <rect x="-4" y="-3.384" width="145.488274" height="278.824" fill="white"></rect>
            <use xlink:href="#path-1" fill="black"></use>
        </mask>
        <linearGradient x1="50%" y1="0%" x2="50%" y2="100%" id="linearGradient-3">
            <stop stop-color="#FCC397" offset="0%"></stop>
            <stop stop-color="#FC9F95" offset="16.0654496%"></stop>
            <stop stop-color="#F77C88" offset="30.0482302%"></stop>
            <stop stop-color="#F25192" offset="42.703683%"></stop>
            <stop stop-color="#D34CA3" offset="56.3317124%"></stop>
            <stop stop-color="#9A50A5" offset="69.1147162%"></stop>
            <stop stop-color="#59569E" offset="83.848852%"></stop>
            <stop stop-color="#39477F" offset="100%"></stop>
        </linearGradient>
        <path d="M0,4.99746141 C0,2.23743969 2.23782919,0 5.0056075,0 L124.712166,0 C127.476687,0 129.717774,2.24267466 129.717774,4.99746141 L129.717774,268.618539 C129.717774,271.37856 127.479944,273.616 124.712166,273.616 L5.0056075,273.616 C2.24108681,273.616 0,271.373325 0,268.618539 L0,4.99746141 Z M64.8588868,262.894225 C69.9923456,262.894225 74.1538363,258.78843 74.1538363,253.723675 C74.1538363,248.658921 69.9923456,244.553126 64.8588868,244.553126 C59.725428,244.553126 55.5639374,248.658921 55.5639374,253.723675 C55.5639374,258.78843 59.725428,262.894225 64.8588868,262.894225 Z" id="path-4"></path>
        <mask id="mask-5" maskContentUnits="userSpaceOnUse" maskUnits="objectBoundingBox" x="-4" y="-4" width="137.717774" height="281.616">
            <rect x="-4" y="-4" width="137.717774" height="281.616" fill="white"></rect>
            <use xlink:href="#path-4" fill="black"></use>
        </mask>
        <polygon id="path-6" points="8.94605335 233.897548 8.94605335 39.7184516 120.77172 39.7184516 120.77172 233.897548"></polygon>
        <mask id="mask-7" maskContentUnits="userSpaceOnUse" maskUnits="objectBoundingBox" x="0" y="0" width="111.825667" height="194.179097" fill="white">
            <use xlink:href="#path-6"></use>
        </mask>
        <path d="M0,25.9997136 C0,23.238448 2.23153032,21 5.00101718,21 L226.093146,21 C228.855132,21 231.094163,23.2396715 231.094163,25.9997136 L231.094163,364.936673 C231.094163,367.697938 228.862633,369.936386 226.093146,369.936386 L5.00101718,369.936386 C2.23903166,369.936386 0,367.696715 0,364.936673 L0,25.9997136 Z M116.693467,355.246912 C123.630522,355.246912 129.254116,349.713859 129.254116,342.888493 C129.254116,336.063127 123.630522,330.530074 116.693467,330.530074 C109.756413,330.530074 104.132819,336.063127 104.132819,342.888493 C104.132819,349.713859 109.756413,355.246912 116.693467,355.246912 Z" id="path-8"></path>
        <mask id="mask-9" maskContentUnits="userSpaceOnUse" maskUnits="objectBoundingBox" x="-4" y="-4" width="239.094163" height="356.936386">
            <rect x="-4" y="17" width="239.094163" height="356.936386" fill="white"></rect>
            <use xlink:href="#path-8" fill="black"></use>
        </mask>
        <polygon id="path-10" points="11.1666667 321.754243 11.1666667 54.504 221.546668 54.504 221.546668 321.754243"></polygon>
        <mask id="mask-11" maskContentUnits="userSpaceOnUse" maskUnits="objectBoundingBox" x="0" y="0" width="210.380002" height="267.250243" fill="white">
            <use xlink:href="#path-10"></use>
        </mask>
        <ellipse id="path-12" cx="36.7370235" cy="36.7225951" rx="36.7370235" ry="36.7225951"></ellipse>
        <mask id="mask-13" maskContentUnits="userSpaceOnUse" maskUnits="objectBoundingBox" x="-4" y="-4" width="81.4740471" height="81.4451902">
            <rect x="-4" y="-4" width="81.4740471" height="81.4451902" fill="white"></rect>
            <use xlink:href="#path-12" fill="black"></use>
        </mask>
        <path d="M52.5154616,16.7036593 L52.5154616,5.00431182 C52.5154616,2.23379663 50.2771921,0 47.5161468,0 L18.8191731,0 C16.0675539,0 13.8198583,2.24050672 13.8198583,5.00431182 L13.8198583,16.7036593 L4.99951848,16.7036593 C2.24510543,16.7036593 0,18.9398324 0,21.6982917 L0,78.5236642 C0,81.2761487 2.23836067,83.5182966 4.99951848,83.5182966 L13.8198583,83.5182966 L13.8198583,95.2176441 C13.8198583,97.9881593 16.0581278,100.221956 18.8191731,100.221956 L47.5161468,100.221956 C50.267766,100.221956 52.5154616,97.9814492 52.5154616,95.2176441 L52.5154616,83.5182966 L61.3358014,83.5182966 C64.0902145,83.5182966 66.3353199,81.2821235 66.3353199,78.5236642 L66.3353199,21.6982917 C66.3353199,18.9458072 64.0969592,16.7036593 61.3358014,16.7036593 L52.5154616,16.7036593 Z M8.29191499,30.0550657 C8.29191499,27.2938757 10.5262852,25.055489 13.2900686,25.055489 L53.0452513,25.055489 C55.8056553,25.055489 58.0434049,27.2896521 58.0434049,30.0550657 L58.0434049,70.1668902 C58.0434049,72.9280802 55.8090347,75.1664669 53.0452513,75.1664669 L13.2900686,75.1664669 C10.5296646,75.1664669 8.29191499,72.9323038 8.29191499,70.1668902 L8.29191499,30.0550657 Z" id="path-14"></path>
        <mask id="mask-15" maskContentUnits="userSpaceOnUse" maskUnits="objectBoundingBox" x="-4" y="-4" width="74.3353199" height="108.221956">
            <rect x="-4" y="-4" width="74.3353199" height="108.221956" fill="white"></rect>
            <use xlink:href="#path-14" fill="black"></use>
        </mask>
        <ellipse id="path-16" cx="36.7370235" cy="36.7225951" rx="36.7370235" ry="36.7225951"></ellipse>
        <mask id="mask-17" maskContentUnits="userSpaceOnUse" maskUnits="objectBoundingBox" x="-4" y="-4" width="81.4740471" height="81.4451902">
            <rect x="-4" y="-4" width="81.4740471" height="81.4451902" fill="white"></rect>
            <use xlink:href="#path-16" fill="black"></use>
        </mask>
    </defs>
    <g id="Diagrams-&amp;-Graphics-" stroke="none" stroke-width="1" fill="none" fill-rule="evenodd">
        <g id="offline-first-copy">
            <g id="mobile-devices" transform="translate(73.000000, 30.000000)">
                <g id="android" transform="translate(0.000000, 95.384000)">
                    <use id="Combined-Shape" stroke="#1C233F" mask="url(#mask-2)" stroke-width="8" xlink:href="#path-1"></use>
                    <path d="M59.6620263,113.213388 C55.0774888,116.180019 50.1463906,118.613172 45.2142195,120.541588 C43.4887776,121.216214 41.8893234,121.77856 40.4588941,122.23317 C39.6136406,122.501803 39.0221599,122.672471 38.7273413,122.749989 C37.7392566,123.065204 37.0823119,123.31099 36.5915313,123.542559 C36.2380798,123.709332 35.9407844,123.879266 35.6584434,124.101299 C34.6790702,124.871481 34.0266046,125.934272 34.6420082,127.572282 C35.144575,128.909956 35.9874365,129.314202 37.0382161,129.492806 C37.3613421,129.547729 37.6869079,129.562146 38.0574865,129.552881 C38.6056327,129.539176 39.3092155,129.467842 40.174556,129.342643 L87.8003385,122.519269 C71.0820746,132.182542 37.656392,151.526906 37.656392,151.526906 C32.1466342,154.715555 33.9194176,159.896168 40.174556,158.991163 L85.9742057,152.424556 C81.0574224,155.263545 76.1901108,158.394188 71.5942769,161.771024 C61.8582951,168.924636 54.4291675,176.373166 50.2166896,184.046348 L55.2377444,186.856231 C58.9687091,180.060143 65.8526807,173.158192 74.9722721,166.457479 C80.114491,162.679182 85.6381781,159.204154 91.1629362,156.117566 C93.0967184,155.037195 94.8908935,154.083422 96.4982599,153.266277 C97.4553649,152.779708 98.1320878,152.449297 98.4813487,152.28492 C104.249988,149.294746 102.581721,144.106671 96.2548734,145.022051 L48.5384832,151.90837 C48.5396896,151.909211 98.7730373,122.837788 98.7730373,122.837788 C104.23825,119.674919 102.574273,114.459229 96.2548734,115.373531 L58.2899699,120.786156 C58.2744306,120.787748 61.2912299,119.043515 62.7597553,118.093239 C75.2622271,110.002954 83.5529046,99.5126785 85.4430821,86.3273412 L79.7615159,85.497088 C78.145969,96.7666809 70.8898469,105.947923 59.6620263,113.213388 Z" id="ziggy-android" fill="url(#linearGradient-3)"></path>
                </g>
                <g id="iphone" transform="translate(189.000000, 94.000000)">
                    <use id="iphone-outline" stroke="#1C233F" mask="url(#mask-5)" stroke-width="8" xlink:href="#path-4"></use>
                    <use id="screen-5-path" stroke="#1C233F" mask="url(#mask-7)" stroke-width="8" xlink:href="#path-6"></use>
                    <path d="M56.382219,113.370227 C51.7136317,116.367442 46.69213,118.825679 41.6695358,120.773976 C39.9124607,121.455557 38.2836832,122.0237 36.8270294,122.482996 C35.9662796,122.754399 35.3639551,122.926827 35.0637314,123.005143 C34.0575318,123.323608 33.3885432,123.571928 32.888765,123.805885 C32.5288335,123.974376 32.2260876,124.146062 31.9385704,124.370385 C30.9412421,125.148507 30.2768146,126.222254 30.9035006,127.877151 C31.4152811,129.228616 32.273595,129.637029 33.3436389,129.817474 C33.672689,129.872963 34.0042235,129.887529 34.381596,129.878168 C34.9397916,129.864322 35.6562734,129.792253 36.5374784,129.665763 L85.0364003,122.772045 C68.0116348,132.53494 33.9731481,152.07873 33.9731481,152.07873 C28.3623781,155.300251 30.1676624,160.534273 36.5374784,159.619938 L83.1767884,152.985634 C78.169864,155.853891 73.2133184,159.016808 68.5332275,162.428457 C58.6187527,169.655818 51.0534245,177.181137 46.7637178,184.933423 L51.8768252,187.772274 C55.676191,180.906123 62.6863687,173.933019 71.9731527,167.163227 C77.2096455,163.345977 82.8346003,159.835124 88.4606456,156.716716 C90.4298804,155.625207 92.2569488,154.661601 93.8937836,153.836032 C94.8684355,153.344448 95.557565,153.01063 95.9132289,152.844558 C101.787627,149.823558 100.088775,144.581998 93.6459349,145.506815 L45.0547442,152.464126 C45.0559728,152.464976 96.2102653,123.093848 96.2102653,123.093848 C101.775673,119.898372 100.08119,114.628911 93.6459349,115.55264 L54.9850083,121.021064 C54.969184,121.022673 58.0412914,119.260458 59.5367397,118.300386 C72.2684235,110.126695 80.7110967,99.5282731 82.6359275,86.2070045 L76.8501993,85.368192 C75.205034,96.7539663 67.815883,106.02986 56.382219,113.370227 Z" id="ziggy-iphone" fill="url(#linearGradient-3)"></path>
                </g>
                <g id="ipad" transform="translate(370.000000, 0.000000)">
                    <use id="ipad-outline" stroke="#1C233F" mask="url(#mask-9)" stroke-width="8" xlink:href="#path-8"></use>
                    <use id="screen-5-path" stroke="#1C233F" mask="url(#mask-11)" stroke-width="8" xlink:href="#path-10"></use>
                    <path d="M104.330333,153.359292 C98.0724389,157.365773 91.3414898,160.651784 84.6090763,163.25614 C82.253848,164.167232 80.0705931,164.926689 78.1180571,165.540647 C76.9642861,165.90344 76.156915,166.13393 75.7544875,166.238619 C74.4057519,166.664322 73.5090224,166.996259 72.839107,167.308997 C72.3566456,167.534226 71.9508373,167.763725 71.5654419,168.063584 C70.2285975,169.103727 69.337982,170.539042 70.1780079,172.7512 C70.8640115,174.55775 72.0145175,175.103691 73.4488316,175.344898 C73.8898987,175.419071 74.334296,175.438543 74.8401358,175.42603 C75.5883553,175.407521 76.5487459,175.311183 77.7299356,175.1421 L142.739129,165.927027 C119.918698,178.977428 74.2926418,205.10229 74.2926418,205.10229 C66.7718224,209.40861 69.1916716,216.405108 77.7299356,215.182885 L140.246457,206.314581 C133.535048,210.148679 126.891168,214.376661 120.617855,218.93713 C107.328239,228.598194 97.1874803,238.657548 91.4374479,249.020299 L98.2911877,252.815089 C103.383955,243.636868 112.780576,234.315677 125.228818,225.266261 C132.247947,220.163611 139.78778,215.470532 147.329075,211.302047 C149.968687,209.84299 152.417736,208.554904 154.611791,207.451337 C155.91824,206.794219 156.841967,206.347994 157.318708,206.125999 C165.192901,202.087724 162.915716,195.081148 154.279569,196.317384 L89.1466962,205.617463 C89.1483429,205.618599 157.716863,166.357193 157.716863,166.357193 C165.176877,162.08569 162.905549,155.041819 154.279569,156.276599 L102.457476,163.586431 C102.436264,163.588582 106.554196,161.232968 108.558733,159.949606 C125.624607,149.02355 136.941381,134.856272 139.521474,117.04927 L131.766136,115.928 C129.560914,131.147759 119.656308,143.547169 104.330333,153.359292 Z" id="ziggy-ipad" fill="url(#linearGradient-3)"></path>
                    <g id="wireless-free" transform="translate(190.000000, 0.000000)">
                        <g id="Oval-7">
                            <use fill="#FFFFFF" fill-rule="evenodd" xlink:href="#path-12"></use>
                            <use stroke="#1C233F" mask="url(#mask-13)" stroke-width="8" xlink:href="#path-12"></use>
                        </g>
                        <path d="M22.4920552,46.4653244 L27.6720437,46.4653244 C27.6720437,33.5981086 38.1097205,23.1645312 50.9819918,23.1645312 L50.9819918,17.9865772 C35.2607268,17.9865772 22.4920552,30.7502339 22.4920552,46.4653244 L22.4920552,46.4653244 Z M43.2120091,46.4653244 L50.9819918,46.4653244 L50.9819918,38.6983933 C46.6826014,38.6983933 43.2120091,42.1676225 43.2120091,46.4653244 L43.2120091,46.4653244 Z M32.8520322,46.4653244 L38.0320207,46.4653244 C38.0320207,39.3197478 43.8336077,33.5204393 50.9819918,33.5204393 L50.9819918,28.3424853 C40.9587141,28.3424853 32.8520322,36.4459833 32.8520322,46.4653244 L32.8520322,46.4653244 Z" id="Shape" fill="#F25192" transform="translate(36.737024, 32.225951) rotate(45.000000) translate(-36.737024, -32.225951) "></path>
                        <rect id="Rectangle" fill="#1C233F" transform="translate(35.577164, 35.577164) rotate(45.000000) translate(-35.577164, -35.577164) " x="33.5771645" y="-1.42283553" width="4" height="74"></rect>
                    </g>
                </g>
                <g id="watch" transform="translate(652.000000, 269.000000)">
                    <use id="watch-outline" stroke="#1C233F" mask="url(#mask-15)" stroke-width="8" xlink:href="#path-14"></use>
                    <path d="M28.8369891,42.1591629 C27.3400812,43.122686 25.7222266,43.9150663 24.1036231,44.5417413 C23.1390985,44.9151765 22.4023855,45.1464181 22.0124942,45.2473677 C21.5428163,45.3951894 21.2594242,45.5007284 21.0284765,45.6085219 C20.8379654,45.6974419 20.6700486,45.7916497 20.4975312,45.9223213 C20.2936355,46.0816953 20.2936355,46.0816953 19.9988641,46.4410825 C19.6434895,47.0293452 19.6434895,47.0293452 19.6792529,48.1787268 C20.175144,49.1998686 20.175144,49.1998686 20.7404512,49.5499453 C21.1533942,49.7336104 21.1533942,49.7336104 21.4015731,49.7850632 C21.6110273,49.8251767 21.8012068,49.8356415 22.0088294,49.8317847 C22.2620538,49.8270808 22.560453,49.7977131 22.9191278,49.7463885 L33.4437672,48.2482658 C33.4550463,48.239015 21.3238433,55.1826819 21.3238433,55.1826819 C20.9312265,55.4074082 20.6081728,55.6349063 20.343115,55.8934524 C19.7061519,56.5147671 19.3217717,57.2903554 19.6778186,58.3536307 C20.0375916,59.4280335 20.825162,59.8151255 21.7149414,59.9171451 C22.0826216,59.9593023 22.4752854,59.940736 22.9191278,59.8772243 L33.4654953,58.3744997 C33.1832523,58.5593543 32.9387682,58.7260303 32.7444315,58.8679059 C29.3084136,61.3763722 26.6653448,64.0105551 25.1212031,66.7924187 L28.8259788,68.8475452 C30.0172447,66.7014083 32.2593465,64.4668445 35.2432023,62.2884793 C36.9641092,61.0321305 38.8184213,59.8751763 40.6735052,58.8489866 C41.3228423,58.4897883 41.9246836,58.1732404 42.4627028,57.9028095 C42.7800264,57.7433094 43.0014934,57.6364677 43.1108674,57.5856371 C43.5698097,57.3512332 43.8826714,57.1582368 44.1425442,56.9446208 C44.8728087,56.3443417 45.3289796,55.6404951 44.9870443,54.4729313 C44.6324852,53.2622627 43.8216223,52.9221229 42.8567142,52.8485948 C42.5196841,52.8229124 42.153514,52.8461135 41.729505,52.9067872 L31.2384118,54.3906147 C35.2737286,52.0787659 43.3247895,47.4704938 43.3247895,47.4704938 C43.7129618,47.2483115 44.0336989,47.0229346 44.2973081,46.7678218 C44.9282332,46.1572318 45.3129487,45.4046522 44.9891414,44.3511955 C44.6497311,43.2469772 43.8474186,42.8422298 42.9442711,42.7364796 C42.5739726,42.6931211 42.1785666,42.7116928 41.729505,42.7759513 L33.5974763,43.9140509 C36.744493,41.279657 38.8231387,38.0333671 39.3916066,34.1113867 L35.198466,33.504 C34.6941475,36.9834007 32.4180661,39.8541112 28.8369891,42.1591629 Z" id="ziggy-watch" fill="url(#linearGradient-3)"></path>
                </g>
            </g>
            <g id="wireless-free" transform="translate(170.000000, 87.000000)">
                <g id="Oval-7">
                    <use fill="#FFFFFF" fill-rule="evenodd" xlink:href="#path-16"></use>
                    <use stroke="#1C233F" mask="url(#mask-17)" stroke-width="8" xlink:href="#path-16"></use>
                </g>
                <path d="M22.4920552,46.4653244 L27.6720437,46.4653244 C27.6720437,33.5981086 38.1097205,23.1645312 50.9819918,23.1645312 L50.9819918,17.9865772 C35.2607268,17.9865772 22.4920552,30.7502339 22.4920552,46.4653244 L22.4920552,46.4653244 Z M43.2120091,46.4653244 L50.9819918,46.4653244 L50.9819918,38.6983933 C46.6826014,38.6983933 43.2120091,42.1676225 43.2120091,46.4653244 L43.2120091,46.4653244 Z M32.8520322,46.4653244 L38.0320207,46.4653244 C38.0320207,39.3197478 43.8336077,33.5204393 50.9819918,33.5204393 L50.9819918,28.3424853 C40.9587141,28.3424853 32.8520322,36.4459833 32.8520322,46.4653244 L32.8520322,46.4653244 Z" id="Shape" fill="#F25192" transform="translate(36.737024, 32.225951) rotate(45.000000) translate(-36.737024, -32.225951) "></path>
                <rect id="Rectangle" fill="#1C233F" transform="translate(35.577164, 35.577164) rotate(45.000000) translate(-35.577164, -35.577164) " x="33.5771645" y="-1.42283553" width="4" height="74"></rect>
            </g>
        </g>
    </g>
</svg>