<?xml version="1.0" encoding="UTF-8" standalone="no"?>
<svg width="440px" height="352px" viewBox="0 0 440 352" version="1.1" xmlns="http://www.w3.org/2000/svg" xmlns:xlink="http://www.w3.org/1999/xlink">
    <!-- Generator: Sketch 39.1 (31720) - http://www.bohemiancoding.com/sketch -->
    <title>rmp-how-it-works-integrate</title>
    <desc>Created with Sketch.</desc>
    <defs></defs>
    <g id="Diagrams-&amp;-Graphics-" stroke="none" stroke-width="1" fill="none" fill-rule="evenodd">
        <g id="rmp-how-it-works-integrate">
            <g id="rmp-what-is-rmp" transform="translate(82.000000, 93.000000)">
                <g id="Group-2" stroke="#FFFFFF" stroke-width="3" opacity="0.5">
                    <path d="M160.063232,104.710221 L160.063232,104.407584 C160.065445,104.355747 160.066556,104.303823 160.066556,104.251812 C160.066556,98.2980601 145.51581,93.4715909 127.566556,93.4715909 C109.617301,93.4715909 95.0665558,98.2980601 95.0665558,104.251812 C95.0665558,104.252648 95.0665561,104.253484 95.0665566,104.25432 L95.0667853,156.002888 C95.2985831,161.953874 109.845571,166.777091 127.788778,166.777091 C145.738032,166.777091 160.288778,161.950622 160.063232,155.996871 C160.066688,155.905634 160.066675,155.814661 160.063232,155.723967 L160.063232,155.72395 L160.063232,104.735023 C159.354923,110.828549 145.293625,115.473632 127.566556,115.473632 C109.373759,115.473632 95.0828996,110.58127 95.0828996,104.251812 C95.0828996,109.829856 107.526582,115.473631 127.566555,115.473631 C147.057597,115.473631 159.401606,110.134808 160.063232,104.710221 Z" id="Server"></path>
                    <path d="M112.333729,11.4744257 L112.333729,11.1717884 C112.335942,11.119952 112.337053,11.0680271 112.337053,11.0160161 C112.337053,5.06226464 97.7863073,0.235795455 79.8370529,0.235795455 C61.8877985,0.235795455 47.3370529,5.06226464 47.3370529,11.0160161 C47.3370529,11.0168522 47.3370532,11.0176883 47.3370537,11.0185244 L47.3372824,62.7670926 C47.5690802,68.7180784 62.1160681,73.5412959 80.0592751,73.5412959 C98.0085295,73.5412959 112.559275,68.7148267 112.333729,62.7610752 C112.337185,62.6698381 112.337172,62.5788657 112.333729,62.4881714 L112.333729,62.4881548 L112.333729,11.4992272 C111.62542,17.5927535 97.5641216,22.2378362 79.8370529,22.2378362 C61.6442563,22.2378362 47.3533967,17.345475 47.3533967,11.0160161 C47.3533967,16.5940602 59.7970788,22.2378359 79.8370525,22.2378359 C99.3280941,22.2378359 111.672103,16.8990126 112.333729,11.4744257 Z" id="Server-Copy"></path>
                    <path d="M65.1653354,104.276982 L65.1653354,103.974345 C65.1675488,103.922509 65.1686592,103.870584 65.1686592,103.818573 C65.1686592,97.8648215 50.6179136,93.0383523 32.6686592,93.0383523 C14.7194049,93.0383523 0.168659224,97.8648215 0.168659224,103.818573 C0.168659224,103.819409 0.168659511,103.820245 0.168660085,103.821081 L0.168888714,155.569649 C0.400686589,161.520635 14.9476745,166.343853 32.8908814,166.343853 C50.8401358,166.343853 65.3908814,161.517384 65.1653354,155.563632 C65.1687917,155.472395 65.168778,155.381423 65.1653354,155.290728 L65.1653354,155.290712 L65.1653354,104.301784 C64.4570261,110.39531 50.395728,115.040393 32.6686592,115.040393 C14.4758626,115.040393 0.18500307,110.148032 0.18500307,103.818573 C0.18500307,109.396617 12.6286852,115.040393 32.6686588,115.040393 C52.1597004,115.040393 64.5037091,109.701569 65.1653354,104.276982 Z" id="Server-Copy-2"></path>
                </g>
                <g id="Group-3-Copy" transform="translate(287.000000, 83.000000) scale(-1, 1) translate(-287.000000, -83.000000) translate(253.000000, 60.000000)" fill="#FFFFFF" opacity="0.496851679">
                    <path d="M51.9296536,11.1860795 L0.0950653319,11.1860795 L0.0950653319,4.79403409 L51.4240195,4.79403409 L48.5618551,0.107685433 L67.1720888,7.41530941 L49.6832351,16.1803677 L51.9296536,11.1860795 Z" id="Combined-Shape"></path>
                    <path d="M51.8690722,40.5894886 L0.0344839326,40.5894886 L0.0344839326,34.1974432 L51.3634381,34.1974432 L48.5012737,29.5110945 L67.1115074,36.8187185 L49.6226537,45.5837768 L51.8690722,40.5894886 Z" id="Combined-Shape" transform="translate(33.572996, 37.547436) scale(-1, 1) translate(-33.572996, -37.547436) "></path>
                </g>
            </g>
        </g>
    </g>
</svg>