<?xml version="1.0" encoding="UTF-8" standalone="no"?>
<svg width="32px" height="32px" viewBox="0 0 32 32" version="1.1" xmlns="http://www.w3.org/2000/svg" xmlns:xlink="http://www.w3.org/1999/xlink">
    <!-- Generator: Sketch 40.1 (33804) - http://www.bohemiancoding.com/sketch -->
    <title>rmp-two-way-data-sync</title>
    <desc>Created with Sketch.</desc>
    <defs></defs>
    <g id="Diagrams-&amp;-Graphics-" stroke="none" stroke-width="1" fill="none" fill-rule="evenodd">
        <g id="rmp-two-way-data-sync" fill="#39477F">
            <g id="two-way-data-sync-icon" transform="translate(1.000000, 4.000000)">
                <path d="M3.41618758,17.6551539 L7.36918946,13.702152 C7.75791639,13.3134251 7.75918201,12.6844398 7.36593505,12.2911929 C6.97541076,11.9006686 6.33662488,11.9062895 5.9549759,12.2879385 L0.291612827,17.9513015 C0.0977855297,18.1451288 0.000289876449,18.3986898 0,18.6529758 L0.00367974461,18.6589874 C0.00450879022,18.9144881 0.10131774,19.1687112 0.291612827,19.3590063 L5.9549759,25.0223693 C6.34370283,25.4110963 6.97268809,25.4123619 7.36593505,25.0191149 C7.75645934,24.6285906 7.75083845,23.9898048 7.36918946,23.6081558 L3.41618758,19.6551539 L18.6654306,19.6551539 C19.214069,19.6551539 19.6588283,19.2112891 19.6588283,18.6551539 C19.6588283,18.1028691 19.213882,17.6551539 18.6654306,17.6551539 L3.41618758,17.6551539 L3.41618758,17.6551539 Z"></path>
                <path d="M26.2426407,5.6551539 L22.2896388,1.70215202 C21.9009119,1.31342509 21.8996463,0.68443982 22.2928932,0.291192864 C22.6834175,-0.0993314273 23.3222034,-0.0937105322 23.7038524,0.287938453 L29.3672154,5.95130152 C29.5610427,6.14512882 29.6585384,6.39868978 29.6588283,6.65297585 L29.6551485,6.65898738 C29.6543195,6.91448806 29.5575105,7.16871118 29.3672154,7.35900627 L23.7038524,13.0223693 C23.3151254,13.4110963 22.6861402,13.4123619 22.2928932,13.0191149 C21.9023689,12.6285906 21.9079898,11.9898048 22.2896388,11.6081558 L26.2426407,7.6551539 L10.9933977,7.6551539 C10.4447593,7.6551539 10,7.21128907 10,6.6551539 C10,6.10286915 10.4449463,5.6551539 10.9933977,5.6551539 L26.2426407,5.6551539 L26.2426407,5.6551539 Z" id="Combined-Shape" opacity="0.504780784"></path>
            </g>
        </g>
    </g>
</svg>