<?xml version="1.0" encoding="UTF-8" standalone="no"?>
<svg width="440px" height="352px" viewBox="0 0 440 352" version="1.1" xmlns="http://www.w3.org/2000/svg" xmlns:xlink="http://www.w3.org/1999/xlink">
    <!-- Generator: Sketch 39.1 (31720) - http://www.bohemiancoding.com/sketch -->
    <title>rmp-how-it-works-deploy-anywhere</title>
    <desc>Created with Sketch.</desc>
    <defs>
        <linearGradient x1="50%" y1="0%" x2="50%" y2="100%" id="linearGradient-1">
            <stop stop-color="#FCC397" offset="0%"></stop>
            <stop stop-color="#FC9F95" offset="16.0654496%"></stop>
            <stop stop-color="#F77C88" offset="30.0482302%"></stop>
            <stop stop-color="#F25192" offset="42.703683%"></stop>
            <stop stop-color="#D34CA3" offset="56.3317124%"></stop>
            <stop stop-color="#9A50A5" offset="69.1147162%"></stop>
            <stop stop-color="#59569E" offset="83.848852%"></stop>
            <stop stop-color="#39477F" offset="100%"></stop>
        </linearGradient>
    </defs>
    <g id="Diagrams-&amp;-Graphics-" stroke="none" stroke-width="1" fill="none" fill-rule="evenodd">
        <g id="rmp-how-it-works-deploy-anywhere">
            <g id="rmp-what-is-rmp" transform="translate(160.000000, 93.000000)">
                <g id="ROS" transform="translate(59.748889, 83.500000) scale(1, -1) translate(-59.748889, -83.500000) ">
                    <rect id="Combined-Shape" x="0" y="0" width="118.767171" height="166.051136" rx="10"></rect>
                    <polygon id="Rectangle-2" points="27.6913082 42.137329 90.3827449 42.137329 90.3827449 130.53176 24.8464633 130.53176"></polygon>
                    <path d="M0.191140916,80.964755 L0.0202744677,156.758404 C0.00907718836,161.72534 4.02583602,165.772291 8.99501341,165.797538 L58.9085168,166.051136 L87.4126378,136.161932 L30.4043958,136.161932 L30.4043958,102.951705 L0.191140916,80.964755 Z" id="Path-2" fill="#F25192"></path>
                    <path d="M62.4520467,0 C62.4520467,0 39.4186385,10.4393532 31.2789118,31.327326 C23.1391852,52.2152987 30.4043958,102.951705 30.4043958,102.951705 C30.4043958,102.951705 10.5693507,98.9894576 0,80.8498535 L0,9.99486865 C0,4.47485512 4.47885823,0 9.99936324,0 L62.4520467,0 Z" id="Path" fill="#39477F"></path>
                    <path d="M39.9957727,12.2221791 C30.1872741,22.4298762 31.3851528,31.4190618 31.3851528,31.4190618 L90.5850203,32.1900135 L118.767171,80.1789773 L118.767171,9.99260711 C118.767171,4.47384259 114.28905,0.00898888549 108.763388,0.0200804887 L62.4483352,0.113048207 C62.4483352,0.113048207 49.8042712,2.01448198 39.9957727,12.2221791 Z" id="Path-3" fill="#59569E"></path>
                    <path d="M90.6341973,31.7869318 L86.9375691,136.161932 C86.9375691,136.161932 58.4334481,142.690929 58.4334481,166.051136 L109.149703,166.496261 C114.667288,166.544688 119.12097,162.110978 119.097204,156.575373 L118.767171,79.7045455 C111.991473,47.664111 90.6341973,31.7869318 90.6341973,31.7869318 Z" id="Path-4" fill="#D34CA3"></path>
                    <path d="M98.8055496,28.1537916 L98.8055367,27.9914773 L98.7894597,27.9914773 C98.0457704,22.0189506 80.6877528,17.2417048 59.3835855,17.2417048 C38.0794182,17.2417048 20.7214006,22.0189506 19.9777112,27.9914773 L19.9528847,27.9914773 L19.9529153,28.3768162 C19.9528949,28.3814943 19.9528847,28.386173 19.9528847,28.3908525 C19.9528847,28.3957024 19.9528957,28.4005516 19.9529176,28.4054001 L19.9616328,138.221818 C20.4080943,144.269798 37.8869541,149.13375 59.3835855,149.13375 C80.8802169,149.13375 98.3590766,144.269798 98.8142862,138.221818 L98.8055872,28.6274032 C98.811377,28.5487505 98.8142862,28.4698976 98.8142862,28.3908525 C98.8142862,28.3116365 98.8113644,28.2326135 98.8055496,28.1537916 Z" id="Combined-Shape" fill="#FFFFFF"></path>
                </g>
                <path d="M54.9552568,76.7340191 C52.6145996,78.1424224 50.1001246,79.316789 47.585105,80.265611 C46.7048671,80.5976916 45.8882686,80.8775656 45.1568643,81.1065928 C44.9022272,81.1863282 44.6768901,81.2538991 44.4835418,81.3094832 C44.3697457,81.3421976 44.2932776,81.3632949 44.2568232,81.3729567 C44.1509403,81.402976 44.0769149,81.4268931 44.011475,81.4527199 C43.9502412,81.4768867 43.8946346,81.5027484 43.8323616,81.5406219 C43.7547029,81.5886846 43.7547029,81.5886846 43.6217782,81.7119637 C43.4279275,81.9293004 43.4279275,81.9293004 43.3831019,82.5405046 C43.6591861,83.1020968 43.6591861,83.1020968 43.9349994,83.233161 C44.1121831,83.2957152 44.1121831,83.2957152 44.2049145,83.3086962 C44.2784877,83.3184413 44.3405937,83.3195705 44.4072952,83.3167564 C44.477833,83.3137804 44.5553494,83.3055159 44.647045,83.292487 L74.9454725,78.9873998 C74.7734521,78.9744664 74.6860329,78.9526349 74.5856984,78.9038053 C74.3807909,78.8040832 74.2022279,78.6252925 74.1168178,78.3621577 C74.032877,78.10355 74.0697838,77.8605816 74.1711307,77.6631862 C74.220226,77.5675624 74.2745076,77.499934 74.331794,77.4450543 C74.3710165,77.4074795 43.9895911,94.6726923 43.9895911,94.6726923 C43.8715905,94.7397588 43.7700134,94.8104609 43.6783561,94.8981522 C43.5958625,94.9770763 43.5237708,95.0666263 43.4643266,95.1815498 C43.3527179,95.3973229 43.3119175,95.6559789 43.3981437,95.9290145 C43.4865511,96.2089566 43.6774309,96.4026823 43.9030261,96.5136457 C44.0241569,96.5732263 44.139918,96.602431 44.2575544,96.6156719 C44.385944,96.6301231 44.5109652,96.6241145 44.647045,96.604779 L74.9454725,92.2996918 C74.8110938,92.2912221 74.7287791,92.2748785 74.6284871,92.2325769 C74.3840022,92.1294569 74.1682473,91.9229348 74.0898366,91.5930332 C74.0171507,91.2872182 74.0967901,91.0343149 74.2373851,90.8402449 C74.2932106,90.7631863 74.3462795,90.7124551 74.3997479,90.6716453 C74.3931986,90.6648612 74.3003158,90.7088938 74.1670242,90.7731156 C73.9469016,90.8791737 73.6921388,91.0040319 73.405609,91.1470015 C72.5890692,91.5544299 71.6800872,92.0259772 70.7016163,92.5561696 C67.9055573,94.071237 65.109072,95.7544482 62.494743,97.5634821 C57.4577979,101.048891 53.704556,104.574151 51.7519865,108.067098 L53.4112212,108.992131 C55.1910119,105.808267 58.7579489,102.457995 63.5770211,99.1233479 C66.1292406,97.3572918 68.8683429,95.7086196 71.6078715,94.2241837 C72.5668563,93.70455 73.4569404,93.2428062 74.254947,92.8446253 C74.5335084,92.7056317 74.7804082,92.5846271 74.9927533,92.4823163 C75.1189424,92.4215166 75.204813,92.3808083 75.2474741,92.360894 C75.370032,92.3018085 75.465693,92.2465738 75.553662,92.1794312 C75.6351215,92.117257 75.7085716,92.0470425 75.7769759,91.9526207 C75.9300625,91.741308 76.0144539,91.4733142 75.9387413,91.1547645 C75.8573038,90.8121284 75.6307545,90.5952737 75.3678317,90.484377 C75.2489733,90.4342443 75.140409,90.4126888 75.0292703,90.4044484 C74.9149722,90.3959737 74.8027109,90.4031372 74.6777968,90.4208862 L44.3793693,94.7259734 C44.5533056,94.7392181 44.6415472,94.76148 44.7426522,94.8112105 C44.9483705,94.9123971 45.12683,95.0935173 45.2104244,95.3582191 C45.291839,95.6160187 45.2538483,95.8568625 45.1526555,96.0524985 C45.1036999,96.1471445 45.0497695,96.214135 44.992938,96.2685075 C44.9539067,96.3058499 75.3352507,79.0406809 75.3352507,79.0406809 C75.4536522,78.9733865 75.5554332,78.9025321 75.647277,78.8145468 C75.7302048,78.7351029 75.8025905,78.6449189 75.8620886,78.5290333 C75.9737599,78.311529 76.0133668,78.0507846 75.9244939,77.7769815 C75.8341535,77.4986575 75.6430525,77.3073127 75.4181569,77.1978631 C75.297698,77.1392396 75.1826777,77.1105151 75.065819,77.0975213 C74.937943,77.0833025 74.8133259,77.0893369 74.6777968,77.1085942 L44.3793693,81.4136814 C45.3108065,81.2813339 45.6315438,82.9543567 44.7614124,83.2024717 C44.7933223,83.1941864 44.8825264,83.1695752 45.0092224,83.1331524 C45.2166942,83.0735079 45.4563083,83.0016559 45.7254094,82.9173913 C46.4904001,82.6778471 47.3412131,82.3862467 48.2566491,82.0408873 C50.8721265,81.0541663 53.4881484,79.832373 55.935955,78.3594965 C62.2108293,74.5838244 66.3259043,69.8281124 67.1805625,63.9730863 L65.3001622,63.6993396 C64.5430333,68.8862192 60.7906268,73.2228024 54.9552568,76.7340191 Z" id="Path-12-Copy-4" fill="url(#linearGradient-1)"></path>
            </g>
        </g>
    </g>
</svg>