<?xml version="1.0" encoding="UTF-8" standalone="no"?>
<svg width="735px" height="240px" viewBox="0 0 735 240" version="1.1" xmlns="http://www.w3.org/2000/svg" xmlns:xlink="http://www.w3.org/1999/xlink">
    <!-- Generator: Sketch 40.3 (33839) - http://www.bohemiancoding.com/sketch -->
    <title>rmp-what-it-is-ex copy 2</title>
    <desc>Created with Sketch.</desc>
    <defs>
        <path d="M57.3571184,161.396825 C56.8755014,161.409111 56.3923704,161.415291 55.9077996,161.415291 C25.0307745,161.415291 0,136.322205 0,105.368315 C0,74.4144249 25.0307745,49.3213389 55.9077996,49.3213389 C55.9077996,27.034538 73.9299572,8.96751617 96.1614153,8.96751617 C103.741484,8.96751617 110.832202,11.0678919 116.886051,14.7197614 C129.994062,5.44686493 145.987906,0 163.250775,0 C207.713691,0 243.758006,36.1340437 243.758006,80.7076455 C243.758006,81.4574102 243.749751,82.2203168 243.733654,82.995235 C259.380775,88.5280607 270.59375,103.482039 270.59375,121.061468 C270.59375,143.252184 252.726656,161.259427 230.62744,161.414285 C230.627265,161.41496 230.62718,161.415291 230.62718,161.415291 C230.62718,161.415291 177.885804,161.415291 163.250775,161.415291 C138.26818,161.415291 57.3494618,161.415291 57.3494618,161.415291 C57.3494618,161.415291 57.3520312,161.409101 57.3571184,161.396825 Z" id="path-1"></path>
        <mask id="mask-2" maskContentUnits="userSpaceOnUse" maskUnits="objectBoundingBox" x="-4" y="-4" width="278.59375" height="169.415291">
            <rect x="-4" y="-4" width="278.59375" height="169.415291" fill="white"></rect>
            <use xlink:href="#path-1" fill="black"></use>
        </mask>
        <linearGradient x1="50%" y1="0%" x2="50%" y2="100%" id="linearGradient-3">
            <stop stop-color="#FCC397" offset="0%"></stop>
            <stop stop-color="#FC9F95" offset="16.0654496%"></stop>
            <stop stop-color="#F77C88" offset="30.0482302%"></stop>
            <stop stop-color="#F25192" offset="42.703683%"></stop>
            <stop stop-color="#D34CA3" offset="56.3317124%"></stop>
            <stop stop-color="#9A50A5" offset="69.1147162%"></stop>
            <stop stop-color="#59569E" offset="83.848852%"></stop>
            <stop stop-color="#39477F" offset="100%"></stop>
        </linearGradient>
        <path d="M80.8460452,48.8057251 L80.8460452,1.55833903 C80.8460452,0.701249639 80.155303,0 79.3032293,0 L1.54281586,0 C0.698918724,0 0,0.697692148 0,1.55833903 L0,181.899994 C0,182.757084 0.690742188,183.458333 1.54281586,183.458333 L64.8779994,183.458333" id="path-4"></path>
        <mask id="mask-5" maskContentUnits="userSpaceOnUse" maskUnits="objectBoundingBox" x="-3" y="-3" width="86.8460452" height="189.458333">
            <rect x="-3" y="-3" width="86.8460452" height="189.458333" fill="white"></rect>
            <use xlink:href="#path-4" fill="black"></use>
        </mask>
        <path d="M24.8757062,143.035311 L49.7514124,143.035311 L49.7514124,174.129944 L24.8757062,174.129944 L24.8757062,143.035311 Z M9.32838983,15.5461192 C9.32838983,12.1121621 12.1196868,9.32838983 15.5473164,9.32838983 C18.9819347,9.32838983 21.7662429,12.115196 21.7662429,15.5461192 L21.7662429,40.4230226 L9.32838983,40.4230226 L9.32838983,15.5461192 Z M34.204096,15.5461192 C34.204096,12.1121621 36.9953931,9.32838983 40.4230226,9.32838983 C43.8576409,9.32838983 46.6419492,12.115196 46.6419492,15.5461192 L46.6419492,40.4230226 L34.204096,40.4230226 L34.204096,15.5461192 Z M9.32838983,59.0786051 C9.32838983,55.644648 12.1196868,52.8608757 15.5473164,52.8608757 C18.9819347,52.8608757 21.7662429,55.6476819 21.7662429,59.0786051 L21.7662429,83.9555085 L9.32838983,83.9555085 L9.32838983,59.0786051 Z M9.32838983,102.611091 C9.32838983,99.1771338 12.1196868,96.3933616 15.5473164,96.3933616 C18.9819347,96.3933616 21.7662429,99.1801677 21.7662429,102.611091 L21.7662429,127.487994 L9.32838983,127.487994 L9.32838983,102.611091 Z M34.204096,59.0786051 C34.204096,55.644648 36.9953931,52.8608757 40.4230226,52.8608757 C43.8576409,52.8608757 46.6419492,55.6476819 46.6419492,59.0786051 L46.6419492,83.9555085 L34.204096,83.9555085 L34.204096,59.0786051 Z M59.0798023,15.5461192 C59.0798023,12.1121621 61.8710993,9.32838983 65.2987288,9.32838983 C68.7333471,9.32838983 71.5176554,12.115196 71.5176554,15.5461192 L71.5176554,40.4230226 L59.0798023,40.4230226 L59.0798023,15.5461192 Z" id="path-6"></path>
        <mask id="mask-7" maskContentUnits="userSpaceOnUse" maskUnits="objectBoundingBox" x="-3" y="-3" width="68.1892655" height="170.801554">
            <rect x="6.32838983" y="6.32838983" width="68.1892655" height="170.801554" fill="white"></rect>
            <use xlink:href="#path-6" fill="black"></use>
        </mask>
        <path d="M12.4378531,15.5473164 L12.4378531,1.54757609 C12.4378531,0.692873417 13.1350853,0 13.9791402,0 L104.180464,0 C105.031694,0 105.721751,0.708435853 105.721751,1.54757609 L105.721751,15.5473164 L12.4378531,15.5473164 L12.4378531,15.5473164 Z M0,20.196165 C0,19.3459859 0.684776357,18.6567797 1.56018779,18.6567797 L115.044685,18.6567797 C115.906353,18.6567797 116.604873,19.3616475 116.604873,20.196165 L116.604873,132.167536 C116.604873,133.017715 115.920097,133.706921 115.044685,133.706921 L0,133.706921 L0,20.196165 L0,20.196165 Z" id="path-8"></path>
        <mask id="mask-9" maskContentUnits="userSpaceOnUse" maskUnits="objectBoundingBox" x="-3" y="-3" width="122.604873" height="139.706921">
            <rect x="-3" y="-3" width="122.604873" height="139.706921" fill="white"></rect>
            <use xlink:href="#path-8" fill="black"></use>
        </mask>
        <path d="M51.3061441,99.5016277 C51.3061441,96.0676706 54.0974411,93.2838983 57.5250706,93.2838983 C60.9596889,93.2838983 63.7439972,96.0707045 63.7439972,99.5016277 L63.7439972,124.378531 L51.3061441,124.378531 L51.3061441,99.5016277 Z M31.0946328,115.050141 L40.4230226,115.050141 L40.4230226,124.378531 L31.0946328,124.378531 L31.0946328,115.050141 Z M9.32838983,115.050141 L18.6567797,115.050141 L18.6567797,124.378531 L9.32838983,124.378531 L9.32838983,115.050141 Z M31.0946328,93.2838983 L40.4230226,93.2838983 L40.4230226,102.612288 L31.0946328,102.612288 L31.0946328,93.2838983 Z M9.32838983,93.2838983 L18.6567797,93.2838983 L18.6567797,102.612288 L9.32838983,102.612288 L9.32838983,93.2838983 Z M31.0946328,71.5176554 L40.4230226,71.5176554 L40.4230226,80.8460452 L31.0946328,80.8460452 L31.0946328,71.5176554 Z M9.32838983,71.5176554 L18.6567797,71.5176554 L18.6567797,80.8460452 L9.32838983,80.8460452 L9.32838983,71.5176554 Z M31.0946328,49.7514124 L40.4230226,49.7514124 L40.4230226,59.0798023 L31.0946328,59.0798023 L31.0946328,49.7514124 Z M9.32838983,49.7514124 L18.6567797,49.7514124 L18.6567797,59.0798023 L9.32838983,59.0798023 L9.32838983,49.7514124 Z M31.0946328,27.9851695 L40.4230226,27.9851695 L40.4230226,37.3135593 L31.0946328,37.3135593 L31.0946328,27.9851695 Z M74.6271186,115.050141 L83.9555085,115.050141 L83.9555085,124.378531 L74.6271186,124.378531 L74.6271186,115.050141 Z M74.6271186,93.2838983 L83.9555085,93.2838983 L83.9555085,102.612288 L74.6271186,102.612288 L74.6271186,93.2838983 Z M74.6271186,71.5176554 L83.9555085,71.5176554 L83.9555085,80.8460452 L74.6271186,80.8460452 L74.6271186,71.5176554 Z M74.6271186,49.7514124 L83.9555085,49.7514124 L83.9555085,59.0798023 L74.6271186,59.0798023 L74.6271186,49.7514124 Z M74.6271186,27.9851695 L83.9555085,27.9851695 L83.9555085,37.3135593 L74.6271186,37.3135593 L74.6271186,27.9851695 Z M97.9480932,115.050141 L107.276483,115.050141 L107.276483,124.378531 L97.9480932,124.378531 L97.9480932,115.050141 Z M97.9480932,93.2838983 L107.276483,93.2838983 L107.276483,102.612288 L97.9480932,102.612288 L97.9480932,93.2838983 Z M97.9480932,71.5176554 L107.276483,71.5176554 L107.276483,80.8460452 L97.9480932,80.8460452 L97.9480932,71.5176554 Z M97.9480932,49.7514124 L107.276483,49.7514124 L107.276483,59.0798023 L97.9480932,59.0798023 L97.9480932,49.7514124 Z M97.9480932,27.9851695 L107.276483,27.9851695 L107.276483,37.3135593 L97.9480932,37.3135593 L97.9480932,27.9851695 Z M9.32838983,27.9851695 L18.6567797,27.9851695 L18.6567797,37.3135593 L9.32838983,37.3135593 L9.32838983,27.9851695 Z" id="path-10"></path>
        <mask id="mask-11" maskContentUnits="userSpaceOnUse" maskUnits="objectBoundingBox" x="-3" y="-3" width="103.948093" height="102.393362">
            <rect x="6.32838983" y="24.9851695" width="103.948093" height="102.393362" fill="white"></rect>
            <use xlink:href="#path-10" fill="black"></use>
        </mask>
    </defs>
    <g id="Diagrams-&amp;-Graphics-" stroke="none" stroke-width="1" fill="none" fill-rule="evenodd">
        <g id="rmp-what-it-is-ex-copy-2">
            <g id="Group-4" transform="translate(18.000000, 27.000000)">
                <g id="Group" transform="translate(424.000000, 22.000000)">
                    <g id="run-on-premise-copy" stroke-width="8" stroke="#1C233F">
                        <g id="Group-5">
                            <use id="ros" mask="url(#mask-2)" xlink:href="#path-1"></use>
                        </g>
                    </g>
                    <g id="rosDark-Copy" transform="translate(101.000000, 40.000000)">
                        <g id="Group-2" transform="translate(30.806765, 64.578336)"></g>
                        <g id="Group-3">
                            <path d="M0,3.84137652 C0,1.71984285 1.7210409,0 3.85336043,0 L80.8652435,0 C82.9933957,0 84.718604,1.71902745 84.718604,3.84137652 L84.718604,92.2573384 C84.718604,94.3788721 82.9975631,96.098715 80.8652435,96.098715 L3.85336043,96.098715 C1.72520823,96.098715 0,94.3796875 0,92.2573384 L0,3.84137652 L0,3.84137652 L0,3.84137652 Z M84.718604,56.8904393 L84.718604,92.2544251 C84.718604,94.3775678 82.9975631,96.098715 80.8652435,96.098715 L3.85336043,96.098715 C1.72520823,96.098715 0,94.3761042 0,92.2544251 L0,56.8904393 L0,56.8904393 M0,24.9856659 L84.718604,24.9856659 L84.718604,56.8904393 M0,56.8904393 L0,24.9856659 L0,24.9856659 L0,24.9856659 M0,12.4928329 L84.718604,12.4928329 L84.718604,24.9856659 L0,24.9856659 L0,12.4928329 L0,12.4928329 L0,12.4928329 Z M0,3.84167842 C0,1.71997802 1.7210409,0 3.85336043,0 L80.8652435,0 C82.9933957,0 84.718604,1.72395862 84.718604,3.84167842 L84.718604,12.4928329 L0,12.4928329 L0,3.84167842 L0,3.84167842 L0,3.84167842 Z M15.4033825,18.4509533 L77.7870818,18.4509533 L77.7870818,18.8353481 L15.4033825,18.8353481 L15.4033825,18.4509533 L15.4033825,18.4509533 L15.4033825,18.4509533 Z M15.4033825,5.7659229 L77.7870818,5.7659229 L77.7870818,6.15031776 L15.4033825,6.15031776 L15.4033825,5.7659229 L15.4033825,5.7659229 L15.4033825,5.7659229 Z M8.85694496,7.30350234 C9.49497396,7.30350234 10.0121987,6.78720401 10.0121987,6.15031776 C10.0121987,5.5134315 9.49497396,4.99713318 8.85694496,4.99713318 C8.21891597,4.99713318 7.70169127,5.5134315 7.70169127,6.15031776 C7.70169127,6.78720401 8.21891597,7.30350234 8.85694496,7.30350234 L8.85694496,7.30350234 L8.85694496,7.30350234 Z M8.85694496,19.9885327 C9.49497396,19.9885327 10.0121987,19.4722344 10.0121987,18.8353481 C10.0121987,18.1984619 9.49497396,17.6821636 8.85694496,17.6821636 C8.21891597,17.6821636 7.70169127,18.1984619 7.70169127,18.8353481 C7.70169127,19.4722344 8.21891597,19.9885327 8.85694496,19.9885327 L8.85694496,19.9885327 L8.85694496,19.9885327 Z" id="Combined-Shape" stroke="#1C233F" stroke-width="2"></path>
                            <g id="Group" transform="translate(21.179651, 35.748722)">
                                <path d="M43.8867205,7.54489524 L43.8867205,7.34172402 C43.8882147,7.30692436 43.8889643,7.2720653 43.8889643,7.23714848 C43.8889643,3.24018174 34.0664749,0 21.9498201,0 C9.83316539,0 0.0106759756,3.24018174 0.0106759756,7.23714848 C0.0106759756,7.23770981 0.0106761693,7.23827112 0.0106765567,7.23883241 L0.0108308927,41.9795009 C0.167306185,45.9746109 9.98725892,49.2126097 22.0998314,49.2126097 C34.2164861,49.2126097 44.0389755,45.9724279 43.8867205,41.9754612 C43.8890537,41.9142104 43.8890445,41.8531374 43.8867205,41.792251 L43.8867205,41.7922399 L43.8867205,7.56154538 C43.4085759,11.652348 33.9164883,14.7707585 21.9498201,14.7707585 C9.66876206,14.7707585 0.0217088982,11.4863411 0.0217088982,7.23714848 C0.0217088982,10.9818894 8.42182384,14.7707583 21.9498199,14.7707583 C35.1072589,14.7707583 43.4400893,11.1866148 43.8867205,7.54489524 Z" id="Server" stroke="#1C233F" stroke-width="2"></path>
                                <path d="M19.7268916,25.9695857 C18.6242634,26.6771081 17.4382837,27.2573994 16.252046,27.7173142 C15.8370595,27.878208 15.4523744,28.0123239 15.1083415,28.1207454 C14.9050494,28.1848127 14.7627922,28.2255159 14.6918853,28.2440034 C14.4542408,28.3191802 14.2962389,28.3777986 14.1782012,28.4330264 C14.0931924,28.4728005 14.0216898,28.5133287 13.9537839,28.5662823 C13.7182347,28.7499656 13.56131,29.0034343 13.7093209,29.3940892 C13.8301933,29.7131159 14.0329101,29.809526 14.2856334,29.8521218 C14.3633485,29.8652204 14.4416504,29.868659 14.5307784,29.8664492 C14.6626132,29.8631807 14.831832,29.846168 15.0399553,29.8163088 L26.494444,28.1889781 C22.4735302,30.4936065 14.4343111,35.1071124 14.4343111,35.1071124 C13.1091578,35.8675845 13.5355304,37.1031274 15.0399553,36.8872894 L26.0552404,35.3211962 C24.8727036,35.9982767 23.7020653,36.7449148 22.5967201,37.5502683 C20.2551167,39.2563587 18.4683354,41.0327849 17.4551913,42.8627893 L18.6628065,43.5329282 C19.5601417,41.9121051 21.2158074,40.2660346 23.4091626,38.6679578 C24.6459189,37.7668581 25.9744223,36.9380864 27.3031832,36.2019551 C27.7682776,35.9442936 28.1997952,35.7168249 28.5863832,35.5219411 C28.8165768,35.4058977 28.9793356,35.3270967 29.0633364,35.2878937 C30.4507534,34.5747566 30.049518,33.3374343 28.5278463,33.5557466 L17.0515655,35.198089 C17.0518556,35.1982896 29.1334905,28.264943 29.1334905,28.264943 C30.4479301,27.5106192 30.0477266,26.2667106 28.5278463,26.4847659 L19.396898,27.7756418 C19.3931606,27.7760216 20.1187318,27.3600332 20.4719272,27.1333987 C23.4788997,25.2039178 25.4728926,22.7020549 25.9274997,19.5574371 L24.5610248,19.359427 C24.1724692,22.0471522 22.4272975,24.2368191 19.7268916,25.9695857 Z" id="Path-12-Copy-2" fill="url(#linearGradient-3)"></path>
                            </g>
                        </g>
                    </g>
                </g>
                <path d="M354.38,127.82 C353.299995,127.82 352.310004,127.625002 351.41,127.235 C350.509996,126.844998 349.735003,126.310003 349.085,125.63 C348.434997,124.949997 347.925002,124.165004 347.555,123.275 C347.184998,122.384996 347,121.430005 347,120.41 C347,119.389995 347.184998,118.435004 347.555,117.545 C347.925002,116.654996 348.434997,115.870003 349.085,115.19 C349.735003,114.509997 350.509996,113.975002 351.41,113.585 C352.310004,113.194998 353.299995,113 354.38,113 C355.440005,113 356.419995,113.194998 357.32,113.585 C358.220004,113.975002 358.999997,114.509997 359.66,115.19 C360.320003,115.870003 360.834998,116.654996 361.205,117.545 C361.575002,118.435004 361.76,119.389995 361.76,120.41 C361.76,121.430005 361.575002,122.384996 361.205,123.275 C360.834998,124.165004 360.320003,124.949997 359.66,125.63 C358.999997,126.310003 358.220004,126.844998 357.32,127.235 C356.419995,127.625002 355.440005,127.82 354.38,127.82 L354.38,127.82 Z M354.38,125.48 C355.100004,125.48 355.749997,125.335001 356.33,125.045 C356.910003,124.754999 357.399998,124.375002 357.8,123.905 C358.200002,123.434998 358.504999,122.895003 358.715,122.285 C358.925001,121.674997 359.03,121.050003 359.03,120.41 C359.03,119.789997 358.925001,119.175003 358.715,118.565 C358.504999,117.954997 358.195002,117.410002 357.785,116.93 C357.374998,116.449998 356.885003,116.065001 356.315,115.775 C355.744997,115.484999 355.100004,115.34 354.38,115.34 C353.659996,115.34 353.010003,115.484999 352.43,115.775 C351.849997,116.065001 351.360002,116.444998 350.96,116.915 C350.559998,117.385002 350.255001,117.924997 350.045,118.535 C349.834999,119.145003 349.73,119.769997 349.73,120.41 C349.73,121.050003 349.834999,121.669997 350.045,122.27 C350.255001,122.870003 350.564998,123.409998 350.975,123.89 C351.385002,124.370002 351.874997,124.754999 352.445,125.045 C353.015003,125.335001 353.659996,125.48 354.38,125.48 L354.38,125.48 Z M364.82,127.4 L364.82,114.8 L364.82,114.32 C364.82,114.139999 364.81,113.850002 364.79,113.45 L367.37,113.45 L367.46,115.7 C367.620001,115.459999 367.829999,115.195001 368.09,114.905 C368.350001,114.614999 368.664998,114.350001 369.035,114.11 C369.405002,113.869999 369.834998,113.665001 370.325,113.495 C370.815002,113.324999 371.379997,113.24 372.02,113.24 C372.320001,113.24 372.594999,113.26 372.845,113.3 C373.095001,113.34 373.329999,113.4 373.55,113.48 L372.95,116 C372.589998,115.859999 372.130003,115.79 371.57,115.79 C370.989997,115.79 370.455002,115.899999 369.965,116.12 C369.474998,116.340001 369.050002,116.644998 368.69,117.035 C368.329998,117.425002 368.045001,117.879997 367.835,118.4 C367.624999,118.920003 367.52,119.469997 367.52,120.05 L367.52,127.4 L364.82,127.4 Z" id="or" fill="#1C233F"></path>
                <g id="rosDark" transform="translate(0.000000, 81.000000)">
                    <g id="Group-2" transform="translate(33.090909, 69.216000)"></g>
                    <g id="Group-3">
                        <path d="M0,4.11724321 C0,1.84335258 1.84864616,0 4.13906489,0 L86.8609351,0 C89.1468775,0 91,1.84247861 91,4.11724321 L91,98.8827568 C91,101.156647 89.1513538,103 86.8609351,103 L4.13906489,103 C1.85312247,103 0,101.157521 0,98.8827568 L0,4.11724321 L0,4.11724321 L0,4.11724321 Z M91,60.976 L91,98.8796342 C91,101.155249 89.1513538,103 86.8609351,103 L4.13906489,103 C1.85312247,103 0,101.153681 0,98.8796342 L0,60.976 L0,60.976 M0,26.78 L91,26.78 L91,60.976 M0,60.976 L0,26.78 L0,26.78 L0,26.78 M0,13.39 L91,13.39 L91,26.78 L0,26.78 L0,13.39 L0,13.39 L0,13.39 Z M0,4.11756679 C0,1.84349745 1.84864616,0 4.13906489,0 L86.8609351,0 C89.1468775,0 91,1.84776391 91,4.11756679 L91,13.39 L0,13.39 L0,4.11756679 L0,4.11756679 L0,4.11756679 Z M16.5454545,19.776 L83.5545455,19.776 L83.5545455,20.188 L16.5454545,20.188 L16.5454545,19.776 L16.5454545,19.776 L16.5454545,19.776 Z M16.5454545,6.18 L83.5545455,6.18 L83.5545455,6.592 L16.5454545,6.592 L16.5454545,6.18 L16.5454545,6.18 L16.5454545,6.18 Z M9.51363636,7.828 C10.1989715,7.828 10.7545455,7.27462395 10.7545455,6.592 C10.7545455,5.90937605 10.1989715,5.356 9.51363636,5.356 C8.8283012,5.356 8.27272727,5.90937605 8.27272727,6.592 C8.27272727,7.27462395 8.8283012,7.828 9.51363636,7.828 L9.51363636,7.828 L9.51363636,7.828 Z M9.51363636,21.424 C10.1989715,21.424 10.7545455,20.870624 10.7545455,20.188 C10.7545455,19.505376 10.1989715,18.952 9.51363636,18.952 C8.8283012,18.952 8.27272727,19.505376 8.27272727,20.188 C8.27272727,20.870624 8.8283012,21.424 9.51363636,21.424 L9.51363636,21.424 L9.51363636,21.424 Z" id="Combined-Shape" stroke="#1C233F" stroke-width="2"></path>
                        <g id="Group" transform="translate(22.750000, 38.316000)">
                            <path d="M47.1406678,8.08672842 L47.1406678,7.86896655 C47.1422727,7.83166778 47.1430779,7.79430533 47.1430779,7.75688097 C47.1430779,3.47287391 36.5923076,0 23.5772727,0 C10.5622379,0 0.0114675376,3.47287391 0.0114675376,7.75688097 C0.0114675376,7.75748261 0.0114677457,7.75808423 0.0114681619,7.75868583 L0.0116339409,44.9942394 C0.179710974,49.2762564 10.7277566,52.7467906 23.7384064,52.7467906 C36.7534413,52.7467906 47.3042116,49.2739167 47.1406678,44.9899096 C47.143174,44.9242602 47.1431641,44.8588012 47.1406678,44.7935423 L47.1406678,44.7935304 L47.1406678,8.10457428 C46.6270715,12.489156 36.4312004,15.8315137 23.5772727,15.8315137 C10.385645,15.8315137 0.0233184878,12.3112274 0.0233184878,7.75688097 C0.0233184878,11.7705487 9.04625352,15.8315135 23.5772724,15.8315135 C37.7102598,15.8315135 46.6609215,11.9899764 47.1406678,8.08672842 Z" id="Server" stroke="#1C233F" stroke-width="2"></path>
                            <path d="M21.1895269,27.8345796 C20.0051451,28.5929123 18.7312319,29.214877 17.4570415,29.7078203 C17.0112862,29.8802687 16.5980789,30.024016 16.2285379,30.1402238 C16.0101729,30.208892 15.8573682,30.2525184 15.7812039,30.2723335 C15.5259394,30.3529091 15.3562226,30.4157371 15.229433,30.4749311 C15.1381214,30.5175615 15.0613173,30.5610002 14.9883766,30.6177567 C14.7353627,30.8146312 14.5668029,31.0863026 14.725788,31.5050122 C14.8556224,31.8469496 15.0733695,31.9502834 15.3448308,31.9959382 C15.428308,32.0099775 15.5124156,32.013663 15.6081518,32.0112946 C15.7497614,32.0077912 15.9315269,31.9895568 16.1550813,31.9575533 L28.4588543,30.2133566 C24.1398129,32.6834909 15.504532,37.6283135 15.504532,37.6283135 C14.0811263,38.4433986 14.5391119,39.7676714 16.1550813,39.5363332 L27.9870862,37.8577716 C26.7168712,38.5834764 25.4594368,39.3837339 24.2721366,40.2469236 C21.7569169,42.075536 19.837656,43.9795355 18.7493931,45.9409608 L20.0465459,46.6592254 C21.0104134,44.9220037 22.7888372,43.1577213 25.144817,41.4448794 C26.4732717,40.4790677 27.9002759,39.5907781 29.3275568,38.8017819 C29.8271353,38.5256165 30.2906474,38.2818123 30.7058987,38.072933 C30.9531598,37.9485559 31.1279862,37.8640959 31.2182152,37.8220776 C32.7085012,37.0577269 32.2775165,35.7315468 30.6430216,35.9655371 L18.3158408,37.7258236 C18.3161524,37.7260386 31.2935709,30.2947769 31.2935709,30.2947769 C32.7054685,29.4862816 32.2755922,28.1530424 30.6430216,28.3867572 L20.8350661,29.7703368 C20.8310516,29.7707439 21.6104197,29.3248814 21.9898025,29.0819713 C25.2197248,27.0139255 27.3615608,24.3323925 27.8498743,20.9619454 L26.3820832,20.7497154 C25.9647184,23.6304583 24.0901523,25.9773752 21.1895269,27.8345796 Z" id="Path-12-Copy-2" fill="url(#linearGradient-3)"></path>
                        </g>
                    </g>
                </g>
                <g id="buildings" transform="translate(99.000000, 0.000000)" stroke-width="6" stroke="#1C233F">
                    <g id="back-building">
                        <use id="Combined-Shape" mask="url(#mask-5)" xlink:href="#path-4"></use>
                        <use id="back-building-fixtures" mask="url(#mask-7)" xlink:href="#path-6"></use>
                    </g>
                    <g id="front-building" transform="translate(66.853460, 49.751412)">
                        <use id="front-building-outline" mask="url(#mask-9)" xlink:href="#path-8"></use>
                        <use id="front-building-windows" mask="url(#mask-11)" xlink:href="#path-10"></use>
                    </g>
                </g>
            </g>
        </g>
    </g>
</svg>