<?xml version="1.0" encoding="UTF-8"?>
<svg width="340px" height="467px" viewBox="0 0 340 467" version="1.1" xmlns="http://www.w3.org/2000/svg" xmlns:xlink="http://www.w3.org/1999/xlink">
    <!-- Generator: Sketch 43.2 (39069) - http://www.bohemiancoding.com/sketch -->
    <title>rmp-how-it-works-vertical-outlined</title>
    <desc>Created with Sketch.</desc>
    <defs></defs>
    <g id="Page-1" stroke="none" stroke-width="1" fill="none" fill-rule="evenodd">
        <g id="rmp-how-it-works-vertical-outlined">
            <g id="rosWhite" transform="translate(47.406131, 337.541304)" stroke="#FFFFFF" stroke-width="2" stroke-linecap="round" opacity="0.5" stroke-linejoin="round">
                <g id="Group-3" transform="translate(0.000000, 0.000000)">
                    <path d="M44.3880624,57.8105642 C44.3880624,57.8105642 49.8260689,52.9149815 49.8260689,49.8379958 C49.8260689,47.0816482 44.3484398,41.8775216 44.3484398,41.8775216 C43.6694597,41.4414786 44.0135514,41.0879958 45.1130979,41.0879958 L51.1249773,41.0879958 C52.2262664,41.0879958 53.4964585,41.4982904 53.9576362,41.9996371 L58.3293702,48.9263546 C58.7925154,49.4298401 58.7905478,50.2482904 58.3293702,50.7496371 L53.9576362,57.6763546 C53.494491,58.1798401 52.2245239,58.5879958 51.1249773,58.5879958 L45.1130979,58.5879958 C44.0118088,58.5879958 43.6971867,58.2400484 44.3880624,57.8105642 Z M-10.6991631,57.8914002 L-12.7583289,57.8954669 L-12.7583289,36.2526362 C-12.7583289,35.7002495 -12.5986375,34.9318129 -12.4016481,34.5414059 C-12.4016481,34.5414059 -7.08050152,27.6691987 -4.12459428,27.6691987 C-1.16868705,27.6691987 4.03075715,34.5414059 4.03075715,34.5414059 C4.22242206,34.9265236 4.37952511,35.6979568 4.37952511,36.2526362 L4.37952511,40.8247318 L35.12859,40.8247318 C35.6809767,40.8247318 36.4494134,40.9844233 36.8398203,41.1814127 C36.8398203,41.1814127 43.7120276,46.5025592 43.7120275,49.4584665 C43.7120275,52.4143737 36.8398203,57.6138179 36.8398203,57.6138179 C36.4547026,57.8054828 35.6832695,57.9625858 35.12859,57.9625858 L3.51960599,57.9625858 C-0.073207925,57.9625858 -10.7583289,57.9625858 -10.7583289,57.9625858 L-10.6991631,57.8914002 Z M-12.6345726,27.7879292 C-13.0640568,28.478805 -13.4120042,28.1641828 -13.4120042,27.0628938 L-13.4120042,21.0510143 C-13.4120042,19.9514678 -13.0038485,18.6815007 -12.5003629,18.2183555 L-5.5736454,13.8466215 C-5.07229876,13.3854438 -4.25384849,13.3834763 -3.75036295,13.8466215 L3.1763546,18.2183555 C3.67770124,18.6795331 4.08799583,19.9497252 4.08799583,21.0510143 L4.08799583,27.0628938 C4.08799583,28.1624403 3.73451309,28.5065319 3.29847005,27.8275518 C3.29847005,27.8275518 -1.90565652,22.3499228 -4.66200417,22.3499228 C-7.73898985,22.3499228 -12.6345726,27.7879292 -12.6345726,27.7879292 Z" id="data-connector-symbol" transform="translate(22.631994, 36.043998) rotate(90.000000) translate(-22.631994, -36.043998) "></path>
                </g>
            </g>
            <g id="ros" transform="translate(98.000000, 164.000000)">
                <g transform="translate(0.000000, 43.318841)" id="ros-outline" stroke="#FFFFFF" stroke-width="2" opacity="0.5">
                    <path d="M7.09122372,0 L138.908776,0 C142.825151,0 146,2.92209921 146,6.52387141 L146,146.157288 C146,149.760323 142.831926,152.681159 138.908776,152.681159 L7.09122372,152.681159 C3.174849,152.681159 0,149.75906 0,146.157288 L0,6.52387141 C0,2.92083672 3.16807364,0 7.09122372,0 Z M146,54.001484 L0,54.001484 L146,54.001484 Z"></path>
                </g>
                <g id="ros-db-container" transform="translate(15.592233, 117.884058)">
                    <g id="rmd-symbol">
                        <path d="M52.3984475,9.23450793 L52.3984475,8.99187422 C52.4002277,8.95031533 52.4011208,8.9086855 52.4011208,8.86698669 C52.4011208,4.09367845 40.6982685,0.224147563 26.2620686,0.224147563 C11.8258687,0.224147563 0.123016373,4.09367845 0.123016373,8.86698669 C0.123016373,8.86765705 0.123016604,8.86832738 0.123017065,8.8689977 L0.123200946,50.3574388 C0.309631001,55.1285297 12.009461,58.9954537 26.4407972,58.9954537 C40.8769971,58.9954537 52.5798494,55.1259228 52.3984475,50.3526145 C52.4012274,50.2794669 52.4012164,50.2065315 52.3984475,50.133819 L52.3984475,50.1338057 L52.3984475,9.25439206 C51.8287696,14.1397622 40.5195694,17.8638698 26.2620686,17.8638698 C11.6299929,17.8638698 0.136161377,13.9415113 0.136161377,8.86698669 C0.136161377,13.3390786 10.1443477,17.8638696 26.2620683,17.8638696 C41.9382946,17.8638696 51.8663158,13.5835684 52.3984475,9.23450793 Z" id="rmd-symbol-outer" stroke="#FFFFFF" stroke-width="2" opacity="0.5"></path>
                        <path d="M23.551616,31.3288501 C22.2379067,32.1737963 20.8248896,32.8667992 19.4115652,33.4160444 C18.917136,33.6081892 18.4588089,33.7683547 18.0489163,33.8978352 C17.806707,33.9743464 17.6372169,34.0229556 17.552736,34.0450339 C17.2695982,34.1348125 17.0813492,34.2048165 16.940715,34.2707713 C16.8394327,34.3182708 16.754242,34.3666709 16.6733366,34.4299099 C16.392695,34.6492705 16.2057296,34.9519712 16.3820748,35.4185039 C16.5260865,35.799496 16.7676103,35.9146321 17.0687135,35.9655014 C17.161306,35.9811443 17.2545975,35.9852507 17.3607877,35.9826118 C17.5178602,35.9787083 17.7194733,35.9583912 17.9674386,35.9227324 L31.6147111,33.9793209 C26.8240558,36.7315835 17.2458531,42.2411828 17.2458531,42.2411828 C15.6670199,43.1493635 16.1750149,44.6248892 17.9674386,44.3671285 L31.0914287,42.4968487 C29.6825137,43.3054404 28.2877748,44.1971 26.9708285,45.1588795 C24.1809616,47.1963483 22.0521288,49.3178146 20.845034,51.5032656 L22.2838282,52.3035674 C23.3529444,50.3679275 25.3255615,48.4021363 27.9388005,46.4936607 C29.4123146,45.4175381 30.9951393,44.4277918 32.5782708,43.5486798 C33.1324003,43.240972 33.6465252,42.9693215 34.1071195,42.7365849 C34.3813801,42.598002 34.5752965,42.5038954 34.675378,42.4570779 C36.3283944,41.6054263 35.8503487,40.1277755 34.0373766,40.3884911 L20.3641402,42.3498301 C20.3644859,42.3500697 34.758962,34.0700407 34.758962,34.0700407 C36.3250306,33.1692025 35.8482143,31.6836863 34.0373766,31.944095 L23.1584502,33.4857013 C23.1539973,33.4861548 24.0184678,32.9893679 24.439277,32.7187135 C28.0218877,30.4144644 30.3975996,27.426658 30.9392341,23.6712526 L29.3111688,23.4347826 C28.8482303,26.6445518 26.7689726,29.2595236 23.551616,31.3288501 Z" id="rmd-ziggy" fill="#FFFFFF" fill-rule="nonzero"></path>
                    </g>
                </g>
                <g id="ros-identity-container" transform="translate(53.155340, 0.000000)">
                    <path d="M20.9923075,61.2428986 C15.4973984,61.2428986 11.0377621,65.7096533 11.0377621,71.2133333 C11.0377621,76.7170133 15.4973984,81.1837681 20.9923075,81.1837681 C26.4872166,81.1837681 30.946853,76.7170133 30.946853,71.2133333 C30.946853,65.7096533 26.4872166,61.2428986 20.9923075,61.2428986 L20.9923075,61.2428986 Z M20.9923075,64.234029 C22.6447621,64.234029 23.9786712,65.5700672 23.9786712,67.2251594 C23.9786712,68.8802516 22.6447621,70.2162899 20.9923075,70.2162899 C19.339853,70.2162899 18.0059439,68.8802516 18.0059439,67.2251594 C18.0059439,65.5700672 19.339853,64.234029 20.9923075,64.234029 L20.9923075,64.234029 Z M20.9923075,78.3920464 C18.5036712,78.3920464 16.3037166,77.1158307 15.0195803,75.1815664 C15.0494439,73.1974499 19.0013984,72.1106725 20.9923075,72.1106725 C22.9732621,72.1106725 26.9351712,73.1974499 26.9650348,75.1815664 C25.6808984,77.1158307 23.4809439,78.3920464 20.9923075,78.3920464 L20.9923075,78.3920464 Z" id="ros-identity" stroke="#FFFFFF" stroke-width="2" opacity="0.5"></path>
                    <rect id="ros-identity-target" fill-opacity="0" fill="#D8D8D8" x="0" y="0" width="41.815534" height="98"></rect>
                </g>
                <g id="Functions" transform="translate(80.796117, 122.144928)">
                    <path d="M23.4262228,20.2360288 C22.2007496,21.0248677 20.8826388,21.6718528 19.5642411,22.1846262 C19.1030206,22.3640118 18.6754773,22.5135418 18.2931154,22.6344244 C18.0671743,22.705855 17.9090681,22.7512363 17.8302614,22.7718486 C17.5661407,22.8556655 17.3905356,22.921021 17.2593471,22.9825962 C17.1648675,23.0269416 17.0853987,23.0721278 17.0099274,23.1311674 C16.7481353,23.3359617 16.5737275,23.618562 16.7382284,24.0541154 C16.8725674,24.4098082 17.0978691,24.5172989 17.3787485,24.5647903 C17.465122,24.5793944 17.5521476,24.5832282 17.6512053,24.5807644 C17.797728,24.5771202 17.9857997,24.5581522 18.2171102,24.5248613 L30.9477551,22.7104992 C26.4788672,25.2800018 17.5439905,30.4237444 17.5439905,30.4237444 C16.0712006,31.2716187 16.5450758,32.6491643 18.2171102,32.4085198 L30.4596193,30.6624332 C29.1453349,31.4173315 27.8442746,32.2497818 26.6157818,33.1476958 C24.013298,35.0498695 22.0274496,37.030463 20.9014301,39.0707924 L22.2435868,39.8179513 C23.2408951,38.0108447 25.0810202,36.1755889 27.5187393,34.3938429 C28.8932839,33.3891786 30.3697972,32.4651549 31.8465967,31.644419 C32.3635078,31.3571441 32.8431011,31.1035321 33.2727593,30.88625 C33.528599,30.7568696 33.7094909,30.6690119 33.8028503,30.6253033 C35.3448408,29.8302043 34.8989034,28.4506747 33.2077007,28.694078 L20.4528359,30.5251771 C20.4531584,30.5254008 33.8808204,22.7951948 33.8808204,22.7951948 C35.341703,21.9541755 34.8969124,20.5673027 33.2077007,20.8104194 L23.0594642,22.2496576 C23.0553105,22.250081 23.8617183,21.7862824 24.2542635,21.5336005 C27.5962459,19.3823616 29.8123916,16.592956 30.3176469,13.0869228 L28.7989317,12.8661552 C28.3670867,15.8627844 26.4274836,18.3041129 23.4262228,20.2360288 Z" id="rmd-ziggy-copy" fill="#FFFFFF" fill-rule="nonzero"></path>
                    <g id="ros-event-handling-container-copy" stroke="#FFFFFF" stroke-width="2" opacity="0.5">
                        <path d="M44.6846567,28.7579256 C44.7880103,27.9291003 44.8655255,27.1002751 44.8655255,26.2196483 C44.8655255,25.3390215 44.7880103,24.5101963 44.6846567,23.681371 L50.1365596,19.4077409 C50.6274892,19.0192291 50.7566812,18.3199078 50.4466204,17.7500904 L45.27894,8.7884176 C44.9688792,8.21860025 44.2712423,8.01139394 43.7027974,8.21860025 L37.2690353,10.8086791 C35.9254384,9.77264756 34.4784879,8.91792154 32.9023454,8.27040182 L31.9204861,1.40669286 C31.8429709,0.785073931 31.3003644,0.318859737 30.6544044,0.318859737 L20.3190435,0.318859737 C19.6730835,0.318859737 19.130477,0.785073931 19.0529618,1.40669286 L18.0711026,8.27040182 C16.49496,8.91792154 15.0480095,9.79854835 13.7044126,10.8086791 L7.27065048,8.21860025 C6.67636723,7.98549315 6.00456878,8.21860025 5.69450795,8.7884176 L0.526827532,17.7500904 C0.190928305,18.3199078 0.345958717,19.0192291 0.836888357,19.4077409 L6.2887912,23.681371 C6.18543759,24.5101963 6.10792239,25.3649223 6.10792239,26.2196483 C6.10792239,27.0743743 6.18543759,27.9291003 6.2887912,28.7579256 L0.836888357,33.0315557 C0.345958717,33.4200675 0.216766707,34.1193888 0.526827532,34.6892062 L5.69450795,43.650879 C6.00456878,44.2206963 6.70220564,44.4279027 7.27065048,44.2206963 L13.7044126,41.6306175 C15.0480095,42.666649 16.49496,43.5213751 18.0711026,44.1688948 L19.0529618,51.0326037 C19.130477,51.6542227 19.6730835,52.1204369 20.3190435,52.1204369 L30.6544044,52.1204369 C31.3003644,52.1204369 31.8429709,51.6542227 31.9204861,51.0326037 L32.9023454,44.1688948 C34.4784879,43.5213751 35.9254384,42.6407482 37.2690353,41.6306175 L43.7027974,44.2206963 C44.2970807,44.4538034 44.9688792,44.2206963 45.27894,43.650879 L50.4466204,34.6892062 C50.7566812,34.1193888 50.6274892,33.4200675 50.1365596,33.0315557 L44.6846567,28.7579256 L44.6846567,28.7579256 Z" id="ros-event-handling"></path>
                    </g>
                </g>
                <g id="ros-event-handling-container">
                    <rect id="ros-event-handling-target" fill-opacity="0" fill="#D8D8D8" x="0" y="0" width="48.9029126" height="98"></rect>
                    <g id="Analytics-icon" transform="translate(22.679612, 62.492754)" stroke="#8D919F">
                        <path d="M19.6700262,3.2987021 L19.6700262,15.4561515 C19.6700262,16.2935725 19.0029585,16.9637681 18.1700355,16.9637681 L4.00276605,16.9637681 L19.6700262,3.2987021 Z" id="Rectangle" stroke-width="3" transform="translate(10.585494, 9.231884) scale(-1, 1) translate(-10.585494, -9.231884) "></path>
                        <rect id="Rectangle-2" stroke-width="2" x="4.54368932" y="10.2318841" width="1.54368932" height="3.68115942"></rect>
                        <rect id="Rectangle-2-Copy" stroke-width="2" x="10.2135922" y="7.39130435" width="1.54368932" height="6.52173913"></rect>
                        <rect id="Rectangle-2-Copy-2" stroke-width="2" x="15.8834951" y="3.13043478" width="1.54368932" height="10.7826087"></rect>
                    </g>
                </g>
                <g id="ros-rules-engine-container" transform="translate(99.223301, 0.000000)">
                    <path d="M25.1394979,62.1291594 L20.5161645,62.1291594 C20.0516191,60.8440812 18.8349524,59.9135072 17.3970736,59.9135072 C15.9591949,59.9135072 14.7425282,60.8440812 14.2779827,62.1291594 L9.6546494,62.1291594 C8.43798273,62.1291594 7.44252818,63.1262029 7.44252818,64.3448116 L7.44252818,79.8543768 C7.44252818,81.0729855 8.43798273,82.070029 9.6546494,82.070029 L25.1394979,82.070029 C26.3561645,82.070029 27.3516191,81.0729855 27.3516191,79.8543768 L27.3516191,64.3448116 C27.3516191,63.1262029 26.3561645,62.1291594 25.1394979,62.1291594 L25.1394979,62.1291594 Z M17.3970736,62.1291594 C18.005407,62.1291594 18.5031342,62.6276812 18.5031342,63.2369855 C18.5031342,63.8462899 18.005407,64.3448116 17.3970736,64.3448116 C16.7887403,64.3448116 16.291013,63.8462899 16.291013,63.2369855 C16.291013,62.6276812 16.7887403,62.1291594 17.3970736,62.1291594 L17.3970736,62.1291594 Z M15.1849524,77.6387246 L10.76071,73.2074203 L12.3202555,71.6453855 L15.1849524,74.5035768 L22.4738918,67.2030029 L24.0334373,68.7761159 L15.1849524,77.6387246 L15.1849524,77.6387246 Z" id="ros-rules-engine" stroke="#FFFFFF" stroke-width="2" opacity="0.5"></path>
                    <rect id="ros-rules-engine-target" fill-opacity="0" fill="#D8D8D8" x="0" y="0" width="46.776699" height="98"></rect>
                </g>
            </g>
            <g id="Group-3" transform="translate(248.394265, 335.000000)">
                <polyline id="Path-16" stroke="#FFFFFF" stroke-width="2" opacity="0.497493004" stroke-dasharray="4,4,4,4" points="3.69557852 0.914793779 27.2775609 0.914793779 27.2775602 39.4941395"></polyline>
                <path d="M5.216,108.328 L8.784,108.328 C9.62667088,108.328 10.4026631,108.431999 11.112,108.64 C11.8213369,108.848001 12.4319974,109.173331 12.944,109.616 C13.4560026,110.058669 13.8559986,110.615997 14.144,111.288 C14.4320014,111.960003 14.576,112.759995 14.576,113.688 C14.576,114.584004 14.4320014,115.36533 14.144,116.032 C13.8559986,116.69867 13.4560026,117.253331 12.944,117.696 C12.4319974,118.138669 11.8186702,118.466666 11.104,118.68 C10.3893298,118.893334 9.61067088,119 8.768,119 L5.216,119 L5.216,108.328 Z M8.736,117.624 C10.06934,117.624 11.106663,117.296003 11.848,116.64 C12.589337,115.983997 12.96,115.010673 12.96,113.72 C12.96,112.41866 12.6026702,111.424003 11.888,110.736 C11.1733298,110.047997 10.1066738,109.704 8.688,109.704 L6.752,109.704 L6.752,117.624 L8.736,117.624 Z M21.008,118.104 C20.7306653,118.477335 20.3653356,118.754666 19.912,118.936 C19.4586644,119.117334 18.9920024,119.208 18.512,119.208 C18.2026651,119.208 17.8960015,119.168 17.592,119.088 C17.2879985,119.008 17.0106679,118.874668 16.76,118.688 C16.5093321,118.501332 16.3066674,118.261335 16.152,117.968 C15.9973326,117.674665 15.92,117.314669 15.92,116.888 C15.92,116.087996 16.1999972,115.448002 16.76,114.968 C17.3200028,114.487998 18.1279947,114.248 19.184,114.248 C19.3546675,114.248 19.535999,114.253333 19.728,114.264 C19.920001,114.274667 20.1013325,114.285333 20.272,114.296 C20.4426675,114.306667 20.5919994,114.317333 20.72,114.328 C20.8480006,114.338667 20.9386664,114.349333 20.992,114.36 L20.992,114.088 C20.992,113.533331 20.8240017,113.136001 20.488,112.896 C20.1519983,112.655999 19.6960029,112.536 19.12,112.536 C18.5546638,112.536 18.1066683,112.613333 17.776,112.768 C17.4453317,112.922667 17.1680011,113.079999 16.944,113.24 L16.272,112.264 C16.4000006,112.157333 16.5546658,112.050667 16.736,111.944 C16.9173342,111.837333 17.1306654,111.738667 17.376,111.648 C17.6213346,111.557333 17.8986651,111.482667 18.208,111.424 C18.5173349,111.365333 18.8746646,111.336 19.28,111.336 C20.2400048,111.336 20.9946639,111.567998 21.544,112.032 C22.0933361,112.496002 22.368,113.154662 22.368,114.008 L22.368,118.344 L22.368,118.624 C22.368,118.725334 22.3733333,118.850666 22.384,119 L21.04,119 L21.008,118.104 Z M20.992,115.48 C20.9493331,115.469333 20.8666673,115.456 20.744,115.44 C20.6213327,115.424 20.4800008,115.410667 20.32,115.4 C20.1599992,115.389333 19.9893342,115.378667 19.808,115.368 C19.6266658,115.357333 19.4506675,115.352 19.28,115.352 C18.8746646,115.352 18.5466679,115.4 18.296,115.496 C18.0453321,115.592 17.8480007,115.711999 17.704,115.856 C17.5599993,116.000001 17.4613336,116.159999 17.408,116.336 C17.3546664,116.512001 17.328,116.679999 17.328,116.84 C17.328,117.245335 17.4666653,117.551999 17.744,117.76 C18.0213347,117.968001 18.4053309,118.072 18.896,118.072 C19.1733347,118.072 19.4373321,118.024 19.688,117.928 C19.9386679,117.832 20.159999,117.704001 20.352,117.544 C20.544001,117.383999 20.6986661,117.197334 20.816,116.984 C20.9333339,116.770666 20.992,116.552001 20.992,116.328 L20.992,115.48 Z M24.816,117.128 C25.082668,117.394668 25.4026648,117.607999 25.776,117.768 C26.1493352,117.928001 26.5813309,118.008 27.072,118.008 C27.5520024,118.008 27.9519984,117.930667 28.272,117.776 C28.5920016,117.621333 28.752,117.378668 28.752,117.048 C28.752,116.877332 28.7173337,116.730667 28.648,116.608 C28.5786663,116.485333 28.4613342,116.376 28.296,116.28 C28.1306658,116.184 27.9120014,116.096 27.64,116.016 C27.3679986,115.936 27.0293354,115.848 26.624,115.752 C26.3359986,115.688 26.0506681,115.602667 25.768,115.496 C25.4853319,115.389333 25.2320011,115.248001 25.008,115.072 C24.7839989,114.895999 24.6026674,114.682668 24.464,114.432 C24.3253326,114.181332 24.256,113.880002 24.256,113.528 C24.256,113.165332 24.3386658,112.848001 24.504,112.576 C24.6693342,112.303999 24.8906653,112.074668 25.168,111.888 C25.4453347,111.701332 25.7573316,111.56 26.104,111.464 C26.4506684,111.368 26.8106648,111.32 27.184,111.32 C27.8133365,111.32 28.3546644,111.402666 28.808,111.568 C29.2613356,111.733334 29.658665,111.965332 30,112.264 L29.216,113.256 C28.9919989,113.053332 28.7120017,112.882667 28.376,112.744 C28.0399983,112.605333 27.6480022,112.536 27.2,112.536 C26.741331,112.536 26.3733347,112.610666 26.096,112.76 C25.8186653,112.909334 25.68,113.154665 25.68,113.496 C25.68,113.816002 25.8639982,114.053333 26.232,114.208 C26.6000018,114.362667 27.0826637,114.509333 27.68,114.648 C28.0320018,114.733334 28.3599985,114.831999 28.664,114.944 C28.9680015,115.056001 29.2346655,115.199999 29.464,115.376 C29.6933345,115.552001 29.874666,115.767999 30.008,116.024 C30.141334,116.280001 30.208,116.589332 30.208,116.952 C30.208,117.325335 30.1226675,117.653332 29.952,117.936 C29.7813325,118.218668 29.5520014,118.455999 29.264,118.648 C28.9759986,118.840001 28.6453352,118.984 28.272,119.08 C27.8986648,119.176 27.5093354,119.224 27.104,119.224 C25.695993,119.224 24.6400035,118.845337 23.936,118.088 L24.816,117.128 Z M31.872,108.328 L33.296,108.328 L33.296,112.664 C33.3920005,112.535999 33.5093326,112.397334 33.648,112.248 C33.7866674,112.098666 33.9573323,111.960001 34.16,111.832 C34.3626677,111.703999 34.597332,111.597334 34.864,111.512 C35.130668,111.426666 35.434665,111.384 35.776,111.384 C36.7466715,111.384 37.4666643,111.666664 37.936,112.232 C38.4053357,112.797336 38.64,113.565328 38.64,114.536 L38.64,119 L37.2,119 L37.2,114.648 C37.2,113.954663 37.0506682,113.445335 36.752,113.12 C36.4533318,112.794665 36.0320027,112.632 35.488,112.632 C35.0719979,112.632 34.7253347,112.717332 34.448,112.888 C34.1706653,113.058668 33.9493342,113.279999 33.784,113.552 C33.6186658,113.824001 33.498667,114.133332 33.424,114.48 C33.349333,114.826668 33.312,115.181332 33.312,115.544 L33.312,119 L31.872,119 L31.872,108.328 Z M40.576,108.328 L42.016,108.328 L42.016,112.376 C42.090667,112.28 42.194666,112.173334 42.328,112.056 C42.461334,111.938666 42.623999,111.829334 42.816,111.728 C43.008001,111.626666 43.2293321,111.544 43.48,111.48 C43.7306679,111.416 44.0106651,111.384 44.32,111.384 C44.8746694,111.384 45.3626646,111.482666 45.784,111.68 C46.2053354,111.877334 46.5599986,112.149332 46.848,112.496 C47.1360014,112.842668 47.3519993,113.250664 47.496,113.72 C47.6400007,114.189336 47.712,114.690664 47.712,115.224 C47.712,115.81067 47.6106677,116.349331 47.408,116.84 C47.2053323,117.330669 46.9200018,117.751998 46.552,118.104 C46.1839982,118.456002 45.7440026,118.730666 45.232,118.928 C44.7199974,119.125334 44.1546698,119.224 43.536,119.224 C42.927997,119.224 42.3626693,119.176 41.84,119.08 C41.3173307,118.984 40.8960016,118.872001 40.576,118.744 L40.576,108.328 Z M42,117.768 C42.1493341,117.810667 42.3333322,117.856 42.552,117.904 C42.7706678,117.952 43.0933312,117.976 43.52,117.976 C43.9360021,117.976 44.3093317,117.909334 44.64,117.776 C44.9706683,117.642666 45.2559988,117.456001 45.496,117.216 C45.7360012,116.975999 45.9199994,116.688002 46.048,116.352 C46.1760006,116.015998 46.24,115.650669 46.24,115.256 C46.24,114.914665 46.2000004,114.586668 46.12,114.272 C46.0399996,113.957332 45.9120009,113.680001 45.736,113.44 C45.5599991,113.199999 45.338668,113.008001 45.072,112.864 C44.805332,112.719999 44.4800019,112.648 44.096,112.648 C43.7439982,112.648 43.4373346,112.709333 43.176,112.832 C42.9146654,112.954667 42.6960009,113.114666 42.52,113.312 C42.3439991,113.509334 42.2133338,113.738665 42.128,114 C42.0426662,114.261335 42,114.530665 42,114.808 L42,117.768 Z M52.928,119.224 C52.3519971,119.224 51.8240024,119.120001 51.344,118.912 C50.8639976,118.703999 50.4506684,118.418668 50.104,118.056 C49.7573316,117.693332 49.4853343,117.274669 49.288,116.8 C49.0906657,116.325331 48.992,115.816003 48.992,115.272 C48.992,114.727997 49.0906657,114.218669 49.288,113.744 C49.4853343,113.269331 49.7573316,112.850668 50.104,112.488 C50.4506684,112.125332 50.8639976,111.840001 51.344,111.632 C51.8240024,111.423999 52.3519971,111.32 52.928,111.32 C53.4933362,111.32 54.0159976,111.423999 54.496,111.632 C54.9760024,111.840001 55.3919982,112.125332 55.744,112.488 C56.0960018,112.850668 56.3706657,113.269331 56.568,113.744 C56.7653343,114.218669 56.864,114.727997 56.864,115.272 C56.864,115.816003 56.7653343,116.325331 56.568,116.8 C56.3706657,117.274669 56.0960018,117.693332 55.744,118.056 C55.3919982,118.418668 54.9760024,118.703999 54.496,118.912 C54.0159976,119.120001 53.4933362,119.224 52.928,119.224 L52.928,119.224 Z M52.928,117.976 C53.3120019,117.976 53.6586651,117.898667 53.968,117.744 C54.2773349,117.589333 54.5386656,117.386668 54.752,117.136 C54.9653344,116.885332 55.1279994,116.597335 55.24,116.272 C55.3520006,115.946665 55.408,115.613335 55.408,115.272 C55.408,114.941332 55.3520006,114.613335 55.24,114.288 C55.1279994,113.962665 54.9626678,113.672001 54.744,113.416 C54.5253322,113.159999 54.2640015,112.954667 53.96,112.8 C53.6559985,112.645333 53.3120019,112.568 52.928,112.568 C52.5439981,112.568 52.1973349,112.645333 51.888,112.8 C51.5786651,112.954667 51.3173344,113.157332 51.104,113.408 C50.8906656,113.658668 50.7280006,113.946665 50.616,114.272 C50.5039994,114.597335 50.448,114.930665 50.448,115.272 C50.448,115.613335 50.5039994,115.943998 50.616,116.264 C50.7280006,116.584002 50.8933322,116.871999 51.112,117.128 C51.3306678,117.384001 51.5919985,117.589333 51.896,117.744 C52.2000015,117.898667 52.5439981,117.976 52.928,117.976 L52.928,117.976 Z M63.152,118.104 C62.8746653,118.477335 62.5093356,118.754666 62.056,118.936 C61.6026644,119.117334 61.1360024,119.208 60.656,119.208 C60.3466651,119.208 60.0400015,119.168 59.736,119.088 C59.4319985,119.008 59.1546679,118.874668 58.904,118.688 C58.6533321,118.501332 58.4506674,118.261335 58.296,117.968 C58.1413326,117.674665 58.064,117.314669 58.064,116.888 C58.064,116.087996 58.3439972,115.448002 58.904,114.968 C59.4640028,114.487998 60.2719947,114.248 61.328,114.248 C61.4986675,114.248 61.679999,114.253333 61.872,114.264 C62.064001,114.274667 62.2453325,114.285333 62.416,114.296 C62.5866675,114.306667 62.7359994,114.317333 62.864,114.328 C62.9920006,114.338667 63.0826664,114.349333 63.136,114.36 L63.136,114.088 C63.136,113.533331 62.9680017,113.136001 62.632,112.896 C62.2959983,112.655999 61.8400029,112.536 61.264,112.536 C60.6986638,112.536 60.2506683,112.613333 59.92,112.768 C59.5893317,112.922667 59.3120011,113.079999 59.088,113.24 L58.416,112.264 C58.5440006,112.157333 58.6986658,112.050667 58.88,111.944 C59.0613342,111.837333 59.2746654,111.738667 59.52,111.648 C59.7653346,111.557333 60.0426651,111.482667 60.352,111.424 C60.6613349,111.365333 61.0186646,111.336 61.424,111.336 C62.3840048,111.336 63.1386639,111.567998 63.688,112.032 C64.2373361,112.496002 64.512,113.154662 64.512,114.008 L64.512,118.344 L64.512,118.624 C64.512,118.725334 64.5173333,118.850666 64.528,119 L63.184,119 L63.152,118.104 Z M63.136,115.48 C63.0933331,115.469333 63.0106673,115.456 62.888,115.44 C62.7653327,115.424 62.6240008,115.410667 62.464,115.4 C62.3039992,115.389333 62.1333342,115.378667 61.952,115.368 C61.7706658,115.357333 61.5946675,115.352 61.424,115.352 C61.0186646,115.352 60.6906679,115.4 60.44,115.496 C60.1893321,115.592 59.9920007,115.711999 59.848,115.856 C59.7039993,116.000001 59.6053336,116.159999 59.552,116.336 C59.4986664,116.512001 59.472,116.679999 59.472,116.84 C59.472,117.245335 59.6106653,117.551999 59.888,117.76 C60.1653347,117.968001 60.5493309,118.072 61.04,118.072 C61.3173347,118.072 61.5813321,118.024 61.832,117.928 C62.0826679,117.832 62.303999,117.704001 62.496,117.544 C62.688001,117.383999 62.8426661,117.197334 62.96,116.984 C63.0773339,116.770666 63.136,116.552001 63.136,116.328 L63.136,115.48 Z M66.48,119 L66.48,112.28 L66.48,112.024 C66.48,111.928 66.4746667,111.773334 66.464,111.56 L67.84,111.56 L67.888,112.76 C67.9733338,112.631999 68.0853326,112.490667 68.224,112.336 C68.3626674,112.181333 68.5306657,112.040001 68.728,111.912 C68.9253343,111.783999 69.1546654,111.674667 69.416,111.584 C69.6773346,111.493333 69.978665,111.448 70.32,111.448 C70.4800008,111.448 70.626666,111.458667 70.76,111.48 C70.893334,111.501333 71.0186661,111.533333 71.136,111.576 L70.816,112.92 C70.623999,112.845333 70.3786682,112.808 70.08,112.808 C69.7706651,112.808 69.4853346,112.866666 69.224,112.984 C68.9626654,113.101334 68.736001,113.263999 68.544,113.472 C68.351999,113.680001 68.2000006,113.922665 68.088,114.2 C67.9759994,114.477335 67.92,114.770665 67.92,115.08 L67.92,119 L66.48,119 Z M77.264,113.208 C77.071999,113.047999 76.8266682,112.914667 76.528,112.808 C76.2293318,112.701333 75.8666688,112.648 75.44,112.648 C75.0879982,112.648 74.7653348,112.711999 74.472,112.84 C74.1786652,112.968001 73.9226678,113.149332 73.704,113.384 C73.4853322,113.618668 73.3146673,113.906665 73.192,114.248 C73.0693327,114.589335 73.008,114.973331 73.008,115.4 C73.008,115.752002 73.0506662,116.085332 73.136,116.4 C73.2213338,116.714668 73.3519991,116.989332 73.528,117.224 C73.7040009,117.458668 73.9279986,117.642666 74.2,117.776 C74.4720014,117.909334 74.7946648,117.976 75.168,117.976 C75.5413352,117.976 75.861332,117.906667 76.128,117.768 C76.394668,117.629333 76.6106658,117.456001 76.776,117.248 C76.9413342,117.039999 77.0639996,116.810668 77.144,116.56 C77.2240004,116.309332 77.264,116.077334 77.264,115.864 L77.264,113.208 Z M77.264,118.056 C77.2106664,118.12 77.1226673,118.218666 77,118.352 C76.8773327,118.485334 76.7146677,118.615999 76.512,118.744 C76.3093323,118.872001 76.0720014,118.984 75.8,119.08 C75.5279986,119.176 75.2106685,119.224 74.848,119.224 C74.3786643,119.224 73.9413354,119.133334 73.536,118.952 C73.1306646,118.770666 72.7786682,118.514668 72.48,118.184 C72.1813318,117.853332 71.9493342,117.450669 71.784,116.976 C71.6186658,116.501331 71.536,115.97067 71.536,115.384 C71.536,114.679996 71.6586654,114.074669 71.904,113.568 C72.1493346,113.061331 72.4613314,112.645335 72.84,112.32 C73.2186686,111.994665 73.6293311,111.757334 74.072,111.608 C74.5146689,111.458666 74.9333314,111.384 75.328,111.384 C75.7333354,111.384 76.0826652,111.426666 76.376,111.512 C76.6693348,111.597334 76.9653318,111.714666 77.264,111.864 L77.264,108.328 L78.704,108.328 L78.704,118.248 L78.704,118.544 C78.704,118.698667 78.7093333,118.850666 78.72,119 L77.312,119 L77.264,118.056 Z" id="Dashboard" fill="#FFFFFF" opacity="0.5"></path>
                <g id="dashboard" transform="translate(0.605735, 27.000000)">
                    <path d="M45.6120829,61.3262101 L72.5842294,61.3262101 L72.5842294,57.7119881 M6.39426523,57.7119881 L6.39426523,61.3262101 L33.7886762,61.3262101 L33.7886762,64.8910908 L45.6120829,64.8910908 L45.6120848,60.3299866 L45.6120829,61.3262101 M6.39426523,18.5402 L72.5842294,18.5402 L72.5842294,57.7119881 M6.39426523,17.4184234 L6.39426523,18.5402 L6.39426523,57.7119881 L6.39426523,17.4184234 Z M49.0250896,65.3926675 L49.0250896,66.0156078 L48.4641577,66.0156078 L30.5143369,66.0156078 L29.953405,66.0156078 L29.953405,65.3926675 L30.5143369,65.3926675 L48.4641577,65.3926675 L49.0250896,65.3926675 Z" id="dashboard-outline" stroke="#FFFFFF" stroke-width="2" opacity="0.498717351"></path>
                    <path d="M13,50.0092049 C13,51.1017876 13.8954305,52 15,52 C16.1122704,52 17,51.1086907 17,50.0092049 L17,33.9907951 C17,32.8982124 16.1045695,32 15,32 C13.8877296,32 13,32.8913093 13,33.9907951 L13,50.0092049 Z M11,33.9907951 C11,31.7832114 12.7866918,30 15,30 C17.2057565,30 19,31.7902633 19,33.9907951 L19,50.0092049 C19,52.2167886 17.2133082,54 15,54 C12.7942435,54 11,52.2097367 11,50.0092049 L11,33.9907951 Z M22,49.9950534 C22,51.1029738 22.8954305,52 24,52 C25.1122704,52 26,51.1023548 26,49.9950534 L26,30.0049466 C26,28.8970262 25.1045695,28 24,28 C22.8877296,28 22,28.8976452 22,30.0049466 L22,49.9950534 Z M20,30.0049466 C20,27.7926941 21.783515,26 24,26 C26.210364,26 28,27.7936797 28,30.0049466 L28,49.9950534 C28,52.2073059 26.216485,54 24,54 C21.789636,54 20,52.2063203 20,49.9950534 L20,30.0049466 Z M31,49.9998938 C31,51.1099416 31.8954305,52 33,52 C34.1122704,52 35,51.104522 35,49.9998938 L35,37.0001062 C35,35.8900584 34.1045695,35 33,35 C31.8877296,35 31,35.895478 31,37.0001062 L31,49.9998938 Z M29,37.0001062 C29,34.7894559 30.7846019,33 33,33 C35.2102,33 37,34.7865449 37,37.0001062 L37,49.9998938 C37,52.2105441 35.2153981,54 33,54 C30.7898,54 29,52.2134551 29,49.9998938 L29,37.0001062 Z" id="graph-bar" fill="#FFFFFF" fill-rule="nonzero" opacity="0.5"></path>
                    <path d="M68.9563485,41.1138147 C68.3638179,48.9029592 61.8550506,54.9621104 54,54.9621104 C45.7157288,54.9621104 39,48.2463816 39,39.9621104 C39,32.1070598 45.0591512,25.5982925 52.8482956,25.0057619 L55,24.8420788 L55,27 L55,31.0170391 L55,32.8081333 L53.2197502,33.00493 C49.6961852,33.3944403 47,36.3860546 47,39.9621104 C47,43.8281036 50.1340068,46.9621104 54,46.9621104 C57.5760558,46.9621104 60.5676701,44.2659252 60.9571804,40.7423602 L61.153977,38.9621104 L62.9450712,38.9621104 L66.9621104,38.9621104 L69.1200315,38.9621104 L68.9563485,41.1138147 Z M54,52.9621104 C60.8432298,52.9621104 66.4514855,47.6745581 66.9621104,40.9621104 L62.9450712,40.9621104 C62.4476269,45.4620608 58.6325537,48.9621104 54,48.9621104 C49.0294373,48.9621104 45,44.9326731 45,39.9621104 C45,35.3295567 48.5000495,31.5144834 53,31.0170391 L53,27 C46.2875523,27.5106249 41,33.1188806 41,39.9621104 C41,47.1418121 46.8202983,52.9621104 54,52.9621104 Z" id="graph-circle" fill="#FFFFFF" opacity="0.5"></path>
                    <rect id="dashboard-target" fill-opacity="0" fill="#D8D8D8" x="0" y="0" width="80" height="80"></rect>
                </g>
            </g>
            <g id="Group-5" transform="translate(146.000000, 158.000000)" fill="#FFFFFF" opacity="0.496735075">
                <path d="M9.94547299,5.56924747 L9.94547299,33.7949732 C9.94547299,34.6236797 9.27967576,35.2954791 8.44547299,35.2954791 C7.61704587,35.2954791 6.94547299,34.6271136 6.94547299,33.7949732 L6.94547299,5.53642935 L3.12261306,9.35928928 C2.53856633,9.94333602 1.59431316,9.9460097 1.00444273,9.35613927 C0.418656293,8.77035283 0.424300127,7.81496153 1.00129272,7.23796894 L7.37155377,0.867707882 C7.66305778,0.576203881 8.04429335,0.429526613 8.43285258,0.433243831 C8.8163549,0.434075119 9.19859492,0.579728708 9.48657409,0.867707882 L15.8568351,7.23796894 C16.4408819,7.82201567 16.4435556,8.76626884 15.8536851,9.35613927 C15.2678987,9.94192571 14.3125074,9.93628187 13.7355148,9.35928928 L9.94547299,5.56924747 L9.94547299,5.56924747 Z" id="Combined-Shape"></path>
                <path d="M41.945473,30.1594065 L41.945473,1.93368084 C41.945473,1.1049743 41.2796758,0.433174913 40.445473,0.433174913 C39.6170459,0.433174913 38.945473,1.10154039 38.945473,1.93368084 L38.945473,30.1922247 L35.1226131,26.3693647 C34.5385663,25.785318 33.5943132,25.7826443 33.0044427,26.3725147 C32.4186563,26.9583012 32.4243001,27.9136925 33.0012927,28.4906851 L39.3715538,34.8609461 C39.6630578,35.1524501 40.0442934,35.2991274 40.4328526,35.2954102 C40.8163549,35.2945789 41.1985949,35.1489253 41.4865741,34.8609461 L47.8568351,28.4906851 C48.4408819,27.9066383 48.4435556,26.9623852 47.8536851,26.3725147 C47.2678987,25.7867283 46.3125074,25.7923721 45.7355148,26.3693647 L41.945473,30.1594065 L41.945473,30.1594065 Z" id="Combined-Shape-Copy"></path>
            </g>
            <path d="M132.375,171.196179 L131.0625,171.196179 L131.0625,168.568699 C131.0625,164.942777 128.1225,162 124.5,162 C120.8775,162 117.9375,164.942777 117.9375,168.568699 L117.9375,171.196179 L116.625,171.196179 C115.18125,171.196179 114,172.378545 114,173.823659 L114,186.961058 C114,188.406172 115.18125,189.588537 116.625,189.588537 L132.375,189.588537 C133.81875,189.588537 135,188.406172 135,186.961058 L135,173.823659 C135,172.378545 133.81875,171.196179 132.375,171.196179 L132.375,171.196179 Z M124.5,183.019838 C123.05625,183.019838 121.875,181.837472 121.875,180.392358 C121.875,178.947244 123.05625,177.764879 124.5,177.764879 C125.94375,177.764879 127.125,178.947244 127.125,180.392358 C127.125,181.837472 125.94375,183.019838 124.5,183.019838 L124.5,183.019838 Z M128.56875,171.196179 L120.43125,171.196179 L120.43125,168.568699 C120.43125,166.322204 122.255625,164.496106 124.5,164.496106 C126.744375,164.496106 128.56875,166.322204 128.56875,168.568699 L128.56875,171.196179 L128.56875,171.196179 Z" id="Shape" stroke="#FFFFFF" stroke-width="1.5" opacity="0.5"></path>
            <path d="M13.264,154.328 L19.984,154.328 L19.984,155.688 L14.8,155.688 L14.8,158.792 L18.704,158.792 L18.704,160.168 L14.8,160.168 L14.8,163.624 L20.368,163.624 L20.368,165 L13.264,165 L13.264,154.328 Z M22.064,165 L22.064,158.328 L22.064,158.032 C22.064,157.930666 22.0586667,157.773334 22.048,157.56 L23.424,157.56 L23.472,158.68 C23.5680005,158.551999 23.6853326,158.410667 23.824,158.256 C23.9626674,158.101333 24.1333323,157.960001 24.336,157.832 C24.5386677,157.703999 24.7759986,157.597334 25.048,157.512 C25.3200014,157.426666 25.626665,157.384 25.968,157.384 C26.9386715,157.384 27.6586643,157.666664 28.128,158.232 C28.5973357,158.797336 28.832,159.565328 28.832,160.536 L28.832,165 L27.392,165 L27.392,160.648 C27.392,159.954663 27.2426682,159.445335 26.944,159.12 C26.6453318,158.794665 26.2240027,158.632 25.68,158.632 C25.2639979,158.632 24.9173347,158.717332 24.64,158.888 C24.3626653,159.058668 24.1413342,159.279999 23.976,159.552 C23.8106658,159.824001 23.690667,160.133332 23.616,160.48 C23.541333,160.826668 23.504,161.181332 23.504,161.544 L23.504,165 L22.064,165 Z M37.232,163.976 C36.9013317,164.349335 36.4933358,164.650666 36.008,164.88 C35.5226642,165.109334 34.9600032,165.224 34.32,165.224 C33.7226637,165.224 33.1813358,165.125334 32.696,164.928 C32.2106642,164.730666 31.8000017,164.458668 31.464,164.112 C31.1279983,163.765332 30.8693342,163.349336 30.688,162.864 C30.5066658,162.378664 30.416,161.848003 30.416,161.272 C30.416,160.727997 30.511999,160.216002 30.704,159.736 C30.896001,159.255998 31.1653316,158.837335 31.512,158.48 C31.8586684,158.122665 32.269331,157.840001 32.744,157.632 C33.218669,157.423999 33.7439971,157.32 34.32,157.32 C34.9493365,157.32 35.5039976,157.431999 35.984,157.656 C36.4640024,157.880001 36.874665,158.183998 37.216,158.568 L36.272,159.48 C36.0479989,159.202665 35.7760016,158.984001 35.456,158.824 C35.1359984,158.663999 34.7573355,158.584 34.32,158.584 C33.9359981,158.584 33.5920015,158.655999 33.288,158.8 C32.9839985,158.944001 32.728001,159.141332 32.52,159.392 C32.311999,159.642668 32.1520006,159.930665 32.04,160.256 C31.9279994,160.581335 31.872,160.919998 31.872,161.272 C31.872,161.613335 31.9279994,161.946665 32.04,162.272 C32.1520006,162.597335 32.311999,162.885332 32.52,163.136 C32.728001,163.386668 32.9839985,163.586666 33.288,163.736 C33.5920015,163.885334 33.9359981,163.96 34.32,163.96 C34.7573355,163.96 35.1493316,163.877334 35.496,163.712 C35.8426684,163.546666 36.1279989,163.325335 36.352,163.048 L37.232,163.976 Z M38.656,165 L38.656,158.28 L38.656,158.024 C38.656,157.928 38.6506667,157.773334 38.64,157.56 L40.016,157.56 L40.064,158.76 C40.1493338,158.631999 40.2613326,158.490667 40.4,158.336 C40.5386674,158.181333 40.7066657,158.040001 40.904,157.912 C41.1013343,157.783999 41.3306654,157.674667 41.592,157.584 C41.8533346,157.493333 42.154665,157.448 42.496,157.448 C42.6560008,157.448 42.802666,157.458667 42.936,157.48 C43.069334,157.501333 43.1946661,157.533333 43.312,157.576 L42.992,158.92 C42.799999,158.845333 42.5546682,158.808 42.256,158.808 C41.9466651,158.808 41.6613346,158.866666 41.4,158.984 C41.1386654,159.101334 40.912001,159.263999 40.72,159.472 C40.527999,159.680001 40.3760006,159.922665 40.264,160.2 C40.1519994,160.477335 40.096,160.770665 40.096,161.08 L40.096,165 L38.656,165 Z M44.512,166.824 C44.6186672,166.92 44.7413326,167.005333 44.88,167.08 C45.0186674,167.154667 45.1893323,167.192 45.392,167.192 C45.5626675,167.192 45.7093327,167.154667 45.832,167.08 C45.9546673,167.005333 46.0666662,166.890667 46.168,166.736 C46.2693338,166.581333 46.3653329,166.394668 46.456,166.176 C46.5466671,165.957332 46.6506661,165.704001 46.768,165.416 L46.96,164.936 L43.632,157.56 L45.28,157.56 L47.68,163.176 L49.792,157.56 L51.36,157.56 L48.384,164.808 C48.2453326,165.149335 48.1040007,165.525331 47.96,165.936 C47.8159993,166.346669 47.6373344,166.735998 47.424,167.104 C47.2106656,167.472002 46.9493349,167.778665 46.64,168.024 C46.3306651,168.269335 45.9413357,168.392 45.472,168.392 C45.0986648,168.392 44.7840013,168.341334 44.528,168.24 C44.2719987,168.138666 44.048001,168.002668 43.856,167.832 L44.512,166.824 Z M53.936,163.384 C54.1066675,163.522667 54.3519984,163.655999 54.672,163.784 C54.9920016,163.912001 55.3919976,163.976 55.872,163.976 C56.2346685,163.976 56.5679985,163.909334 56.872,163.776 C57.1760015,163.642666 57.4373322,163.456001 57.656,163.216 C57.8746678,162.975999 58.0426661,162.696002 58.16,162.376 C58.2773339,162.055998 58.336,161.704002 58.336,161.32 C58.336,160.957332 58.2960004,160.616002 58.216,160.296 C58.1359996,159.975998 58.0080009,159.693335 57.832,159.448 C57.6559991,159.202665 57.4293347,159.008001 57.152,158.864 C56.8746653,158.719999 56.5333354,158.648 56.128,158.648 C55.6159974,158.648 55.1786685,158.789332 54.816,159.072 C54.4533315,159.354668 54.1973341,159.767997 54.048,160.312 C53.9946664,160.482668 53.9626667,160.666666 53.952,160.864 C53.9413333,161.061334 53.936,161.266666 53.936,161.48 L53.936,163.384 Z M52.512,168.2 L52.512,158.328 L52.512,158.032 C52.512,157.930666 52.5066667,157.773334 52.496,157.56 L53.872,157.56 L53.92,158.616 C53.994667,158.52 54.1013326,158.402667 54.24,158.264 C54.3786674,158.125333 54.551999,157.992001 54.76,157.864 C54.968001,157.735999 55.2106653,157.626667 55.488,157.536 C55.7653347,157.445333 56.0853315,157.4 56.448,157.4 C57.0240029,157.4 57.5226646,157.506666 57.944,157.72 C58.3653354,157.933334 58.7146653,158.221332 58.992,158.584 C59.2693347,158.946668 59.474666,159.362664 59.608,159.832 C59.741334,160.301336 59.808,160.797331 59.808,161.32 C59.808,161.992003 59.6933345,162.573331 59.464,163.064 C59.2346655,163.554669 58.9360018,163.959998 58.568,164.28 C58.1999982,164.600002 57.7893356,164.837333 57.336,164.992 C56.8826644,165.146667 56.4373355,165.224 56,165.224 C55.4986642,165.224 55.0960015,165.173334 54.792,165.072 C54.4879985,164.970666 54.202668,164.861334 53.936,164.744 L53.936,168.2 L52.512,168.2 Z M62.08,158.76 L60.736,158.76 L60.736,157.56 L62.08,157.56 L62.08,155.128 L63.52,155.128 L63.52,157.56 L65.696,157.56 L65.696,158.76 L63.52,158.76 L63.52,162.424 C63.52,163.021336 63.6133324,163.431999 63.8,163.656 C63.9866676,163.880001 64.250665,163.992 64.592,163.992 C64.8693347,163.992 65.0986658,163.949334 65.28,163.864 C65.4613342,163.778666 65.6426658,163.650668 65.824,163.48 L66.48,164.36 C66.1706651,164.658668 65.853335,164.874666 65.528,165.008 C65.202665,165.141334 64.8160022,165.208 64.368,165.208 C63.5786627,165.208 63.0000018,164.994669 62.632,164.568 C62.2639982,164.141331 62.08,163.474671 62.08,162.568 L62.08,158.76 Z M67.552,154.616 L69.168,154.616 L69.168,156.232 L67.552,156.232 L67.552,154.616 Z M67.648,157.56 L69.088,157.56 L69.088,165 L67.648,165 L67.648,157.56 Z M74.72,165.224 C74.1439971,165.224 73.6160024,165.120001 73.136,164.912 C72.6559976,164.703999 72.2426684,164.418668 71.896,164.056 C71.5493316,163.693332 71.2773343,163.274669 71.08,162.8 C70.8826657,162.325331 70.784,161.816003 70.784,161.272 C70.784,160.727997 70.8826657,160.218669 71.08,159.744 C71.2773343,159.269331 71.5493316,158.850668 71.896,158.488 C72.2426684,158.125332 72.6559976,157.840001 73.136,157.632 C73.6160024,157.423999 74.1439971,157.32 74.72,157.32 C75.2853362,157.32 75.8079976,157.423999 76.288,157.632 C76.7680024,157.840001 77.1839982,158.125332 77.536,158.488 C77.8880018,158.850668 78.1626657,159.269331 78.36,159.744 C78.5573343,160.218669 78.656,160.727997 78.656,161.272 C78.656,161.816003 78.5573343,162.325331 78.36,162.8 C78.1626657,163.274669 77.8880018,163.693332 77.536,164.056 C77.1839982,164.418668 76.7680024,164.703999 76.288,164.912 C75.8079976,165.120001 75.2853362,165.224 74.72,165.224 L74.72,165.224 Z M74.72,163.976 C75.1040019,163.976 75.4506651,163.898667 75.76,163.744 C76.0693349,163.589333 76.3306656,163.386668 76.544,163.136 C76.7573344,162.885332 76.9199994,162.597335 77.032,162.272 C77.1440006,161.946665 77.2,161.613335 77.2,161.272 C77.2,160.941332 77.1440006,160.613335 77.032,160.288 C76.9199994,159.962665 76.7546678,159.672001 76.536,159.416 C76.3173322,159.159999 76.0560015,158.954667 75.752,158.8 C75.4479985,158.645333 75.1040019,158.568 74.72,158.568 C74.3359981,158.568 73.9893349,158.645333 73.68,158.8 C73.3706651,158.954667 73.1093344,159.157332 72.896,159.408 C72.6826656,159.658668 72.5200006,159.946665 72.408,160.272 C72.2959994,160.597335 72.24,160.930665 72.24,161.272 C72.24,161.613335 72.2959994,161.943998 72.408,162.264 C72.5200006,162.584002 72.6853322,162.871999 72.904,163.128 C73.1226678,163.384001 73.3839985,163.589333 73.688,163.744 C73.9920015,163.898667 74.3359981,163.976 74.72,163.976 L74.72,163.976 Z M80.288,165 L80.288,158.328 L80.288,158.032 C80.288,157.930666 80.2826667,157.773334 80.272,157.56 L81.648,157.56 L81.696,158.68 C81.7920005,158.551999 81.9093326,158.410667 82.048,158.256 C82.1866674,158.101333 82.3573323,157.960001 82.56,157.832 C82.7626677,157.703999 82.9999986,157.597334 83.272,157.512 C83.5440014,157.426666 83.850665,157.384 84.192,157.384 C85.1626715,157.384 85.8826643,157.666664 86.352,158.232 C86.8213357,158.797336 87.056,159.565328 87.056,160.536 L87.056,165 L85.616,165 L85.616,160.648 C85.616,159.954663 85.4666682,159.445335 85.168,159.12 C84.8693318,158.794665 84.4480027,158.632 83.904,158.632 C83.4879979,158.632 83.1413347,158.717332 82.864,158.888 C82.5866653,159.058668 82.3653342,159.279999 82.2,159.552 C82.0346658,159.824001 81.914667,160.133332 81.84,160.48 C81.765333,160.826668 81.728,161.181332 81.728,161.544 L81.728,165 L80.288,165 Z M30.784,173.328 L32.352,173.328 L36.528,184 L34.816,184 L33.712,181.024 L29.328,181.024 L28.224,184 L26.608,184 L30.784,173.328 Z M33.248,179.728 L31.52,175.04 L29.776,179.728 L33.248,179.728 Z M37.936,173.328 L44.656,173.328 L44.656,174.688 L39.472,174.688 L39.472,177.792 L43.376,177.792 L43.376,179.168 L39.472,179.168 L39.472,182.624 L45.04,182.624 L45.04,184 L37.936,184 L37.936,173.328 Z M47.184,181.408 C47.3333341,181.578668 47.5013324,181.751999 47.688,181.928 C47.8746676,182.104001 48.0853322,182.261333 48.32,182.4 C48.5546678,182.538667 48.8159986,182.650666 49.104,182.736 C49.3920014,182.821334 49.706665,182.864 50.048,182.864 C50.7520035,182.864 51.3013314,182.704002 51.696,182.384 C52.0906686,182.063998 52.288,181.632003 52.288,181.088 C52.288,180.50133 52.0640022,180.061335 51.616,179.768 C51.1679978,179.474665 50.5226709,179.237334 49.68,179.056 C49.221331,178.96 48.8053352,178.826668 48.432,178.656 C48.0586648,178.485332 47.7360014,178.272001 47.464,178.016 C47.1919986,177.759999 46.9813341,177.464002 46.832,177.128 C46.6826659,176.791998 46.608,176.410669 46.608,175.984 C46.608,175.589331 46.6826659,175.216002 46.832,174.864 C46.9813341,174.511998 47.2053318,174.202668 47.504,173.936 C47.8026682,173.669332 48.1759978,173.456001 48.624,173.296 C49.0720022,173.135999 49.5893304,173.056 50.176,173.056 C50.6986693,173.056 51.1493314,173.111999 51.528,173.224 C51.9066686,173.336001 52.229332,173.471999 52.496,173.632 C52.762668,173.792001 52.9759992,173.957332 53.136,174.128 C53.2960008,174.298668 53.4186662,174.437333 53.504,174.544 L52.48,175.488 C52.4159997,175.413333 52.3200006,175.314667 52.192,175.192 C52.0639994,175.069333 51.9013343,174.949334 51.704,174.832 C51.5066657,174.714666 51.2773346,174.616 51.016,174.536 C50.7546654,174.456 50.453335,174.416 50.112,174.416 C49.770665,174.416 49.4773346,174.461333 49.232,174.552 C48.9866654,174.642667 48.7840008,174.759999 48.624,174.904 C48.4639992,175.048001 48.346667,175.210666 48.272,175.392 C48.197333,175.573334 48.16,175.754666 48.16,175.936 C48.16,176.202668 48.2159994,176.429332 48.328,176.616 C48.4400006,176.802668 48.6026656,176.967999 48.816,177.112 C49.0293344,177.256001 49.2933318,177.378666 49.608,177.48 C49.9226682,177.581334 50.2826646,177.68 50.688,177.776 C51.0826686,177.872 51.4693314,177.997333 51.848,178.152 C52.2266686,178.306667 52.5653318,178.514665 52.864,178.776 C53.1626682,179.037335 53.3999991,179.357331 53.576,179.736 C53.7520009,180.114669 53.84,180.575997 53.84,181.12 C53.84,181.578669 53.744001,181.999998 53.552,182.384 C53.359999,182.768002 53.0960017,183.101332 52.76,183.384 C52.4239983,183.666668 52.026669,183.885333 51.568,184.04 C51.109331,184.194667 50.613336,184.272 50.08,184.272 C49.5786642,184.272 49.1226687,184.213334 48.712,184.096 C48.3013313,183.978666 47.9280017,183.829334 47.592,183.648 C47.2559983,183.466666 46.9626679,183.266668 46.712,183.048 C46.4613321,182.829332 46.2560008,182.613334 46.096,182.4 L47.184,181.408 Z M55.984,178.832 L60.672,178.832 L60.672,180.208 L55.984,180.208 L55.984,178.832 Z M62.928,182.96 C62.928,182.394664 63.061332,181.898669 63.328,181.472 C63.594668,181.045331 63.9146648,180.645335 64.288,180.272 C64.746669,179.813331 65.1813313,179.418668 65.592,179.088 C66.0026687,178.757332 66.3626651,178.453335 66.672,178.176 C66.9813349,177.898665 67.2239991,177.624001 67.4,177.352 C67.5760009,177.079999 67.664,176.768002 67.664,176.416 C67.664,176.255999 67.634667,176.090668 67.576,175.92 C67.517333,175.749332 67.4186674,175.592001 67.28,175.448 C67.1413326,175.303999 66.9653344,175.184 66.752,175.088 C66.5386656,174.992 66.2720016,174.944 65.952,174.944 C65.6639986,174.944 65.4080011,174.984 65.184,175.064 C64.9599989,175.144 64.7626675,175.242666 64.592,175.36 C64.4213325,175.477334 64.2773339,175.610666 64.16,175.76 C64.0426661,175.909334 63.9360005,176.047999 63.84,176.176 L62.768,175.408 C62.8746672,175.215999 63.0213324,175.016001 63.208,174.808 C63.3946676,174.599999 63.6186654,174.408001 63.88,174.232 C64.1413346,174.055999 64.4506649,173.912001 64.808,173.8 C65.1653351,173.687999 65.5786643,173.632 66.048,173.632 C66.5920027,173.632 67.063998,173.706666 67.464,173.856 C67.864002,174.005334 68.1919987,174.205332 68.448,174.456 C68.7040013,174.706668 68.8959994,174.991998 69.024,175.312 C69.1520006,175.632002 69.216,175.967998 69.216,176.32 C69.216,176.693335 69.1520006,177.042665 69.024,177.368 C68.8959994,177.693335 68.7253344,177.994665 68.512,178.272 C68.2986656,178.549335 68.0560014,178.813332 67.784,179.064 C67.5119986,179.314668 67.2320014,179.551999 66.944,179.776 C66.602665,180.042668 66.2853348,180.298665 65.992,180.544 C65.6986652,180.789335 65.4426678,181.029332 65.224,181.264 C65.0053322,181.498668 64.8346673,181.733332 64.712,181.968 C64.5893327,182.202668 64.528,182.442665 64.528,182.688 L69.328,182.688 L69.328,184 L62.928,184 L62.928,182.96 Z M71.984,182.112 C72.2826682,182.357335 72.6106649,182.562666 72.968,182.728 C73.3253351,182.893334 73.770664,182.976 74.304,182.976 C74.6773352,182.976 75.0026653,182.920001 75.28,182.808 C75.5573347,182.695999 75.7893324,182.544001 75.976,182.352 C76.1626676,182.159999 76.3013329,181.936001 76.392,181.68 C76.4826671,181.423999 76.528,181.146668 76.528,180.848 C76.528,180.645332 76.4960003,180.426668 76.432,180.192 C76.3679997,179.957332 76.2560008,179.741334 76.096,179.544 C75.9359992,179.346666 75.7173347,179.184001 75.44,179.056 C75.1626653,178.927999 74.8106688,178.864 74.384,178.864 C73.9466645,178.864 73.6000013,178.906666 73.344,178.992 C73.0879987,179.077334 72.8533344,179.173333 72.64,179.28 L71.904,178.72 L72.864,173.92 L77.808,173.92 L77.808,175.264 L73.872,175.264 L73.408,177.904 C73.5146672,177.84 73.6853322,177.778667 73.92,177.72 C74.1546678,177.661333 74.4373317,177.632 74.768,177.632 C75.2480024,177.632 75.687998,177.701333 76.088,177.84 C76.488002,177.978667 76.8319986,178.183999 77.12,178.456 C77.4080014,178.728001 77.6319992,179.058665 77.792,179.448 C77.9520008,179.837335 78.032,180.287997 78.032,180.8 C78.032,181.269336 77.9573341,181.711998 77.808,182.128 C77.6586659,182.544002 77.4293349,182.911998 77.12,183.232 C76.8106651,183.552002 76.4160024,183.805332 75.936,183.992 C75.4559976,184.178668 74.8853366,184.272 74.224,184.272 C73.5199965,184.272 72.9200025,184.165334 72.424,183.952 C71.9279975,183.738666 71.509335,183.477335 71.168,183.168 L71.984,182.112 Z M86.272,175.456 C86.2399998,175.434667 86.1786671,175.397334 86.088,175.344 C85.9973329,175.290666 85.8773341,175.234667 85.728,175.176 C85.5786659,175.117333 85.4053343,175.064 85.208,175.016 C85.0106657,174.968 84.7946678,174.944 84.56,174.944 C84.1119978,174.944 83.717335,175.039999 83.376,175.232 C83.034665,175.424001 82.7466678,175.679998 82.512,176 C82.2773322,176.320002 82.0960006,176.685331 81.968,177.096 C81.8399994,177.506669 81.7706667,177.930664 81.76,178.368 C81.9946678,178.207999 82.2986648,178.034668 82.672,177.848 C83.0453352,177.661332 83.5199971,177.568 84.096,177.568 C85.0666715,177.568 85.8266639,177.855997 86.376,178.432 C86.9253361,179.008003 87.2,179.823995 87.2,180.88 C87.2,181.381336 87.1173342,181.839998 86.952,182.256 C86.7866658,182.672002 86.5573348,183.029332 86.264,183.328 C85.9706652,183.626668 85.6213354,183.858666 85.216,184.024 C84.8106646,184.189334 84.3680024,184.272 83.888,184.272 C82.7573277,184.272 81.8746698,183.872004 81.24,183.072 C80.6053302,182.271996 80.288,181.061341 80.288,179.44 C80.288,178.543996 80.3813324,177.73867 80.568,177.024 C80.7546676,176.30933 81.0319982,175.701336 81.4,175.2 C81.7680018,174.698664 82.218664,174.314668 82.752,174.048 C83.285336,173.781332 83.9039965,173.648 84.608,173.648 C85.1520027,173.648 85.623998,173.727999 86.024,173.888 C86.424002,174.048001 86.7253323,174.191999 86.928,174.32 L86.272,175.456 Z M81.744,179.632 C81.744,180.688005 81.9093317,181.511997 82.24,182.104 C82.5706683,182.696003 83.1146629,182.992 83.872,182.992 C84.1280013,182.992 84.3733322,182.944 84.608,182.848 C84.8426678,182.752 85.0506658,182.613334 85.232,182.432 C85.4133342,182.250666 85.5573328,182.026668 85.664,181.76 C85.7706672,181.493332 85.824,181.189335 85.824,180.848 C85.824,180.271997 85.6773348,179.794669 85.384,179.416 C85.0906652,179.037331 84.6133366,178.848 83.952,178.848 C83.4399974,178.848 83.0053351,178.925333 82.648,179.08 C82.2906649,179.234667 81.9893346,179.418666 81.744,179.632 L81.744,179.632 Z M27.376,200.408 C27.5253341,200.578668 27.6933324,200.751999 27.88,200.928 C28.0666676,201.104001 28.2773322,201.261333 28.512,201.4 C28.7466678,201.538667 29.0079986,201.650666 29.296,201.736 C29.5840014,201.821334 29.898665,201.864 30.24,201.864 C30.9440035,201.864 31.4933314,201.704002 31.888,201.384 C32.2826686,201.063998 32.48,200.632003 32.48,200.088 C32.48,199.50133 32.2560022,199.061335 31.808,198.768 C31.3599978,198.474665 30.7146709,198.237334 29.872,198.056 C29.413331,197.96 28.9973352,197.826668 28.624,197.656 C28.2506648,197.485332 27.9280014,197.272001 27.656,197.016 C27.3839986,196.759999 27.1733341,196.464002 27.024,196.128 C26.8746659,195.791998 26.8,195.410669 26.8,194.984 C26.8,194.589331 26.8746659,194.216002 27.024,193.864 C27.1733341,193.511998 27.3973318,193.202668 27.696,192.936 C27.9946682,192.669332 28.3679978,192.456001 28.816,192.296 C29.2640022,192.135999 29.7813304,192.056 30.368,192.056 C30.8906693,192.056 31.3413314,192.111999 31.72,192.224 C32.0986686,192.336001 32.421332,192.471999 32.688,192.632 C32.954668,192.792001 33.1679992,192.957332 33.328,193.128 C33.4880008,193.298668 33.6106662,193.437333 33.696,193.544 L32.672,194.488 C32.6079997,194.413333 32.5120006,194.314667 32.384,194.192 C32.2559994,194.069333 32.0933343,193.949334 31.896,193.832 C31.6986657,193.714666 31.4693346,193.616 31.208,193.536 C30.9466654,193.456 30.645335,193.416 30.304,193.416 C29.962665,193.416 29.6693346,193.461333 29.424,193.552 C29.1786654,193.642667 28.9760008,193.759999 28.816,193.904 C28.6559992,194.048001 28.538667,194.210666 28.464,194.392 C28.389333,194.573334 28.352,194.754666 28.352,194.936 C28.352,195.202668 28.4079994,195.429332 28.52,195.616 C28.6320006,195.802668 28.7946656,195.967999 29.008,196.112 C29.2213344,196.256001 29.4853318,196.378666 29.8,196.48 C30.1146682,196.581334 30.4746646,196.68 30.88,196.776 C31.2746686,196.872 31.6613314,196.997333 32.04,197.152 C32.4186686,197.306667 32.7573318,197.514665 33.056,197.776 C33.3546682,198.037335 33.5919991,198.357331 33.768,198.736 C33.9440009,199.114669 34.032,199.575997 34.032,200.12 C34.032,200.578669 33.936001,200.999998 33.744,201.384 C33.551999,201.768002 33.2880017,202.101332 32.952,202.384 C32.6159983,202.666668 32.218669,202.885333 31.76,203.04 C31.301331,203.194667 30.805336,203.272 30.272,203.272 C29.7706642,203.272 29.3146687,203.213334 28.904,203.096 C28.4933313,202.978666 28.1200017,202.829334 27.784,202.648 C27.4479983,202.466666 27.1546679,202.266668 26.904,202.048 C26.6533321,201.829332 26.4480008,201.613334 26.288,201.4 L27.376,200.408 Z M36.688,200.408 C36.8373341,200.578668 37.0053324,200.751999 37.192,200.928 C37.3786676,201.104001 37.5893322,201.261333 37.824,201.4 C38.0586678,201.538667 38.3199986,201.650666 38.608,201.736 C38.8960014,201.821334 39.210665,201.864 39.552,201.864 C40.2560035,201.864 40.8053314,201.704002 41.2,201.384 C41.5946686,201.063998 41.792,200.632003 41.792,200.088 C41.792,199.50133 41.5680022,199.061335 41.12,198.768 C40.6719978,198.474665 40.0266709,198.237334 39.184,198.056 C38.725331,197.96 38.3093352,197.826668 37.936,197.656 C37.5626648,197.485332 37.2400014,197.272001 36.968,197.016 C36.6959986,196.759999 36.4853341,196.464002 36.336,196.128 C36.1866659,195.791998 36.112,195.410669 36.112,194.984 C36.112,194.589331 36.1866659,194.216002 36.336,193.864 C36.4853341,193.511998 36.7093318,193.202668 37.008,192.936 C37.3066682,192.669332 37.6799978,192.456001 38.128,192.296 C38.5760022,192.135999 39.0933304,192.056 39.68,192.056 C40.2026693,192.056 40.6533314,192.111999 41.032,192.224 C41.4106686,192.336001 41.733332,192.471999 42,192.632 C42.266668,192.792001 42.4799992,192.957332 42.64,193.128 C42.8000008,193.298668 42.9226662,193.437333 43.008,193.544 L41.984,194.488 C41.9199997,194.413333 41.8240006,194.314667 41.696,194.192 C41.5679994,194.069333 41.4053343,193.949334 41.208,193.832 C41.0106657,193.714666 40.7813346,193.616 40.52,193.536 C40.2586654,193.456 39.957335,193.416 39.616,193.416 C39.274665,193.416 38.9813346,193.461333 38.736,193.552 C38.4906654,193.642667 38.2880008,193.759999 38.128,193.904 C37.9679992,194.048001 37.850667,194.210666 37.776,194.392 C37.701333,194.573334 37.664,194.754666 37.664,194.936 C37.664,195.202668 37.7199994,195.429332 37.832,195.616 C37.9440006,195.802668 38.1066656,195.967999 38.32,196.112 C38.5333344,196.256001 38.7973318,196.378666 39.112,196.48 C39.4266682,196.581334 39.7866646,196.68 40.192,196.776 C40.5866686,196.872 40.9733314,196.997333 41.352,197.152 C41.7306686,197.306667 42.0693318,197.514665 42.368,197.776 C42.6666682,198.037335 42.9039991,198.357331 43.08,198.736 C43.2560009,199.114669 43.344,199.575997 43.344,200.12 C43.344,200.578669 43.248001,200.999998 43.056,201.384 C42.863999,201.768002 42.6000017,202.101332 42.264,202.384 C41.9279983,202.666668 41.530669,202.885333 41.072,203.04 C40.613331,203.194667 40.117336,203.272 39.584,203.272 C39.0826642,203.272 38.6266687,203.213334 38.216,203.096 C37.8053313,202.978666 37.4320017,202.829334 37.096,202.648 C36.7599983,202.466666 36.4666679,202.266668 36.216,202.048 C35.9653321,201.829332 35.7600008,201.613334 35.6,201.4 L36.688,200.408 Z M45.536,192.328 L47.072,192.328 L47.072,201.64 L52.624,201.64 L52.624,203 L45.536,203 L45.536,192.328 Z M57.744,192.04 L59.168,192.04 L54.944,203.256 L53.488,203.256 L57.744,192.04 Z M64.192,193.672 L60.368,193.672 L60.368,192.328 L69.536,192.328 L69.536,193.672 L65.728,193.672 L65.728,203 L64.192,203 L64.192,193.672 Z M71.136,192.328 L72.672,192.328 L72.672,201.64 L78.224,201.64 L78.224,203 L71.136,203 L71.136,192.328 Z M80.368,200.408 C80.5173341,200.578668 80.6853324,200.751999 80.872,200.928 C81.0586676,201.104001 81.2693322,201.261333 81.504,201.4 C81.7386678,201.538667 81.9999986,201.650666 82.288,201.736 C82.5760014,201.821334 82.890665,201.864 83.232,201.864 C83.9360035,201.864 84.4853314,201.704002 84.88,201.384 C85.2746686,201.063998 85.472,200.632003 85.472,200.088 C85.472,199.50133 85.2480022,199.061335 84.8,198.768 C84.3519978,198.474665 83.7066709,198.237334 82.864,198.056 C82.405331,197.96 81.9893352,197.826668 81.616,197.656 C81.2426648,197.485332 80.9200014,197.272001 80.648,197.016 C80.3759986,196.759999 80.1653341,196.464002 80.016,196.128 C79.8666659,195.791998 79.792,195.410669 79.792,194.984 C79.792,194.589331 79.8666659,194.216002 80.016,193.864 C80.1653341,193.511998 80.3893318,193.202668 80.688,192.936 C80.9866682,192.669332 81.3599978,192.456001 81.808,192.296 C82.2560022,192.135999 82.7733304,192.056 83.36,192.056 C83.8826693,192.056 84.3333314,192.111999 84.712,192.224 C85.0906686,192.336001 85.413332,192.471999 85.68,192.632 C85.946668,192.792001 86.1599992,192.957332 86.32,193.128 C86.4800008,193.298668 86.6026662,193.437333 86.688,193.544 L85.664,194.488 C85.5999997,194.413333 85.5040006,194.314667 85.376,194.192 C85.2479994,194.069333 85.0853343,193.949334 84.888,193.832 C84.6906657,193.714666 84.4613346,193.616 84.2,193.536 C83.9386654,193.456 83.637335,193.416 83.296,193.416 C82.954665,193.416 82.6613346,193.461333 82.416,193.552 C82.1706654,193.642667 81.9680008,193.759999 81.808,193.904 C81.6479992,194.048001 81.530667,194.210666 81.456,194.392 C81.381333,194.573334 81.344,194.754666 81.344,194.936 C81.344,195.202668 81.3999994,195.429332 81.512,195.616 C81.6240006,195.802668 81.7866656,195.967999 82,196.112 C82.2133344,196.256001 82.4773318,196.378666 82.792,196.48 C83.1066682,196.581334 83.4666646,196.68 83.872,196.776 C84.2666686,196.872 84.6533314,196.997333 85.032,197.152 C85.4106686,197.306667 85.7493318,197.514665 86.048,197.776 C86.3466682,198.037335 86.5839991,198.357331 86.76,198.736 C86.9360009,199.114669 87.024,199.575997 87.024,200.12 C87.024,200.578669 86.928001,200.999998 86.736,201.384 C86.543999,201.768002 86.2800017,202.101332 85.944,202.384 C85.6079983,202.666668 85.210669,202.885333 84.752,203.04 C84.293331,203.194667 83.797336,203.272 83.264,203.272 C82.7626642,203.272 82.3066687,203.213334 81.896,203.096 C81.4853313,202.978666 81.1120017,202.829334 80.776,202.648 C80.4399983,202.466666 80.1466679,202.266668 79.896,202.048 C79.6453321,201.829332 79.4400008,201.613334 79.28,201.4 L80.368,200.408 Z" id="Encryption-AES-256-S" fill="#FFFFFF" opacity="0.5"></path>
            <g id="mobile-devices" transform="translate(112.000000, 27.000000)">
                <g id="android">
                    <path d="M41.5073377,-1 L13.8357792,-1 C5.62774194,-1 -1,2.22739186 -1,8.30769231 L-1,96.9230769 C-1,103.274992 6.69644548,109 13.8357792,109 L41.5073377,109 C48.6466715,109 56.343117,103.274992 56.343117,96.9230769 L56.343117,8.30769231 C56.343117,2.22778775 49.7137112,-1 41.5073377,-1 Z M3.76715585,95.9230769 L3.76715585,11.8996923 L51.5759611,11.8996923 L51.5759611,95.9230769 L3.76715585,95.9230769 Z M21.3999789,100.878405 L33.9220121,100.878405 L33.9220121,101.407676 C33.9220121,103.411828 33.1955402,104.233766 31.3160166,104.233766 L24.1840271,104.233766 C22.2310328,104.233766 21.3999789,103.344797 21.3999789,101.407676 L21.3999789,100.878405 Z" id="Combined-Shape" stroke="#FFFFFF" stroke-width="2" opacity="0.5"></path>
                    <path d="M44.6219441,41.9485147 L44.6219441,41.7883312 C44.6231231,41.7608946 44.6237146,41.7334112 44.6237146,41.7058822 C44.6237146,38.5546105 36.8729321,36 27.3118573,36 C17.7507825,36 10,38.5546105 10,41.7058822 C10,41.7063248 10.0000002,41.7067673 10.0000005,41.7072099 L10.0001222,69.0973019 C10.1235946,72.2471098 17.8723755,74.7999992 27.430229,74.7999992 C36.9913038,74.7999992 44.7420863,72.2453887 44.6219441,69.094117 C44.6237852,69.0458259 44.6237779,68.997675 44.6219441,68.9496712 L44.6219441,68.9496624 L44.6219441,41.9616419 C44.2446472,45.1868953 36.7545799,47.6454994 27.3118573,47.6454994 C17.6210543,47.6454994 10.0087059,45.0560128 10.0087059,41.7058822 C10.0087059,44.6582952 16.6371136,47.6454993 27.3118571,47.6454993 C37.6941996,47.6454993 44.269514,44.8197039 44.6219441,41.9485147 Z" id="iphone-rmd-symbol" stroke="#FFFFFF" stroke-width="2" opacity="0.5"></path>
                    <path d="M25.630293,56.0433373 C24.6503277,56.6715653 23.5962835,57.1868216 22.5420101,57.5951922 C22.1731892,57.7380542 21.8312987,57.8571393 21.5255381,57.9534096 C21.3448614,58.0102967 21.2184298,58.0464382 21.155411,58.0628537 C20.9442035,58.1296052 20.8037787,58.181654 20.6988721,58.2306923 C20.6233203,58.2660088 20.5597721,58.3019948 20.4994204,58.3490138 C20.2900751,58.5121111 20.1506076,58.7371728 20.2821529,59.0840457 C20.3895788,59.3673181 20.5697442,59.4529232 20.794353,59.4907452 C20.8634226,59.5023758 20.9330137,59.505429 21.0122266,59.5034669 C21.1293952,59.5005646 21.2797892,59.4854586 21.4647596,59.4589459 L31.6449823,58.0139953 C28.0713791,60.0603367 20.9264908,64.1567923 20.9264908,64.1567923 C19.7487556,64.8320359 20.1276959,65.9291076 21.4647596,65.7374593 L31.2546383,64.346883 C30.203654,64.948081 29.1632445,65.611041 28.1808646,66.326136 C26.0997552,67.8410194 24.5117461,69.418356 23.6113103,71.0432659 L24.684583,71.6383003 C25.4820933,70.1991279 26.9535729,68.7375377 28.9029261,67.3185625 C30.0020982,66.5184519 31.1828109,65.7825632 32.3637525,65.1289325 C32.777107,64.900148 33.16062,64.6981724 33.5042017,64.5251299 C33.7087871,64.4220918 33.8534396,64.3521223 33.9280957,64.3173129 C35.1611681,63.6840994 34.8045685,62.5854476 33.4521767,62.779293 L23.2525862,64.2375729 C23.2528441,64.237751 33.9904455,58.0814465 33.9904455,58.0814465 C35.1586589,57.4116622 34.8029764,56.3071624 33.4521767,56.5007795 L25.3370098,57.6469829 C25.3336882,57.6473202 25.9785425,57.2779529 26.2924463,57.076718 C28.9649052,55.3634801 30.7370744,53.142009 31.1411083,50.3498184 L29.9266482,50.174 C29.5813179,52.5605033 28.0302895,54.5047673 25.630293,56.0433373 Z" id="ziggy-android" fill="#FFFFFF" fill-rule="nonzero"></path>
                </g>
                <g id="iphone" transform="translate(68.288136, 0.000000)" stroke="#FFFFFF" stroke-width="2" opacity="0.496268657">
                    <path d="M-1,4.99246276 L-1,103.007537 C-1,106.320783 1.69012932,109 5.00984284,109 L46.2653712,109 C49.5883867,109 52.2752141,106.319988 52.2752141,103.007537 L52.2752141,4.99246276 C52.2752141,1.6792172 49.5850847,-1 46.2653712,-1 L5.00984284,-1 C1.68682732,-1 -1,1.68001172 -1,4.99246276 Z M25.637607,102.767968 C24.1574124,102.767968 22.9634727,101.591703 22.9634727,100.148226 C22.9634727,98.7047483 24.1574124,97.5284839 25.637607,97.5284839 C27.1178016,97.5284839 28.3117413,98.7047483 28.3117413,100.148226 C28.3117413,101.591703 27.1178016,102.767968 25.637607,102.767968 Z" id="iphone-outline"></path>
                    <path d="M4.53622166,91.3225806 L4.53622166,16.6774194 L46.7389924,16.6774194 L46.7389924,91.3225806 L4.53622166,91.3225806 Z" id="screen-5-path"></path>
                </g>
            </g>
            <g id="Group-2" transform="translate(188.000000, 63.000000)">
                <path d="M35.3252324,6.05966544 L35.3252324,5.89946361 C35.3264116,5.87202386 35.3270031,5.84453726 35.3270031,5.81700512 C35.3270031,2.66537088 27.575329,0.110466521 18.0131544,0.110466521 C8.4509798,0.110466521 0.699305682,2.66537088 0.699305682,5.81700512 C0.699305682,5.81744773 0.699305835,5.81789033 0.699306141,5.81833291 L0.699427939,33.2115757 C0.822914504,36.3617459 8.57258674,38.914929 18.1315397,38.914929 C27.6937143,38.914929 35.4453884,36.3600246 35.3252324,33.2083904 C35.3270737,33.1600938 35.3270664,33.1119373 35.3252324,33.063928 L35.3252324,33.0639192 L35.3252324,6.07279418 C34.9478921,9.29841865 27.4569632,11.7573055 18.0131544,11.7573055 C8.32123662,11.7573055 0.708012601,9.16752107 0.708012601,5.81700512 C0.708012601,8.76975765 7.33718275,11.7573054 18.0131542,11.7573054 C28.396691,11.7573054 34.9727618,8.93118501 35.3252324,6.05966544 Z" id="iphone-rmd-symbol" stroke="#FFFFFF" stroke-width="2" opacity="0.5"></path>
                <path d="M15.630293,20.0433373 C14.6503277,20.6715653 13.5962835,21.1868216 12.5420101,21.5951922 C12.1731892,21.7380542 11.8312987,21.8571393 11.5255381,21.9534096 C11.3448614,22.0102967 11.2184298,22.0464382 11.155411,22.0628537 C10.9442035,22.1296052 10.8037787,22.181654 10.6988721,22.2306923 C10.6233203,22.2660088 10.5597721,22.3019948 10.4994204,22.3490138 C10.2900751,22.5121111 10.1506076,22.7371728 10.2821529,23.0840457 C10.3895788,23.3673181 10.5697442,23.4529232 10.794353,23.4907452 C10.8634226,23.5023758 10.9330137,23.505429 11.0122266,23.5034669 C11.1293952,23.5005646 11.2797892,23.4854586 11.4647596,23.4589459 L21.6449823,22.0139953 C18.0713791,24.0603367 10.9264908,28.1567923 10.9264908,28.1567923 C9.7487556,28.8320359 10.1276959,29.9291076 11.4647596,29.7374593 L21.2546383,28.346883 C20.203654,28.948081 19.1632445,29.611041 18.1808646,30.326136 C16.0997552,31.8410194 14.5117461,33.418356 13.6113103,35.0432659 L14.684583,35.6383003 C15.4820933,34.1991279 16.9535729,32.7375377 18.9029261,31.3185625 C20.0020982,30.5184519 21.1828109,29.7825632 22.3637525,29.1289325 C22.777107,28.900148 23.16062,28.6981724 23.5042017,28.5251299 C23.7087871,28.4220918 23.8534396,28.3521223 23.9280957,28.3173129 C25.1611681,27.6840994 24.8045685,26.5854476 23.4521767,26.779293 L13.2525862,28.2375729 C13.2528441,28.237751 23.9904455,22.0814465 23.9904455,22.0814465 C25.1586589,21.4116622 24.8029764,20.3071624 23.4521767,20.5007795 L15.3370098,21.6469829 C15.3336882,21.6473202 15.9785425,21.2779529 16.2924463,21.076718 C18.9649052,19.3634801 20.7370744,17.142009 21.1411083,14.3498184 L19.9266482,14.174 C19.5813179,16.5605033 18.0302895,18.5047673 15.630293,20.0433373 Z" id="ziggy-android" fill="#FFFFFF" fill-rule="nonzero"></path>
            </g>
            <g id="Group" transform="translate(8.000000, 408.000000)">
                <path d="M94.9368528,16.4433052 C101.396558,18.8163142 106,24.975633 106,32.2 C106,41.4783838 98.4067494,49 89.04,49 L18.3733333,49 L18.3733333,48.9862559 C18.1389261,48.99539 17.9033399,49 17.6666667,49 C7.90963609,49 -7.10542736e-15,41.1649831 -7.10542736e-15,31.5 C-7.10542736e-15,25.1673054 3.39571626,19.6202406 8.48186927,16.5479976 C8.61787397,7.38580606 16.1581988,0 25.44,0 C30.4919399,0 35.0279752,2.18801211 38.1350185,5.65956308 C38.6091759,5.62012022 39.0888826,5.6 39.5733333,5.6 C44.4324645,5.6 48.8143189,7.62418694 51.9064147,10.8677439 C56.1883631,4.32703334 63.6240526,0 72.08,0 C82.7576361,0 91.8084666,6.89947308 94.9368528,16.4433052 Z" id="Combined-Shape" stroke="#8D919F" stroke-width="3"></path>
                <path d="M30.034,15.662 L35.914,15.662 L35.914,16.852 L31.378,16.852 L31.378,19.568 L34.794,19.568 L34.794,20.772 L31.378,20.772 L31.378,23.796 L36.25,23.796 L36.25,25 L30.034,25 L30.034,15.662 Z M39.498,21.64 L37.16,18.49 L38.728,18.49 L40.296,20.646 L41.836,18.49 L43.236,18.49 L40.968,21.542 L43.558,25 L41.976,25 L40.17,22.536 L38.392,25 L36.978,25 L39.498,21.64 Z M44.524,15.914 L45.938,15.914 L45.938,17.328 L44.524,17.328 L44.524,15.914 Z M44.608,18.49 L45.868,18.49 L45.868,25 L44.608,25 L44.608,18.49 Z M48.08,23.362 C48.3133345,23.5953345 48.5933317,23.7819993 48.92,23.922 C49.2466683,24.0620007 49.6246645,24.132 50.054,24.132 C50.4740021,24.132 50.8239986,24.064334 51.104,23.929 C51.3840014,23.793666 51.524,23.5813348 51.524,23.292 C51.524,23.1426659 51.493667,23.0143339 51.433,22.907 C51.372333,22.7996661 51.2696674,22.7040004 51.125,22.62 C50.9803326,22.5359996 50.7890012,22.4590004 50.551,22.389 C50.3129988,22.3189996 50.0166684,22.2420004 49.662,22.158 C49.4099987,22.1019997 49.1603346,22.0273338 48.913,21.934 C48.6656654,21.8406662 48.444001,21.7170008 48.248,21.563 C48.051999,21.4089992 47.8933339,21.2223344 47.772,21.003 C47.6506661,20.7836656 47.59,20.5200015 47.59,20.212 C47.59,19.8946651 47.6623326,19.6170012 47.807,19.379 C47.9516674,19.1409988 48.1453321,18.9403341 48.388,18.777 C48.6306679,18.6136659 48.9036651,18.4900004 49.207,18.406 C49.5103348,18.3219996 49.8253317,18.28 50.152,18.28 C50.7026694,18.28 51.1763313,18.3523326 51.573,18.497 C51.9696686,18.6416674 52.3173318,18.8446654 52.616,19.106 L51.93,19.974 C51.733999,19.7966658 51.4890015,19.6473339 51.195,19.526 C50.9009985,19.4046661 50.558002,19.344 50.166,19.344 C49.7646647,19.344 49.4426679,19.4093327 49.2,19.54 C48.9573321,19.6706673 48.836,19.8853318 48.836,20.184 C48.836,20.4640014 48.9969984,20.671666 49.319,20.807 C49.6410016,20.942334 50.0633307,21.0706661 50.586,21.192 C50.8940015,21.266667 51.1809987,21.3529995 51.447,21.451 C51.7130013,21.5490005 51.9463323,21.6749992 52.147,21.829 C52.3476677,21.9830008 52.5063327,22.1719989 52.623,22.396 C52.7396672,22.6200011 52.798,22.8906651 52.798,23.208 C52.798,23.5346683 52.7233341,23.8216654 52.574,24.069 C52.4246659,24.3163346 52.2240013,24.5239992 51.972,24.692 C51.7199987,24.8600008 51.4306683,24.9859996 51.104,25.07 C50.7773317,25.1540004 50.4366684,25.196 50.082,25.196 C48.8499938,25.196 47.9260031,24.86467 47.31,24.202 L48.08,23.362 Z M54.828,19.54 L53.652,19.54 L53.652,18.49 L54.828,18.49 L54.828,16.362 L56.088,16.362 L56.088,18.49 L57.992,18.49 L57.992,19.54 L56.088,19.54 L56.088,22.746 C56.088,23.2686693 56.1696658,23.627999 56.333,23.824 C56.4963341,24.020001 56.7273318,24.118 57.026,24.118 C57.2686679,24.118 57.4693325,24.080667 57.628,24.006 C57.7866675,23.931333 57.9453325,23.8193341 58.104,23.67 L58.678,24.44 C58.407332,24.7013346 58.1296681,24.8903327 57.845,25.007 C57.5603319,25.1236673 57.222002,25.182 56.83,25.182 C56.1393299,25.182 55.6330016,24.9953352 55.311,24.622 C54.9889984,24.2486648 54.828,23.6653373 54.828,22.872 L54.828,19.54 Z M59.616,15.914 L61.03,15.914 L61.03,17.328 L59.616,17.328 L59.616,15.914 Z M59.7,18.49 L60.96,18.49 L60.96,25 L59.7,25 L59.7,18.49 Z M62.752,25 L62.752,18.903 C62.752,18.8143329 62.7473334,18.6766676 62.738,18.49 L63.942,18.49 L63.984,19.47 C64.0680004,19.3579994 64.1706661,19.234334 64.292,19.099 C64.4133339,18.963666 64.5626658,18.8400006 64.74,18.728 C64.9173342,18.6159994 65.1249988,18.522667 65.363,18.448 C65.6010012,18.373333 65.8693318,18.336 66.168,18.336 C67.0173376,18.336 67.6473313,18.5833309 68.058,19.078 C68.4686687,19.5726691 68.674,20.2446624 68.674,21.094 L68.674,25 L67.414,25 L67.414,21.192 C67.414,20.5853303 67.2833346,20.1396681 67.022,19.855 C66.7606654,19.5703319 66.3920024,19.428 65.916,19.428 C65.5519982,19.428 65.2486679,19.5026659 65.006,19.652 C64.7633321,19.8013341 64.5696674,19.9949988 64.425,20.233 C64.2803326,20.4710012 64.1753337,20.7416651 64.11,21.045 C64.0446663,21.3483349 64.012,21.6586651 64.012,21.976 L64.012,25 L62.752,25 Z M75.044,19.638 C74.9599996,19.6099999 74.8176677,19.5703336 74.617,19.519 C74.4163323,19.4676664 74.1153353,19.442 73.714,19.442 C73.3593316,19.442 73.0373348,19.5003328 72.748,19.617 C72.4586652,19.7336672 72.209001,19.896999 71.999,20.107 C71.7889989,20.3170011 71.6256672,20.5666652 71.509,20.856 C71.3923327,21.1453348 71.334,21.4626649 71.334,21.808 C71.334,22.1066682 71.3689996,22.3866654 71.439,22.648 C71.5090003,22.9093346 71.6209992,23.137999 71.775,23.334 C71.9290008,23.530001 72.1226655,23.6839994 72.356,23.796 C72.5893345,23.9080006 72.8739983,23.964 73.21,23.964 C73.5180015,23.964 73.7886655,23.9173338 74.022,23.824 C74.2553345,23.7306662 74.4466659,23.6070008 74.596,23.453 C74.7453341,23.2989992 74.857333,23.1263343 74.932,22.935 C75.006667,22.7436657 75.044,22.5453344 75.044,22.34 L75.044,19.638 Z M71.236,26.33 C71.4506677,26.4793341 71.7143318,26.6076661 72.027,26.715 C72.3396682,26.8223339 72.7199978,26.876 73.168,26.876 C73.7933365,26.876 74.2599985,26.7033351 74.568,26.358 C74.8760015,26.0126649 75.03,25.5600028 75.03,25 L75.03,24.202 C74.9646663,24.2580003 74.8783339,24.3349995 74.771,24.433 C74.6636661,24.5310005 74.5283341,24.6243329 74.365,24.713 C74.2016658,24.8016671 74.0080011,24.8809996 73.784,24.951 C73.5599989,25.0210004 73.3033348,25.056 73.014,25.056 C72.5379976,25.056 72.1156685,24.9743342 71.747,24.811 C71.3783315,24.6476658 71.0680013,24.4236681 70.816,24.139 C70.5639987,23.8543319 70.3726673,23.5136686 70.242,23.117 C70.1113327,22.7203314 70.046,22.288669 70.046,21.822 C70.046,21.3179975 70.1346658,20.8536688 70.312,20.429 C70.4893342,20.0043312 70.7389984,19.6356682 71.061,19.323 C71.3830016,19.0103318 71.7679978,18.7676675 72.216,18.595 C72.6640022,18.4223325 73.1633306,18.336 73.714,18.336 C74.2460027,18.336 74.7406644,18.3826662 75.198,18.476 C75.6553356,18.5693338 76.0239986,18.6719994 76.304,18.784 L76.304,25 C76.304,25.9426714 76.0310027,26.6729974 75.485,27.191 C74.9389973,27.7090026 74.1713383,27.968 73.182,27.968 C72.51933,27.968 71.992002,27.8956674 71.6,27.751 C71.207998,27.6063326 70.8906679,27.4406676 70.648,27.254 L71.236,26.33 Z M11.666,31.662 L13.01,31.662 L13.01,41 L11.666,41 L11.666,31.662 Z M14.942,41 L14.942,34.903 C14.942,34.8143329 14.9373334,34.6766676 14.928,34.49 L16.132,34.49 L16.174,35.47 C16.2580004,35.3579994 16.3606661,35.234334 16.482,35.099 C16.6033339,34.963666 16.7526658,34.8400006 16.93,34.728 C17.1073342,34.6159994 17.3149988,34.522667 17.553,34.448 C17.7910012,34.373333 18.0593318,34.336 18.358,34.336 C19.2073376,34.336 19.8373313,34.5833309 20.248,35.078 C20.6586687,35.5726691 20.864,36.2446624 20.864,37.094 L20.864,41 L19.604,41 L19.604,37.192 C19.604,36.5853303 19.4733346,36.1396681 19.212,35.855 C18.9506654,35.5703319 18.5820024,35.428 18.106,35.428 C17.7419982,35.428 17.4386679,35.5026659 17.196,35.652 C16.9533321,35.8013341 16.7596674,35.9949988 16.615,36.233 C16.4703326,36.4710012 16.3653337,36.7416652 16.3,37.045 C16.2346663,37.3483349 16.202,37.6586651 16.202,37.976 L16.202,41 L14.942,41 Z M23.048,35.54 L21.872,35.54 L21.872,34.49 L23.048,34.49 L23.048,33.958 C23.048,33.5193311 23.1109994,33.1390016 23.237,32.817 C23.3630006,32.4949984 23.5309989,32.2313344 23.741,32.026 C23.951001,31.8206656 24.191332,31.6690005 24.462,31.571 C24.732668,31.4729995 25.0173318,31.424 25.316,31.424 C25.6613351,31.424 25.999665,31.4776661 26.331,31.585 C26.662335,31.6923339 26.9679986,31.8766654 27.248,32.138 L26.618,32.95 C26.2726649,32.6606652 25.904002,32.516 25.512,32.516 C25.1479982,32.516 24.8563344,32.6326655 24.637,32.866 C24.4176656,33.0993345 24.308,33.5006638 24.308,34.07 L24.308,34.49 L26.17,34.49 L26.17,35.54 L24.308,35.54 L24.308,41 L23.048,41 L23.048,35.54 Z M27.178,41 L27.178,34.896 C27.178,34.8119996 27.1733334,34.6766676 27.164,34.49 L28.368,34.49 L28.41,35.54 C28.484667,35.4279994 28.5826661,35.304334 28.704,35.169 C28.8253339,35.033666 28.9723325,34.9100006 29.145,34.798 C29.3176675,34.6859994 29.5183322,34.5903337 29.747,34.511 C29.9756678,34.4316663 30.2393318,34.392 30.538,34.392 C30.6780007,34.392 30.8063327,34.4013332 30.923,34.42 C31.0396672,34.4386668 31.1493328,34.4666665 31.252,34.504 L30.972,35.68 C30.8039992,35.6146663 30.5893346,35.582 30.328,35.582 C30.057332,35.582 29.8076678,35.6333328 29.579,35.736 C29.3503322,35.8386672 29.1520008,35.9809991 28.984,36.163 C28.8159992,36.3450009 28.6830005,36.5573321 28.585,36.8 C28.4869995,37.0426679 28.438,37.299332 28.438,37.57 L28.438,41 L27.178,41 Z M36.348,40.216 C36.1053321,40.5426683 35.7856686,40.7853325 35.389,40.944 C34.9923313,41.1026675 34.5840021,41.182 34.164,41.182 C33.893332,41.182 33.6250013,41.1470003 33.359,41.077 C33.0929987,41.0069996 32.8503344,40.8903342 32.631,40.727 C32.4116656,40.5636658 32.234334,40.353668 32.099,40.097 C31.963666,39.8403321 31.896,39.5253352 31.896,39.152 C31.896,38.4519965 32.1409975,37.8920021 32.631,37.472 C33.1210024,37.0519979 33.8279954,36.842 34.752,36.842 C34.9013341,36.842 35.0599992,36.8466666 35.228,36.856 C35.3960008,36.8653334 35.5546659,36.8746666 35.704,36.884 C35.8533341,36.8933334 35.9839994,36.9026666 36.096,36.912 C36.2080006,36.9213334 36.2873331,36.9306666 36.334,36.94 L36.334,36.702 C36.334,36.2166642 36.1870015,35.8690011 35.893,35.659 C35.5989985,35.448999 35.2000025,35.344 34.696,35.344 C34.2013309,35.344 33.8093348,35.411666 33.52,35.547 C33.2306652,35.682334 32.988001,35.8199993 32.792,35.96 L32.204,35.106 C32.3160006,35.0126662 32.4513325,34.9193338 32.61,34.826 C32.7686675,34.7326662 32.9553323,34.6463337 33.17,34.567 C33.3846677,34.4876663 33.627332,34.4223336 33.898,34.371 C34.168668,34.3196664 34.4813316,34.294 34.836,34.294 C35.6760042,34.294 36.3363309,34.496998 36.817,34.903 C37.2976691,35.309002 37.538,35.8853296 37.538,36.632 L37.538,40.671 C37.538,40.7596671 37.5426666,40.8693327 37.552,41 L36.376,41 L36.348,40.216 Z M36.334,37.92 C36.2966665,37.9106666 36.2243339,37.8990001 36.117,37.885 C36.0096661,37.8709999 35.8860007,37.8593334 35.746,37.85 C35.6059993,37.8406666 35.4566675,37.8313334 35.298,37.822 C35.1393325,37.8126666 34.9853341,37.808 34.836,37.808 C34.4813316,37.808 34.1943344,37.8499996 33.975,37.934 C33.7556656,38.0180004 33.5830006,38.1229994 33.457,38.249 C33.3309994,38.3750006 33.2446669,38.5149992 33.198,38.669 C33.1513331,38.8230008 33.128,38.9699993 33.128,39.11 C33.128,39.4646684 33.2493321,39.7329991 33.492,39.915 C33.7346679,40.0970009 34.0706645,40.188 34.5,40.188 C34.7426679,40.188 34.9736656,40.1460004 35.193,40.062 C35.4123344,39.9779996 35.6059992,39.8660007 35.774,39.726 C35.9420008,39.5859993 36.0773328,39.4226676 36.18,39.236 C36.2826672,39.0493324 36.334,38.858001 36.334,38.662 L36.334,37.92 Z M39.68,39.362 C39.9133345,39.5953345 40.1933317,39.7819993 40.52,39.922 C40.8466683,40.0620007 41.2246645,40.132 41.654,40.132 C42.0740021,40.132 42.4239986,40.064334 42.704,39.929 C42.9840014,39.793666 43.124,39.5813348 43.124,39.292 C43.124,39.1426659 43.093667,39.0143339 43.033,38.907 C42.972333,38.7996661 42.8696674,38.7040004 42.725,38.62 C42.5803326,38.5359996 42.3890012,38.4590003 42.151,38.389 C41.9129988,38.3189997 41.6166684,38.2420004 41.262,38.158 C41.0099987,38.1019997 40.7603346,38.0273338 40.513,37.934 C40.2656654,37.8406662 40.044001,37.7170008 39.848,37.563 C39.651999,37.4089992 39.4933339,37.2223344 39.372,37.003 C39.2506661,36.7836656 39.19,36.5200015 39.19,36.212 C39.19,35.8946651 39.2623326,35.6170012 39.407,35.379 C39.5516674,35.1409988 39.7453321,34.9403341 39.988,34.777 C40.2306679,34.6136659 40.5036651,34.4900004 40.807,34.406 C41.1103348,34.3219996 41.4253317,34.28 41.752,34.28 C42.3026694,34.28 42.7763313,34.3523326 43.173,34.497 C43.5696686,34.6416674 43.9173318,34.8446654 44.216,35.106 L43.53,35.974 C43.333999,35.7966658 43.0890015,35.6473339 42.795,35.526 C42.5009985,35.4046661 42.158002,35.344 41.766,35.344 C41.3646647,35.344 41.0426679,35.4093327 40.8,35.54 C40.5573321,35.6706673 40.436,35.8853318 40.436,36.184 C40.436,36.4640014 40.5969984,36.671666 40.919,36.807 C41.2410016,36.942334 41.6633307,37.0706661 42.186,37.192 C42.4940015,37.266667 42.7809987,37.3529995 43.047,37.451 C43.3130013,37.5490005 43.5463323,37.6749992 43.747,37.829 C43.9476677,37.9830008 44.1063327,38.1719989 44.223,38.396 C44.3396672,38.6200011 44.398,38.8906651 44.398,39.208 C44.398,39.5346683 44.3233341,39.8216654 44.174,40.069 C44.0246659,40.3163346 43.8240013,40.5239992 43.572,40.692 C43.3199987,40.8600008 43.0306683,40.9859996 42.704,41.07 C42.3773317,41.1540004 42.0366684,41.196 41.682,41.196 C40.4499938,41.196 39.5260031,40.86467 38.91,40.202 L39.68,39.362 Z M46.428,35.54 L45.252,35.54 L45.252,34.49 L46.428,34.49 L46.428,32.362 L47.688,32.362 L47.688,34.49 L49.592,34.49 L49.592,35.54 L47.688,35.54 L47.688,38.746 C47.688,39.2686693 47.7696658,39.627999 47.933,39.824 C48.0963341,40.020001 48.3273318,40.118 48.626,40.118 C48.8686679,40.118 49.0693325,40.080667 49.228,40.006 C49.3866675,39.931333 49.5453325,39.8193341 49.704,39.67 L50.278,40.44 C50.007332,40.7013346 49.7296681,40.8903327 49.445,41.007 C49.1603319,41.1236672 48.822002,41.182 48.43,41.182 C47.7393299,41.182 47.2330016,40.9953352 46.911,40.622 C46.5889984,40.2486648 46.428,39.6653373 46.428,38.872 L46.428,35.54 Z M51.244,41 L51.244,34.896 C51.244,34.8119996 51.2393334,34.6766676 51.23,34.49 L52.434,34.49 L52.476,35.54 C52.550667,35.4279994 52.6486661,35.304334 52.77,35.169 C52.8913339,35.033666 53.0383325,34.9100006 53.211,34.798 C53.3836675,34.6859994 53.5843322,34.5903337 53.813,34.511 C54.0416678,34.4316663 54.3053318,34.392 54.604,34.392 C54.7440007,34.392 54.8723327,34.4013332 54.989,34.42 C55.1056672,34.4386668 55.2153328,34.4666665 55.318,34.504 L55.038,35.68 C54.8699992,35.6146663 54.6553346,35.582 54.394,35.582 C54.123332,35.582 53.8736678,35.6333328 53.645,35.736 C53.4163322,35.8386672 53.2180008,35.9809991 53.05,36.163 C52.8819992,36.3450009 52.7490005,36.5573321 52.651,36.8 C52.5529995,37.0426679 52.504,37.299332 52.504,37.57 L52.504,41 L51.244,41 Z M56.298,34.49 L57.558,34.49 L57.558,38.312 C57.558,38.9280031 57.6839987,39.3736653 57.936,39.649 C58.1880013,39.9243347 58.5519976,40.062 59.028,40.062 C59.3920018,40.062 59.6929988,39.9873341 59.931,39.838 C60.1690012,39.6886659 60.3626659,39.4950012 60.512,39.257 C60.6613341,39.0189988 60.766333,38.7483348 60.827,38.445 C60.887667,38.1416652 60.918,37.8313349 60.918,37.514 L60.918,34.49 L62.178,34.49 L62.178,40.601 C62.178,40.736334 62.1826666,40.8693327 62.192,41 L60.988,41 L60.946,40.034 C60.8619996,40.1460006 60.7593339,40.2673327 60.638,40.398 C60.5166661,40.5286673 60.3673342,40.6476661 60.19,40.755 C60.0126658,40.8623339 59.8073345,40.953333 59.574,41.028 C59.3406655,41.102667 59.0746682,41.14 58.776,41.14 C57.9266624,41.14 57.3013353,40.8950024 56.9,40.405 C56.4986647,39.9149975 56.298,39.2453376 56.298,38.396 L56.298,34.49 Z M69.584,40.104 C69.2946652,40.4306683 68.9376688,40.6943323 68.513,40.895 C68.0883312,41.0956677 67.5960028,41.196 67.036,41.196 C66.5133307,41.196 66.0396688,41.1096675 65.615,40.937 C65.1903312,40.7643325 64.8310015,40.5263348 64.537,40.223 C64.2429985,39.9196652 64.0166675,39.5556688 63.858,39.131 C63.6993325,38.7063312 63.62,38.2420025 63.62,37.738 C63.62,37.2619976 63.7039992,36.8140021 63.872,36.394 C64.0400008,35.9739979 64.2756651,35.6076682 64.579,35.295 C64.8823348,34.9823318 65.2416646,34.7350009 65.657,34.553 C66.0723354,34.3709991 66.5319975,34.28 67.036,34.28 C67.5866694,34.28 68.0719979,34.377999 68.492,34.574 C68.9120021,34.770001 69.2713318,35.0359983 69.57,35.372 L68.744,36.17 C68.547999,35.9273321 68.3100014,35.7360007 68.03,35.596 C67.7499986,35.4559993 67.4186686,35.386 67.036,35.386 C66.6999983,35.386 66.3990013,35.4489994 66.133,35.575 C65.8669987,35.7010006 65.6430009,35.8736656 65.461,36.093 C65.2789991,36.3123344 65.1390005,36.5643319 65.041,36.849 C64.9429995,37.1336681 64.894,37.4299985 64.894,37.738 C64.894,38.0366682 64.9429995,38.3283319 65.041,38.613 C65.1390005,38.8976681 65.2789991,39.1496656 65.461,39.369 C65.6430009,39.5883344 65.8669987,39.7633327 66.133,39.894 C66.3990013,40.0246673 66.6999983,40.09 67.036,40.09 C67.4186686,40.09 67.7616651,40.0176674 68.065,39.873 C68.3683348,39.7283326 68.617999,39.5346679 68.814,39.292 L69.584,40.104 Z M71.39,35.54 L70.214,35.54 L70.214,34.49 L71.39,34.49 L71.39,32.362 L72.65,32.362 L72.65,34.49 L74.554,34.49 L74.554,35.54 L72.65,35.54 L72.65,38.746 C72.65,39.2686693 72.7316658,39.627999 72.895,39.824 C73.0583341,40.020001 73.2893318,40.118 73.588,40.118 C73.8306679,40.118 74.0313325,40.080667 74.19,40.006 C74.3486675,39.931333 74.5073325,39.8193341 74.666,39.67 L75.24,40.44 C74.969332,40.7013346 74.6916681,40.8903327 74.407,41.007 C74.1223319,41.1236672 73.784002,41.182 73.392,41.182 C72.7013299,41.182 72.1950016,40.9953352 71.873,40.622 C71.5509984,40.2486648 71.39,39.6653373 71.39,38.872 L71.39,35.54 Z M76.164,34.49 L77.424,34.49 L77.424,38.312 C77.424,38.9280031 77.5499987,39.3736653 77.802,39.649 C78.0540013,39.9243347 78.4179976,40.062 78.894,40.062 C79.2580018,40.062 79.5589988,39.9873341 79.797,39.838 C80.0350012,39.6886659 80.2286659,39.4950012 80.378,39.257 C80.5273341,39.0189988 80.632333,38.7483348 80.693,38.445 C80.753667,38.1416652 80.784,37.8313349 80.784,37.514 L80.784,34.49 L82.044,34.49 L82.044,40.601 C82.044,40.736334 82.0486666,40.8693327 82.058,41 L80.854,41 L80.812,40.034 C80.7279996,40.1460006 80.6253339,40.2673327 80.504,40.398 C80.3826661,40.5286673 80.2333342,40.6476661 80.056,40.755 C79.8786658,40.8623339 79.6733345,40.953333 79.44,41.028 C79.2066655,41.102667 78.9406682,41.14 78.642,41.14 C77.7926624,41.14 77.1673353,40.8950024 76.766,40.405 C76.3646647,39.9149975 76.164,39.2453376 76.164,38.396 L76.164,34.49 Z M83.794,41 L83.794,34.896 C83.794,34.8119996 83.7893334,34.6766676 83.78,34.49 L84.984,34.49 L85.026,35.54 C85.100667,35.4279994 85.1986661,35.304334 85.32,35.169 C85.4413339,35.033666 85.5883325,34.9100006 85.761,34.798 C85.9336675,34.6859994 86.1343322,34.5903337 86.363,34.511 C86.5916678,34.4316663 86.8553318,34.392 87.154,34.392 C87.2940007,34.392 87.4223327,34.4013332 87.539,34.42 C87.6556672,34.4386668 87.7653328,34.4666665 87.868,34.504 L87.588,35.68 C87.4199992,35.6146663 87.2053346,35.582 86.944,35.582 C86.673332,35.582 86.4236678,35.6333328 86.195,35.736 C85.9663322,35.8386672 85.7680008,35.9809991 85.6,36.163 C85.4319992,36.3450009 85.2990005,36.5573321 85.201,36.8 C85.1029995,37.0426679 85.054,37.299332 85.054,37.57 L85.054,41 L83.794,41 Z M94.826,40.048 C94.751333,40.1320004 94.6393341,40.2393327 94.49,40.37 C94.3406659,40.5006673 94.1470012,40.6266661 93.909,40.748 C93.6709988,40.8693339 93.3910016,40.9743329 93.069,41.063 C92.7469984,41.1516671 92.3806687,41.196 91.97,41.196 C91.4659975,41.196 91.0040021,41.1120008 90.584,40.944 C90.1639979,40.7759992 89.8046682,40.5380015 89.506,40.23 C89.2073318,39.9219985 88.9763341,39.5533355 88.813,39.124 C88.6496658,38.6946645 88.568,38.2186693 88.568,37.696 C88.568,37.2199976 88.6473325,36.7743354 88.806,36.359 C88.9646675,35.9436646 89.1886652,35.5843349 89.478,35.281 C89.7673348,34.9776651 90.1103313,34.7373342 90.507,34.56 C90.9036686,34.3826658 91.3399976,34.294 91.816,34.294 C92.3760028,34.294 92.8566647,34.4013323 93.258,34.616 C93.6593353,34.8306677 93.988332,35.1153316 94.245,35.47 C94.5016679,35.8246684 94.6906661,36.2306644 94.812,36.688 C94.9333339,37.1453356 94.994,37.6213309 94.994,38.116 L89.856,38.116 C89.8653334,38.4053348 89.9283327,38.6713321 90.045,38.914 C90.1616672,39.1566679 90.317999,39.3666658 90.514,39.544 C90.710001,39.7213342 90.9339987,39.8613328 91.186,39.964 C91.4380013,40.0666672 91.7039986,40.118 91.984,40.118 C92.5346694,40.118 92.9873316,40.0246676 93.342,39.838 C93.6966684,39.6513324 93.9533325,39.4693342 94.112,39.292 L94.826,40.048 Z M93.692,37.178 C93.6546665,36.6739975 93.4773349,36.2446684 93.16,35.89 C92.8426651,35.5353316 92.3946696,35.358 91.816,35.358 C91.5173318,35.358 91.2490012,35.4093328 91.011,35.512 C90.7729988,35.6146672 90.5700008,35.7499992 90.402,35.918 C90.2339992,36.0860008 90.1033338,36.2796656 90.01,36.499 C89.9166662,36.7183344 89.8653334,36.9446655 89.856,37.178 L93.692,37.178 Z" id="Existing-Infrastruct" fill="#8D919F"></path>
            </g>
        </g>
    </g>
</svg>