<svg id="Layer_2" data-name="Layer 2" xmlns="http://www.w3.org/2000/svg" viewBox="0 0 100 100"><defs><style>.cls-1{fill:#cf509c;}</style></defs><title>world-tour-log</title><path class="cls-1" d="M54.75,96.39a46.7,46.7,0,1,1,20.24-7A46.7,46.7,0,0,1,54.75,96.39ZM45.66,6.88A43.34,43.34,0,1,0,92.29,59.43h0A43.34,43.34,0,0,0,45.66,6.88Z"/><path class="cls-1" d="M53.79,87.6a37.8,37.8,0,1,1,33.1-29.38A37.64,37.64,0,0,1,53.79,87.6Zm-7.31-72a34.61,34.61,0,1,0,11,.67A34.36,34.36,0,0,0,46.48,15.64Z"/><path class="cls-1" d="M70.37,39.84a1.64,1.64,0,0,1-.52,0L36.36,32.34a1.64,1.64,0,1,1,.71-3.2l33.49,7.47A1.64,1.64,0,0,1,70.37,39.84Z"/><path class="cls-1" d="M72.17,64.77a1.64,1.64,0,0,1-.52,0L24.14,54.14a1.64,1.64,0,1,1,.71-3.2l47.51,10.6A1.64,1.64,0,0,1,72.17,64.77Z"/><path class="cls-1" d="M62.9,73.33a1.64,1.64,0,0,1-.52,0L28.89,65.83a1.64,1.64,0,1,1,.71-3.2L63.09,70.1A1.64,1.64,0,0,1,62.9,73.33Z"/><path class="cls-1" d="M74.67,55.45l-0.26-.06a0.87,0.87,0,0,1-.58-1.07l1.74-7.8a0.87,0.87,0,0,1,1-.73l0.26,0.06a0.87,0.87,0,0,1,.58,1.07l-1.74,7.8A0.87,0.87,0,0,1,74.67,55.45Zm-5.45-1.22L69,54.17a0.87,0.87,0,0,1-.58-1.07l1.74-7.8a0.87,0.87,0,0,1,1-.73l0.26,0.06a0.87,0.87,0,0,1,.58,1.07l-1.74,7.8A0.87,0.87,0,0,1,69.22,54.23ZM63.77,53L63.51,53a0.87,0.87,0,0,1-.58-1.07l1.74-7.8a0.87,0.87,0,0,1,1-.73l0.26,0.06a0.87,0.87,0,0,1,.58,1.07l-1.74,7.8A0.87,0.87,0,0,1,63.77,53ZM58.32,51.8l-0.26-.06a0.87,0.87,0,0,1-.58-1.07l1.74-7.8a0.87,0.87,0,0,1,1-.73l0.26,0.06A0.87,0.87,0,0,1,61,43.27l-1.74,7.8A0.87,0.87,0,0,1,58.32,51.8Zm-10.9-2.43-0.26-.06a0.87,0.87,0,0,1-.58-1.07l1.74-7.8a0.87,0.87,0,0,1,1-.73l0.26,0.06a0.87,0.87,0,0,1,.58,1.07l-1.74,7.8A0.87,0.87,0,0,1,47.41,49.37ZM42,48.15l-0.26-.06A0.87,0.87,0,0,1,41.13,47l1.74-7.8a0.87,0.87,0,0,1,1-.73l0.26,0.06a0.87,0.87,0,0,1,.58,1.07l-1.74,7.8A0.87,0.87,0,0,1,42,48.15Zm-10.9-2.43-0.26-.06a0.87,0.87,0,0,1-.58-1.07L32,36.78a0.87,0.87,0,0,1,1-.73l0.26,0.06a0.87,0.87,0,0,1,.58,1.07L32,45A0.87,0.87,0,0,1,31.06,45.72ZM25.61,44.5l-0.26-.06a0.87,0.87,0,0,1-.58-1.07l1.74-7.8a0.87,0.87,0,0,1,1-.73l0.26,0.06A0.87,0.87,0,0,1,28.33,36l-1.74,7.8A0.87,0.87,0,0,1,25.61,44.5Z"/><path class="cls-1" d="M74.91,55.6a0.83,0.83,0,0,1-.27,0l-0.26-.06a1,1,0,0,1-.68-1.24l1.74-7.8a1,1,0,0,1,1.14-.83l0.26,0.06a1,1,0,0,1,.68,1.24l-1.74,7.8a1.13,1.13,0,0,1-.42.67A0.91,0.91,0,0,1,74.91,55.6Zm-0.21-.28a0.6,0.6,0,0,0,.5-0.12,0.86,0.86,0,0,0,.32-0.51l1.74-7.8A0.73,0.73,0,0,0,76.79,46l-0.26-.06a0.74,0.74,0,0,0-.82.62L74,54.35a0.73,0.73,0,0,0,.47.91Zm-5.25-.93a0.82,0.82,0,0,1-.26,0l-0.26-.06a1,1,0,0,1-.68-1.24L70,45.27a1.13,1.13,0,0,1,.42-0.67,0.88,0.88,0,0,1,.72-0.16l0.26,0.06a1,1,0,0,1,.68,1.24l-1.74,7.8A1.05,1.05,0,0,1,69.46,54.38Zm-0.21-.28a0.74,0.74,0,0,0,.82-0.62l1.74-7.8a0.73,0.73,0,0,0-.47-0.91l-0.26-.06a0.62,0.62,0,0,0-.5.12,0.86,0.86,0,0,0-.32.51l-1.74,7.8A0.73,0.73,0,0,0,69,54ZM64,53.17a0.83,0.83,0,0,1-.27,0l-0.26-.06a1,1,0,0,1-.68-1.24L64.54,44a1,1,0,0,1,1.14-.83l0.26,0.06a0.88,0.88,0,0,1,.58.46,1.13,1.13,0,0,1,.1.78l-1.74,7.8a1.13,1.13,0,0,1-.42.67A0.91,0.91,0,0,1,64,53.17Zm-0.21-.28a0.6,0.6,0,0,0,.5-0.12,0.85,0.85,0,0,0,.32-0.51l1.74-7.8a0.85,0.85,0,0,0-.07-0.59,0.61,0.61,0,0,0-.4-0.32l-0.26-.06a0.73,0.73,0,0,0-.82.62l-1.74,7.8a0.73,0.73,0,0,0,.47.91Zm-5.25-.93a0.82,0.82,0,0,1-.26,0L58,51.88a1,1,0,0,1-.68-1.24l1.74-7.8a1.13,1.13,0,0,1,.42-0.67A0.87,0.87,0,0,1,60.23,42l0.26,0.06a1,1,0,0,1,.68,1.24L59.43,51.1A1.05,1.05,0,0,1,58.55,51.95Zm-0.21-.28A0.73,0.73,0,0,0,59.17,51l1.74-7.8a0.73,0.73,0,0,0-.47-0.91l-0.26-.06a0.61,0.61,0,0,0-.5.12,0.86,0.86,0,0,0-.32.51l-1.74,7.8a0.73,0.73,0,0,0,.47.91ZM47.65,49.52a0.83,0.83,0,0,1-.27,0l-0.26-.06a1,1,0,0,1-.68-1.24l1.74-7.8a1.13,1.13,0,0,1,.42-0.67,0.87,0.87,0,0,1,.72-0.16l0.26,0.06a1,1,0,0,1,.68,1.24l-1.74,7.8a1.13,1.13,0,0,1-.42.67A0.92,0.92,0,0,1,47.65,49.52Zm-0.21-.28a0.6,0.6,0,0,0,.5-0.12,0.85,0.85,0,0,0,.32-0.51L50,40.81a0.73,0.73,0,0,0-.47-0.91l-0.26-.06a0.61,0.61,0,0,0-.5.12,0.85,0.85,0,0,0-.32.51l-1.74,7.8a0.73,0.73,0,0,0,.47.91ZM42.2,48.3a0.83,0.83,0,0,1-.27,0l-0.26-.06a0.88,0.88,0,0,1-.58-0.46A1.13,1.13,0,0,1,41,47l1.74-7.8a1.13,1.13,0,0,1,.42-0.67,0.87,0.87,0,0,1,.72-0.16l0.26,0.06a0.87,0.87,0,0,1,.55.39,1.13,1.13,0,0,1,.13.84l-1.74,7.8a1.13,1.13,0,0,1-.42.67A0.91,0.91,0,0,1,42.2,48.3Zm1.44-9.69a0.64,0.64,0,0,0-.32.13,0.85,0.85,0,0,0-.32.51L41.26,47a0.86,0.86,0,0,0,.07.59,0.61,0.61,0,0,0,.4.32L42,48a0.6,0.6,0,0,0,.5-0.12,0.86,0.86,0,0,0,.32-0.51l1.74-7.8a0.85,0.85,0,0,0-.1-0.64,0.61,0.61,0,0,0-.37-0.27l-0.26-.06H43.64ZM31.3,45.87a0.82,0.82,0,0,1-.26,0l-0.26-.06a0.87,0.87,0,0,1-.55-0.39,1.13,1.13,0,0,1-.13-0.84l1.74-7.8a1.13,1.13,0,0,1,.42-0.67A0.87,0.87,0,0,1,33,35.92L33.23,36a1,1,0,0,1,.68,1.24L32.17,45A1.05,1.05,0,0,1,31.3,45.87Zm1.44-9.69a0.64,0.64,0,0,0-.32.13,0.86,0.86,0,0,0-.32.51l-1.74,7.8a0.85,0.85,0,0,0,.1.64,0.61,0.61,0,0,0,.37.27l0.26,0.06A0.73,0.73,0,0,0,31.91,45l1.74-7.8a0.73,0.73,0,0,0-.47-0.91l-0.26-.06H32.73Zm-6.89,8.47a0.83,0.83,0,0,1-.27,0l-0.26-.06a1,1,0,0,1-.68-1.24l1.74-7.8a1,1,0,0,1,1.14-.83l0.26,0.06A1,1,0,0,1,28.46,36l-1.74,7.8a1.13,1.13,0,0,1-.42.67A0.92,0.92,0,0,1,25.85,44.65Zm-0.21-.28a0.6,0.6,0,0,0,.5-0.12,0.85,0.85,0,0,0,.32-0.51l1.74-7.8A0.73,0.73,0,0,0,27.72,35L27.46,35a0.73,0.73,0,0,0-.82.62L24.9,43.4a0.73,0.73,0,0,0,.47.91Z"/></svg>