<svg id="Layer_2" data-name="Layer 2" xmlns="http://www.w3.org/2000/svg" viewBox="0 0 119 76.9"><defs><style>.cls-1{fill:#f27c87;}</style></defs><title>world-tour-log</title><path class="cls-1" d="M95.14,52L21.47,36.37a1.54,1.54,0,1,1,.64-3L95.78,49A1.54,1.54,0,0,1,95.14,52Z"/><path class="cls-1" d="M82.08,60L30.14,49a1.54,1.54,0,1,1,.64-3L82.72,57A1.54,1.54,0,0,1,82.08,60Z"/><path class="cls-1" d="M86.65,38.46l-51.94-11a1.54,1.54,0,1,1,.64-3l51.94,11A1.54,1.54,0,0,1,86.65,38.46Z"/><path class="cls-1" d="M52.47,69.84A6.28,6.28,0,0,1,51,69.33L11.55,49.74a6.27,6.27,0,0,1-3.34-6.91l6.15-29a6.27,6.27,0,0,1,5.86-5l44-1.9a6.29,6.29,0,0,1,3,.64l40.19,19.76a6.26,6.26,0,0,1,3.36,6.92l-6.15,29a6.26,6.26,0,0,1-5.89,5h0L54,70A6.24,6.24,0,0,1,52.47,69.84ZM65.14,10.09a3.19,3.19,0,0,0-.8-0.07l-44,1.9a3.19,3.19,0,0,0-3,2.52l-6.15,29A3.19,3.19,0,0,0,12.92,47L52.35,66.57a3.18,3.18,0,0,0,1.54.33l44.75-1.75a3.19,3.19,0,0,0,3-2.53l6.15-29a3.19,3.19,0,0,0-1.71-3.52L65.89,10.35A3.19,3.19,0,0,0,65.14,10.09ZM98.7,66.68h0Z"/><path class="cls-1" d="M51,76.63a6.69,6.69,0,0,1-1.68-.6L4,52.64a7.29,7.29,0,0,1-3.64-8L7.91,9a7.29,7.29,0,0,1,6.58-5.87l50.89-3a6.69,6.69,0,0,1,3.43.72L115,24.44a7.28,7.28,0,0,1,3.66,8L111.1,68.07a7.29,7.29,0,0,1-6.61,5.87h0L52.72,76.76A6.69,6.69,0,0,1,51,76.63ZM66.52,3.28a3.6,3.6,0,0,0-1-.07l-50.89,3a4.21,4.21,0,0,0-3.75,3.43L3.37,45.25a4.21,4.21,0,0,0,2,4.66l45.3,23.39a3.6,3.6,0,0,0,1.85.4l51.76-2.83a4.2,4.2,0,0,0,3.77-3.43l7.54-35.58a4.2,4.2,0,0,0-2.05-4.67L67.42,3.6A3.61,3.61,0,0,0,66.52,3.28ZM104.4,72.4h0Z"/><path class="cls-1" d="M65.28,16l0.19,1.8a1,1,0,0,0,.81.9L68,19A1,1,0,0,1,68.25,21l-1.65.74a1,1,0,0,0-.6,1l0.19,1.8a1,1,0,0,1-1.78.79L63.2,24A1,1,0,0,0,62,23.77l-1.65.74a1,1,0,0,1-1.31-1.45L60,21.49a1,1,0,0,0-.13-1.2l-1.21-1.34a1,1,0,0,1,1-1.69l1.77,0.37a1,1,0,0,0,1.1-.49l0.9-1.57A1,1,0,0,1,65.28,16Z"/></svg>