<svg id="Layer_2" data-name="Layer 2" xmlns="http://www.w3.org/2000/svg" viewBox="0 0 116.71 74.87"><defs><style>.cls-1{fill:#cf509c;}</style></defs><title>world-tour-log</title><path class="cls-1" d="M70.8,74.87a94.69,94.69,0,0,1-20.12-2.23c-15.32-3.34-29-10.08-38.41-19C2.61,44.61-1.56,34.35.52,24.81S10.67,7.67,23.23,3.45C35.52-.68,50.73-1.12,66,2.23c31.89,7,54.39,28.42,50.15,47.83C114.11,59.61,106,67.19,93.49,71.42A71.59,71.59,0,0,1,70.8,74.87ZM45.92,3a68.55,68.55,0,0,0-21.73,3.3C12.67,10.17,5.31,17,3.46,25.45s2,17.73,10.86,26c9.06,8.51,22.2,15,37,18.21s29.43,2.83,41.22-1.14c11.52-3.87,18.88-10.68,20.73-19.15,3.89-17.8-17.58-37.65-47.86-44.26A91.73,91.73,0,0,0,45.92,3Z"/><path class="cls-1" d="M71,65.67a86.75,86.75,0,0,1-18.4-2.05c-12.66-2.76-24-8-31.95-14.74C12.49,41.92,8.83,34.13,10.4,27s8.13-12.72,18.5-15.63c10-2.82,22.53-2.85,35.18-.08s24,8,31.95,14.74c8.21,7,11.86,14.74,10.3,21.92s-8.13,12.72-18.5,15.63A62.53,62.53,0,0,1,71,65.67ZM45.68,12.2a59.5,59.5,0,0,0-16,2c-9.24,2.59-15.06,7.35-16.37,13.38s2,12.78,9.31,19C30.22,53,41.1,58,53.29,60.69s24.17,2.65,33.73,0c9.24-2.59,15.06-7.35,16.37-13.38s-2-12.78-9.31-19c-7.58-6.43-18.46-11.44-30.65-14.1A83.79,83.79,0,0,0,45.68,12.2Z"/><path class="cls-1" d="M94.1,40.33a1.5,1.5,0,0,1-1.38-.92C89.83,32.6,78.75,25.6,65.15,22c-1.11-.29-2.24-0.56-3.36-0.81s-2.34-.48-3.5-0.68c-13.94-2.39-26.56-.72-32.14,4.28a1.5,1.5,0,1,1-2-2.24C30.38,17,44,15,58.79,17.56c1.2,0.21,2.42.45,3.63,0.71s2.34,0.54,3.49.84C80.59,23,92.2,30.5,95.48,38.25A1.5,1.5,0,0,1,94.1,40.33Z"/><path class="cls-1" d="M68.3,58.16h0a76.54,76.54,0,0,1-9.91-.8C57.18,57.18,56,57,54.83,56.76S52.4,56.27,51.21,56a75.83,75.83,0,0,1-10.12-3.14,1.5,1.5,0,0,1,1.09-2.79,72.86,72.86,0,0,0,9.72,3c1.14,0.27,2.32.52,3.49,0.74s2.27,0.41,3.41.57a73.43,73.43,0,0,0,9.52.77A1.5,1.5,0,0,1,68.3,58.16Z"/><path class="cls-1" d="M74.62,37.2a1.51,1.51,0,0,1-.3,0L43.78,30.94a1.5,1.5,0,0,1,.6-2.94l30.54,6.23A1.5,1.5,0,0,1,74.62,37.2Z"/><path class="cls-1" d="M86.89,49.39a1.51,1.51,0,0,1-.3,0l-58.87-12a1.5,1.5,0,0,1,.6-2.94l58.87,12A1.5,1.5,0,0,1,86.89,49.39Z"/></svg>