<svg id="Layer_2" data-name="Layer 2" xmlns="http://www.w3.org/2000/svg" viewBox="0 0 116 90"><defs><style>.cls-1{fill:#59569d;}</style></defs><title>world-tour-log</title><path class="cls-1" d="M85.87,59.29a1.28,1.28,0,0,0,.29-2.51L28,39.29a1.28,1.28,0,0,0-.74,2.46L85.42,59.24A1.29,1.29,0,0,0,85.87,59.29Z"/><path class="cls-1" d="M74.43,66.2a1.28,1.28,0,0,0,.29-2.51l-41-12.33A1.28,1.28,0,0,0,33,53.81L74,66.14A1.29,1.29,0,0,0,74.43,66.2Z"/><path class="cls-1" d="M28.05,31.65l2.2-7.31a0.94,0.94,0,0,1,1.21-.56l0.32,0.1a0.94,0.94,0,0,1,.7,1.13l-2.2,7.31a0.94,0.94,0,0,1-1.21.56l-0.32-.1A0.94,0.94,0,0,1,28.05,31.65Zm6.67,2,2.2-7.31a0.94,0.94,0,0,1,1.21-.56l0.32,0.1a0.94,0.94,0,0,1,.7,1.13L37,34.33a0.94,0.94,0,0,1-1.21.56l-0.32-.1A0.94,0.94,0,0,1,34.73,33.66Zm6.67,2,2.2-7.31a0.94,0.94,0,0,1,1.21-.56l0.32,0.1a0.94,0.94,0,0,1,.7,1.13l-2.2,7.31a0.94,0.94,0,0,1-1.21.56l-0.32-.1A0.94,0.94,0,0,1,41.4,35.67Zm6.67,2,2.2-7.31a0.94,0.94,0,0,1,1.21-.56l0.32,0.1A0.94,0.94,0,0,1,52.5,31l-2.2,7.31a0.94,0.94,0,0,1-1.21.56l-0.32-.1A0.94,0.94,0,0,1,48.07,37.68Zm13.35,4,2.2-7.31a0.94,0.94,0,0,1,1.21-.56l0.32,0.1a0.94,0.94,0,0,1,.7,1.13l-2.2,7.31a0.94,0.94,0,0,1-1.21.56l-0.32-.1A0.94,0.94,0,0,1,61.42,41.69Zm6.67,2,2.2-7.31a0.94,0.94,0,0,1,1.21-.56l0.32,0.1a0.94,0.94,0,0,1,.7,1.13l-2.2,7.31a0.94,0.94,0,0,1-1.21.56l-0.32-.1A0.94,0.94,0,0,1,68.09,43.7Zm13.35,4,2.2-7.31a0.94,0.94,0,0,1,1.21-.56l0.32,0.1a0.94,0.94,0,0,1,.7,1.13l-2.2,7.31a0.94,0.94,0,0,1-1.21.56l-0.32-.1A0.94,0.94,0,0,1,81.44,47.71Zm6.67,2,2.2-7.31a0.94,0.94,0,0,1,1.21-.56l0.32,0.1a0.94,0.94,0,0,1,.7,1.13l-2.2,7.31a0.94,0.94,0,0,1-1.21.56l-0.32-.1A0.94,0.94,0,0,1,88.11,49.72Z"/><path class="cls-1" d="M89.1,51L88.78,51a1.16,1.16,0,0,1-.66-0.5A0.93,0.93,0,0,1,88,49.69l2.2-7.31a1,1,0,0,1,1.34-.63l0.32,0.1a1.16,1.16,0,0,1,.66.5,0.93,0.93,0,0,1,.11.77l-2.2,7.31a0.93,0.93,0,0,1-.52.58,1.12,1.12,0,0,1-.4.1A1.21,1.21,0,0,1,89.1,51Zm1.32-8.61-2.2,7.31a0.72,0.72,0,0,0,.09.59,1,1,0,0,0,.54.4l0.32,0.1a1,1,0,0,0,.67,0,0.72,0.72,0,0,0,.4-0.45L92.43,43a0.72,0.72,0,0,0-.09-0.59,1,1,0,0,0-.54-0.4L91.49,42a1,1,0,0,0-.35,0A0.78,0.78,0,0,0,90.41,42.44Zm-8,6.6-0.32-.1a1.05,1.05,0,0,1-.77-1.26l2.2-7.31a0.93,0.93,0,0,1,.52-0.58,1.16,1.16,0,0,1,.82,0l0.32,0.1a1.16,1.16,0,0,1,.66.5,0.93,0.93,0,0,1,.11.77l-2.2,7.31a0.93,0.93,0,0,1-.52.58,1.12,1.12,0,0,1-.4.1A1.21,1.21,0,0,1,82.42,49ZM84.14,40a0.72,0.72,0,0,0-.4.45l-2.2,7.31a0.84,0.84,0,0,0,.63,1l0.32,0.1a1,1,0,0,0,.67,0,0.72,0.72,0,0,0,.4-0.45L85.76,41a0.72,0.72,0,0,0-.09-0.59,1,1,0,0,0-.54-0.4l-0.32-.1a1,1,0,0,0-.35,0A0.9,0.9,0,0,0,84.14,40ZM69.08,45l-0.32-.1A1.05,1.05,0,0,1,68,43.67l2.2-7.31a1.05,1.05,0,0,1,1.34-.63l0.32,0.1a1.05,1.05,0,0,1,.77,1.26l-2.2,7.31a1,1,0,0,1-.92.68A1.21,1.21,0,0,1,69.08,45Zm1.32-8.61-2.2,7.31a0.84,0.84,0,0,0,.63,1l0.32,0.1a0.84,0.84,0,0,0,1.07-.49L72.41,37a0.84,0.84,0,0,0-.63-1l-0.32-.1a1,1,0,0,0-.35,0A0.78,0.78,0,0,0,70.39,36.41Zm-8,6.6-0.32-.1a1.05,1.05,0,0,1-.77-1.26l2.2-7.31a1.05,1.05,0,0,1,1.34-.63l0.32,0.1a1.05,1.05,0,0,1,.77,1.26l-2.2,7.31a1,1,0,0,1-.92.68A1.21,1.21,0,0,1,62.4,43Zm1.32-8.61-2.2,7.31a0.84,0.84,0,0,0,.63,1l0.32,0.1a0.84,0.84,0,0,0,1.07-.49L65.74,35a0.84,0.84,0,0,0-.63-1l-0.32-.1a1,1,0,0,0-.35,0A0.78,0.78,0,0,0,63.72,34.41ZM49.06,39l-0.32-.1A1.05,1.05,0,0,1,48,37.65l2.2-7.31a0.93,0.93,0,0,1,.52-0.58,1.16,1.16,0,0,1,.82,0l0.32,0.1a1.16,1.16,0,0,1,.66.5,0.93,0.93,0,0,1,.11.77l-2.2,7.31a0.93,0.93,0,0,1-.52.58,1.12,1.12,0,0,1-.4.1A1.21,1.21,0,0,1,49.06,39Zm1.72-9.06a0.72,0.72,0,0,0-.4.45l-2.2,7.31a0.84,0.84,0,0,0,.63,1l0.32,0.1a1,1,0,0,0,.67,0,0.72,0.72,0,0,0,.4-0.45L52.39,31a0.72,0.72,0,0,0-.09-0.59,1,1,0,0,0-.54-0.4l-0.32-.1a1,1,0,0,0-.35,0A0.9,0.9,0,0,0,50.78,29.95ZM42.39,37l-0.32-.1a1.05,1.05,0,0,1-.77-1.26l2.2-7.31A0.93,0.93,0,0,1,44,27.75a1.16,1.16,0,0,1,.82,0l0.32,0.1a1.16,1.16,0,0,1,.66.5,0.93,0.93,0,0,1,.11.77l-2.2,7.31a0.93,0.93,0,0,1-.52.58,1.12,1.12,0,0,1-.4.1A1.21,1.21,0,0,1,42.39,37Zm1.72-9.06a0.72,0.72,0,0,0-.4.45L41.5,35.7a0.84,0.84,0,0,0,.63,1l0.32,0.1a1,1,0,0,0,.67,0,0.72,0.72,0,0,0,.4-0.45L45.72,29a0.72,0.72,0,0,0-.09-0.59,1,1,0,0,0-.54-0.4l-0.32-.1a1,1,0,0,0-.35,0A0.9,0.9,0,0,0,44.1,27.94ZM35.71,35l-0.32-.1a1.16,1.16,0,0,1-.66-0.5,0.93,0.93,0,0,1-.11-0.77l2.2-7.31a0.93,0.93,0,0,1,.52-0.58,1.16,1.16,0,0,1,.82,0l0.32,0.1a1.16,1.16,0,0,1,.66.5,0.93,0.93,0,0,1,.11.77l-2.2,7.31a0.93,0.93,0,0,1-.52.58,1.12,1.12,0,0,1-.4.1A1.21,1.21,0,0,1,35.71,35Zm1.72-9.06a0.72,0.72,0,0,0-.4.45l-2.2,7.31a0.73,0.73,0,0,0,.09.59,1,1,0,0,0,.54.4l0.32,0.1a1,1,0,0,0,.67,0,0.72,0.72,0,0,0,.4-0.45L39,27A0.72,0.72,0,0,0,39,26.39a1,1,0,0,0-.54-0.4l-0.32-.1a1,1,0,0,0-.35,0A0.9,0.9,0,0,0,37.43,25.93ZM29,33l-0.32-.1a1.16,1.16,0,0,1-.66-0.5A0.93,0.93,0,0,1,28,31.62l2.2-7.31a0.93,0.93,0,0,1,.52-0.58,1.16,1.16,0,0,1,.82,0l0.32,0.1A1.05,1.05,0,0,1,32.58,25l-2.2,7.31a0.93,0.93,0,0,1-.52.58,1.11,1.11,0,0,1-.4.1A1.21,1.21,0,0,1,29,33Zm1.72-9.06a0.72,0.72,0,0,0-.4.45l-2.2,7.31a0.72,0.72,0,0,0,.09.59,1,1,0,0,0,.54.4l0.32,0.1a1,1,0,0,0,.67,0,0.72,0.72,0,0,0,.4-0.45L32.37,25a0.84,0.84,0,0,0-.63-1l-0.32-.1a1,1,0,0,0-.35,0A0.9,0.9,0,0,0,30.76,23.92Z"/><path class="cls-1" d="M87.09,88.52L9.72,65.25A12.73,12.73,0,0,1,1.21,49.41L13.07,10A12.71,12.71,0,0,1,28.9,1.48l77.37,23.27a12.71,12.71,0,0,1,8.51,15.84L102.93,80A12.69,12.69,0,0,1,87.09,88.52ZM20.44,4.72a10.08,10.08,0,0,0-4.91,6L3.67,50.15a10.16,10.16,0,0,0,6.8,12.64L87.83,86.06a10.15,10.15,0,0,0,12.64-6.8l11.86-39.41a10.15,10.15,0,0,0-6.8-12.64L28.17,3.94A10.08,10.08,0,0,0,20.44,4.72Z"/><path class="cls-1" d="M87.1,80.38L14.21,58.45a7.41,7.41,0,0,1-5-9.22L19.68,14.58a7.4,7.4,0,0,1,9.22-5l72.89,21.93a7.4,7.4,0,0,1,5,9.22L96.32,75.42A7.4,7.4,0,0,1,87.1,80.38ZM24.47,12.45a4.81,4.81,0,0,0-2.34,2.87L11.71,50a4.84,4.84,0,0,0,3.24,6L87.84,77.92a4.84,4.84,0,0,0,6-3.24L104.29,40A4.84,4.84,0,0,0,101,34L28.16,12.08A4.8,4.8,0,0,0,24.47,12.45Z"/></svg>