<svg id="Layer_2" data-name="Layer 2" xmlns="http://www.w3.org/2000/svg" viewBox="0 0 100 100"><defs><style>.cls-1{fill:#ee5291;}</style></defs><title>world-tour-log</title><rect class="cls-1" x="50" y="57.68" width="15.19" height="3.19" rx="1.59" ry="1.59" transform="translate(-15.88 97.12) rotate(-73.07)"/><rect class="cls-1" x="44.78" y="56.09" width="15.19" height="3.19" rx="1.59" ry="1.59" transform="translate(-18.06 91) rotate(-73.08)"/><rect class="cls-1" x="35.53" y="53.28" width="15.19" height="3.19" rx="1.59" ry="1.59" transform="translate(-21.93 80.16) rotate(-73.08)"/><rect class="cls-1" x="30.31" y="51.69" width="15.19" height="3.19" rx="1.59" ry="1.59" transform="translate(-24.11 74.04) rotate(-73.07)"/><path class="cls-1" d="M91.26,28.33a46.32,46.32,0,1,1-14-16.19A46.31,46.31,0,0,1,91.26,28.33Zm-54.16,63A43.38,43.38,0,0,0,91.36,62.88h0A43.34,43.34,0,1,0,37.11,91.37Z"/><path class="cls-1" d="M86.08,61.24A37.78,37.78,0,1,1,72,19.27,37.55,37.55,0,0,1,86.08,61.24ZM39.73,83A34.3,34.3,0,1,0,29.83,78,34.29,34.29,0,0,0,39.73,83Z"/><path class="cls-1" d="M76.88,48.34a1.64,1.64,0,0,0-.47-0.23L29.94,33.63a1.64,1.64,0,1,0-1,3.13L75.44,51.24A1.64,1.64,0,0,0,76.88,48.34Z"/><path class="cls-1" d="M73.51,36.44A1.64,1.64,0,0,0,73,36.21L40.28,26a1.64,1.64,0,1,0-1,3.13l32.76,10.2A1.64,1.64,0,0,0,73.51,36.44Z"/><path class="cls-1" d="M60.61,72.59a1.64,1.64,0,0,0-.47-0.23L27.38,62.15a1.64,1.64,0,1,0-1,3.13l32.76,10.2A1.64,1.64,0,0,0,60.61,72.59Z"/></svg>