<svg id="Layer_2" data-name="Layer 2" xmlns="http://www.w3.org/2000/svg" viewBox="0 0 94 78"><defs><style>.cls-1{fill:#f27c87;}</style></defs><title>world-tour-log</title><path class="cls-1" d="M69.24,77.31H69L3.81,72.07A3.11,3.11,0,0,1,1,68.73L6.19,3.55A3.1,3.1,0,0,1,9.54.7L74.72,5.93a3.11,3.11,0,0,1,2.85,3.34L72.33,74.45A3.11,3.11,0,0,1,69.24,77.31ZM9.29,3.69a0.12,0.12,0,0,0-.11.1L4,69a0.11,0.11,0,0,0,.1.11h0l65.18,5.23a0.11,0.11,0,0,0,.11-0.1L74.57,9a0.11,0.11,0,0,0-.1-0.11L9.3,3.69h0Z"/><path class="cls-1" d="M54.81,27.4c-8.34,0-15-6.74-15.13-6.84a1.5,1.5,0,1,1,2.15-2.09C42.31,19,53.57,30.24,64.08,20.38c12.59-11.82,28.31,2,28.46,2.1a1.5,1.5,0,0,1-2,2.24,29.48,29.48,0,0,0-8.42-4.93c-6.21-2.28-11.59-1.34-16,2.79A16.21,16.21,0,0,1,54.81,27.4Z"/><path class="cls-1" d="M54.17,35.46c-8.34,0-15-6.74-15.13-6.84a1.5,1.5,0,1,1,2.15-2.09C41.66,27,52.93,38.29,63.44,28.43c12.59-11.82,28.31,2,28.46,2.1a1.5,1.5,0,0,1-2,2.24,29.47,29.47,0,0,0-8.42-4.93c-6.21-2.28-11.59-1.35-16,2.79A16.21,16.21,0,0,1,54.17,35.46Z"/><path class="cls-1" d="M62.37,56H62.25L13.86,52.11a1.5,1.5,0,0,1,.24-3L62.49,53A1.5,1.5,0,0,1,62.37,56Z"/><path class="cls-1" d="M58.82,64.16H58.7L16.07,60.74a1.5,1.5,0,0,1,.24-3l42.63,3.42A1.5,1.5,0,0,1,58.82,64.16Z"/><path class="cls-1" d="M28.44,29.07H28.32a1.5,1.5,0,0,1-1.37-1.62l1-12a1.5,1.5,0,1,1,3,.24l-1,12A1.5,1.5,0,0,1,28.44,29.07Z"/><path class="cls-1" d="M20.45,28.43H20.33A1.5,1.5,0,0,1,19,26.81l1-12a1.5,1.5,0,0,1,3,.24l-1,12A1.5,1.5,0,0,1,20.45,28.43Z"/><path class="cls-1" d="M26.22,41.79H26.1a1.5,1.5,0,0,1-1.37-1.62l0.41-5.06a1.5,1.5,0,0,1,3,.24l-0.41,5.06A1.5,1.5,0,0,1,26.22,41.79Z"/><path class="cls-1" d="M21.72,41.43H21.6a1.5,1.5,0,0,1-1.37-1.62l0.41-5.06a1.5,1.5,0,0,1,3,.24L23.22,40A1.5,1.5,0,0,1,21.72,41.43Z"/><path class="cls-1" d="M17.34,41.08H17.22a1.5,1.5,0,0,1-1.37-1.62l0.41-5.06a1.5,1.5,0,0,1,3,.24L18.83,39.7A1.5,1.5,0,0,1,17.34,41.08Z"/><path class="cls-1" d="M12.85,40.72H12.72a1.5,1.5,0,0,1-1.37-1.61L11.75,34a1.5,1.5,0,1,1,3,.24l-0.41,5.06A1.5,1.5,0,0,1,12.85,40.72Z"/><path class="cls-1" d="M38,42.74H37.88a1.5,1.5,0,0,1-1.37-1.62l0.41-5.06a1.5,1.5,0,0,1,3,.24l-0.41,5.06A1.5,1.5,0,0,1,38,42.74Z"/><path class="cls-1" d="M33.5,42.37H33.38A1.5,1.5,0,0,1,32,40.76l0.41-5.06a1.5,1.5,0,1,1,3,.24L35,41A1.5,1.5,0,0,1,33.5,42.37Z"/></svg>