<svg id="Layer_2" data-name="Layer 2" xmlns="http://www.w3.org/2000/svg" viewBox="0 0 82 82"><defs><style>.cls-1{fill:#59569d;}</style></defs><title>world-tour-log</title><path class="cls-1" d="M10.63,32.87a31.44,31.44,0,1,1,22.24,38.5A31.47,31.47,0,0,1,10.63,32.87Zm2.9,0.78A28.44,28.44,0,1,0,48.35,13.53,28.47,28.47,0,0,0,13.53,33.65Z"/><path class="cls-1" d="M31.06,78.15a13.51,13.51,0,0,1-13.69-6.78A12.94,12.94,0,0,1,7.69,60.24,12.94,12.94,0,0,1,2.89,46.3a13.51,13.51,0,0,1,1-15.24,13.51,13.51,0,0,1,6.78-13.69A12.94,12.94,0,0,1,21.76,7.69,12.94,12.94,0,0,1,35.7,2.89a13.51,13.51,0,0,1,15.24,1,13.5,13.5,0,0,1,13.69,6.78,12.94,12.94,0,0,1,9.68,11.12,12.94,12.94,0,0,1,4.8,13.95,13.51,13.51,0,0,1-1,15.24,13.51,13.51,0,0,1-6.78,13.69,12.94,12.94,0,0,1-11.12,9.68,12.94,12.94,0,0,1-13.95,4.8A13.32,13.32,0,0,1,36,80.57,15.25,15.25,0,0,1,31.06,78.15Zm15.44-2.09,0.3,0.08A10,10,0,0,0,58.21,72a1.5,1.5,0,0,1,1.08-.62,10.07,10.07,0,0,0,9.34-8.13,1.5,1.5,0,0,1,.76-1c4.4-2.33,6.44-6.44,5.72-11.57a1.51,1.51,0,0,1,.3-1.13c3.18-4.09,3.47-8.66.82-12.88a1.5,1.5,0,0,1-.17-1.22,10.07,10.07,0,0,0-4-11.71,1.5,1.5,0,0,1-.62-1.08,10,10,0,0,0-8.13-9.34,1.62,1.62,0,0,1-1-.76C60,8.22,55.86,6.19,50.73,6.9a1.5,1.5,0,0,1-1.13-.3c-4.09-3.18-8.66-3.47-12.88-.83a1.49,1.49,0,0,1-1.22.17l-0.3-.08A10,10,0,0,0,23.79,10a1.5,1.5,0,0,1-1.08.62,10.07,10.07,0,0,0-9.34,8.13,1.5,1.5,0,0,1-.76,1C8.22,22,6.19,26.14,6.9,31.27a1.51,1.51,0,0,1-.3,1.13c-3.18,4.09-3.48,8.66-.83,12.88a1.5,1.5,0,0,1,.17,1.22,10.07,10.07,0,0,0,4,11.71,1.5,1.5,0,0,1,.62,1.08,10,10,0,0,0,8.13,9.34,1.49,1.49,0,0,1,1,.76c2.33,4.4,6.44,6.44,11.57,5.72a1.5,1.5,0,0,1,1.13.3c4.09,3.18,8.66,3.48,12.88.82A1.5,1.5,0,0,1,46.46,76h0Z"/><path class="cls-1" d="M46.91,36.72l1.78-6.66a1,1,0,0,1,1.24-.71h0a1,1,0,0,1,.71,1.24l-1.78,6.66a1,1,0,0,1-1.24.71h0A1,1,0,0,1,46.91,36.72Zm3.72,1L52.41,31a1,1,0,0,1,1.24-.71h0a1,1,0,0,1,.71,1.24l-1.78,6.66a1,1,0,0,1-1.24.71h0A1,1,0,0,1,50.63,37.71Z"/><path class="cls-1" d="M32.35,32.82l1.78-6.66a1,1,0,0,1,1.24-.71h0a1,1,0,0,1,.71,1.24L34.3,33.34a1,1,0,0,1-1.24.71h0A1,1,0,0,1,32.35,32.82Zm3.72,1,1.78-6.66a1,1,0,0,1,1.24-.71h0a1,1,0,0,1,.71,1.24L38,34.33a1,1,0,0,1-1.24.71h0A1,1,0,0,1,36.07,33.81Z"/><circle class="cls-1" cx="43.36" cy="32.19" r="1.32" transform="translate(1.05 65.75) rotate(-75.01)"/><path class="cls-1" d="M25.69,57.43l20.36,5.45a1.5,1.5,0,0,0,.78-2.9L26.47,54.53A1.5,1.5,0,1,0,25.69,57.43Z"/><path class="cls-1" d="M35.52,20.72l20.36,5.45a1.5,1.5,0,0,0,.78-2.9L36.3,17.82A1.5,1.5,0,0,0,35.52,20.72Z"/><path class="cls-1" d="M22,50.25l30.87,8.26a1.5,1.5,0,1,0,.78-2.9L22.76,47.35A1.5,1.5,0,0,0,22,50.25Z"/><path class="cls-1" d="M17.36,39.1L62.42,51.16a1.5,1.5,0,0,0,.78-2.9L18.14,36.2A1.5,1.5,0,0,0,17.36,39.1Z"/><path class="cls-1" d="M60.95,34.22l-0.61,1a0.67,0.67,0,0,1-.72.31l-1.15-.27a0.67,0.67,0,0,0-.66,1.09l0.77,0.89a0.67,0.67,0,0,1,.07.78L58,39a0.67,0.67,0,0,0,.83,1L60,39.54a0.67,0.67,0,0,1,.77.18l0.77,0.89a0.67,0.67,0,0,0,1.17-.49l-0.1-1.17A0.67,0.67,0,0,1,63,38.27l1.08-.46a0.67,0.67,0,0,0-.11-1.27l-1.15-.27a0.67,0.67,0,0,1-.51-0.59l-0.1-1.17A0.67,0.67,0,0,0,60.95,34.22Z"/><path class="cls-1" d="M25.73,24.8l-0.61,1a0.67,0.67,0,0,1-.72.31l-1.15-.27a0.67,0.67,0,0,0-.66,1.09l0.77,0.89a0.67,0.67,0,0,1,.07.78l-0.61,1a0.67,0.67,0,0,0,.83,1l1.08-.46a0.67,0.67,0,0,1,.77.18l0.77,0.89a0.67,0.67,0,0,0,1.17-.49l-0.1-1.17a0.67,0.67,0,0,1,.41-0.67l1.08-.46a0.67,0.67,0,0,0-.11-1.27l-1.15-.27a0.67,0.67,0,0,1-.51-0.59L27,25.08A0.67,0.67,0,0,0,25.73,24.8Z"/></svg>