<?xml version="1.0" encoding="UTF-8" standalone="no"?>
<svg width="150px" height="60px" viewBox="0 0 150 60" version="1.1" xmlns="http://www.w3.org/2000/svg" xmlns:xlink="http://www.w3.org/1999/xlink">
    <!-- Generator: Sketch 39.1 (31720) - http://www.bohemiancoding.com/sketch -->
    <title>code-block-rmd</title>
    <desc>Created with Sketch.</desc>
    <defs>
        <polygon id="path-1" points="29.9387368 39.8381422 0 39.8381422 0 0 30.2951504 0 30.2951504 39.8381422"></polygon>
        <polygon id="path-3" points="29.9387368 39.8381422 0 39.8381422 0 0 30.2951504 0 30.2951504 39.8381422"></polygon>
        <linearGradient x1="50%" y1="0%" x2="50%" y2="100%" id="linearGradient-5">
            <stop stop-color="#FCC397" offset="0%"></stop>
            <stop stop-color="#FC9F95" offset="16.0654496%"></stop>
            <stop stop-color="#F77C88" offset="30.0482302%"></stop>
            <stop stop-color="#F25192" offset="42.703683%"></stop>
            <stop stop-color="#D34CA3" offset="56.3317124%"></stop>
            <stop stop-color="#9A50A5" offset="69.1147162%"></stop>
            <stop stop-color="#59569E" offset="83.848852%"></stop>
            <stop stop-color="#39477F" offset="100%"></stop>
        </linearGradient>
        <path d="M7.48468421,3.23011963 C7.68152597,3.23011963 7.84109774,3.39080561 7.84109774,3.58902182 C7.84109774,3.78723802 7.68152597,3.947924 7.48468421,3.947924 C7.28784245,3.947924 7.12827068,3.78723802 7.12827068,3.58902182 C7.12827068,3.39080561 7.28784245,3.23011963 7.48468421,3.23011963 L7.48468421,3.23011963 Z M9.26675188,3.23011963 L12.8308872,3.23011963 C13.027729,3.23011963 13.1873008,3.39080561 13.1873008,3.58902182 C13.1873008,3.78723802 13.027729,3.947924 12.8308872,3.947924 L9.26675188,3.947924 C9.06991012,3.947924 8.91033835,3.78723802 8.91033835,3.58902182 C8.91033835,3.39080561 9.06991012,3.23011963 9.26675188,3.23011963 L9.26675188,3.23011963 Z" id="path-6"></path>
        <mask id="mask-7" maskContentUnits="userSpaceOnUse" maskUnits="objectBoundingBox" x="-1" y="-1" width="8.05903008" height="3">
            <rect x="6.12827068" y="2.23011963" width="8.05903008" height="3" fill="white"></rect>
            <use xlink:href="#path-6" fill="black"></use>
        </mask>
    </defs>
    <g id="Diagrams-&amp;-Graphics-" stroke="none" stroke-width="1" fill="none" fill-rule="evenodd">
        <g id="code-block-rmd">
            <g id="rmp-union" transform="translate(10.000000, 3.000000)">
                <g id="Group-6-Copy" transform="translate(0.000000, 2.000000)">
                    <g id="Group-2" transform="translate(0.000000, 0.412738)">
                        <g id="Device-4" transform="translate(23.926398, 0.000000)">
                            <path d="M0,3.0051573 C0,1.34545475 1.34043367,0 2.99998804,0 L30.1464706,0 C31.8033183,0 33.1464586,1.35045451 33.1464586,3.0051573 L33.1464586,46.5233438 C33.1464586,48.1830463 31.806025,49.5285011 30.1464706,49.5285011 L2.99998804,49.5285011 C1.34314039,49.5285011 0,48.1780465 0,46.5233438 L0,3.0051573 Z M16.038609,48.5023997 C16.8566834,48.5023997 17.5198637,47.8345888 17.5198637,47.0108023 C17.5198637,46.1870157 16.8566834,45.5192048 16.038609,45.5192048 C15.2205347,45.5192048 14.5573544,46.1870157 14.5573544,47.0108023 C14.5573544,47.8345888 15.2205347,48.5023997 16.038609,48.5023997 Z" id="Combined-Shape" fill="#1C233F"></path>
                            <g id="Group" transform="translate(1.425654, 4.665728)">
                                <mask id="mask-2" fill="white">
                                    <use xlink:href="#path-1"></use>
                                </mask>
                                <g id="Screen-4"></g>
                                <mask id="mask-4" fill="white">
                                    <use xlink:href="#path-3"></use>
                                </mask>
                                <use id="Screen-4-Copy" stroke="#1C233F" fill="#FFFFFF" xlink:href="#path-3"></use>
                            </g>
                            <path d="M12.8308872,2.15341309 C13.027729,2.15341309 13.1873008,2.31409907 13.1873008,2.51231527 C13.1873008,2.71053147 13.027729,2.87121745 12.8308872,2.87121745 C12.6340455,2.87121745 12.4744737,2.71053147 12.4744737,2.51231527 C12.4744737,2.31409907 12.6340455,2.15341309 12.8308872,2.15341309 L12.8308872,2.15341309 Z M14.6129549,2.15341309 L18.1770902,2.15341309 C18.373932,2.15341309 18.5335038,2.31409907 18.5335038,2.51231527 C18.5335038,2.71053147 18.373932,2.87121745 18.1770902,2.87121745 L14.6129549,2.87121745 C14.4161131,2.87121745 14.2565414,2.71053147 14.2565414,2.51231527 C14.2565414,2.31409907 14.4161131,2.15341309 14.6129549,2.15341309 L14.6129549,2.15341309 Z" id="Speaker_cam-2" fill="#FFFFFF"></path>
                            <path d="M14.9213874,20.9505933 C14.1227943,21.4624259 13.2638329,21.8822176 12.4046846,22.2149271 C12.1041252,22.3313202 11.8255119,22.4283417 11.5763415,22.5067755 C11.4291045,22.5531228 11.3260729,22.5825682 11.2747176,22.5959423 C11.1026005,22.6503263 10.9881655,22.6927318 10.9026751,22.7326844 C10.8411064,22.7614576 10.7893197,22.7907763 10.740138,22.8290838 C10.5695383,22.9619632 10.4558835,23.1453264 10.5630824,23.4279322 C10.6506258,23.658721 10.7974462,23.7284656 10.9804843,23.75928 C11.0367705,23.7687558 11.0934817,23.7712433 11.1580338,23.7696448 C11.2535169,23.7672802 11.3760759,23.754973 11.5268119,23.7333724 L21.4374467,22.3131705 C21.5332419,22.299443 21.600544,22.2962253 21.6271235,22.2992734 C21.5257275,22.2876454 21.4026487,22.2266085 21.3356439,22.0185888 C21.2709373,21.8177037 21.3286906,21.7029337 21.3977291,21.6358072 C21.3771601,21.6558065 21.3212279,21.695198 21.2369416,21.7435111 L11.0881661,27.5608217 C10.1284064,28.110959 10.4372123,29.0047699 11.5268119,28.8486294 L21.4374467,27.4284275 C21.5391441,27.4138542 21.6119113,27.4092717 21.6441761,27.4117367 C21.530226,27.403031 21.40579,27.3515812 21.3300128,27.1181743 C21.253541,26.8826278 21.3260954,26.7660736 21.4155045,26.6914948 C21.3919349,26.7111549 21.3319867,26.748314 21.2436713,26.7936918 C21.1912027,26.8177427 21.0642741,26.8791242 20.8882625,26.96775 C20.5970335,27.1143903 20.2730629,27.2849672 19.924449,27.4778726 C18.9283513,28.0290631 17.9320671,28.6498563 16.9998986,29.3282386 C15.3039614,30.5624508 14.0098615,31.8475451 13.2760785,33.1713987 L14.1507097,33.6561876 C14.8006166,32.483659 15.9997543,31.292866 17.5883207,30.1367925 C18.4840578,29.484923 19.4462439,28.8853767 20.4086165,28.3528479 C20.7454673,28.1664516 21.0579996,28.0018972 21.3379911,27.8609152 C21.5047118,27.7769676 21.622592,27.7199618 21.6834307,27.6916017 C22.6882858,27.1757073 22.3976857,26.2806091 21.2955949,26.4385396 L11.3849602,27.8587415 C11.2904476,27.8722852 11.2236286,27.8754934 11.1966709,27.8724529 C11.2951597,27.8835611 11.4145348,27.9415083 11.4844495,28.1438701 C11.5545498,28.346769 11.4959645,28.4664049 11.4251391,28.5357525 C11.4450125,28.5162937 11.5007636,28.4769521 11.5854652,28.4284009 L21.7342408,22.6110903 C22.6862409,22.0654007 22.3963883,21.165538 21.2955949,21.3232826 L11.3849602,22.7434845 C11.2696997,22.7600014 11.1828382,22.7687239 11.1332773,22.7699512 C11.335287,22.7649486 11.3842503,22.7731916 11.498076,23.0732677 C11.5998407,23.3415475 11.4974176,23.5067901 11.354628,23.6180084 C11.3662071,23.6198721 11.4447758,23.5907575 11.5534068,23.555922 C11.593832,23.5461913 11.7128978,23.5121636 11.8765971,23.4606343 C12.1456539,23.3759406 12.4444938,23.2718757 12.765807,23.1474455 C13.6834377,22.7920885 14.6012552,22.3435325 15.4609892,21.7925136 C17.6388288,20.3966972 19.0830044,18.5868108 19.4122596,16.3119455 L18.4225721,16.168702 C18.1411556,18.113044 16.877192,19.697083 14.9213874,20.9505933 Z" id="Path-12-Copy-2" fill="url(#linearGradient-5)"></path>
                        </g>
                        <g id="Group-3" transform="translate(0.000000, 5.204082)">
                            <g id="Device-5" transform="translate(1.603083, 6.424349)" fill="#FFFFFF">
                                <polygon id="screen-5" points="0.38806015 31.7987333 0.38806015 0.215341309 18.2087368 0.215341309 18.2087368 31.7987333"></polygon>
                            </g>
                            <g id="Device-5-Copy" transform="translate(0.000000, 0.179451)">
                                <path d="M0,4.00823056 C0,1.79454595 1.79834066,0 3.9980157,0 L16.6739693,0 C18.8820124,0 20.671985,1.79972428 20.671985,4.00823056 L20.671985,40.4956399 C20.671985,42.7093246 18.8736443,44.5038705 16.6739693,44.5038705 L3.9980157,44.5038705 C1.7899726,44.5038705 0,42.7041462 0,40.4956399 L0,4.00823056 Z M7.8901995,40.7436811 C7.75365088,40.332763 7.98335355,39.9996481 8.43089732,39.9996481 L12.0429853,39.9996481 C12.4781531,39.9996481 12.7209028,40.3307437 12.5836831,40.7436811 L12.5593724,40.8168397 C12.4228238,41.2277577 11.9582706,41.5608726 11.5314753,41.5608726 L8.94240731,41.5608726 C8.51126403,41.5608726 8.05172984,41.2297771 7.91451019,40.8168397 L7.8901995,40.7436811 Z" id="Combined-Shape" fill="#1C233F"></path>
                                <polygon id="screen-5" stroke="#1C233F" fill="#FFFFFF" points="1.55639098 37.8282899 1.55639098 6.24489796 19.3770677 6.24489796 19.3770677 37.8282899"></polygon>
                                <use id="Speaker_cam-3" stroke="#1C233F" mask="url(#mask-7)" stroke-width="2" xlink:href="#path-6"></use>
                            </g>
                            <path d="M9.47244237,19.3006315 C9.01372544,19.606317 8.51908834,19.8537745 8.02435787,20.0464917 C7.72938784,20.1613943 7.50345619,20.2315323 7.38230978,20.2619538 C7.19745013,20.3228423 7.08212337,20.3682506 6.99546308,20.4116491 C6.93264686,20.4431068 6.87962481,20.4754651 6.82980851,20.5176435 C6.67390995,20.6496395 6.57207277,20.8311698 6.66471676,21.0945294 C6.7445739,21.3215398 6.89372781,21.4011463 7.07177393,21.4365611 C7.13114272,21.44837 7.19052565,21.4520799 7.25763593,21.4512156 C7.35513244,21.4499601 7.47898271,21.4380615 7.63073495,21.4163153 L13.2228229,20.6149646 C13.3191922,20.6011548 13.3874552,20.597744 13.4155414,20.6007852 C13.3166417,20.5900762 13.1972436,20.533175 13.1262928,20.3290829 C13.0549327,20.1238133 13.114334,20.0040693 13.1862152,19.9341832 C13.1659469,19.9538889 13.1097148,19.9934391 13.0245474,20.0422574 L7.18985957,23.3867191 C6.23046154,23.9366491 6.54783228,24.8266597 7.63073495,24.6714789 L13.2228229,23.8701282 C13.3235287,23.855697 13.3952135,23.8512759 13.425912,23.8537729 C13.3086811,23.8442374 13.1781688,23.7877743 13.1083111,23.5474354 C13.042263,23.3202025 13.1099281,23.2121202 13.1924283,23.1422897 C13.1663957,23.1643244 13.1035038,23.2042021 13.0113404,23.2529436 C12.8678121,23.3180454 12.5810509,23.4618741 12.2149377,23.6660204 C11.606244,24.0054306 10.9974114,24.3926861 10.4268529,24.8227443 C9.43979101,25.5667419 8.67003308,26.3605632 8.20174969,27.205416 L9.07638088,27.6902049 C9.46589407,26.9874653 10.1438669,26.2882983 11.0287676,25.6213047 C11.5595205,25.2212499 12.1306645,24.8579667 12.7019473,24.539417 C13.0438199,24.3487874 13.3077144,24.2164278 13.4538705,24.1492645 C14.4568668,23.6196983 14.1955108,22.7205259 13.0809712,22.8802403 L7.48888322,23.6815909 C7.39498502,23.6950466 7.32851262,23.6982545 7.30153084,23.6952417 C7.39895547,23.7061204 7.51684346,23.7627467 7.58813006,23.9626574 C7.66085297,24.1665961 7.60180126,24.2888216 7.52976906,24.3596128 C7.54880459,24.3409052 7.60357648,24.3022078 7.68715871,24.2542982 L13.5218465,20.9098365 C14.4827921,20.3590194 14.1732303,19.4685551 13.0809712,19.6250767 L7.48888322,20.4264274 C7.37619278,20.442576 7.29169241,20.4506941 7.24475905,20.4512985 C7.40662899,20.4835761 7.53373,20.5514126 7.60805111,20.7626856 C7.69515226,21.0102886 7.60435098,21.1721468 7.47598414,21.2808323 C7.45393887,21.2994975 7.44536275,21.3047314 7.44324113,21.3057938 C7.48137834,21.2866951 7.55794987,21.2565462 7.66445032,21.2204832 C7.78541869,21.1917747 8.05071812,21.1094155 8.38733091,20.9782914 C8.94523848,20.7609642 9.50323942,20.481807 10.0269847,20.132787 C11.344976,19.2544874 12.2292933,18.0850695 12.4455593,16.5908608 L11.4558718,16.4476173 C11.2853673,17.6256542 10.5736981,18.5667628 9.47244237,19.3006315 Z" id="Path-12-Copy" fill="url(#linearGradient-5)"></path>
                        </g>
                    </g>
                </g>
                <g id="ROS" transform="translate(112.000000, 26.500000) scale(1, -1) translate(-112.000000, -26.500000) translate(93.000000, 0.000000)">
                    <rect id="Combined-Shape" x="0" y="0" width="37.592056" height="52.6988636" rx="6"></rect>
                    <polygon id="Rectangle-2" points="8.76482281 13.3729248 28.6078483 13.3729248 28.6078483 41.4262473 7.86437559 41.4262473"></polygon>
                    <path d="M0.0604997152,25.6954013 L0.0202296418,43.6063329 C0.00905711915,48.5755389 4.02287479,52.6243702 8.99513417,52.6497006 L18.6456598,52.6988636 L27.6677532,43.2130682 L9.62356634,43.2130682 L9.62356634,32.6732955 L0.0604997152,25.6954013 Z" id="Path-2" fill="#F25192"></path>
                    <path d="M19.767254,0 C19.767254,0 12.4767447,3.31308816 9.90036722,9.94220526 C7.32398979,16.5713224 9.62356634,32.6732955 9.62356634,32.6732955 C9.62356634,32.6732955 3.34539939,31.4158159 0,25.6589355 L0,9.88371165 C0,4.42508843 4.42385035,0 9.88362701,0 L19.767254,0 Z" id="Path" fill="#39477F"></path>
                    <path d="M12.6594186,3.87889515 C9.55484324,7.11846369 9.93399449,9.97131903 9.93399449,9.97131903 L28.6718723,10.2159923 L37.592056,25.4460227 L37.5920561,10.0021592 C37.5920561,4.47811919 33.1168187,0.00900711739 27.5848123,0.0201411479 L19.7660793,0.0358775746 C19.7660793,0.0358775746 15.7639939,0.639326616 12.6594186,3.87889515 Z" id="Path-3" fill="#59569E"></path>
                    <path d="M28.6874377,10.0880682 L27.517385,43.2130682 C27.517385,43.2130682 18.4952916,45.2851452 18.4952916,52.6988636 L28.1027051,52.7834112 C33.408733,52.8301055 37.6916713,48.559755 37.6689918,43.2631417 L37.592056,25.2954545 C35.4474194,15.1269334 28.6874377,10.0880682 28.6874377,10.0880682 Z" id="Path-4" fill="#D34CA3"></path>
                    <path d="M31.2738253,8.88357194 L31.2738212,8.83205899 L31.2687326,8.83205899 C31.0333393,6.93658605 25.539199,5.42045455 18.796028,5.42045455 C12.052857,5.42045455 6.55871671,6.93658605 6.32332356,8.83205822 L6.31546541,8.83205899 L6.31547509,8.95435217 C6.31546864,8.95583684 6.31546541,8.95732172 6.31546541,8.95880682 C6.31546541,8.96034602 6.31546888,8.96188498 6.31547581,8.96342372 L6.31823434,43.8153409 C6.45954787,45.7347596 11.9919376,47.2784091 18.796028,47.2784091 C25.6001184,47.2784091 31.1325082,45.7347596 31.2765906,43.8153409 L31.2738372,9.0338798 C31.2756698,9.00891816 31.2765906,8.98389298 31.2765906,8.95880682 C31.2765906,8.93366643 31.2756658,8.90858727 31.2738253,8.88357194 L31.2738253,8.88357194 Z" id="Combined-Shape" fill="#FFFFFF" transform="translate(18.796028, 26.349432) scale(1, -1) translate(-18.796028, -26.349432) "></path>
                    <path d="M17.8477859,22.7129662 C17.0491928,23.2247989 16.1902314,23.6445906 15.3310831,23.9773001 C15.0305237,24.0936932 14.7519104,24.1907147 14.50274,24.2691485 C14.355503,24.3154957 14.2524714,24.3449411 14.2011161,24.3583153 C14.028999,24.4126993 13.914564,24.4551047 13.8290736,24.4950574 C13.7675049,24.5238306 13.7157182,24.5531493 13.6665365,24.5914568 C13.4959368,24.7243361 13.382282,24.9076994 13.4894809,25.1903051 C13.5770243,25.421094 13.7238447,25.4908385 13.9068828,25.521653 C13.963169,25.5311288 14.0198802,25.5336163 14.0844323,25.5320177 C14.1799154,25.5296532 14.3024744,25.5173459 14.4532104,25.4957454 L24.3638452,24.0755435 C24.4596404,24.061816 24.5269425,24.0585983 24.553522,24.0616464 C24.452126,24.0500183 24.3290472,23.9889815 24.2620424,23.7809618 C24.1973358,23.5800767 24.2550891,23.4653067 24.3241276,23.3981801 C24.3035586,23.4181795 24.2476264,23.457571 24.1633401,23.5058841 L14.0145646,29.3231947 C13.0548049,29.873332 13.3636108,30.7671429 14.4532104,30.6110024 L24.3638452,29.1908005 C24.4655426,29.1762272 24.5383098,29.1716447 24.5705746,29.1741096 C24.4566245,29.165404 24.3321885,29.1139541 24.2564113,28.8805473 C24.1799394,28.6450008 24.2524939,28.5284466 24.341903,28.4538677 C24.3183334,28.4735279 24.2583852,28.510687 24.1700698,28.5560647 C24.1176011,28.5801157 23.9906726,28.6414972 23.814661,28.730123 C23.523432,28.8767633 23.1994614,29.0473401 22.8508475,29.2402456 C21.8547498,29.7914361 20.8584656,30.4122293 19.9262971,31.0906116 C18.2303599,32.3248238 16.93626,33.6099181 16.202477,34.9337716 L17.0771082,35.4185605 C17.7270151,34.246032 18.9261528,33.055239 20.5147192,31.8991655 C21.4104563,31.247296 22.3726424,30.6477497 23.335015,30.1152209 C23.6718658,29.9288246 23.9843981,29.7642702 24.2643896,29.6232882 C24.4311103,29.5393406 24.5489905,29.4823348 24.6098292,29.4539747 C25.6146843,28.9380803 25.3240842,28.0429821 24.2219934,28.2009126 L14.3113587,29.6211145 C14.2168461,29.6346582 14.1500271,29.6378663 14.1230694,29.6348259 C14.2215582,29.6459341 14.3409333,29.7038813 14.410848,29.9062431 C14.4809483,30.109142 14.422363,30.2287778 14.3515376,30.2981255 C14.371411,30.2786667 14.4271621,30.2393251 14.5118637,30.1907738 L24.6606393,24.3734633 C25.6126394,23.8277737 25.3227868,22.927911 24.2219934,23.0856556 L14.3113587,24.5058574 C14.1960982,24.5223744 14.1092367,24.5310969 14.0596758,24.5323242 C14.2616855,24.5273216 14.3106488,24.5355646 14.4244745,24.8356407 C14.5262391,25.1039204 14.4238161,25.2691631 14.2810265,25.3803813 C14.2926056,25.3822451 14.3711743,25.3531305 14.4798053,25.318295 C14.5202305,25.3085643 14.6392963,25.2745366 14.8029956,25.2230073 C15.0720524,25.1383136 15.3708923,25.0342486 15.6922055,24.9098185 C16.6098362,24.5544614 17.5276537,24.1059055 18.3873877,23.5548866 C20.5652273,22.1590702 22.0094029,20.3491838 22.3386581,18.0743185 L21.3489706,17.9310749 C21.0675541,19.875417 19.8035905,21.459456 17.8477859,22.7129662 Z" id="Path-12-Copy-2" fill="url(#linearGradient-5)" transform="translate(19.337618, 26.674818) scale(1, -1) translate(-19.337618, -26.674818) "></path>
                </g>
                <polygon id="+" fill="#1C233F" points="70.01 28.1845113 74.0370175 28.1845113 74.0370175 24.2575439 75.987995 24.2575439 75.987995 28.1845113 79.99 28.1845113 79.99 30.1354887 76.0130075 30.1354887 76.0130075 34.0624561 74.0370175 34.0624561 74.0370175 30.1354887 70.01 30.1354887"></polygon>
            </g>
        </g>
    </g>
</svg>