<?xml version="1.0" encoding="UTF-8" standalone="no"?>
<svg width="150px" height="60px" viewBox="0 0 150 60" version="1.1" xmlns="http://www.w3.org/2000/svg" xmlns:xlink="http://www.w3.org/1999/xlink">
    <!-- Generator: Sketch 39.1 (31720) - http://www.bohemiancoding.com/sketch -->
    <title>code-block-rmp-union</title>
    <desc>Created with Sketch.</desc>
    <defs>
        <polygon id="path-1" points="29.9387368 39.8381422 0 39.8381422 0 0 30.2951504 0 30.2951504 39.8381422"></polygon>
        <polygon id="path-3" points="29.9387368 39.8381422 0 39.8381422 0 0 30.2951504 0 30.2951504 39.8381422"></polygon>
        <linearGradient x1="50%" y1="0%" x2="50%" y2="100%" id="linearGradient-5">
            <stop stop-color="#FCC397" offset="0%"></stop>
            <stop stop-color="#FC9F95" offset="16.0654496%"></stop>
            <stop stop-color="#F77C88" offset="30.0482302%"></stop>
            <stop stop-color="#F25192" offset="42.703683%"></stop>
            <stop stop-color="#D34CA3" offset="56.3317124%"></stop>
            <stop stop-color="#9A50A5" offset="69.1147162%"></stop>
            <stop stop-color="#59569E" offset="83.848852%"></stop>
            <stop stop-color="#39477F" offset="100%"></stop>
        </linearGradient>
        <path d="M7.48468421,3.23011963 C7.68152597,3.23011963 7.84109774,3.39080561 7.84109774,3.58902182 C7.84109774,3.78723802 7.68152597,3.947924 7.48468421,3.947924 C7.28784245,3.947924 7.12827068,3.78723802 7.12827068,3.58902182 C7.12827068,3.39080561 7.28784245,3.23011963 7.48468421,3.23011963 L7.48468421,3.23011963 Z M9.26675188,3.23011963 L12.8308872,3.23011963 C13.027729,3.23011963 13.1873008,3.39080561 13.1873008,3.58902182 C13.1873008,3.78723802 13.027729,3.947924 12.8308872,3.947924 L9.26675188,3.947924 C9.06991012,3.947924 8.91033835,3.78723802 8.91033835,3.58902182 C8.91033835,3.39080561 9.06991012,3.23011963 9.26675188,3.23011963 L9.26675188,3.23011963 Z" id="path-6"></path>
        <mask id="mask-7" maskContentUnits="userSpaceOnUse" maskUnits="objectBoundingBox" x="-1" y="-1" width="8.05903008" height="3">
            <rect x="6.12827068" y="2.23011963" width="8.05903008" height="3" fill="white"></rect>
            <use xlink:href="#path-6" fill="black"></use>
        </mask>
    </defs>
    <g id="Diagrams-&amp;-Graphics-" stroke="none" stroke-width="1" fill="none" fill-rule="evenodd">
        <g id="code-block-rmp-union">
            <g id="rmp-union" transform="translate(46.000000, 5.000000)">
                <g id="Group-6-Copy">
                    <g id="Group-2" transform="translate(0.000000, 0.412738)">
                        <g id="Device-4" transform="translate(23.926398, 0.000000)">
                            <path d="M0,3.0051573 C0,1.34545475 1.34043367,0 2.99998804,0 L30.1464706,0 C31.8033183,0 33.1464586,1.35045451 33.1464586,3.0051573 L33.1464586,46.5233438 C33.1464586,48.1830463 31.806025,49.5285011 30.1464706,49.5285011 L2.99998804,49.5285011 C1.34314039,49.5285011 0,48.1780465 0,46.5233438 L0,3.0051573 Z M16.038609,48.5023997 C16.8566834,48.5023997 17.5198637,47.8345888 17.5198637,47.0108023 C17.5198637,46.1870157 16.8566834,45.5192048 16.038609,45.5192048 C15.2205347,45.5192048 14.5573544,46.1870157 14.5573544,47.0108023 C14.5573544,47.8345888 15.2205347,48.5023997 16.038609,48.5023997 Z" id="Combined-Shape" fill="#1C233F"></path>
                            <g id="Group" transform="translate(1.425654, 4.665728)">
                                <mask id="mask-2" fill="white">
                                    <use xlink:href="#path-1"></use>
                                </mask>
                                <use id="Screen-4" fill="#F25192" xlink:href="#path-1"></use>
                                <mask id="mask-4" fill="white">
                                    <use xlink:href="#path-3"></use>
                                </mask>
                                <use id="Screen-4-Copy" stroke="#1C233F" fill="#FFFFFF" xlink:href="#path-3"></use>
                            </g>
                            <path d="M12.8308872,2.15341309 C13.027729,2.15341309 13.1873008,2.31409907 13.1873008,2.51231527 C13.1873008,2.71053147 13.027729,2.87121745 12.8308872,2.87121745 C12.6340455,2.87121745 12.4744737,2.71053147 12.4744737,2.51231527 C12.4744737,2.31409907 12.6340455,2.15341309 12.8308872,2.15341309 L12.8308872,2.15341309 Z M14.6129549,2.15341309 L18.1770902,2.15341309 C18.373932,2.15341309 18.5335038,2.31409907 18.5335038,2.51231527 C18.5335038,2.71053147 18.373932,2.87121745 18.1770902,2.87121745 L14.6129549,2.87121745 C14.4161131,2.87121745 14.2565414,2.71053147 14.2565414,2.51231527 C14.2565414,2.31409907 14.4161131,2.15341309 14.6129549,2.15341309 L14.6129549,2.15341309 Z" id="Speaker_cam-2" fill="#FFFFFF"></path>
                            <path d="M14.9213874,20.9505933 C14.1227943,21.4624259 13.2638329,21.8822176 12.4046846,22.2149271 C12.1041252,22.3313202 11.8255119,22.4283417 11.5763415,22.5067755 C11.4291045,22.5531228 11.3260729,22.5825682 11.2747176,22.5959423 C11.1026005,22.6503263 10.9881655,22.6927318 10.9026751,22.7326844 C10.8411064,22.7614576 10.7893197,22.7907763 10.740138,22.8290838 C10.5695383,22.9619632 10.4558835,23.1453264 10.5630824,23.4279322 C10.6506258,23.658721 10.7974462,23.7284656 10.9804843,23.75928 C11.0367705,23.7687558 11.0934817,23.7712433 11.1580338,23.7696448 C11.2535169,23.7672802 11.3760759,23.754973 11.5268119,23.7333724 L21.4374467,22.3131705 C21.5332419,22.299443 21.600544,22.2962253 21.6271235,22.2992734 C21.5257275,22.2876454 21.4026487,22.2266085 21.3356439,22.0185888 C21.2709373,21.8177037 21.3286906,21.7029337 21.3977291,21.6358072 C21.3771601,21.6558065 21.3212279,21.695198 21.2369416,21.7435111 L11.0881661,27.5608217 C10.1284064,28.110959 10.4372123,29.0047699 11.5268119,28.8486294 L21.4374467,27.4284275 C21.5391441,27.4138542 21.6119113,27.4092717 21.6441761,27.4117367 C21.530226,27.403031 21.40579,27.3515812 21.3300128,27.1181743 C21.253541,26.8826278 21.3260954,26.7660736 21.4155045,26.6914948 C21.3919349,26.7111549 21.3319867,26.748314 21.2436713,26.7936918 C21.1912027,26.8177427 21.0642741,26.8791242 20.8882625,26.96775 C20.5970335,27.1143903 20.2730629,27.2849672 19.924449,27.4778726 C18.9283513,28.0290631 17.9320671,28.6498563 16.9998986,29.3282386 C15.3039614,30.5624508 14.0098615,31.8475451 13.2760785,33.1713987 L14.1507097,33.6561876 C14.8006166,32.483659 15.9997543,31.292866 17.5883207,30.1367925 C18.4840578,29.484923 19.4462439,28.8853767 20.4086165,28.3528479 C20.7454673,28.1664516 21.0579996,28.0018972 21.3379911,27.8609152 C21.5047118,27.7769676 21.622592,27.7199618 21.6834307,27.6916017 C22.6882858,27.1757073 22.3976857,26.2806091 21.2955949,26.4385396 L11.3849602,27.8587415 C11.2904476,27.8722852 11.2236286,27.8754934 11.1966709,27.8724529 C11.2951597,27.8835611 11.4145348,27.9415083 11.4844495,28.1438701 C11.5545498,28.346769 11.4959645,28.4664049 11.4251391,28.5357525 C11.4450125,28.5162937 11.5007636,28.4769521 11.5854652,28.4284009 L21.7342408,22.6110903 C22.6862409,22.0654007 22.3963883,21.165538 21.2955949,21.3232826 L11.3849602,22.7434845 C11.2696997,22.7600014 11.1828382,22.7687239 11.1332773,22.7699512 C11.335287,22.7649486 11.3842503,22.7731916 11.498076,23.0732677 C11.5998407,23.3415475 11.4974176,23.5067901 11.354628,23.6180084 C11.3662071,23.6198721 11.4447758,23.5907575 11.5534068,23.555922 C11.593832,23.5461913 11.7128978,23.5121636 11.8765971,23.4606343 C12.1456539,23.3759406 12.4444938,23.2718757 12.765807,23.1474455 C13.6834377,22.7920885 14.6012552,22.3435325 15.4609892,21.7925136 C17.6388288,20.3966972 19.0830044,18.5868108 19.4122596,16.3119455 L18.4225721,16.168702 C18.1411556,18.113044 16.877192,19.697083 14.9213874,20.9505933 Z" id="Path-12-Copy-2" fill="url(#linearGradient-5)"></path>
                        </g>
                        <g id="Group-3" transform="translate(0.000000, 5.204082)">
                            <g id="Device-5" transform="translate(1.603083, 6.424349)" fill="#FFFFFF">
                                <polygon id="screen-5" points="0.38806015 31.7987333 0.38806015 0.215341309 18.2087368 0.215341309 18.2087368 31.7987333"></polygon>
                            </g>
                            <g id="Device-5-Copy" transform="translate(0.000000, 0.179451)">
                                <path d="M0,4.00823056 C0,1.79454595 1.79834066,0 3.9980157,0 L16.6739693,0 C18.8820124,0 20.671985,1.79972428 20.671985,4.00823056 L20.671985,40.4956399 C20.671985,42.7093246 18.8736443,44.5038705 16.6739693,44.5038705 L3.9980157,44.5038705 C1.7899726,44.5038705 0,42.7041462 0,40.4956399 L0,4.00823056 Z M7.8901995,40.7436811 C7.75365088,40.332763 7.98335355,39.9996481 8.43089732,39.9996481 L12.0429853,39.9996481 C12.4781531,39.9996481 12.7209028,40.3307437 12.5836831,40.7436811 L12.5593724,40.8168397 C12.4228238,41.2277577 11.9582706,41.5608726 11.5314753,41.5608726 L8.94240731,41.5608726 C8.51126403,41.5608726 8.05172984,41.2297771 7.91451019,40.8168397 L7.8901995,40.7436811 Z" id="Combined-Shape" fill="#1C233F"></path>
                                <polygon id="screen-5" stroke="#1C233F" fill="#FFFFFF" points="1.55639098 37.8282899 1.55639098 6.24489796 19.3770677 6.24489796 19.3770677 37.8282899"></polygon>
                                <use id="Speaker_cam-3" stroke="#1C233F" mask="url(#mask-7)" stroke-width="2" xlink:href="#path-6"></use>
                            </g>
                            <path d="M9.47244237,19.3006315 C9.01372544,19.606317 8.51908834,19.8537745 8.02435787,20.0464917 C7.72938784,20.1613943 7.50345619,20.2315323 7.38230978,20.2619538 C7.19745013,20.3228423 7.08212337,20.3682506 6.99546308,20.4116491 C6.93264686,20.4431068 6.87962481,20.4754651 6.82980851,20.5176435 C6.67390995,20.6496395 6.57207277,20.8311698 6.66471676,21.0945294 C6.7445739,21.3215398 6.89372781,21.4011463 7.07177393,21.4365611 C7.13114272,21.44837 7.19052565,21.4520799 7.25763593,21.4512156 C7.35513244,21.4499601 7.47898271,21.4380615 7.63073495,21.4163153 L13.2228229,20.6149646 C13.3191922,20.6011548 13.3874552,20.597744 13.4155414,20.6007852 C13.3166417,20.5900762 13.1972436,20.533175 13.1262928,20.3290829 C13.0549327,20.1238133 13.114334,20.0040693 13.1862152,19.9341832 C13.1659469,19.9538889 13.1097148,19.9934391 13.0245474,20.0422574 L7.18985957,23.3867191 C6.23046154,23.9366491 6.54783228,24.8266597 7.63073495,24.6714789 L13.2228229,23.8701282 C13.3235287,23.855697 13.3952135,23.8512759 13.425912,23.8537729 C13.3086811,23.8442374 13.1781688,23.7877743 13.1083111,23.5474354 C13.042263,23.3202025 13.1099281,23.2121202 13.1924283,23.1422897 C13.1663957,23.1643244 13.1035038,23.2042021 13.0113404,23.2529436 C12.8678121,23.3180454 12.5810509,23.4618741 12.2149377,23.6660204 C11.606244,24.0054306 10.9974114,24.3926861 10.4268529,24.8227443 C9.43979101,25.5667419 8.67003308,26.3605632 8.20174969,27.205416 L9.07638088,27.6902049 C9.46589407,26.9874653 10.1438669,26.2882983 11.0287676,25.6213047 C11.5595205,25.2212499 12.1306645,24.8579667 12.7019473,24.539417 C13.0438199,24.3487874 13.3077144,24.2164278 13.4538705,24.1492645 C14.4568668,23.6196983 14.1955108,22.7205259 13.0809712,22.8802403 L7.48888322,23.6815909 C7.39498502,23.6950466 7.32851262,23.6982545 7.30153084,23.6952417 C7.39895547,23.7061204 7.51684346,23.7627467 7.58813006,23.9626574 C7.66085297,24.1665961 7.60180126,24.2888216 7.52976906,24.3596128 C7.54880459,24.3409052 7.60357648,24.3022078 7.68715871,24.2542982 L13.5218465,20.9098365 C14.4827921,20.3590194 14.1732303,19.4685551 13.0809712,19.6250767 L7.48888322,20.4264274 C7.37619278,20.442576 7.29169241,20.4506941 7.24475905,20.4512985 C7.40662899,20.4835761 7.53373,20.5514126 7.60805111,20.7626856 C7.69515226,21.0102886 7.60435098,21.1721468 7.47598414,21.2808323 C7.45393887,21.2994975 7.44536275,21.3047314 7.44324113,21.3057938 C7.48137834,21.2866951 7.55794987,21.2565462 7.66445032,21.2204832 C7.78541869,21.1917747 8.05071812,21.1094155 8.38733091,20.9782914 C8.94523848,20.7609642 9.50323942,20.481807 10.0269847,20.132787 C11.344976,19.2544874 12.2292933,18.0850695 12.4455593,16.5908608 L11.4558718,16.4476173 C11.2853673,17.6256542 10.5736981,18.5667628 9.47244237,19.3006315 Z" id="Path-12-Copy" fill="url(#linearGradient-5)"></path>
                        </g>
                    </g>
                </g>
            </g>
        </g>
    </g>
</svg>