<?xml version="1.0" encoding="UTF-8" standalone="no"?>
<svg width="320px" height="209px" viewBox="0 0 320 209" version="1.1" xmlns="http://www.w3.org/2000/svg" xmlns:xlink="http://www.w3.org/1999/xlink">
    <!-- Generator: Sketch 40.1 (33804) - http://www.bohemiancoding.com/sketch -->
    <title>Mobile Portrait</title>
    <desc>Created with Sketch.</desc>
    <defs></defs>
    <g id="Page-1" stroke="none" stroke-width="1" fill="none" fill-rule="evenodd">
        <g id="Mobile-Portrait">
            <g id="Google" transform="translate(220.000000, 8.000000)">
                <g id="Group" transform="translate(5.000000, 0.000000)" fill="#1C233F">
                    <path d="M38.7076718,15.5077614 C38.7076718,19.747325 35.3926704,22.8713887 31.3244103,22.8713887 C27.2561503,22.8713887 23.9411489,19.747325 23.9411489,15.5077614 C23.9411489,11.2383183 27.2561503,8.14413405 31.3244103,8.14413405 C35.3926704,8.14413405 38.7076718,11.2383183 38.7076718,15.5077614 L38.7076718,15.5077614 Z M35.4756284,15.5077614 C35.4756284,12.8584491 33.5543212,11.0457618 31.3244103,11.0457618 C29.0944995,11.0457618 27.1731923,12.8584491 27.1731923,15.5077614 C27.1731923,18.1305141 29.0944995,19.969761 31.3244103,19.969761 C33.5543212,19.969761 35.4756284,18.1271942 35.4756284,15.5077614 L35.4756284,15.5077614 Z" id="Shape"></path>
                    <path d="M54.6356066,15.5077614 C54.6356066,19.747325 51.3206052,22.8713887 47.2523452,22.8713887 C43.1840851,22.8713887 39.8690837,19.747325 39.8690837,15.5077614 C39.8690837,11.2416382 43.1840851,8.14413405 47.2523452,8.14413405 C51.3206052,8.14413405 54.6356066,11.2383183 54.6356066,15.5077614 L54.6356066,15.5077614 Z M51.4035632,15.5077614 C51.4035632,12.8584491 49.4822561,11.0457618 47.2523452,11.0457618 C45.0224343,11.0457618 43.1011272,12.8584491 43.1011272,15.5077614 C43.1011272,18.1305141 45.0224343,19.969761 47.2523452,19.969761 C49.4822561,19.969761 51.4035632,18.1271942 51.4035632,15.5077614 L51.4035632,15.5077614 Z" id="Shape"></path>
                    <path d="M69.8998775,8.58900604 L69.8998775,21.8090078 C69.8998775,27.2470699 66.6943806,29.4681098 62.9048595,29.4681098 C59.3376657,29.4681098 57.1907129,27.0810728 56.3810428,25.128948 L59.194978,23.9570091 C59.6960443,25.1555075 60.9238226,26.5698021 62.9015412,26.5698021 C65.3272329,26.5698021 66.8304317,25.072509 66.8304317,22.2538798 L66.8304317,21.1948189 L66.7176089,21.1948189 C65.9942152,22.0878828 64.6005209,22.8680688 62.8418114,22.8680688 C59.1617948,22.8680688 55.7903819,19.6610065 55.7903819,15.5343209 C55.7903819,11.3777558 59.1617948,8.14413405 62.8418114,8.14413405 C64.5972026,8.14413405 65.9908969,8.92432 66.7176089,9.79082438 L66.8304317,9.79082438 L66.8304317,8.59232598 L69.8998775,8.59232598 L69.8998775,8.58900604 Z M67.0593958,15.5343209 C67.0593958,12.9414476 65.3305512,11.0457618 63.1305052,11.0457618 C60.9005943,11.0457618 59.0323803,12.9414476 59.0323803,15.5343209 C59.0323803,18.1006347 60.9005943,19.969761 63.1305052,19.969761 C65.3305512,19.969761 67.0593958,18.1006347 67.0593958,15.5343209 L67.0593958,15.5343209 Z" id="Shape"></path>
                    <polygon id="Shape" points="74.9603152 0.840265657 74.9603152 22.4198768 71.8079114 22.4198768 71.8079114 0.840265657"></polygon>
                    <path d="M87.2447349,17.9313177 L89.7533846,19.6045676 C88.9437146,20.803066 86.9925426,22.8680688 83.6211297,22.8680688 C79.4400468,22.8680688 76.3175079,19.634447 76.3175079,15.5044414 C76.3175079,11.1254403 79.4665934,8.14081411 83.2594329,8.14081411 C87.0788189,8.14081411 88.9470329,11.1818793 89.5576038,12.8252497 L89.8927541,13.6618746 L80.053936,17.7387612 C80.8071946,19.2161346 81.9785614,19.969761 83.6211297,19.969761 C85.2670163,19.969761 86.4085183,19.1596956 87.2447349,17.9313177 L87.2447349,17.9313177 Z M79.5230048,15.2820054 L86.0999146,12.5496947 C85.7382177,11.6300712 84.6498089,10.9893228 83.3689374,10.9893228 C81.7263691,10.9893228 79.4400468,12.4401366 79.5230048,15.2820054 L79.5230048,15.2820054 Z" id="Shape"></path>
                    <path d="M12.008471,13.5921559 L12.008471,10.4680922 L22.530863,10.4680922 C22.6337309,11.0125624 22.686824,11.6566308 22.686824,12.3538182 C22.686824,14.697696 22.0463883,17.5960037 19.9823934,19.6610065 C17.9748099,21.7525689 15.4097488,22.8680688 12.0117893,22.8680688 C5.71361844,22.8680688 0.417580101,17.7354412 0.417580101,11.4341948 C0.417580101,5.13294831 5.71361844,0.000320791027 12.0117893,0.000320791027 C15.4960251,0.000320791027 17.9781283,1.36813615 19.843024,3.15094402 L17.6396596,5.3553843 C16.3023768,4.10044691 14.4905742,3.1243845 12.008471,3.1243845 C7.40927983,3.1243845 3.81222121,6.83275768 3.81222121,11.4341948 C3.81222121,16.0356319 7.40927983,19.744005 12.008471,19.744005 C14.9916405,19.744005 16.6906202,18.5455066 17.7790291,17.4565663 C18.6617021,16.5734622 19.2424081,15.3118849 19.4713722,13.588836 L12.008471,13.5921559 L12.008471,13.5921559 Z" id="Shape"></path>
                </g>
                <rect id="Rectangle" x="0" y="0" width="100" height="30"></rect>
            </g>
            <g id="Amazon" transform="translate(0.000000, 8.000000)">
                <g id="Group-2" transform="translate(5.000000, 1.000000)" fill="#1C233F">
                    <path d="M55.670305,21.1414729 C50.4567486,24.9817654 42.9000169,27.0307003 36.3938116,27.0307003 C27.2710621,27.0307003 19.0582467,23.6587386 12.8449343,18.0505092 C12.3567743,17.6094978 12.7941639,17.0084789 13.3799589,17.3519176 C20.085334,21.2507507 28.3762602,23.5962948 36.9405535,23.5962948 C42.7164686,23.5962948 49.0703704,22.4020559 54.9126791,19.9238207 C55.7952743,19.5491564 56.5333729,20.5014249 55.670305,21.1414729 Z M57.8377407,18.6632378 C57.1738396,17.8124421 53.4325761,18.2612569 51.7533034,18.4602965 C51.2417089,18.5227403 51.1636057,18.0778287 51.6244268,17.7578017 C54.6041616,15.6620343 59.4935819,16.266958 60.0637538,16.9694498 C60.6339228,17.6758463 59.915353,22.573779 57.1152607,24.9115137 C56.6856796,25.2705653 56.2756243,25.0793336 56.4669855,24.6031978 C57.0957349,23.034299 58.5055447,19.5179367 57.8377407,18.6632378 Z" id="path8"></path>
                    <path d="M51.8704627,2.96253819 L51.8704627,0.925311462 C51.8704627,0.616995582 52.1047798,0.410151091 52.38596,0.410151091 L61.5126122,0.410151091 C61.8055112,0.410151091 62.0398283,0.620898786 62.0398283,0.925311462 L62.0398283,2.66983364 C62.0359255,2.96253819 61.7898897,3.34500601 61.3524956,3.94992965 L56.6231949,10.6977576 C58.3805753,10.6548298 60.2355863,10.9163102 61.8289428,11.8139399 C62.1882292,12.0168812 62.2858612,12.313489 62.3131985,12.6061965 L62.3131985,14.780019 C62.3131985,15.0766267 61.9851537,15.4239672 61.6414888,15.2444436 C58.8335865,13.7731115 55.1040388,13.6130995 51.9993363,15.260055 C51.6830087,15.4317751 51.3510596,15.0883348 51.3510596,14.7917271 L51.3510596,12.7271809 C51.3510596,12.3954488 51.3549624,11.8295497 51.6869115,11.3260975 L57.1660295,3.47379685 L52.3976758,3.47379685 C52.1047798,3.47379685 51.8704627,3.26695384 51.8704627,2.96253819 Z M18.5778937,15.6737425 L15.801236,15.6737425 C15.5356788,15.6542309 15.3247918,15.4551913 15.3052645,15.2015114 L15.3052645,0.960438807 C15.3052645,0.675539173 15.5434873,0.449178662 15.8402891,0.449178662 L18.4294929,0.449178662 C18.6989603,0.460879342 18.9137486,0.667731276 18.9332774,0.925311462 L18.9332774,2.78691784 L18.9840462,2.78691784 C19.6596602,0.987755279 20.9288762,0.148667701 22.6393935,0.148667701 C24.3772451,0.148667701 25.4629143,0.987755279 26.2439718,2.78691784 C26.9156815,0.987755279 28.4426476,0.148667701 30.0789644,0.148667701 C31.2427399,0.148667701 32.5158631,0.628703705 33.2930148,1.70585843 C34.1717043,2.90399758 33.9920603,4.64461655 33.9920603,6.1705876 L33.988156,15.1585836 C33.988156,15.4434832 33.7499332,15.6737425 33.4531314,15.6737425 L30.6803765,15.6737425 C30.4031035,15.6542309 30.1805022,15.4317751 30.1805022,15.1585836 L30.1805022,7.61069561 C30.1805022,7.00967518 30.2351739,5.51102507 30.102396,4.94122431 C29.8954162,3.98505699 29.2744754,3.71576571 28.4699849,3.71576571 C27.7982752,3.71576571 27.0953239,4.16458055 26.810238,4.88268518 C26.525152,5.60078833 26.5524893,6.80282771 26.5524893,7.61069561 L26.5524893,15.1585836 C26.5524893,15.4434832 26.3142665,15.6737425 26.0174647,15.6737425 L23.2447128,15.6737425 C22.9635326,15.6542309 22.7448355,15.4317751 22.7448355,15.1585836 L22.7409313,7.61069561 C22.7409313,6.02228372 23.0025827,3.68454454 21.0304154,3.68454454 C19.0348121,3.68454454 19.1129183,5.96374013 19.1129183,7.61069561 L19.1129183,15.1585836 C19.1129183,15.4434832 18.8746955,15.6737425 18.5778937,15.6737425 Z M69.8972646,0.148667701 C74.0173417,0.148667701 76.2472591,3.68454454 76.2472591,8.18049488 C76.2472591,12.5242366 73.7830217,15.9703502 69.8972646,15.9703502 C65.8513864,15.9703502 63.6488034,12.4344734 63.6488034,8.0282878 C63.6488034,3.59478128 65.8787237,0.148667701 69.8972646,0.148667701 Z M69.9206947,3.05620615 C67.874327,3.05620615 67.7454504,5.8427557 67.7454504,7.57947445 C67.7454504,9.32009342 67.7181131,13.0354953 69.8972646,13.0354953 C72.0490773,13.0354953 72.150615,10.0381981 72.150615,8.21171456 C72.150615,7.00967518 72.0998462,5.57346888 71.7366525,4.43386886 C71.4242292,3.44257717 70.8032914,3.05620615 69.9206947,3.05620615 Z M81.5896921,15.6737425 L78.8247501,15.6737425 C78.5474727,15.6542309 78.3248713,15.4317751 78.3248713,15.1585836 L78.3209686,0.91360334 C78.3444001,0.65211995 78.5748129,0.449178662 78.8559932,0.449178662 L81.4295784,0.449178662 C81.671704,0.460879342 81.8708738,0.62480199 81.9255499,0.847257808 L81.9255499,3.02498201 L81.9763158,3.02498201 C82.7534705,1.07751854 83.8430425,0.148667701 85.7605381,0.148667701 C87.006324,0.148667701 88.2208698,0.597482541 89.0019272,1.82684286 C89.7283101,2.9664414 89.7283101,4.88268518 89.7283101,6.26034789 L89.7283101,15.2249306 C89.6970685,15.4747029 89.4666556,15.6737425 89.1932884,15.6737425 L86.4088177,15.6737425 C86.1549718,15.6542309 85.9440863,15.4668995 85.9167519,15.2249306 L85.9167519,7.48971118 C85.9167519,5.93252046 86.0963944,3.65332189 84.1788973,3.65332189 C83.5032849,3.65332189 82.8823426,4.10604142 82.573825,4.79292043 C82.1832985,5.66323215 82.1325297,6.52963917 82.1325297,7.48971118 L82.1325297,15.1585836 C82.1286269,15.4434832 81.8864968,15.6737425 81.589695,15.6737425 L81.5896921,15.6737425 Z M44.5949126,8.87127858 C44.5949126,9.95233502 44.6222499,10.8538664 44.0755096,11.8139399 C43.6342127,12.5944884 42.9312614,13.0745244 42.1541097,13.0745244 C41.0879663,13.0745244 40.4631212,12.2627533 40.4631212,11.0646141 C40.4631212,8.69955846 42.5836908,8.27025815 44.5949126,8.27025815 L44.5949126,8.87127858 Z M47.3950034,15.6347149 C47.2114567,15.7986301 46.945895,15.8103382 46.7389153,15.7010634 C45.817267,14.9361278 45.6493403,14.5809794 45.1455588,13.8511681 C43.6224969,15.4044556 42.5407305,15.8688788 40.5685617,15.8688788 C38.2292951,15.8688788 36.4133374,14.4287708 36.4133374,11.5446531 C36.4133374,9.29277397 37.6317888,7.75899949 39.3735462,7.00967518 C40.8809865,6.34620795 42.9859331,6.22912821 44.5949126,6.04569997 L44.5949126,5.68664839 C44.5949126,5.02708437 44.6456815,4.2465374 44.2551535,3.67674111 C43.9192987,3.16548097 43.271019,2.95473327 42.6969443,2.95473327 C41.6386094,2.95473327 40.6974383,3.49721309 40.467024,4.62120031 C40.4201609,4.87097706 40.2366141,5.11684912 39.9827683,5.12855725 L37.2920269,4.83975292 C37.0655198,4.7890202 36.8116769,4.60558898 36.8780673,4.2582485 C37.4951022,0.995563175 40.4474997,0.0120719452 43.0874708,0.0120719452 C44.4387017,0.0120719452 46.2038907,0.371123519 47.2700341,1.39363934 C48.621262,2.65422231 48.4923884,4.33630067 48.4923884,6.1666844 L48.4923884,10.4909131 C48.4923884,11.7905252 49.0313173,12.3603214 49.5390046,13.0628162 C49.7147443,13.3125885 49.7537974,13.6130995 49.5272814,13.8004309 C48.9610152,14.2726635 47.9534506,15.1507787 47.3989002,15.6425228 L47.3949975,15.6347075 L47.3950034,15.6347149 Z M8.19373981,8.87127858 C8.19373981,9.95233502 8.22107415,10.8538664 7.6743366,11.8139399 C7.23303676,12.5944884 6.53399124,13.0745244 5.75293377,13.0745244 C4.68679034,13.0745244 4.06585102,12.2627533 4.06585102,11.0646141 C4.06585102,8.69955846 6.18642062,8.27025815 8.19373981,8.27025815 L8.19373981,8.87127858 Z M10.9938291,15.6347149 C10.8102809,15.7986301 10.5447193,15.8103382 10.3377395,15.7010634 C9.41609414,14.9361278 9.25207024,14.5809794 8.74438296,13.8511681 C7.22132098,15.4044556 6.14346474,15.8688788 4.16738728,15.8688788 C1.83202491,15.8688788 0.0121643015,14.4287708 0.0121643015,11.5446531 C0.0121643015,9.29277397 1.23451863,7.75899949 2.97237027,7.00967518 C4.47981057,6.34620795 6.58476012,6.22912821 8.19373981,6.04569997 L8.19373981,5.68664839 C8.19373981,5.02708437 8.24450869,4.2465374 7.85788496,3.67674111 C7.51812272,3.16548097 6.86984757,2.95473327 6.29967415,2.95473327 C5.24134372,2.95473327 4.29626235,3.49721309 4.06585102,4.62120031 C4.01898641,4.87097706 3.83543819,5.11684912 3.58550106,5.12855725 L0.890853765,4.83975292 C0.664346698,4.7890202 0.41440807,4.60558898 0.476892727,4.2582485 C1.09783354,0.995563175 4.04632372,0.0120719452 6.68629936,0.0120719452 C8.03752593,0.0120719452 9.80271488,0.371123519 10.8688583,1.39363934 C12.2200892,2.65422231 12.0912126,4.33630067 12.0912126,6.1666844 L12.0912126,10.4909131 C12.0912126,11.7905252 12.6301445,12.3603214 13.1378318,13.0628162 C13.3174742,13.3125885 13.3565273,13.6130995 13.1300203,13.8004309 C12.5637541,14.2726635 11.556191,15.1507787 11.0016377,15.6425228 L10.9938291,15.6347075" id="path12"></path>
                </g>
                <rect id="Rectangle" x="0" y="0" width="100" height="30"></rect>
            </g>
            <g id="Hipmunk" transform="translate(220.000000, 62.000000)">
                <path d="M36.5223056,10.1940903 L40.5241732,10.1940903 L40.5241732,11.0844587 C42.738525,9.56083798 44.868363,9.4105481 46.9511906,11.3175614 C47.3283962,10.911876 47.7812825,10.539181 48.3334294,10.3270995 C50.1893648,9.61440073 51.9365326,9.8383768 53.508235,11.0559568 C54.481903,11.8102489 54.8775235,12.8989342 54.9806019,14.0929495 C55.031954,14.6869275 55.0333014,15.2863664 55.035098,15.8834115 C55.0410865,17.9773708 55.0374185,20.0714049 55.0374185,22.1653641 L55.0374185,22.593118 L50.7954089,22.593118 L50.7954089,22.1765854 C50.7954089,20.032729 50.8022958,17.8888726 50.791666,15.745091 C50.7879232,15.0065834 50.6388076,14.3015151 50.0572417,13.7765104 C49.6745716,13.4311953 49.2017733,13.3167386 48.7011281,13.3903499 C48.2197961,13.4611186 47.9438724,13.8173557 47.8892266,14.3698151 C47.8794951,14.468562 47.8861574,14.5691044 47.8861574,14.6688239 C47.8860826,17.161661 47.8860826,19.6544982 47.8860826,22.1474101 L47.8860826,22.5877318 L43.6738661,22.5877318 L43.6738661,22.1714984 C43.6738661,20.027642 43.6853941,17.883636 43.6642095,15.740004 C43.6600175,15.3119509 43.5850106,14.8670659 43.448471,14.4616049 C43.1692535,13.6321304 42.1991787,13.1783432 41.3848068,13.4343372 C40.9945012,13.5570228 40.7888684,13.8222931 40.7475472,14.2205725 C40.7347466,14.3439314 40.7399866,14.4694597 40.7399866,14.5940156 C40.7396123,17.1118387 40.7396872,19.629587 40.7396872,22.1474101 L40.7396872,22.5867593 L36.5223056,22.5867593 L36.5223056,10.1940903 Z M26.993057,11.0441371 C27.136631,10.9474099 27.2809557,10.8519545 27.4232593,10.7537312 C29.0432447,9.63549667 30.7663084,9.5582945 32.5223094,10.3395924 C34.3090018,11.1344307 35.4466072,12.5209278 35.8320471,14.4419303 C36.1851486,16.2014216 36.1438274,17.9553771 35.3180773,19.6037782 C34.4442688,21.348233 33.0525232,22.4449976 31.1114003,22.7820838 C29.7004912,23.0270062 28.3717753,22.8172437 27.1540727,21.9263516 C27.1540727,23.9397423 27.1540727,27.9479724 27.1540727,27.9479724 L22.9507643,27.9480461 L22.9125885,10.1937206 L26.993057,10.1937206 L26.993057,11.0441371 Z M26.9810776,15.988218 C27.039616,15.3183844 27.2382122,14.7134844 27.6875053,14.1860859 C28.6444802,13.0626896 30.8659434,13.3137462 31.456043,14.8170191 C31.8509897,15.8230412 31.9142441,16.8473165 31.5161533,17.8671782 C31.0655877,19.0213955 29.9860715,19.4163085 29.0365075,19.3090334 C27.7421511,19.1629328 27.0105714,18.1114273 26.9938782,17.0703201 C26.9932794,17.0330656 26.9882639,16.9959606 26.9852697,16.9587809 C26.9335433,16.6354594 26.9403553,16.3119135 26.9810776,15.988218 Z M9.15794496,11.1789416 C9.60424378,10.9215262 9.97104421,10.6884236 10.3562595,10.4914533 C12.0813444,9.609613 14.5323948,10.0637742 15.7075036,11.380924 C16.3222312,12.0698337 16.6220344,12.8852443 16.7269843,13.7784554 C16.7847741,14.2712925 16.7955535,14.7718349 16.7970506,15.2689361 C16.8039375,17.5621847 16.8000449,19.8553585 16.8000449,22.1485323 L16.8000449,22.5875074 L12.5535439,22.5875074 L12.5535439,22.1709 C12.5535439,20.0771651 12.5514479,17.9833555 12.5546667,15.8895458 C12.5556399,15.3200302 12.4479952,14.7836546 12.1883154,14.2697216 C11.7085554,13.3200301 10.6951382,13.1897889 9.87874525,13.4283526 C9.51583739,13.5344307 9.29306226,13.7973819 9.24028791,14.1807745 C9.21326445,14.3772211 9.18751357,14.5759868 9.18721414,14.7736303 C9.18362099,17.2414067 9.18489356,19.7090334 9.18489356,22.176735 L9.18489356,22.5983546 L5,22.5983546 L5,5.37052558 C6.38208908,5.20011226 7.75025471,5.03141953 9.15794496,4.85778945 L9.15794496,11.1789416 Z M81.8872106,5.36656074 C83.2734916,5.1968955 84.6427801,5.02925009 86.0552613,4.8564429 L86.0552613,14.3816348 C86.0824344,14.3945018 86.1094579,14.407294 86.1364813,14.4201611 C87.6137888,12.8802321 89.0910963,11.3402283 90.5360655,9.83403791 C91.3952019,10.6647093 92.2432595,11.4848328 93.1160948,12.3288201 C92.2485744,13.1765478 91.4042596,14.0015338 90.5300769,14.8557698 C91.8184447,16.6825886 93.1057645,18.5079113 94.4115741,20.3595665 C93.2270332,21.243651 92.0717616,22.1059663 90.8789116,22.99626 C89.2857251,20.8149246 87.7090821,18.6562562 86.0827339,16.4293625 L86.0827339,22.5429965 L81.8872106,22.5429965 L81.8872106,5.36656074 Z M56.0253094,10.1963345 L60.2274202,10.1963345 L60.2274202,10.5908735 C60.2274202,12.5726952 60.2123739,14.5547412 60.2381247,16.5363384 C60.2444128,17.0261084 60.3196443,17.5353285 60.4742245,17.9986912 C60.8248557,19.0500471 61.9101359,19.5720594 62.9728091,19.269011 C63.4773469,19.1251546 63.6822311,18.7477467 63.7389729,18.2716667 C63.7815667,17.9142326 63.8064941,17.5525344 63.8074673,17.1926317 C63.8135307,15.0113711 63.8104616,12.8301105 63.8104616,10.6487752 L63.8104616,10.2086031 L67.98495,10.2086031 L67.98495,22.5441186 L63.9738001,22.5441186 L63.9738001,21.504358 C63.5760836,21.7447918 63.2339112,21.9604642 62.8834296,22.1617733 C62.0460018,22.6427907 61.1522064,22.8930245 60.1756938,22.8736492 C58.1912286,22.8341504 56.4180853,21.3184593 56.1104221,19.3576588 C56.058546,19.0273054 56.0298009,18.6897703 56.0289026,18.355452 C56.02239,15.7753135 56.0253094,13.1951751 56.0253094,10.6149618 L56.0253094,10.1963345 Z M80.8730448,22.6038156 L76.6859055,22.6038156 L76.6859055,22.1939409 C76.6859055,20.1998507 76.6936907,18.2057605 76.6799169,16.2118948 C76.6768478,15.7670098 76.6293134,15.3170378 76.5477191,14.8794841 C76.3876743,14.0209839 75.822053,13.4991212 74.9604463,13.3742662 C74.7533163,13.344268 74.5386258,13.3305033 74.3305976,13.3480832 C73.6422104,13.4062093 73.2480871,13.8378532 73.2435957,14.5272118 C73.2386551,15.2873389 73.242398,16.0476906 73.242398,16.8078926 L73.242398,22.1543673 L73.242398,22.5891532 L69.0178301,22.5891532 L69.0178301,10.2098748 L73.0396846,10.2098748 L73.0396846,11.2315319 C73.1786945,11.1291193 73.2669511,11.0691978 73.3497432,11.0022444 C75.3481319,9.38705829 77.981235,9.92829638 79.3029892,11.0424913 C80.006198,11.6351227 80.4229282,12.4111092 80.6287856,13.2860672 C80.7675709,13.8751826 80.8696762,14.4874885 80.8764882,15.0906679 C80.903886,17.5205913 80.8880162,19.9509635 80.8873425,22.3812609 C80.8873425,22.442903 80.8797071,22.504545 80.8730448,22.6038156 Z M21.9531419,22.6014217 L17.7628587,22.6014217 L17.7628587,10.2069573 L21.9531419,10.2069573 L21.9531419,22.6014217 Z M17.8764171,9.06500854 L17.8764171,3 C19.2183078,4.00662055 20.5152842,4.97965218 21.849315,5.98043769 C20.5186528,7.01361519 19.2204038,8.02150749 17.8764171,9.06500854 Z M26.9810776,15.988218 C26.9831401,16.3117639 26.9850941,16.635235 26.9871566,16.9587809 C26.9850941,16.635235 26.9831401,16.3117639 26.9810776,15.988218 Z" id="Fill-2" fill="#1C233F"></path>
                <rect id="Rectangle" x="0" y="0" width="100" height="30"></rect>
            </g>
            <g id="Ebay" transform="translate(0.000000, 62.000000)">
                <g id="EBay_logo" transform="translate(13.000000, 0.000000)" fill="#1C233F">
                    <path d="M9.53766128,6.45174459 C4.34858918,6.45174459 0.0245388318,8.65177064 0.0245388318,15.2891488 C0.0245388318,20.5474136 2.93214968,23.8587529 9.67164883,23.8587529 C17.6043549,23.8587529 18.1128701,18.6366503 18.1128701,18.6366503 L14.2690997,18.6366503 C14.2690997,18.6366503 13.4449631,21.4485518 9.43717049,21.4485518 C6.17293287,21.4485518 3.8251652,19.2449048 3.8251652,16.1561731 L18.514833,16.1561731 L18.514833,14.2179483 C18.514833,11.1622215 16.5737354,6.45174459 9.53766128,6.45174459 L9.53766128,6.45174459 Z M9.40367348,8.92889567 C12.5108897,8.92889567 14.6291915,10.8311979 14.6291915,13.6823479 L3.91018035,13.6823479 C3.91018035,10.6555034 6.67510387,8.92889567 9.40367348,8.92889567 L9.40367348,8.92889567 Z M18.5121064,0.0245413868 L18.5121064,20.5254876 C18.5121064,21.6891863 18.4289965,23.3231527 18.4289965,23.3231527 L22.0951435,23.3231527 C22.0951435,23.3231527 22.2267341,22.1496149 22.2267341,21.0771156 C22.2267341,21.0771156 24.0380475,23.9089653 28.963143,23.9089653 C34.1494669,23.9089653 37.6723388,20.3106234 37.6723388,15.1552486 C37.6723388,10.3592778 34.436467,6.50195702 28.9715159,6.50195702 C23.8539752,6.50195702 22.2637604,9.26364586 22.2637604,9.26364586 L22.2637604,0.0245413868 L18.5121064,0.0245413868 Z M28.0252281,9.03768944 C31.5471455,9.03768944 33.7866983,11.6498534 33.7866983,15.1552486 C33.7866983,18.9141488 31.2000897,21.3732329 28.0503517,21.3732329 C24.2914154,21.3732329 22.2637604,18.4401895 22.2637604,15.1887237 C22.2637604,12.1589912 24.0832347,9.03768944 28.0252281,9.03768944 Z M46.7834979,6.45174459 C38.9769314,6.45174459 38.4762651,10.7234444 38.4762651,11.406047 L42.3619057,11.406047 C42.3619057,11.406047 42.5656676,8.91215811 46.5155233,8.91215811 C49.0822033,8.91215811 51.071104,10.0862006 51.071104,12.3433473 L51.071104,13.1467477 L46.5155233,13.1467477 C40.4676664,13.1467477 37.2703757,14.9148284 37.2703757,18.5027503 C37.2703757,22.0337807 40.22457,23.9549935 44.2167982,23.9549935 C49.6575852,23.9549935 51.4102581,20.9506109 51.4102581,20.9506109 C51.4102581,22.1455899 51.5024484,23.3231527 51.5024484,23.3231527 L54.9567445,23.3231527 C54.9567445,23.3231527 54.822756,21.8635268 54.822756,20.9296889 L54.822756,12.8580257 C54.822756,7.56554671 50.551027,6.45174459 46.7834979,6.45174459 L46.7834979,6.45174459 Z M51.071104,15.5569488 L51.071104,16.6281494 C51.071104,18.0252868 50.2084079,21.4987642 45.1295894,21.4987642 C42.3484457,21.4987642 41.1560187,20.1116748 41.1560187,18.5027503 C41.1560187,15.5757993 45.1716208,15.5569488 51.071104,15.5569488 L51.071104,15.5569488 Z M52.7303965,7.12191962 L57.1017439,7.12191962 L63.3752348,19.6822237 L69.6343725,7.12191962 L73.5941863,7.12191962 L62.1932739,29.4832227 L58.0396563,29.4832227 L61.3295324,23.2497045 L52.7303965,7.12191962 Z" id="e"></path>
                </g>
                <rect id="Rectangle" x="0" y="0" width="100" height="30"></rect>
            </g>
            <g id="Intel" transform="translate(110.000000, 8.000000)">
                <path d="M37.7747676,5.31518685 L37.7747676,6.18015517 C50.5879969,-0.429413822 68.7693339,-0.387263291 70.423805,9.0817843 C70.9812949,12.2186576 69.22542,15.4811372 66.0770836,17.3583336 L66.0770836,19.8149637 C69.8670042,18.4253008 73.7410192,13.9275578 72.6187628,8.41405573 C70.5085885,-1.86544876 50.6048455,-2.51643999 37.7747676,5.31518685 Z M29.9163743,19.0002065 C29.2749432,15.5820998 30.8364355,11.9542382 32.896138,9.70337 L32.896138,8.49820316 C29.1821176,11.7651366 27.1646922,15.8973447 28.3295311,20.7764402 C29.8150473,27.0375949 37.7325672,30.5816933 49.8199634,29.401633 C54.6058442,28.9398969 60.8691231,27.394532 65.2158431,24.9971737 L65.2158431,21.591196 C61.2656228,23.9552341 54.732292,25.9083625 49.2881315,26.4118658 C40.4337773,27.2308435 31.2079679,25.9417591 29.9163743,19.0002065 Z M64.5067083,6.92800822 L62.1856075,6.92800822 L62.1856075,17.305146 C62.1856075,18.5239145 62.7681413,19.5839373 64.5067083,19.7519855 L64.5067083,6.92800822 Z M36.854783,10.720459 L34.5335298,10.720459 L34.5335298,17.4982554 C34.5335298,18.7174845 35.1160642,19.7771232 36.854783,19.9450949 L36.854783,10.720459 Z M34.5335296,7.24334767 L36.8547828,7.24334767 L36.8547828,9.45087647 L34.5335296,9.45087647 L34.5335296,7.24334767 Z M48.0895167,17.2291175 L48.0895167,8.22726451 L50.3854189,8.22726451 L50.3854189,10.720459 L52.124061,10.720459 L52.124061,12.58728 L50.3854189,12.58728 L50.3854189,17.0903587 C50.3854189,17.619947 50.6386208,17.9103801 51.1870731,17.9103801 L52.124061,17.9103801 L52.124061,19.8360096 L50.7650701,19.8360096 C48.882977,19.8360096 48.0895167,18.5239925 48.0895167,17.2291175 Z M57.0366959,18.0488298 C58.0582375,18.0488298 58.5646427,17.762934 59.155525,17.1789951 L60.5736429,18.5453627 C59.6620067,19.4448725 58.7082468,19.9916029 57.020077,19.9916029 C54.8171535,19.9916029 52.7067479,18.7849036 52.7067479,15.2697395 C52.7067479,12.2636382 54.5467938,10.5650957 56.9693751,10.5650957 C59.4256535,10.5650957 60.8350401,12.5537626 60.8350401,15.1648826 L60.8350401,15.9974335 L54.9943798,15.9974335 C54.9943798,17.1789185 55.7367539,18.0488298 57.0366959,18.0488298 Z M55.2220783,13.4325153 C55.0702022,13.7645364 55.0194237,14.0169154 54.9943798,14.4249654 L58.5479457,14.4249654 C58.4972438,13.4282872 58.0495828,12.47389 56.8678181,12.47389 C56.0830125,12.47389 55.4754332,12.8816325 55.2220783,13.4325153 Z M43.1094835,12.58728 C43.7846142,12.58728 44.0632443,12.9195317 44.0632443,13.4618814 L44.0632443,19.8485394 L46.3676467,19.8485394 L46.3676467,13.453502 C46.3676467,12.1542458 45.6754371,10.7203822 43.6581649,10.7203822 L38.9059841,10.7203822 L38.9059841,19.8484629 L41.2018864,19.8484629 L41.2018864,12.587203 L43.1094835,12.58728 Z" id="path6-copy" fill="#1C233F"></path>
                <rect id="Rectangle" x="0" y="0" width="100" height="30"></rect>
            </g>
            <g id="Hyatt_logo" transform="translate(0.000000, 117.000000)">
                <g id="Group-3" transform="translate(5.000000, 4.000000)" fill="#1C233F">
                    <path d="M53.8174253,21.0561275 L46.2105679,3.10515594 C46.1747449,3.03667089 46.14048,2.96974182 46.0719501,2.89969969 L45.9348893,3.00398434 C45.3492673,4.58537538 43.8353718,8.36764035 43.8353718,8.36764035 L38.8716019,21.0249981 L37.3281136,21.0249981 L42.494359,8.95287962 L46.2432747,0.149386089 C46.3476276,-0.0576261371 46.6575721,0.0108589125 46.8631628,0.0108589125 L47.2073712,0.630340709 L48.5842059,3.65615269 L56.2845138,21.0530145 L53.8174253,21.056122 L53.8174253,21.0561275 Z M63.8692546,16.1525692 L63.8599038,1.51691618 L58.6360297,1.53092438 L58.6313598,0.537885673 L71.2206766,0.534778107 C71.2206766,0.953473791 71.2237862,1.25698858 71.1895268,1.53092987 L65.9656537,1.53559671 L65.9594236,16.1510143 L63.8692513,16.1525736 L63.8692546,16.1525692 Z M82.6412502,16.1525692 L82.6319104,1.51691618 L77.4080374,1.53092438 L77.4017742,0.537885673 L89.9910888,0.534778107 C89.9910888,0.953473791 89.9941654,1.25698858 89.9614982,1.53092987 L84.7360648,1.53559671 L84.7282634,16.1510143 L82.6412062,16.1525736 L82.6412502,16.1525692 Z M24.0505338,0.528235746 C25.7030471,3.2100632 27.2169425,5.92613428 28.9021637,8.57216323 L29.0049596,8.57216323 C30.7945336,5.85609215 32.3162163,3.08243117 34.0715254,0.503331293 L35.5075446,0.503331293 L35.4063069,0.665205846 L29.7634643,9.22588755 L29.761904,16.1693786 C29.0361061,16.1802716 28.300964,16.1507014 27.7013235,16.1724862 L27.693533,9.46713791 L21.8092768,0.503325803 L24.0505272,0.528230256 L24.0505338,0.528235746 Z M0,16.1749821 L0.00466989199,0.504265759 L1.99827645,0.527613135 L1.98737637,7.25163865 L10.8931933,7.25163865 L10.8931933,0.504265759 L12.9101625,0.527613135 L12.9117228,16.1734261 L10.9414778,16.1640925 L10.9072129,8.40033239 L10.6315343,8.39722482 L1.96713102,8.43146735 L1.96246113,16.1734371 L3.29639435e-06,16.1749964 L0,16.1749821 Z M88.2423516,15.2796912 L88.2423516,14.9528279 L88.5195784,14.9528279 C88.6457424,14.9528279 88.8108368,14.9528279 88.8108368,15.0866861 C88.8108368,15.2470046 88.7282841,15.2796912 88.5850008,15.2796912 L88.2423516,15.2796912 L88.2423516,15.2796912 Z M88.7282841,15.4726952 C88.9556804,15.455574 89.0787238,15.3606285 89.0787238,15.1224857 C89.0787238,14.7831713 88.8762482,14.7286944 88.5787706,14.7286944 L87.9542138,14.7286944 L87.9542138,16.0159099 L88.2423516,16.0159099 L88.2423516,15.4726952 L88.4417065,15.4726952 L88.7282841,16.0159099 L89.0413427,16.0159099 L88.7282841,15.4726952 L88.7282841,15.4726952 Z M88.4479367,16.6229394 C89.1347954,16.6229394 89.6861504,16.0719427 89.6861504,15.3886449 C89.6861504,14.699121 89.1347954,14.1450112 88.4479367,14.1450112 C87.7564081,14.1450112 87.2112834,14.699121 87.2112834,15.3886449 C87.2112834,16.0719427 87.7564081,16.6229394 88.4479367,16.6229394 L88.4479367,16.6229394 Z M88.4479367,16.3303198 C87.9090422,16.3303198 87.5040911,15.9380846 87.5040911,15.3886449 C87.5040911,14.8329791 87.9090422,14.4391879 88.4479367,14.4391879 C88.9790518,14.4391879 89.390233,14.8329791 89.390233,15.3886449 C89.390233,15.9380846 88.9790518,16.3303198 88.4479367,16.3303198 L88.4479367,16.3303198 Z" id="path6080"></path>
                    <path d="M49.7162009,12.8719599 C47.2911644,12.9093154 42.6965236,12.8548386 42.6965236,12.8548386 C42.9036712,12.0983856 43.2494377,11.3590539 43.5266744,10.6368434 C45.7539074,10.5683584 48.8564584,10.6368434 48.8564584,10.6368434 L49.7162009,12.8719599 Z M30.3483084,12.3201857 C33.7545727,11.4625611 37.3679857,10.9458069 41.0499285,10.7745931 C41.0499285,10.7745931 40.4627495,12.3559842 40.0858331,13.1108812 C36.7823636,13.3178934 33.6175119,13.8688902 30.4511032,14.3840873 L30.3483084,14.3514019 L30.3483084,12.3201857 L30.3483084,12.3201857 Z M63.2406454,12.7009021 L63.260893,14.6900936 L63.0007888,14.6589631 C59.870203,13.9025101 56.6352634,13.5242841 53.3645018,13.1476142 C52.9891436,12.4254037 52.677642,11.6331522 52.4377865,10.8440127 C53.8488861,10.8766992 55.2926936,11.117954 56.7037943,11.2891677 C58.9076647,11.6673947 61.10842,12.0814203 63.2406454,12.7009021 Z M27.1079176,15.0728338 C20.9137179,16.4830111 14.9328971,18.5111142 9.25578856,21.1929428 L9.18570062,21.1244578 C14.6572186,17.547649 20.6100046,14.900063 26.9069991,13.1474582 L27.1016874,13.0914243 L27.1079176,15.0728338 L27.1079176,15.0728338 Z M66.5799368,13.7322308 C71.842748,15.3805509 76.7987318,17.8911658 81.513301,20.8484916 L81.513301,20.9185337 L81.3404161,20.9527762 C76.6274072,18.6149322 71.6371573,16.963499 66.5799368,15.4832796 L66.5799368,13.7322308 Z" id="path6102"></path>
                </g>
                <rect id="Rectangle" x="0" y="0" width="100" height="30"></rect>
            </g>
            <g id="BBC" transform="translate(220.000000, 116.000000)">
                <path d="M53.6411651,18.5250071 C53.6411651,21.3032281 50.1815622,21.1385105 50.1815622,21.1385105 L46.7219592,21.1385105 L46.7219592,16.1172155 L50.1815622,16.1172155 C53.7442119,16.0967184 53.6411651,18.5250071 53.6411651,18.5250071 L53.6411651,18.5250071 Z M46.7219592,8.46167298 L49.3579295,8.46167298 C52.0966995,8.60589353 51.9936528,10.6430087 51.9936528,10.6430087 C51.9936528,13.1742768 48.9665002,13.2155179 48.9665002,13.2155179 L46.7219592,13.2155179 L46.7219592,8.46167298 L46.7219592,8.46167298 Z M53.0028684,14.2033299 C53.0028684,14.2033299 55.3709666,13.1950208 55.3504561,10.5195322 C55.3504561,10.5195322 55.710502,6.13636369 49.898369,5.60121658 L43.4476921,5.60121658 L43.4476921,23.9784698 L50.8406165,23.9784698 C50.8406165,23.9784698 57.018479,23.9992138 57.018479,18.7924571 C57.018479,18.7924571 57.1625467,15.25288 53.0028684,14.2033299 L53.0028684,14.2033299 Z M36.3115196,2 L63.4639665,2 L63.4639665,27.5704997 L36.3115196,27.5704997 L36.3115196,2 Z M22.3296455,18.5250071 C22.3296455,21.3032281 18.8700426,21.1385105 18.8700426,21.1385105 L15.4104396,21.1385105 L15.4104396,16.1172155 L18.8700426,16.1172155 C22.4326923,16.0967184 22.3296455,18.5250071 22.3296455,18.5250071 Z M15.4104396,8.46167298 L18.0464099,8.46167298 C20.7851799,8.60589353 20.6821332,10.6430087 20.6821332,10.6430087 C20.6821332,13.1742768 17.6549806,13.2155179 17.6549806,13.2155179 L15.4104396,13.2155179 L15.4104396,8.46167298 L15.4104396,8.46167298 Z M21.6913488,14.2033299 C21.6913488,14.2033299 24.059447,13.1950208 24.0389365,10.5195322 C24.0389365,10.5195322 24.3989823,6.13636369 18.5868493,5.60121658 L12.1361725,5.60121658 L12.1361725,23.9784698 L19.5290969,23.9784698 C19.5290969,23.9784698 25.7069594,23.9992138 25.7069594,18.7924571 C25.7069594,18.7924571 25.8510271,15.25288 21.6913488,14.2033299 L21.6913488,14.2033299 Z M5,2 L32.1524468,2 L32.1524468,27.5704997 L5,27.5704997 L5,2 Z M89.2358958,6.9185627 L89.2358958,10.3141662 C89.2358958,10.3141662 85.9203605,8.27680411 82.2549112,8.23556296 C82.2549112,8.23556296 75.4182415,8.10220835 75.1093484,14.78525 C75.1093484,14.78525 74.8622339,20.9331445 82.1726221,21.2830769 C82.1726221,21.2830769 85.2410428,21.6535064 89.4007211,18.9987618 L89.4007211,22.5178418 C89.4007211,22.5178418 83.8201344,25.830963 77.3538893,23.2791979 C77.3538893,23.2791979 71.9173704,21.2936959 71.7112769,14.78525 C71.7112769,14.78525 71.4846729,8.09158938 78.7335296,5.86901252 C78.7335296,5.86901252 80.6694246,5.12815357 84.149538,5.4573419 C84.149538,5.4573419 86.2292537,5.66330069 89.2358958,6.9185627 Z M67.6230146,27.5704999 L94.7754615,27.5704999 L94.7754615,2.00000013 L67.6230146,2.00000013 L67.6230146,27.5704999 L67.6230146,27.5704999 Z" id="Shape-Copy" fill="#1C233F"></path>
                <rect id="Rectangle" x="0" y="0" width="100" height="30"></rect>
            </g>
            <g id="Adidas_Logo" transform="translate(110.000000, 116.000000)">
                <path d="M72.3461479,25.0785661 L71.065321,25.0785661 L70.4015621,25.0785661 C70.3411337,24.7563864 70.2475135,24.5294322 70.1195896,24.4016713 C69.9115446,24.1938416 69.5565975,24.0866336 69.0666594,24.0866336 C68.5838679,24.0866336 68.2487725,24.1667817 68.0613731,24.3278716 C67.920109,24.4485699 67.8461815,24.6159288 67.8461815,24.8238378 C67.8461815,25.1182434 68.2559191,25.353133 69.0666594,25.5340615 C69.9925392,25.7348286 70.656457,25.9093294 71.065321,26.0498664 C71.1725992,26.0903372 71.2662195,26.1236661 71.333715,26.1569951 C72.1588279,26.5458326 72.567692,27.1362308 72.567692,27.926682 C72.567692,28.8915546 72.1651805,29.5954299 71.3670657,30.0375143 C71.2662195,30.0914755 71.1725992,30.1382947 71.065321,30.1851139 C70.5491788,30.4065132 69.9456894,30.5199903 69.2683519,30.5199903 C68.2559191,30.5199903 67.4372381,30.3390618 66.813897,29.9835532 C66.4217083,29.7558055 66.1286189,29.4693354 65.933279,29.1241429 C65.737939,28.778871 65.640269,28.3757497 65.640269,27.9131124 L67.6787132,27.9131124 C67.6787132,28.2615584 67.8064783,28.5368395 68.0542266,28.7241957 C68.3027689,28.9186145 68.7252115,29.0193948 69.3215543,29.0193948 C69.7709951,29.0193948 70.1060905,28.9249629 70.3276346,28.737686 C70.5023289,28.5900864 70.5825295,28.4289173 70.5825295,28.2417198 C70.5825295,27.926682 70.1807326,27.6790956 69.3819032,27.5045155 C68.188503,27.2497873 67.4373175,27.0418782 67.1291408,26.8942787 C66.3112539,26.512583 65.9087423,25.9230577 65.9087423,25.1048324 C65.9087423,24.4485699 66.116708,23.8922942 66.5455825,23.4367988 C67.0823704,22.8669534 67.8867583,22.5853239 68.9531875,22.5853239 C69.8314234,22.5853239 70.5357591,22.7130848 71.0654004,22.9606712 C71.1122503,22.9805098 71.152827,23.001142 71.1932449,23.0281226 C71.5751902,23.2352381 71.8633563,23.5105985 72.0563935,23.8526169 C72.2492719,24.1937623 72.3461479,24.6031527 72.3461479,25.0785661 Z M60.8250588,11.1192985 L66.3311055,20.2871354 L60.8250588,20.2871354 L57.4860155,20.2871354 L52.2285112,11.5279747 L48.2454812,4.90027856 L52.2285112,2.50773739 L54.7361684,1 L60.8250588,11.1192985 Z M64.822382,26.6529613 L64.822382,30.4127822 L62.9912681,30.4127822 L62.9912681,29.9970435 C62.3742002,30.399292 61.6365139,30.6341816 60.8456251,30.6341816 L60.8249794,30.6341816 C58.6389185,30.6206913 56.861801,28.8375934 56.861801,26.6529613 C56.861801,24.4684086 58.6389185,22.6861043 60.8249794,22.6725346 L60.8456251,22.6725346 C61.6365139,22.6725346 62.3742002,22.9075036 62.9912681,23.3090379 L62.9912681,22.8733811 L64.822382,22.8733811 L64.822382,26.6529613 Z M62.9912681,27.0687794 L62.9912681,26.2379368 C62.7967222,25.232514 61.9049872,24.4683292 60.8456251,24.4683292 L60.8249794,24.4683292 C59.6251472,24.4754711 58.6524176,25.4539133 58.6524176,26.652882 C58.6524176,27.8527235 59.6251472,28.8311657 60.8249794,28.844656 L60.8456251,28.844656 C61.9049872,28.8447354 62.7967222,28.0742022 62.9912681,27.0687794 Z M56.2250403,26.6529613 L56.2250403,30.4127822 L54.3947205,30.4127822 L54.3947205,29.9970435 C53.7705854,30.399292 53.0399662,30.6341816 52.2483628,30.6341816 L52.2285112,30.6341816 C50.0424502,30.6206913 48.2653328,28.8375934 48.2653328,26.6529613 C48.2653328,24.4684086 50.0424502,22.6861043 52.2285112,22.6725346 L52.2483628,22.6725346 C53.0400456,22.6725346 53.7705854,22.9075036 54.3947205,23.3090379 L54.3947205,20.2871354 L56.2250403,20.2871354 L56.2250403,26.6529613 Z M54.3947205,27.0687794 L54.3947205,26.2379368 C54.2001746,25.232514 53.3076455,24.4683292 52.2483628,24.4683292 L52.2285112,24.4683292 C51.0278849,24.4754711 50.0559493,25.4539133 50.0559493,26.652882 C50.0559493,27.8527235 51.0278849,28.8311657 52.2285112,28.844656 L52.2483628,28.844656 C53.3076455,28.8447354 54.2001746,28.0742022 54.3947205,27.0687794 Z M52.2285112,16.681183 L54.3875739,20.2871354 L52.2285112,20.2871354 L45.5488364,20.2871354 L40.6407207,12.1247213 L40.4263231,11.7692127 L40.6407207,11.6422453 L46.924157,7.8617922 L52.2285112,16.681183 Z M45.555983,22.6724553 L47.547498,22.6724553 L47.547498,30.4127029 L45.555983,30.4127029 L45.555983,22.6724553 Z M45.555983,20.3268127 L47.547498,20.3268127 L47.547498,22.075788 L45.555983,22.075788 L45.555983,20.3268127 Z M44.6436023,26.6529613 L44.6436023,30.4127822 L42.8132825,30.4127822 L42.8132825,29.9970435 C42.1899415,30.399292 41.4522551,30.6341816 40.6605723,30.6341816 L40.6407207,30.6341816 C38.4546597,30.6206913 36.6775423,28.8375934 36.6775423,26.6529613 C36.6775423,24.4684086 38.4546597,22.6861043 40.6407207,22.6725346 L40.6605723,22.6725346 C41.4522551,22.6725346 42.1899415,22.9075036 42.8132825,23.3090379 L42.8132825,20.2871354 L44.6436023,20.2871354 L44.6436023,26.6529613 L44.6436023,26.6529613 Z M42.8132825,27.0687794 L42.8132825,26.2379368 C42.6187366,25.232514 41.7270016,24.4683292 40.6605723,24.4683292 L40.6407207,24.4683292 C39.4400944,24.4754711 38.4681589,25.4539133 38.4681589,26.652882 C38.4681589,27.8527235 39.4400944,28.8311657 40.6407207,28.844656 L40.6605723,28.844656 C41.7270016,28.8447354 42.6187366,28.0742022 42.8132825,27.0687794 Z M40.6407207,17.270867 L42.4511889,20.2871354 L40.6407207,20.2871354 L33.6060989,20.2871354 L32.6135176,18.6317191 L39.1113515,14.7315199 L40.6407207,17.270867 Z M35.9597075,26.6529613 L35.9597075,30.4127822 L34.1293877,30.4127822 L34.1293877,29.9970435 C33.5052526,30.399292 32.7675662,30.6341816 31.9766775,30.6341816 L31.9560318,30.6341816 C29.7771175,30.6206913 28,28.8375934 28,26.6529613 C28,24.4684086 29.7771175,22.6861043 31.9560318,22.6725346 L31.9766775,22.6725346 C32.7675662,22.6725346 33.5052526,22.9075036 34.1293877,23.3090379 L34.1293877,22.8733811 L35.9597075,22.8733811 L35.9597075,26.6529613 Z M34.1293877,27.0687794 L34.1293877,26.2379368 C33.9348418,25.232514 33.0431068,24.4683292 31.9766775,24.4683292 L31.9560318,24.4683292 C30.7625521,24.4754711 29.7906166,25.4539133 29.7906166,26.652882 C29.7906166,27.8527235 30.7625521,28.8311657 31.9560318,28.844656 L31.9766775,28.844656 C33.0431068,28.8447354 33.9348418,28.0742022 34.1293877,27.0687794 L34.1293877,27.0687794 Z" id="Shape" fill="#1C233F"></path>
                <rect id="Rectangle" x="0" y="0" width="100" height="30"></rect>
            </g>
            <g id="Alibaba" transform="translate(0.000000, 171.000000)">
                <path d="M33.73015,17.3766768 L37.281631,17.3766768 L37.281631,19.7872854 L33.73015,19.7872854 L33.73015,17.3766768 Z M33.824229,21.1116776 L37.1391685,21.1116776 L37.1391685,29.7631659 L33.824229,29.7631659 L33.824229,21.1116776 Z M72.9866143,25.2244053 C72.9866143,24.4206455 72.7971124,23.8060845 72.3710691,23.3330873 C71.9443538,22.860761 71.3294805,22.6245978 70.6191843,22.6245978 C70.6191843,22.6245978 70.6191843,22.6245978 70.5714729,22.6245978 C69.8141372,22.6715621 69.2456314,22.860761 68.8189161,23.3330873 C68.3935448,23.8060845 68.2040429,24.4682806 68.2040429,25.3190047 C68.2040429,26.1703997 68.3935448,26.8319249 68.8189161,27.3049222 C69.2456314,27.7772485 69.8141372,27.9664474 70.5714729,27.9664474 C71.3294805,27.9664474 71.9443538,27.7302842 72.3710691,27.257287 C72.7971124,26.7849607 72.9866143,26.0758003 72.9866143,25.2244053 L72.9866143,25.2244053 Z M70.5714729,21.0640424 C70.9975162,20.969443 71.471271,20.9224787 71.9443538,20.9224787 C73.3179067,20.9224787 74.4072067,21.3002056 75.2122538,22.1046363 C75.9695895,22.9083962 76.3963048,23.9952834 76.3963048,25.3666399 C76.3963048,26.8319249 76.017301,27.9664474 75.2122538,28.7702072 C74.4542462,29.573967 73.3656181,30 71.9920652,30 C71.5189824,30 71.0445557,29.9054006 70.5714729,29.8108011 C70.3342595,29.7162017 70.0977181,29.6216022 69.8611767,29.5270028 C69.2456314,29.1962402 68.6771257,28.7702072 68.2040429,28.1556463 L68.2040429,28.4394446 L68.2040429,29.1016407 C68.2040429,29.3378039 68.1563314,29.573967 68.1086199,29.7631659 L64.7943524,29.7631659 C64.8413919,29.4324033 64.8413919,29.1016407 64.8891034,28.7702072 C64.8891034,28.4394446 64.9368148,28.108682 64.9368148,27.8248837 L64.9368148,17.3766768 L68.2040429,17.3766768 L68.2040429,22.3407995 C68.7248372,21.8678023 69.2926709,21.4894045 69.9088882,21.2532413 C70.1454295,21.1586419 70.3342595,21.1116776 70.5714729,21.0640424 L70.5714729,21.0640424 Z M85.01461,28.4870798 C84.6833177,29.0070413 84.1618514,29.3378039 83.4515552,29.6216022 C83.3097648,29.6692374 83.1202629,29.7162017 82.9784724,29.7631659 C82.4099667,29.9054006 81.747382,30 80.9893743,30 C79.9000743,30 79.0473157,29.7631659 78.4324424,29.2908396 C77.8639367,28.8648067 77.5326443,28.2026105 77.5326443,27.3518864 C77.5326443,26.8319249 77.6744347,26.3595986 77.9116481,25.9342366 C78.1481895,25.5558388 78.4801539,25.2244053 78.9055252,24.940607 C79.2368176,24.7044438 79.7582838,24.5622092 80.3738291,24.4682806 C80.9423348,24.3736812 81.7944214,24.326046 82.9784724,24.326046 L83.3574762,24.326046 L84.9668986,24.326046 L84.9668986,24.1844823 L84.9668986,24.0898829 C84.9668986,23.6168856 84.8251081,23.2391588 84.5408552,23.0023247 C84.2572744,22.7661615 83.8782705,22.6245978 83.3574762,22.6245978 C83.2156858,22.6245978 83.0725514,22.6715621 82.9784724,22.6715621 C82.5517571,22.6715621 82.2204648,22.7661615 81.9839234,22.9083962 C81.6996705,23.0499599 81.5101686,23.3330873 81.4631291,23.7114851 L78.1011501,23.7114851 C78.195229,22.7661615 78.7160233,22.0570012 79.5681099,21.5846748 C80.3267896,21.1586419 81.4631291,20.969443 82.9784724,20.9224787 L83.4045157,20.9224787 C85.01461,20.9224787 86.2457005,21.2056061 87.0037082,21.7262386 C87.7610438,22.2462 88.1393757,23.0969241 88.1393757,24.2314466 L88.1393757,28.6286435 C88.1393757,28.8648067 88.1870871,29.1016407 88.1870871,29.2908396 C88.2347986,29.4324033 88.2818381,29.6216022 88.3295496,29.7631659 L85.2518234,29.7631659 C85.1564005,29.6216022 85.109361,29.4324033 85.0616495,29.2432044 C85.0616495,29.1016407 85.01461,28.8648067 85.01461,28.6756078 L85.01461,28.4870798 L85.01461,28.4870798 Z M82.9784724,28.108682 C83.5469782,28.0617177 84.020061,27.8718479 84.3513533,27.5887205 C84.7303572,27.257287 84.9668986,26.7373255 84.9668986,26.1227646 L84.9668986,25.9342366 L84.6833177,25.9342366 C84.020061,25.9342366 83.4515552,25.9342366 82.9784724,25.9812009 C82.4576781,26.028836 82.0786743,26.0758003 81.7944214,26.217364 C81.2736272,26.3595986 80.9893743,26.6903612 80.9893743,27.1626875 C80.9893743,27.4464859 81.1311647,27.682649 81.4154176,27.8718479 C81.6996705,28.0140826 82.1263858,28.108682 82.6471801,28.108682 L82.9784724,28.108682 L82.9784724,28.108682 Z M59.5380262,28.4870798 C59.1590224,29.0070413 58.6382281,29.3378039 57.9279319,29.6216022 C57.7861415,29.6692374 57.643679,29.7162017 57.4541771,29.7631659 C56.8863434,29.9054006 56.2230867,30 55.465751,30 C54.376451,30 53.5236923,29.7631659 52.9558586,29.2908396 C52.3403134,28.8648067 52.0567325,28.2026105 52.0567325,27.3518864 C52.0567325,26.8319249 52.1508114,26.3595986 52.3880248,25.9342366 C52.6238942,25.5558388 52.9558586,25.2244053 53.3819019,24.940607 C53.7609057,24.7044438 54.2339885,24.5622092 54.8495338,24.4682806 C55.4180395,24.3736812 56.2701261,24.326046 57.4541771,24.326046 L57.833181,24.326046 L59.4432752,24.326046 L59.4432752,24.1844823 L59.4432752,24.0898829 C59.4432752,23.6168856 59.3014848,23.2391588 59.0179039,23.0023247 C58.7329791,22.7661615 58.3539752,22.6245978 57.833181,22.6245978 C57.6913905,22.6245978 57.5966396,22.6715621 57.4541771,22.6715621 C57.0281338,22.6715621 56.6968414,22.7661615 56.4596281,22.9083962 C56.1760472,23.0499599 56.0342567,23.3330873 55.9388338,23.7114851 L52.5768548,23.7114851 C52.7193172,22.7661615 53.1924,22.0570012 54.0451586,21.5846748 C54.8495338,21.1586419 55.9865453,20.969443 57.4541771,20.9224787 L57.8808924,20.9224787 C59.4909867,20.9224787 60.7220772,21.2056061 61.4794129,21.7262386 C62.2374205,22.2462 62.6634638,23.0969241 62.6634638,24.2314466 L62.6634638,28.6286435 L62.6634638,29.2908396 C62.7105033,29.4324033 62.7582148,29.6216022 62.8052543,29.7631659 L59.7275281,29.7631659 C59.6327772,29.6216022 59.5850657,29.4324033 59.5850657,29.2432044 C59.5380262,29.1016407 59.5380262,28.8648067 59.5380262,28.6756078 L59.5380262,28.4870798 L59.5380262,28.4870798 Z M57.4541771,28.108682 C58.0703943,28.0617177 58.4957657,27.8718479 58.82773,27.5887205 C59.2537733,27.257287 59.4432752,26.7373255 59.4432752,26.1227646 L59.4432752,25.9342366 L59.1590224,25.9342366 C58.4957657,25.9342366 57.9279319,25.9342366 57.4541771,25.9812009 C56.9804223,26.028836 56.6020905,26.0758003 56.3178376,26.217364 C55.7493319,26.3595986 55.5127905,26.6903612 55.5127905,27.1626875 C55.5127905,27.4464859 55.6552529,27.682649 55.8911223,27.8718479 C56.1760472,28.0140826 56.6020905,28.108682 57.1699242,28.108682 L57.4541771,28.108682 L57.4541771,28.108682 Z M47.462991,25.2244053 C47.462991,24.4206455 47.2734891,23.8060845 46.8467738,23.3330873 C46.4207305,22.860761 45.8528967,22.6245978 45.095561,22.6245978 C44.2898419,22.6715621 43.7213361,22.860761 43.2959648,23.3330873 C42.8692495,23.8060845 42.6797476,24.4682806 42.6797476,25.3190047 C42.6797476,26.1703997 42.8692495,26.8319249 43.2959648,27.3049222 C43.7213361,27.7772485 44.3375534,27.9664474 45.0478496,27.9664474 L45.095561,27.9664474 C45.8528967,27.9664474 46.4207305,27.7302842 46.8467738,27.257287 C47.2734891,26.7849607 47.462991,26.0758003 47.462991,25.2244053 L47.462991,25.2244053 Z M45.095561,21.0640424 C45.5216043,20.969443 45.9476477,20.9224787 46.4207305,20.9224787 C47.7942834,20.9224787 48.8835834,21.3002056 49.6886305,22.1046363 C50.4930057,22.9083962 50.8720095,23.9952834 50.8720095,25.3666399 C50.8720095,26.8319249 50.4930057,27.9664474 49.73567,28.7702072 C48.9306229,29.573967 47.8883623,30 46.5154814,30 C45.9946871,30 45.5216043,29.9054006 45.095561,29.8108011 C44.8106362,29.7162017 44.5740948,29.6216022 44.3845929,29.5270028 C43.7213361,29.1962402 43.1535024,28.7702072 42.7274591,28.1556463 L42.7274591,28.4394446 C42.7274591,28.6756078 42.7274591,28.8648067 42.6797476,29.1016407 C42.6797476,29.3378039 42.6327081,29.573967 42.6327081,29.7631659 L39.2707291,29.7631659 C39.3177686,29.4324033 39.3648081,29.1016407 39.3648081,28.7702072 C39.4125195,28.4394446 39.4125195,28.108682 39.4125195,27.8248837 L39.4125195,17.3766768 L42.7274591,17.3766768 L42.7274591,22.3407995 C43.2005419,21.8678023 43.7690476,21.4894045 44.3845929,21.2532413 C44.6211343,21.1586419 44.8583476,21.1116776 45.095561,21.0640424 L45.095561,21.0640424 Z M19.2870129,17.3766768 L21.7021543,17.3766768 L27.7635276,29.7631659 L23.7853314,29.7631659 L22.6967034,27.257287 L15.9250338,27.257287 L14.7409829,29.7631659 L11,29.7631659 L17.4874167,17.3766768 L19.2870129,17.3766768 L19.2870129,17.3766768 Z M19.2870129,24.8466784 L21.5603639,24.8466784 L19.4288033,20.0710837 L19.2870129,20.3072469 L17.0607013,24.8466784 L19.2870129,24.8466784 L19.2870129,24.8466784 Z M43.751247,8.2271129 L43.751247,7.02354131 C44.2044664,7.27832073 44.4318811,7.30645096 44.4600564,7.36351512 L45.9352333,5.89069713 L45.4526311,4.64493021 C49.7356753,3.14358014 51.4660397,2.57735898 54.9545412,1.9830076 L54.3306601,1.38825436 L54.855324,1.09087774 L54.3306601,1.38825436 L54.9545412,1.9830076 C51.4660397,2.57735898 49.7356753,3.14358014 45.4526311,4.64493021 L45.9352333,5.89069713 L44.4600564,7.36351512 C44.4318811,7.30645096 44.2044664,7.27832073 43.751247,7.02354131 L43.751247,8.2271129 Z M59.4131511,2.65658197 C59.566133,2.95210429 59.6120815,3.31266458 59.5209482,3.76686546 C59.6344543,2.43590416 57.9894208,1.9263453 55.4371434,1.18973538 L54.9545412,1.50157897 L55.8903628,2.26591725 C51.7212272,3.00212531 49.1399695,3.82352776 46.0769146,4.89970964 L46.5023613,5.97589151 L44.9704314,7.50496994 C45.2256188,7.56163224 47.8922073,8.49595743 50.6714969,6.51358059 C50.7000747,6.51358059 50.7286525,6.48545037 50.7286525,6.45691829 C50.6433217,6.31546346 50.4730625,6.17400864 50.2460503,5.97589151 C51.040593,6.03215195 51.5795458,6.76836002 51.4660397,7.50496994 L51.0973461,7.50496994 C51.1540991,7.27832073 51.0973461,6.99500923 50.9834375,6.82542418 C48.8566067,8.41076305 46.3321021,8.63781412 44.2044664,7.9012042 L44.2044664,9.77025644 C43.1837164,10.1383605 41.3116707,11.2712046 41.3402485,12.3755167 C41.3947342,12.895801 41.6618324,13.0982402 41.9101329,13.2393032 C42.0035414,13.2740186 42.0886453,13.3003459 42.1413358,13.3109568 C44.4955812,14.6419181 50.6714969,12.7721529 50.6714969,12.7721529 C48.3462318,13.9616593 46.1336677,14.8959845 42.729692,15.0374393 C38.3053689,14.9526468 37.596157,11.9792825 39.6952149,8.86446333 C41.6803643,5.72071022 44.82875,2.91733279 49.8491814,1.13307307 C51.295378,0.623514217 53.4515915,0.0287609776 55.493494,0.000630756808 C58.4716205,-0.0279013243 61.3366434,0.906825726 61.1663843,3.76686546 C61.0528782,5.94735943 57.9044925,9.03404837 56.2594589,11.2712046 C55.550247,12.2340619 55.4371434,12.8569454 56.6281525,12.8002831 C61.0247029,12.5169716 64.9954041,10.9878931 68.6827425,9.4021524 C66.1864132,11.1016196 53.2809299,17.5579071 53.2245793,13.1402569 C53.2527546,12.6021659 53.5079421,12.0074127 53.9052135,11.3845292 C54.3306601,10.7616458 54.8981907,10.0816982 55.493494,9.43068449 C56.372965,8.41076305 58.5569513,6.00402173 59.2661632,4.53120374 C59.6452032,3.69694017 59.6525907,3.10301521 59.4131511,2.65658196 Z M28.3320334,17.3766768 L31.6469729,17.3766768 L31.6469729,29.7631659 L28.3320334,29.7631659 L28.3320334,17.3766768 Z" id="Fill-4" fill="#1C233F"></path>
                <rect id="Rectangle" x="0" y="0" width="100" height="30"></rect>
            </g>
            <g id="Mcdonalds" transform="translate(110.000000, 62.000000)">
                <path d="M57.1563234,2.08752907 C60.0501144,2.08752907 62.3974383,14.3020595 62.3974383,29.3869423 L66.6201376,29.3869423 C66.6201376,13.146463 62.3601793,0 57.1439038,0 C54.1631749,0 51.5301977,3.93896856 49.7914392,10.1270013 C48.0526807,3.93896856 45.4197035,0 42.4638141,0 C37.2475386,0 33,13.1340372 33,29.3745166 L37.2226992,29.3745166 C37.2226992,14.2896337 39.5451838,2.08752907 42.4389747,2.08752907 C45.3327656,2.08752907 47.6800896,13.3701268 47.6800896,27.2869875 L51.8779494,27.2869875 C51.8779494,13.3701268 54.2376931,2.08752907 57.131484,2.08752907" id="Shape" fill="#1C233F"></path>
                <rect id="Rectangle" x="0" y="0" width="100" height="30"></rect>
            </g>
            <g id="Nikkei" transform="translate(110.000000, 171.000000)">
                <path d="M68.3714704,22.1003895 L65.5705474,14.2064032 L63.8262766,14.2064032 L72.1472435,6 L66.3334863,6 L58.2309124,14.0250065 L60.7376432,6 L55.650905,6 L50.674204,21.991715 L47.9118406,14.2064032 L46.1675697,14.2064032 L54.4885367,6 L48.6747795,6 L40.5722056,14.0250065 L43.0789364,6 L37.9921982,6 L32.2512386,24.4459803 L37.3379769,24.4459803 L40.5358067,14.2064032 L42.5343905,14.2064032 L46.1675697,24.4459803 L50.7277221,24.4459803 L54.9971626,24.4459803 L58.1945136,14.2064032 L60.1926185,14.2064032 L63.8262766,24.4459803 L68.4225883,24.4459803 L81.1214739,24.4459803 L82.1392047,21.1779691 L73.7454401,21.1779691 L75.1626003,16.6028491 L82.9749413,16.6028491 L83.9921932,13.3348378 L76.1803311,13.3348378 L77.4882947,9.12251105 L85.8451816,9.12251105 L86.8624335,6 L73.3824095,6 L68.3714704,22.1003895 Z M24.4029777,24.4459803 L29.4897159,24.4459803 L35.2306754,6 L30.1439372,6 L24.4029777,24.4459803 Z M83.774279,24.4459803 L88.8610173,24.4459803 L94.6019768,6 L89.5147596,6 L83.774279,24.4459803 Z M27.3824145,6 L23.1678117,6 L19.2070429,18.7451482 L16.7726309,6 L10.7409595,6 L5,24.4459803 L9.25148058,24.4459803 L13.3573658,11.0470385 L15.9368943,24.4459803 L21.641455,24.4459803 L27.3824145,6 Z M92.2341363,22.2763999 C92.7561723,22.2763999 93.168054,22.6880124 93.168054,23.2341168 C93.168054,23.7893149 92.7561723,24.1980556 92.2341363,24.1980556 C91.7058742,24.1980556 91.2939925,23.7893149 91.2939925,23.2341168 C91.2939925,22.6880124 91.7058742,22.2763999 92.2341363,22.2763999 L92.2341363,22.0839951 C91.5990723,22.0839951 91.0621894,22.5721865 91.0621894,23.2341168 C91.0621894,23.902269 91.5990723,24.3899819 92.2341363,24.3899819 C92.8629742,24.3899819 93.3998571,23.902269 93.3998571,23.2341168 C93.3998571,22.5721865 92.8629742,22.0839951 92.2341363,22.0839951 L92.2341363,22.2763999 Z M91.9898809,22.7430536 L92.264788,22.7430536 C92.4051151,22.7430536 92.5545419,22.7732066 92.5545419,22.9383302 C92.5545419,23.1427005 92.4017626,23.154666 92.2307838,23.154666 L91.9898809,23.154666 L91.9898809,23.325533 L92.2216841,23.325533 L92.5727413,23.902269 L92.7987973,23.902269 L92.419962,23.3164393 C92.6153663,23.2920297 92.7652721,23.1881693 92.7652721,22.9502956 C92.7652721,22.6880124 92.6096191,22.5721865 92.2949607,22.5721865 L91.7887294,22.5721865 L91.7887294,23.902269 L91.9898809,23.902269 L91.9898809,22.7430536 Z" id="Fill-2-Copy" fill="#1C233F"></path>
                <rect id="Rectangle" x="0" y="0" width="100" height="30"></rect>
            </g>
            <g id="intuit" transform="translate(220.000000, 171.000000)">
                <path d="M67.4563528,26.3801729 L65.039089,26.3801729 C64.5479929,26.3801729 64.1715469,26.1451267 64.1347032,25.7088451 L64.0962577,24.8676485 C62.3579697,26.1129453 60.2809947,26.7840695 58.0905139,26.7840695 C53.8615036,26.7840695 52.1252752,24.3993892 52.1252752,20.767579 L52.1252752,10.8261834 C52.1252752,10.2544549 52.5026365,10.0526084 53.1049501,10.0526084 L55.7496834,10.0526084 C56.3545143,10.0526084 56.6948032,10.2198293 56.6948032,10.8261834 L56.6948032,20.0612183 C56.6948032,21.9106287 57.2232006,23.1870885 59.489886,23.1870885 C60.9226692,23.1870885 62.7367041,22.4821535 63.8697036,21.5745574 L63.8697036,10.8261834 C63.8697036,10.2544549 64.2102213,10.0526084 64.8125349,10.0526084 L67.493883,10.0526084 C68.0989427,10.0526084 68.4394604,10.2198293 68.4394604,10.8261834 L68.4394604,25.4397844 C68.4390027,26.1451267 68.2108467,26.3801729 67.4563528,26.3801729 Z M6,10.7231215 C6,10.3208544 6.22701181,10.0517937 6.67943353,10.0517937 L9.8740755,10.0517937 C10.3269549,10.0517937 10.591268,10.2872473 10.591268,10.7231215 L10.591268,25.5399947 C10.591268,26.1451267 10.2878228,26.3801729 9.64729253,26.3801729 L6.98219222,26.3801729 C6.30458943,26.3801729 6,26.1451267 6,25.5399947 L6,10.7231215 Z M73.1639148,10.7231215 C73.1639148,10.3208544 73.3920708,10.0517937 73.8440349,10.0517937 L77.038448,10.0517937 C77.4922428,10.0517937 77.7565559,10.2872473 77.7565559,10.7231215 L77.7565559,25.5399947 C77.7565559,26.1451267 77.4540261,26.3801729 76.8112074,26.3801729 L74.146107,26.3801729 C73.4682754,26.3801729 73.1639148,26.1451267 73.1639148,25.5399947 L73.1639148,10.7231215 Z M30.8339933,26.3801729 L28.1153439,26.3801729 C27.4359103,26.3801729 27.209585,26.0781161 27.209585,25.5059803 L27.209585,16.3634159 C27.209585,14.5158386 26.6441151,13.2045496 24.339213,13.2045496 C22.8659246,13.2045496 21.0541782,13.911725 19.8836486,14.8178954 L19.8836486,25.5397911 C19.8836486,26.1127417 19.6191066,26.3799693 18.9783474,26.3799693 L16.2205659,26.3799693 C15.6539517,26.3799693 15.3136629,26.1127417 15.3136629,25.5736019 L15.3136629,10.8960455 C15.3136629,10.3579241 15.5798068,10.0558673 16.2585537,10.0558673 L18.7119747,10.0558673 C19.2403722,10.0558673 19.5822629,10.1896848 19.6188777,10.6937917 L19.6561791,11.5910001 C21.3946959,10.3483511 23.5849479,9.64300883 25.7754288,9.64300883 C30.0048968,9.64300883 31.7415829,11.9953041 31.7415829,15.6588883 L31.7415829,25.5059803 C31.741354,26.0781161 31.5154864,26.3801729 30.8339933,26.3801729 Z M44.2929101,5.46554107 C44.2929101,4.10394321 43.0537277,3 41.5236864,3 C39.9945605,3 38.7535474,4.10394321 38.7535474,5.46554107 C38.7535474,6.82713892 39.9947894,7.92986005 41.5236864,7.92986005 C43.0537277,7.92986005 44.2929101,6.82713892 44.2929101,5.46554107 Z M48.2342653,10.0517937 C48.6871447,10.0517937 48.9516867,10.1856112 48.9516867,10.6231149 L48.9516867,12.990075 C48.9516867,13.3931569 48.6500722,13.6286104 48.1960486,13.6286104 L43.8194349,13.6286104 L43.8194349,25.5397911 C43.8194349,26.144923 43.5175916,26.3799693 42.8372427,26.3799693 L40.2094437,26.3799693 C39.5295525,26.3799693 39.2281668,26.144923 39.2281668,25.5397911 L39.2281668,13.6286104 L34.8504089,13.6286104 C34.3975295,13.6286104 34.0954573,13.3931569 34.0954573,12.990075 L34.0954573,10.6231149 C34.0954573,10.1856112 34.3595416,10.0517937 34.8131076,10.0517937 L48.2342653,10.0517937 Z M91.155516,5.46554107 C91.155516,4.10394321 89.9151894,3 88.3853769,3 C86.856251,3 85.6159244,4.10394321 85.6159244,5.46554107 C85.6159244,6.82713892 86.856251,7.92986005 88.3853769,7.92986005 C89.9151894,7.92986005 91.155516,6.82713892 91.155516,5.46554107 Z M95.0966423,10.0517937 C95.5486064,10.0517937 95.8126907,10.1856112 95.8126907,10.6231149 L95.8126907,12.990075 C95.8126907,13.3931569 95.5117627,13.6286104 95.0572814,13.6286104 L90.6806677,13.6286104 L90.6806677,25.5397911 C90.6806677,26.144923 90.3797397,26.3799693 89.6993908,26.3799693 L87.0709053,26.3799693 C86.3907853,26.3799693 86.0896285,26.144923 86.0896285,25.5397911 L86.0887131,13.6286104 L81.7132436,13.6286104 C81.25922,13.6286104 80.956919,13.3931569 80.956919,12.990075 L80.956919,10.6231149 C80.956919,10.1856112 81.2221475,10.0517937 81.6738827,10.0517937 L95.0966423,10.0517937 Z" id="Shape-Copy-2" fill="#1C233F"></path>
                <rect id="Rectangle" x="0" y="0" width="100" height="30"></rect>
            </g>
        </g>
    </g>
</svg>