<?xml version="1.0" encoding="UTF-8" standalone="no"?>
<svg width="1000px" height="584px" viewBox="0 0 1000 584" version="1.1" xmlns="http://www.w3.org/2000/svg" xmlns:xlink="http://www.w3.org/1999/xlink">
    <!-- Generator: Sketch 39.1 (31720) - http://www.bohemiancoding.com/sketch -->
    <title>home-what-is-rmp</title>
    <desc>Created with Sketch.</desc>
    <defs>
        <linearGradient x1="50%" y1="0%" x2="50%" y2="100%" id="linearGradient-1">
            <stop stop-color="#FCC397" offset="0%"></stop>
            <stop stop-color="#FC9F95" offset="16.0654496%"></stop>
            <stop stop-color="#F77C88" offset="30.0482302%"></stop>
            <stop stop-color="#F25192" offset="42.703683%"></stop>
            <stop stop-color="#D34CA3" offset="56.3317124%"></stop>
            <stop stop-color="#9A50A5" offset="69.1147162%"></stop>
            <stop stop-color="#59569E" offset="83.848852%"></stop>
            <stop stop-color="#39477F" offset="100%"></stop>
        </linearGradient>
    </defs>
    <g id="Diagrams-&amp;-Graphics-" stroke="none" stroke-width="1" fill="none" fill-rule="evenodd">
        <g id="home-what-is-rmp">
            <g transform="translate(278.000000, 9.000000)">
                <g id="ROS" transform="translate(225.747368, 137.529962) scale(1, -1) translate(-225.747368, -137.529962) translate(127.747368, 0.529962)">
                    <rect id="Combined-Shape" x="0" y="1.13686838e-13" width="194.736842" height="272.970133" rx="10"></rect>
                    <polygon id="Rectangle-2" points="45.4041118 69.2692177 148.196258 69.2692177 148.196258 214.580116 40.7395559 214.580116"></polygon>
                    <path d="M0.313404605,133.097312 L0.0202316343,263.480478 C0.0090580112,268.449737 4.02735699,272.498632 9.00016675,272.523963 L96.5894737,272.970133 L143.326316,223.835509 L49.8526316,223.835509 L49.8526316,169.241483 L0.313404605,133.097312 Z" id="Path-2" fill="#F25192"></path>
                    <path d="M102.39963,0 C102.39963,0 64.6328536,17.1611692 51.2865337,51.4987403 C37.9402138,85.8363114 49.8526316,169.241483 49.8526316,169.241483 C49.8526316,169.241483 17.3300581,162.727976 0,132.908427 L0,10.003342 C0,4.47864878 4.482358,0 10.0049519,0 L102.39963,0 Z" id="Path" fill="#39477F"></path>
                    <path d="M65.579153,20.0919423 C49.4966277,36.8722938 51.4607319,51.6495441 51.4607319,51.6495441 L148.527919,52.9169054 L194.736842,131.805579 L194.736843,10.0014735 C194.736843,4.47781219 190.251726,0.00902620698 184.744771,0.0201088443 L102.393544,0.185839042 C102.393544,0.185839042 81.6616783,3.31159079 65.579153,20.0919423 Z" id="Path-3" fill="#59569E"></path>
                    <path d="M148.608553,52.2542826 L142.547368,223.835509 C142.547368,223.835509 95.8105263,234.568475 95.8105263,272.970133 L185.348621,273.758021 C190.871367,273.806618 195.329294,269.375517 195.305614,263.845751 L194.736842,131.025664 C183.627054,78.3546504 148.608553,52.2542826 148.608553,52.2542826 Z" id="Path-4" fill="#D34CA3"></path>
                    <path d="M162.006728,46.0152202 L162.006706,45.7483929 L161.980346,45.7483929 C160.760946,35.9302021 132.299839,28.076928 97.3684211,28.076928 C62.437003,28.076928 33.9758959,35.9302021 32.7564968,45.7483889 L32.7157895,45.7483929 L32.7158396,46.3818484 C32.7158062,46.3895387 32.7157895,46.3972301 32.7157895,46.4049226 C32.7157895,46.4128954 32.7158074,46.4208669 32.7158433,46.4288373 L32.7301333,226.955168 C33.4621749,236.897393 62.1214241,244.893205 97.3684211,244.893205 C132.615418,244.893205 161.274667,236.897393 162.021053,226.955168 L162.006789,46.7937865 C162.016283,46.6644899 162.021053,46.5348642 162.021053,46.4049226 C162.021053,46.2747002 162.016262,46.1447949 162.006728,46.0152202 L162.006728,46.0152202 Z" id="Combined-Shape" fill="#FFFFFF"></path>
                    <path d="M91.5158673,149.425493 C87.502316,147.004243 83.2129501,144.995747 78.9244771,143.373684 C77.4234806,142.805951 76.0284432,142.326591 74.7741247,141.932806 C74.3328925,141.794284 73.9400087,141.676168 73.5998271,141.578119 C73.3920897,141.518243 73.245826,141.477785 73.1653946,141.456413 C74.6202176,141.872039 74.0943201,144.622308 72.5670871,144.404743 L122.245968,151.481842 C122.468188,151.513498 122.672517,151.523418 122.882189,151.500044 C123.073797,151.478684 123.26239,151.431464 123.459901,151.335093 C123.828651,151.15517 124.14199,150.840619 124.290117,150.383085 C124.435838,149.932982 124.370896,149.504347 124.187794,149.146793 C124.090238,148.95629 123.971551,148.808037 123.835578,148.67744 C123.684986,148.532801 123.518101,148.416324 123.323963,148.3057 L73.4691375,119.897048 C73.6663103,120.074396 73.7547373,120.184521 73.8350075,120.340109 C74.0009285,120.661713 74.0632201,121.057635 73.9297284,121.481429 C73.7926627,121.91657 73.5000512,122.214312 73.1627446,122.380652 C72.9969678,122.462404 72.8522822,122.499 72.7163199,122.514343 C72.6226088,122.524918 122.245968,129.597871 122.245968,129.597871 C122.450783,129.627049 122.634853,129.638825 122.822262,129.624893 C123.004491,129.611347 123.182498,129.575912 123.377385,129.493499 C123.808487,129.311197 124.179949,128.954711 124.313478,128.391455 C124.43762,127.867793 124.299248,127.42724 124.048239,127.079865 C123.93608,126.924646 123.815647,126.809221 123.682082,126.707013 C123.537843,126.596638 123.380992,126.505838 123.198469,126.41748 C123.110091,126.375971 122.969293,126.309051 122.762387,126.209103 C122.414215,126.040915 122.009385,125.841996 121.552641,125.613506 C120.244188,124.95894 118.78476,124.199883 117.212358,123.345661 C112.720484,120.905409 108.22931,118.19517 104.044557,115.291964 C96.1429555,109.810164 90.2944197,104.302679 87.3761821,99.0687503 L84.6556144,100.589404 C87.8571492,106.331433 94.0111601,112.12658 102.269998,117.856215 C106.556588,120.830071 111.141851,123.597089 115.726415,126.087696 C117.330767,126.959275 118.821181,127.734448 120.160022,128.404216 C120.629831,128.639243 121.047554,128.844496 121.408478,129.018844 C121.62703,129.124418 121.779326,129.196803 121.86065,129.234863 C121.702395,129.118563 121.61538,129.035167 121.523846,128.908491 C121.293319,128.589461 121.162738,128.173715 121.281917,127.670988 C121.410484,127.128666 121.764247,126.789166 122.165117,126.619647 C122.329561,126.550108 122.464528,126.523241 122.591565,126.513797 C122.665851,126.508275 73.0059821,119.432219 73.0059821,119.432219 C72.7828586,119.400434 72.5778673,119.390556 72.3673531,119.414313 C72.1744703,119.436079 71.9846624,119.484089 71.78605,119.582033 C71.4161524,119.764445 71.1031758,120.082909 70.9582185,120.543103 C70.8168375,120.991944 70.883736,121.417147 71.0667355,121.771855 C71.1642032,121.960776 71.2824086,122.107987 71.4176694,122.23773 C71.5679555,122.381885 71.7345065,122.498111 71.9279865,122.608361 L121.782812,151.017013 C121.584714,150.838521 121.495711,150.727347 121.415212,150.570152 C121.249038,150.245655 121.188524,149.846242 121.326157,149.421118 C121.4662,148.988553 121.758981,148.694641 122.094958,148.530708 C122.259472,148.450438 122.402809,148.414549 122.537403,148.399545 C122.630183,148.389201 73.0059821,141.31619 73.0059821,141.31619 C72.8556333,141.294771 72.7285334,141.281186 72.6128759,141.276293 C72.5035086,141.271667 72.4016765,141.273523 72.281042,141.289543 C72.1289948,141.310883 72.1289948,141.310883 71.8384752,141.413715 C71.3862373,141.629171 71.3862373,141.629171 70.9335552,142.552367 C71.0070536,143.557121 71.0070536,143.557121 71.3249013,143.914399 C71.5428516,144.117057 71.5428516,144.117057 71.6701849,144.196067 C71.7722909,144.258327 71.8634663,144.30084 71.9638685,144.340568 C72.0711671,144.383024 72.1925431,144.422342 72.3380438,144.463938 C72.4259267,144.487573 72.5513079,144.522255 72.7378937,144.576034 C73.0549177,144.667408 73.4243922,144.778487 73.8419085,144.909564 C75.0411571,145.28606 76.3800945,145.746142 77.8233785,146.292047 C81.9471356,147.851808 86.0699999,149.78234 89.9078634,152.097603 C99.47584,157.869663 105.628481,164.998538 106.869909,173.525208 L109.953112,173.075198 C108.551769,163.450167 101.804478,155.63229 91.5158673,149.425493 Z" id="Path-12-Copy-4" fill="url(#linearGradient-1)"></path>
                </g>
                <g id="Group-2" transform="translate(236.021053, 429.732981)">
                    <g id="watch-copy" transform="translate(180.722476, 96.640603)">
                        <path d="M20.4065297,6.50059692 L20.4065297,1.00333428 C20.4065297,0.438028503 19.9543695,0 19.3966016,0 L6.38006756,0 C5.8201487,0 5.3701394,0.449208059 5.3701394,1.00333428 L5.3701394,6.50059692 L0.994681644,6.50059692 C0.447402361,6.50059692 0,6.94983072 0,7.50398869 L0,31.4995928 C0,32.0516645 0.445334141,32.5029846 0.994681644,32.5029846 L5.3701394,32.5029846 L5.3701394,38.0002472 C5.3701394,38.565553 5.82229964,39.0035815 6.38006756,39.0035815 L19.3966016,39.0035815 C19.9565204,39.0035815 20.4065297,38.5543734 20.4065297,38.0002472 L20.4065297,32.5029846 L24.7819875,32.5029846 C25.3292668,32.5029846 25.7766691,32.0537508 25.7766691,31.4995928 L25.7766691,7.50398869 C25.7766691,6.95191705 25.331335,6.50059692 24.7819875,6.50059692 L20.4065297,6.50059692 Z M3.22208364,10.7448032 C3.22208364,10.1958831 3.66219344,9.75089538 4.22077345,9.75089538 L21.5558957,9.75089538 C22.1074568,9.75089538 22.5545855,10.1948591 22.5545855,10.7448032 L22.5545855,28.2587783 C22.5545855,28.8076984 22.1144757,29.2526861 21.5558957,29.2526861 L4.22077345,29.2526861 C3.6692123,29.2526861 3.22208364,28.8087224 3.22208364,28.2587783 L3.22208364,10.7448032 Z" id="Combined-Shape" fill="#1C233F"></path>
                        <path d="M11.1770694,15.639665 C10.626665,15.9944989 10.0317893,16.2863067 9.43663817,16.5170905 C9.08198807,16.6546145 8.81110296,16.7397732 8.66774221,16.7769496 C8.49504435,16.8313875 8.39084272,16.870254 8.30592461,16.9099509 C8.23587477,16.9426972 8.17413276,16.9773908 8.11069909,17.0255129 C8.03572784,17.0842051 8.03572784,17.0842051 7.9273421,17.2165557 C7.79667293,17.4331935 7.79667293,17.4331935 7.80982292,17.8564731 C7.9921592,18.2325262 7.9921592,18.2325262 8.20001938,18.361448 C8.35185611,18.4290858 8.35185611,18.4290858 8.44311005,18.4480341 C8.52012516,18.4628067 8.59005307,18.4666605 8.66639467,18.4652402 C8.75950382,18.4635079 8.86922347,18.4526927 9.00110611,18.4337915 L16.1383204,17.4108989 C15.6913803,17.4749535 15.3753906,16.445328 15.7300626,16.2420042 L8.41452926,20.4358002 C8.27016634,20.5185596 8.1513814,20.6023397 8.05392116,20.6975537 C7.81971352,20.9263636 7.67837917,21.2119873 7.80929552,21.6035568 C7.94158198,21.9992241 8.23116704,22.1417774 8.55833378,22.1793479 C8.69352764,22.194873 8.83790786,22.1880357 9.00110611,22.1646464 L16.1383204,21.1417538 C15.679788,21.2074698 15.3606518,20.1160568 15.7403798,19.9201862 C15.7144644,19.9315418 15.6187141,19.9778064 15.4873368,20.043945 C15.2717376,20.152483 15.0323568,20.2785853 14.7750035,20.4211691 C14.0396476,20.828585 13.3040079,21.2882853 12.6138133,21.7929475 C11.3504094,22.7167334 10.3785684,23.6868166 9.81079643,24.7112859 L11.1730209,25.4681216 C11.6110425,24.6777697 12.4354503,23.8548531 13.5325968,23.0526326 C14.1653643,22.5899605 14.8471841,22.1638922 15.5292876,21.7859801 C15.7680451,21.6536991 15.9893387,21.5371249 16.1871652,21.4375341 C16.3038433,21.3787955 16.3852754,21.3394491 16.4254916,21.3207299 C16.594242,21.2344066 16.7092794,21.1633324 16.8048332,21.0846646 C17.0733472,20.8636015 17.2410786,20.6043979 17.115351,20.1744224 C16.9849816,19.7285728 16.6868321,19.6033105 16.3320409,19.5762325 C16.2081169,19.5667745 16.0734783,19.5753187 15.9175727,19.5976628 L8.78035838,20.6205554 C9.21419337,20.558379 9.55547255,21.5791413 9.18861613,21.7894501 L16.5041495,17.5956541 C16.6468782,17.5138316 16.7648114,17.4308327 16.8617389,17.336883 C17.0937265,17.1120227 17.2351841,16.8348723 17.116122,16.4469187 C16.9913229,16.0402713 16.6963172,15.8912161 16.3642351,15.8522718 C16.2280785,15.8363043 16.08269,15.8431436 15.9175727,15.8668079 L8.78035838,16.8897006 C8.70656577,16.9002764 8.6550716,16.9053522 8.63745112,16.90568 C8.65978578,16.9052645 8.68805343,16.9068224 8.73623356,16.916064 C8.80757517,16.930488 8.80757517,16.930488 8.94593634,16.9920347 C9.14354617,17.1140921 9.14354617,17.1140921 9.32209614,17.4817548 C9.33469867,17.8958912 9.33469867,17.8958912 9.20997337,18.1019009 C9.11078397,18.2228909 9.11078397,18.2228909 9.05152767,18.2687785 C9.01136764,18.2992447 8.9859756,18.3135129 8.96499675,18.3233199 C8.98097913,18.3158486 9.03017535,18.2974987 9.10253247,18.2740911 C9.25695175,18.2354526 9.58450533,18.1324789 9.99927639,17.9716417 C10.6864939,17.7051569 11.3739868,17.3679172 12.0204598,16.9511498 C13.6820732,15.8799431 14.7983241,14.4698761 15.057941,12.6759327 L13.5161475,12.4522521 C13.3307125,13.7336014 12.4938106,14.79079 11.1770694,15.639665 Z" id="Path-12-Copy-7" fill="url(#linearGradient-1)"></path>
                    </g>
                    <g id="Device-5" transform="translate(92.671335, 0.718745)">
                        <path d="M0,2.00338589 C0,0.896946414 0.899338372,0 2.00906516,0 L61.609948,0 C62.7195241,0 63.6190132,0.893422585 63.6190132,2.00338589 L63.6190132,132.342284 C63.6190132,133.448723 62.7196748,134.34567 61.609948,134.34567 L2.00906516,134.34567 C0.899489112,134.34567 0,133.452247 0,132.342284 L0,2.00338589 Z M4.38751815,114.843879 L4.38751815,19.5017908 L59.2314951,19.5017908 L59.2314951,114.843879 L4.38751815,114.843879 Z M31.8095066,129.08127 C34.3271692,129.08127 36.368138,127.065321 36.368138,124.578523 C36.368138,122.091724 34.3271692,120.075776 31.8095066,120.075776 C29.291844,120.075776 27.2508752,122.091724 27.2508752,124.578523 C27.2508752,127.065321 29.291844,129.08127 31.8095066,129.08127 Z M23.0344703,9.75089538 C23.6402601,9.75089538 24.1313498,10.3612351 24.1313498,11.1141274 C24.1313498,11.8670196 23.6402601,12.4773593 23.0344703,12.4773593 C22.4286805,12.4773593 21.9375908,11.8670196 21.9375908,11.1141274 C21.9375908,10.3612351 22.4286805,9.75089538 23.0344703,9.75089538 Z M28.518868,9.75089538 L39.4876634,9.75089538 C40.0934532,9.75089538 40.5845429,10.3612351 40.5845429,11.1141274 C40.5845429,11.8670196 40.0934532,12.4773593 39.4876634,12.4773593 L28.518868,12.4773593 C27.9130781,12.4773593 27.4219885,11.8670196 27.4219885,11.1141274 C27.4219885,10.3612351 27.9130781,9.75089538 28.518868,9.75089538 Z" id="Combined-Shape" fill="#1C233F"></path>
                        <g id="Group-4" transform="translate(4.387518, 19.501791)"></g>
                    </g>
                    <g id="Device-5-Copy" transform="translate(0.000000, 0.718745)">
                        <path d="M0,11.9961196 C0,5.37084571 5.36503403,0 11.9923947,0 L50.3012224,0 C56.9244391,0 62.2936171,5.37023103 62.2936171,11.9961196 L62.2936171,122.34955 C62.2936171,128.974824 56.9285831,134.34567 50.3012224,134.34567 L11.9923947,134.34567 C5.369178,134.34567 0,128.975439 0,122.34955 L0,11.9961196 Z M4.29611152,114.843879 L4.29611152,19.5017908 L57.9975056,19.5017908 L57.9975056,114.843879 L4.29611152,114.843879 Z M23.2830566,124.331805 C23.2830566,123.547542 23.9256552,122.911772 24.7128831,122.911772 L35.9556831,122.911772 C36.7453545,122.911772 37.3855096,123.542075 37.3855096,124.331805 C37.3855096,125.116068 36.7429111,125.751838 35.9556831,125.751838 L24.7128831,125.751838 C23.9232117,125.751838 23.2830566,125.121536 23.2830566,124.331805 Z M22.5545855,9.75089538 C23.1477547,9.75089538 23.6286134,10.2359648 23.6286134,10.8343282 C23.6286134,11.4326916 23.1477547,11.917761 22.5545855,11.917761 C21.9614163,11.917761 21.4805576,11.4326916 21.4805576,10.8343282 C21.4805576,10.2359648 21.9614163,9.75089538 22.5545855,9.75089538 Z M27.9247249,9.75089538 L38.6650037,9.75089538 C39.2581729,9.75089538 39.7390316,10.2359648 39.7390316,10.8343282 C39.7390316,11.4326916 39.2581729,11.917761 38.6650037,11.917761 L27.9247249,11.917761 C27.3315557,11.917761 26.850697,11.4326916 26.850697,10.8343282 C26.850697,10.2359648 27.3315557,9.75089538 27.9247249,9.75089538 Z" id="Combined-Shape" fill="#1C233F"></path>
                        <path d="M26.0106907,55.7959509 C23.7978795,57.1501917 21.4162482,58.2788493 19.0337822,59.1885582 C18.2000242,59.5069161 17.4271151,59.7746711 16.7358977,59.9931467 C16.3275086,60.1222276 16.0418019,60.2050165 15.8995316,60.2429675 C15.713657,60.2971267 15.5902518,60.3384106 15.4804315,60.3835512 C15.3760558,60.4264537 15.2813002,60.4725849 15.1753017,60.5406924 C15.042618,60.6275793 15.042618,60.6275793 14.8207553,60.8489507 C14.5086965,61.24026 14.5086965,61.24026 14.4831974,62.2259386 C14.9316243,63.0881594 14.9316243,63.0881594 15.3665317,63.300461 C15.6536,63.4044912 15.6536,63.4044912 15.8075896,63.4274697 C15.930709,63.4447225 16.0351009,63.4471287 16.1467733,63.4427371 C16.2653221,63.4380751 16.3949529,63.4242976 16.5477892,63.4023934 L45.4604785,59.2586791 C45.4456493,59.2608044 45.4065162,59.2627298 45.3139266,59.2524488 C45.1795708,59.23753 45.0364096,59.2017436 44.8721191,59.121694 C44.5372621,58.958537 44.2451918,58.6661488 44.1043815,58.2357486 C43.965772,57.8120756 44.0245507,57.4129426 44.1891942,57.0881942 C44.269173,56.9304414 44.3579181,56.8187556 44.4516677,56.7281161 C44.5157695,56.6661409 44.5450927,56.645551 44.5548848,56.6399374 L15.4637137,73.3171134 C15.2697658,73.4282984 15.1028845,73.5454569 14.9525522,73.6905436 C14.5259225,74.1022871 14.2578139,74.6257259 14.4964246,75.3830183 C14.6411175,75.8422387 14.953443,76.1608125 15.3229211,76.3435209 C15.5220244,76.4419783 15.7124855,76.4902695 15.9060413,76.5121338 C16.1175273,76.5360234 16.3235282,76.525994 16.5477892,76.4938533 L45.4604785,72.350139 C45.2446414,72.3365381 45.111799,72.3103841 44.9501233,72.2430511 C44.5585968,72.0799921 44.2102343,71.7552787 44.0704601,71.2298501 C43.9371215,70.7286139 44.0586867,70.3029866 44.2857835,69.9757304 C44.3776304,69.8433751 44.4663283,69.7559198 44.5562891,69.6854653 C44.5891675,69.6519507 44.4971123,69.6959462 44.3660661,69.7596215 C44.1510639,69.8640909 43.9026343,69.9869206 43.6235406,70.1274604 C42.8296886,70.5272108 41.9465853,70.9898976 40.9962839,71.5103812 C38.2805202,72.9978149 35.5640781,74.6535075 33.0217091,76.4387944 C28.1325228,79.8720491 24.4696631,83.3663342 22.5175052,86.8887445 L25.2419542,88.402416 C26.9154332,85.382845 30.274562,82.1783123 34.8107955,78.9929059 C37.2496812,77.2802864 39.8702975,75.6830004 42.4915924,74.2473076 C43.4092614,73.7446969 44.2607021,73.2985991 45.0234923,72.9144902 C45.2892233,72.7806792 45.5244646,72.6643702 45.7264201,72.5662401 C45.8455485,72.5083557 45.9258358,72.4699844 45.9644892,72.4518 C46.173142,72.3493528 46.3308664,72.2563272 46.4759486,72.1427036 C46.6112248,72.0367596 46.7327283,71.9169582 46.8445687,71.7557914 C47.0915223,71.3999207 47.2202357,70.9492659 47.0812822,70.4269224 C46.935893,69.8803866 46.5691725,69.5385613 46.1467548,69.3626371 C45.9539753,69.2823503 45.7774338,69.2475928 45.5969054,69.2343551 C45.4091108,69.2205845 45.2243275,69.2325275 45.018983,69.2619571 L16.1062938,73.4056714 C16.1216194,73.4034749 16.161456,73.4015354 16.2553513,73.4121419 C16.391606,73.4275334 16.5366383,73.4643061 16.7026741,73.5464115 C17.0393333,73.7128909 17.3311379,74.0105332 17.4678555,74.4444416 C17.6007678,74.866273 17.5395426,75.2606001 17.3752473,75.5813602 C17.2955789,75.7369 17.2076228,75.8471422 17.1148962,75.9366333 C17.0512178,75.9980899 17.0218935,76.0186769 17.0118874,76.0244131 L46.1030585,59.3472371 C46.2979144,59.2355315 46.4652545,59.1180298 46.6160041,58.9722812 C46.751972,58.8408241 46.8704877,58.6916721 46.9675239,58.5002746 C47.1490941,58.1421395 47.2122173,57.7135048 47.0653606,57.2646233 C46.9163077,56.8090288 46.6034478,56.4958285 46.235517,56.3165564 C46.0379333,56.220285 45.8491553,56.1730955 45.6573659,56.1517994 C45.4470575,56.128447 45.2419856,56.1385369 45.018983,56.1704972 L16.1062938,60.3142115 C17.5741797,60.1038367 18.2046294,62.8158274 16.7397953,63.2467818 C16.8882255,63.2077092 17.2190764,63.1118388 17.6738679,62.9680913 C18.4212847,62.7318526 19.2514254,62.4442712 20.1440285,62.1034441 C22.694023,61.129767 25.2448522,59.9209264 27.6356707,58.457745 C33.8023439,54.6837402 37.8749025,49.8849782 38.7385422,43.9172594 L35.6549553,43.4698982 C34.9483494,48.3525194 31.4633997,52.4588922 26.0106907,55.7959509 Z" id="Path-12-Copy-4" fill="url(#linearGradient-1)"></path>
                        <path d="M120.07335,55.6388815 C117.816339,57.0197151 115.38735,58.1705464 112.957524,59.0982176 C112.107188,59.4228632 111.318884,59.6959306 110.613849,59.9187691 C110.197164,60.0504693 109.905528,60.1349796 109.760089,60.1737798 C109.573747,60.2280418 109.449727,60.2695788 109.339188,60.3152005 C109.233558,60.3587964 109.137684,60.405773 109.030353,60.475461 C108.895659,60.564607 108.895659,60.564607 108.671454,60.7924211 C108.359138,61.1967303 108.359138,61.1967303 108.351079,62.1824238 C108.802696,63.0245129 108.802696,63.0245129 109.230018,63.2319415 C109.513954,63.3347414 109.513954,63.3347414 109.667305,63.3578885 C109.790305,63.3752878 109.894759,63.3778397 110.006247,63.3735821 C110.124798,63.3690547 110.253965,63.3553988 110.405506,63.3336802 L139.887349,59.1083959 C139.869632,59.1109351 139.827408,59.1129297 139.731142,59.1017092 C139.59333,59.0856462 139.446804,59.0477223 139.279921,58.9638767 C138.945337,58.795775 138.656557,58.4974133 138.522016,58.0662444 C138.391633,57.6483989 138.451571,57.2573806 138.613411,56.9385333 C138.69264,56.7824409 138.78066,56.6713084 138.873641,56.5810494 C138.938633,56.5179594 138.970036,56.4958482 138.982546,56.4886765 L109.32064,73.4930391 C109.12463,73.6054063 108.956132,73.7242287 108.804421,73.8724158 C108.376968,74.2899408 108.110828,74.8283123 108.366602,75.5872388 C108.6243,76.3518763 109.168933,76.6186012 109.765641,76.6865334 C109.976801,76.7105729 110.182609,76.7007466 110.405506,76.6688013 L139.887349,72.4435169 C139.67845,72.4305784 139.548962,72.4057065 139.391152,72.3417646 C139.007483,72.1863082 138.662557,71.8773434 138.51053,71.3660527 C138.36036,70.8610074 138.475552,70.4212986 138.703698,70.0836808 C138.797062,69.9455161 138.888419,69.8541831 138.981715,69.7805169 C139.022952,69.7413262 138.929227,69.7861219 138.795753,69.8509784 C138.576698,69.9574191 138.323566,70.0825729 138.039174,70.2257756 C137.230178,70.6331375 136.330198,71.104622 135.36172,71.6349769 C132.594018,73.1506168 129.825637,74.8374576 127.234794,76.6559305 C122.250589,80.1542676 118.517849,83.713315 116.531307,87.2977668 L119.255756,88.8114383 C120.963392,85.7302352 124.392318,82.4608646 129.023318,79.2104368 C131.510801,77.4645104 134.183484,75.835981 136.856846,74.3720033 C137.79274,73.859492 138.661105,73.40457 139.439086,73.0128251 C139.710136,72.8763406 139.950101,72.7576972 140.156129,72.657586 C140.277705,72.5985113 140.359681,72.5593311 140.39921,72.5407332 C140.60747,72.4385414 140.765363,72.345181 140.911103,72.2301051 C141.0486,72.1215379 141.171788,71.9983817 141.284311,71.8318664 C141.531491,71.4660809 141.653138,71.0017329 141.496791,70.4759123 C141.338584,69.9438359 140.974854,69.6180286 140.559973,69.4499254 C140.370717,69.3732422 140.197302,69.3399328 140.020136,69.3273491 C139.833763,69.3141113 139.649914,69.3260895 139.445854,69.355335 L109.964011,73.5806194 C109.98163,73.5780942 110.02329,73.5761052 110.11765,73.5868476 C110.251934,73.6021352 110.394968,73.6383442 110.558401,73.7183826 C110.88828,73.8799354 111.176451,74.1672996 111.318843,74.5898023 C111.460427,75.0099073 111.406406,75.4098548 111.244911,75.736541 C111.165237,75.8977115 111.075494,76.0123813 110.980197,76.1054642 C110.913816,76.1703034 110.881698,76.1929527 110.868814,76.2003388 L140.53072,59.1959762 C140.724616,59.084821 140.891867,58.9670566 141.042488,58.8208442 C141.465093,58.4106087 141.730577,57.887569 141.496038,57.1359317 C141.251497,56.3522407 140.696769,56.073534 140.091427,56.0029769 C139.878362,55.9781425 139.671085,55.9879341 139.445854,56.0202139 L109.964011,60.2454983 C109.945365,60.25398 110.008579,60.2555244 110.103178,60.2689062 C110.236943,60.2886856 110.236943,60.2886856 110.507735,60.3866555 C110.925138,60.5885315 110.925138,60.5885315 111.3733,61.4236399 C111.365024,62.4016472 111.365024,62.4016472 111.058976,62.7968764 C110.844287,63.0149222 110.844287,63.0149222 110.725619,63.0929403 C110.641972,63.1472511 110.58283,63.1762294 110.526619,63.1994291 C110.751996,63.1376593 111.088746,63.0400759 111.551802,62.8937191 C112.313,62.6531293 113.158499,62.3602497 114.067643,62.0131519 C116.664904,61.0215565 119.263001,59.7906039 121.697938,58.3009151 C127.97663,54.4596263 132.121898,49.5772923 133.000203,43.5082371 L129.916616,43.0608759 C129.1954,48.0444553 125.637914,52.2344944 120.07335,55.6388815 Z" id="Path-12-Copy-5" fill="url(#linearGradient-1)"></path>
                    </g>
                </g>
                <g id="Group-2-Copy" transform="translate(0.000000, 429.732981)">
                    <g id="watch-copy" transform="translate(0.006686, 96.640603)">
                        <path d="M20.4065297,6.50059692 L20.4065297,1.00333428 C20.4065297,0.438028503 19.9543695,0 19.3966016,0 L6.38006756,0 C5.8201487,0 5.3701394,0.449208059 5.3701394,1.00333428 L5.3701394,6.50059692 L0.994681644,6.50059692 C0.447402361,6.50059692 0,6.94983072 0,7.50398869 L0,31.4995928 C0,32.0516645 0.445334141,32.5029846 0.994681644,32.5029846 L5.3701394,32.5029846 L5.3701394,38.0002472 C5.3701394,38.565553 5.82229964,39.0035815 6.38006756,39.0035815 L19.3966016,39.0035815 C19.9565204,39.0035815 20.4065297,38.5543734 20.4065297,38.0002472 L20.4065297,32.5029846 L24.7819875,32.5029846 C25.3292668,32.5029846 25.7766691,32.0537508 25.7766691,31.4995928 L25.7766691,7.50398869 C25.7766691,6.95191705 25.331335,6.50059692 24.7819875,6.50059692 L20.4065297,6.50059692 Z M3.22208364,10.7448032 C3.22208364,10.1958831 3.66219344,9.75089538 4.22077345,9.75089538 L21.5558957,9.75089538 C22.1074568,9.75089538 22.5545855,10.1948591 22.5545855,10.7448032 L22.5545855,28.2587783 C22.5545855,28.8076984 22.1144757,29.2526861 21.5558957,29.2526861 L4.22077345,29.2526861 C3.6692123,29.2526861 3.22208364,28.8087224 3.22208364,28.2587783 L3.22208364,10.7448032 Z" id="Combined-Shape" fill="#1C233F"></path>
                        <path d="M11.1770694,15.639665 C10.626665,15.9944989 10.0317893,16.2863067 9.43663817,16.5170905 C9.08198807,16.6546145 8.81110296,16.7397732 8.66774221,16.7769496 C8.49504435,16.8313875 8.39084272,16.870254 8.30592461,16.9099509 C8.23587477,16.9426972 8.17413276,16.9773908 8.11069909,17.0255129 C8.03572784,17.0842051 8.03572784,17.0842051 7.9273421,17.2165557 C7.79667293,17.4331935 7.79667293,17.4331935 7.80982292,17.8564731 C7.9921592,18.2325262 7.9921592,18.2325262 8.20001938,18.361448 C8.35185611,18.4290858 8.35185611,18.4290858 8.44311005,18.4480341 C8.52012516,18.4628067 8.59005307,18.4666605 8.66639467,18.4652402 C8.75950382,18.4635079 8.86922347,18.4526927 9.00110611,18.4337915 L16.1383204,17.4108989 C15.6913803,17.4749535 15.3753906,16.445328 15.7300626,16.2420042 L8.41452926,20.4358002 C8.27016634,20.5185596 8.1513814,20.6023397 8.05392116,20.6975537 C7.81971352,20.9263636 7.67837917,21.2119873 7.80929552,21.6035568 C7.94158198,21.9992241 8.23116704,22.1417774 8.55833378,22.1793479 C8.69352764,22.194873 8.83790786,22.1880357 9.00110611,22.1646464 L16.1383204,21.1417538 C15.679788,21.2074698 15.3606518,20.1160568 15.7403798,19.9201862 C15.7144644,19.9315418 15.6187141,19.9778064 15.4873368,20.043945 C15.2717376,20.152483 15.0323568,20.2785853 14.7750035,20.4211691 C14.0396476,20.828585 13.3040079,21.2882853 12.6138133,21.7929475 C11.3504094,22.7167334 10.3785684,23.6868166 9.81079643,24.7112859 L11.1730209,25.4681216 C11.6110425,24.6777697 12.4354503,23.8548531 13.5325968,23.0526326 C14.1653643,22.5899605 14.8471841,22.1638922 15.5292876,21.7859801 C15.7680451,21.6536991 15.9893387,21.5371249 16.1871652,21.4375341 C16.3038433,21.3787955 16.3852754,21.3394491 16.4254916,21.3207299 C16.594242,21.2344066 16.7092794,21.1633324 16.8048332,21.0846646 C17.0733472,20.8636015 17.2410786,20.6043979 17.115351,20.1744224 C16.9849816,19.7285728 16.6868321,19.6033105 16.3320409,19.5762325 C16.2081169,19.5667745 16.0734783,19.5753187 15.9175727,19.5976628 L8.78035838,20.6205554 C9.21419337,20.558379 9.55547255,21.5791413 9.18861613,21.7894501 L16.5041495,17.5956541 C16.6468782,17.5138316 16.7648114,17.4308327 16.8617389,17.336883 C17.0937265,17.1120227 17.2351841,16.8348723 17.116122,16.4469187 C16.9913229,16.0402713 16.6963172,15.8912161 16.3642351,15.8522718 C16.2280785,15.8363043 16.08269,15.8431436 15.9175727,15.8668079 L8.78035838,16.8897006 C8.70656577,16.9002764 8.6550716,16.9053522 8.63745112,16.90568 C8.65978578,16.9052645 8.68805343,16.9068224 8.73623356,16.916064 C8.80757517,16.930488 8.80757517,16.930488 8.94593634,16.9920347 C9.14354617,17.1140921 9.14354617,17.1140921 9.32209614,17.4817548 C9.33469867,17.8958912 9.33469867,17.8958912 9.20997337,18.1019009 C9.11078397,18.2228909 9.11078397,18.2228909 9.05152767,18.2687785 C9.01136764,18.2992447 8.9859756,18.3135129 8.96499675,18.3233199 C8.98097913,18.3158486 9.03017535,18.2974987 9.10253247,18.2740911 C9.25695175,18.2354526 9.58450533,18.1324789 9.99927639,17.9716417 C10.6864939,17.7051569 11.3739868,17.3679172 12.0204598,16.9511498 C13.6820732,15.8799431 14.7983241,14.4698761 15.057941,12.6759327 L13.5161475,12.4522521 C13.3307125,13.7336014 12.4938106,14.79079 11.1770694,15.639665 Z" id="Path-12-Copy-7" fill="url(#linearGradient-1)"></path>
                    </g>
                    <g id="Device-5" transform="translate(145.639756, 0.718745)">
                        <path d="M0,10.0016948 C0,4.4779113 4.47356547,0 9.99294241,0 L53.6260708,0 C59.1450205,0 63.6190132,4.46992085 63.6190132,10.0016948 L63.6190132,124.343975 C63.6190132,129.867758 59.1454477,134.34567 53.6260708,134.34567 L9.99294241,134.34567 C4.47399271,134.34567 0,129.875749 0,124.343975 L0,10.0016948 Z M4.38751815,114.843879 L4.38751815,19.5017908 L59.2314951,19.5017908 L59.2314951,114.843879 L4.38751815,114.843879 Z M31.8095066,129.08127 C34.3271692,129.08127 36.368138,127.065321 36.368138,124.578523 C36.368138,122.091724 34.3271692,120.075776 31.8095066,120.075776 C29.291844,120.075776 27.2508752,122.091724 27.2508752,124.578523 C27.2508752,127.065321 29.291844,129.08127 31.8095066,129.08127 Z M23.0344703,9.75089538 C23.6402601,9.75089538 24.1313498,10.3612351 24.1313498,11.1141274 C24.1313498,11.8670196 23.6402601,12.4773593 23.0344703,12.4773593 C22.4286805,12.4773593 21.9375908,11.8670196 21.9375908,11.1141274 C21.9375908,10.3612351 22.4286805,9.75089538 23.0344703,9.75089538 Z M28.518868,9.75089538 L39.4876634,9.75089538 C40.0934532,9.75089538 40.5845429,10.3612351 40.5845429,11.1141274 C40.5845429,11.8670196 40.0934532,12.4773593 39.4876634,12.4773593 L28.518868,12.4773593 C27.9130781,12.4773593 27.4219885,11.8670196 27.4219885,11.1141274 C27.4219885,10.3612351 27.9130781,9.75089538 28.518868,9.75089538 Z" id="Combined-Shape" fill="#1C233F"></path>
                        <g id="Group-4" transform="translate(4.387518, 19.501791)"></g>
                    </g>
                    <g id="Device-5-Copy" transform="translate(52.968421, 0.718745)">
                        <path d="M0,11.9961196 C0,5.37084571 5.36503403,0 11.9923947,0 L50.3012224,0 C56.9244391,0 62.2936171,5.37023103 62.2936171,11.9961196 L62.2936171,122.34955 C62.2936171,128.974824 56.9285831,134.34567 50.3012224,134.34567 L11.9923947,134.34567 C5.369178,134.34567 0,128.975439 0,122.34955 L0,11.9961196 Z M4.29611152,114.843879 L4.29611152,19.5017908 L57.9975056,19.5017908 L57.9975056,114.843879 L4.29611152,114.843879 Z M23.2830566,124.331805 C23.2830566,123.547542 23.9256552,122.911772 24.7128831,122.911772 L35.9556831,122.911772 C36.7453545,122.911772 37.3855096,123.542075 37.3855096,124.331805 C37.3855096,125.116068 36.7429111,125.751838 35.9556831,125.751838 L24.7128831,125.751838 C23.9232117,125.751838 23.2830566,125.121536 23.2830566,124.331805 Z M22.5545855,9.75089538 C23.1477547,9.75089538 23.6286134,10.2359648 23.6286134,10.8343282 C23.6286134,11.4326916 23.1477547,11.917761 22.5545855,11.917761 C21.9614163,11.917761 21.4805576,11.4326916 21.4805576,10.8343282 C21.4805576,10.2359648 21.9614163,9.75089538 22.5545855,9.75089538 Z M27.9247249,9.75089538 L38.6650037,9.75089538 C39.2581729,9.75089538 39.7390316,10.2359648 39.7390316,10.8343282 C39.7390316,11.4326916 39.2581729,11.917761 38.6650037,11.917761 L27.9247249,11.917761 C27.3315557,11.917761 26.850697,11.4326916 26.850697,10.8343282 C26.850697,10.2359648 27.3315557,9.75089538 27.9247249,9.75089538 Z" id="Combined-Shape" fill="#1C233F"></path>
                        <path d="M26.0106907,55.7959509 C23.7978795,57.1501917 21.4162482,58.2788493 19.0337822,59.1885582 C18.2000242,59.5069161 17.4271151,59.7746711 16.7358977,59.9931467 C16.3275086,60.1222276 16.0418019,60.2050165 15.8995316,60.2429675 C15.713657,60.2971267 15.5902518,60.3384106 15.4804315,60.3835512 C15.3760558,60.4264537 15.2813002,60.4725849 15.1753017,60.5406924 C15.042618,60.6275793 15.042618,60.6275793 14.8207553,60.8489507 C14.5086965,61.24026 14.5086965,61.24026 14.4831974,62.2259386 C14.9316243,63.0881594 14.9316243,63.0881594 15.3665317,63.300461 C15.6536,63.4044912 15.6536,63.4044912 15.8075896,63.4274697 C15.930709,63.4447225 16.0351009,63.4471287 16.1467733,63.4427371 C16.2653221,63.4380751 16.3949529,63.4242976 16.5477892,63.4023934 L45.4604785,59.2586791 C45.4456493,59.2608044 45.4065162,59.2627298 45.3139266,59.2524488 C45.1795708,59.23753 45.0364096,59.2017436 44.8721191,59.121694 C44.5372621,58.958537 44.2451918,58.6661488 44.1043815,58.2357486 C43.965772,57.8120756 44.0245507,57.4129426 44.1891942,57.0881942 C44.269173,56.9304414 44.3579181,56.8187556 44.4516677,56.7281161 C44.5157695,56.6661409 44.5450927,56.645551 44.5548848,56.6399374 L15.4637137,73.3171134 C15.2697658,73.4282984 15.1028845,73.5454569 14.9525522,73.6905436 C14.5259225,74.1022871 14.2578139,74.6257259 14.4964246,75.3830183 C14.6411175,75.8422387 14.953443,76.1608125 15.3229211,76.3435209 C15.5220244,76.4419783 15.7124855,76.4902695 15.9060413,76.5121338 C16.1175273,76.5360234 16.3235282,76.525994 16.5477892,76.4938533 L45.4604785,72.350139 C45.2446414,72.3365381 45.111799,72.3103841 44.9501233,72.2430511 C44.5585968,72.0799921 44.2102343,71.7552787 44.0704601,71.2298501 C43.9371215,70.7286139 44.0586867,70.3029866 44.2857835,69.9757304 C44.3776304,69.8433751 44.4663283,69.7559198 44.5562891,69.6854653 C44.5891675,69.6519507 44.4971123,69.6959462 44.3660661,69.7596215 C44.1510639,69.8640909 43.9026343,69.9869206 43.6235406,70.1274604 C42.8296886,70.5272108 41.9465853,70.9898976 40.9962839,71.5103812 C38.2805202,72.9978149 35.5640781,74.6535075 33.0217091,76.4387944 C28.1325228,79.8720491 24.4696631,83.3663342 22.5175052,86.8887445 L25.2419542,88.402416 C26.9154332,85.382845 30.274562,82.1783123 34.8107955,78.9929059 C37.2496812,77.2802864 39.8702975,75.6830004 42.4915924,74.2473076 C43.4092614,73.7446969 44.2607021,73.2985991 45.0234923,72.9144902 C45.2892233,72.7806792 45.5244646,72.6643702 45.7264201,72.5662401 C45.8455485,72.5083557 45.9258358,72.4699844 45.9644892,72.4518 C46.173142,72.3493528 46.3308664,72.2563272 46.4759486,72.1427036 C46.6112248,72.0367596 46.7327283,71.9169582 46.8445687,71.7557914 C47.0915223,71.3999207 47.2202357,70.9492659 47.0812822,70.4269224 C46.935893,69.8803866 46.5691725,69.5385613 46.1467548,69.3626371 C45.9539753,69.2823503 45.7774338,69.2475928 45.5969054,69.2343551 C45.4091108,69.2205845 45.2243275,69.2325275 45.018983,69.2619571 L16.1062938,73.4056714 C16.1216194,73.4034749 16.161456,73.4015354 16.2553513,73.4121419 C16.391606,73.4275334 16.5366383,73.4643061 16.7026741,73.5464115 C17.0393333,73.7128909 17.3311379,74.0105332 17.4678555,74.4444416 C17.6007678,74.866273 17.5395426,75.2606001 17.3752473,75.5813602 C17.2955789,75.7369 17.2076228,75.8471422 17.1148962,75.9366333 C17.0512178,75.9980899 17.0218935,76.0186769 17.0118874,76.0244131 L46.1030585,59.3472371 C46.2979144,59.2355315 46.4652545,59.1180298 46.6160041,58.9722812 C46.751972,58.8408241 46.8704877,58.6916721 46.9675239,58.5002746 C47.1490941,58.1421395 47.2122173,57.7135048 47.0653606,57.2646233 C46.9163077,56.8090288 46.6034478,56.4958285 46.235517,56.3165564 C46.0379333,56.220285 45.8491553,56.1730955 45.6573659,56.1517994 C45.4470575,56.128447 45.2419856,56.1385369 45.018983,56.1704972 L16.1062938,60.3142115 C17.5741797,60.1038367 18.2046294,62.8158274 16.7397953,63.2467818 C16.8882255,63.2077092 17.2190764,63.1118388 17.6738679,62.9680913 C18.4212847,62.7318526 19.2514254,62.4442712 20.1440285,62.1034441 C22.694023,61.129767 25.2448522,59.9209264 27.6356707,58.457745 C33.8023439,54.6837402 37.8749025,49.8849782 38.7385422,43.9172594 L35.6549553,43.4698982 C34.9483494,48.3525194 31.4633997,52.4588922 26.0106907,55.7959509 Z" id="Path-12-Copy-4" fill="url(#linearGradient-1)"></path>
                        <path d="M120.07335,55.6388815 C117.816339,57.0197151 115.38735,58.1705464 112.957524,59.0982176 C112.107188,59.4228632 111.318884,59.6959306 110.613849,59.9187691 C110.197164,60.0504693 109.905528,60.1349796 109.760089,60.1737798 C109.573747,60.2280418 109.449727,60.2695788 109.339188,60.3152005 C109.233558,60.3587964 109.137684,60.405773 109.030353,60.475461 C108.895659,60.564607 108.895659,60.564607 108.671454,60.7924211 C108.359138,61.1967303 108.359138,61.1967303 108.351079,62.1824238 C108.802696,63.0245129 108.802696,63.0245129 109.230018,63.2319415 C109.513954,63.3347414 109.513954,63.3347414 109.667305,63.3578885 C109.790305,63.3752878 109.894759,63.3778397 110.006247,63.3735821 C110.124798,63.3690547 110.253965,63.3553988 110.405506,63.3336802 L139.887349,59.1083959 C139.869632,59.1109351 139.827408,59.1129297 139.731142,59.1017092 C139.59333,59.0856462 139.446804,59.0477223 139.279921,58.9638767 C138.945337,58.795775 138.656557,58.4974133 138.522016,58.0662444 C138.391633,57.6483989 138.451571,57.2573806 138.613411,56.9385333 C138.69264,56.7824409 138.78066,56.6713084 138.873641,56.5810494 C138.938633,56.5179594 138.970036,56.4958482 138.982546,56.4886765 L109.32064,73.4930391 C109.12463,73.6054063 108.956132,73.7242287 108.804421,73.8724158 C108.376968,74.2899408 108.110828,74.8283123 108.366602,75.5872388 C108.6243,76.3518763 109.168933,76.6186012 109.765641,76.6865334 C109.976801,76.7105729 110.182609,76.7007466 110.405506,76.6688013 L139.887349,72.4435169 C139.67845,72.4305784 139.548962,72.4057065 139.391152,72.3417646 C139.007483,72.1863082 138.662557,71.8773434 138.51053,71.3660527 C138.36036,70.8610074 138.475552,70.4212986 138.703698,70.0836808 C138.797062,69.9455161 138.888419,69.8541831 138.981715,69.7805169 C139.022952,69.7413262 138.929227,69.7861219 138.795753,69.8509784 C138.576698,69.9574191 138.323566,70.0825729 138.039174,70.2257756 C137.230178,70.6331375 136.330198,71.104622 135.36172,71.6349769 C132.594018,73.1506168 129.825637,74.8374576 127.234794,76.6559305 C122.250589,80.1542676 118.517849,83.713315 116.531307,87.2977668 L119.255756,88.8114383 C120.963392,85.7302352 124.392318,82.4608646 129.023318,79.2104368 C131.510801,77.4645104 134.183484,75.835981 136.856846,74.3720033 C137.79274,73.859492 138.661105,73.40457 139.439086,73.0128251 C139.710136,72.8763406 139.950101,72.7576972 140.156129,72.657586 C140.277705,72.5985113 140.359681,72.5593311 140.39921,72.5407332 C140.60747,72.4385414 140.765363,72.345181 140.911103,72.2301051 C141.0486,72.1215379 141.171788,71.9983817 141.284311,71.8318664 C141.531491,71.4660809 141.653138,71.0017329 141.496791,70.4759123 C141.338584,69.9438359 140.974854,69.6180286 140.559973,69.4499254 C140.370717,69.3732422 140.197302,69.3399328 140.020136,69.3273491 C139.833763,69.3141113 139.649914,69.3260895 139.445854,69.355335 L109.964011,73.5806194 C109.98163,73.5780942 110.02329,73.5761052 110.11765,73.5868476 C110.251934,73.6021352 110.394968,73.6383442 110.558401,73.7183826 C110.88828,73.8799354 111.176451,74.1672996 111.318843,74.5898023 C111.460427,75.0099073 111.406406,75.4098548 111.244911,75.736541 C111.165237,75.8977115 111.075494,76.0123813 110.980197,76.1054642 C110.913816,76.1703034 110.881698,76.1929527 110.868814,76.2003388 L140.53072,59.1959762 C140.724616,59.084821 140.891867,58.9670566 141.042488,58.8208442 C141.465093,58.4106087 141.730577,57.887569 141.496038,57.1359317 C141.251497,56.3522407 140.696769,56.073534 140.091427,56.0029769 C139.878362,55.9781425 139.671085,55.9879341 139.445854,56.0202139 L109.964011,60.2454983 C109.945365,60.25398 110.008579,60.2555244 110.103178,60.2689062 C110.236943,60.2886856 110.236943,60.2886856 110.507735,60.3866555 C110.925138,60.5885315 110.925138,60.5885315 111.3733,61.4236399 C111.365024,62.4016472 111.365024,62.4016472 111.058976,62.7968764 C110.844287,63.0149222 110.844287,63.0149222 110.725619,63.0929403 C110.641972,63.1472511 110.58283,63.1762294 110.526619,63.1994291 C110.751996,63.1376593 111.088746,63.0400759 111.551802,62.8937191 C112.313,62.6531293 113.158499,62.3602497 114.067643,62.0131519 C116.664904,61.0215565 119.263001,59.7906039 121.697938,58.3009151 C127.97663,54.4596263 132.121898,49.5772923 133.000203,43.5082371 L129.916616,43.0608759 C129.1954,48.0444553 125.637914,52.2344944 120.07335,55.6388815 Z" id="Path-12-Copy-5" fill="url(#linearGradient-1)"></path>
                    </g>
                </g>
                <g id="Group-3-Copy" transform="translate(232.203014, 350.404107) scale(-1, 1) rotate(-90.000000) translate(-232.203014, -350.404107) translate(190.703014, 322.404107)" fill="#1C233F">
                    <g id="Group" transform="translate(0.436893, 0.000000)">
                        <path d="M63.1894623,13.6485067 L0.1156932,13.6485067 L0.1156932,5.84936 L62.578482,5.84936 L59.103961,0.150838411 L81.7661801,9.02821711 L60.4451402,19.7381336 L63.1894623,13.6485067 Z" id="Combined-Shape"></path>
                    </g>
                    <g id="Group-Copy" transform="translate(41.226367, 45.876075) scale(-1, 1) translate(-41.226367, -45.876075) translate(0.226367, 35.876075)">
                        <path d="M63.1894623,13.6485067 L0.1156932,13.6485067 L0.1156932,5.84936 L62.578482,5.84936 L59.103961,0.150838411 L81.7661801,9.02821711 L60.4451402,19.7381336 L63.1894623,13.6485067 Z" id="Combined-Shape"></path>
                    </g>
                </g>
            </g>
        </g>
    </g>
</svg>