<?xml version="1.0" encoding="UTF-8" standalone="no"?>
<svg width="1000px" height="680px" viewBox="0 0 1000 680" version="1.1" xmlns="http://www.w3.org/2000/svg" xmlns:xlink="http://www.w3.org/1999/xlink">
    <!-- Generator: Sketch 40.1 (33804) - http://www.bohemiancoding.com/sketch -->
    <title>home-world-class-features-jp</title>
    <desc>Created with Sketch.</desc>
    <defs>
        <circle id="path-1" cx="89" cy="89" r="89"></circle>
        <mask id="mask-2" maskContentUnits="userSpaceOnUse" maskUnits="objectBoundingBox" x="0" y="0" width="178" height="178" fill="white">
            <use xlink:href="#path-1"></use>
        </mask>
    </defs>
    <g id="Diagrams-&amp;-Graphics-" stroke="none" stroke-width="1" fill="none" fill-rule="evenodd">
        <g id="home-world-class-features-jp">
            <g id="world-class-features" transform="translate(665.000000, 459.000000)" fill="#FFFFFF">
                <g id="push-notifications" transform="translate(0.940697, 0.045936)">
                    <g id="Group-4" transform="translate(0.955753, 0.512367)">
                        <path d="M7.43572437,14.3233216 L10.7741035,17.6614841 C12.9286603,15.530742 15.8882163,14.204947 19.1555661,14.204947 C22.4229159,14.204947 25.3824719,15.530742 27.5370287,17.6614841 L30.8754079,14.3233216 C27.868499,11.3166078 23.7251206,9.46996466 19.1555661,9.46996466 C14.5860117,9.46996466 10.4426333,11.3166078 7.43572437,14.3233216 L7.43572437,14.3233216 Z M19.1555661,1.05137728e-15 C11.9579259,1.05137728e-15 5.44690274,2.91201413 0.735289596,7.62332155 L4.07366876,10.9614841 C7.93292978,7.12614841 13.2601306,4.73498233 19.1555661,4.73498233 C25.0510017,4.73498233 30.3782025,7.12614841 34.213787,10.985159 L37.5521662,7.64699647 C32.8642295,2.91201413 26.3532063,0 19.1555661,0 L19.1555661,1.05137728e-15 Z" id="Shape"></path>
                    </g>
                </g>
            </g>
            <g id="two-way-data-sync-icon" transform="translate(34.000000, 12.000000)">
                <circle id="Oval-3" stroke="#EBEBF2" stroke-width="2" cx="89" cy="89" r="89"></circle>
                <g id="rmp-two-way-data-sync" transform="translate(22.000000, 65.000000)" fill="#39477F">
                    <g id="two-way-data-sync-icon">
                        <path d="M23.1159808,0.0232002579 L4.62319617,7.10542736e-15 C2.08043828,7.10542736e-15 0,2.08802321 0,4.64005157 L0,41.7604642 C0,44.3124925 2.08043828,46.4005157 4.62319617,46.4005157 L23.1159808,46.4005157 C25.6587387,46.4005157 27.739177,44.3124925 27.739177,41.7604642 L27.739177,4.64005157 C27.739177,2.08802321 25.6587387,0.0232002579 23.1159808,0.0232002579 L23.1159808,0.0232002579 Z M24.2717799,37.2520452 L3.46739713,37.2520452 L3.46739713,4.64005157 L24.2717799,4.64005157 L24.2717799,37.2520452 Z M13.9181807,44.2368037 C15.1993138,44.2368037 16.2378774,43.1944094 16.2378774,41.9085509 C16.2378774,40.6226924 15.1993138,39.5802981 13.9181807,39.5802981 C12.6370475,39.5802981 11.5984839,40.6226924 11.5984839,41.9085509 C11.5984839,43.1944094 12.6370475,44.2368037 13.9181807,44.2368037 Z" id="Shape"></path>
                        <path d="M133.224556,8.33171829 L133.224556,8.14015671 C133.225952,8.10734556 133.226652,8.07447841 133.226652,8.0415568 C133.226652,4.27298368 124.049858,1.21795154 112.729708,1.21795154 C101.409558,1.21795154 92.2327636,4.27298368 92.2327636,8.0415568 C92.2327636,8.04208605 92.2327638,8.04261528 92.2327641,8.0431445 L92.2329083,40.7986708 C92.3790975,44.5654934 101.553522,47.6184673 112.869858,47.6184673 C124.190008,47.6184673 133.366802,44.5634351 133.224556,40.794862 C133.226736,40.7371112 133.226727,40.679528 133.224556,40.6221208 L133.224556,40.6221103 L133.224556,8.34741694 C132.777844,12.2044637 123.909731,15.1446832 112.729708,15.1446832 C101.255962,15.1446832 92.2430712,12.0479431 92.2430712,8.0415568 C92.2430712,11.5723167 100.090993,15.1446831 112.729708,15.1446831 C125.022225,15.1446831 132.807285,11.7653434 133.224556,8.33171783 L133.224556,8.33171829 Z" id="Server-Copy-5" stroke="#FFFFFF"></path>
                    </g>
                    <g id="two-way-data-sync-transfer" transform="translate(36.234300, 3.306037)">
                        <path d="M5.62650753,29.1842938 L12.1371555,22.649909 C12.7773941,22.0073363 12.7794786,20.9676121 12.1317955,20.3175676 C11.4885966,19.6720238 10.4365076,19.6813152 9.8079265,20.312188 L0.480290303,29.6738312 C0.161054101,29.9942313 0.000477430464,30.4133722 0,30.8337118 L0.00606058954,30.843649 C0.00742603898,31.2659963 0.166871699,31.6862318 0.480290303,32.000793 L9.8079265,41.3624362 C10.4481651,42.005009 11.4841124,42.0071011 12.1317955,41.3570566 C12.7749943,40.7115128 12.7657366,39.655588 12.1371555,39.0247152 L5.62650753,32.4903305 L30.7422187,32.4903305 C31.6458336,32.4903305 32.3783582,31.7566138 32.3783582,30.8373121 C32.3783582,29.9243753 31.6455256,29.1842938 30.7422187,29.1842938 L5.62650753,29.1842938 L5.62650753,29.1842938 Z" id="two-way-data-sync-icon"></path>
                        <path d="M43.221987,9.34807329 L36.711339,2.81368856 C36.0711005,2.1711158 36.069016,1.1313916 36.7166991,0.481347155 C37.3598979,-0.164196674 38.411987,-0.154905231 39.0405681,0.475967554 L48.3682043,9.83761076 C48.6874405,10.1580108 48.8480171,10.5771518 48.8484946,10.9974913 L48.842434,11.0074285 C48.8410685,11.4297758 48.6816229,11.8500113 48.3682043,12.1645726 L39.0405681,21.5262158 C38.4003295,22.1687885 37.3643822,22.1708806 36.7166991,21.5208362 C36.0735003,20.8752923 36.082758,19.8193676 36.711339,19.1884948 L43.221987,12.65411 L18.1062759,12.65411 C17.202661,12.65411 16.4701364,11.9203933 16.4701364,11.0010917 C16.4701364,10.0881548 17.202969,9.34807329 18.1062759,9.34807329 L43.221987,9.34807329 L43.221987,9.34807329 Z" id="Combined-Shape" opacity="0.504780784"></path>
                    </g>
                </g>
            </g>
            <g id="real-time-collaboartion" transform="translate(399.000000, 12.000000)">
                <circle id="Oval-3" stroke="#EBEBF2" stroke-width="2" cx="89" cy="89" r="89"></circle>
                <g id="real-time-collaboration-icon" transform="translate(40.000000, 33.000000)" fill="#39477F">
                    <path d="M62.1806428,51.3102338 C66.0358018,51.3102338 69.1366906,48.1792708 69.1366906,44.3214771 C69.1366906,40.4636833 66.0358018,37.3327203 62.1806428,37.3327203 C58.3254837,37.3327203 55.196659,40.4636833 55.196659,44.3214771 C55.196659,48.1792708 58.3254837,51.3102338 62.1806428,51.3102338 L62.1806428,51.3102338 Z M41.2286914,48.5147311 C45.8660567,48.5147311 49.581536,44.7687575 49.581536,40.128223 C49.581536,35.4876885 45.8660567,31.7417149 41.2286914,31.7417149 C36.5913262,31.7417149 32.8479109,35.4876885 32.8479109,40.128223 C32.8479109,44.7687575 36.5913262,48.5147311 41.2286914,48.5147311 L41.2286914,48.5147311 Z M62.1806428,56.9012393 C57.0683666,56.9012393 46.8158784,59.4731018 46.8158784,64.5888717 L46.8158784,70.8787528 L77.5454071,70.8787528 L77.5454071,64.5888717 C77.5454071,59.4731018 67.2929189,56.9012393 62.1806428,56.9012393 L62.1806428,56.9012393 Z M41.2286914,54.1057366 C34.7196185,54.1057366 21.6735369,57.3764747 21.6735369,63.889996 L21.6735369,70.8787528 L41.2286914,70.8787528 L41.2286914,64.5888717 C41.2286914,62.2126944 42.1505773,58.0473954 47.849508,54.8884773 C45.4190817,54.3852868 43.0724631,54.1057366 41.2286914,54.1057366 L41.2286914,54.1057366 Z" id="Combined-Shape"></path>
                    <path d="M70.2119205,11.135516 C85.1419657,15.4017408 96.5029981,28.1256385 98.7815733,43.7937649 C98.9623824,45.0370588 98.9014504,44.8075974 98.9014504,44.8075974 C99.0598341,46.5703578 97.7345507,48.000588 95.9655799,48.0005834 C94.1842761,48.0005788 92.6231952,46.5765202 92.4512617,44.8198595 C92.4512617,44.8198595 92.5395092,45.2300189 92.3451864,44.059046 C90.0466618,30.2083312 79.2763383,19.2199355 65.5378049,16.5974478 C63.9934379,16.3026504 64.00005,16.3671811 64.00005,16.3671811 C63.4327747,16.3041596 62.9007212,16.1007565 62.4394844,15.7952675 C62.1459954,15.6450039 61.8699131,15.4463633 61.6227515,15.1992017 C60.3730737,13.9495239 60.3804501,11.9160196 61.6018844,10.6945853 L70.6945853,1.60188439 C71.9327385,0.363731225 73.9408114,0.364361208 75.1992017,1.62275147 C76.4488794,2.8724292 76.441503,4.90593351 75.2200687,6.12736779 L70.2119205,11.135516 L70.2119205,11.135516 Z M28.9880795,100.864484 C14.0580343,96.5982592 2.69700191,83.8743615 0.418426651,68.2062351 C0.237617619,66.9629412 0.298549617,67.1924026 0.298549617,67.1924026 C0.140165856,65.4296422 1.46544935,63.999412 3.23442014,63.9994166 C5.01572387,63.9994212 6.57680477,65.4234798 6.74873829,67.1801405 C6.74873829,67.1801405 6.66049082,66.7699811 6.85481364,67.940954 C9.1533382,81.7916688 19.9236617,92.7800645 33.6621951,95.4025522 C35.2065621,95.6973496 35.19995,95.6328189 35.19995,95.6328189 C35.7672253,95.6958404 36.2992788,95.8992435 36.7605156,96.2047325 C37.0540046,96.3549961 37.3300869,96.5536367 37.5772485,96.8007983 C38.8269263,98.0504761 38.8195499,100.08398 37.5981156,101.305415 L28.5054147,110.398116 C27.2672615,111.636269 25.2591886,111.635639 24.0007983,110.377249 C22.7511206,109.127571 22.758497,107.094066 23.9799313,105.872632 L28.9880795,100.864484 L28.9880795,100.864484 Z" id="Combined-Shape" opacity="0.497726213"></path>
                </g>
            </g>
            <g id="offline-first-applications" transform="translate(772.000000, 12.000000)">
                <g id="Group-5">
                    <ellipse id="Oval-3" stroke="#EBEBF2" stroke-width="2" cx="89" cy="89" rx="89" ry="89"></ellipse>
                    <path d="M135.832102,109.035845 L135.832102,99.3078671 L96.6270062,74.9879225 L96.6270062,48.2359834 C96.6270062,44.1988726 93.3435795,40.94 89.2760508,40.94 C85.2085222,40.94 81.9250954,44.1988726 81.9250954,48.2359834 L81.9250954,74.9879225 L42.72,99.3078671 L42.72,109.035845 L81.9250954,96.8758726 L81.9250954,123.627812 L72.1238216,130.923795 L72.1238216,138.219779 L89.2760508,133.35579 L106.42828,138.219779 L106.42828,130.923795 L96.6270062,123.627812 L96.6270062,96.8758726 L135.832102,109.035845 L135.832102,109.035845 Z" id="Shape" fill="#39477F" transform="translate(89.276051, 89.579889) rotate(90.000000) translate(-89.276051, -89.579889) "></path>
                </g>
            </g>
            <g id="api-bridge" transform="translate(159.000000, 430.000000)">
                <circle id="Oval-3" stroke="#EBEBF2" stroke-width="2" cx="89" cy="89" r="89"></circle>
                <g transform="translate(33.000000, 38.000000)" fill="#39477F">
                    <path d="M38.456019,6.51437606 L38.456019,6.33895505 C38.457302,6.3089085 38.4579456,6.27881066 38.4579456,6.24866296 C38.4579456,2.7976217 30.02373,3.83693077e-13 19.6195978,3.83693077e-13 C9.2154656,3.83693077e-13 0.78125,2.7976217 0.78125,6.24866296 C0.78125,6.24914761 0.781250166,6.24963226 0.781250499,6.25011689 L0.781383022,36.2457331 C0.915742683,39.6951712 9.34778014,42.4909081 19.748407,42.4909081 C30.1525392,42.4909081 38.5867548,39.6932864 38.456019,36.2422451 C38.4580224,36.1893603 38.4580145,36.136629 38.456019,36.0840588 L38.456019,36.0840491 L38.456019,6.52875198 C38.0454548,10.0608123 29.8949428,12.7532952 19.6195978,12.7532952 C9.07429843,12.7532952 0.790723571,9.91747979 0.790723571,6.24866296 C0.790723571,9.48192863 8.00359778,12.7532951 19.6195976,12.7532951 C30.9174142,12.7532951 38.0725137,9.65869135 38.456019,6.51437564 L38.456019,6.51437606 Z" id="Server-Copy-4" stroke="#FFFFFF" opacity="0.75"></path>
                    <path d="M75.862269,77.7643761 L75.862269,77.588955 C75.863552,77.5589085 75.8641956,77.5288107 75.8641956,77.498663 C75.8641956,74.0476217 67.42998,71.25 57.0258478,71.25 C46.6217156,71.25 38.1875,74.0476217 38.1875,77.498663 C38.1875,77.4991476 38.1875002,77.4996323 38.1875005,77.5001169 L38.187633,107.495733 C38.3219927,110.945171 46.7540301,113.740908 57.154657,113.740908 C67.5587892,113.740908 75.9930048,110.943286 75.862269,107.492245 C75.8642724,107.43936 75.8642645,107.386629 75.862269,107.334059 L75.862269,107.334049 L75.862269,77.778752 C75.4517048,81.3108123 67.3011928,84.0032952 57.0258478,84.0032952 C46.4805484,84.0032952 38.1969736,81.1674798 38.1969736,77.498663 C38.1969736,80.7319286 45.4098478,84.0032951 57.0258476,84.0032951 C68.3236642,84.0032951 75.4787637,80.9086913 75.862269,77.7643756 L75.862269,77.7643761 Z" id="Server-Copy-3" stroke="#FFFFFF"></path>
                    <path d="M111.487269,6.51437606 L111.487269,6.33895505 C111.488552,6.3089085 111.489196,6.27881066 111.489196,6.24866296 C111.489196,2.7976217 103.05498,3.83693077e-13 92.6508478,3.83693077e-13 C82.2467156,3.83693077e-13 73.8125,2.7976217 73.8125,6.24866296 C73.8125,6.24914761 73.8125002,6.24963226 73.8125005,6.25011689 L73.812633,36.2457331 C73.9469927,39.6951712 82.3790301,42.4909081 92.779657,42.4909081 C103.183789,42.4909081 111.618005,39.6932864 111.487269,36.2422451 C111.489272,36.1893603 111.489264,36.136629 111.487269,36.0840588 L111.487269,36.0840491 L111.487269,6.52875198 C111.076705,10.0608123 102.926193,12.7532952 92.6508478,12.7532952 C82.1055484,12.7532952 73.8219736,9.91747979 73.8219736,6.24866296 C73.8219736,9.48192863 81.0348478,12.7532951 92.6508476,12.7532951 C103.948664,12.7532951 111.103764,9.65869135 111.487269,6.51437564 L111.487269,6.51437606 Z" id="Server-Copy-2" stroke="#FFFFFF" opacity="0.502098881"></path>
                    <path d="M55.3828971,57.4322037 L48.3416125,50.3909191 C47.6290815,49.6783881 46.5239629,49.7010947 45.8283416,50.396716 C45.1530641,51.0719935 45.1301248,52.2175672 45.8225446,52.909987 L55.9104101,62.9978525 C56.265686,63.3531284 56.7185642,63.5256146 57.1696175,63.5230368 C57.6148015,63.5104744 58.0726637,63.3430729 58.4178842,62.9978525 L68.5057496,52.909987 C69.2182807,52.197456 69.1955741,51.0923374 68.4999527,50.396716 C67.8246752,49.7214386 66.6791016,49.6984993 65.9866817,50.3909191 L58.9453971,57.4322037 L58.9453971,33.8453026 C58.9453971,32.8847136 58.1479043,32.0625 57.1641471,32.0625 C56.2091606,32.0625 55.3828971,32.8606879 55.3828971,33.8453026 L55.3828971,57.4322037 L55.3828971,57.4322037 Z" id="Combined-Shape"></path>
                </g>
            </g>
            <g id="rmp-data-push" transform="translate(604.000000, 431.000000)">
                <use id="Oval-3" stroke="#EBEBF2" mask="url(#mask-2)" stroke-width="4" xlink:href="#path-1"></use>
                <g id="data-push" transform="translate(45.000000, 61.000000)" fill="#39477F">
                    <path d="M46.4356986,11.4046159 C46.4380579,7.06805291 36.1098838,3.6422069 23.3694354,3.6422069 C10.6289871,3.6422069 0.300813008,7.06805291 0.300813008,11.2940481 C0.300813008,11.2946416 0.300975901,48.0271571 0.300975901,48.0271571 C0.465506906,52.2511893 10.7910137,55.6747272 23.5271696,55.6747272 C36.267618,55.6747272 46.595792,52.2488812 46.4356986,48.022886 C46.4381519,47.9581256 46.4381422,47.893553 46.4356986,47.8291778 L46.4356986,11.637033 C45.9329395,15.9622406 35.9521766,19.2593383 23.3694354,19.2593383 C10.4561199,19.2593383 0.312413931,15.7867219 0.312413931,11.2940481 C0.312413931,15.2533648 9.14498637,19.2593381 23.3694351,19.2593381 C37.2042506,19.2593381 45.9660747,15.4698208 46.4356986,11.6194283 L46.4356986,11.4046159 Z" id="Server-Copy" stroke="#FFFFFF"></path>
                    <path d="M83.1919083,13.0144502 L76.4775173,19.7288412 C75.7980657,20.4082928 75.8197181,21.4621059 76.4830451,22.1254329 C77.1269726,22.7693604 78.2193627,22.7912348 78.8796368,22.1309607 L88.4991704,12.5114271 C88.8379525,12.172645 89.002431,11.7407918 88.9999729,11.3106788 C88.9879936,10.8861626 88.8283638,10.4495567 88.4991704,10.1203632 L78.8796368,0.500829638 C78.2001852,-0.178621953 77.1463721,-0.156969548 76.4830451,0.506357434 C75.8391175,1.15028498 75.8172432,2.24267507 76.4775173,2.90294913 L83.1919083,9.61734018 L60.7000355,9.61734018 C59.7840422,9.61734018 59,10.3778092 59,11.3158952 C59,12.2265462 59.7611318,13.0144502 60.7000355,13.0144502 L83.1919083,13.0144502 L83.1919083,13.0144502 L83.1919083,13.0144502 Z" id="Combined-Shape" opacity="0.75"></path>
                    <path d="M83.1919083,46.3477835 L76.4775173,53.0621745 C75.7980657,53.7416261 75.8197181,54.7954392 76.4830451,55.4587662 C77.1269726,56.1026938 78.2193627,56.1245681 78.8796368,55.464294 L88.4991704,45.8447605 C88.8379525,45.5059784 89.002431,45.0741251 88.9999729,44.6440121 C88.9879936,44.2194959 88.8283638,43.78289 88.4991704,43.4536965 L78.8796368,33.834163 C78.2001852,33.1547114 77.1463721,33.1763638 76.4830451,33.8396908 C75.8391175,34.4836183 75.8172432,35.5760084 76.4775173,36.2362825 L83.1919083,42.9506735 L60.7000355,42.9506735 C59.7840422,42.9506735 59,43.7111425 59,44.6492285 C59,45.5598796 59.7611318,46.3477835 60.7000355,46.3477835 L83.1919083,46.3477835 L83.1919083,46.3477835 L83.1919083,46.3477835 Z" id="Combined-Shape-Copy-2" opacity="0.5"></path>
                </g>
            </g>
            <path d="M67.1,242.136 C66.128,240.228 64.688,237.888 62.96,235.44 C64.652,230.904 65.84,225.54 66.416,219.348 L64.292,218.736 L63.716,218.844 L52.376,218.844 L52.376,222.048 L62.816,222.048 C62.348,225.684 61.556,229.104 60.548,232.164 C58.712,229.788 56.768,227.412 54.932,225.324 L52.448,227.268 C54.68,229.86 57.056,232.92 59.108,235.908 C57.092,240.552 54.392,244.188 51.26,246.492 C52.088,247.104 53.132,248.328 53.672,249.192 C56.732,246.708 59.288,243.432 61.34,239.22 C62.6,241.128 63.572,242.928 64.292,244.44 L67.1,242.136 Z M79.484,222.048 C78.656,227.304 77.18,231.84 75.128,235.584 C73.4,231.696 72.248,227.052 71.492,222.048 L79.484,222.048 Z M80.96,218.736 L80.384,218.844 L67.748,218.844 L67.748,222.048 L69.008,222.048 L68.324,222.156 C69.332,228.6 70.772,234.288 73.04,238.932 C70.628,242.208 67.748,244.62 64.436,246.204 C65.192,246.888 66.164,248.256 66.668,249.156 C69.8,247.428 72.572,245.16 74.876,242.28 C76.784,245.124 79.16,247.5 82.076,249.264 C82.616,248.328 83.66,247.032 84.488,246.384 C81.392,244.764 78.944,242.316 77.036,239.22 C80.132,234.216 82.22,227.7 83.156,219.348 L80.96,218.736 Z M120.02,225.324 L120.02,222.12 L105.548,222.12 L105.548,216 L102.128,216 L102.128,222.12 L87.98,222.12 L87.98,225.324 L98.636,225.324 C98.24,233.316 97.268,242.1 87.476,246.6 C88.376,247.248 89.384,248.472 89.888,249.372 C97.124,245.808 100.04,240.048 101.336,233.82 L112.28,233.82 C111.776,241.308 111.092,244.692 110.12,245.52 C109.652,245.916 109.184,245.988 108.392,245.988 C107.384,245.988 104.864,245.952 102.38,245.736 C103.028,246.672 103.496,248.04 103.532,249.012 C105.944,249.12 108.32,249.156 109.616,249.048 C111.092,248.94 112.064,248.688 113,247.68 C114.404,246.204 115.16,242.208 115.808,232.2 C115.88,231.696 115.916,230.652 115.916,230.652 L101.876,230.652 C102.092,228.888 102.236,227.088 102.344,225.324 L120.02,225.324 Z M143.888,232.632 L143.888,238.68 L136.076,238.68 L136.076,232.632 L143.888,232.632 Z M146.984,241.668 L146.984,229.68 L133.016,229.68 L133.016,244.188 L136.076,244.188 L136.076,241.668 L146.984,241.668 Z M154.652,222.228 L139.064,222.228 C139.964,220.572 140.9,218.592 141.692,216.756 L137.444,216.072 C137.012,217.908 136.148,220.284 135.356,222.228 L125.528,222.228 L125.528,249.156 L128.84,249.156 L128.84,225.504 L151.304,225.504 L151.304,245.016 C151.304,245.628 151.088,245.808 150.368,245.844 C149.684,245.88 147.2,245.88 144.824,245.772 C145.328,246.708 145.832,248.256 145.976,249.192 C149.216,249.192 151.448,249.12 152.852,248.616 C154.184,248.04 154.652,246.996 154.652,245.052 L154.652,222.228 Z M167.792,240.66 C166.352,240.66 164.516,238.788 164.516,234.684 C164.516,230.292 168.26,224.712 174.668,223.668 C174.308,226.8 173.624,230.04 172.724,232.848 C171.068,238.356 169.34,240.66 167.792,240.66 L167.792,240.66 Z M177.368,247.536 C186.08,246.312 190.868,241.128 190.868,233.676 C190.868,226.188 185.432,220.212 176.864,220.212 C167.936,220.212 160.916,227.088 160.916,235.008 C160.916,240.948 164.156,244.944 167.684,244.944 C171.248,244.944 174.2,240.876 176.36,233.604 C177.332,230.256 177.98,226.8 178.484,223.596 C183.956,224.28 187.052,228.348 187.052,233.532 C187.052,239.292 182.984,242.604 178.412,243.648 C177.548,243.864 176.504,244.044 175.244,244.152 L177.368,247.536 Z" id="双方向の" fill="#000000"></path>
            <path d="M63.248,271.444 C62.528,270.04 61.232,267.808 60.332,266.512 L58.028,267.484 C59,268.852 60.152,271.012 60.872,272.452 L63.248,271.444 Z M54.752,272.812 C55.904,272.812 57.2,272.884 58.352,272.956 L58.352,269.248 C57.236,269.392 55.868,269.464 54.752,269.464 L42.584,269.464 C41.432,269.464 40.172,269.392 39.092,269.248 L39.092,272.956 C40.064,272.884 41.396,272.812 42.62,272.812 L54.752,272.812 Z M38.12,278.536 C37.004,278.536 35.888,278.464 34.844,278.356 L34.844,282.1 C35.852,282.028 37.04,281.992 38.12,281.992 L48.524,281.992 C48.416,285.196 47.912,288.076 46.364,290.488 C44.96,292.684 42.368,294.772 39.704,295.852 L43.052,298.3 C46.148,296.68 48.884,294.016 50.18,291.568 C51.548,288.976 52.268,285.808 52.412,281.992 L61.664,281.992 C62.6,281.992 63.86,282.028 64.688,282.064 L64.688,278.356 C63.788,278.5 62.42,278.536 61.664,278.536 L38.12,278.536 Z M62.096,265.972 C63.104,267.304 64.292,269.356 65.048,270.904 L67.388,269.896 C66.74,268.564 65.372,266.332 64.4,265 L62.096,265.972 Z M71.528,284.296 C72.716,284.224 74.84,284.152 76.856,284.152 L96.44,284.152 C98.024,284.152 99.644,284.26 100.436,284.296 L100.436,279.868 C99.572,279.94 98.168,280.084 96.404,280.084 L76.856,280.084 C74.912,280.084 72.68,279.976 71.528,279.868 L71.528,284.296 Z M132.908,271.084 C132.224,271.336 131.216,271.48 130.208,271.48 L121.46,271.48 L121.892,270.688 C122.252,269.968 123.044,268.6 123.728,267.52 L119.624,266.224 C119.372,267.268 118.724,268.744 118.256,269.464 C116.564,272.668 113,277.888 106.736,281.74 L109.832,284.08 C113.684,281.452 116.924,277.996 119.3,274.72 L130.748,274.72 C130.1,277.24 128.48,280.624 126.5,283.468 C123.872,281.884 121.1,280.3 119.084,279.256 L116.708,281.956 C118.652,283.036 121.424,284.728 124.088,286.456 C120.956,289.804 116.564,293.08 110.228,294.988 L113.504,297.868 C119.624,295.528 124.016,292.18 127.22,288.544 C128.588,289.48 129.776,290.344 130.64,291.064 L133.16,287.752 C132.26,287.104 131.036,286.312 129.704,285.448 C132.152,281.92 133.916,278.104 134.816,275.116 C135.068,274.396 135.5,273.496 135.824,272.884 L132.908,271.084 Z M162.14,282.856 L162.14,288.832 L153.896,288.832 L153.896,282.856 L162.14,282.856 Z M165.236,291.64 L165.236,280.048 L150.8,280.048 L150.8,294.16 L153.896,294.16 L153.896,291.64 L165.236,291.64 Z M167.036,273.892 L149.036,273.892 L149.036,276.736 L167.036,276.736 L167.036,273.892 Z M172.904,267.484 L143.168,267.484 L143.168,298.84 L146.408,298.84 L146.408,270.652 L169.628,270.652 L169.628,294.736 C169.628,295.348 169.412,295.564 168.8,295.6 C168.188,295.6 166.1,295.636 164.048,295.528 C164.516,296.392 165.056,297.904 165.2,298.804 C168.224,298.84 170.096,298.732 171.284,298.192 C172.472,297.652 172.904,296.644 172.904,294.736 L172.904,267.484 Z M183.848,284.116 L189.464,284.116 L189.464,287.212 L183.848,287.212 L183.848,284.116 Z M189.464,273.172 L189.464,275.872 L183.848,275.872 L183.848,273.172 L189.464,273.172 Z M183.848,278.5 L189.464,278.5 L189.464,281.488 L183.848,281.488 L183.848,278.5 Z M195.008,287.212 L192.56,287.212 L192.56,273.172 L195.152,273.172 L195.152,270.256 L192.56,270.256 L192.56,266.116 L189.464,266.116 L189.464,270.256 L183.848,270.256 L183.848,266.116 L180.824,266.116 L180.824,270.256 L177.908,270.256 L177.908,273.172 L180.824,273.172 L180.824,287.212 L177.476,287.212 L177.476,290.128 L195.008,290.128 L195.008,287.212 Z M182.192,290.704 C181.148,292.972 179.312,295.276 177.368,296.824 C178.16,297.292 179.456,298.228 180.032,298.804 C181.976,297.04 184.064,294.268 185.36,291.568 L182.192,290.704 Z M187.376,292 C188.744,293.692 190.4,296.032 191.12,297.472 L193.82,295.852 C193.064,294.412 191.336,292.216 189.932,290.596 L187.376,292 Z M199.724,283.756 C199.796,282.604 199.796,281.452 199.796,280.408 L199.796,278.5 L206.132,278.5 L206.132,283.756 L199.724,283.756 Z M206.132,270.472 L206.132,275.548 L199.796,275.548 L199.796,270.472 L206.132,270.472 Z M209.372,267.448 L196.628,267.448 L196.628,280.408 C196.628,285.556 196.376,292.288 193.532,297.004 C194.252,297.328 195.656,298.3 196.196,298.912 C198.248,295.636 199.112,291.064 199.508,286.78 L206.132,286.78 L206.132,294.772 C206.132,295.348 205.916,295.492 205.376,295.528 C204.908,295.528 203.108,295.564 201.416,295.492 C201.848,296.32 202.28,297.796 202.388,298.66 C205.052,298.696 206.78,298.624 207.86,298.048 C208.976,297.544 209.372,296.572 209.372,294.808 L209.372,267.448 Z" id="データ同期" fill="#000000"></path>
            <g id="リアルタイム-共同編集" transform="translate(395.000000, 216.000000)" fill="#000000">
                <path d="M0.6,2.412 C0.672,3.168 0.744,4.428 0.744,5.076 L0.744,17.136 C0.744,18.18 0.6,19.44 0.564,20.052 L4.776,20.052 C4.704,19.332 4.632,18.072 4.632,17.136 L4.632,5.076 C4.632,4.068 4.704,3.168 4.776,2.412 L0.6,2.412 Z M17.196,2.124 C17.304,3.06 17.412,4.14 17.412,5.436 L17.412,11.628 C17.412,17.928 16.944,20.736 14.424,23.58 C12.228,26.064 9.132,27.432 5.712,28.296 L8.7,31.428 C11.328,30.528 14.964,28.908 17.304,26.172 C19.968,23.148 21.264,20.088 21.264,11.844 L21.264,5.436 C21.264,4.14 21.336,3.06 21.408,2.124 L17.196,2.124 Z M44.304,10.152 C44.484,11.196 44.52,12.06 44.52,13.032 C44.52,19.008 43.692,23.544 38.544,26.856 C37.392,27.684 36.132,28.26 35.088,28.62 L38.4,31.32 C47.868,26.46 48.408,19.548 48.408,10.152 L44.304,10.152 Z M60.684,3.24 C60.108,3.384 58.488,3.492 57.66,3.492 L37.536,3.492 C36.132,3.492 34.656,3.348 33.324,3.168 L33.324,7.164 C34.872,7.056 36.132,6.948 37.536,6.948 L57.3,6.948 C56.256,9 53.088,12.564 49.956,14.4 L52.944,16.812 C56.796,14.076 60.216,9.504 61.764,6.876 C62.052,6.444 62.628,5.76 62.952,5.364 L60.684,3.24 Z M70.08,30.888 C73.14,28.296 75.408,24.768 76.488,20.808 C77.46,17.208 77.604,9.54 77.604,5.436 C77.604,4.176 77.748,2.844 77.784,2.556 L73.608,2.556 C73.824,3.384 73.896,4.248 73.896,5.472 C73.896,9.612 73.896,16.632 72.852,19.836 C71.808,23.148 69.756,26.388 66.66,28.584 L70.08,30.888 Z M85.596,30.888 C85.992,30.6 86.352,30.276 86.964,29.988 C91.104,27.9 96.144,24.12 99.204,20.052 L97.044,16.956 C94.452,20.772 90.384,23.832 87.252,25.236 L87.252,5.328 C87.252,3.852 87.396,2.664 87.432,2.448 L83.256,2.448 C83.256,2.664 83.472,3.852 83.472,5.328 L83.472,26.64 C83.472,27.468 83.364,28.296 83.22,28.908 L85.596,30.888 Z M129.588,4.86 C128.904,5.112 127.896,5.256 126.888,5.256 L118.14,5.256 L118.572,4.464 C118.932,3.744 119.724,2.376 120.408,1.296 L116.304,0 C116.052,1.044 115.404,2.52 114.936,3.24 C113.244,6.444 109.68,11.664 103.416,15.516 L106.512,17.856 C110.364,15.228 113.604,11.772 115.98,8.496 L127.428,8.496 C126.78,11.016 125.16,14.4 123.18,17.244 C120.552,15.66 117.78,14.076 115.764,13.032 L113.388,15.732 C115.332,16.812 118.104,18.504 120.768,20.232 C117.636,23.58 113.244,26.856 106.908,28.764 L110.184,31.644 C116.304,29.304 120.696,25.956 123.9,22.32 C125.268,23.256 126.456,24.12 127.32,24.84 L129.84,21.528 C128.94,20.88 127.716,20.088 126.384,19.224 C128.832,15.696 130.596,11.88 131.496,8.892 C131.748,8.172 132.18,7.272 132.504,6.66 L129.588,4.86 Z M158.46,11.664 C162.096,9.324 165.48,6.516 168.072,3.924 L165.012,1.152 C162.996,3.744 159.252,6.948 155.616,9.216 C151.62,11.7 145.536,14.364 139.38,15.768 L141.432,19.26 C145.896,18 150.684,15.984 154.464,13.968 L154.464,26.784 C154.464,28.26 154.356,30.24 154.248,31.032 L158.712,31.032 C158.532,30.24 158.46,28.26 158.46,26.784 L158.46,11.664 Z M205.872,29.376 C204.324,25.524 200.472,18.36 197.952,14.58 L194.46,16.092 C195.72,17.748 197.196,20.376 198.564,23.112 C194.712,23.616 188.628,24.3 183.732,24.732 C185.532,19.98 188.808,9.792 189.888,6.372 C190.392,4.788 190.86,3.708 191.256,2.736 L186.756,1.8 C186.612,2.844 186.468,3.816 185.964,5.544 C184.956,9.216 181.536,19.944 179.52,25.092 C178.98,25.128 178.476,25.128 178.044,25.164 C176.964,25.236 175.56,25.236 174.444,25.236 L175.092,29.412 C176.172,29.268 177.36,29.088 178.26,28.98 C182.94,28.548 194.46,27.288 200.184,26.604 C200.94,28.26 201.588,29.844 202.056,31.104 L205.872,29.376 Z" id="リアルタイム"></path>
                <path d="M40.02,71.1639878 C38.076,73.7199878 34.188,76.7439878 30.732,78.5799878 C31.524,79.1559878 32.748,80.2359878 33.432,80.9199878 C36.996,78.9039878 40.956,75.5919878 43.548,72.5319878 L40.02,71.1639878 Z M49.344,72.7839878 C52.62,75.2679878 56.94,78.7959878 58.992,80.8839878 L62.232,78.9399878 C59.928,76.7439878 55.536,73.3959878 52.296,71.0559878 L49.344,72.7839878 Z M41.856,58.3479878 L51.144,58.3479878 L51.144,66.1239878 L41.856,66.1239878 L41.856,58.3479878 Z M54.636,66.1239878 L54.636,58.3479878 L61.548,58.3479878 L61.548,55.1079878 L54.636,55.1079878 L54.636,48.1599878 L51.144,48.1599878 L51.144,55.1079878 L41.856,55.1079878 L41.856,48.1599878 L38.4,48.1599878 L38.4,55.1079878 L31.74,55.1079878 L31.74,58.3479878 L38.4,58.3479878 L38.4,66.1239878 L30.372,66.1239878 L30.372,69.3999878 L62.736,69.3999878 L62.736,66.1239878 L54.636,66.1239878 Z M86.64,65.0079878 L86.64,70.9839878 L78.396,70.9839878 L78.396,65.0079878 L86.64,65.0079878 Z M89.736,73.7919878 L89.736,62.1999878 L75.3,62.1999878 L75.3,76.3119878 L78.396,76.3119878 L78.396,73.7919878 L89.736,73.7919878 Z M91.536,56.0439878 L73.536,56.0439878 L73.536,58.8879878 L91.536,58.8879878 L91.536,56.0439878 Z M97.404,49.6359878 L67.668,49.6359878 L67.668,80.9919878 L70.908,80.9919878 L70.908,52.8039878 L94.128,52.8039878 L94.128,76.8879878 C94.128,77.4999878 93.912,77.7159878 93.3,77.7519878 C92.688,77.7519878 90.6,77.7879878 88.548,77.6799878 C89.016,78.5439878 89.556,80.0559878 89.7,80.9559878 C92.724,80.9919878 94.596,80.8839878 95.784,80.3439878 C96.972,79.8039878 97.404,78.7959878 97.404,76.8879878 L97.404,49.6359878 Z M103.488,68.4639878 C103.164,71.5239878 102.516,74.7279878 101.472,76.8879878 C102.084,77.1039878 103.344,77.6799878 103.848,78.0399878 C104.928,75.7719878 105.72,72.3159878 106.152,68.9319878 L103.488,68.4639878 Z M112.236,65.7999878 C112.488,66.5919878 112.668,67.3479878 112.776,67.9599878 L115.26,66.9159878 C114.864,64.8639878 113.604,61.6959878 112.272,59.2839878 L110.004,60.1839878 C110.436,61.0479878 110.904,62.0559878 111.264,63.0279878 L107.304,63.2439878 C109.536,60.2919878 111.984,56.4399878 113.928,53.2359878 L111.228,52.0119878 C110.364,53.8479878 109.14,56.0799878 107.844,58.2039878 C107.412,57.5919878 106.872,56.9439878 106.296,56.2959878 C107.52,54.3159878 109.032,51.3999878 110.292,48.9159878 L107.412,47.8719878 C106.764,49.8159878 105.648,52.4439878 104.532,54.4599878 C104.172,54.0999878 103.848,53.7759878 103.488,53.4519878 L101.832,55.6119878 C103.38,57.1599878 105.144,59.1759878 106.188,60.7959878 C105.576,61.7679878 104.928,62.6319878 104.352,63.4239878 L101.652,63.5679878 L101.976,66.4839878 C103.488,66.4119878 105.252,66.2679878 107.088,66.1599878 L107.088,80.8839878 L109.968,80.8839878 L109.968,65.9439878 L112.236,65.7999878 Z M129.228,71.7039878 L129.228,68.1039878 L131.532,68.1039878 L131.532,71.7039878 L129.228,71.7039878 Z M124.836,71.7039878 L124.836,68.1039878 L127.032,68.1039878 L127.032,71.7039878 L124.836,71.7039878 Z M120.552,71.7039878 L120.552,68.1039878 L122.712,68.1039878 L122.712,71.7039878 L120.552,71.7039878 Z M130.308,57.5559878 L130.308,60.7959878 L118.896,60.7959878 L118.896,57.5559878 L130.308,57.5559878 Z M134.304,65.5119878 L118.824,65.5119878 C118.86,64.7919878 118.896,64.1079878 118.896,63.4599878 L133.512,63.4599878 L133.512,54.8559878 L115.908,54.8559878 L115.908,62.5239878 C115.908,65.8359878 115.764,70.0119878 114.576,73.8279878 C114.252,72.1359878 113.64,70.0119878 112.92,68.3199878 L110.616,69.0399878 C111.444,71.0919878 112.128,73.7559878 112.308,75.5559878 L114.18,74.9799878 C113.676,76.3119878 113.064,77.5719878 112.236,78.7239878 C112.92,79.0479878 114.144,79.9839878 114.684,80.5239878 C116.484,77.9679878 117.528,74.7999878 118.14,71.5959878 L118.14,80.9199878 L120.552,80.9199878 L120.552,74.1879878 L122.712,74.1879878 L122.712,80.5959878 L124.836,80.5959878 L124.836,74.1879878 L127.032,74.1879878 L127.032,80.5959878 L129.228,80.5959878 L129.228,74.1879878 L131.532,74.1879878 L131.532,77.8599878 C131.532,78.1479878 131.46,78.2199878 131.208,78.2559878 C130.956,78.2559878 130.308,78.2559878 129.552,78.2199878 C129.948,78.9399878 130.308,80.1279878 130.416,80.8839878 C131.712,80.8839878 132.684,80.8119878 133.404,80.3799878 C134.124,79.9119878 134.304,79.0839878 134.304,77.9319878 L134.304,65.5119878 Z M114.54,49.9599878 L114.54,52.8399878 L134.412,52.8399878 L134.412,49.9599878 L114.54,49.9599878 Z M145.896,63.1359878 L153.6,63.1359878 L153.6,65.2239878 L145.896,65.2239878 L145.896,63.1359878 Z M153.6,56.5839878 L145.896,56.5839878 L145.896,54.6039878 L153.6,54.6039878 L153.6,56.5839878 Z M153.6,60.9039878 L145.896,60.9039878 L145.896,58.8519878 L153.6,58.8519878 L153.6,60.9039878 Z M170.484,72.4239878 L170.484,69.7239878 L156.084,69.7239878 L156.084,67.8159878 L169.512,67.8159878 L169.512,65.2239878 L156.804,65.2239878 L156.804,63.1359878 L166.776,63.1359878 L166.776,60.9039878 L156.804,60.9039878 L156.804,58.8519878 L166.704,58.8519878 L166.704,56.5839878 L156.804,56.5839878 L156.804,54.6039878 L168.288,54.6039878 L168.288,51.9399878 L156.984,51.9399878 C157.668,50.8599878 158.352,49.5999878 159,48.3399878 L155.292,47.8719878 C154.896,49.0599878 154.212,50.6079878 153.528,51.9399878 L147.408,51.9399878 C148.2,50.7879878 148.884,49.5999878 149.532,48.4839878 L146.04,47.7999878 C144.456,51.0039878 141.54,54.9999878 137.58,57.9879878 C138.3,58.4919878 139.416,59.4999878 139.956,60.2559878 C140.964,59.4279878 141.9,58.5639878 142.764,57.6639878 L142.764,67.8159878 L152.772,67.8159878 L152.772,69.7239878 L138.516,69.7239878 L138.516,72.4239878 L150.18,72.4239878 C146.76,74.7639878 141.864,76.8159878 137.544,77.8239878 C138.228,78.5079878 139.2,79.7679878 139.704,80.5599878 C144.096,79.2639878 149.136,76.7799878 152.772,73.8639878 L152.772,80.8839878 L156.084,80.8839878 L156.084,73.7919878 C159.684,76.6359878 164.724,79.0479878 169.188,80.3799878 C169.62,79.5519878 170.556,78.3279878 171.24,77.6439878 C166.992,76.6359878 162.168,74.6919878 158.82,72.4239878 L170.484,72.4239878 Z" id="共同編集"></path>
            </g>
            <path d="M797.016,222.48 L796.98,219.384 C796.944,218.304 797.016,217.116 797.16,216.072 L793.056,216.072 C793.272,217.224 793.344,218.412 793.38,219.384 C793.416,220.248 793.452,221.292 793.488,222.48 L780.924,222.48 C779.772,222.48 778.332,222.372 777.324,222.228 L777.324,226.044 C778.512,225.972 779.736,225.936 780.996,225.936 L791.976,225.936 C789.096,230.184 782.904,235.728 775.74,239.184 L778.332,242.136 C784.452,238.896 790.536,233.46 793.632,229.248 C793.704,233.604 793.74,238.14 793.74,240.84 C793.74,241.812 793.38,242.28 792.408,242.28 C791.148,242.28 789.132,242.136 787.476,241.884 L787.764,245.592 C789.672,245.7 791.76,245.808 793.74,245.808 C796.152,245.808 797.376,244.656 797.376,242.568 C797.34,237.924 797.196,231.264 797.088,225.936 L802.344,225.936 C803.244,225.936 804.54,225.972 805.512,226.008 L805.512,222.228 C804.756,222.336 803.208,222.48 802.164,222.48 L797.016,222.48 Z M837.696,218.808 C836.904,219.024 836.004,219.06 835.392,219.06 L817.932,219.06 C816.744,219.06 815.052,218.916 814.044,218.772 L814.044,222.804 C814.944,222.732 816.384,222.66 817.932,222.66 L835.608,222.66 C835.14,225.972 833.592,230.58 831.108,233.712 C828.156,237.492 824.088,240.552 817.068,242.28 L820.128,245.664 C826.68,243.612 831.18,240.156 834.456,235.908 C837.372,232.092 839.028,226.368 839.82,222.696 C840,221.976 840.18,221.184 840.468,220.608 L837.696,218.808 Z M874.524,225.72 C874.056,225.9 873.192,226.044 872.22,226.044 L853.788,226.044 C852.744,226.044 851.376,225.936 849.972,225.792 L849.972,229.536 C851.34,229.428 852.924,229.392 853.788,229.392 L872.112,229.392 C871.464,231.768 870.168,234.468 868.116,236.592 C865.164,239.652 860.736,241.992 855.516,243.072 L858.324,246.312 C862.932,245.016 867.504,242.748 871.212,238.644 C873.876,235.692 875.46,232.056 876.504,228.528 C876.576,228.24 876.864,227.7 877.044,227.304 L874.524,225.72 Z M853.248,221.112 C854.256,221.04 855.552,221.004 856.668,221.004 L870.672,221.004 C871.896,221.004 873.336,221.04 874.236,221.112 L874.236,217.404 C873.336,217.512 871.86,217.584 870.708,217.584 L856.668,217.584 C855.516,217.584 854.22,217.512 853.248,217.404 L853.248,221.112 Z M902.82,226.512 C906.456,224.172 909.84,221.364 912.432,218.772 L909.372,216 C907.356,218.592 903.612,221.796 899.976,224.064 C895.98,226.548 889.896,229.212 883.74,230.616 L885.792,234.108 C890.256,232.848 895.044,230.832 898.824,228.816 L898.824,241.632 C898.824,243.108 898.716,245.088 898.608,245.88 L903.072,245.88 C902.892,245.088 902.82,243.108 902.82,241.632 L902.82,226.512 Z M925.428,217.728 L922.8,220.536 C925.464,222.372 929.928,226.26 931.8,228.168 L934.644,225.252 C932.628,223.164 927.984,219.42 925.428,217.728 L925.428,217.728 Z M921.72,241.812 L924.132,245.52 C929.712,244.512 934.284,242.388 937.92,240.156 C943.536,236.7 947.964,231.768 950.556,227.124 L948.36,223.2 C946.164,227.808 941.664,233.208 935.868,236.772 C932.412,238.896 927.732,240.912 921.72,241.812 L921.72,241.812 Z" id="オフライン" fill="#000000"></path>
            <path d="M800.656,264.801999 C799.864,265.017999 798.964,265.053999 798.352,265.053999 L780.892,265.053999 C779.704,265.053999 778.012,264.909999 777.004,264.765999 L777.004,268.797999 C777.904,268.725999 779.344,268.653999 780.892,268.653999 L798.568,268.653999 C798.1,271.965999 796.552,276.573999 794.068,279.705999 C791.116,283.485999 787.048,286.545999 780.028,288.273999 L783.088,291.657999 C789.64,289.605999 794.14,286.149999 797.416,281.901999 C800.332,278.085999 801.988,272.361999 802.78,268.689999 C802.96,267.969999 803.14,267.177999 803.428,266.601999 L800.656,264.801999 Z M823.372,276.177999 C823.516,276.933999 823.624,277.725999 823.624,278.517999 C823.624,283.161999 822.904,286.797999 818.404,289.821999 C817.432,290.469999 816.568,290.865999 815.704,291.189999 L818.8,293.673999 C826.792,289.281999 827.188,283.449999 827.332,276.177999 L823.372,276.177999 Z M837.448,270.561999 C836.944,270.669999 835.72,270.777999 835.072,270.777999 L817.756,270.777999 C816.604,270.777999 815.272,270.633999 814.192,270.489999 L814.192,274.197999 C815.416,274.089999 816.604,274.017999 817.756,274.017999 L834.244,274.053999 C833.308,275.709999 830.824,278.589999 828.484,280.101999 L831.4,282.081999 C834.352,279.957999 837.52,275.457999 838.636,273.621999 C838.852,273.297999 839.248,272.757999 839.536,272.433999 L837.448,270.561999 Z M847.528,278.913999 C848.716,278.841999 850.84,278.769999 852.856,278.769999 L872.44,278.769999 C874.024,278.769999 875.644,278.877999 876.436,278.913999 L876.436,274.485999 C875.572,274.557999 874.168,274.701999 872.404,274.701999 L852.856,274.701999 C850.912,274.701999 848.68,274.593999 847.528,274.485999 L847.528,278.913999 Z M907,264.585999 C906.388,264.801999 905.2,264.945999 903.868,264.945999 L890.512,264.945999 C889.396,264.945999 887.308,264.801999 886.588,264.693999 L886.588,268.761999 C887.164,268.725999 889.108,268.545999 890.512,268.545999 L903.724,268.545999 C902.86,271.353999 900.448,275.313999 898,278.049999 C894.436,282.045999 889.036,286.365999 883.204,288.597999 L886.12,291.621999 C891.304,289.245999 896.128,285.393999 899.98,281.289999 C903.544,284.601999 907.144,288.561999 909.484,291.801999 L912.688,288.993999 C910.456,286.257999 906.1,281.613999 902.392,278.445999 C904.912,275.205999 907.036,271.137999 908.296,268.185999 C908.548,267.573999 909.088,266.673999 909.34,266.313999 L907,264.585999 Z M946.852,277.797999 C943.252,276.033999 936.376,273.477999 931.624,272.037999 L931.624,266.421999 C931.624,265.161999 931.768,263.577999 931.876,262.389999 L927.448,262.389999 C927.664,263.613999 927.772,265.269999 927.772,266.421999 L927.772,287.229999 C927.772,288.633999 927.664,290.577999 927.484,291.837999 L931.912,291.837999 C931.732,290.541999 931.624,288.345999 931.624,287.229999 L931.624,276.105999 C935.584,277.401999 941.416,279.669999 945.232,281.721999 L946.852,277.797999 Z" id="ファースト" fill="#000000"></path>
            <path d="M727.764,320.362013 C727.944,321.406013 727.98,322.270013 727.98,323.242013 C727.98,329.218013 727.152,333.754013 722.004,337.066013 C720.852,337.894013 719.592,338.470013 718.548,338.830013 L721.86,341.530013 C731.328,336.670013 731.868,329.758013 731.868,320.362013 L727.764,320.362013 Z M744.144,313.450013 C743.568,313.594013 741.948,313.702013 741.12,313.702013 L720.996,313.702013 C719.592,313.702013 718.116,313.558013 716.784,313.378013 L716.784,317.374013 C718.332,317.266013 719.592,317.158013 720.996,317.158013 L740.76,317.158013 C739.716,319.210013 736.548,322.774013 733.416,324.610013 L736.404,327.022013 C740.256,324.286013 743.676,319.714013 745.224,317.086013 C745.512,316.654013 746.088,315.970013 746.412,315.574013 L744.144,313.450013 Z M779.676,316.042013 C778.452,316.042013 777.444,315.070013 777.444,313.810013 C777.444,312.586013 778.452,311.578013 779.676,311.578013 C780.936,311.578013 781.944,312.586013 781.944,313.810013 C781.944,315.070013 780.936,316.042013 779.676,316.042013 L779.676,316.042013 Z M756.672,314.854013 C755.484,314.854013 753.792,314.746013 752.784,314.602013 L752.784,318.598013 C753.684,318.562013 755.124,318.490013 756.672,318.490013 L774.348,318.490013 C773.88,321.766013 772.332,326.374013 769.848,329.542013 C766.896,333.286013 762.828,336.382013 755.772,338.110013 L758.868,341.494013 C765.384,339.442013 769.884,335.986013 773.16,331.738013 C776.076,327.886013 777.768,322.198013 778.56,318.526013 L778.74,317.842013 C779.028,317.914013 779.352,317.950013 779.676,317.950013 C781.98,317.950013 783.852,316.114013 783.852,313.810013 C783.852,311.542013 781.98,309.670013 779.676,309.670013 C777.408,309.670013 775.536,311.542013 775.536,313.810013 C775.536,314.134013 775.572,314.458013 775.644,314.782013 C775.104,314.854013 774.564,314.854013 774.132,314.854013 L756.672,314.854013 Z M792.06,312.622013 C792.132,313.378013 792.204,314.638013 792.204,315.286013 L792.204,327.346013 C792.204,328.390013 792.06,329.650013 792.024,330.262013 L796.236,330.262013 C796.164,329.542013 796.092,328.282013 796.092,327.346013 L796.092,315.286013 C796.092,314.278013 796.164,313.378013 796.236,312.622013 L792.06,312.622013 Z M808.656,312.334013 C808.764,313.270013 808.872,314.350013 808.872,315.646013 L808.872,321.838013 C808.872,328.138013 808.404,330.946013 805.884,333.790013 C803.688,336.274013 800.592,337.642013 797.172,338.506013 L800.16,341.638013 C802.788,340.738013 806.424,339.118013 808.764,336.382013 C811.428,333.358013 812.724,330.298013 812.724,322.054013 L812.724,315.646013 C812.724,314.350013 812.796,313.270013 812.868,312.334013 L808.656,312.334013 Z M833.676,317.806013 C834.144,316.654013 834.54,315.538013 834.864,314.638013 C835.152,313.882013 835.548,312.766013 835.908,311.938013 L831.516,311.074013 C831.444,312.154013 831.192,313.342013 830.904,314.278013 C830.472,315.682013 829.824,317.518013 828.852,319.282013 C827.556,321.478013 825.072,324.970013 822.516,326.878013 L826.08,329.038013 C828.204,327.238013 830.508,324.034013 831.984,321.370013 L840.516,321.370013 C839.976,329.794013 836.484,334.402013 832.848,337.174013 C832.02,337.822013 830.832,338.506013 829.716,338.974013 L833.532,341.566013 C839.868,337.570013 843.756,331.342013 844.404,321.370013 L850.02,321.370013 C850.848,321.370013 852.324,321.406013 853.548,321.478013 L853.548,317.590013 C852.468,317.770013 850.92,317.806013 850.02,317.806013 L833.676,317.806013 Z M860.028,328.282013 C861.216,328.210013 863.34,328.138013 865.356,328.138013 L884.94,328.138013 C886.524,328.138013 888.144,328.246013 888.936,328.282013 L888.936,323.854013 C888.072,323.926013 886.668,324.070013 884.904,324.070013 L865.356,324.070013 C863.412,324.070013 861.18,323.962013 860.028,323.854013 L860.028,328.282013 Z M903.444,311.866013 L901.392,314.962013 C903.624,316.222013 907.476,318.778013 909.312,320.110013 L911.436,317.014013 C909.744,315.790013 905.676,313.126013 903.444,311.866013 L903.444,311.866013 Z M897.504,337.534013 L899.628,341.242013 C902.904,340.630013 907.944,338.902013 911.58,336.778013 C917.412,333.394013 922.416,328.786013 925.62,323.890013 L923.46,320.074013 C920.544,325.186013 915.684,330.010013 909.672,333.430013 C905.892,335.518013 901.5,336.850013 897.504,337.534013 L897.504,337.534013 Z M897.972,320.038013 L895.92,323.134013 C898.224,324.358013 902.04,326.806013 903.948,328.174013 L906.036,324.970013 C904.344,323.782013 900.24,321.262013 897.972,320.038013 L897.972,320.038013 Z M956.652,342.214013 C956.616,341.638013 956.58,340.630013 956.58,340.054013 L956.58,322.090013 C956.58,321.370013 956.58,320.434013 956.616,320.002013 C956.112,320.002013 954.996,320.038013 954.168,320.038013 L940.38,320.038013 C939.264,320.038013 937.176,320.002013 936.384,319.894013 L936.384,323.386013 C937.104,323.314013 939.264,323.242013 940.38,323.242013 L953.088,323.242013 L953.088,328.534013 L940.74,328.534013 C939.444,328.534013 938.04,328.462013 937.212,328.426013 L937.212,331.846013 C938.004,331.774013 939.444,331.774013 940.776,331.774013 L953.088,331.774013 L953.088,337.462013 L938.976,337.462013 C937.716,337.462013 936.564,337.390013 935.952,337.318013 L935.952,340.846013 C936.564,340.846013 937.896,340.774013 938.976,340.774013 L953.088,340.774013 C953.088,341.314013 953.088,341.890013 953.052,342.214013 L956.652,342.214013 Z M972.888,313.090013 L970.26,315.898013 C972.924,317.734013 977.388,321.622013 979.26,323.530013 L982.104,320.614013 C980.088,318.526013 975.444,314.782013 972.888,313.090013 L972.888,313.090013 Z M969.18,337.174013 L971.592,340.882013 C977.172,339.874013 981.744,337.750013 985.38,335.518013 C990.996,332.062013 995.424,327.130013 998.016,322.486013 L995.82,318.562013 C993.624,323.170013 989.124,328.570013 983.328,332.134013 C979.872,334.258013 975.192,336.274013 969.18,337.174013 L969.18,337.174013 Z" id="アプリケーション" fill="#000000"></path>
            <path d="M150.488,654.196 L151.568,650.632 C152.432,647.752 153.26,644.836 154.016,641.812 L154.16,641.812 C154.988,644.8 155.78,647.752 156.68,650.632 L157.724,654.196 L150.488,654.196 Z M160.964,665.032 L165.392,665.032 L156.608,638.536 L151.784,638.536 L143,665.032 L147.248,665.032 L149.516,657.472 L158.732,657.472 L160.964,665.032 Z M168.884,665.032 L173.06,665.032 L173.06,654.988 L177.056,654.988 C182.816,654.988 187.028,652.324 187.028,646.528 C187.028,640.552 182.816,638.536 176.912,638.536 L168.884,638.536 L168.884,665.032 Z M173.06,651.64 L173.06,641.884 L176.516,641.884 C180.728,641.884 182.924,643.036 182.924,646.528 C182.924,650.02 180.908,651.64 176.66,651.64 L173.06,651.64 Z M192.176,665.032 L196.352,665.032 L196.352,638.536 L192.176,638.536 L192.176,665.032 Z M229.904,639.688 C229.184,638.356 227.96,636.232 227.06,634.936 L224.648,635.944 C225.404,637.06 226.34,638.572 227.024,639.904 C226.448,639.976 225.872,639.976 225.44,639.976 L207.98,639.976 C206.792,639.976 205.1,639.868 204.092,639.724 L204.092,643.72 C204.992,643.684 206.432,643.612 207.98,643.612 L225.656,643.612 C225.188,646.888 223.64,651.496 221.156,654.664 C218.204,658.408 214.136,661.504 207.08,663.232 L210.176,666.616 C216.692,664.564 221.228,661.108 224.468,656.86 C227.42,653.008 229.076,647.32 229.868,643.648 C230.048,642.928 230.228,642.136 230.516,641.56 L228.536,640.264 L229.904,639.688 Z M229.436,635.008 C230.408,636.268 231.56,638.356 232.352,639.832 L234.8,638.752 C234.08,637.42 232.748,635.26 231.884,634 L229.436,635.008 Z M243.368,637.744 C243.44,638.5 243.512,639.76 243.512,640.408 L243.512,652.468 C243.512,653.512 243.368,654.772 243.332,655.384 L247.544,655.384 C247.472,654.664 247.4,653.404 247.4,652.468 L247.4,640.408 C247.4,639.4 247.472,638.5 247.544,637.744 L243.368,637.744 Z M259.964,637.456 C260.072,638.392 260.18,639.472 260.18,640.768 L260.18,646.96 C260.18,653.26 259.712,656.068 257.192,658.912 C254.996,661.396 251.9,662.764 248.48,663.628 L251.468,666.76 C254.096,665.86 257.732,664.24 260.072,661.504 C262.736,658.48 264.032,655.42 264.032,647.176 L264.032,640.768 C264.032,639.472 264.104,638.392 264.176,637.456 L259.964,637.456 Z M289.556,644.008 L286.172,645.124 C287,646.852 288.62,651.352 289.052,653.044 L292.436,651.82 C291.968,650.236 290.204,645.52 289.556,644.008 L289.556,644.008 Z M298.736,645.052 C298.232,649.588 296.432,654.268 293.948,657.364 C290.96,661.072 286.208,663.808 282.14,664.96 L285.128,668.02 C289.196,666.436 293.66,663.556 296.972,659.308 C299.492,656.104 301.04,652.288 302.012,648.472 C302.156,647.86 302.372,647.212 302.696,646.312 L298.736,645.052 Z M281.168,645.88 L277.784,647.104 C278.576,648.508 280.448,653.404 281.06,655.312 L284.48,654.052 C283.796,652.108 281.996,647.536 281.168,645.88 L281.168,645.88 Z M333.8,637.816 L331.352,638.86 C332.612,640.588 333.62,642.46 334.592,644.512 L337.112,643.396 C336.284,641.74 334.736,639.22 333.8,637.816 L333.8,637.816 Z M338.624,636.088 L336.14,637.132 C337.4,638.824 338.516,640.624 339.524,642.676 L342.044,641.56 C341.144,639.904 339.632,637.42 338.624,636.088 L338.624,636.088 Z M318.32,637.24 L316.268,640.336 C318.464,641.596 322.316,644.116 324.152,645.448 L326.312,642.352 C324.584,641.128 320.552,638.464 318.32,637.24 L318.32,637.24 Z M312.344,662.872 L314.468,666.58 C317.744,665.968 322.784,664.24 326.42,662.116 C332.252,658.732 337.256,654.124 340.496,649.228 L338.3,645.412 C335.42,650.524 330.524,655.348 324.512,658.768 C320.732,660.856 316.34,662.188 312.344,662.872 L312.344,662.872 Z M312.848,645.376 L310.796,648.472 C313.064,649.696 316.916,652.144 318.788,653.512 L320.876,650.308 C319.184,649.12 315.08,646.6 312.848,645.376 L312.848,645.376 Z" id="APIブリッジ" fill="#000000"></path>
            <path d="M580.352,644.252 L580.352,640.076 C580.352,638.636 580.496,637.484 580.568,636.944 L576.5,636.944 C576.572,637.448 576.68,638.636 576.68,640.076 L576.68,644.252 L567.176,644.252 L567.176,640.112 C567.176,638.78 567.32,637.7 567.392,637.232 L563.36,637.232 C563.396,637.7 563.54,638.852 563.54,640.112 L563.54,644.252 L560.012,644.252 C558.356,644.252 556.736,644.072 556.268,644 L556.268,647.852 C556.844,647.816 558.32,647.744 560.012,647.744 L563.54,647.744 L563.54,653.144 C563.54,654.62 563.396,656.132 563.36,656.636 L567.32,656.636 C567.284,656.132 567.176,654.62 567.176,653.144 L567.176,647.744 L576.68,647.744 L576.68,649.184 C576.68,658.724 573.512,661.82 566.78,664.304 L569.84,667.184 C578.264,663.404 580.352,658.256 580.352,648.968 L580.352,647.744 L583.772,647.744 C585.464,647.744 586.76,647.78 587.336,647.852 L587.336,644.036 C586.616,644.18 585.464,644.252 583.736,644.252 L580.352,644.252 Z M593.528,653.612 C594.716,653.54 596.84,653.468 598.856,653.468 L618.44,653.468 C620.024,653.468 621.644,653.576 622.436,653.612 L622.436,649.184 C621.572,649.256 620.168,649.4 618.404,649.4 L598.856,649.4 C596.912,649.4 594.68,649.292 593.528,649.184 L593.528,653.612 Z M653.792,636.908 L651.452,637.88 C652.424,639.248 653.612,641.408 654.332,642.848 L656.672,641.84 C655.988,640.436 654.692,638.204 653.792,636.908 L653.792,636.908 Z M657.86,635.36 L655.556,636.332 C656.564,637.7 657.716,639.752 658.508,641.3 L660.812,640.256 C660.164,638.96 658.796,636.728 657.86,635.36 L657.86,635.36 Z M633.452,654.26 C632.192,657.32 630.14,661.136 627.872,664.124 L631.796,665.78 C633.74,662.972 635.792,659.084 637.088,655.736 C638.492,652.172 639.788,647.024 640.256,644.648 C640.436,643.856 640.76,642.488 641.012,641.588 L636.908,640.76 C636.476,645.08 635.036,650.408 633.452,654.26 L633.452,654.26 Z M651.2,653.144 C652.64,656.996 654.152,661.748 655.124,665.672 L659.228,664.34 C658.256,660.956 656.348,655.34 654.98,651.884 C653.54,648.248 651.128,643.028 649.688,640.328 L645.98,641.552 C647.528,644.252 649.76,649.4 651.2,653.144 L651.2,653.144 Z M665.528,653.612 C666.716,653.54 668.84,653.468 670.856,653.468 L690.44,653.468 C692.024,653.468 693.644,653.576 694.436,653.612 L694.436,649.184 C693.572,649.256 692.168,649.4 690.404,649.4 L670.856,649.4 C668.912,649.4 666.68,649.292 665.528,649.184 L665.528,653.612 Z M729.176,641.372 C727.952,641.372 726.944,640.4 726.944,639.14 C726.944,637.916 727.952,636.908 729.176,636.908 C730.436,636.908 731.444,637.916 731.444,639.14 C731.444,640.4 730.436,641.372 729.176,641.372 L729.176,641.372 Z M706.172,640.184 C704.984,640.184 703.292,640.076 702.284,639.932 L702.284,643.928 C703.184,643.892 704.624,643.82 706.172,643.82 L723.848,643.82 C723.38,647.096 721.832,651.704 719.348,654.872 C716.396,658.616 712.328,661.712 705.272,663.44 L708.368,666.824 C714.884,664.772 719.384,661.316 722.66,657.068 C725.576,653.216 727.268,647.528 728.06,643.856 L728.24,643.172 C728.528,643.244 728.852,643.28 729.176,643.28 C731.48,643.28 733.352,641.444 733.352,639.14 C733.352,636.872 731.48,635 729.176,635 C726.908,635 725.036,636.872 725.036,639.14 C725.036,639.464 725.072,639.788 725.144,640.112 C724.604,640.184 724.064,640.184 723.632,640.184 L706.172,640.184 Z M751.748,644.216 L748.364,645.332 C749.192,647.06 750.812,651.56 751.244,653.252 L754.628,652.028 C754.16,650.444 752.396,645.728 751.748,644.216 L751.748,644.216 Z M760.928,645.26 C760.424,649.796 758.624,654.476 756.14,657.572 C753.152,661.28 748.4,664.016 744.332,665.168 L747.32,668.228 C751.388,666.644 755.852,663.764 759.164,659.516 C761.684,656.312 763.232,652.496 764.204,648.68 C764.348,648.068 764.564,647.42 764.888,646.52 L760.928,645.26 Z M743.36,646.088 L739.976,647.312 C740.768,648.716 742.64,653.612 743.252,655.52 L746.672,654.26 C745.988,652.316 744.188,647.744 743.36,646.088 L743.36,646.088 Z M780.944,637.196 L778.892,640.292 C781.124,641.552 784.976,644.108 786.812,645.44 L788.936,642.344 C787.244,641.12 783.176,638.456 780.944,637.196 L780.944,637.196 Z M775.004,662.864 L777.128,666.572 C780.404,665.96 785.444,664.232 789.08,662.108 C794.912,658.724 799.916,654.116 803.12,649.22 L800.96,645.404 C798.044,650.516 793.184,655.34 787.172,658.76 C783.392,660.848 779,662.18 775.004,662.864 L775.004,662.864 Z M775.472,645.368 L773.42,648.464 C775.724,649.688 779.54,652.136 781.448,653.504 L783.536,650.3 C781.844,649.112 777.74,646.592 775.472,645.368 L775.472,645.368 Z M830.768,661.784 C831.272,658.436 832.28,651.704 832.568,649.4 C832.64,649.04 832.748,648.5 832.856,648.104 L830.12,646.772 C829.76,646.952 828.608,647.06 827.96,647.06 L817.736,647.06 C816.836,647.06 815.468,646.988 814.568,646.88 L814.568,650.624 C815.54,650.588 816.692,650.516 817.772,650.516 L828.464,650.516 C828.356,652.532 827.42,658.724 826.916,661.784 L814.46,661.784 C813.308,661.784 812.156,661.712 811.22,661.604 L811.22,665.312 C812.444,665.276 813.272,665.24 814.46,665.24 L833.864,665.24 C834.728,665.24 836.24,665.276 836.924,665.312 L836.924,661.64 C836.096,661.712 834.62,661.784 833.792,661.784 L830.768,661.784 Z" id="サーバープッシュ" fill="#000000"></path>
        </g>
    </g>
</svg>