<?xml version="1.0" encoding="UTF-8" standalone="no"?>
<svg width="32px" height="32px" viewBox="0 0 32 32" version="1.1" xmlns="http://www.w3.org/2000/svg" xmlns:xlink="http://www.w3.org/1999/xlink">
    <!-- Generator: Sketch 40.1 (33804) - http://www.bohemiancoding.com/sketch -->
    <title>rmd-fast-queries</title>
    <desc>Created with Sketch.</desc>
    <defs></defs>
    <g id="Diagrams-&amp;-Graphics-" stroke="none" stroke-width="1" fill="none" fill-rule="evenodd">
        <g id="rmd-fast-queries" fill="#39477F">
            <g>
                <path d="M22.9230741,20.2083182 L21.4933027,20.2083182 L20.9865482,19.7196621 C22.7601888,17.6564476 23.8279928,14.9778885 23.8279928,12.0640504 C23.8279928,5.5667346 18.5613663,0.300108108 12.0640504,0.300108108 C5.5667346,0.300108108 0.300108108,5.5667346 0.300108108,12.0640504 C0.300108108,18.5613663 5.5667346,23.8279928 12.0640504,23.8279928 C14.9778885,23.8279928 17.6564476,22.7601888 19.7196621,20.9865482 L20.2083182,21.4933027 L20.2083182,22.9230741 L29.2575046,31.9541622 L31.9541622,29.2575046 L22.9230741,20.2083182 L22.9230741,20.2083182 Z M12.0640504,20.2083182 C7.55755561,20.2083182 3.91978267,16.5705453 3.91978267,12.0640504 C3.91978267,7.55755561 7.55755561,3.91978267 12.0640504,3.91978267 C16.5705453,3.91978267 20.2083182,7.55755561 20.2083182,12.0640504 C20.2083182,16.5705453 16.5705453,20.2083182 12.0640504,20.2083182 L12.0640504,20.2083182 Z" id="Shape"></path>
                <path d="M14.8450793,9.6 L12.3882251,12.0568542 L10.6859521,10.3545812 C10.5335443,10.2021734 10.3305625,10.1253746 10.1266128,10.1255213 C9.91874587,10.12501 9.7163629,10.203233 9.56147798,10.358118 L6.16400542,13.7555905 C5.85627604,14.0633199 5.85326599,14.5728619 6.16568542,14.8852814 C6.48028299,15.1998789 6.98388468,15.198453 7.29537627,14.8869614 L10.1254834,12.0568542 L11.8277564,13.7591273 C11.9801642,13.9115351 12.183146,13.9883339 12.3870957,13.9881872 C12.5949626,13.9886985 12.7973456,13.9104754 12.9522305,13.7555905 L16,10.707821 L16,12.7976565 C16,13.2325684 16.3581722,13.6 16.8,13.6 C17.2449081,13.6 17.6,13.2407786 17.6,12.7976565 L17.6,8.80234346 C17.6,8.80195278 17.5999997,8.80156215 17.5999991,8.80117157 C17.5999997,8.80078135 17.6,8.80039071 17.6,8.8 C17.6,8.57793772 17.5105107,8.37825049 17.3657657,8.23392286 C17.2201954,8.09152823 17.0205171,8 16.8,8 C16.7996093,8 16.7992186,8.00000028 16.7988281,8.00000083 C16.7984379,8.00000028 16.7980472,8 16.7976565,8 L12.8023435,8 C12.3674316,8 12,8.3581722 12,8.8 C12,9.24490814 12.3592214,9.6 12.8023435,9.6 L14.8450793,9.6 Z" id="Combined-Shape" opacity="0.75"></path>
            </g>
        </g>
    </g>
</svg>