<?xml version="1.0" encoding="UTF-8" standalone="no"?>
<svg width="32px" height="32px" viewBox="0 0 32 32" version="1.1" xmlns="http://www.w3.org/2000/svg" xmlns:xlink="http://www.w3.org/1999/xlink">
    <!-- Generator: Sketch 40.1 (33804) - http://www.bohemiancoding.com/sketch -->
    <title>rmd-cross-platform-apps</title>
    <desc>Created with Sketch.</desc>
    <defs></defs>
    <g id="Diagrams-&amp;-Graphics-" stroke="none" stroke-width="1" fill="none" fill-rule="evenodd">
        <g id="rmd-cross-platform-apps" fill="#39477F">
            <g id="offline-first-applications" transform="translate(0.000000, 4.000000)">
                <path d="M14.887218,0.400000436 L2.2556391,0.400000436 C1.01052632,0.400000436 0,1.51255858 0,2.88338914 L0,21.7571433 C0,23.1279739 1.01052632,24.240532 2.2556391,24.240532 L14.887218,24.240532 C16.1323308,24.240532 17.1428571,23.1279739 17.1428571,21.7571433 L17.1428571,2.88338914 C17.1428571,1.51255858 16.1323308,0.400000436 14.887218,0.400000436 L14.887218,0.400000436 Z M8.15318635,23.3900337 C7.44085533,23.3900337 6.86584114,22.8201998 6.86584114,22.1142862 C6.86584114,21.4083725 7.44085533,20.8385386 8.15318635,20.8385386 C8.86551737,20.8385386 9.44053156,21.4083725 9.44053156,22.1142862 C9.44053156,22.8201998 8.86551737,23.3900337 8.15318635,23.3900337 L8.15318635,23.3900337 Z M15.430746,19.9880403 L1.71646028,19.9880403 L1.71646028,2.68571472 L15.430746,2.68571472 L15.430746,19.9880403 L15.430746,19.9880403 Z" id="Shape-3"></path>
                <path d="M29.4285714,3.26910299 L22.5714286,3.26910299 C21.1485714,3.26910299 20,4.54637133 20,6.12865897 L20,21.3796242 C20,22.9619119 21.1485714,24.2391802 22.5714286,24.2391802 L29.4285714,24.2391802 C30.8514286,24.2391802 32,22.9619119 32,21.3796242 L32,6.12865897 C32,4.54637133 30.8514286,3.26910299 29.4285714,3.26910299 L29.4285714,3.26910299 Z M27.6756757,22.5403385 L24.2471042,22.5403385 L24.2471042,21.4785624 L27.6756757,21.4785624 L27.6756757,22.5403385 L27.6756757,22.5403385 Z M30.5,19.992076 L21.5,19.992076 L21.5,5.55192152 L30.5,5.55192152 L30.5,19.992076 L30.5,19.992076 Z" id="Shape" opacity="0.5"></path>
            </g>
        </g>
    </g>
</svg>