<?xml version="1.0" encoding="UTF-8" standalone="no"?>
<svg width="32px" height="32px" viewBox="0 0 32 32" version="1.1" xmlns="http://www.w3.org/2000/svg" xmlns:xlink="http://www.w3.org/1999/xlink">
    <!-- Generator: Sketch 40.1 (33804) - http://www.bohemiancoding.com/sketch -->
    <title>rmd-safe-threading</title>
    <desc>Created with Sketch.</desc>
    <defs></defs>
    <g id="Diagrams-&amp;-Graphics-" stroke="none" stroke-width="1" fill="none" fill-rule="evenodd">
        <g id="rmd-safe-threading" fill="#39477F">
            <g id="Group" transform="translate(15.529412, 15.970588) rotate(90.000000) translate(-15.529412, -15.970588) translate(8.029412, -0.029412)">
                <path d="M6.29332306,13.3609814 C5.4060526,12.2551903 4.87262072,11.3665476 4.56143298,10.3498536 C3.69134337,7.50714883 5.67874802,4.90811627 9.35573976,2.53493237 C10.3882741,1.86851973 11.4893603,1.26682832 12.5899636,0.738012657 C12.975026,0.552998664 13.3330578,0.390057279 13.6552917,0.250416163 C13.8510631,0.165577968 13.9932079,0.106658473 14.0729131,0.0749350622 L14.7689996,1.82385362 C14.706366,1.84878239 14.5816258,1.90048764 14.4037582,1.97756714 C14.1032603,2.10778886 13.767391,2.26064405 13.4051752,2.43468074 C12.3706982,2.93172416 11.336704,3.49675297 10.3764967,4.11648476 C7.34692184,6.07181637 5.82839784,8.05766928 6.36136113,9.79893507 C6.56296305,10.4575968 6.91879961,11.0872636 7.51609104,11.8695758 L6.29332306,13.3609814 L6.29332306,13.3609814 Z M6.71641351,13.8739391 C6.77641821,13.9450525 6.83932756,14.0190751 6.9080973,14.0995364 L6.71641347,13.8739391 L6.71641351,13.8739391 Z M7.51426405,14.8042732 C7.53884924,14.8328861 7.55973523,14.8572219 7.57502555,14.8750824 C9.60178813,17.2425297 10.3943015,18.7488913 10.3943015,20.9852399 C10.3943015,23.0307234 9.39139507,25.0640765 7.69444904,26.976493 C7.0863697,27.6617835 6.4326078,28.2808165 5.77949107,28.8208224 C5.39104051,29.1419987 5.0937202,29.3623289 4.9339068,29.4704799 L5.98888732,31.0294118 C6.19620397,30.8891138 6.54136126,30.6333338 6.97895332,30.2715267 C7.7025743,29.6732269 8.42555011,28.9886567 9.10242596,28.2258343 C11.0767805,26.0007852 12.2766544,23.5680882 12.2766544,20.9852399 C12.2766544,18.1896572 11.2979017,16.3293029 9.00495372,13.6509264 C8.95485035,13.592401 8.84718556,13.4672699 8.74488972,13.3484712 L7.51426405,14.8042732 L7.51426405,14.8042732 Z" id="Combined-Shape"></path>
                <path d="M0.6225959,1.97756714 C0.923093751,2.10778886 1.25896308,2.26064405 1.62117883,2.43468074 C2.65565586,2.93172416 3.68965004,3.49675297 4.64985741,4.11648476 C7.67943223,6.07181637 9.19795622,8.05766928 8.66499294,9.79893507 C8.46465314,10.4534733 8.11200382,11.0793784 7.52145264,11.8549008 C7.36177362,12.0645942 7.18470143,12.2852261 6.98854407,12.5203204 C6.85253802,12.6833235 6.70980316,12.8510155 6.51614265,13.0761087 C6.53434858,13.0549478 6.3999936,13.2108049 6.26285421,13.3700847 C6.16635282,13.4821657 6.06847272,13.5959414 6.02140034,13.6509264 C3.72845241,16.3293029 2.74969966,18.1896572 2.74969966,20.9852399 C2.74969966,23.5680882 3.94957358,26.0007852 5.92392811,28.2258343 C6.60080396,28.9886567 7.32377977,29.6732269 8.04740075,30.2715267 C8.48499281,30.6333338 8.83015009,30.8891138 9.03746675,31.0294118 L10.0924473,29.4704799 C9.93263387,29.3623289 9.63531356,29.1419987 9.246863,28.8208224 C8.59374627,28.2808165 7.93998437,27.6617835 7.33190503,26.976493 C5.634959,25.0640765 4.6320526,23.0307234 4.6320526,20.9852399 C4.6320526,18.7488913 5.42456594,17.2425297 7.45132852,14.8750824 C7.46664232,14.8571945 7.48756901,14.8328113 7.51220333,14.8041413 C7.66699112,14.6239956 7.96816131,14.2745975 7.94306281,14.3037697 C8.14238106,14.0721005 8.29066328,13.8978911 8.43386528,13.7262637 C8.54398468,13.5942858 8.64931204,13.4656196 8.7500429,13.3397521 C9.62712822,12.2437972 10.1557273,11.3600332 10.4649211,10.3498536 C11.3350107,7.50714883 9.34760605,4.90811627 5.6706143,2.53493237 C4.63808,1.86851973 3.53699382,1.26682832 2.43639048,0.738012657 C2.0513281,0.552998664 1.69329631,0.390057279 1.37106239,0.250416163 C1.17529093,0.165577968 1.03314614,0.106658473 0.953441017,0.0749350622 L0.257354468,1.82385362 C0.319988038,1.84878239 0.444728289,1.90048764 0.6225959,1.97756714 Z" id="Path-13-Copy" opacity="0.5"></path>
            </g>
        </g>
    </g>
</svg>