<?xml version="1.0" encoding="UTF-8" standalone="no"?>
<svg width="32px" height="32px" viewBox="0 0 32 32" version="1.1" xmlns="http://www.w3.org/2000/svg" xmlns:xlink="http://www.w3.org/1999/xlink">
    <!-- Generator: Sketch 40.1 (33804) - http://www.bohemiancoding.com/sketch -->
    <title>rmd-encryption</title>
    <desc>Created with Sketch.</desc>
    <defs></defs>
    <g id="Diagrams-&amp;-Graphics-" stroke="none" stroke-width="1" fill="none" fill-rule="evenodd">
        <g id="rmd-encryption" fill="#39477F">
            <path d="M23.5,11.7582658 L22.25,11.7582658 L22.25,9.25590417 C22.25,5.80264507 19.45,3 16,3 C12.55,3 9.75,5.80264507 9.75,9.25590417 L9.75,11.7582658 L8.5,11.7582658 C7.125,11.7582658 6,12.8843286 6,14.2606275 L6,26.7724359 C6,28.1487348 7.125,29.2747975 8.5,29.2747975 L23.5,29.2747975 C24.875,29.2747975 26,28.1487348 26,26.7724359 L26,14.2606275 C26,12.8843286 24.875,11.7582658 23.5,11.7582658 L23.5,11.7582658 Z M16,23.0188934 C14.625,23.0188934 13.5,21.8928306 13.5,20.5165317 C13.5,19.1402328 14.625,18.01417 16,18.01417 C17.375,18.01417 18.5,19.1402328 18.5,20.5165317 C18.5,21.8928306 17.375,23.0188934 16,23.0188934 L16,23.0188934 Z M19.875,11.7582658 L12.125,11.7582658 L12.125,9.25590417 C12.125,7.11638495 13.8625,5.37724359 16,5.37724359 C18.1375,5.37724359 19.875,7.11638495 19.875,9.25590417 L19.875,11.7582658 L19.875,11.7582658 Z" id="Shape"></path>
        </g>
    </g>
</svg>