<?xml version="1.0" encoding="UTF-8" standalone="no"?>
<svg width="32px" height="32px" viewBox="0 0 32 32" version="1.1" xmlns="http://www.w3.org/2000/svg" xmlns:xlink="http://www.w3.org/1999/xlink">
    <!-- Generator: Sketch 40.1 (33804) - http://www.bohemiancoding.com/sketch -->
    <title>rmd-reactive-architecture</title>
    <desc>Created with Sketch.</desc>
    <defs></defs>
    <g id="Diagrams-&amp;-Graphics-" stroke="none" stroke-width="1" fill="none" fill-rule="evenodd">
        <g id="rmd-reactive-architecture" fill="#39477F">
            <path d="M13.3142368,9.9299478 C11.9890056,10.7787345 10.5635958,11.4748873 9.13787576,12.0266289 C8.6391102,12.219647 8.17676334,12.3805405 7.76327574,12.5106096 C7.5189422,12.5874685 7.3479656,12.6362987 7.26274372,12.6584774 C6.97712263,12.748664 6.78722265,12.8189861 6.64535497,12.8852408 C6.54318437,12.9329562 6.45724654,12.9815763 6.37563153,13.0451026 C6.09252864,13.2654603 5.90392341,13.5695368 6.08181529,14.0381901 C6.22708995,14.4209139 6.47073205,14.5365733 6.77447607,14.5876738 C6.86788064,14.6033878 6.96199044,14.6075129 7.06911189,14.6048619 C7.22756199,14.6009407 7.43094344,14.5805313 7.68108342,14.5447104 L21.4480492,12.5924657 C16.6153776,15.3572379 6.95316934,20.8918796 6.95316934,20.8918796 C5.36048901,21.8041882 5.87293934,23.2864204 7.68108342,23.0274882 L20.9201774,21.1487075 C19.4989055,21.9609744 18.0919341,22.8566868 16.7634376,23.8228379 C13.9491021,25.8695675 11.8015984,28.0006763 10.5839168,30.1960606 L12.03533,31 C13.1138228,29.0555622 15.1037408,27.080836 17.7398991,25.163686 C19.2263366,24.0826721 20.8230435,23.0884272 22.4200598,22.2053195 C22.9790494,21.8962131 23.4976833,21.6233278 23.9623173,21.3895334 C24.2389833,21.2503206 24.4346004,21.1557862 24.5355597,21.1087559 C26.2030738,20.2532334 25.7208354,18.7688663 23.8919627,19.030767 L10.0988054,21.0010207 C10.0991541,21.0012614 24.6198768,12.6835977 24.6198768,12.6835977 C26.1996805,11.7786651 25.7186824,10.2863969 23.8919627,10.5479892 L12.9176228,12.0966024 C12.9131309,12.097058 13.7851832,11.598013 14.2096831,11.3261285 C17.823715,9.01140601 20.220263,6.01001937 20.766648,2.23754485 L19.1243038,2 C18.657305,5.22435832 16.5598112,7.85121575 13.3142368,9.9299478 Z"></path>
        </g>
    </g>
</svg>