<?xml version="1.0" encoding="UTF-8" standalone="no"?>
<svg width="18px" height="22px" viewBox="0 0 18 22" version="1.1" xmlns="http://www.w3.org/2000/svg" xmlns:xlink="http://www.w3.org/1999/xlink">
    <!-- Generator: Sketch 40.2 (33826) - http://www.bohemiancoding.com/sketch -->
    <title>download-arrow</title>
    <desc>Created with Sketch.</desc>
    <defs></defs>
    <g id="Page-1" stroke="none" stroke-width="1" fill="none" fill-rule="evenodd">
        <g id="Homepage-Copy-23" transform="translate(-386.000000, -277.000000)" fill="#FFFFFF">
            <path d="M396,291.242641 L396,277.99996 C396,277.454709 395.552285,277 395,277 C394.443865,277 394,277.447697 394,277.99996 L394,291.242641 L390.046998,287.289639 C389.665349,286.90799 389.026563,286.902369 388.636039,287.292893 C388.242792,287.68614 388.244058,288.315125 388.632785,288.703852 L394.296148,294.367215 C394.486442,294.55751 394.740664,294.654319 394.996164,294.655149 C395.256462,294.658539 395.510024,294.561043 395.703852,294.367215 L401.367215,288.703852 C401.748864,288.322203 401.754485,287.683418 401.363961,287.292893 C400.970714,286.899646 400.341729,286.900912 399.953002,287.289639 L396,291.242641 Z M403.705962,298.710122 C403.526412,298.889314 403.279302,299 403.006602,299 L386.993398,299 C386.720593,299 386.473472,298.890255 386.293943,298.711533 C386.111039,298.524844 386,298.278048 386,298.009222 L386,293.990778 C386,293.443586 386.443865,293 387,293 C387.552285,293 388,293.450975 388,293.990778 L388,297 L402,297 L402,293.990778 C402,293.443586 402.443865,293 403,293 C403.552285,293 404,293.450975 404,293.990778 L404,298.009222 C404,298.281739 403.889907,298.528559 403.710682,298.707684 Z" id="download-arrow"></path>
        </g>
    </g>
</svg>