<?xml version="1.0" encoding="UTF-8" standalone="no"?>
<svg width="18px" height="14px" viewBox="0 0 18 14" version="1.1" xmlns="http://www.w3.org/2000/svg" xmlns:xlink="http://www.w3.org/1999/xlink">
    <!-- Generator: Sketch 40.2 (33826) - http://www.bohemiancoding.com/sketch -->
    <title>go-arrow</title>
    <desc>Created with Sketch.</desc>
    <defs></defs>
    <g id="Page-1" stroke="none" stroke-width="1" fill="none" fill-rule="evenodd">
        <g id="Homepage-Copy-23" transform="translate(-386.000000, -360.000000)" fill="#FFFFFF">
            <g id="Group-10" transform="translate(335.000000, 174.000000)">
                <g id="Group-16" transform="translate(36.000000, 165.000000)">
                    <g id="Group-14-Copy" transform="translate(0.000000, 4.000000)">
                        <path d="M29.4131862,22.8257795 L16.1705057,22.8257795 C15.6252544,22.8257795 15.1705455,23.2734947 15.1705455,23.8257795 C15.1705455,24.3819147 15.6182429,24.8257795 16.1705057,24.8257795 L29.4131862,24.8257795 L25.4601843,28.7787814 C25.0785353,29.1604304 25.0729144,29.7992162 25.4634387,30.1897405 C25.8566857,30.5829875 26.4856709,30.5817219 26.8743979,30.1929949 L32.5377609,24.5296319 C32.7280553,24.3393374 32.8248643,24.0851154 32.825694,23.8296157 C32.8290846,23.5693173 32.731589,23.3157551 32.5377609,23.1219271 L26.8743979,17.458564 C26.4927489,17.0769151 25.853963,17.0712942 25.4634387,17.4618185 C25.0701918,17.8550654 25.0714574,18.4840507 25.4601843,18.8727776 L29.4131862,22.8257795 L29.4131862,22.8257795 Z" id="go-arrow"></path>
                    </g>
                </g>
            </g>
        </g>
    </g>
</svg>