<?xml version="1.0" encoding="UTF-8" standalone="no"?>
<svg width="16px" height="19px" viewBox="0 0 16 19" version="1.1" xmlns="http://www.w3.org/2000/svg" xmlns:xlink="http://www.w3.org/1999/xlink">
    <!-- Generator: Sketch 41.2 (35397) - http://www.bohemiancoding.com/sketch -->
    <title>commuter</title>
    <desc>Created with Sketch.</desc>
    <defs></defs>
    <g id="Hifi-+-Graphics" stroke="none" stroke-width="1" fill="none" fill-rule="evenodd">
        <g id="about-careers-expanded-copy-5" transform="translate(-454.000000, -3932.000000)" fill="#9A50A5">
            <g id="Group-10-Copy-4" transform="translate(453.000000, 3930.000000)">
                <path d="M9,2 C4.58,2 1,2.5 1,6 L1,15.5 C1,17.43 2.57,19 4.5,19 L3,20.5 L3,21 L15,21 L15,20.5 L13.5,19 C15.43,19 17,17.43 17,15.5 L17,6 C17,2.5 13.42,2 9,2 L9,2 Z M4.5,17 C3.67,17 3,16.33 3,15.5 C3,14.67 3.67,14 4.5,14 C5.33,14 6,14.67 6,15.5 C6,16.33 5.33,17 4.5,17 L4.5,17 Z M8,11 L3,11 L3,6 L8,6 L8,11 L8,11 Z M13.5,17 C12.67,17 12,16.33 12,15.5 C12,14.67 12.67,14 13.5,14 C14.33,14 15,14.67 15,15.5 C15,16.33 14.33,17 13.5,17 L13.5,17 Z M15,11 L10,11 L10,6 L15,6 L15,11 L15,11 Z" id="commuter"></path>
            </g>
        </g>
    </g>
</svg>