<?xml version="1.0" encoding="UTF-8" standalone="no"?>
<svg width="22px" height="12px" viewBox="0 0 22 12" version="1.1" xmlns="http://www.w3.org/2000/svg" xmlns:xlink="http://www.w3.org/1999/xlink">
    <!-- Generator: Sketch 41.2 (35397) - http://www.bohemiancoding.com/sketch -->
    <title>the-future</title>
    <desc>Created with Sketch.</desc>
    <defs></defs>
    <g id="Hifi-+-Graphics" stroke="none" stroke-width="1" fill="none" fill-rule="evenodd">
        <g id="about-careers-expanded-copy-5" transform="translate(-776.000000, -3934.000000)" fill="#9A50A5">
            <g id="Group-10-Copy-3" transform="translate(776.000000, 3930.000000)">
                <path d="M11.65,8 C10.83,5.67 8.61,4 6,4 C2.69,4 0,6.69 0,10 C0,13.31 2.69,16 6,16 C8.61,16 10.83,14.33 11.65,12 L16,12 L16,16 L20,16 L20,12 L22,12 L22,8 L11.65,8 L11.65,8 Z M6,12 C4.9,12 4,11.1 4,10 C4,8.9 4.9,8 6,8 C7.1,8 8,8.9 8,10 C8,11.1 7.1,12 6,12 L6,12 Z" id="the-future"></path>
            </g>
        </g>
    </g>
</svg>