<?xml version="1.0" encoding="UTF-8" standalone="no"?>
<svg width="1000px" height="584px" viewBox="0 0 1000 584" version="1.1" xmlns="http://www.w3.org/2000/svg" xmlns:xlink="http://www.w3.org/1999/xlink">
    <!-- Generator: Sketch 39.1 (31720) - http://www.bohemiancoding.com/sketch -->
    <title>language-objective-c-news</title>
    <desc>Created with Sketch.</desc>
    <defs></defs>
    <g id="Page-1" stroke="none" stroke-width="1" fill="none" fill-rule="evenodd">
        <g id="language-objective-c-news">
            <g id="Group-3" transform="translate(142.000000, 91.000000)">
                <g id="Group-2" transform="translate(316.000000, 0.000000)">
                    <g id="Group-Copy">
                        <circle id="Oval-3" fill="#1C233F" cx="200" cy="200" r="200"></circle>
                        <path d="M187.882353,263 L236.117647,263 L236.117647,205.307692 L187.882353,205.307692 L187.882353,263 L187.882353,263 Z M130,263 L178.235294,263 L178.235294,138 L130,138 L130,263 L130,263 Z M245.764706,263 L294,263 L294,205.307692 L245.764706,205.307692 L245.764706,263 L245.764706,263 Z M187.882353,138 L187.882353,195.692308 L294,195.692308 L294,138 L187.882353,138 L187.882353,138 Z" id="Shape" fill="#FFFFFF"></path>
                    </g>
                </g>
                <g id="Group" transform="translate(0.000000, 2.000000)">
                    <circle id="Oval-3" fill="#39477F" cx="200" cy="200" r="200"></circle>
                    <path d="M88.4120172,123.60515 L133.085393,123.60515 L133.085393,143.650896 L110.939617,143.650896 L110.939617,255.716158 L133.085393,255.716158 L133.085393,276.143727 L88.4120172,276.143727 L88.4120172,123.60515 Z M258.132662,235.097677 C256.223534,238.025007 253.582613,241.01593 250.209819,244.070535 C246.837026,247.12514 242.859736,249.956971 238.277828,252.566112 C233.695921,255.175254 228.668625,257.307082 223.195791,258.96166 C217.722957,260.616237 211.932022,261.443514 205.822812,261.443514 C196.277171,261.443514 187.55895,259.788961 179.667887,256.479806 C171.776824,253.17065 164.967702,248.556993 159.240318,242.638696 C153.512933,236.720398 149.058368,229.752185 145.876487,221.733847 C142.694607,213.715509 141.103691,204.933651 141.103691,195.38801 C141.103691,186.09692 142.694607,177.378698 145.876487,169.233085 C149.058368,161.087472 153.544752,153.960167 159.335774,147.850957 C165.126796,141.741746 172.031372,136.905361 180.049711,133.341655 C188.068049,129.777949 196.913543,127.996123 206.586459,127.996123 C212.822945,127.996123 218.550243,128.664308 223.768527,130.000698 C228.98681,131.337087 233.727741,133.150732 237.99146,135.441686 C242.25518,137.732639 246.041561,140.437197 249.350716,143.55544 C252.659872,146.673682 255.587158,150.014607 258.132662,153.578312 L241.141506,168.660349 C237.068699,162.80569 232.327769,158.096578 226.918572,154.532872 C221.509376,150.969166 214.732073,149.18734 206.586459,149.18734 C200.349974,149.18734 194.749949,150.428254 189.786215,152.910121 C184.822482,155.391988 180.590645,158.701093 177.090577,162.837538 C173.590508,166.973982 170.917769,171.810367 169.072278,177.346839 C167.226788,182.883311 166.304057,188.706064 166.304057,194.815274 C166.304057,200.924485 167.226788,206.651783 169.072278,211.997342 C170.917769,217.342901 173.55869,221.988376 176.995121,225.933908 C180.431551,229.879439 184.536115,232.997635 189.308936,235.288589 C194.081756,237.579543 199.459053,238.725002 205.440988,238.725002 C210.913822,238.725002 215.591116,238.088636 219.47301,236.815884 C223.354904,235.543132 226.66401,233.952215 229.400427,232.043087 C232.136844,230.133959 234.427763,228.129405 236.273254,226.029364 C238.118744,223.929323 239.805115,222.115678 241.332418,220.588376 L258.132662,235.097677 Z M266.914607,255.716158 L289.060383,255.716158 L289.060383,143.650896 L266.914607,143.650896 L266.914607,123.60515 L311.587983,123.60515 L311.587983,276.143727 L266.914607,276.143727 L266.914607,255.716158 Z" id="[C]" fill="#FFFFFF"></path>
                </g>
            </g>
        </g>
    </g>
</svg>