<svg id="Layer_1" xmlns="http://www.w3.org/2000/svg" viewBox="0 0 90 90"><style>.st0{fill:none;stroke:#59569D;stroke-width:2.5;stroke-linecap:round;stroke-linejoin:round;stroke-miterlimit:10;} .st1{fill:none;stroke:url(#SVGID_1_);stroke-width:2.5;stroke-linejoin:round;stroke-miterlimit:10;} .st2{fill:none;stroke:#EE5291;stroke-width:2.5;stroke-linejoin:round;stroke-miterlimit:10;} .st3{fill:none;stroke:#99519F;stroke-width:2.5;stroke-linecap:round;stroke-linejoin:round;stroke-miterlimit:10;} .st4{fill:#99519F;stroke:#99519F;stroke-width:2.5;stroke-linejoin:round;stroke-miterlimit:10;} .st5{fill:none;stroke:#F27C87;stroke-width:2.5;stroke-linejoin:round;stroke-miterlimit:10;}</style><path class="st5" d="M39.1 51.5c0-.8.1-1.6.2-2.5.1-.9.3-1.8.7-2.8.3-.9.8-1.9 1.5-2.8.7-.9 1.6-1.8 2.9-2.6.7-.5 1.3-.9 2-1.4.7-.5 1.3-1 1.8-1.6.5-.5 1-1.1 1.3-1.7.5-.9.6-1.9.4-3.1 0-.1-.1-.2-.1-.3-.9-1.9-2.6-2.8-5.2-2.8-1.1 0-2.2.2-3.1.5-1 .3-1.8.7-2.5 1.1-.7.4-1.3.8-1.8 1.3l-.1.1c-.5.5-1.3.5-1.8 0l-3-2.7c-.6-.5-.6-1.4-.1-2 .1-.1.2-.3.4-.4.6-.7 1.5-1.3 2.6-2s2.4-1.3 4-1.9c1.6-.5 3.5-.8 5.6-.8 2.1 0 3.9.3 5.5.9 1.6.6 2.9 1.4 4 2.4s2 2.2 2.5 3.5c.6 1.3.9 2.7.9 4.1 0 2.3-.5 4.2-1.4 5.7-.9 1.5-2.3 2.9-4.1 4.2-.9.7-1.7 1.3-2.4 1.8s-1.2 1-1.7 1.6c-.4.6-.8 1.2-1 1.9-.2.7-.3 1.5-.3 2.4 0 .8-.6 1.4-1.4 1.4h-4.8c-.9-.2-1.5-.8-1.5-1.5zm.6 5.8H46c.8 0 1.4.6 1.4 1.4v5.9c0 .8-.6 1.4-1.4 1.4h-6.2c-.8 0-1.4-.6-1.4-1.4v-5.9c0-.8.6-1.4 1.3-1.4z"/><path class="st5" d="M75 44.5c0 5.7-1.5 11.1-4.1 15.8l8.6 17-21.9-3.8c-4.6 2.4-9.8 3.8-15.4 3.8-18.1 0-32.7-14.7-32.7-32.7s14.7-32.7 32.7-32.7S75 26.4 75 44.5z"/></svg>