<svg id="Layer_1" xmlns="http://www.w3.org/2000/svg" viewBox="0 0 90 90"><style>.st0{fill:none;stroke:#59569D;stroke-width:2.5;stroke-linecap:round;stroke-linejoin:round;stroke-miterlimit:10;} .st1{fill:none;stroke:url(#SVGID_1_);stroke-width:2.5;stroke-linejoin:round;stroke-miterlimit:10;} .st2{fill:none;stroke:#EE5291;stroke-width:2.5;stroke-linejoin:round;stroke-miterlimit:10;} .st3{fill:none;stroke:#99519F;stroke-width:2.5;stroke-linecap:round;stroke-linejoin:round;stroke-miterlimit:10;} .st4{fill:#99519F;stroke:#99519F;stroke-width:2.5;stroke-linejoin:round;stroke-miterlimit:10;} .st5{fill:none;stroke:#F27C87;stroke-width:2.5;stroke-linejoin:round;stroke-miterlimit:10;}</style><linearGradient id="SVGID_1_" gradientUnits="userSpaceOnUse" x1="45" y1="59.898" x2="45" y2="30.384"><stop offset="0" stop-color="#3A4880"/><stop offset=".15" stop-color="#545A8C"/><stop offset=".3" stop-color="#99519F"/><stop offset=".44" stop-color="#CF509C"/><stop offset=".58" stop-color="#EE5291"/><stop offset=".72" stop-color="#F27C87"/><stop offset=".86" stop-color="#F69D95"/><stop offset="1" stop-color="#FBC297"/></linearGradient><path class="st1" d="M40.5 59.1s8.3-9.1 12.4-10.6-16.4 1.8-16.4 1.8l16.9-10.1L36.5 42s8.1-1.2 13.1-11.1"/><path class="st2" d="M60 5H30c-2.3 0-4.1 1.8-4.1 4.1v71.8c0 2.3 1.8 4.1 4.1 4.1h30c2.3 0 4.1-1.8 4.1-4.1V9.1C64.1 6.8 62.3 5 60 5z"/><circle class="st2" cx="45" cy="78.6" r="2"/><path class="st2" d="M29.7 17.8h30.6v54.1H29.7z"/></svg>