<svg id="Layer_1" xmlns="http://www.w3.org/2000/svg" viewBox="0 0 90 90"><style>.st0{fill:none;stroke:#59569D;stroke-width:2.5;stroke-linecap:round;stroke-linejoin:round;stroke-miterlimit:10;} .st1{fill:none;stroke:url(#SVGID_1_);stroke-width:2.5;stroke-linejoin:round;stroke-miterlimit:10;} .st2{fill:none;stroke:#EE5291;stroke-width:2.5;stroke-linejoin:round;stroke-miterlimit:10;} .st3{fill:none;stroke:#99519F;stroke-width:2.5;stroke-linecap:round;stroke-linejoin:round;stroke-miterlimit:10;} .st4{fill:#99519F;stroke:#99519F;stroke-width:2.5;stroke-linejoin:round;stroke-miterlimit:10;} .st5{fill:none;stroke:#F27C87;stroke-width:2.5;stroke-linejoin:round;stroke-miterlimit:10;}</style><path class="st3" d="M78.9 66.3L17.4 78.9c-3 .6-6-1.3-6.6-4.3L2 31.6c-.6-3 1.3-6 4.3-6.6l67.5-13.7c3-.6 6 1.3 6.6 4.3L88 52.4c.6 3-6.1 13.3-9.1 13.9z"/><path class="st4" d="M18.4 29.8l1.5-.3.7 3.3 4-.8-.7-3.3 1.5-.3 1.6 8.1-1.5.3-.7-3.5-4 .8.7 3.5-1.5.3-1.6-8.1zM29.6 27.5l5.2-1.1.3 1.3-3.7.8.4 1.9 2.7-.6.3 1.4-2.8.6.4 2.1 4-.8.3 1.4-5.5 1.1-1.6-8.1zM38.9 25.6l1.5-.3 1.4 6.7 4-.8.3 1.4-5.5 1.1-1.7-8.1zM48 23.8l1.5-.3 1.4 6.7 4-.8.3 1.4-5.5 1.1-1.7-8.1zM62.3 29.5c-.6.1-1.2.1-1.7 0-.6-.1-1.1-.3-1.5-.6-.5-.3-.9-.7-1.2-1.2-.3-.5-.5-1-.7-1.6-.1-.6-.1-1.2 0-1.7.1-.6.3-1.1.6-1.5.3-.5.7-.9 1.1-1.2.5-.3 1-.6 1.6-.7.6-.1 1.2-.1 1.7 0s1.1.3 1.5.6c.5.3.8.7 1.2 1.2.3.5.5 1 .7 1.6.1.6.1 1.2 0 1.7-.1.6-.3 1.1-.6 1.5-.3.5-.7.9-1.1 1.2-.5.4-1 .6-1.6.7zm-.3-1.4c.4-.1.7-.2 1-.5.3-.2.5-.5.7-.8.2-.3.3-.6.3-1 .1-.4 0-.7 0-1.1-.1-.4-.2-.7-.4-1.1-.2-.3-.4-.6-.7-.8s-.6-.4-.9-.4c-.4-.1-.7-.1-1.1 0-.4.1-.8.2-1 .4-.3.2-.5.5-.7.8-.2.3-.3.6-.3 1-.1.4 0 .7 0 1.1.1.4.2.7.4 1.1.2.3.4.6.7.8.3.2.6.4.9.5.3 0 .7.1 1.1 0z"/><path class="st3" d="M6.2 51.7l78.4-16M55.2 36l8.1-1.7M37.2 39.6l14.3-2.9M24.6 42.2l8.5-1.7M88 52.4l-6 1.2c-3 .6-5 3.6-4.3 6.6l1.2 6.1"/></svg>