<svg id="Layer_1" xmlns="http://www.w3.org/2000/svg" viewBox="0 0 90 90"><style>.st0{fill:none;stroke:#59569D;stroke-width:2.5;stroke-linecap:round;stroke-linejoin:round;stroke-miterlimit:10;} .st1{fill:none;stroke:url(#SVGID_1_);stroke-width:2.5;stroke-linejoin:round;stroke-miterlimit:10;} .st2{fill:none;stroke:#EE5291;stroke-width:2.5;stroke-linejoin:round;stroke-miterlimit:10;} .st3{fill:none;stroke:#99519F;stroke-width:2.5;stroke-linecap:round;stroke-linejoin:round;stroke-miterlimit:10;} .st4{fill:#99519F;stroke:#99519F;stroke-width:2.5;stroke-linejoin:round;stroke-miterlimit:10;} .st5{fill:none;stroke:#F27C87;stroke-width:2.5;stroke-linejoin:round;stroke-miterlimit:10;}</style><path class="st0" d="M68 35.8s9.3-2.7 14.3-8.3L71.5 9.7 54.2 5s-3 6.4-9.2 6.5c-6.3-.1-9.2-6.5-9.2-6.5L18.5 9.7 7.7 27.5c6 6.5 14.3 8.3 14.3 8.3l2-5.3-2 51S29.5 85 45 85s23-3.5 23-3.5l-2-51 2 5.3z"/><g id="Mark_5_"><path class="st0" d="M45 25c-3.2 0-6.4 1.3-8.7 3.6s-3.6 5.5-3.6 8.7 1.3 6.4 3.6 8.7 5.5 3.6 8.7 3.6c3.2 0 6.4-1.3 8.7-3.6 2.3-2.3 3.6-5.5 3.6-8.7 0-3.2-1.3-6.4-3.6-8.7-2.3-2.3-5.5-3.6-8.7-3.6z"/><path class="st0" d="M32.7 37.3c0 3.2 1.3 6.4 3.6 8.7s5.5 3.6 8.7 3.6c3.2 0 6.4-1.3 8.7-3.6 2.3-2.3 3.6-5.5 3.6-8.7 0-3.2-1.3-6.4-3.6-8.7-1-1-2.2-1.8-3.4-2.4-1-.1-2.1 0-3.1.2-2.2.5-4.3 1.8-6.5 2.3-1.4.3-2.8.2-4.2-.3l-.2.2c-2.3 2.3-3.6 5.5-3.6 8.7z"/><path class="st0" d="M36.3 46c2.3 2.3 5.5 3.6 8.7 3.6 3.2 0 6.4-1.3 8.7-3.6 2.3-2.3 3.6-5.5 3.6-8.7 0-2.8-1-5.5-2.7-7.7-1.8 1.1-3.9 1.8-6 1.8-2.8.1-5.6-.9-8.4-.9-2.3 0-4.5.6-6.5 1.7-.7 1.6-1.1 3.3-1.1 5.1.1 3.2 1.4 6.5 3.7 8.7z"/><path class="st0" d="M36.3 46c2.3 2.3 5.5 3.6 8.7 3.6 3.2 0 6.4-1.3 8.7-3.6 2.3-2.3 3.6-5.5 3.6-8.7 0-.7-.1-1.3-.2-2-.9-.7-1.9-1.3-2.9-1.7-2.1-.8-4.5-1-6.8-.5-1.5.4-3 1-4.4 1.6-1.4.6-2.9 1.2-4.5 1.4-2 .2-4-.3-5.7-1.3-.2.8-.3 1.7-.3 2.5.2 3.2 1.5 6.5 3.8 8.7z"/><path class="st0" d="M36.3 46c2.3 2.3 5.5 3.6 8.7 3.6 3.2 0 6.4-1.3 8.7-3.6 2.1-2.1 3.4-5 3.6-8-2.5.9-5.2 1.1-7.8.5-1.7-.4-3.3-1.2-4.9-1.9s-3.3-1.3-5-1.5c-1.8-.2-3.6.1-5.1.9-.6.3-1.3.7-1.8 1.2v.1c0 3.2 1.3 6.5 3.6 8.7z"/><path class="st0" d="M45 49.7c3.2 0 6.4-1.3 8.7-3.6 2.2-2.2 3.5-5.3 3.6-8.5-2.1-.7-4.4-.8-6.5-.2-2.8.8-5.2 2.7-7.9 3.8-3 1.2-6.5 1.2-9.6.2.6 1.8 1.6 3.4 2.9 4.7 2.4 2.2 5.6 3.6 8.8 3.6z"/><path class="st0" d="M45 49.7c3.2 0 6.4-1.3 8.7-3.6 1.5-1.5 2.6-3.4 3.2-5.4-.8.6-1.8 1.1-2.7 1.4-2.1.8-4.5.9-6.7.4-2.7-.6-5.2-2.1-8-2.5-2.1-.3-4.4.2-6.2 1.2.6 1.8 1.6 3.5 3 4.9 2.3 2.2 5.5 3.6 8.7 3.6z"/><path class="st0" d="M45 49.7c3.2 0 6.4-1.3 8.7-3.6.8-.8 1.4-1.6 2-2.6-2.7-.3-5.5 0-8.1 1-1.3.5-2.6 1.1-4 1.5-2.1.6-4.5.6-6.6.1-.4-.1-.8-.2-1.2-.4.1.2.3.3.4.4 2.4 2.2 5.6 3.6 8.8 3.6z"/></g></svg>