<svg id="Layer_2" data-name="Layer 2" xmlns="http://www.w3.org/2000/svg" viewBox="0 0 156 156"><defs><style>.cls-1{fill:#fff;stroke:#ebebf2;stroke-miterlimit:10;stroke-width:1.93px;}.cls-2{fill:#59569d;}.cls-3{fill:#fbc297;}.cls-4{fill:#f69d95;}.cls-5{fill:#f27c87;}.cls-6{fill:#ee5291;}.cls-7{fill:#cf509c;}.cls-8{fill:#99519f;}.cls-9{fill:#3a4880;}</style></defs><title>world-tour-logo</title><circle class="cls-1" cx="78" cy="78" r="76.39"/><path class="cls-2" d="M50.61,134.18h0a1.52,1.52,0,0,1-.69-2h0a1.51,1.51,0,0,1,2-.69h0a1.52,1.52,0,0,1,.69,2h0a1.51,1.51,0,0,1-1.35.84h0A1.52,1.52,0,0,1,50.61,134.18Zm-6.34-3.6a1.51,1.51,0,0,1-.45-2.09h0A1.52,1.52,0,0,1,45.9,128h0a1.51,1.51,0,0,1,.44,2.09h0a1.5,1.5,0,0,1-1.27.69h0A1.51,1.51,0,0,1,44.26,130.57Zm-5.89-4.32h0a1.51,1.51,0,0,1-.2-2.13h0a1.5,1.5,0,0,1,2.12-.2h0a1.51,1.51,0,0,1,.2,2.13h0a1.51,1.51,0,0,1-1.17.55h0A1.52,1.52,0,0,1,38.38,126.25Zm-5.35-5a1.51,1.51,0,0,1,0-2.13h0a1.51,1.51,0,0,1,2.13,0h0a1.51,1.51,0,0,1,0,2.14h0a1.53,1.53,0,0,1-1,.42h0A1.49,1.49,0,0,1,33,121.28Zm-4.74-5.55h0a1.52,1.52,0,0,1,.29-2.11h0a1.51,1.51,0,0,1,2.11.29h0a1.52,1.52,0,0,1-.29,2.12h0a1.53,1.53,0,0,1-.92.31h0A1.51,1.51,0,0,1,28.29,115.73Zm-4.06-6.06h0a1.51,1.51,0,0,1,.54-2.07h0a1.51,1.51,0,0,1,2.06.54h0a1.51,1.51,0,0,1-.54,2.07h0a1.51,1.51,0,0,1-.76.21h0A1.52,1.52,0,0,1,24.23,109.66Zm-3.33-6.49a1.51,1.51,0,0,1,.77-2h0a1.52,1.52,0,0,1,2,.77h0a1.52,1.52,0,0,1-.77,2h0a1.51,1.51,0,0,1-.61.12h0A1.51,1.51,0,0,1,20.9,103.17Zm-2.55-6.84h0a1.5,1.5,0,0,1,1-1.88h0a1.5,1.5,0,0,1,1.88,1h0a1.52,1.52,0,0,1-1,1.89h0a1.53,1.53,0,0,1-.44.07h0A1.51,1.51,0,0,1,18.35,96.33Zm-1.74-7.09a1.51,1.51,0,0,1,1.22-1.76h0a1.51,1.51,0,0,1,1.76,1.21h0a1.5,1.5,0,0,1-1.21,1.76h0a1.37,1.37,0,0,1-.27,0h0A1.52,1.52,0,0,1,16.61,89.24ZM15.71,82a1.52,1.52,0,0,1,1.41-1.6h0a1.51,1.51,0,0,1,1.61,1.41h0a1.52,1.52,0,0,1-1.41,1.6h-0.1A1.52,1.52,0,0,1,15.71,82Z"/><path class="cls-2" d="M104.16,133.5a1.52,1.52,0,0,1,.69-2h0a1.51,1.51,0,0,1,2,.69h0a1.52,1.52,0,0,1-.69,2h0a1.5,1.5,0,0,1-.67.16h0A1.51,1.51,0,0,1,104.16,133.5Zm6.28-3.37a1.51,1.51,0,0,1,.44-2.09h0a1.52,1.52,0,0,1,2.09.45h0a1.51,1.51,0,0,1-.44,2.09h0a1.54,1.54,0,0,1-.82.24h0A1.5,1.5,0,0,1,110.44,130.12Zm5.84-4.07a1.51,1.51,0,0,1,.21-2.13h0a1.51,1.51,0,0,1,2.13.2h0a1.51,1.51,0,0,1-.21,2.13h0a1.52,1.52,0,0,1-1,.35h0A1.51,1.51,0,0,1,116.29,126Zm5.34-4.72a1.51,1.51,0,0,1,0-2.14h0a1.51,1.51,0,0,1,2.13,0h0a1.5,1.5,0,0,1,0,2.13h0a1.49,1.49,0,0,1-1.09.47h0A1.5,1.5,0,0,1,121.62,121.33Zm4.76-5.31a1.51,1.51,0,0,1-.29-2.12h0a1.51,1.51,0,0,1,2.11-.29h0a1.5,1.5,0,0,1,.29,2.11h0a1.51,1.51,0,0,1-1.2.6h0A1.5,1.5,0,0,1,126.38,116Zm4.11-5.83a1.51,1.51,0,0,1-.54-2.06h0a1.51,1.51,0,0,1,2.07-.54h0a1.52,1.52,0,0,1,.54,2.07h0a1.51,1.51,0,0,1-1.3.75h0A1.48,1.48,0,0,1,130.49,110.19Z"/><path class="cls-2" d="M11.67,69.77l0.72-3.68a4.38,4.38,0,0,1,.54-1.47,3.18,3.18,0,0,1,.88-1,2.74,2.74,0,0,1,1.11-.46,3.41,3.41,0,0,1,1.24,0,3.33,3.33,0,0,1,1.6.75,3.17,3.17,0,0,1,.92,1.42L23.08,64,22.6,66.43l-4,1.13-0.24,1.25L22,69.52,21.57,71.7Zm5.17-2.69a1.27,1.27,0,0,0-1-1.59,1.33,1.33,0,0,0-1,.17,1.35,1.35,0,0,0-.55.91l-0.27,1.38,2.63,0.51Z"/><path class="cls-2" d="M14.51,57.91L17,51.49l1.86,0.73-1.68,4.3L19,57.23l1.3-3.34,1.8,0.7-1.3,3.34,2,0.79,1.8-4.61,1.87,0.73-2.63,6.74Z"/><path class="cls-2" d="M20.78,44.44l1.35-2.14,10.51,2.26L31.3,46.67l-2.37-.58-1.9,3L28.58,51,27.3,53Zm6.36,1.17-3.88-1,2.56,3.1Z"/><path class="cls-2" d="M51.32,17.24l2.33-.75L57.31,23l-0.48-7.24,2-.64,3.86,6.15-0.85-7.4,2.25-.73,0.65,10.39-2.29.74-3.67-5.75,0.36,6.82-2.29.74Z"/><path class="cls-2" d="M74.22,22.45a5.26,5.26,0,0,1-2.1-.26,5.07,5.07,0,0,1-3-2.6,5.7,5.7,0,0,1-.3-4.19,5.09,5.09,0,0,1,2.56-3,5.5,5.5,0,0,1,4.15-.3,5.1,5.1,0,0,1,3,2.59,5.7,5.7,0,0,1,.3,4.19,5.08,5.08,0,0,1-2.56,3A5.26,5.26,0,0,1,74.22,22.45ZM74.06,20.3A2.69,2.69,0,0,0,75.23,20a2.73,2.73,0,0,0,.85-0.76,3.13,3.13,0,0,0,.49-1.05,3.91,3.91,0,0,0-.18-2.44,3,3,0,0,0-.64-1,2.68,2.68,0,0,0-.95-0.61A2.76,2.76,0,0,0,73.6,14a2.81,2.81,0,0,0-1.18.34,2.66,2.66,0,0,0-.86.74,3,3,0,0,0-.49,1,3.92,3.92,0,0,0,.18,2.44,3.14,3.14,0,0,0,.64,1,2.7,2.7,0,0,0,1,.63A2.74,2.74,0,0,0,74.06,20.3Z"/><path class="cls-2" d="M83.52,12l3.72,0.48a4.38,4.38,0,0,1,1.5.45,3.19,3.19,0,0,1,1,.82,2.75,2.75,0,0,1,.53,1.08,3.42,3.42,0,0,1,.06,1.24,3.32,3.32,0,0,1-.65,1.65,3.16,3.16,0,0,1-1.36,1L90,23.06l-2.49-.32-1.38-3.92-1.26-.16-0.48,3.68L82.22,22Zm3,5a1.38,1.38,0,0,0,1.29-2.17,1.35,1.35,0,0,0-.94-0.49l-1.39-.18-0.34,2.66Z"/><path class="cls-2" d="M95.57,14.11l2.18,0.69-2.42,7.69,4.6,1.45-0.61,1.93-6.78-2.14Z"/><path class="cls-2" d="M106.26,17.8l3.36,1.8a7.36,7.36,0,0,1,1.76,1.29,4.66,4.66,0,0,1,1.07,1.62,4.15,4.15,0,0,1,.24,1.93,5.94,5.94,0,0,1-.73,2.2,5.41,5.41,0,0,1-1.39,1.73,4.37,4.37,0,0,1-1.73.84,4.7,4.7,0,0,1-1.95,0,7.2,7.2,0,0,1-2-.75l-3.35-1.8Zm-0.57,8.84a3.21,3.21,0,0,0,2.43.4,2.91,2.91,0,0,0,1.75-1.54,4,4,0,0,0,.43-1.2,2.53,2.53,0,0,0,0-1.13,2.58,2.58,0,0,0-.57-1,4,4,0,0,0-1.14-.86l-1.23-.66L104.46,26Z"/><path class="cls-2" d="M122.28,30.9l-2.38-2.24,1.38-1.46,6.42,6-1.38,1.46L124,32.48l-5.54,5.88-1.67-1.58Z"/><path class="cls-2" d="M124.88,46.38a5.25,5.25,0,0,1-.87-1.93,5.08,5.08,0,0,1,.69-3.88,5.7,5.7,0,0,1,3.43-2.43,5.09,5.09,0,0,1,3.88.64,5.49,5.49,0,0,1,2.4,3.39,5.09,5.09,0,0,1-.68,3.88,5.7,5.7,0,0,1-3.43,2.43,5.07,5.07,0,0,1-3.89-.64A5.25,5.25,0,0,1,124.88,46.38Zm1.75-1.24a2.67,2.67,0,0,0,2,1.16,3.12,3.12,0,0,0,1.15-.12,3.91,3.91,0,0,0,2-1.42,3,3,0,0,0,.49-1,2.68,2.68,0,0,0,0-1.13,2.76,2.76,0,0,0-.49-1.12,2.8,2.8,0,0,0-.9-0.84,2.65,2.65,0,0,0-1.08-.35,3,3,0,0,0-1.15.12,3.91,3.91,0,0,0-2,1.42,3.12,3.12,0,0,0-.5,1,2.69,2.69,0,0,0,0,1.14A2.74,2.74,0,0,0,126.63,45.14Z"/><path class="cls-2" d="M138.61,49l0.9,2.12L134,53.45a3.76,3.76,0,0,0-.79.44,1.78,1.78,0,0,0-.51.57,1.5,1.5,0,0,0-.18.72,2.33,2.33,0,0,0,.21.9,2.29,2.29,0,0,0,.5.77,1.5,1.5,0,0,0,.65.37,1.77,1.77,0,0,0,.76,0,3.79,3.79,0,0,0,.87-0.26l5.5-2.34,0.91,2.13-5.76,2.46a4.54,4.54,0,0,1-1.65.38,3.6,3.6,0,0,1-1.52-.27,3.9,3.9,0,0,1-1.3-.9,4.85,4.85,0,0,1-1-1.5,5,5,0,0,1-.42-1.73,3.74,3.74,0,0,1,.25-1.56,3.66,3.66,0,0,1,.86-1.29,4.54,4.54,0,0,1,1.41-.92Z"/><path class="cls-2" d="M143.45,61.71l0.78,3.67a4.39,4.39,0,0,1,.07,1.56,3.18,3.18,0,0,1-.44,1.23A2.74,2.74,0,0,1,143,69a3.42,3.42,0,0,1-1.15.47,3.32,3.32,0,0,1-1.77-.07,3.16,3.16,0,0,1-1.4-.95l-3.49,3L134.68,69l3.24-2.6-0.26-1.24L134,66l-0.46-2.18Zm-3.7,4.49a1.38,1.38,0,0,0,2.47.5,1.35,1.35,0,0,0,.15-1.05l-0.29-1.38-2.62.55Z"/><path class="cls-2" d="M60.44,141.73a3,3,0,0,1,.61-1.26,4.79,4.79,0,0,1,1-.9,8,8,0,0,1,1.2-.66l1.17-.54a5.83,5.83,0,0,0,.92-0.53,1.11,1.11,0,0,0,.47-0.65,1,1,0,0,0-.13-0.73,1.23,1.23,0,0,0-.86-0.52,1.59,1.59,0,0,0-.61,0,1.89,1.89,0,0,0-.93.41L63,136.6l-1.3-1.43a3.86,3.86,0,0,1,.64-0.53,3.52,3.52,0,0,1,.86-0.42,4,4,0,0,1,1.06-.19,4.59,4.59,0,0,1,1.26.13,3.93,3.93,0,0,1,1.33.55,3.06,3.06,0,0,1,.84.82,2.46,2.46,0,0,1,.39,1,2.62,2.62,0,0,1,0,1,2.59,2.59,0,0,1-.56,1.13,4.38,4.38,0,0,1-.93.81,8.39,8.39,0,0,1-1.11.61l-1.09.5a5.75,5.75,0,0,0-.87.5,1,1,0,0,0-.44.6l3.88,0.89-0.43,1.89L60.15,143Z"/><path class="cls-2" d="M74.21,145.54A3.27,3.27,0,0,1,71.5,144a4.7,4.7,0,0,1-.61-1.65,8.46,8.46,0,0,1-.11-2.07,8.22,8.22,0,0,1,.36-2,4.53,4.53,0,0,1,.81-1.53,3.36,3.36,0,0,1,1.24-.94,3.53,3.53,0,0,1,1.66-.26,3.62,3.62,0,0,1,1.64.47,3.21,3.21,0,0,1,1.11,1.08,4.59,4.59,0,0,1,.59,1.61,8.53,8.53,0,0,1,.1,2,8.79,8.79,0,0,1-.35,2,4.67,4.67,0,0,1-.79,1.56,3.3,3.3,0,0,1-1.24,1A3.54,3.54,0,0,1,74.21,145.54Zm0.14-2a1.08,1.08,0,0,0,.72-0.2,1.8,1.8,0,0,0,.52-0.63,3.64,3.64,0,0,0,.33-1,8.3,8.3,0,0,0,.16-1.2,7.21,7.21,0,0,0,0-1.18,3.61,3.61,0,0,0-.22-1,1.68,1.68,0,0,0-.44-0.66,1.2,1.2,0,0,0-1.4-.09,1.67,1.67,0,0,0-.52.6,3.4,3.4,0,0,0-.33.93,7.79,7.79,0,0,0-.16,1.17,8.17,8.17,0,0,0,0,1.21,3.65,3.65,0,0,0,.21,1,1.79,1.79,0,0,0,.44.69A1.1,1.1,0,0,0,74.35,143.57Z"/><path class="cls-2" d="M82.12,143.51l1.64-.16-0.5-5.27-1.5,1-1.08-1.57,2.67-1.82,1.79-.17,0.73,7.64,1.55-.15,0.18,1.85-5.3.51Z"/><path class="cls-2" d="M92,144q0.05-1,.21-2.16t0.36-2.32q0.2-1.14.42-2.12t0.42-1.58l-4.08,1L88.9,135l6.24-1.56,0.44,1.78q-0.25.86-.48,1.91t-0.4,2.16q-0.17,1.1-.29,2.19t-0.15,2Z"/><path class="cls-2" d="M130.73,102.37l0.88-.28a3.19,3.19,0,0,0,2-1.9l1.32-3.45-7.06-1.06,0.53-1.38,6.12-.93a3.18,3.18,0,0,0,2.49-2l0.78-2c0.2-.53,1.2-2,1.74-1.84s0.5,2,.27,2.6L139,92.17a3.38,3.38,0,0,0,.47,3.24l3.82,5-0.53,1.38-5.83-4.27L135.59,101a3.37,3.37,0,0,0,.19,2.8l0.45,0.84L135.7,106l-2.45-1.91-3-.37Z"/><path class="cls-2" d="M135.7,106.52a0.49,0.49,0,0,1-.3-0.1L133,104.59l-2.91-.35a0.49,0.49,0,0,1-.4-0.66l0.53-1.38a0.49,0.49,0,0,1,.31-0.29l0.88-.29a2.69,2.69,0,0,0,1.68-1.61l1.1-2.88-6.46-1a0.49,0.49,0,0,1-.39-0.66l0.53-1.38a0.49,0.49,0,0,1,.38-0.31l6.12-.93a2.7,2.7,0,0,0,2.1-1.71l0.78-2c0.12-.3,1.27-2.46,2.34-2.13a1,1,0,0,1,.58.53,4.41,4.41,0,0,1,0,2.72l-0.81,2.1a2.9,2.9,0,0,0,.4,2.77l3.82,5a0.49,0.49,0,0,1,.07.47L143.2,102a0.49,0.49,0,0,1-.75.22l-5.31-3.89L136,101.19a2.87,2.87,0,0,0,.16,2.39l0.45,0.84a0.49,0.49,0,0,1,0,.41l-0.53,1.38a0.49,0.49,0,0,1-.33.3Zm-4.81-3.18,2.42,0.29a0.49,0.49,0,0,1,.24.1l1.93,1.5,0.21-.55-0.34-.64a3.86,3.86,0,0,1-.21-3.21l1.32-3.45a0.49,0.49,0,0,1,.75-0.22l5.31,3.89,0.2-.53-3.65-4.83a3.89,3.89,0,0,1-.54-3.71l0.81-2.1a3.72,3.72,0,0,0,0-1.91,4.36,4.36,0,0,0-1.13,1.5l-0.78,2a3.68,3.68,0,0,1-2.87,2.33l-5.84.89-0.21.54,6.46,1a0.49,0.49,0,0,1,.39.66l-1.32,3.45a3.67,3.67,0,0,1-2.3,2.19l-0.66.21Z"/><path class="cls-2" d="M26.78,36l1.55-1.68,5.92,5.47,3.27-3.55L39,37.6l-4.82,5.22Z"/><path class="cls-2" d="M35.15,27.5l1.75-1.27,4.91,2.29-0.69-5.34,1.76-1.28,6.3,7.9-1.85,1.34L43.23,26l0.62,4.41-1,.69-4.07-1.85,3.63,5.46L40.69,36Z"/><path class="cls-3" d="M78.33,36.46a42.69,42.69,0,0,0-30.19,72.89A42.69,42.69,0,1,0,108.52,49,43.17,43.17,0,0,0,78.33,36.46"/><path class="cls-4" d="M35.63,79.16a42.69,42.69,0,0,0,72.89,30.19,42.68,42.68,0,0,0,0-60.37,42.55,42.55,0,0,0-11.9-8.34,33.84,33.84,0,0,0-10.7.8c-7.78,1.85-14.79,6.39-22.66,7.83a30.18,30.18,0,0,1-14.46-.93L48.13,49a43.22,43.22,0,0,0-12.5,30.19"/><path class="cls-5" d="M48.14,109.35A42.7,42.7,0,0,0,121,79.16a43.28,43.28,0,0,0-9.31-26.6,41.24,41.24,0,0,1-20.67,6.26c-9.75.24-19.31-3-29.06-3.1a45.82,45.82,0,0,0-22.47,5.75,42.52,42.52,0,0,0,8.62,47.88"/><path class="cls-6" d="M48.14,109.35A42.7,42.7,0,0,0,121,79.16a41.22,41.22,0,0,0-.58-6.87,39.54,39.54,0,0,0-33.52-7.56c-5.28,1.22-10.25,3.5-15.24,5.62S61.56,74.46,56.17,75a31.25,31.25,0,0,1-19.63-4.57,41.45,41.45,0,0,0-.93,8.7,43.23,43.23,0,0,0,12.52,30.17"/><path class="cls-7" d="M48.14,109.35a42.69,42.69,0,0,0,72.8-27.68,45.87,45.87,0,0,1-27,1.66C88.09,81.88,82.59,79.26,77,76.87s-11.29-4.61-17.29-5.21a33.55,33.55,0,0,0-17.8,3.17,32.77,32.77,0,0,0-6.31,4v0.33a43.17,43.17,0,0,0,12.51,30.19"/><path class="cls-8" d="M78.33,121.86A42.7,42.7,0,0,0,121,80a37.14,37.14,0,0,0-22.46-.8c-9.75,2.78-17.93,9.42-27.37,13.12A48.84,48.84,0,0,1,38,92.89a42.56,42.56,0,0,0,40.38,29"/><path class="cls-2" d="M78.33,121.86a42.59,42.59,0,0,0,41.1-31.31A41.46,41.46,0,0,1,87,96.88c-9.45-2.08-18-7.42-27.61-8.72a34.5,34.5,0,0,0-21.58,4.28,42.58,42.58,0,0,0,40.55,29.42"/><path class="cls-9" d="M78.33,121.86a43.17,43.17,0,0,0,30.19-12.51,42.65,42.65,0,0,0,6.85-9,63,63,0,0,0-28,3.32c-4.65,1.68-9.11,3.9-13.85,5.29a42,42,0,0,1-22.86.19c-1.37-.38-2.72-0.83-4-1.34,0.48,0.53,1,1.05,1.48,1.55a43.17,43.17,0,0,0,30.19,12.51"/></svg>