<svg id="Layer_1" data-name="Layer 1" xmlns="http://www.w3.org/2000/svg" xmlns:xlink="http://www.w3.org/1999/xlink" viewBox="0 0 1263.99 365"><defs><style>.cls-1{fill:url(#linear-gradient);}.cls-2{opacity:0.3;}.cls-3,.cls-4{fill:#59569e;}.cls-4{fill-opacity:0.4;}.cls-5{fill:#cf509c;}</style><linearGradient id="linear-gradient" x1="450.76" y1="427.18" x2="751.65" y2="-218.08" gradientUnits="userSpaceOnUse"><stop offset="0" stop-color="#99519f"/><stop offset="0.18" stop-color="#824f97"/><stop offset="0.52" stop-color="#5a4a8a"/><stop offset="0.86" stop-color="#424882"/><stop offset="1" stop-color="#39477f"/></linearGradient></defs><title>realm-world-tour-map</title><path class="cls-1" d="M989.71,338.36a0.42,0.42,0,0,0,.21.23A0.41,0.41,0,0,1,989.71,338.36Zm-25.09-19.61c-2.36.68,7.72,15.33,11.79,22.09,0,0,22.65,21.44,31.37,21.44S990.14,339,989.92,338.7C981.45,332,966.76,317.4,964.62,318.75Zm10-18c-0.43,3.27,12,35.84,15.12,37.53s4.5,0.79,6.11-4.06c1-3-7.72-11.61-13-20.74-3.22-5.64-2.79-11.27-5.15-16a4.4,4.4,0,0,1-1.61.68c-0.11.11-.11,0.23-0.21,0.34v-0.23C975.23,298.46,974.91,298.91,974.59,300.72Zm70,40.24c1.82-9,1.5-18.93-2.79-27.5-8.69,7.44-16.4,14.09-23.8,21.19-1.29,1.24-3,4.4-4.07,6.31,0,0,6.3,21.33,16.26,21.33S1044.6,341,1044.6,341Zm16.08-82.84c-2.14,2-5.68,3.72-6.22,6.2-1.72,9.24-2.25,18.71-3.32,27.73,4.72-4.85,9.65-9.81,14.9-15.22-3-1-5.79-1.92-8.9-2.93A27.72,27.72,0,0,0,1059,269C1059.72,265.44,1060.15,261.83,1060.69,258.11Zm1.82,51.62c1.61,0.9,3.86,3.61,4.4,3.16a87.89,87.89,0,0,0,7.93-8.9h-16.73c-0.11,1.35-.32,2.71-0.43,4.06C1059.29,308.61,1061,308.83,1062.51,309.73ZM325.1,243.23c-6.65-4.17-12.22-14.09-23.48-1.47,6.22,0,10-.68,13.51.23a12.42,12.42,0,0,1,4,1.8C320.81,243.91,323.7,244.36,325.1,243.23ZM811.81,9.59c7,6.76,13.72,4.17,16.08-5.52A7.44,7.44,0,0,1,831.18,0H816c-0.66.62-1.31,1.25-2,1.92C812.45,3.5,811.16,8.91,811.81,9.59ZM334.75,250.45c6.33-.23.43-1.47-0.86-5.64-2.25.45-3.43-.23-5,0.11a5.26,5.26,0,0,0-4,2.37c1.39,0.56,2.25,2.37-4.29,3.16C319.84,250.56,329.28,251.24,334.75,250.45ZM1130.16,0l-0.08.12c9.11,3,20.16,8.23,31.63,10.37,16.4,3,33.24,3.38,49.75,5.64,5.36,0.68,14.69,6.42,15.23,5.18,6.76-13.64,16.19-3,23.91-4.06,10.83-2.14,16,8.45,12.12,20.17-1.39,4.06-2,8.45-3.65,15.33-14.37,2.71-31.2,5.52-48,9.13-3,.68-7.72,4.62-7.83,7.1-0.43,21.64-18.87,26.15-25.73,41.93-0.86-8.34-3.22-15.44-1.72-21.19,2-7.89,6.65-15.1,10.83-22,1.72-2.82,5.36-4.06,8-6-1.29-2.25-2.79-6.65-4-6.54-3.22.23-7.18,1.35-9.44,3.83-8.58,9.35-18.12,8.11-28.63,6.65-8.26-1.13-17.48-1.13-25,2.37-7.29,3.38-12.87,11.95-20.27,19.27,8,2.71,19.62,2.48,23.59,8.79,4.29,6.88,1.72,19.84,2,30.09-1.5.34-2.89,0.79-4.4,1.13-1.07-6.88-2.14-13.75-3.11-20.29-4.61,7.55-8.58,16.34-14.47,22.77a48.24,48.24,0,0,1-19,12.29c-8.79,3.16-14.26,14.88-12,25.36,1.07,5-2.57,11.27-4.07,16.91-2.36-.9-6-1.13-6.65-2.93-2.25-6-3.22-12.62-5.15-18.82-0.54-1.69-2.57-2.93-4.18-3.72-2.68-1.24-5.58-1.8-11.37-3.61-0.86,1-4,5.07-7.08,9.13,4.5,2,9,4.17,14.47,6.76-12.22,6.65-6.22,14.88-2.25,24.34,3.86,9.13,2.47,18.37-5.58,25.13-10.29,8.57-11.92,25.25-27.9,23.44-0.75-.11-2,3.72-2.79,5.86-1.29,3.61-2.25,7.33-3.43,11-1.18-.45-3.32-1-3.32-1.47,0-3.61.43-7.21,0.75-10.82a6.14,6.14,0,0,0-1-4.73c-3.75,3.94-13.08,4.28-5.25,15.67,3.22,4.73,7.83,9.69,8.15,15,0.54,6.88-1,15.67-4.5,20.74-4.4,6.31-11.79,12.4-17.58-.68-1.93-4.28-5.36-7.66-8-11.38-1.93,3.94-3.86,8.11-7.18,14.76a0.21,0.21,0,0,1-.21.11c-1.61-8.11-2.9-14.09-4-19.95s1.61-17.92-8.58-6.09c-0.43.45-3.65-1-4.29-2.37-0.86-1.69-.32-4.17-0.54-6.31-1.29-16.79-13.19-27.28-24.66-18.15-10.61,8.45-22.73,17.92-25.3,36-1.39,9.81-4.93,19.16-7.4,28.74h-4.61c-5.47-19.5-10.83-39.11-16.3-58.61a23.12,23.12,0,0,1-.32-3.83c-13.19,2.14-9.54-18.6-19.94-20.17-2.25-.34-4.5-0.45-6.75-0.9-9.22-1.8-14-3.83-23.29-5.41-3.32-.56-7.51,1.24-10.19-0.45-5.15-3.49-9.33-8.79-13.94-13.19-1.72-1.69-3.65-3-5.47-4.62-0.43,2.71-1.93,5.75-1.29,8,3.43,13.07,13.08,17.81,23.91,15.33,4.07-.9,9.86,3.72,13.4,7.66,1.82,2,1.61,8.9.11,12.29-12.22,26.94-34.53,33-57.69,37.19,0.11,14.31,4,16.79,15,10.37,4.07-2.37,8.9-3.27,13.3-4.85-1.07,6.2-.54,13.64-3.43,18.26-6.9,11.28-25.55,46.46-33.1,57.86H646c1-4,11.93-29.75,12.45-31.82,2.79-9.92-.32-9.81-7-9.24-3.22.23-8.79-1.47-9.54-3.94-3.65-11.83-9.11-7.33-15.76-4.62-7.93,3.16-17.48,2.25-24.34,7-12.44,8.68-14.58-4.51-20.05-10.48s-10.94-12.51-16.08-19.16c-1.82-2.37-4.07-6.54-3.54-8.9,6.11-24.23-5.15-54.44,19.09-72.92,5.9-4.51,6.75-18.71,12.65-22.32,13.4-8.23,28.41-13.19,43-18.48a26.39,26.39,0,0,1,16.4-.68c3.43,1,6.11,6.54,8.58,10.59,1.72,2.82,2,8.79,4,9.35,10.94,3.61,20.05,17.24,34.2,4.51,5.15-4.62,17.58.79,26.38,2.93,15.55,3.83,24.55-1,25-15.55,0.11-2.25-3.32-6.31-5.47-6.65-6.11-1.13-13,1-18.44-1.47-4.4-2-7.08-9.13-10.4-14l-3.86-5.75c-1.5,2.59-3.32,5.07-4.4,7.89-1.39,3.61-2.14,7.66-3.22,11.5-2.68-2.48-6.22-4.28-7.83-7.55-10.08-19.5-17.37-27.73-32-32.57,5.58,5.86,8.68,11.16,13,13.3,13.3,6.42,7.61,12.51,1.29,22.43C677,165.47,678,158.25,675,155.1c-5.25-5.52-10.51-10.82-16.62-14-5.9-3-15.87-.56-22,3.61s-8.36,14.88-14,20.06-6.33,12.17-13,11.27-23.16-6.09-20.16-22c2.25-11.5,3.43-15.22,13.3-14.76,5.25,0.23,1.72.45,7-1.47-0.11-8.45-4.93-15.78-8.9-21.3,2-.79,16.51-2.82,24.12-5.52l7.08-7.33c0.21,0.34,3.86-1.69,5.15-3.38,5.25-7.1,16.83-6.65,17-19.61,2.47,0.11,6.11-1,7.18.45,9.86,14.2,29.59,12.06,38.06-2.93,3.11-5.52,10.72-8.11,16.62-10.93,3.43-1.58,7.61-1,11.37-1.47,0-1.47-.11-2.93-0.11-4.28-5,0-10.19.68-15.12-.23-4-.68-8.69,0-11.58-4.73-1.93-4.28,3.86-8.79,6.43-12.74,1.39-2.25,4.07-3.38,6.11-5.07,1-2.25.11-4.28-2.25-4.28s-15.33,12.06-15.33,12.06c-2.79,4.28-2.57,14.54-3.75,17.13s-7,6.42-8.26,9C680,79.36,678,86,670,83.86c-3.32-.9-5.25-9.35-7.93-14.76-7.83,4.06-12.22,2.93-13-14.65-0.21-4.73-.11-4.17,3.86-8,5.58-5.41,12.87-8.57,18.23-14.2C681.92,21,694,2.57,706.63,0h6.86C725,1.77,739.88,11.09,746,21c1.5,2.48-4.82,12.4-3,14.88,5,3,19.19-12.4,24.23-9.35,6.65,4.06,12.33,11,16.4-2.82,0.21-.68,2.9-0.9,4.18-0.45,13.4,5,41.07,1.47,54.79-5.07,4.82-2.25,11.47.23,17.16,1.24,3.22,0.56,6.33,2.37,9.44,3.72-1.72-3.72-3.43-7.33-7-15.1,7.72-1.47,14.9-2.82,22.09-4.28v30c7.93-1.58,7.51-10.26,7-18.94-0.43-7.66-.54-7.66,5.15-4.85,1,0.45,2.68.9,3,.45,11-17.7,16.19,2.7,28,4.73C922,9.36,918.71,5.76,915.06,1.93q3-.94,6-1.92h114.28c7.27,0.66,14.53,1,21.8,1a22.68,22.68,0,0,0,5.89-1h14c1.87,1.57,3.48,4.33,4.71,8.91,0.32,1.35,3.11,2.7,4.61,2.48,7.18-.79,14.48-1.13,21.34-3.38,3.93-1.24,7.32-5,10.84-8h11.65ZM764.95,150.48c2.68,0,5.25-1.8,7.83-2.82-1.61-2.48-3-5.41-5-7.44-4.29-4.4-8.9-8.45-14.48-13.53-3,4.62-6.86,18.82-13.72.23-0.32-.79-5.47-0.68-6.75.9-3,3.61-5.9,8-6.86,12.62-0.54,2.7,2.36,9.35,4.07,9.47C741.58,150.81,753.26,150.7,764.95,150.48Zm13.51,132c-8.47-22-16.83-44-25.41-65.82-0.54-1.35-2.9-1.8-4.29-2.7-0.43,1.47-1.61,3.49-1.07,4.51C757.34,240.19,760.12,266.45,778.46,282.46Zm27.77-148.21a69.93,69.93,0,0,0,7-1.58,39.07,39.07,0,0,0,6-3.27c-1.39-2.37-3.11-7-4.18-6.76-7.83,1.35-15.44,3.72-23.16,5.75,2.79,6.54,5.47,13.19,8.26,19.72,1.29,3,3.86,6.31,3.43,9-0.43,3.38-3.32,6.31-5.15,9.47,4.18,2.25,8.36,4.62,13.51,7.44,2.36-2.59,6.43-5.52,6.11-6.88-2-8.45-5-16.57-7.83-24.68A71.51,71.51,0,0,0,806.23,134.25Zm-481,182.7c0.21-4.28-.43-14.43-11.47-9.24-4.18,2-13.4-9.58-19.94-15.44-3.75-3.27-6.33-9-10.4-10.82-12.33-5.3-26.05-6.88-37.31-14.2-9.22-6-15.76-17.81-23.05-27.5-8.15-10.82-15.65-22.32-25.52-32.12,5,9.58,10.08,19,15.12,28.63-1.29,1-2.57,2-3.86,2.93-6.22-10.71-12.12-21.64-18.76-31.9-8.69-13.41-18.87-25.7-26.7-39.79-4.18-7.66-6.43-18.15-6.33-27.39,0.11-12.4-.32-22-10.83-29.64-5.9-4.28-8.47-14.54-13.51-23.67-0.54,5.18-.75,8.11-1.07,11-2.36-2.25-5.9-3.94-7-6.88-9.11-24.57-35.92-37-58-28.52-2.68,1-6.22-1-8.79.11-1.82.79-2.57,4.73-3.65,7.33-1.29,3.27-1.82,9-3.54,9.47-12.22,3.38-24.66,5.75-39.46,9C20.48,82.06,27.88,77,38.39,69.89c-10.61-2.48-17.91-3.49-24.88-6-2.79-.9-7-5.52-6.65-7.21A20.47,20.47,0,0,1,13.4,46.33c2.36-2,6.11-1.92,10.72-3-9.11-1.13-16.62-2-24.12-3l0.32-6.09H21.66a16.69,16.69,0,0,0,.54-2.48C17.8,30,12.87,27.74,7,25.14,18.66,13,31.52,8.35,46.32,10.15c16.83,1.92,33.77,2.93,50.39,6.09,21.77,4.17,43.21-5.64,64.76-.9,7.29,1.58,14.69,3.27,23.27,5.18-3.86-6.76-5.58-15-16.19-10.26-4.07,1.8-9.65-1.47-14.47-2.59-0.21,0-.32-3.38.21-3.72,2.24-1.36,4.51-2.72,6.83-3.95h64c2.18,5.08,9.53,11.18,14.52,17.81-3,1.92-7.83,5.07-16.19,10.48,10.29,0,17,.23,23.8-0.11a5.77,5.77,0,0,0,4.29-3c1.29-2.71,1.61-6,2.36-9,1.29,2.82,2.36,6,4.07,8.45,1.18,1.69,4.07,4.06,4.61,3.61,1.72-1.58,3.75-4.17,3.75-6.42,0-4.4-1.18-8.79-2.25-15.55,10.08,7.66,18.34,14,27.66,21.19,1.18-2.14,3.32-5.64,5.36-9.24-2.14-1-4.5-1.69-6.54-3-3.65-2.48-7.18-5.3-10.83-7.89C281.67,5,283.49,1,285.42,1c3.86-.11,7.83,1.92,11.15,1.47,10.61-.34,21.34-2.25,31.74-0.68,9.33,1.35,18.55,5.64,27,10.48,7.08,4.06,13,10.82,19.62,16,2.68,2,5.9,3,9,8.11H365.31c2.47,4.85,4.82,9.47,7.29,14.09-5.9.23-11.9,1.47-17.69,0.45-9.54-1.69-19-4.73-28.41-7.55-1.39-.45-2.36-2.48-3.54-3.72,1.39-1.13,2.68-2.59,4.18-3.27,4.61-2.25,9.33-4.17,12.87-10.14-3.75,1.58-7.61,3.27-11,4.73-0.32-4.62.11-11.5-.86-11.72-4.82-1.24-10-1-15-.79-0.32,0,.54,6.65-0.75,7.89-4.18,3.94-9.11,6.88-12.54,9.35a40.1,40.1,0,0,1,7.4,3.27c2.68,1.8,4.93,4.73,7.4,7.21-2.57-.79-5.36-2.7-7.83-2.37-12,1.47-25-5-35.28,10.26-7.08,10.48-8.58,15.55,2.57,21.08,7.51,3.72,16.08,4.73,23.7,8.23,5.9,2.7,11.15,7.21,16.51,11.27,1.93,1.47,3.54,3.72,5.25,5.64,0.32-3,1-6.09.86-9.13-0.11-2-1.18-4.06-1.93-6.42,7.83-.79,13.62-2.93,7.18-14.31C320.38,61.32,325,51,333.89,53c8,1.8,15.23,8.68,23.05,12.85,2.57,1.35,7.51,2.37,8.47.9,6.11-9.24,9.33-2.93,13.62,2.14,5.15,6.09,11.15,11,16.19,17.24,4.18,5.07,13.19,8.34,7,19-0.54.79,1.72,4.62,3.22,6.09,2.68,2.59,5.9,4.51,7.72,10.71-6.65-.79-13.19-1.47-19.84-2.25,1.5-4.62,2.9-9.24,4.72-15-4,1.92-7.51,4.73-11.37,5.41-4.18.79-8.68-.68-13-0.23-4.72.45-9.33,2-11.79,2.59,4.07,3.27,7.72,7,12,9.47,3.32,1.92,7.61,1.58,10.94,3.61,2,1.24,3,5.07,4.4,7.78-7.51,2.37-14.9,5.3-22.52,6.88-3.43.68-10.08-2.59-10.4-1.69-5.36,14.76-24.23,16.79-24.66,36.86-0.11,5-7,10.71-11.79,14.09-7.29,5.18-9.33,10.26-5.25,19.61,1.93,4.51,1.18,10.59-1.5,16.91-2.36-3.61-5.58-6.88-7-11-4.72-14.76-13.08-15.44-23.91-10.26-2.89,1.35-7-.79-9.76.68-6.22,3.27-16,6.76-16.94,12.06-1.93,10.37.11,22.32,2.79,32.8,0.75,2.93,9.86,4.85,14.69,3.83,4.18-.79,7.29-7.78,11.58-9.35,5.58-1.92,9.33.11,6,9-3,8.11-8.36,19.5,7.83,16.91,1.72-.23,6,7.1,6.11,11,0.32,11.38-2.79,18.26,13.94,19.39,14.9,1,17.16-14.43,28.63-15.33-0.21,4.51-.43,8.79-0.75,14.54,4.4-5.41,5.58-18.94,14.26-6,1.61,2.37,8.68-1.35,12.54.23,5.9,2.37,29.08,16.5,34.34,20.44,12.52,22.75,40.9,18.57,57.27,25.23,9.93,4,6.15,16,1.63,24.81h-149l0.71-25.06c0.11-.45.11-0.79,0.21-1.24C319.84,331.15,324.78,324.38,325.2,316.95Zm-32.6-170.3c2.9-6.31,2.57-18.26,9-19.39s6.22,8.23,9.86,13.19c1.18-5.41,2.14-10.14,3.32-15.55C289.39,122.3,286.39,125.45,292.61,146.64ZM594.25,85.89c-3.32,4.06-5.79,9.24-7.93,14.31-0.32.9,3.22,5.18,3.43,5.07,4.07-2.93,8.36-5.75,11.47-9.92,1.39-1.8.21-6.2,0.11-9.58C598.76,85.67,595.32,84.54,594.25,85.89Zm7-.45,0.21,0.11A0.37,0.37,0,0,0,601.22,85.44ZM528.39,32.7c-2.14,1-4.29,2-6.54,3,1.5,2.59,2.9,15.33,4.5,15.44,10,0.68,13.51-7.78,23.59-8.68,1.72,0,3-2.93,4.5-4.62-2-1.35-4.18-3.83-6.22-3.94-6.43,0-12.87.9-19.41,1.35C528.71,34.39,528.5,33.6,528.39,32.7Zm73,53-0.21-.23v0.23h0.21ZM243.07,5.87c1.82,1.13,3,3.38,4.5,5.07,2.25-2.82,4.61-5.64,6.86-8.34C248.86,1.7,243.29.8,237.71,0c-0.11,1.47-.32,3-0.54,4.51C239.21,5,241.36,4.86,243.07,5.87ZM1057.8,364.46c1.05-1.81,1.76-5.33,4.58-4.95,1.28,0.17,2.39,1,3.63,1.33s2.89,0.1,3.32-1.12a2.49,2.49,0,0,0,.06-1.23c0-.15-0.05-0.29-0.08-0.44-3.4-15.85-14.31-5.41-15,5.46a1.6,1.6,0,0,0,.74,1.48h2.24A1.7,1.7,0,0,0,1057.8,364.46Zm75-219.62c2.79-.11,5.47-1.8,10.08-3.38-18.66-9.92-23.48-7.33-24.55,12.51-0.86,16.34-10.19,19.39-21.23,22.32-5.47,1.47-10.51,5.86-15.12,9.92-0.86.79,0.64,6.09,1.82,8.9,0.32,0.79,3.65.45,5.36-.34,5.15-2.14,10-5,15.12-6.88,11.26-4.17,23.37-20.74,20.69-30.77C1122.36,147.32,1125.47,145.07,1132.76,144.84ZM403.69,2.6C409.05,18.27,414,34.72,422,48.47c4.4,7.44,14.69,10.82,22.84,14.2,1.5,0.68,5.47-6.88,8.47-10.37,4.72-5.41,8.9-13.07,14.58-15.55,12-5.18,24.77-10.26,37.31-10.71,15.4-.51,16.63-20.23,27.31-26H402.66Q403.21,1.22,403.69,2.6Zm215.54,105c21.66-7.1,1.29-22.09-2.57-28.4-2.36-3.72-6.54-22-9.44-22.77-3.54-.9-5.58,14.88-9.54,16.46,1.29,4.17,2.57,8.34,3.75,12.51,2.79,1.58,5.68,3.16,8.15,4.51C599,110.91,611.19,107.2,619.24,107.65Z"/><g class="cls-2"><path class="cls-3" d="M1060.69,258.11c-2.14,2-5.68,3.72-6.22,6.2-1.72,9.24-2.25,18.71-3.32,27.73,4.72-4.85,9.65-9.81,14.9-15.22-3-1-5.79-1.92-8.9-2.93A27.72,27.72,0,0,0,1059,269C1059.72,265.44,1060.15,261.83,1060.69,258.11Z"/><path class="cls-3" d="M1062.51,309.73c1.61,0.9,3.86,3.61,4.4,3.16a87.89,87.89,0,0,0,7.93-8.9h-16.73c-0.11,1.35-.32,2.71-0.43,4.06C1059.29,308.61,1061,308.83,1062.51,309.73Z"/><path class="cls-3" d="M1044.6,341c1.82-9,1.5-18.93-2.79-27.5-8.69,7.44-16.4,14.09-23.8,21.19-1.29,1.24-3,4.4-4.07,6.31,0,0,6.3,21.33,16.26,21.33S1044.6,341,1044.6,341Z"/><path class="cls-3" d="M1118.51,0c-3.51,3-6.9,6.77-10.84,8-6.86,2.25-14.15,2.59-21.34,3.38-1.5.23-4.29-1.13-4.61-2.48-1.22-4.58-2.84-7.33-4.71-8.91h-14a22.68,22.68,0,0,1-5.89,1c-7.27,0-14.53-.36-21.8-1H921.09q-3,1-6,1.92c3.65,3.83,7,7.44,12.33,13.19-11.79-2-16.94-22.43-28-4.73-0.32.45-2,0-3-.45-5.68-2.82-5.58-2.82-5.15,4.85,0.54,8.68,1,17.36-7,18.94v-30C877.1,5.19,869.92,6.55,862.2,8c3.54,7.78,5.25,11.38,7,15.1-3.11-1.35-6.22-3.16-9.44-3.72-5.68-1-12.33-3.49-17.16-1.24-13.72,6.54-41.39,10-54.79,5.07-1.29-.45-4-0.23-4.18.45-4.07,13.86-9.76,6.88-16.4,2.82-5-3-19.19,12.4-24.23,9.35-1.82-2.48,4.5-12.4,3-14.88-6.09-9.88-21-19.2-32.49-21h-6.86C694,2.57,681.92,21,671.13,32.24c-5.36,5.64-12.65,8.79-18.23,14.2-4,3.83-4.07,3.27-3.86,8,0.75,17.58,5.15,18.71,13,14.65C664.7,74.51,666.63,83,670,83.86c8,2.14,10.08-4.51,13.4-11.16,1.29-2.59,7.08-6.54,8.26-9s1-12.85,3.75-17.13c0,0,13-12.06,15.33-12.06s3.22,2,2.25,4.28c-2,1.69-4.72,2.82-6.11,5.07-2.57,3.94-8.36,8.45-6.43,12.74,2.9,4.73,7.61,4.06,11.58,4.73,4.93,0.9,10.08.23,15.12,0.23,0,1.35.11,2.82,0.11,4.28-3.75.45-7.93-.11-11.37,1.47-5.9,2.82-13.51,5.41-16.62,10.93-8.47,15-28.2,17.13-38.06,2.93-1.07-1.47-4.72-.34-7.18-0.45-0.21,13-11.79,12.51-17,19.61-1.29,1.69-4.93,3.72-5.15,3.38L624.7,111c-7.61,2.7-22.09,4.73-24.12,5.52,4,5.52,8.79,12.85,8.9,21.3-5.25,1.92-1.72,1.69-7,1.47-9.86-.45-11,3.27-13.3,14.76-3,15.89,13.4,21.08,20.16,22s7.18-6.09,13-11.27,8-16,14-20.06,16.08-6.65,22-3.61c6.11,3.16,11.37,8.45,16.62,14,3,3.16,2,10.37,5.15,13.3,6.33-9.92,12-16-1.29-22.43-4.29-2.14-7.4-7.44-13-13.3,14.58,4.85,21.87,13.07,32,32.57,1.61,3.27,5.15,5.07,7.83,7.55,1.07-3.83,1.82-7.89,3.22-11.5,1.07-2.82,2.9-5.3,4.4-7.89l3.86,5.75c3.32,4.85,6,11.95,10.4,14,5.47,2.48,12.33.34,18.44,1.47,2.14,0.34,5.58,4.4,5.47,6.65-0.43,14.54-9.44,19.39-25,15.55-8.79-2.14-21.23-7.55-26.38-2.93-14.15,12.74-23.27-.9-34.2-4.51-1.93-.56-2.25-6.54-4-9.35-2.47-4.06-5.15-9.58-8.58-10.59a26.39,26.39,0,0,0-16.4.68c-14.58,5.3-29.59,10.26-43,18.48-5.9,3.61-6.75,17.81-12.65,22.32-24.23,18.48-13,48.69-19.09,72.92-0.54,2.37,1.72,6.54,3.54,8.9,5.15,6.65,10.51,13.07,16.08,19.16s7.61,19.16,20.05,10.48c6.86-4.73,16.4-3.83,24.34-7,6.65-2.71,12.12-7.21,15.76,4.62,0.75,2.48,6.33,4.17,9.54,3.94,6.65-.56,9.76-0.68,7,9.24C658,335.25,647.05,361,646,365H770.56c7.54-11.4,26.19-46.58,33.1-57.86,2.9-4.62,2.36-12.06,3.43-18.26-4.4,1.58-9.22,2.48-13.3,4.85-11,6.42-14.9,3.94-15-10.37,23.16-4.17,45.46-10.26,57.69-37.19,1.5-3.38,1.72-10.26-.11-12.29-3.54-3.94-9.33-8.57-13.4-7.66-10.83,2.48-20.48-2.25-23.91-15.33-0.64-2.25.86-5.3,1.29-8,1.82,1.58,3.75,2.93,5.47,4.62,4.61,4.4,8.79,9.69,13.94,13.19,2.68,1.69,6.86-.11,10.19.45,9.33,1.58,14.07,3.61,23.29,5.41,2.25,0.45,4.5.56,6.75,0.9,10.4,1.58,6.75,22.32,19.94,20.17a23.12,23.12,0,0,0,.32,3.83c5.47,19.5,10.83,39.11,16.3,58.61h4.61c2.47-9.58,6-18.94,7.4-28.74,2.57-18,14.69-27.5,25.3-36,11.47-9.13,23.37,1.35,24.66,18.15,0.21,2.14-.32,4.62.54,6.31,0.64,1.35,3.86,2.82,4.29,2.37,10.19-11.83,7.61.23,8.58,6.09s2.36,11.83,4,19.95a0.21,0.21,0,0,0,.21-0.11c3.32-6.65,5.25-10.82,7.18-14.76,2.68,3.72,6.11,7.1,8,11.38,5.79,13.07,13.19,7,17.58.68,3.54-5.07,5-13.86,4.5-20.74-0.32-5.3-4.93-10.26-8.15-15-7.83-11.38,1.5-11.72,5.25-15.67a6.14,6.14,0,0,1,1,4.73c-0.32,3.61-.75,7.21-0.75,10.82,0,0.45,2.14,1,3.32,1.47,1.18-3.72,2.14-7.44,3.43-11,0.75-2.14,2-6,2.79-5.86,16,1.8,17.6-14.88,27.9-23.44,8-6.76,9.44-16,5.58-25.13-4-9.47-10-17.7,2.25-24.34-5.47-2.59-10-4.73-14.47-6.76,3.11-4.06,6.22-8.11,7.08-9.13,5.79,1.8,8.69,2.37,11.37,3.61,1.61,0.79,3.65,2,4.18,3.72,1.93,6.2,2.89,12.85,5.15,18.82,0.64,1.8,4.29,2,6.65,2.93,1.5-5.64,5.15-11.95,4.07-16.91-2.25-10.48,3.22-22.2,12-25.36a48.24,48.24,0,0,0,19-12.29c5.9-6.42,9.86-15.22,14.47-22.77,1,6.54,2,13.41,3.11,20.29,1.5-.34,2.9-0.79,4.4-1.13-0.32-10.26,2.25-23.22-2-30.09-4-6.31-15.55-6.09-23.59-8.79,7.4-7.33,13-15.89,20.27-19.27,7.51-3.49,16.73-3.49,25-2.37,10.51,1.47,20.05,2.71,28.63-6.65,2.25-2.48,6.22-3.61,9.44-3.83,1.18-.11,2.68,4.28,4,6.54-2.68,1.92-6.33,3.16-8,6-4.18,6.88-8.79,14.09-10.83,22-1.5,5.75.86,12.85,1.72,21.19,6.86-15.78,25.3-20.29,25.73-41.93,0.11-2.48,4.83-6.42,7.83-7.1,16.83-3.61,33.67-6.42,48-9.13,1.61-6.88,2.25-11.27,3.65-15.33,3.86-11.72-1.29-22.32-12.12-20.17-7.72,1-17.16-9.58-23.91,4.06-0.54,1.24-9.86-4.51-15.23-5.18-16.51-2.25-33.35-2.59-49.75-5.64-11.47-2.14-22.52-7.33-31.63-10.37l0.08-.12h-11.65ZM730,149.91c-1.72-.11-4.61-6.76-4.07-9.47,1-4.62,3.86-9,6.86-12.62,1.29-1.58,6.43-1.69,6.75-.9,6.86,18.6,10.72,4.4,13.72-.23,5.58,5.07,10.19,9.13,14.48,13.53,2,2,3.43,5,5,7.44-2.57,1-5.15,2.82-7.83,2.82C753.26,150.7,741.58,150.81,730,149.91Zm17.69,68.53c-0.54-1,.64-3,1.07-4.51,1.39,0.9,3.75,1.35,4.29,2.7,8.58,21.87,16.94,43.84,25.41,65.82C760.12,266.45,757.34,240.19,747.69,218.44Zm62.51-76C813,150.59,816,158.7,818,167.16c0.32,1.35-3.75,4.28-6.11,6.88-5.15-2.82-9.33-5.18-13.51-7.44,1.82-3.16,4.72-6.09,5.15-9.47,0.43-2.71-2.14-6-3.43-9-2.79-6.54-5.47-13.19-8.26-19.72,7.72-2,15.33-4.4,23.16-5.75,1.07-.23,2.79,4.4,4.18,6.76a39.07,39.07,0,0,1-6,3.27,69.93,69.93,0,0,1-7,1.58A71.51,71.51,0,0,1,810.2,142.47Z"/><path class="cls-3" d="M964.62,318.75c-2.36.68,7.72,15.33,11.79,22.09,0,0,22.65,21.44,31.37,21.44S990.14,339,989.92,338.7C981.45,332,966.76,317.4,964.62,318.75Z"/><path class="cls-3" d="M1057.8,364.46c1.05-1.81,1.76-5.33,4.58-4.95,1.28,0.17,2.39,1,3.63,1.33s2.89,0.1,3.32-1.12a2.49,2.49,0,0,0,.06-1.23c0-.15-0.05-0.29-0.08-0.44-3.4-15.85-14.31-5.41-15,5.46a1.6,1.6,0,0,0,.74,1.48h2.24A1.7,1.7,0,0,0,1057.8,364.46Z"/><path class="cls-3" d="M974.59,300.72c-0.43,3.27,12,35.84,15.12,37.53s4.5,0.79,6.11-4.06c1-3-7.72-11.61-13-20.74-3.22-5.64-2.79-11.27-5.15-16a4.4,4.4,0,0,1-1.61.68c-0.11.11-.11,0.23-0.21,0.34v-0.23C975.23,298.46,974.91,298.91,974.59,300.72Z"/><path class="cls-3" d="M989.92,338.59a0.42,0.42,0,0,1-.21-0.23A0.41,0.41,0,0,0,989.92,338.59Z"/><path class="cls-3" d="M318.34,338.7c-0.11.45-.11,0.79-0.21,1.24L317.42,365h149c4.51-8.8,8.3-20.77-1.63-24.81-16.37-6.66-44.74-2.48-57.27-25.23-5.25-3.94-28.44-18.07-34.34-20.44-3.86-1.58-10.94,2.14-12.54-.23-8.68-13-9.86.56-14.26,6,0.32-5.75.54-10,.75-14.54-11.47.9-13.72,16.34-28.63,15.33-16.73-1.13-13.62-8-13.94-19.39-0.11-3.94-4.4-11.27-6.11-11-16.19,2.59-10.83-8.79-7.83-16.91,3.32-8.9-.43-10.93-6-9-4.29,1.58-7.4,8.57-11.58,9.35-4.83,1-13.94-.9-14.69-3.83-2.68-10.48-4.72-22.43-2.79-32.8,1-5.3,10.72-8.79,16.94-12.06,2.79-1.47,6.86.68,9.76-.68,10.83-5.18,19.19-4.51,23.91,10.26,1.39,4.17,4.61,7.44,7,11,2.68-6.31,3.43-12.4,1.5-16.91-4.07-9.35-2-14.43,5.25-19.61,4.83-3.38,11.69-9.13,11.79-14.09,0.43-20.06,19.3-22.09,24.66-36.86,0.32-.9,7,2.37,10.4,1.69,7.61-1.58,15-4.51,22.52-6.88-1.39-2.71-2.36-6.54-4.4-7.78-3.32-2-7.61-1.69-10.94-3.61-4.29-2.48-7.93-6.2-12-9.47,2.47-.56,7.08-2.14,11.79-2.59,4.29-.45,8.79,1,13,0.23,3.86-.68,7.4-3.49,11.37-5.41-1.82,5.75-3.22,10.37-4.72,15,6.65,0.79,13.19,1.47,19.84,2.25-1.82-6.2-5-8.11-7.72-10.71-1.5-1.47-3.75-5.3-3.22-6.09,6.22-10.71-2.79-14-7-19-5-6.2-11-11.16-16.19-17.24-4.29-5.07-7.51-11.38-13.62-2.14-1,1.47-5.9.45-8.47-.9-7.83-4.17-15-11-23.05-12.85-8.9-2-13.51,8.34-8.26,17.47,6.43,11.38.64,13.53-7.18,14.31,0.75,2.37,1.82,4.4,1.93,6.42,0.11,3-.54,6.09-0.86,9.13-1.72-1.92-3.32-4.17-5.25-5.64-5.36-4.06-10.62-8.57-16.51-11.27-7.61-3.49-16.19-4.51-23.7-8.23-11.15-5.52-9.65-10.59-2.57-21.08,10.29-15.22,23.27-8.79,35.28-10.26,2.47-.34,5.25,1.58,7.83,2.37-2.47-2.48-4.72-5.41-7.4-7.21a40.1,40.1,0,0,0-7.4-3.27c3.43-2.48,8.36-5.41,12.54-9.35,1.29-1.24.43-7.89,0.75-7.89,5-.23,10.19-0.45,15,0.79,1,0.23.54,7.1,0.86,11.72,3.43-1.47,7.29-3.16,11-4.73-3.54,6-8.26,7.89-12.87,10.14-1.5.68-2.79,2.14-4.18,3.27,1.18,1.24,2.14,3.27,3.54,3.72,9.44,2.82,18.87,5.86,28.41,7.55,5.79,1,11.79-.23,17.69-0.45-2.47-4.62-4.82-9.24-7.29-14.09H384c-3.11-5.07-6.33-6.09-9-8.11-6.65-5.18-12.54-11.95-19.62-16-8.47-4.85-17.69-9.13-27-10.48-10.4-1.58-21.12.34-31.74,0.68-3.32.45-7.29-1.58-11.15-1.47-1.93,0-3.75,3.94-5.68,6.2,3.65,2.59,7.18,5.41,10.83,7.89,2,1.35,4.4,2,6.54,3-2,3.61-4.18,7.1-5.36,9.24-9.33-7.21-17.58-13.53-27.66-21.19,1.07,6.76,2.25,11.16,2.25,15.55,0,2.25-2,4.85-3.75,6.42-0.54.45-3.43-1.92-4.61-3.61-1.72-2.48-2.79-5.64-4.07-8.45-0.75,3-1.07,6.31-2.36,9a5.77,5.77,0,0,1-4.29,3c-6.75.34-13.51,0.11-23.8,0.11,8.36-5.41,13.19-8.57,16.19-10.48-5-6.63-12.34-12.73-14.52-17.81h-64c-2.32,1.23-4.59,2.59-6.83,3.95-0.54.34-.43,3.72-0.21,3.72,4.82,1.13,10.4,4.4,14.47,2.59,10.62-4.73,12.33,3.49,16.19,10.26-8.58-1.92-16-3.61-23.27-5.18-21.55-4.73-43,5.07-64.76.9-16.62-3.16-33.56-4.17-50.39-6.09C31.52,8.35,18.66,13,7,25.14c5.9,2.59,10.83,4.85,15.23,6.54a16.69,16.69,0,0,1-.54,2.48H0.32L0,40.25c7.51,1,15,1.92,24.12,3-4.61,1.13-8.36,1-10.72,3A20.47,20.47,0,0,0,6.86,56.7c-0.32,1.69,3.86,6.31,6.65,7.21,7,2.48,14.26,3.49,24.88,6C27.88,77,20.48,82.06,11.15,88.37c14.8-3.27,27.23-5.64,39.46-9,1.72-.45,2.25-6.2,3.54-9.47,1.07-2.59,1.82-6.54,3.65-7.33,2.57-1.13,6.11.9,8.79-.11,22.09-8.45,48.89,3.94,58,28.52,1.07,2.93,4.61,4.62,7,6.88,0.32-2.93.54-5.86,1.07-11,5,9.13,7.61,19.39,13.51,23.67,10.51,7.66,10.94,17.24,10.83,29.64-0.11,9.24,2.14,19.72,6.33,27.39,7.83,14.09,18,26.37,26.7,39.79,6.65,10.26,12.54,21.19,18.76,31.9,1.29-.9,2.57-1.92,3.86-2.93-5-9.58-10.08-19-15.12-28.63,9.86,9.81,17.37,21.3,25.52,32.12,7.29,9.69,13.83,21.53,23.05,27.5,11.26,7.33,25,8.9,37.31,14.2,4.07,1.8,6.65,7.55,10.4,10.82,6.54,5.86,15.76,17.47,19.94,15.44,11-5.18,11.69,5,11.47,9.24C324.78,324.38,319.84,331.15,318.34,338.7ZM314.8,124.89c-1.18,5.41-2.14,10.14-3.32,15.55-3.65-5-3.43-14.43-9.86-13.19s-6.11,13.07-9,19.39C286.39,125.45,289.39,122.3,314.8,124.89Z"/><path class="cls-3" d="M334.75,250.45c6.33-.23.43-1.47-0.86-5.64-2.25.45-3.43-.23-5,0.11a5.26,5.26,0,0,0-4,2.37c1.39,0.56,2.25,2.37-4.29,3.16C319.84,250.56,329.28,251.24,334.75,250.45Z"/><path class="cls-3" d="M243.07,5.87c1.82,1.13,3,3.38,4.5,5.07,2.25-2.82,4.61-5.64,6.86-8.34C248.86,1.7,243.29.8,237.71,0c-0.11,1.47-.32,3-0.54,4.51C239.21,5,241.36,4.86,243.07,5.87Z"/><path class="cls-3" d="M811.81,9.59c7,6.76,13.72,4.17,16.08-5.52A7.44,7.44,0,0,1,831.18,0H816c-0.66.62-1.31,1.25-2,1.92C812.45,3.5,811.16,8.91,811.81,9.59Z"/><path class="cls-3" d="M403.69,2.6C409.05,18.27,414,34.72,422,48.47c4.4,7.44,14.69,10.82,22.84,14.2,1.5,0.68,5.47-6.88,8.47-10.37,4.72-5.41,8.9-13.07,14.58-15.55,12-5.18,24.77-10.26,37.31-10.71,15.4-.51,16.63-20.23,27.31-26H402.66Q403.21,1.22,403.69,2.6Z"/><path class="cls-3" d="M325.1,243.23c-6.65-4.17-12.22-14.09-23.48-1.47,6.22,0,10-.68,13.51.23a12.42,12.42,0,0,1,4,1.8C320.81,243.91,323.7,244.36,325.1,243.23Z"/><path class="cls-3" d="M601.22,85.44l0.21,0.11A0.37,0.37,0,0,0,601.22,85.44Z"/><polygon class="cls-3" points="601.44 85.67 601.22 85.44 601.22 85.67 601.44 85.67"/><path class="cls-3" d="M619.24,107.65c21.66-7.1,1.29-22.09-2.57-28.4-2.36-3.72-6.54-22-9.44-22.77-3.54-.9-5.58,14.88-9.54,16.46,1.29,4.17,2.57,8.34,3.75,12.51,2.79,1.58,5.68,3.16,8.15,4.51C599,110.91,611.19,107.2,619.24,107.65Z"/><path class="cls-3" d="M594.25,85.89c-3.32,4.06-5.79,9.24-7.93,14.31-0.32.9,3.22,5.18,3.43,5.07,4.07-2.93,8.36-5.75,11.47-9.92,1.39-1.8.21-6.2,0.11-9.58C598.76,85.67,595.32,84.54,594.25,85.89Z"/><path class="cls-3" d="M1132.76,144.84c2.79-.11,5.47-1.8,10.08-3.38-18.66-9.92-23.48-7.33-24.55,12.51-0.86,16.34-10.19,19.39-21.23,22.32-5.47,1.47-10.51,5.86-15.12,9.92-0.86.79,0.64,6.09,1.82,8.9,0.32,0.79,3.65.45,5.36-.34,5.15-2.14,10-5,15.12-6.88,11.26-4.17,23.37-20.74,20.69-30.77C1122.36,147.32,1125.47,145.07,1132.76,144.84Z"/><path class="cls-3" d="M528.39,32.7c-2.14,1-4.29,2-6.54,3,1.5,2.59,2.9,15.33,4.5,15.44,10,0.68,13.51-7.78,23.59-8.68,1.72,0,3-2.93,4.5-4.62-2-1.35-4.18-3.83-6.22-3.94-6.43,0-12.87.9-19.41,1.35C528.71,34.39,528.5,33.6,528.39,32.7Z"/></g><polygon class="cls-4" points="601.22 85.44 601.22 85.67 601.44 85.67 601.22 85.44"/><path class="cls-4" d="M601.44,85.56a0.37,0.37,0,0,0-.21-0.11l0.21,0.11h0Z"/><path id="Shape" class="cls-5" d="M161.58,137.18c-4.82,0-4.82,7.44,0,7.44C165.77,144.61,165.77,137.18,161.58,137.18Zm24.66,53.76c-4.18,0-4.18,7.44,0,7.44S190.43,190.94,186.24,190.94ZM340,149.57c-4.18,0-4.18,7.44,0,7.44C344.72,157,344.72,149.57,340,149.57Zm-32.17.9c-4.18,0-4.18,7,0,7C312.55,157.46,312.55,150.48,307.83,150.48ZM177.13,179c-4.18,0-4.18,7.44,0,7.44C182.6,186.43,182.6,179,177.13,179Zm112.48-35.62c-4.18,0-4.18,7.44,0,7.44C294.32,150.81,294.32,143.37,289.61,143.37Zm43.75,13.86c-4.82,0-4.82,7.44,0,7.44S338.18,157.24,333.35,157.24ZM159.55,128.38c-4.18,0-4.18,7.44,0,7.44C164.26,135.71,164.26,128.38,159.55,128.38Zm100,69.65c-4.18,0-4.18,7.44,0,7.44C264.3,205.36,264.3,198,259.58,198ZM673,76.43c-3.65,0-3.65,7.44,0,7.44C678.31,83.75,678.31,76.43,673,76.43Zm15.76-18.48c-6,0-6,7.44,0,7.44C692.9,65.38,692.9,57.94,688.71,57.94Zm-62.83,88.14c-3.65,0-3.65,7.44,0,7.44C631.89,153.41,631.89,146.08,625.88,146.08Zm0-32.23c-3.65,0-3.65,7.44,0,7.44C631.89,121.17,631.89,113.85,625.88,113.85Zm-3.65-17.58c-4.82,0-4.82,7.44,0,7.44C625.78,103.7,625.78,96.26,622.24,96.26Zm56-2.37c-6,0-6,7.44,0,7.44C682.39,101.22,682.39,93.9,678.21,93.9ZM642.82,97.5a3.73,3.73,0,1,0,0,7.44C647,104.94,647,97.5,642.82,97.5Zm17.8,20.4c-4.82,0-4.82,7.44,0,7.44C664.7,125.23,664.7,117.9,660.62,117.9Zm9.86-5.86c-3.65,0-3.65,7.44,0,7.44C676.49,119.48,676.49,112,670.49,112Zm368.24,45.2c-6,0-6,7.44,0,7.44C1042.91,164.68,1042.91,157.24,1038.73,157.24Zm29.7,13.86c-4.18,0-4.18,7.44,0,7.44C1073.14,178.54,1073.14,171.1,1068.43,171.1Zm6.22,6.54c-4.18,0-4.18,7.44,0,7.44S1078.83,177.64,1074.65,177.64ZM1090,188.46c-6,0-6,7.44,0,7.44C1093.62,195.78,1093.62,188.46,1090,188.46Zm18.66-8.79a3.73,3.73,0,1,0,0,7.44C1112.82,187.11,1112.82,179.67,1108.64,179.67Z"/></svg>