<svg id="Layer_1" xmlns="http://www.w3.org/2000/svg" viewBox="0 0 1187 298"><style>.st0{opacity:0.7;} .st1{fill:none;stroke:#F27C87;stroke-width:2.2013;stroke-linecap:round;stroke-linejoin:round;stroke-miterlimit:10;} .st2{fill:#39477F;} .st3{fill:#F27C87;} .st4{fill:#39477F;stroke:#F27C87;stroke-width:2.2013;stroke-linecap:round;stroke-linejoin:round;stroke-miterlimit:10;} .st5{fill:#39477F;stroke:#F27C87;stroke-width:2.2013;stroke-miterlimit:10;} .st6{fill:#59569D;} .st7{fill:#39477F;stroke:#59569D;stroke-width:3.1258;stroke-linecap:round;stroke-linejoin:round;stroke-miterlimit:10;} .st8{fill:#39477F;stroke:#99519F;stroke-width:2.7016;stroke-linecap:round;stroke-linejoin:round;stroke-miterlimit:10;} .st9{fill:#39477F;stroke:#59569D;stroke-width:2.5;stroke-linecap:round;stroke-linejoin:round;stroke-miterlimit:10;} .st10{fill:none;stroke:#59569D;stroke-width:2.5;stroke-linecap:round;stroke-linejoin:round;stroke-miterlimit:10;} .st11{fill:#39477F;stroke:#99519F;stroke-width:2.7584;stroke-linecap:round;stroke-linejoin:round;stroke-miterlimit:10;} .st12{fill:#39477F;stroke:#F27C87;stroke-width:2.5;stroke-linecap:round;stroke-linejoin:round;stroke-miterlimit:10;} .st13{fill:#39477F;stroke:#CF509C;stroke-width:2.5;stroke-linecap:round;stroke-linejoin:round;stroke-miterlimit:10;} .st14{fill:#CF509C;} .st15{fill:#39477F;stroke:#EE5291;stroke-width:2.5;stroke-linecap:round;stroke-linejoin:round;stroke-miterlimit:10;} .st16{fill:#EE5291;} .st17{fill:#39477F;stroke:#F27C87;stroke-width:2.7055;stroke-linecap:round;stroke-linejoin:round;stroke-miterlimit:10;} .st18{fill:#39477F;stroke:#F69D95;stroke-width:2.9107;stroke-linecap:round;stroke-linejoin:round;stroke-miterlimit:10;} .st19{fill:#39477F;stroke:#F69D95;stroke-width:2.9107;stroke-miterlimit:10;} .st20{fill:#F69D95;} .st21{fill:#39477F;stroke:#EE5291;stroke-width:2.5;stroke-miterlimit:10;} .st22{fill:#39477F;stroke:#F69D95;stroke-width:2.5;stroke-miterlimit:10;} .st23{fill:#39477F;stroke:#F69D95;stroke-width:2.5;stroke-linecap:round;stroke-linejoin:round;stroke-miterlimit:10;}</style><g class="st0"><path class="st1" d="M392.8 151.7S331.1 93.8 300 34.5c-.2-.5-.8-.5-1.1 0-6.5 11.4-68.9 118.7-121 124.9-43.3 5.2-76.4-54.1-81.8-64.5-.3-.5-1-.4-1.2.2C92.6 104.8 73 156 52 176.5"/><path class="st2" d="M296.6 203.3c-1 0-1.7-.8-1.7-1.8v-2.8c0-.3-.3-.6-.7-.6h-10.7c-.4 0-.7.3-.7.6v2.8c0 1-.8 1.8-1.7 1.8h-5.6c-.5 0-.9-.2-1.2-.5-.3-.3-.5-.8-.5-1.3l.4-164.1c0-.3.1-.5.2-.7l1.8-4.2c.3-.6.9-1 1.6-1 .7 0 1.3.4 1.6 1.1.9 2.3 2.1 3.6 3.2 3.6h13.8c.2-.2.8-.9 1.5-3.1.2-.7.9-1.2 1.6-1.2.7 0 1.3.4 1.6 1l1.8 3.8c.1.2.2.5.2.8l.8 164.1c0 .5-.2.9-.5 1.3-.3.3-.8.5-1.2.5h-5.6zm-4.7-10.1l-3.1-3.6-3.1 3.6h6.2zm3.3-4v-7.1l-3 3.5 3 3.6zm-12.7-.1l2.9-3.4-2.9-3.4v6.8zm6.2-7.3l3.1-3.6h-6.2l3.1 3.6zm3.5-7.9l-3.6-3.8-3.3 3.8h6.9zm3-4.3v-7.1l-3.2 3.6 3.2 3.5zm-12.7-.3l2.6-3-2.6-2.8v5.8zm2.9-40.7c-1.5 0-3.2 3.4-3.2 5.6v17.3l13.6-.3v-17c0-2.2-1.7-5.6-3.2-5.6h-7.2zm-.2-32.2c-1.5 0-3.2 2.9-3.2 4.9v12.2c0 1.7 1.4 3.1 3.2 3.1h7.3c1.8 0 3.2-1.4 3.2-3.1v-12.2c0-2-1.7-4.9-3.2-4.9h-7.3zm-1-26.5c-1.5 0-2.7 1.2-2.7 2.6V83c0 1.4 1.2 2.6 2.7 2.6h9.3c1.5 0 2.7-1.2 2.7-2.6V72.5c0-1.4-1.2-2.6-2.7-2.6h-9.3zm-.6-24.8c-1.5 0-2.8 1.2-2.8 2.7v9.5c0 1.5 1.3 2.7 2.8 2.7h10.5c1.5 0 2.8-1.2 2.8-2.7v-9.5c0-1.5-1.3-2.7-2.8-2.7h-10.5z"/><path class="st3" d="M277.8 32.5c.2 0 .5.1.6.4.7 1.7 2.1 4.3 4.2 4.3h13.9c1 0 2-2.3 2.5-3.9.1-.3.4-.5.6-.5.2 0 .5.1.6.4L302 37c0 .1.1.2.1.3l.8 164.1c0 .4-.3.7-.6.7h-5.6c-.4 0-.6-.3-.6-.7v-2.8c0-.9-.8-1.7-1.8-1.7h-10.7c-1 0-1.8.8-1.8 1.7v2.8c0 .4-.3.7-.6.7h-5.6c-.4 0-.6-.3-.6-.7l.4-164.1c0-.1 0-.2.1-.3l1.8-4.2c0-.1.2-.3.5-.3m5.8 28.5h10.5c2.1 0 3.9-1.7 3.9-3.8v-9.5c0-2.1-1.7-3.8-3.9-3.8h-10.5c-2.1 0-3.9 1.7-3.9 3.8v9.5c0 2.1 1.7 3.8 3.9 3.8m.6 25.7h9.3c2.1 0 3.8-1.7 3.8-3.7V72.5c0-2-1.7-3.7-3.8-3.7h-9.3c-2.1 0-3.8 1.7-3.8 3.7V83c-.1 2 1.7 3.7 3.8 3.7m1 31h7.3c2.4 0 4.3-1.9 4.3-4.2v-12.2c0-2.3-1.9-6-4.3-6h-7.3c-2.4 0-4.3 3.7-4.3 6v12.2c-.1 2.3 1.9 4.2 4.3 4.2m-3.5 35l14.5-.3c.3 0 .6-.3.6-.7v-17.4c0-2.6-1.9-6.7-4.3-6.7h-7.1c-2.4 0-4.3 4.2-4.3 6.7V152c-.1.3.2.7.6.7m13.9 18.7c.3 0 .6-.3.6-.7v-9.3h-1.6l-3.8 4.3c-.2.3-.2.7 0 .9l4.2 4.6c.3.1.5.2.6.2m-7.1-7.7c.2 0 .3-.1.5-.2l1.9-2.1H286l2 2.2c.2.1.3.1.5.1m-6.5 7.5c.2 0 .3-.1.5-.2l3.7-4.2c.2-.3.2-.7 0-.9l-4.1-4.4h-.7v9.1c0 .3.3.6.6.6m2.3 3.8h8.9c.6 0 .9-.7.5-1.2l-4.6-4.9c-.1-.1-.3-.2-.5-.2s-.3.1-.5.2l-4.3 4.9c-.3.5-.1 1.2.5 1.2m4.4 8.2c.2 0 .3-.1.5-.2l4.1-4.7c.4-.4.1-1.1-.5-1.1h-8.1c-.6 0-.8.7-.5 1.1l4.1 4.7c.1.1.3.2.4.2m6.9 7.9c.3 0 .6-.3.6-.7v-9.5c0-.4-.3-.7-.6-.7-.2 0-.3.1-.5.2l-4.1 4.8c-.2.3-.2.7 0 .9l4.1 4.7c.2.3.3.3.5.3M282 191c.2 0 .3-.1.5-.2l3.9-4.6c.2-.3.2-.7 0-.9l-3.9-4.6c-.1-.2-.3-.2-.5-.2-.3 0-.6.3-.6.7v9.2c0 .3.3.6.6.6m2.7 3.3h8.1c.6 0 .8-.7.5-1.1l-4.1-4.7c-.1-.1-.3-.2-.5-.2s-.3.1-.5.2l-4 4.7c-.3.4 0 1.1.5 1.1m-6.9-164c-1.1 0-2.1.7-2.6 1.7l-1.8 4.2c-.2.4-.2.8-.2 1.2l-.4 164.1c0 .8.3 1.5.8 2.1.5.5 1.2.8 2 .8h5.6c1.6 0 2.8-1.3 2.8-2.9v-2.4h9.8v2.4c0 1.6 1.3 2.9 2.8 2.9h5.6c.8 0 1.5-.3 2-.8s.8-1.3.8-2.1l-.8-164.1c0-.4-.1-.8-.3-1.2l-1.8-3.8c-.5-1-1.5-1.7-2.6-1.7-1.2 0-2.3.8-2.7 2-.4 1.3-.8 2-1 2.3h-13.3c-.4 0-1.3-.9-2.2-2.9-.4-1.1-1.4-1.8-2.5-1.8zm5.8 28.5c-.9 0-1.7-.7-1.7-1.6v-9.5c0-.9.8-1.6 1.7-1.6h10.5c.9 0 1.7.7 1.7 1.6v9.5c0 .9-.8 1.6-1.7 1.6h-10.5zm.6 25.7c-.9 0-1.6-.7-1.6-1.5V72.5c0-.8.7-1.5 1.6-1.5h9.3c.9 0 1.6.7 1.6 1.5V83c0 .8-.7 1.5-1.6 1.5h-9.3zm1 31c-1.2 0-2.1-.9-2.1-2v-12.2c0-1.6 1.5-3.8 2.1-3.8h7.3c.7 0 2.1 2.2 2.1 3.8v12.2c0 1.1-1 2-2.1 2h-7.3zm-2 34.9v-16.2c0-2 1.5-4.4 2.1-4.5h7.1c.6.1 2.1 2.5 2.1 4.5v15.9l-11.3.3zm10.3 15.7l.6-.7v1.3l-.6-.6zm-9.9.2v-.1.1zm4.1 6.5l1-1.1 1 1.1h-2zm.3 6.5h1.4l-.7.8-.7-.8zm5.6 6.4l.5-.6v1.1l-.5-.5zm-10 .4v-.8l.3.4-.3.4zm4.5 6l.7-.8.7.8h-1.4z"/><path class="st2" d="M93.9 204.4c-1 0-1.7-.8-1.7-1.8V200h-6.6v2.6c0 1-.8 1.8-1.7 1.8h-3c-.5 0-.9-.2-1.2-.5-.3-.3-.5-.8-.5-1.3l.3-106.5c0-.2 0-.5.1-.7l1.5-3.6c.2-.4.6-.7 1-.7h.1c.5 0 .9.4 1 .8.3 1.2 1.2 2.9 1.9 2.9h8.4c.3-.4.7-1.6 1-2.7.1-.5.5-.8 1-.8h.1c.4 0 .8.3 1 .7l1.5 3.4c.1.2.2.5.2.7l.5 106.5c0 .5-.2.9-.5 1.3-.3.3-.8.5-1.2.5h-3.2zm-4-8.2l-1.1-1.3-1.1 1.3h2.2zm2.4-3.4v-2.3l-.9 1.1.9 1.2zm-7-.1l.8-1-.8-1v2zm3.5-4.2l1.1-1.3h-2.2l1.1 1.3zm1.2-4.8l-1.3-1.5-1.2 1.5H90zm2.3-3.5v-2.3l-1 1.2 1 1.1zm-7-.2l.7-.8-.7-.8v1.6zm1.4-24.7c-.5 0-1.6 1.8-1.6 3.2v10.7l7.6-.2v-10.6c0-1.5-1.1-3.2-1.6-3.2h-4.4zm-.1-20.8c-.6 0-1.6 1.6-1.6 2.8v7.9c0 .9.7 1.6 1.6 1.6h4.5c.9 0 1.6-.7 1.6-1.6v-7.9c0-1.2-1-2.8-1.6-2.8h-4.5zm-.6-17c-.7 0-1.3.6-1.3 1.3v6.7c0 .7.6 1.3 1.3 1.3h5.7c.7 0 1.3-.6 1.3-1.3v-6.7c0-.7-.6-1.3-1.3-1.3H86zm-.4-16c-.7 0-1.3.6-1.3 1.3v6.1c0 .7.6 1.3 1.3 1.3h6.5c.7 0 1.3-.6 1.3-1.3v-6.1c0-.7-.6-1.3-1.3-1.3h-6.5z"/><path class="st3" d="M82 92.3s1 3.7 2.9 3.7h8.6l1.8-3.5 1.5 3.4c0 .1.1.2.1.3l.5 106.5c0 .4-.3.7-.6.7h-3c-.4 0-.6-.3-.6-.7V200c0-.6-.5-1.1-1.1-1.1h-6.6c-.6 0-1.1.5-1.1 1.1v2.6c0 .4-.3.7-.6.7h-3c-.4 0-.6-.3-.6-.7l.3-106.5c0-.1 0-.2.1-.3l1.4-3.5m3.6 19h6.5c1.3 0 2.4-1.1 2.4-2.4v-6.1c0-1.3-1.1-2.4-2.4-2.4h-6.5c-1.3 0-2.4 1.1-2.4 2.4v6.1c0 1.4 1.1 2.4 2.4 2.4m.4 16.6h5.7c1.3 0 2.4-1.1 2.4-2.4v-6.7c0-1.3-1.1-2.4-2.4-2.4H86c-1.3 0-2.4 1.1-2.4 2.4v6.7c0 1.3 1.1 2.4 2.4 2.4m.6 20h4.5c1.5 0 2.7-1.2 2.7-2.7v-7.9c0-1.5-1.2-3.9-2.7-3.9h-4.5c-1.5 0-2.7 2.4-2.7 3.9v7.9c0 1.5 1.2 2.7 2.7 2.7m-2 22.5l8.5-.2c.3 0 .6-.3.6-.7v-11c0-1.7-1.2-4.3-2.7-4.3h-4.4c-1.5 0-2.7 2.7-2.7 4.3v11.2c.1.4.4.7.7.7m8.2 11.7c.3 0 .6-.3.6-.7V176h-1l-2.2 2.6c-.2.3-.2.7 0 .9l2.1 2.3c.2.2.3.3.5.3m-4.2-4.4L90 176h-3l1.6 1.7m-4.4 5.3l2.8-3.4c.2-.3.2-.7 0-.9l-2.4-2.7h-.4v7m2.4 1.8H91c.6 0 .9-.7.5-1.1l-2.3-2.6c-.1-.1-.3-.2-.5-.2s-.4.1-.5.2l-2.1 2.6c-.4.4-.1 1.1.5 1.1m2.2 5.1c.2 0 .4-.1.5-.2l2-2.4c.4-.4.1-1.1-.5-1.1h-4c-.6 0-.8.7-.5 1.1l2 2.4c.1.1.3.2.5.2m4 4.9c.3 0 .6-.3.6-.7v-4.8c0-.4-.3-.7-.6-.7-.2 0-.3.1-.5.2l-2 2.4c-.2.3-.2.6 0 .9l2 2.4c.2.2.3.3.5.3m-7.9-.1c.2 0 .3-.1.5-.2l1.9-2.3c.2-.3.2-.6 0-.9l-1.9-2.3c-.1-.2-.3-.2-.5-.2-.3 0-.6.3-.6.7v4.6c-.1.3.2.6.6.6m1.9 2.6h4c.6 0 .8-.7.5-1.1l-2-2.4c-.1-.2-.3-.2-.5-.2s-.4.1-.5.2l-2 2.4c-.3.4 0 1.1.5 1.1M82 90.1c-.9 0-1.7.5-2 1.3L78.5 95c-.2.4-.2.7-.2 1.1L78 202.7c0 .8.3 1.5.8 2.1.5.5 1.2.8 2 .8h3c1.6 0 2.8-1.3 2.8-2.9v-1.5H91v1.5c0 1.6 1.3 2.9 2.8 2.9h3c.8 0 1.5-.3 2-.8s.8-1.3.8-2.1l-.4-106.5c0-.4-.1-.8-.3-1.2l-1.5-3.4c-.4-.8-1.1-1.3-2-1.3h-.2c-.9.1-1.7.8-1.9 1.7-.1.6-.4 1.3-.6 1.8h-7.5c-.3-.3-.8-1.3-1-2.1-.3-.9-1-1.5-2-1.6H82zm3.6 19c-.1 0-.2-.1-.2-.2v-6.1c0-.1.1-.2.2-.2h6.5c.1 0 .2.1.2.2v6.1c0 .1-.1.2-.2.2h-6.5zm.4 16.6c-.1 0-.2-.1-.2-.2v-6.7c0-.1.1-.2.2-.2h5.7c.1 0 .2.1.2.2v6.7c0 .1-.1.2-.2.2H86zm.8 9.9h4.1c.3.3.7 1.2.7 1.7v7.9c0 .3-.2.5-.5.5h-4.5c-.3 0-.5-.2-.5-.5v-7.9c0-.5.4-1.4.7-1.7zm.2 20.8h3.8c.3.4.8 1.4.8 2.1v9.5l-5.4.1v-9.6c0-.7.5-1.7.8-2.1z"/><path class="st4" d="M77.6 202.9h22.2c.4 0 .7.3.7.7v3.7c0 .4-.3.7-.7.7H77.6c-.4 0-.7-.3-.7-.7v-3.7c0-.4.3-.7.7-.7zM304.8 210h-31.5c-.4 0-.7-.3-.7-.7v-6.8c0-.4.3-.7.7-.7h31.5c.4 0 .7.3.7.7v6.8c0 .4-.3.7-.7.7zM-20.7 194.8l-1.4-5.5c-.1-.4.1-.8.5-.8 41.8-8.7 160.7-27.1 212.9-31 41.9-3.1 92.9-5.8 140.1-5.8 77 0 185.2 6.2 194.5 6.8.4 0 .6.4.6.7l-.6 7.6c0 .4-.3.6-.7.6-9.1-.5-117.2-5.8-193.9-5.8h-.1c-47 0-97.7.6-139.4 3.7-51.8 4-170.5 21.4-211.8 30-.3 0-.6-.2-.7-.5z"/><path class="st5" d="M281.4 162.2c0-.7-.2-7.6-.3-9.8 0-.4-.3-.7-.6-.6-1.3 0-4.1.1-4.7.2-.9.2-1.2.8-1.2 1.4 0 .4-.6 10.2 1.1 10.6.6.1 3.3-.3 4.1-.4 1 0 1.6-.6 1.6-1.4z"/><path class="st4" d="M274.3 166.4V150M282 166.8l-.3-15"/><path class="st5" d="M84.6 178.3c0-.7-.2-7.6-.2-9.8 0-.4-.3-.7-.7-.7-1.1 0-3.1.1-3.6.2-.7.2-1 .8-.9 1.4 0 .4-.5 10.2.9 10.6.5.1 2.6-.3 3.3-.4.7.1 1.2-.5 1.2-1.3z"/><path class="st4" d="M79.7 182.4V166M84.9 181l-.3-15.2"/><path class="st1" d="M369.9 151.3S307.5 94 278.3 32.5c-.2-.5-.9-.5-1.1 0-6.4 11.9-65.6 119-116.5 124.5-43.2 4.7-73.3-51.7-78.4-62-.3-.5-1-.4-1.2.2-2.3 9.6-19.2 59.1-44.1 82.6"/><g><path class="st2" d="M167.1 260.7c-.4 0-.7-.2-.9-.4-.3-.3-.4-.7-.3-1.1.1-.6 10.9-59.3 14.2-110.1.4-5.4.4-10.7.5-15.9 0-3.6.1-7 .2-10.4.7-18.8-9.2-69.4-9.3-69.9-.1-.3 0-.7.2-1 .2-.3.5-.5.9-.5l2.4-.2h.1c.6 0 1.2.5 1.2 1.1 2.3 18.2 5.5 38.4 7.1 42.4.1-.1.1-.3.2-.5.2-.4.5-1.3 1.4-1.3 1 0 1.3 1 1.5 1.5 1.6 5.1 2.7 21.2 1.5 42.1-.7 12.5-3 33.8-6.8 63.4l-.3 2.2c-3.8 29.8-7.8 56.9-7.9 57.2-.1.6-.6 1-1.2 1.1.2-.1-4.7.3-4.7.3z"/><path class="st6" d="M175.1 52.4s5.5 43.8 8 43.8c1.6 0 1.7-2.1 2-2.1.1 0 .2.2.3.7 1.6 5 2.6 20.9 1.4 41.6-.8 14.7-3.7 39.7-6.8 63.3l-.3 2.2c-3.9 30.2-7.9 57.2-7.9 57.2l-4.8.3s10.9-58.8 14.3-110.2c.6-9.1.3-18 .7-26.3.7-19.2-9.3-70.2-9.3-70.2l2.4-.3m.1-2.5h-.2l-2.4.2c-.7.1-1.3.4-1.8 1-.4.6-.6 1.3-.4 2 .1.5 10 51 9.3 69.6-.1 3.4-.2 6.8-.2 10.4-.1 5.1-.1 10.4-.5 15.8-3.3 50.7-14.1 109.4-14.2 109.9-.1.8.1 1.5.6 2.1.5.5 1.2.8 1.9.8h.2l4.8-.3c1.2-.1 2.1-1 2.3-2.1 0-.3 4-27.4 7.9-57.2l.3-2.1c3.8-29.6 6.1-51 6.8-63.5 1.3-22.1.1-37.5-1.5-42.6-.5-1.6-1.4-2.4-2.7-2.4-.4 0-.8.1-1.2.3-1.7-6.7-4.4-24-6.4-39.8-.3-1.1-1.4-2.1-2.6-2.1z"/><path class="st2" d="M204.7 260.3c-.6 0-1.1-.5-1.2-1.1 0-.3-3.9-27.4-7.6-57.2l-.3-2.2c-3.7-29.6-5.9-50.9-6.6-63.4-1.1-18.9-.7-35.5.9-41.4.1-.5.5-1.9 1.8-1.9.8 0 1.3.6 1.7 1.1.1.1.1.2.2.2 1.7-4.2 4.8-24.3 7.1-42.4.1-.6.6-1.1 1.2-1.1h.1l2.4.2c.4 0 .7.2.9.5.2.3.3.6.2 1-.1.5-10 51.1-9.3 69.9.1 3.3.2 6.7.2 10.3 0 5 .1 10.2.4 15.5 3.3 50.9 13.8 110 13.9 110.6.1.4 0 .8-.3 1-.2.3-.6.4-.9.4.2.3-4.8 0-4.8 0z"/><path class="st6" d="M202.1 52.4l2.4.2s-10.1 51-9.3 70.2c.3 8.1 0 16.9.6 25.8 3.3 51.6 13.9 110.7 13.9 110.7l-5-.2s-3.8-27-7.6-57.2l-.3-2.2c-2.9-23.6-5.7-48.6-6.6-63.3-1.1-19.6-.6-35.6.9-40.9.2-.7.4-1 .6-1 .5 0 1.2 1.8 2.3 1.8 2.5 0 8.1-43.9 8.1-43.9m0-2.5c-1.2 0-2.3.9-2.5 2.2-2 16.1-4.8 33.8-6.5 40.2-.4-.2-.8-.3-1.3-.3-1 0-2.4.5-3 2.8-1.7 6-2.1 22.7-1 41.8.7 12.5 2.9 33.9 6.6 63.5l.3 2.2c3.7 29.8 7.5 56.9 7.6 57.2.2 1.2 1.2 2.1 2.4 2.1l5 .2h.1c.7 0 1.4-.3 1.9-.8.5-.6.7-1.3.6-2.1-.1-.6-10.6-59.6-13.9-110.4-.3-5.2-.4-10.4-.4-15.4 0-3.6-.1-6.9-.2-10.3-.7-18.7 9.2-69.1 9.3-69.6.1-.7 0-1.4-.4-2-.4-.6-1.1-.9-1.8-1l-2.4-.2c-.3-.1-.4-.1-.4-.1z"/><path class="st2" d="M193.2 260.6c-1 0-1.8-.8-1.8-1.8l-.2-8.7h-4.8c-.1 3.9-.1 6.9-.1 8.7 0 1-.8 1.8-1.8 1.8h-1.9c-.5 0-.9-.2-1.3-.5-.3-.4-.5-.8-.5-1.3.1-2.3.2-7.1.4-13.7 1-33.9 3.3-113.1 3-122.2-1-30.3-3.9-58.8-4.4-64.2-.1-.5.1-1 .4-1.4.3-.4.8-.6 1.2-.6l.7-.1h.1c.9 0 1.7.7 1.8 1.7.6 7.1 1.1 13.2 1.5 18.1.8 10.1 1.5 19.7 2.8 20.1 1.3-.3 2.1-10.2 2.9-20.6.4-4.8.9-10.7 1.5-17.5.1-1 .9-1.7 1.8-1.7h.1l.8.1c.5 0 .9.3 1.2.6.3.4.5.9.4 1.4-.6 5.4-3.5 34.1-4.4 64.4-.3 8.4 2 77.5 3.2 114.6.3 10.3.6 18 .7 21.1 0 .5-.2 1-.5 1.3-.3.4-.8.5-1.3.5h-1.5zm-2.1-15.9c-.1-3.1-.2-6.5-.3-10.2h-4.2c-.1 3.7-.1 7.1-.2 10.2h4.7zm-.4-15.4c-.1-3.3-.2-6.7-.3-10.2H187c-.1 3.5-.1 6.9-.2 10.2h3.9zm-.4-15.6c-.1-3.3-.2-6.7-.3-10.1h-2.7c-.1 3.4-.2 6.8-.2 10.1h3.2zm-.5-15.5c-.1-3.4-.2-6.8-.3-10.1h-1.8c-.1 3.3-.2 6.7-.3 10.1h2.4zm-.5-15.5c-.1-3.5-.3-6.9-.4-10.1h-.8c-.1 3.2-.2 6.6-.3 10.1h1.5zm-.6-15.4c-.1-1.5-.1-2.8-.2-4.1-.1 1.2-.1 2.6-.2 4.1h.4z"/><path class="st6" d="M182.3 57.7c.3 0 .5.2.5.5 2.5 27.8 2.4 39 5.5 39.3h.2c3.1-.3 3-11.4 5.5-39.3 0-.3.3-.5.5-.5l.8.1c.3 0 .5.3.5.7-.5 4.5-3.5 33.8-4.4 64.5-.3 10.8 3.4 121.8 3.8 135.8 0 .3-.2.6-.6.6h-1.5c-.3 0-.5-.3-.6-.6 0-1.8-.1-5.1-.2-9.3 0-.3-.3-.6-.6-.6h-6.2c-.3 0-.5.3-.6.6-.1 4.3-.1 7.5-.1 9.3 0 .3-.3.6-.6.6h-1.9c-.3 0-.6-.3-.6-.6.4-14 3.7-125.1 3.4-136-1-30.6-4-59.8-4.5-64.3 0-.3.2-.6.5-.7l1.2-.1c-.1 0-.1 0 0 0m5.3 110.8h1.8c.3 0 .6-.3.6-.6-.5-11.5-1-19.4-1.5-19.4s-1 7.8-1.4 19.4c0 .3.2.6.5.6m-.5 15.5h2.9c.3 0 .6-.3.6-.6-.1-4-.3-7.9-.4-11.5 0-.3-.3-.6-.6-.6h-2.1c-.3 0-.5.2-.6.6-.1 3.6-.2 7.4-.4 11.5.1.3.3.6.6.6m-.4 15.5h3.8c.3 0 .6-.3.6-.6-.1-3.9-.2-7.7-.4-11.5 0-.3-.3-.6-.6-.6H187c-.3 0-.5.3-.6.6-.1 3.7-.2 7.6-.3 11.5 0 .3.3.6.6.6m-.3 15.4h4.6c.3 0 .6-.3.6-.6-.1-3.8-.2-7.6-.3-11.5 0-.3-.3-.6-.6-.6h-4c-.3 0-.5.3-.6.6l-.3 11.5c0 .4.2.6.6.6m-.4 15.6h5.4c.3 0 .6-.3.6-.6-.1-3.7-.2-7.6-.3-11.6 0-.3-.3-.6-.6-.6h-4.8c-.3 0-.5.3-.6.6-.1 4-.2 7.9-.2 11.6 0 .3.2.6.5.6m-.2 15.5h6c.3 0 .6-.3.6-.6-.1-3.4-.2-7.3-.3-11.6 0-.3-.3-.6-.6-.6H186c-.3 0-.5.3-.6.6-.1 4.2-.1 8.1-.2 11.6 0 .3.2.6.6.6m-3.5-190.8h-.2l-.7.1c-.8.1-1.6.5-2.1 1.1-.5.6-.8 1.5-.7 2.3.6 5.4 3.5 33.9 4.4 64.1.3 9.1-2 88.4-3 122.3-.2 6.5-.3 11.3-.4 13.6 0 .8.3 1.7.9 2.3.6.6 1.4.9 2.2.9h1.9c1.7 0 3-1.4 3.1-3 0-1.6.1-4.1.1-7.4h2.4l.1 6.2v1.3c0 1.7 1.4 3 3.1 3h1.5c.8 0 1.6-.3 2.2-.9.6-.6.9-1.4.9-2.3-.1-3.1-.3-10.6-.7-21.1-1.2-37.1-3.4-106.2-3.2-114.5 1-30.3 3.9-58.9 4.4-64.3.1-.8-.2-1.7-.7-2.3-.5-.6-1.3-1-2.1-1.1l-.8-.1h-.2c-1.6 0-2.9 1.2-3 2.8-.6 6.8-1.1 12.8-1.5 17.5-.6 7.1-1.1 13.2-1.6 16.8-.6-3.5-1.1-9.5-1.6-16.2-.4-4.9-.9-11-1.5-18.1-.3-1.8-1.7-3-3.2-3zm6.2 149.6h.3c.1 2.6.1 5.1.2 7.6h-.6c0-2.5.1-5 .1-7.6zm-.3 15.5h1c.1 2.6.1 5.2.2 7.7H188c.1-2.5.1-5.1.2-7.7zm-.3 15.5h1.7c.1 2.7.1 5.3.2 7.7h-2.1c.1-2.4.1-5 .2-7.7z"/><path class="st2" d="M186.4 35.7c-.4 0-.8-.2-1-.5-.3-.3-.4-.7-.3-1.1l2.1-18.8c.1-.7.7-1.2 1.3-1.2.7 0 1.3.5 1.3 1.2l1.6 18.9c0 .3-.1.8-.3 1-.3.3-.6.4-1 .4h-3.7z"/><path class="st6" d="M188.6 15.4s.1.1 0 0l1.7 18.9c0 .1 0 .1-.1.1h-3.8c-.1 0-.1-.1-.1-.1l2.3-18.9c-.1.1-.1 0 0 0m0-2.5c-1.3 0-2.4 1-2.6 2.3L183.9 34c-.1.7.2 1.5.6 2 .5.5 1.2.9 1.9.9h3.8c.7 0 1.4-.3 1.9-.8s.7-1.3.7-2l-1.6-18.8c-.2-1.3-1.3-2.4-2.6-2.4z"/><path class="st2" d="M185.2 50.9c-19 0-19.4-.8-19.8-1.5-.2-.4-.2-.9 0-1.3.3-.5.7-1.7 1.2-4.9v-.3c.1-.6.6-1.1 1.2-1.1l20.3-1.8h.2l20.5 1.8c.6.1 1.1.5 1.2 1.2v.2c.5 3.8 1 4.7 1.1 4.9.3.4.3.9.1 1.4-.4.8-.5 1.1-9.2 1.4-4.7-.1-10.9 0-16.8 0z"/><path class="st6" d="M188.2 41.2l20.5 1.8s.1 0 .1.1c.1.5.5 4.4 1.4 5.6.4.6-12.9 1-24.9 1-10 0-19.1-.3-18.8-1 .8-1.4 1.3-5.1 1.4-5.6 0 0 0-.1.1-.1l20.2-1.8m0-2.5h-.2l-20.3 1.8c-1.2.1-2.1 1-2.3 2.1 0 .1 0 .2-.1.3-.5 3.4-.9 4.3-1 4.5-.4.8-.4 1.8 0 2.6.8 1.4 1.2 2.1 20.9 2.1 5.9 0 12.1-.1 16.9-.3 2.5-.1 4.5-.2 5.9-.3 2.2-.2 3.7-.3 4.4-1.8.4-.8.3-1.9-.2-2.6-.1-.1-.5-1-.9-4.3v-.2c-.2-1.2-1.1-2.2-2.3-2.3l-20.5-1.8c-.1.2-.2.2-.3.2z"/><g><path class="st2" d="M167.7 55c-.3 0-.7-.2-1-.4-.3-.3-.4-.6-.4-1 0-.5-.1-1.7-1.6-2.3-.9-.3-1.1-1-1-1.5.2-1.3.3-1.7 19.6-1.7h9.8c19.3 0 19.4.4 19.6 1.7.1.5-.1 1.2-1 1.5-1.3.5-1.6 1.5-1.5 2.2 0 .4-.1.8-.4 1.1-.3.3-.7.5-1 .5h-20.6l-20.5-.1z"/><path class="st6" d="M193.2 49.3c7.6 0 20.2.1 18.2.8-2.3.9-2.4 2.8-2.3 3.4 0 .1-.1.2-.2.2h-41.1c-.1 0-.1 0-.1-.1 0-.5 0-2.6-2.4-3.5-1.9-.7 10.5-.8 18.1-.8h9.8m0-2.5h-9.8c-3.3 0-8 0-11.8.1-2 .1-3.7.1-4.8.2-1.7.1-3.8.3-4.2 2.4-.2 1.1.3 2.4 1.8 2.9.2.1.8.3.8 1-.1.7.2 1.4.7 2 .5.5 1.2.8 1.9.8h41.1c.7 0 1.5-.3 2-.8s.8-1.3.7-2c0-.5.3-.7.7-.9 1.5-.6 2-1.9 1.8-2.9-.4-2.1-2.5-2.3-4.2-2.4-1.1-.1-2.8-.2-4.8-.2-3.9-.1-8.6-.2-11.9-.2z"/></g><g><path class="st2" d="M180.8 35.9c-.4 0-.8-.2-1.1-.5-.3-.3-.4-.7-.3-1.1l.6-2.7c.1-.5.6-.9 1.1-1 .4-.1 2.6-.4 7.1-.4s6.8.4 7.2.5c.5.1.9.5 1 1l.6 2.6c.1.4 0 .9-.2 1.2-.3.3-.6.5-1.1.5h-14.9z"/><path class="st6" d="M188.3 31.3c4.4 0 6.6.4 7 .5 0 0 .1 0 .1.1l.6 2.6c0 .1 0 .1-.1.1h-15.1c-.1 0-.1-.1-.1-.1l.6-2.7s0-.1.1-.1c.4 0 2.5-.4 6.9-.4m0-2.5c-4.4 0-6.7.3-7.3.4-1 .2-1.9.9-2.1 2l-.6 2.7c-.2.8 0 1.6.5 2.2.5.6 1.2 1 2 1h15.1c.8 0 1.5-.4 2-1s.7-1.4.5-2.2l-.6-2.6c-.2-1-1-1.7-2-1.9-.7-.1-3-.6-7.5-.6z"/></g><g><path class="st2" d="M208 44.1c-2.9-.3-10.6-1.1-20-1.1-9.1 0-16.5.7-19.3 1.1h-.2c-.7 0-1.2-.5-1.3-1.1-.1-.7.3-1.3.9-1.5l11.7-3.5.1-.1c-1.5-.8-2.3-1.6-2.2-2.5v-.6c0-.5.3-1 .8-1.2 1.3-.6 7.3-.6 9.8-.6 1.9 0 8.2 0 9.8.6.5.2.9.7.9 1.3v.7c0 .1 0 .3-.1.5-.3.7-1 1.3-2.4 2l.1.1 11.8 3.5c.6.2 1 .8.9 1.5-.1.7-.7 1.2-1.3 1.2.1-.3 0-.3 0-.3z"/><path class="st6" d="M188.4 34.1c4.1 0 8.4.2 9.3.5l.1.1v.7c0 .1-.3.6-1.8 1.3-1.6.8-.1 2.1 0 2.3l12.1 3.6c.1 0 .1.2 0 .2-2.8-.3-10.6-1.1-20.1-1.1-9.1 0-16.7.8-19.5 1.1-.1 0-.1-.2 0-.2l12-3.6c.2-.1 1.7-1.5.1-2.3-1.7-.8-1.6-1.3-1.6-1.3v-.7s0-.1.1-.1c.8-.3 5.3-.5 9.3-.5m0-2.5c-5.7 0-9.2.3-10.3.7-.9.4-1.6 1.3-1.6 2.4v.5c0 .6.1 1.4.8 2.1l-9.5 2.9c-1.2.4-2 1.6-1.8 2.9.2 1.3 1.3 2.2 2.6 2.2h.3c2.8-.3 10.2-1 19.2-1 9.3 0 17 .7 19.8 1.1h.3c1.3 0 2.4-.9 2.6-2.2.2-1.3-.6-2.5-1.8-2.9l-9.4-2.8c.3-.3.6-.7.7-1.1.1-.3.2-.6.2-1v-.7c0-1.1-.7-2.1-1.7-2.4-1.7-.6-6.6-.7-10.4-.7z"/></g><g><path class="st2" d="M183.2 51.1c-6.8 0-13.3 0-17.8-.1-7.1-.2-8.4-.5-8.4-2.1 0-1.8 0-2.4 31.3-2.4s31.3.6 31.3 2.4c0 1.6-1.2 1.9-8.4 2.1-4.5.1-11 .1-17.8.1h-10.2z"/><path class="st6" d="M188.3 47.7c16.6 0 30 .2 30 1.2 0 .9-10.8.9-24.9.9h-10.2c-14.1 0-24.9 0-24.9-.9 0-1 13.4-1.2 30-1.2m0-2.5c-6.8 0-15.3 0-21.3.2-2.9.1-5.1.2-6.6.4-1.7.2-4.6.5-4.6 3.1s2.9 2.9 4.1 3c1.2.1 3 .2 5.4.3 4.5.1 11 .1 17.8.1h10.2c6.8 0 13.3 0 17.8-.1 2.4-.1 4.2-.2 5.4-.3 1.2-.1 4.1-.4 4.1-3s-2.9-2.9-4.6-3.1c-1.5-.2-3.7-.3-6.6-.4-5.8-.1-14.3-.2-21.1-.2z"/></g><g><path class="st2" d="M188.3 58.8c-25.1 0-25.1-1.1-25.1-2.6 0-1.8 1.8-1.9 9.7-1.9H203.7c7.9 0 9.7.2 9.7 1.9 0 1.5 0 2.6-25.1 2.6z"/><path class="st6" d="M203.7 55.5c5.2 0 8.4.1 8.4.7 0 1-10.7 1.4-23.8 1.4s-23.8-.4-23.8-1.4c0-.6 3.3-.7 8.4-.7 4.1 0 9.5.1 15.4.1 5.9-.1 11.2-.1 15.4-.1m0-2.5H172.9c-3 0-4.9 0-6.3.1-1.5.1-4.6.3-4.6 3 0 3.1 3.7 3.3 9.3 3.6 4.1.2 9.9.3 17 .3s12.9-.1 17-.3c5.6-.3 9.3-.5 9.3-3.6 0-2.7-3.1-2.9-4.6-3-1.4-.1-3.3-.1-6.3-.1z"/></g></g><g><path class="st7" d="M846.8 228.2h-62.6v21.1h125v-21.1zM882.252 159.856h-26.4v-11.9h26.4zM847 109.5h-21v11.4h41.8v-11.4zM846.7 143.2l35.1-.7s-5.4-8.7-5.4-17.9H817.1c0 9.2-5.5 17.9-5.5 17.9l35.1.7z"/><path class="st7" d="M847 121.4H819.8v13.3H874v-13.3z"/><path class="st7" d="M890.6 143.3c-2.8.5-8.1 1.4-17.2-8.7h-53.3c-9.1 10.1-14.5 9.1-17.2 8.7-.6-.1-1 .8-.6 1.3 2.4 2.3 5.7 3.7 9.5 3.7 3.5 0 23.4.2 31.8.3h4c9.2-.1 30.2-.3 33.7-.3 3.8 0 7.4-1.3 9.8-3.6.4-.5.2-1.5-.5-1.4zM879 105c-3.1.6-9.9-1.2-32.4-19.3v-.1.1c-22.9 18.1-29.2 19.9-32.3 19.3-.4-.1-.6.7-.4 1 1.5 1.8 3.5 3.2 5.8 3.2 3.4 0 0 0 26.8.3.4 0 0 0 0 0 26.4-.3 23.5-.3 26.9-.3 2.4 0 4.4-1.4 5.8-3.2.4-.3.2-1.1-.2-1zM822.5 103h48.8M846.8 119.6h-30.1v4.5H876.6v-4.5z"/><path class="st7" d="M857.8 102.5c-2.9-1.8-6.8-4.8-11-9.5-4.2 4.5-8.2 7.6-11.1 9.5M846.7 195.3l52.8-1.9s-5.5-17.3-5.5-35.2h-47.3v37.1zM839.3 220.4l-53-1s5.5-8.9 5.5-18.1h47.6v19.1zM811.2 148h26.4v11.9h-26.4z"/><path class="st7" d="M846.8 195.3l-52.8-1.9s5.5-17.3 5.5-35.2h47.3v37.1zM794.5 201.6h52.3v15.6h-52.3z"/><path class="st7" d="M847 170.4h-42.6v13.8h85v-13.8zM846.9 180.3c0 .1 0 .1 0 0zM846.7 180.3zM846.7 180.3s.4 0 0 0zM780.7 240.6h11.4v-12.4h-7.9zM798.1 232.8h8.8v7.4h-8.8zM812.1 232.8h8.8v7.4h-8.8zM826.5 232.8h8.8v7.4h-8.8z"/><path class="st7" d="M899.8 163.9c-7.2 2.1-23.4-9.3-52.9-32.4-29.5 23.2-45.9 34.6-53 32.4-.8-.2-1.3 1.3-.8 1.9 3 3.4 7.5 4.2 12.3 4.2 5.7 0 41.5.5 41.5.5s35.7-.5 41.3-.5c4.8 0 9.2-.9 12.2-4.2.6-.6.2-2.1-.6-1.9zM909.9 195.4c-3.3.6-9.7 2.1-20.7-11.2h-84.9c-11 13.3-17.4 11.8-20.7 11.2-.8-.1-1.2 1.1-.7 1.6 2.9 3 7.1 4.7 11.7 4.7 5.2 0 49.4.4 52.1.4.4 0 0 0 0 0 2.2 0 46.9-.4 52.1-.4 4.6 0 8.8-1.7 11.7-4.7.5-.6.1-1.8-.6-1.6z"/><path class="st7" d="M854.2 220.4l53-1s-5.5-8.9-5.5-18.1h-47.6v19.1z"/><path class="st7" d="M898.993 217.212h-52.3v-15.6h52.3z"/><path class="st7" d="M920.6 221.7c-3 3.4-7.3 6.1-12.1 6.1-7 0-116.7-.1-123.7-.1-4.8 0-9-2.7-12-6.1-.6-.6 0-2 .8-1.9 6.3 1.1 19 1.5 73.1-39.5 54.1 40.9 66.7 40.6 73 39.5 1 0 1.5 1.4.9 2zM830.2 173.7h9.1v7h-9.1zM814.4 173.7h9.1v7h-9.1z"/><path class="st7" d="M846.9 180.2v0c0 .1 0 .1 0 0-.1.1 0 .1 0 0-.1.1 0 .1 0 0zM912.8 240.6h-12v-12.4h8.5zM895.306 240.292h-8.8v-7.4h8.8zM872.5 232.8h8.8v7.4h-8.8zM867.025 240.292h-8.8v-7.4h8.8zM846.8 228.7h-6.3v13.7h12.3v-13.7zM804.4 161.7h84.5M783.3 219.5l127.9-.4M863.266 180.66h-9.1v-7h9.1zM879.055 180.66h-9.1v-7h9.1zM800 154.3c-.1-.1-1.6 2.9-.6 4.2h1.1c1-1.4-.5-4.3-.5-4.2zM893.8 154.3c-.1-.1-1.6 2.9-.6 4.2h1.1c1-1.4-.5-4.3-.5-4.2zM885.9 218.7c-8.4-4.3-23.1-12.8-39.2-27.1-16.1 14.3-30.8 22.8-39.2 27.1M871.5 161.6c-5.7-3-14.6-8.6-24.5-18.2-9.9 9.6-19.4 15.3-25 18.3M784.2 248.7h125.1l11.1 51.6H773.1zM815.4 214h60.8M831.7 156.7h30.4"/><path class="st7" d="M834.8 207.6h22v6h-22zM846.9 173c-.1-.2-3.3 6.6-1.6 9.4h3.1c1.7-2.8-1.5-9.7-1.5-9.4zM847 123.9c-.1-.2-3 6.6-1.5 9.4h2.9c1.5-2.7-1.4-9.6-1.4-9.4zM846.7 77.6c-.1-.2-2.6 6.6-1.3 9.4h2.5c1.2-2.7-1.2-9.6-1.2-9.4z"/></g><g><path class="st8" d="M805.4 248c-.5-1.3-11-27.7-17.7-62.8-6.4-33.8-10.4-129.9-10.8-141.2 0-.6-.5-1.1-1-1.1h-6.7c-.6 0-1 .5-1 1.1-.4 11.3-4.4 107.4-10.8 141.2-6.7 35.1-17.2 61.6-17.7 62.8v.1L714 299.3c-.4.8 20.1 1.6 20.1 1.6.5 0 .9-.4 1-.9 2.8-14.8 16-42.5 37.6-42.5 21.7 0 34.5 27.7 37.3 42.5.1.5 21.5 0 21.1-.8L805.4 248zM772.6 2v11"/><path class="st8" d="M790.3 183.5h-35.5c-.6 0-1.1-.5-1.1-1.1v-4.9c0-.6.5-1.1 1.1-1.1h35.5c.6 0 1.1.5 1.1 1.1v4.9c0 .6-.5 1.1-1.1 1.1zM779.1 197c-.1-.6-.5-1-1-1h-11.2c-.5 0-.9.4-1 1-2.2 17.4-5.4 31.4-6.5 35.8-.2.7.3 1.4 1 1.4H784.6c.7 0 1.2-.7 1-1.4-1.1-4.4-4.3-18.4-6.5-35.8zM778.8 42.3h-12.4c-.6 0-1.1-.5-1.1-1.1v-3.7c0-.6.5-1.1 1.1-1.1h12.4c.6 0 1.1.5 1.1 1.1v3.7c-.1.6-.5 1.1-1.1 1.1z"/><path class="st8" d="M767.1 36.1v-6.5c0-.4.2-.8.5-1l2.8-1.7c.2-.1.3-.1.5-.1h3.5c.2 0 .4.1.5.1l2.7 1.7c.3.2.5.6.5 1v6.5c-.1.6-11 .6-11 0zM773.3 26.8h-1.6c-.6 0-1.1-.5-1.1-1.1v-2.1c0-.6.5-1.1 1.1-1.1h1.6c.6 0 1.1.5 1.1 1.1v2.1c0 .6-.5 1.1-1.1 1.1z"/><path class="st8" d="M772.5 22.6c-.6 0-1-.5-1-1v-7.8c0-.6.5-1 1-1 .6 0 1 .5 1 1v7.8c.1.5-.4 1-1 1zM789.2 192.2s-1-6.2 2.2-8.7M777.1 50.9s-.7-6.2 2.5-8.7M809.1 255.5s-2.8-7.8-.4-11.2M756 192.2s1-6.2-2.2-8.7M768 50.9s.7-6.2-2.5-8.7M755.3 196.1H790M808 244.3h-71c-.6 0-1.1-.5-1.1-1.1v-9.8c0-.6.5-1.1 1.1-1.1h71c.6 0 1.1.5 1.1 1.1v9.8c0 .6-.5 1.1-1.1 1.1zM736.2 255.3s2.7-7.5.3-11"/></g><g><path class="st9" d="M535.7 300.5h-8.4c6.7-120.2 11.1-139.6 21.2-139.6 8.6-.5 16.2 22 20.6 138.6h-8.3S557.2 169 548.3 169c-4.9 0-9.3 40.3-12.6 131.5z"/><path class="st10" d="M717.4 285.6l-176.8-84.1M701.4 284.8l-161.1-89.3M687.1 285.1l-146.3-95.6M674.1 284.8l-131.8-100M648.2 284.8l-103.8-111M624.5 284.8L545 173.5M613.1 284.3l-70-108.3 117.8 108.8M602.1 284.6l-60-110.8M592 284.8l-48.6-114.2"/><path class="st10" d="M581.5 284.6l-35.3-114.5 1 4.7 89 110.3"/><path class="st9" d="M445.9 287.2l91.1-82.8M457.9 287.7l79.9-91.7M469.3 286.7l71.3-95.4M477.5 286.1l72.9-115.7M483.1 284.6l68.3-111.5M500.3 283.5L551.2 174l-60.5 110.8"/><path class="st9" d="M437 291.3l-.1-5.5c8.3-.2 144.5-3.4 238.4-3.4 43.5 0 68 .7 76.4 2.7l-5.7 5.3c-25.8-6.1-306 .8-309 .9zM552.1 176.9l-42.7 107.3M519 283.4l33.9-102.7M553.7 184.8l-25.8 98.6"/><path class="st9" d="M547.9 168.6c-5 0-9.3 41.2-12.6 132.4h-8.4c6.7-120.2 11.1-140.1 21.2-140.1M571.3 282.1L551.2 174M549.6 282.6l4.5-93.6M541 283l12.7-98.2"/></g><g><path class="st11" d="M445.034 219.756h-1.4v-9.5h1.4zM277.6 212.3h2.6v7.3h-2.6z"/><path class="st11" d="M277.6 212.3h2.6v7.3h-2.6zM296.6 212.3h2.6v7.3h-2.6z"/><path class="st11" d="M277.6 212.3h2.6v7.3h-2.6zM296.6 212.3h2.6v7.3h-2.6zM315.7 212.3h2.6v7.3h-2.6z"/><path class="st11" d="M277.6 212.3h2.6v7.3h-2.6zM256.6 212.4h1.4v7.3h-1.4zM296.6 212.3h2.6v7.3h-2.6zM315.7 212.3h1.4v7.3h-1.4zM334.4 212.3h1.4v7.3h-1.4zM456.2 250.7v8.5H245.7v-8.5M246.7 232.4h208.6v6.7H246.7z"/><path class="st11" d="M277.1 231.5h1.6v28.1h-1.6zM296.3 231.5h1.6v28.1h-1.6zM290.9 239v.8h1v.7h.9v.7h.6v.7h2.1V239zM283.3 239v.8h-.9v.7h-.9v.7h-.7v.7h-2.1V239zM315.8 231.5h1.6v28.1h-1.6zM310.4 239v.8h1v.7h.9v.7h.7v.7h2V239zM302.6 239v.8h-.9v.7h-.9v.7h-.7v.7H298V239zM335.2 231.5h1.6v28.1h-1.6zM329.8 239v.8h1v.7h.8v.7h.7v.7h2.1V239z"/><path class="st11" d="M322 239v.8h-1v.7h-.8v.7h-.7v.7h-2.1V239zM344.2 239.4v.8h-1.6v.7h-1.4v.7h-1.1v.7h-3.5v-2.9zM258 231.5h1.6v28.1H258zM271.9 239v.8h.9v.7h.9v.7h.7v.7h2.1V239zM264.3 239v.8h-1v.7h-.9v.7h-.6v.7h-2.1V239zM245.6 231.5h1.6v28.1h-1.6zM252.9 239v.8h1v.7h.9v.7h.6v.7h2.1V239z"/><path class="st11" d="M251.6 239v.8h-1v.7h-.8v.7h-.7v.7H247V239zM307.7 282.3l.1 15.5-8 4.1 12.3-47.5v10.4M334.2 299.7H351"/><path class="st11" d="M307.7 282.6h26.4v15.7h-26.4zM307.8 273.5v8.8M210.3 259.5h84.3v7h-84.3zM268.2 266.7h-1.9M271.2 266.7h-1.9M277.4 266.7h-1.9M280.4 266.7h-1.9M286.2 266.7h-1.8M289.3 266.7h-1.9"/><path class="st11" d="M332.9 291l5-36.7.8 6.4-5 41zM253.1 208.9c37.3-6.3 49.3-28.4 49.8-29.8h48.2M237.8 228.7c4.8-.9 13.5-2.9 19.9-6.5h95.4M277.6 212.3h2.6v7.3h-2.6z"/><path class="st11" d="M277.6 212.3h1.4v7.3h-1.4zM296.6 212.3h1.4v7.3h-1.4zM290.9 239v.8h1v.7h.9v.7h.6v.7h2.1V239zM283.3 239v.8h-.9v.7h-.9v.7h-.7v.7h-2.1V239zM310.4 239v.8h1v.7h.9v.7h.7v.7h2V239zM302.6 239v.8h-.9v.7h-.9v.7h-.7v.7H298V239zM329.8 239v.8h1v.7h.8v.7h.7v.7h2.1V239zM322 239v.8h-1v.7h-.8v.7h-.7v.7h-2.1V239zM271.9 239v.8h.9v.7h.9v.7h.7v.7h2.1V239zM264.3 239v.8h-1v.7h-.9v.7h-.6v.7h-2.1V239zM252.9 239v.8h1v.7h.9v.7h.6v.7h2.1V239zM251.6 239v.8h-1v.7h-.8v.7h-.7v.7H247V239zM307.7 282.3l.1 15.5-8 4.1 12.3-47.5v10.4M311.1 265.2v12.5"/><path class="st11" d="M311.5 259.4h25.7v6.8h-25.7zM306.9 277.9h27.2v20h-27.2zM210.3 266.2H291v11.7h-80.7z"/><path class="st11" d="M295.2 261.3l.1-6.6-15.6 38.9v8zM279.4 298.1h-69.1v-20.2M332.9 291l5-36.7.8 6.4-5 41zM456 206.7c-40.2-5.5-52.7-28.1-53.2-29.4-.5-1.4.3-3.9-.7-5.3-.8-1.1 0-3.2-.6-3.2s-.7 2.4-1.1 2.4c-1.1-.2-2.9-.2-2.7-2.4.1-.8-.6-1.4-1.3-1.4h-.1-.1c-.2 0-.3.1-.4.2-.4.2-.7.7-.7 1.2 0 1.7 1.4 3.2 1.4 4.8 0 1-.6 2-2.1 2h-43.5-43.4c-1.4 0-2.1-1-2.1-2 0-1.5 1.4-3 1.4-4.8 0-.5-.3-1-.7-1.2-.1-.1-.3-.2-.4-.2h-.1-.1c-.7 0-1.4.6-1.3 1.4.2 2.2-1.5 2.2-2.7 2.4-.4.1-.4-2.4-1.1-2.4s.1 2.1-.6 3.2c-1.1 1.4-.2 4-.7 5.3-.5 1.4-13.1 23.9-53.2 29.4-1.6.4-1.4 2.4 0 2.9 5.3 2.4 18.4 2.7 26.5 2.7h156.9c8.2 0 21.2-.3 26.5-2.7 1.6-.5 1.8-2.5.2-2.9z"/><path class="st11" d="M250.9 210.1c37.3-6.3 51.5-29.6 52-30.1h48.2M469.8 226.7c-1.4-.3-16.4-2.3-24.7-7H257c-8.2 4.7-23.2 6.7-24.7 7-1.4.3-1 1.4 0 2.1 2.2 1.9 12.8 2.7 18 2.7h201.5c5.2 0 15.7-.9 18-2.7.9-.6 1.4-1.8 0-2.1z"/><path class="st11" d="M237.8 230.3c6.5-1.2 15.5-4.3 21.4-6.9h93.9M424.51 219.628h-1.4v-7.3h1.4zM405.446 219.628h-1.4v-7.3h1.4zM386.282 219.628h-1.4v-7.3h1.4zM367.22 219.628h-1.4v-7.3h1.4zM425.27 259.478h-1.6v-28.1h1.6zM406.092 259.478h-1.6v-28.1h1.6zM411.1 239v.8h-1v.7h-.8v.7h-.7v.7h-2.1V239zM418.7 239v.8h1v.7h.8v.7h.7v.7h2.1V239zM386.567 259.478h-1.6v-28.1h1.6zM391.6 239v.8h-1v.7h-.8v.7h-.7v.7H387V239zM399.4 239v.8h1v.7h.8v.7h.7v.7h2.1V239zM367.237 259.478h-1.6v-28.1h1.6zM372.2 239v.8h-.9v.7h-.9v.7h-.7v.7h-2.1V239zM380 239v.8h1v.7h.9v.7h.6v.7h2.1V239zM357.8 239.4v.8h1.6v.7h1.4v.7h1.1v.7h3.5v-2.9zM444.43 259.478h-1.6v-28.1h1.6zM430.2 239v.8h-1v.7h-.8v.7h-.7v.7h-2.1V239zM437.8 239v.8h1v.7h.8v.7h.7v.7h2.1V239zM455.3 231.5h1.6v28.1h-1.6zM449.1 239v.8h-1v.7h-.8v.7h-.7v.7h-2.1V239zM450.4 239v.8h1v.7h.9v.7h.6v.7h2.1V239zM394.3 282.3l-.1 15.5 8 4.1-12.3-47.5v10.4M390.9 265.2v11.7M367.8 299.7h-16.7"/><path class="st11" d="M390.502 266.163h-25.7v-6.8h25.7zM395.1 297.94h-27.2v-20h27.2zM490.938 266.17h-84.2v-6.6h84.2zM410.3 266.2h80.6v11.9h-80.6z"/><path class="st11" d="M414.3 277.9H491V298h-76.7z"/><path class="st11" d="M406.8 261.3v-6.6l15.2 38.9.3 8zM369.1 291l-5-36.7-.7 6.4 4.9 41zM450.7 210.1c-37.3-6.3-51.1-29.6-51.6-30.1H351M463.9 229.9c-4.8-.9-13.8-3.1-20.7-6.5h-94.3M347.7 212.4h6.7v10.3h-6.7zM422.2 301.6l-15.5-40.3h-14.6l10 40.6zM279.7 301.6l15.4-40.3h14.6l-10 40.6z"/></g><g><path class="st2" d="M1129.4 259.8c-.7 0-1.2-.6-1.2-1.2v-36c0-.7.6-1.2 1.2-1.2h24.1c.7 0 1.2.6 1.2 1.2v36c0 .7-.6 1.2-1.2 1.2h-24.1z"/><path class="st3" d="M1153.5 222.6v36h-24.1v-36h24.1m0-2.5h-24.1c-1.4 0-2.5 1.1-2.5 2.5v36c0 1.4 1.1 2.5 2.5 2.5h24.1c1.4 0 2.5-1.1 2.5-2.5v-36c0-1.4-1.1-2.5-2.5-2.5z"/><path class="st12" d="M1135.8 238.4s.9-8.8 5.5-11.1c4.6 1.8 5.5 11.1 5.5 11.1v15.2h-11v-15.2z"/><path class="st2" d="M1132.4 300.8c-.7 0-1.2-.6-1.2-1.2V279v-.2c.1-.4 1.8-9.6 10.3-12h.6c8.6 1.9 10.3 11.7 10.4 12.1v20.8c0 .7-.6 1.2-1.2 1.2h-18.9z"/><path class="st3" d="M1141.8 267.9c7.9 1.8 9.4 11.1 9.4 11.1v20.6h-18.9V279c.1 0 1.6-8.8 9.5-11.1m0-2.5c-.2 0-.5 0-.7.1-9.3 2.7-11.1 12.6-11.2 13v21c0 1.4 1.1 2.5 2.5 2.5h18.9c1.4 0 2.5-1.1 2.5-2.5V279v-.4c-.1-.4-1.9-11-11.4-13.1-.2-.1-.4-.1-.6-.1z"/><path class="st12" d="M1129.4 174.3h24.1v48.4h-24.1z"/><path class="st2" d="M1102.8 140.1c-.7 0-1.2-.6-1.2-1.2v-23.5c0-.7.6-1.2 1.2-1.2h22.6c.7 0 1.2.6 1.2 1.2v23.5c0 .7-.6 1.2-1.2 1.2h-22.6z"/><path class="st3" d="M1125.4 115.3v23.5h-22.6v-23.5h22.6m0-2.5h-22.6c-1.4 0-2.5 1.1-2.5 2.5v23.5c0 1.4 1.1 2.5 2.5 2.5h22.6c1.4 0 2.5-1.1 2.5-2.5v-23.5c0-1.4-1.1-2.5-2.5-2.5z"/><path class="st2" d="M1100.1 168.3c-.7 0-1.2-.6-1.2-1.2v-26.5c0-.4.2-.8.5-1l4.6-3.4c.2-.2.5-.2.7-.2h18.6c.3 0 .5.1.7.2l4.6 3.3c.3.2.5.6.5 1V167c0 .7-.6 1.2-1.2 1.2h-27.8z"/><path class="st3" d="M1123.3 137.2l4.6 3.3V167h-27.8v-26.5l4.6-3.4h18.6m0-2.4h-18.6c-.5 0-1 .2-1.5.5l-4.6 3.4c-.6.5-1 1.2-1 2v26.5c0 1.4 1.1 2.5 2.5 2.5h27.8c1.4 0 2.5-1.1 2.5-2.5v-26.5c0-.8-.4-1.6-1-2l-4.6-3.3c-.4-.4-1-.6-1.5-.6z"/><path class="st2" d="M1098.9 168.3c-.4 0-.8-.2-1-.5s-.3-.7-.2-1.1l1.1-3.9c.1-.5.5-.8 1-.9h.2c.4 0 .8.2 1 .5l2.7 3.9c.3.4.3.9.1 1.3-.2.4-.6.7-1.1.7h-3.8z"/><path class="st3" d="M1099.9 163.1l2.7 3.9h-3.8l1.1-3.9m0-2.5h-.4c-1 .2-1.7.9-2 1.8l-1.1 3.9c-.2.8 0 1.6.4 2.2.5.6 1.2 1 2 1h3.8c.9 0 1.8-.5 2.2-1.3.4-.8.4-1.8-.1-2.6l-2.7-3.9c-.5-.7-1.3-1.1-2.1-1.1z"/><path class="st2" d="M1125.6 168.3c-.5 0-.9-.3-1.1-.7-.2-.4-.2-.9.1-1.3l3-4.1c.2-.3.6-.5 1-.5h.3c.5.1.9.5.9 1l.7 4.1c.1.4 0 .7-.3 1-.2.3-.6.4-1 .4h-3.6z"/><path class="st3" d="M1128.6 163l.7 4.1h-3.8l3.1-4.1m0-2.5c-.8 0-1.5.4-2 1l-3 4.1c-.6.8-.6 1.8-.2 2.6s1.3 1.4 2.2 1.4h3.8c.7 0 1.4-.3 1.9-.9.5-.6.7-1.3.5-2l-.7-4.1c-.2-1-.9-1.8-1.9-2-.2-.1-.4-.1-.6-.1z"/><path class="st2" d="M1106.7 138.5c-.7 0-1.2-.6-1.2-1.2v-26c0-.7.6-1.2 1.2-1.2h14.9c.7 0 1.2.6 1.2 1.2v26c0 .7-.6 1.2-1.2 1.2h-14.9z"/><path class="st3" d="M1121.6 111.3v26h-14.9v-26h14.9m0-2.5h-14.9c-1.4 0-2.5 1.1-2.5 2.5v26c0 1.4 1.1 2.5 2.5 2.5h14.9c1.4 0 2.5-1.1 2.5-2.5v-26c0-1.4-1.1-2.5-2.5-2.5z"/><path class="st2" d="M1106.6 168.1c-.7 0-1.2-.6-1.2-1.2v-29.5c0-.7.6-1.2 1.2-1.2h15c.7 0 1.2.6 1.2 1.2v29.5c0 .7-.6 1.2-1.2 1.2h-15z"/><path class="st3" d="M1121.6 137.3v29.5h-15v-29.5h15m0-2.5h-15c-1.4 0-2.5 1.1-2.5 2.5v29.5c0 1.4 1.1 2.5 2.5 2.5h15c1.4 0 2.5-1.1 2.5-2.5v-29.5c0-1.3-1.1-2.5-2.5-2.5z"/><ellipse class="st12" cx="1114.1" cy="153" rx="5.9" ry="6.3"/><path class="st2" d="M1100.2 141.9c-.5 0-.9-.3-1.1-.7-.2-.4-.2-.9.1-1.3l2.7-3.4c.2-.3.6-.5 1-.5h2.7c.4 0 .7.2 1 .5.2.3.3.7.2 1.1l-.8 3.4c-.1.6-.6 1-1.2 1h-4.6z"/><path class="st3" d="M1105.6 137.2l-.8 3.4h-4.6l2.7-3.4h2.7m0-2.5h-2.7c-.8 0-1.5.4-2 1l-2.7 3.4c-.6.8-.7 1.8-.3 2.6.4.9 1.3 1.4 2.2 1.4h4.6c1.2 0 2.2-.8 2.4-2l.8-3.4c.2-.7 0-1.5-.5-2.1-.3-.6-1-.9-1.8-.9zm0 5z"/><path class="st2" d="M1123.4 141.8c-.6 0-1.1-.4-1.2-1l-.6-3.4c-.1-.4 0-.7.3-1s.6-.4 1-.4h2.5c.4 0 .8.2 1 .5l2.7 3.4c.3.4.3.9.1 1.3-.2.4-.6.7-1.1.7h-4.7z"/><path class="st3" d="M1125.4 137.1l2.7 3.4h-4.6l-.6-3.4h2.5m0-2.5h-2.5c-.7 0-1.4.3-1.9.9-.5.6-.7 1.3-.6 2l.6 3.4c.2 1.2 1.2 2.1 2.5 2.1h4.6c1 0 1.8-.5 2.2-1.4.4-.9.3-1.9-.3-2.6l-2.7-3.4c-.4-.6-1.2-1-1.9-1z"/><path class="st2" d="M1102.9 116.6c-.5 0-.9-.3-1.1-.7-.2-.4-.1-1 .2-1.3l2.3-2.6c.2-.3.6-.4.9-.4h1.5c.4 0 .8.2 1.1.6.2.4.2.8 0 1.2l-1.4 2.6c-.2.4-.6.7-1.1.7h-2.4z"/><path class="st3" d="M1106.6 112.7l-1.4 2.6h-2.4l2.3-2.6h1.5m0-2.5h-1.5c-.7 0-1.4.3-1.9.9l-2.3 2.6c-.6.7-.8 1.8-.4 2.7.4.9 1.3 1.5 2.3 1.5h2.4c.9 0 1.8-.5 2.2-1.3l1.4-2.6c.4-.8.4-1.7-.1-2.5-.4-.8-1.2-1.3-2.1-1.3zm0 5z"/><path class="st2" d="M1123 116.6c-.5 0-.9-.3-1.1-.7l-1.4-2.6c-.2-.4-.2-.9 0-1.2s.6-.6 1.1-.6h1.6c.4 0 .7.2.9.4l2.3 2.6c.3.4.4.9.2 1.3s-.6.7-1.1.7h-2.5z"/><path class="st3" d="M1123.1 112.7l2.3 2.6h-2.4l-1.4-2.6h1.5m0-2.5h-1.6c-.9 0-1.7.5-2.1 1.2-.5.8-.5 1.7 0 2.5l1.4 2.6c.4.8 1.3 1.3 2.2 1.3h2.4c1 0 1.9-.6 2.3-1.5.4-.9.3-1.9-.4-2.7l-2.3-2.6c-.5-.5-1.1-.8-1.9-.8z"/><path class="st2" d="M1105 112.6c-.6 0-1.1-.4-1.2-1l-.3-1.5c-.1-.4 0-.7.3-1 .2-.3.6-.5 1-.5h18.8c.4 0 .7.2 1 .5.2.3.3.7.3 1l-.3 1.5c-.1.6-.6 1-1.2 1H1105z"/><path class="st3" d="M1123.5 109.9l-.3 1.5H1105l-.3-1.5h18.8m0-2.5h-18.8c-.7 0-1.5.3-1.9.9-.5.6-.7 1.3-.5 2.1l.3 1.5c.2 1.2 1.3 2 2.5 2h18.3c1.2 0 2.2-.8 2.5-2l.3-1.5c.1-.7-.1-1.5-.5-2.1-.7-.6-1.4-.9-2.2-.9zm0 5z"/><path class="st2" d="M1108.9 111c-.7 0-1.2-.6-1.2-1.2v-7.7c0-.7.6-1.2 1.2-1.2h10.3c.7 0 1.2.6 1.2 1.2v7.7c0 .7-.6 1.2-1.2 1.2h-10.3z"/><path class="st3" d="M1119.2 102.1v7.7h-10.3v-7.7h10.3m0-2.5h-10.3c-1.4 0-2.5 1.1-2.5 2.5v7.7c0 1.4 1.1 2.5 2.5 2.5h10.3c1.4 0 2.5-1.1 2.5-2.5v-7.7c0-1.3-1.1-2.5-2.5-2.5z"/><path class="st2" d="M1119.2 111c-.7 0-1.2-.6-1.2-1.2v-7.7c0-.7.6-1.2 1.2-1.2h3.6c.7 0 1.2.6 1.2 1.2v7.7c0 .7-.6 1.2-1.2 1.2h-3.6z"/><path class="st3" d="M1122.8 102.1v7.7h-3.6v-7.7h3.6m0-2.5h-3.6c-1.4 0-2.5 1.1-2.5 2.5v7.7c0 1.4 1.1 2.5 2.5 2.5h3.6c1.4 0 2.5-1.1 2.5-2.5v-7.7c0-1.3-1.1-2.5-2.5-2.5z"/><path class="st2" d="M1105.4 111c-.7 0-1.2-.6-1.2-1.2v-7.7c0-.7.6-1.2 1.2-1.2h3.6c.7 0 1.2.6 1.2 1.2v7.7c0 .7-.6 1.2-1.2 1.2h-3.6z"/><path class="st3" d="M1109 102.1v7.7h-3.6v-7.7h3.6m0-2.5h-3.6c-1.4 0-2.5 1.1-2.5 2.5v7.7c0 1.4 1.1 2.5 2.5 2.5h3.6c1.4 0 2.5-1.1 2.5-2.5v-7.7c0-1.3-1.1-2.5-2.5-2.5z"/><path class="st2" d="M1104.9 101.8c-.3 0-.6-.1-.8-.3-2.6-2.2-3.2-7-1.4-11.6 1.9-5.1 5.9-8.2 10.6-8.2h.9c.4 0 .8.3 1 .6.2.3.2.8.1 1.1-4.1 9.8-4.4 17-4.4 17.1 0 .7-.6 1.2-1.2 1.2h-4.8z"/><path class="st3" d="M1113.2 83h.8c-4.2 10.2-4.5 17.5-4.5 17.5h-4.7c-4.4-3.8-1.1-17.5 8.4-17.5m0-2.5c-5.2 0-9.7 3.5-11.8 9-1.9 5.1-1.1 10.4 1.8 12.9.5.4 1 .6 1.6.6h4.7c1.4 0 2.5-1.1 2.5-2.4 0-.1.3-7.1 4.3-16.6.3-.7.2-1.6-.2-2.3s-1.1-1.1-1.9-1.2h-1z"/><path class="st2" d="M1118.6 101.8c-.7 0-1.2-.5-1.2-1.2 0-.1-.3-7.3-4.4-17.1-.2-.4-.1-.8.1-1.1.2-.3.6-.6 1-.6h.9c5.7 0 9.2 4.3 10.7 8.3 1.7 4.6 1 9.3-1.5 11.5-.2.2-.5.3-.8.3h-4.8z"/><path class="st3" d="M1115 83c9.5 0 13 13.7 8.4 17.6h-4.7s-.2-7.4-4.5-17.5c.2-.1.5-.1.8-.1m0-2.5h-1c-.8.1-1.5.5-1.9 1.2s-.5 1.5-.2 2.3c4 9.6 4.3 16.6 4.3 16.6 0 1.4 1.1 2.4 2.5 2.4h4.7c.6 0 1.2-.2 1.6-.6 3-2.5 3.8-7.7 1.9-12.9-2.1-5.5-6.7-9-11.9-9z"/><path class="st2" d="M1109.3 101.8c-.5 0-1-.3-1.2-.8-1.2-2.9-2.9-15.5 5.5-19.1.2-.1.3-.1.5-.1h.1c.2 0 .3 0 .5.1 8.4 3.6 6.7 16.2 5.5 19.1-.2.5-.6.8-1.2.8h-9.7z"/><path class="st3" d="M1114.3 83c7.6 3.3 5.8 15.2 4.8 17.5h-9.8c-1-2.3-2.8-14.2 4.8-17.5h.2m0-2.5h-.1c-.3 0-.7.1-1 .2-4.1 1.8-6.6 5.6-7.1 11.2-.4 4.2.4 8.1 1 9.6.4.9 1.3 1.5 2.3 1.5h9.8c1 0 1.9-.6 2.3-1.5.6-1.5 1.4-5.4 1-9.6-.6-5.5-3-9.4-7.1-11.2-.4-.1-.8-.2-1.1-.2z"/><g><path class="st2" d="M1113.3 84.4c-.4 0-.7-.2-1-.5s-.3-.7-.3-1l.8-3.8c.1-.6.6-1 1.2-1s1.1.4 1.2 1l.8 3.8c.1.4 0 .8-.3 1-.2.3-.6.5-1 .5h-1.4z"/><path class="st3" d="M1114.1 79.3l.8 3.8h-1.6l.8-3.8m0-2.5c-1.2 0-2.2.8-2.4 2l-.8 3.8c-.2.7 0 1.5.5 2.1.5.6 1.2.9 1.9.9h1.6c.8 0 1.5-.3 1.9-.9.5-.6.7-1.4.5-2.1l-.8-3.8c-.2-1.2-1.2-2-2.4-2z"/></g><g><ellipse class="st2" cx="1114.1" cy="79.3" rx="2.3" ry="2.4"/><path class="st3" d="M1114.1 78.1c.6 0 1.1.5 1.1 1.1s-.5 1.1-1.1 1.1c-.6 0-1.1-.5-1.1-1.1s.5-1.1 1.1-1.1m0-2.5c-2 0-3.6 1.6-3.6 3.6s1.6 3.6 3.6 3.6 3.6-1.6 3.6-3.6c0-1.9-1.6-3.6-3.6-3.6z"/></g><path class="st12" d="M1114.2 148.4v5.5l-1.6-3.9"/><g><path class="st2" d="M1098.9 301c-.7 0-1.2-.6-1.2-1.2V167.1c0-.7.6-1.2 1.2-1.2h30.5c.7 0 1.2.6 1.2 1.2v132.6c0 .7-.6 1.2-1.2 1.2h-30.5z"/><path class="st3" d="M1129.4 167.1v132.6h-30.5V167.1h30.5m0-2.5h-30.5c-1.4 0-2.5 1.1-2.5 2.5v132.6c0 1.4 1.1 2.5 2.5 2.5h30.5c1.4 0 2.5-1.1 2.5-2.5V167.1c0-1.4-1.1-2.5-2.5-2.5z"/><path class="st12" d="M1105.4 299.7V170.3h-6.5M1122.8 299.7V170.3h6.6M1098.9 247h30.5M1098.9 229.4h30.5M1098.9 209.9h30.5M1098.9 189.6h30.5"/></g><g><path class="st2" d="M1112.3 223.9c-.7 0-1.2-.6-1.2-1.2V219c0-1.9 1-4 3-4 2.1 0 3 2.1 3 4v3.7c0 .7-.6 1.2-1.2 1.2h-3.6z"/><path class="st3" d="M1114.1 216.2c1.8 0 1.8 2.7 1.8 2.7v3.7h-3.6v-3.7s0-2.7 1.8-2.7m0-2.5c-2.8 0-4.3 2.6-4.3 5.2v3.7c0 1.4 1.1 2.5 2.5 2.5h3.6c1.4 0 2.5-1.1 2.5-2.5v-3.7c0-2.6-1.5-5.2-4.3-5.2z"/></g><g><path class="st12" d="M1110.2 122c0-1.3 1-4.5 3.9-5.7 2.9.9 3.9 4.1 3.9 5.7V132.1h-7.8v-9.8-.3z"/><path class="st12" d="M1110.4 121.5s.5-2.9 1.9-2.9 1.9 2.9 1.9 2.9v10.6h-3.7v-10.6z"/><path class="st12" d="M1114.2 121.5s.4-2.9 1.9-2.9 1.9 2.9 1.9 2.9v10.6h-3.7v-10.6z"/><path class="st12" d="M1117.7 120.6c-.3-.6-1.1-.3-1.1-.3.2-.2.4-.5.4-.8 0-.5-.4-1-.9-1s-.9.4-.9 1c0 .3.1.6.3.8 0 0-.7-.3-1 .2M1110.6 120.6c.3-.6 1.1-.3 1.1-.3-.2-.2-.4-.5-.4-.8 0-.5.4-1 .9-1s.9.4.9 1c0 .3-.1.6-.3.8 0 0 .7-.3 1 .2"/></g><path class="st12" d="M1106.8 114.1h14.6M1106.8 140.6h14.6"/><g><path class="st2" d="M1157.5 140.1c-.7 0-1.2-.6-1.2-1.2v-23.5c0-.7.6-1.2 1.2-1.2h22.6c.7 0 1.2.6 1.2 1.2v23.5c0 .7-.6 1.2-1.2 1.2h-22.6z"/><path class="st3" d="M1180.1 115.3v23.5h-22.6v-23.5h22.6m0-2.5h-22.6c-1.4 0-2.5 1.1-2.5 2.5v23.5c0 1.4 1.1 2.5 2.5 2.5h22.6c1.4 0 2.5-1.1 2.5-2.5v-23.5c0-1.4-1.1-2.5-2.5-2.5z"/></g><g><path class="st2" d="M1154.8 168.3c-.7 0-1.2-.6-1.2-1.2v-26.5c0-.4.2-.8.5-1l4.6-3.4c.2-.2.5-.2.7-.2h18.6c.3 0 .5.1.7.2l4.6 3.3c.3.2.5.6.5 1V167c0 .7-.6 1.2-1.2 1.2h-27.8z"/><path class="st3" d="M1178 137.2l4.6 3.3V167h-27.8v-26.5l4.6-3.4h18.6m0-2.4h-18.6c-.5 0-1 .2-1.5.5l-4.6 3.4c-.6.5-1 1.2-1 2v26.5c0 1.4 1.1 2.5 2.5 2.5h27.8c1.4 0 2.5-1.1 2.5-2.5v-26.5c0-.8-.4-1.6-1-2l-4.6-3.3c-.5-.4-1-.6-1.5-.6z"/><path class="st2" d="M1153.5 168.3c-.4 0-.7-.2-1-.4-.2-.3-.3-.7-.3-1l.8-4.8c.1-.5.5-.9 1-1h.2c.4 0 .8.2 1.1.6l2.9 4.8c.2.4.2.9 0 1.3s-.6.6-1.1.6h-3.6z"/><path class="st3" d="M1154.4 162.2l2.9 4.8h-3.8l.9-4.8m0-2.5h-.5c-1 .2-1.8 1-2 2l-.8 4.8c-.1.7.1 1.5.6 2s1.2.9 1.9.9h3.8c.9 0 1.7-.5 2.2-1.3.4-.8.4-1.8 0-2.5l-2.9-4.8c-.7-.6-1.5-1.1-2.3-1.1z"/><g><path class="st2" d="M1180.3 168.3c-.5 0-.9-.3-1.1-.7-.2-.4-.2-.9.1-1.3l3-4.1c.2-.3.6-.5 1-.5h.3c.5.1.9.5.9 1l.7 4.1c.1.4 0 .7-.3 1-.2.3-.6.4-1 .4h-3.6z"/><path class="st3" d="M1183.3 163l.7 4.1h-3.8l3.1-4.1m0-2.5c-.8 0-1.5.4-2 1l-3 4.1c-.6.8-.6 1.8-.2 2.6.4.8 1.3 1.4 2.2 1.4h3.8c.7 0 1.4-.3 1.9-.9.5-.6.7-1.3.5-2l-.7-4.1c-.2-1-.9-1.8-1.9-2-.2-.1-.4-.1-.6-.1z"/></g></g><g><path class="st2" d="M1161.4 138.5c-.7 0-1.2-.6-1.2-1.2v-26c0-.7.6-1.2 1.2-1.2h14.9c.7 0 1.2.6 1.2 1.2v26c0 .7-.6 1.2-1.2 1.2h-14.9z"/><path class="st3" d="M1176.3 111.3v26h-14.9v-26h14.9m0-2.5h-14.9c-1.4 0-2.5 1.1-2.5 2.5v26c0 1.4 1.1 2.5 2.5 2.5h14.9c1.4 0 2.5-1.1 2.5-2.5v-26c0-1.4-1.1-2.5-2.5-2.5z"/></g><g><path class="st2" d="M1161.3 168.1c-.7 0-1.2-.6-1.2-1.2v-29.5c0-.7.6-1.2 1.2-1.2h15c.7 0 1.2.6 1.2 1.2v29.5c0 .7-.6 1.2-1.2 1.2h-15z"/><path class="st3" d="M1176.3 137.3v29.5h-15v-29.5h15m0-2.5h-15c-1.4 0-2.5 1.1-2.5 2.5v29.5c0 1.4 1.1 2.5 2.5 2.5h15c1.4 0 2.5-1.1 2.5-2.5v-29.5c0-1.3-1.1-2.5-2.5-2.5z"/></g><ellipse class="st12" cx="1168.8" cy="153" rx="5.9" ry="6.3"/><g><path class="st2" d="M1154.9 141.9c-.5 0-.9-.3-1.1-.7-.2-.4-.2-.9.1-1.3l2.7-3.4c.2-.3.6-.5 1-.5h2.7c.4 0 .7.2 1 .5.2.3.3.7.2 1.1l-.8 3.4c-.1.6-.6 1-1.2 1h-4.6z"/><path class="st3" d="M1160.3 137.2l-.8 3.4h-4.6l2.7-3.4h2.7m0-2.5h-2.7c-.8 0-1.5.4-2 1l-2.7 3.4c-.6.8-.7 1.8-.3 2.6.4.9 1.3 1.4 2.2 1.4h4.6c1.2 0 2.2-.8 2.4-2l.8-3.4c.2-.7 0-1.5-.5-2.1-.3-.6-1.1-.9-1.8-.9zm0 5z"/><g><path class="st2" d="M1178.1 141.8c-.6 0-1.1-.4-1.2-1l-.6-3.4c-.1-.4 0-.7.3-1 .2-.3.6-.4 1-.4h2.5c.4 0 .8.2 1 .5l2.7 3.4c.3.4.3.9.1 1.3-.2.4-.6.7-1.1.7h-4.7z"/><path class="st3" d="M1180 137.1l2.7 3.4h-4.6l-.6-3.4h2.5m0-2.5h-2.5c-.7 0-1.4.3-1.9.9-.5.6-.7 1.3-.6 2l.6 3.4c.2 1.2 1.2 2.1 2.5 2.1h4.6c1 0 1.8-.5 2.2-1.4.4-.9.3-1.9-.3-2.6l-2.7-3.4c-.4-.6-1.1-1-1.9-1z"/></g></g><g><path class="st2" d="M1157.5 116.6c-.5 0-.9-.3-1.1-.7s-.1-1 .2-1.3l2.3-2.6c.2-.3.6-.4.9-.4h1.5c.4 0 .8.2 1.1.6.2.4.2.8 0 1.2l-1.4 2.6c-.2.4-.6.7-1.1.7h-2.4z"/><path class="st3" d="M1161.3 112.7l-1.4 2.6h-2.4l2.3-2.6h1.5m0-2.5h-1.5c-.7 0-1.4.3-1.9.9l-2.3 2.6c-.6.7-.8 1.8-.4 2.7.4.9 1.3 1.5 2.3 1.5h2.4c.9 0 1.8-.5 2.2-1.3l1.4-2.6c.4-.8.4-1.7-.1-2.5-.4-.8-1.2-1.3-2.1-1.3zm0 5z"/><g><path class="st2" d="M1177.7 116.6c-.5 0-.9-.3-1.1-.7l-1.4-2.6c-.2-.4-.2-.9 0-1.2s.6-.6 1.1-.6h1.6c.4 0 .7.2.9.4l2.3 2.6c.3.4.4.9.2 1.3s-.6.7-1.1.7h-2.5z"/><path class="st3" d="M1177.8 112.7l2.3 2.6h-2.4l-1.4-2.6h1.5m0-2.5h-1.6c-.9 0-1.7.5-2.1 1.2-.5.8-.5 1.7 0 2.5l1.4 2.6c.4.8 1.3 1.3 2.2 1.3h2.4c1 0 1.9-.6 2.3-1.5.4-.9.3-1.9-.4-2.7l-2.3-2.6c-.5-.5-1.2-.8-1.9-.8z"/></g></g><g><path class="st2" d="M1159.7 112.6c-.6 0-1.1-.4-1.2-1l-.3-1.5c-.1-.4 0-.7.3-1 .2-.3.6-.5 1-.5h18.8c.4 0 .7.2 1 .5.2.3.3.7.3 1l-.3 1.5c-.1.6-.6 1-1.2 1h-18.4z"/><path class="st3" d="M1178.2 109.9l-.3 1.5h-18.3l-.3-1.5h18.9m0-2.5h-18.8c-.7 0-1.5.3-1.9.9-.5.6-.7 1.3-.5 2.1l.3 1.5c.2 1.2 1.3 2 2.5 2h18.3c1.2 0 2.2-.8 2.5-2l.3-1.5c.1-.7-.1-1.5-.5-2.1-.7-.6-1.4-.9-2.2-.9zm0 5z"/></g><g><path class="st2" d="M1163.6 111c-.7 0-1.2-.6-1.2-1.2v-7.7c0-.7.6-1.2 1.2-1.2h10.3c.7 0 1.2.6 1.2 1.2v7.7c0 .7-.6 1.2-1.2 1.2h-10.3z"/><path class="st3" d="M1173.9 102.1v7.7h-10.3v-7.7h10.3m0-2.5h-10.3c-1.4 0-2.5 1.1-2.5 2.5v7.7c0 1.4 1.1 2.5 2.5 2.5h10.3c1.4 0 2.5-1.1 2.5-2.5v-7.7c0-1.3-1.1-2.5-2.5-2.5z"/><path class="st2" d="M1173.9 111c-.7 0-1.2-.6-1.2-1.2v-7.7c0-.7.6-1.2 1.2-1.2h3.6c.7 0 1.2.6 1.2 1.2v7.7c0 .7-.6 1.2-1.2 1.2h-3.6z"/><path class="st3" d="M1177.5 102.1v7.7h-3.6v-7.7h3.6m0-2.5h-3.6c-1.4 0-2.5 1.1-2.5 2.5v7.7c0 1.4 1.1 2.5 2.5 2.5h3.6c1.4 0 2.5-1.1 2.5-2.5v-7.7c0-1.3-1.1-2.5-2.5-2.5z"/><g><path class="st2" d="M1160.1 111c-.7 0-1.2-.6-1.2-1.2v-7.7c0-.7.6-1.2 1.2-1.2h3.6c.7 0 1.2.6 1.2 1.2v7.7c0 .7-.6 1.2-1.2 1.2h-3.6z"/><path class="st3" d="M1163.7 102.1v7.7h-3.6v-7.7h3.6m0-2.5h-3.6c-1.4 0-2.5 1.1-2.5 2.5v7.7c0 1.4 1.1 2.5 2.5 2.5h3.6c1.4 0 2.5-1.1 2.5-2.5v-7.7c0-1.3-1.1-2.5-2.5-2.5z"/></g></g><g><path class="st2" d="M1159.6 101.8c-.3 0-.6-.1-.8-.3-2.6-2.2-3.2-7-1.4-11.6 1.9-5.1 5.9-8.2 10.6-8.2h.9c.4 0 .8.3 1 .6.2.3.2.8.1 1.1-4.1 9.8-4.4 17-4.4 17.1 0 .7-.6 1.2-1.2 1.2h-4.8z"/><path class="st3" d="M1167.9 83h.8c-4.2 10.2-4.5 17.5-4.5 17.5h-4.7c-4.4-3.8-1.1-17.5 8.4-17.5m0-2.5c-5.2 0-9.7 3.5-11.8 9-1.9 5.1-1.1 10.4 1.8 12.9.5.4 1 .6 1.6.6h4.7c1.4 0 2.5-1.1 2.5-2.4 0-.1.3-7.1 4.3-16.6.3-.7.2-1.6-.2-2.3s-1.1-1.1-1.9-1.2h-1z"/><g><path class="st2" d="M1173.3 101.8c-.7 0-1.2-.5-1.2-1.2 0-.1-.3-7.3-4.4-17.1-.2-.4-.1-.8.1-1.1.2-.3.6-.6 1-.6h.9c5.7 0 9.2 4.3 10.7 8.3 1.7 4.6 1 9.3-1.5 11.5-.2.2-.5.3-.8.3h-4.8z"/><path class="st3" d="M1169.7 83c9.5 0 13 13.7 8.4 17.6h-4.7s-.2-7.4-4.5-17.5c.2-.1.5-.1.8-.1m0-2.5h-1c-.8.1-1.5.5-1.9 1.2-.4.7-.5 1.5-.2 2.3 4 9.5 4.3 16.6 4.3 16.6 0 1.3 1.2 2.4 2.5 2.4h4.7c.6 0 1.2-.2 1.6-.6 3-2.5 3.8-7.7 1.9-12.9-2.1-5.5-6.7-9-11.9-9z"/></g><g><path class="st2" d="M1164 101.8c-.5 0-1-.3-1.2-.8-1.2-2.9-2.9-15.5 5.5-19.1.2-.1.3-.1.5-.1h.1c.2 0 .3 0 .5.1 8.4 3.6 6.7 16.2 5.5 19.1-.2.5-.6.8-1.2.8h-9.7z"/><path class="st3" d="M1169 83c7.6 3.3 5.8 15.2 4.8 17.5h-9.8c-1-2.3-2.8-14.2 4.8-17.5h.2m0-2.5h-.1c-.3 0-.7.1-1 .2-4.1 1.8-6.6 5.6-7.1 11.2-.4 4.2.4 8.1 1 9.6.4.9 1.3 1.5 2.3 1.5h9.8c1 0 1.9-.6 2.3-1.5.6-1.5 1.4-5.4 1-9.6-.6-5.5-3-9.4-7.1-11.2-.4-.1-.8-.2-1.1-.2z"/></g></g><g><path class="st2" d="M1168 84.4c-.4 0-.7-.2-1-.5s-.3-.7-.3-1l.8-3.8c.1-.6.6-1 1.2-1s1.1.4 1.2 1l.8 3.8c.1.4 0 .8-.3 1s-.6.5-1 .5h-1.4z"/><path class="st3" d="M1168.8 79.3l.8 3.8h-1.6l.8-3.8m0-2.5c-1.2 0-2.2.8-2.4 2l-.8 3.8c-.2.7 0 1.5.5 2.1.5.6 1.2.9 1.9.9h1.6c.8 0 1.5-.3 1.9-.9.5-.6.7-1.4.5-2.1l-.8-3.8c-.2-1.2-1.2-2-2.4-2z"/></g><g><ellipse class="st2" cx="1168.8" cy="79.3" rx="2.3" ry="2.4"/><path class="st3" d="M1168.8 78.1c.6 0 1.1.5 1.1 1.1s-.5 1.1-1.1 1.1c-.6 0-1.1-.5-1.1-1.1s.5-1.1 1.1-1.1m0-2.5c-2 0-3.6 1.6-3.6 3.6s1.6 3.6 3.6 3.6 3.6-1.6 3.6-3.6c0-1.9-1.6-3.6-3.6-3.6z"/></g><path class="st12" d="M1168.9 148.4v5.5l-1.6-3.9"/><g><path class="st2" d="M1153.5 301c-.7 0-1.2-.6-1.2-1.2V167.1c0-.7.6-1.2 1.2-1.2h30.5c.7 0 1.2.6 1.2 1.2v132.5c0 .7-.6 1.2-1.2 1.2l-20.4.1h-10.1z"/><path class="st3" d="M1184.1 167.1v132.5l-20.4.1h-10.1V167.1h30.5m0-2.5h-30.5c-1.4 0-2.5 1.1-2.5 2.5v132.6c0 1.4 1.1 2.5 2.5 2.5h10.1l20.4-.1c1.4 0 2.5-1.1 2.5-2.5V167.1c0-1.4-1.1-2.5-2.5-2.5z"/><path class="st12" d="M1160.1 299.7V170.3h-6.6M1177.5 298.4V170.3h6.6M1153.5 247h30.6M1153.5 229.4h30.6M1153.5 209.9h30.6M1153.5 189.6h30.6"/></g><g><path class="st2" d="M1167 223.9c-.7 0-1.2-.6-1.2-1.2V219c0-1.9 1-4 3-4s3 2.1 3 4v3.7c0 .7-.6 1.2-1.2 1.2h-3.6z"/><path class="st3" d="M1168.8 216.2c1.8 0 1.8 2.7 1.8 2.7v3.7h-3.6v-3.7s0-2.7 1.8-2.7m0-2.5c-2.8 0-4.3 2.6-4.3 5.2v3.7c0 1.4 1.1 2.5 2.5 2.5h3.6c1.4 0 2.5-1.1 2.5-2.5v-3.7c0-2.6-1.5-5.2-4.3-5.2z"/></g><g><path class="st12" d="M1164.9 122c0-1.3 1-4.5 3.9-5.7 2.9.9 3.9 4.1 3.9 5.7V132.1h-7.8v-9.8-.3z"/><path class="st12" d="M1165 121.5s.5-2.9 1.9-2.9 1.9 2.9 1.9 2.9v10.6h-3.7v-10.6z"/><path class="st12" d="M1168.8 121.5s.4-2.9 1.9-2.9 1.9 2.9 1.9 2.9v10.6h-3.7v-10.6z"/><path class="st12" d="M1172.4 120.6c-.3-.6-1.1-.3-1.1-.3.2-.2.4-.5.4-.8 0-.5-.4-1-.9-1s-.9.4-.9 1c0 .3.1.6.3.8 0 0-.7-.3-1 .2M1165.3 120.6c.3-.6 1.1-.3 1.1-.3-.2-.2-.4-.5-.4-.8 0-.5.4-1 .9-1s.9.4.9 1c0 .3-.1.6-.3.8 0 0 .7-.3 1 .2"/></g><path class="st12" d="M1161.5 114.1h14.6M1161.5 140.6h14.6"/></g><g><path class="st13" d="M449.4 313.8h49.2c1.8-58.6-3.4-82.2-3.4-82.2l-41.5 15.3s-6.6 50.4-4.3 66.9z"/><path class="st2" d="M493.7 216.7c-.4 0-.7-.2-1-.4l-8.9-10.7c-.3-.3-.4-.8-.2-1.2l5.3-17.3c.2-.5.6-.9 1.2-.9s1 .4 1.2.9c0 .1 2 7 9.5 12.4 2 1.4 3 3.2 2.9 5.2-.1 5.7-8.5 11.2-9.5 11.8 0 .1-.3.2-.5.2z"/><path class="st14" d="M490.1 187.4s2 7.4 10 13.1c8 5.7-6.5 14.9-6.5 14.9l-8.9-10.7 5.4-17.3m0-2.5c-1.1 0-2.1.7-2.4 1.8l-5.3 17.3c-.3.8-.1 1.7.5 2.3l8.9 10.7c.5.6 1.2.9 1.9.9.5 0 .9-.1 1.3-.4 1-.6 9.9-6.5 10-12.8 0-1.7-.5-4.2-3.5-6.3-7.1-5.1-9-11.6-9.1-11.7-.2-1-1.1-1.8-2.3-1.8.1 0 0 0 0 0z"/><path class="st2" d="M477.1 183.9c-.3 0-.6-.1-.9-.4L465 172.2c-.2-.2-.3-.4-.3-.6l-1.6-6.5c-.1-.3 0-.6.1-.8l3.8-7.9c0-.1.1-.1.1-.2l7.6-10.1c.2-.3.6-.5 1-.5s.7.2 1 .5l8 10.1.3.6 2.8 21.7c.1.6-.2 1.1-.7 1.3l-9.4 4c-.2 0-.4.1-.6.1z"/><path class="st14" d="M475.8 146.8l8 10.1 2.8 21.7-9.4 4-11.2-11.3-1.6-6.5 3.8-7.9 7.6-10.1m0-2.5c-.8 0-1.5.4-2 1l-7.6 10.1c-.1.1-.2.3-.3.4l-3.8 7.9c-.2.5-.3 1.1-.2 1.7l1.6 6.5c.1.4.3.9.7 1.2l11.2 11.3c.5.5 1.1.7 1.8.7.3 0 .7-.1 1-.2l9.4-4c1-.4 1.6-1.5 1.5-2.6l-2.8-21.7c-.1-.5-.2-.9-.5-1.2l-8-10.1c-.5-.7-1.2-1-2-1z"/><path class="st2" d="M467.6 158.6c-.6 0-1.1-.3-1.4-.9-.3-.7-.6-1.4-.8-2.2l-9.8-.3c-.6 0-1.2-.5-1.2-1.2 0-.6.4-1.2 1.1-1.3l9.6-1.4c.3-2 1.2-3.9 2.8-5.4l-5.3-7.7c-.4-.5-.3-1.3.2-1.7.2-.2.5-.3.8-.3.3 0 .7.1.9.4l6.8 7c.9-.4 1.8-.6 2.8-.7l1.8-9.1c.1-.6.6-1 1.2-1h.1c.6.1 1.1.6 1.1 1.2v9.1c.7.2 1.4.4 2 .7l8.4-6c.2-.2.5-.2.7-.2.4 0 .7.2 1 .4.4.5.4 1.2-.1 1.7l-6.6 6.6c.2.3.5.6.7.9l9.8-1.8h.2c.5 0 1 .4 1.2.9.2.6-.1 1.3-.7 1.5l-8.9 3.6v.5l9.1 1.3c.6.1 1.1.7 1.1 1.3 0 .6-.6 1.2-1.2 1.2l-9.4.3c-.2.6-.4 1-.7 1.5-.5.9-1.2 1.1-1.6 1.1-1.4 0-2-1.4-2.9-3.6-.7-1.7-1.8-4.3-2.9-4.7-.5-.2-1.1-.4-1.9-.4-1.2 0-2.4.5-3.8 1.4-.3.3-1.1 2.2-1.5 3.3-.9 2.7-1.4 4-2.7 4z"/><path class="st14" d="M477.2 134v10.2c1.2.2 2.3.6 3.4 1.1l9-6.4-7.5 7.5c.8.6 1.4 1.4 1.9 2.3l10.7-2-9.9 3.9c.1.6.2 1.2.2 1.8v.5l10.1 1.5-10.3.3c-.1.7-.4 1.5-.7 2.1-.2.3-.4.5-.6.5-1.3 0-2.5-7.2-5.4-8.2-.7-.2-1.4-.4-2.3-.4-1.2 0-2.7.4-4.5 1.7-1.1.8-2.8 7.1-3.6 7.1-.1 0-.2-.1-.2-.2-.4-.9-.7-1.9-.9-2.9l-10.8-.3 10.6-1.5c0-2.5 1.3-4.8 3.2-6.3l-5.9-8.6 7.4 7.6c1.2-.6 2.6-1 4.1-1l2-10.3m0-2.5c-1.2 0-2.2.8-2.5 2l-1.6 8.3c-.5.1-.9.2-1.4.4l-6.3-6.4c-.5-.5-1.1-.8-1.8-.8-.6 0-1.1.2-1.6.6-1 .8-1.2 2.3-.5 3.3l4.7 6.9c-1.1 1.3-1.9 2.8-2.2 4.5l-8.7 1.3c-1.3.2-2.2 1.3-2.1 2.6.1 1.3 1.1 2.3 2.4 2.4l8.9.3c.2.5.3 1 .6 1.5.5 1 1.4 1.7 2.5 1.7 2.1 0 2.8-1.8 4-4.8.4-.9.9-2.4 1.3-2.9 1.1-.7 2-1.1 2.9-1.1.5 0 1 .1 1.5.3.7.3 1.7 2.9 2.2 4 .9 2.2 1.8 4.4 4 4.4.6 0 1.8-.2 2.7-1.7.2-.3.3-.6.5-.9l8.5-.2c1.3 0 2.3-1.1 2.4-2.4.1-1.3-.9-2.4-2.1-2.6l-5.3-.8 5.4-2.1c1-.4 1.6-1.3 1.6-2.3 0-1.3-1-2.4-2.3-2.5h-.7l-7.7 1.4 5-5c.9-.9 1-2.4.1-3.4-.5-.6-1.2-.9-1.9-.9-.5 0-1 .2-1.5.5l-7.8 5.6c-.2-.1-.4-.1-.6-.2V134c0-1.3-1-2.4-2.3-2.5h-.3z"/><path class="st2" d="M466.5 151.4h-.3l-9.4-2.1c-.6-.1-1.1-.7-1-1.4.1-.6.6-1.1 1.2-1.1l10 .3c.4 0 .8.2 1 .5.2.3.3.7.2 1.1l-.6 1.7c-.1.6-.6 1-1.1 1z"/><path class="st14" d="M457.2 148.1l10 .3-.6 1.7-9.4-2m0-2.5c-1.3 0-2.3.9-2.5 2.2-.2 1.3.7 2.5 1.9 2.8l9.4 2.1c.2 0 .4.1.5.1 1 0 2-.7 2.4-1.7l.6-1.7c.3-.8.1-1.6-.3-2.2-.5-.7-1.2-1.1-2-1.1l-10-.5z"/><path class="st13" d="M483.8 156.8l-.6-2.4-1.5-3s-3.1-2.9-5.6-2.9c-2.5 0-5.7 2.9-5.7 2.9l-1.5 3-.6 2.4"/><path class="st2" d="M476 183.4c-.4 0-.8-.2-1-.5-8.8-12.3-7.6-13.9-7.1-14.5.5-.7.7-4.4.5-8.1 0-.7.4-1.2 1.1-1.3h.2c.6 0 1.1.4 1.2 1l.6 3.2c.1.1.2.4.4.5.2.1.4.2.7.3.9.4 2.7 1.2 3.5 1.2.8 0 2.6-.8 3.5-1.2.3-.1.5-.2.7-.3.2-.1.4-.4.4-.5l.2-1c.1-.6.2-1.2.4-2v-.2c.1-.6.6-1 1.2-1h.2c.7.1 1.1.7 1 1.4v.4l-.3 1.8c-.1.5-.1 1-.3 1.5 0 .1-.2.5-.8 1.2-.6 4.8.6 8.1.6 8.1.1.4.1.8-.1 1.1l-5.6 8.4c-.4.2-.8.5-1.2.5z"/><path class="st14" d="M482.4 160.2V160.5v-.3m-12.9 0l.6 3.3s.3.9 1.2 1.3c.8.3 3.3 1.7 4.6 1.7 1.3 0 3.8-1.3 4.6-1.7.6-.2.9-.8 1.1-1.1.1-.1.1-.2.1-.2l.2-1.2c-.1.5-.1.9-.2 1.3-.1.3-.8.9-.8.9-.8 5.4.6 9.1.6 9.1l-5.6 8.4s-8.2-11.5-7.1-13.1c1.1-1.4.7-8.7.7-8.7m12.8.2l-.4 1.9c.1-.5.2-1.1.4-1.9m.1-2.7c-.2 0-.4 0-.6.1-.4.1-.7.3-1 .5-.3.2-.5.5-.7.9-.1.2-.2.4-.2.7v.1c-.2.8-.3 1.5-.4 2.1l-.1.6c-.1.1-.3.1-.5.2-.6.3-2.3 1.1-2.9 1.1-.6 0-2.3-.9-2.9-1.1-.2-.1-.3-.2-.5-.2l-.6-2.9c-.2-1.2-1.3-2-2.5-2h-.3c-1.3.2-2.3 1.3-2.2 2.6.2 3.1 0 6.5-.3 7.4-.9 1.2-1.9 3.2 7.2 15.9.5.7 1.2 1 2 1s1.6-.4 2-1.1l5.6-8.4c.4-.7.5-1.5.3-2.2 0 0-1-2.9-.6-7.1.6-.7.7-1.1.8-1.3.2-.6.3-1.2.3-1.7l.3-1.7c0-.1 0-.2.1-.3v-.1-.5c0-1.3-1.1-2.4-2.4-2.5.2-.1.1-.1.1-.1z"/><path class="st13" d="M475.5 158.9s.4.4.9.4 1.1-.5 1.1-.5-.4-3.6-.3-4 1.1-1.5 1.9-1.4c.8.1 1.1 0 1.8.5M475.1 154.3s-1.1-1.1-2.7-.7"/><path class="st2" d="M467 160.5c-.6 0-1-.4-1.1-1 0-.2-.2-1.2-.1-4.1.2-3.5 3-9.2 9.7-9.2h.4c.5 0 1 .4 1.2.9.1.3.7 2.9-3.7 5.7-3.3 2.1-5 6.7-5 6.8-.3.6-.8.9-1.4.9.1 0 .1 0 0 0z"/><path class="st14" d="M475.5 147.6h.3s.5 1.9-3.2 4.3-5.5 7.4-5.5 7.4-.2-.9-.1-3.7c.2-2.9 2.4-8 8.5-8m0-2.5c-7.6 0-10.7 6.4-10.9 10.4-.1 2.9 0 4 .1 4.4.2 1.1 1.2 1.9 2.3 1.9h.1c1.1 0 2-.7 2.4-1.7 0 0 1.6-4.3 4.5-6.1 5-3.2 4.4-6.5 4.2-7.1-.3-1.1-1.2-1.8-2.3-1.8h-.4z"/><path class="st2" d="M484.1 160.9c-.5 0-1-.4-1.2-.9 0 0-1.5-4.9-4.7-7-4.4-2.8-3.8-5.4-3.7-5.7.1-.5.6-.9 1.2-.9h.4c6.7 0 9.5 5.6 9.7 9.2.2 3-.3 4.4-.4 4.6-.3.3-.8.7-1.3.7z"/><path class="st14" d="M476 147.6c6.1 0 8.3 5.2 8.4 8 .1 2.8-.3 4.1-.3 4.1s-1.5-5.4-5.3-7.7c-3.7-2.4-3.2-4.3-3.2-4.3.2-.1.3-.1.4-.1m0-2.5h-.4c-1.1 0-2 .8-2.3 1.8-.2.6-.8 3.9 4.2 7.1 2.4 1.5 3.8 5.1 4.2 6.3.3 1 1.2 1.8 2.3 1.8h.1c1 0 2-.6 2.3-1.6.2-.4.6-2 .5-5.1-.2-4-3.3-10.3-10.9-10.3z"/><path class="st2" d="M452.4 166.9c-.2 0-.4 0-.5-.1-.4-.2-.7-.6-.7-1.1 0-1.4-1.1-34.7-.9-41-.2-.9-.6-2-1-3.2-.7-1.9-1.6-4-1.6-6.3 0-.8.3-3.3 4-3.3 1.5 0 3.1.4 3.5.5.7.1 3.8.8 4.5 3.6.4 1.6-.3 3.3-1 5-.6 1.3-1.1 2.7-1.1 3.8l4.4 34.4c.1.4-.1.9-.5 1.2l-8.2 6.3c-.4.1-.7.2-.9.2z"/><path class="st14" d="M451.6 113.2c1.6 0 3.2.5 3.2.5s3 .4 3.5 2.7c.6 2.3-2.4 5.8-2.1 8.5l4.4 34.5-8.2 6.3s-1.1-35-.9-41c-.4-2.7-2.6-6-2.6-9.4 0-1.7 1.3-2.1 2.7-2.1m0-2.5c-3.9 0-5.3 2.5-5.3 4.5 0 2.5.9 4.7 1.7 6.7.4 1.1.8 2.1 1 2.9-.2 6.7.9 39.5.9 40.9 0 .9.6 1.8 1.4 2.2.3.2.7.2 1.1.2.5 0 1.1-.2 1.5-.5l8.2-6.3c.7-.5 1.1-1.4 1-2.3l-4.4-34.4c0-.8.5-2 1-3.1.8-1.9 1.6-3.8 1.1-5.7-.7-3-3.6-4.2-5.4-4.5-.6-.2-2.2-.6-3.8-.6z"/><path class="st2" d="M449.8 114.4c-1.1 0-2-.9-2.2-2l-.7-5.3c-.2-1.2.7-2.4 1.9-2.6h.3c1.1 0 2.1.9 2.2 2l.7 5.3c.2 1.2-.7 2.4-1.9 2.6h-.3z"/><path class="st14" d="M449.1 105.9c.5 0 .9.4 1 .9l.7 5.3c.1.6-.3 1.1-.8 1.2h-.1c-.5 0-.9-.4-1-.9l-.7-5.3c-.1-.6.3-1.1.8-1.2h.1m0-2.5h-.5c-1.9.3-3.2 2-2.9 3.9l.7 5.3c.2 1.7 1.7 3.1 3.4 3.1h.5c1.9-.3 3.2-2 2.9-3.9l-.7-5.3c-.2-1.8-1.7-3.1-3.4-3.1z"/><path class="st2" d="M453 129.8c-1.2 0-1.8-.9-2.8-5.9-.6-2.9-1.1-6.7-1.4-10.1-.8-8.8 0-9.7 1.3-9.9 1.1-.2 2.1-.3 2.8-.4h1.1c.7 0 1.7.1 2.8.3 1.2.2 2.1 1.1 1.3 9.9-.3 3.4-.9 7.1-1.4 10.1-1 5.1-1.7 5.9-2.8 5.9h-.9z"/><path class="st14" d="M453.6 104.7c.6 0 1.6.1 2.8.4 1.8.4-1.2 23.5-2.8 23.5h-.6c-1.5 0-4.6-23.1-2.8-23.5 1.2-.2 2.2-.3 2.8-.3h.3c.2-.1.3-.1.3-.1m0-2.5h-.8c-.7 0-1.7.1-2.9.4-2.5.5-3.1 3-2.3 11.3.3 3.4.9 7.2 1.4 10.2.8 4.2 1.5 6.9 4.1 6.9h.6c2.5 0 3.2-2.7 4.1-6.9.6-2.9 1.1-6.7 1.4-10.2.8-8.3.3-10.8-2.3-11.3-1.1-.2-2.1-.3-2.9-.4-.1.1-.3 0-.4 0z"/><path class="st2" d="M453.7 101.1c-2.7 0-5.1-1.1-6.3-2.9-.8-1.3-.9-2.7-.2-4.1 1.9-4.1 3.5-5.5 3.7-5.7.2-.2.5-.3.8-.3.1 0 .3 0 .4.1-.1-1.2.3-2.5 1.5-3.5.2-.2.5-.3.8-.3h.3c.4.1.7.3.9.7 1.3 2.8 2.9 5 2.9 5 0 .1.1.1.1.2.3.5 2.5 5.3.5 8.4-1.1 1.6-2.8 2.4-5.4 2.4z"/><path class="st14" d="M454.4 85.7c1.3 2.9 3 5.2 3 5.2s4.3 9-3.7 9c-3.7 0-6.7-2.3-5.3-5.2 1.8-4 3.3-5.2 3.3-5.2s-.3 4.1 1.6 4.1c.1 0 .2 0 .4-.1 2.4-.6-2.3-5.2.7-7.8m0-2.5c-.6 0-1.2.2-1.6.6-1.2 1-1.7 2.2-1.8 3.3-.3.1-.6.3-.8.5-.4.3-2.1 1.9-4 6.1-.8 1.8-.7 3.7.3 5.3 1.4 2.1 4.2 3.4 7.3 3.4 3.7 0 5.5-1.6 6.4-3 2.3-3.7-.1-9-.4-9.6-.1-.1-.1-.3-.2-.4 0 0-1.6-2.2-2.8-4.8-.3-.7-1-1.2-1.7-1.4h-.7z"/><path class="st2" d="M453.4 108.7c-4.3 0-7.5-.7-7.6-.8-.6-.1-1-.6-1-1.2V100c0-.6.4-1 .9-1.2.1 0 3.5-1 7.7-1s7.5 1 7.6 1c.5.2.9.6.9 1.2v6.7c0 .6-.4 1.1-1 1.2-.1.1-3.2.8-7.5.8z"/><path class="st14" d="M453.4 99c4.1 0 7.2 1 7.2 1v6.7s-3.1.7-7.2.7c-4.2 0-7.3-.7-7.3-.7V100c-.1 0 3.2-1 7.3-1m0-2.5c-4.4 0-7.9 1-8 1.1-1.1.3-1.8 1.3-1.8 2.4v6.7c0 1.2.8 2.2 1.9 2.4.1 0 3.5.8 7.9.8s7.7-.8 7.8-.8c1.1-.3 1.9-1.3 1.9-2.4V100c0-1.1-.7-2.1-1.8-2.4-.1-.1-3.5-1.1-7.9-1.1z"/><g><path class="st2" d="M452.4 124c-.3 0-.6-.1-.9-.2l-4.4-2.1c-1.1-.5-1.6-1.8-1.1-3l.1-.3c.4-.8 1.2-1.4 2.1-1.4.3 0 .6.1.9.2l4.4 2.1c1.1.5 1.6 1.8 1.1 3l-.1.3c-.4.8-1.2 1.4-2.1 1.4z"/><path class="st14" d="M448.1 118.3c.1 0 .3 0 .4.1l4.4 2.1c.5.2.7.8.5 1.4l-.1.3c-.2.4-.5.6-.9.6-.1 0-.3 0-.4-.1l-4.4-2.1c-.5-.2-.7-.8-.5-1.4l.1-.3c.2-.4.5-.6.9-.6m0-2.5c-1.4 0-2.7.9-3.2 2.2l-.1.3c-.7 1.8 0 3.8 1.8 4.6l4.4 2.1c.5.2 1 .3 1.5.3 1.4 0 2.7-.9 3.2-2.2l.1-.3c.7-1.8 0-3.8-1.8-4.6l-4.4-2.1c-.5-.2-1-.3-1.5-.3z"/></g><g><path class="st2" d="M453.5 120.9c-.3 0-.7-.1-1-.2l-5.2-2.4c-1.1-.5-1.7-1.9-1.2-3.1l.1-.2c.4-.9 1.2-1.4 2.1-1.4.3 0 .6.1 1 .2l5.2 2.4c1.1.5 1.7 1.9 1.2 3.1l-.1.2c-.4.9-1.2 1.4-2.1 1.4z"/><path class="st14" d="M448.4 114.9c.1 0 .3 0 .4.1l5.2 2.4c.5.2.8.9.5 1.5l-.1.2c-.2.4-.6.7-1 .7-.1 0-.3 0-.4-.1l-5.2-2.4c-.5-.2-.8-.9-.5-1.5l.1-.2c.2-.5.6-.7 1-.7m0-2.5c-1.4 0-2.7.9-3.3 2.2l-.1.2c-.7 1.8 0 3.9 1.8 4.7l5.2 2.4c.5.2 1 .3 1.5.3 1.4 0 2.7-.9 3.3-2.2l.1-.2c.7-1.8 0-3.9-1.8-4.7l-5.2-2.4c-.5-.2-1-.3-1.5-.3z"/></g><g><path class="st2" d="M454.5 117.8c-.3 0-.7-.1-1-.2l-5.8-2.7c-1.2-.5-1.7-2-1.2-3.2.4-1 1.2-1.5 2.2-1.5.3 0 .7.1 1 .2l5.8 2.7c1.2.5 1.7 2 1.2 3.2-.4.9-1.2 1.5-2.2 1.5z"/><path class="st14" d="M448.8 111.5c.1 0 .3 0 .4.1l5.8 2.7c.6.3.8.9.6 1.5v.1c-.2.4-.6.7-1 .7-.1 0-.3 0-.4-.1l-5.8-2.7c-.6-.3-.8-.9-.6-1.5v-.1c.2-.5.6-.7 1-.7m0-2.5c-1.5 0-2.8.9-3.3 2.2v.1c-.8 1.8 0 3.9 1.8 4.8l5.8 2.7c.5.2 1 .3 1.5.3 1.5 0 2.8-.9 3.3-2.2v-.1c.8-1.8 0-3.9-1.8-4.8l-5.8-2.7c-.5-.2-1-.3-1.5-.3z"/></g><path class="st13" d="M457.4 121c-1.5-.7-2.7-8.4-2.7-8.4-.2-.5.2-1.5.8-1.9 1.1-.8 2 .2 2.2.7 0 0 1.2 3.2 1.5 4.3.2 1.2.1 6-1.8 5.3z"/><g><path class="st2" d="M448.3 303.4c-.4 0-.9-.3-1.1-.7-.6-1.1-2.4-4.5 1.9-26.3 2.1-10.6 4.6-20.5 4.6-20.6 0-.1.1-.2.1-.3l37.8-68.7c.2-.4.6-.6 1.1-.6h.2c.5.1.9.5 1 1.1l5 45.5c0 .2 0 .4-.1.6-1 2.9-25.6 70-50.2 70h-.3z"/><path class="st14" d="M492.7 187.4l5 45.5s-25 69.2-49 69.2h-.4c-3.5-6.6 6.6-46 6.6-46l37.8-68.7m0-2.5c-.9 0-1.7.5-2.2 1.3l-37.8 68.7c-.1.2-.2.4-.2.6 0 .1-2.6 10-4.6 20.7-4.3 22.2-2.5 25.8-1.7 27.1.4.8 1.2 1.3 2.1 1.3h.5c10.9 0 22.9-12.1 35.7-35.9 9.2-17.3 15.6-34.7 15.7-34.9.1-.4.2-.7.1-1.1l-5-45.5c-.1-1.1-.9-2-2-2.2-.3-.1-.5-.1-.6-.1z"/></g><g><path class="st2" d="M452.4 270c-.2 0-.3 0-.5-.1-.4-.2-.7-.6-.8-1.1-.8-11.7 3-31.1 3.2-31.9 0-.1.1-.3.2-.4l34.5-57.8c.2-.4.6-.6 1.1-.6h.2c.5.1.9.5 1 1 .1.7 2.9 18.4 2.7 28.6v.2c-5 21.9-24.1 46.7-40.7 61.6-.3.4-.6.5-.9.5z"/><path class="st14" d="M490.1 179.4s2.9 18.2 2.7 28.4c-4.9 21.6-23.8 46.2-40.4 61-.7-11.7 3.1-31.6 3.1-31.6l34.6-57.8m0-2.5c-.9 0-1.7.5-2.1 1.2l-34.5 57.8c-.1.2-.3.5-.3.8-.2.8-3.9 20.4-3.2 32.2.1 1 .7 1.8 1.5 2.2.3.1.6.2.9.2.6 0 1.2-.2 1.7-.6 16.8-15 36.1-40.1 41.1-62.3 0-.2.1-.3.1-.5.2-10.3-2.6-28.1-2.7-28.8-.2-1-1-1.9-2-2.1-.2-.1-.3-.1-.5-.1z"/></g><g><path class="st2" d="M499.7 225.3c-.1 0-.3 0-.4-.1l-4.2-1.6c-.4-.2-.7-.5-.8-.9l-2.7-14.7c-.1-.3 0-.6.2-.9l10.3-16.3c.2-.4.6-.6 1.1-.6.2 0 .4 0 .6.1l11.8 5.9c.3.2.5.4.6.8s.1.7-.1 1l-15.2 26.7c-.3.4-.7.6-1.2.6z"/><path class="st14" d="M503.1 191.5l11.8 5.9-15.2 26.7-4.2-1.6-2.7-14.7 10.3-16.3m0-2.5c-.8 0-1.6.4-2.1 1.2l-10.3 16.3c-.3.5-.5 1.2-.3 1.8L493 223c.2.9.8 1.6 1.6 1.9l4.2 1.6c.3.1.6.2.9.2.9 0 1.7-.5 2.2-1.3l15.2-26.7c.3-.6.4-1.3.2-2s-.7-1.2-1.3-1.5l-11.8-5.9c-.4-.2-.8-.3-1.1-.3z"/></g><g><path class="st2" d="M507.1 214.5c-.6 0-1.2-.3-1.6-.8l-1.9-2.3c-.7-.9-.6-2.2.2-3l.5-.4c.4-.3.9-.5 1.4-.5.6 0 1.2.3 1.6.8l1.9 2.3c.7.9.6 2.2-.2 3l-.5.4c-.4.3-.9.5-1.4.5z"/><path class="st14" d="M505.7 208.7c.2 0 .5.1.6.3l1.9 2.3c.3.4.3.9-.1 1.3l-.5.4c-.2.1-.3.2-.5.2s-.5-.1-.6-.3l-1.9-2.3c-.3-.4-.3-.9.1-1.3l.5-.4c.1-.1.3-.2.5-.2m0-2.5c-.8 0-1.6.3-2.2.9l-.5.4c-1.3 1.2-1.5 3.3-.4 4.7l1.9 2.3c.6.8 1.6 1.3 2.6 1.3.8 0 1.6-.3 2.2-.9l.5-.4c1.3-1.2 1.5-3.3.4-4.7l-1.9-2.3c-.6-.8-1.6-1.3-2.6-1.3z"/></g><g><path class="st2" d="M508.9 212.9c-.6 0-1.2-.3-1.7-.8l-2.2-2.8c-.7-.9-.6-2.3.2-3l.4-.3c.4-.4.9-.5 1.4-.5.6 0 1.2.3 1.7.8l2.2 2.8c.7.9.6 2.3-.2 3l-.4.3c-.4.3-.9.5-1.4.5z"/><path class="st14" d="M507 206.7c.3 0 .5.1.7.3l2.2 2.8c.3.4.3 1-.1 1.3l-.4.3c-.2.2-.4.2-.6.2-.3 0-.5-.1-.7-.3l-2.2-2.8c-.3-.4-.3-1 .1-1.3l.4-.3c.2-.2.4-.2.6-.2m0-2.5c-.8 0-1.6.3-2.3.9l-.4.3c-1.4 1.2-1.5 3.3-.4 4.7l2.2 2.8c.6.8 1.6 1.3 2.6 1.3.8 0 1.6-.3 2.3-.9l.4-.3c1.4-1.2 1.5-3.3.4-4.7l-2.2-2.8c-.6-.9-1.5-1.3-2.6-1.3z"/></g><g><path class="st2" d="M510.5 211.3c-.7 0-1.3-.3-1.7-.8l-2.5-3.1c-.8-.9-.6-2.3.2-3.1l.3-.3c.4-.4.9-.6 1.4-.6.7 0 1.3.3 1.7.8l2.5 3.1c.8.9.6 2.3-.2 3.1l-.3.3c-.4.4-.9.6-1.4.6z"/><path class="st14" d="M508.3 204.7c.3 0 .5.1.7.4l2.5 3.1c.3.4.3 1-.1 1.4l-.3.3c-.2.2-.4.2-.6.2-.3 0-.5-.1-.7-.4l-2.5-3.1c-.3-.4-.3-1 .1-1.4l.3-.3c.2-.1.4-.2.6-.2m0-2.5c-.8 0-1.7.3-2.3.9l-.3.3c-1.4 1.2-1.5 3.4-.4 4.8l2.5 3.1c.7.8 1.6 1.3 2.7 1.3.8 0 1.7-.3 2.3-.9l.3-.3c1.4-1.2 1.5-3.4.4-4.8l-2.5-3.1c-.7-.8-1.6-1.3-2.7-1.3z"/></g><g><path class="st2" d="M455.2 209.6c-.2 0-.3 0-.5-.1-.5-.2-.8-.8-.7-1.4 1.9-11.8-2.5-25-5.2-32.9-.5-1.5-1-2.9-1.3-4-2.4-7.8 3.1-16.5 3.3-16.8.2-.4.6-.6 1.1-.6h.3c.5.1.9.6.9 1.1l.4 7.6c1.5-1.7 3.8-5.3 5.2-12.3.1-.4.4-.8.8-.9.1 0 .3-.1.4-.1.3 0 .6.1.9.3 1.8 1.7 2.2 4.7 2.7 7.9.3 1.8.6 3.6 1.1 5 .3.9.9 1.3 1.8 1.9 1 .7 2.3 1.7 3.1 3.6 1.3 3.4 3.5 7.4 6.6 7.4 2.5 0 4.7-2.5 4.7-2.5.2-.3.6-.4 1-.4.3 0 .6.1.8.3.5.4.6 1.2.2 1.7l-26.4 34.7c-.5.3-.8.5-1.2.5z"/><path class="st14" d="M459.8 150.5c2.4 2.3 2.1 8.4 3.5 12.4.9 2.6 3.7 2.5 4.9 5.6 2.4 6.4 5.3 8.2 7.7 8.2 3.2 0 5.6-3 5.6-3l-26.4 34.7c2.4-14.3-4.3-30.1-6.6-37.5-2.3-7.4 3.1-15.8 3.1-15.8l.6 10.1c.1 0 5.1-2.3 7.6-14.7m0-2.5c-.3 0-.5 0-.8.1-.9.3-1.5 1-1.7 1.9-.8 4-1.9 6.9-2.9 8.8l-.2-3.9c-.1-1.1-.8-2-1.9-2.3-.2-.1-.4-.1-.6-.1-.8 0-1.6.4-2.1 1.2-.2.4-6 9.5-3.4 17.9.4 1.2.8 2.5 1.3 4 2.6 7.8 7.1 20.8 5.2 32.3-.2 1.1.4 2.2 1.5 2.7.3.1.7.2 1 .2.8 0 1.5-.3 2-1l26.4-34.7c.8-1.1.6-2.6-.4-3.5-.5-.4-1-.5-1.6-.5-.7 0-1.4.3-1.9.9-.5.6-2.1 2.1-3.7 2.1-1.9 0-3.8-2.3-5.4-6.6-.9-2.3-2.4-3.4-3.5-4.2-.9-.6-1.2-.9-1.3-1.3-.5-1.3-.7-3.1-1-4.8-.5-3.3-1-6.6-3.1-8.6-.6-.3-1.2-.6-1.9-.6z"/></g><g><path class="st2" d="M455.6 196.7c-.5 0-1-.2-1.4-.7-2.6-2.8-6.7-20-6.4-25.1.5-7.4 1.9-9.3 2.3-9.7.2-.2.5-.3.8-.3h.3c.4.1.7.4.9.8l2.1 6.5c1.5-1.5 4.1-5 5.7-12.8.1-.5.5-.8.9-1h.3c.4 0 .7.2 1 .5 7.3 9-3.1 38.8-5.4 41.4l-.3.3c-.3 0-.6.1-.8.1z"/><path class="st14" d="M461.1 155.7c6.7 8.3-3.2 37.3-5.3 39.7h-.2c-2.1 0-6.9-19.1-6.6-24.5.5-7.5 1.9-8.8 1.9-8.8l2.6 8.2s5.1-2.3 7.6-14.6m0-2.5c-.2 0-.4 0-.6.1-.9.2-1.7 1-1.9 1.9-1.1 5.4-2.7 8.6-3.9 10.5l-1.4-4.3c-.3-.8-.9-1.4-1.7-1.7-.2-.1-.4-.1-.6-.1-.6 0-1.2.2-1.7.7-.8.8-2.3 3.1-2.7 10.5-.3 5.1 3.6 22.7 6.7 26.1.8.9 1.7 1.1 2.3 1.1.5 0 1-.1 1.4-.4.2-.1.5-.3.6-.5 1.7-1.9 4.8-10.9 6.6-18.8 2.6-11.9 2.2-20-1.2-24.2-.5-.6-1.2-.9-1.9-.9z"/></g><g><path class="st2" d="M451.6 182.3c-.4 0-1-.1-1.6-.7-2.1-2.3-3.5-11.3-3.2-15.8.5-7.9 4.2-11.4 4.4-11.6.2-.2.5-.3.8-.3.2 0 .3 0 .5.1.4.2.8.6.8 1.1l.4 7.4c1.5-1.8 3.6-5.4 5-12.3.1-.5.5-.9.9-1h.3c.4 0 .8.2 1 .5 7.3 9.6-5.9 30-8.1 32.1-.1.1-.2.1-.3.2-.3.2-.6.3-.9.3z"/><path class="st14" d="M459.9 150.5c6.6 8.7-5.9 28.5-8 30.5-.1.1-.2.1-.3.1-1.9 0-3.9-9.9-3.5-15.2.5-7.5 4-10.7 4-10.7l.6 10.1c-.1-.1 4.7-2.5 7.2-14.8m0-2.5c-.2 0-.4 0-.6.1-1 .2-1.7 1-1.9 1.9-.8 3.8-1.8 6.6-2.7 8.5l-.2-3.5c-.1-1-.7-1.8-1.6-2.2-.3-.1-.6-.2-.9-.2-.6 0-1.2.2-1.7.7-.4.4-4.3 4.2-4.8 12.4-.3 4.8 1.1 14.1 3.6 16.7.9.9 1.8 1.1 2.5 1.1.5 0 1.1-.1 1.5-.4.2-.1.4-.2.5-.4 2.4-2.3 16.1-23.4 8.2-33.8-.4-.6-1.1-.9-1.9-.9z"/></g><g><path class="st2" d="M451.7 246c-.3 0-.6-.1-.8-.3-.3-.3-.5-.7-.5-1.1.3-2.5 1.4-11.1 3-16.8.6-2-.4-4.3-1.3-6.7-1.4-3.4-2.9-7.2-.2-10.8 4.1-5.4 28.5-37.1 28.7-37.4.2-.3.6-.5 1-.5.2 0 .3 0 .4.1 1.4.5 8.3 3.3 9.2 6.5.7 2.5-9.3 22.8-14.8 33.2-7.6 14.1-18 31.5-24.4 33.7 0 .1-.2.1-.3.1z"/><path class="st14" d="M481.7 173.7s7.6 3 8.5 5.7c.8 2.7-27.3 61.4-38.4 65.4.3-2.5 1.4-11 3-16.6s-5.9-11.7-1.7-17.1c4-5.4 28.6-37.4 28.6-37.4m0-2.5c-.8 0-1.5.3-2 1-.2.3-24.6 32-28.7 37.4-3.2 4.2-1.4 8.5 0 12 .9 2.2 1.7 4.3 1.3 5.9-1.6 5.8-2.8 14.4-3.1 17-.1.9.3 1.7.9 2.2.4.4 1 .5 1.6.5.3 0 .6 0 .8-.1 5.4-1.9 13.9-13.5 25-34.3 3.9-7.2 7.8-15 10.7-21.6 4.8-10.6 4.5-11.6 4.2-12.6-1.1-3.5-7.3-6.3-10-7.3-.1 0-.4-.1-.7-.1z"/></g></g><g><path class="st9" d="M1029 28.6c-.1-2.4-3.5-4.3-7.7-4.3s-7.6 1.9-7.7 4.3v8.2h15.6v-8.2h-.2z"/><path class="st9" d="M1020.8 262.3C1002.8 126.4 1002 37 1002 37l17-9.6s20.6 140.5 25.1 235.3l-23.3-.4z"/><path class="st9" d="M1004.4 96c1.9 31.5 9.6 121.5 16.4 166.2l-18.6 2c-.8-26.3 1.9-138.1 2.2-168.2zM1019 27.7s20.6 140.5 25.1 235.3l2.9-.7c12.7-121.1-.6-233.7-.6-233.7l-27.4-.9z"/><path class="st10" d="M1050.6 262.3c14.7-143.8-.8-233.5-.8-233.5l-31.3-.7 33.6 29.6-29.8-3.6 32.5 32.9-28.9-5.6 29.9 35.2-26.3-6.5 26.7 36.6-23.2-6.6 22.4 37.1-19.2-6.6 17.8 37-14.6-5.3 12 36.1-9.1-3.9 5.1 26.9 3.2.9z"/><path class="st6" d="M1002.8 61c10.7-6.2 19.5-7.2 19.5-7.2l.3 2.4s-10.9 1.6-19.8 7.2V61zM1004.2 86s14.4-5.5 22.1-5.2l.3 2.8c-8.3-.3-22.3 4.8-22.3 4.8l-.1-2.4zM1004.6 117.3c.4-1.9.9-2.8.9-2.8s15.1-3.7 24.4-2.3l-.5-3c-13.1-.7-24.2 2.9-24.2 2.9s-.4.5-.6 5.2zM1004.2 147.4c-.5-4.9 2.6-7.8 2.6-7.8s14.5-2 25.4-1.2l.3 3.3c-13.5-.7-25.6 1-25.6 1s-2.2 1.7-2.7 4.7zM1035.4 168.7c-9.8-1.3-26.1-.1-26.1-.1s-5.1 2.8-5.7 6.4l-.1 1.8c2.5-4.5 6.2-5.5 6.2-5.5s14.7-1.1 25.9.5l-.2-3.1zM1038.5 200l.2 3.4c-8.9-1.7-25.9-1.1-25.9-1.1s-7.2 1.3-10.5 5l.2-3.2c3.4-3.5 10.1-5 10.1-5s20.9-.6 25.9.9zM1002.1 236.9l.1-2.6c5.4-2.3 14.1-3.4 14.1-3.4s22.2.4 24.5 1.2l.3 3c-7.6-1-24.4-1.3-24.4-1.3s-8.8.8-14.6 3.1z"/></g><g><path class="st13" d="M1090.8 265.6s-2.9-6.1-4.3-14.7c-1.6-13-3.2-155.5-3.2-155.5h-5.7s-1.4 142.5-3 155.5c-1.4 8.6-4.3 14.7-4.3 14.7 3.4 1.9 17.1 1.7 20.5 0z"/><ellipse class="st13" cx="1080.6" cy="86.4" rx="10.1" ry="10.7"/><path class="st13" d="M1080.6 3.5v59.3M1085 63.3c0-.5-2-.9-4.4-.9-2.5 0-4.4.4-4.4.9v13.5h8.9l-.1-13.5zM1085 110.1v-1.6c0-.5-2-.9-4.4-.9-2.4 0-4.4.4-4.4.9v2.1c0 .5 2 .9 4.4.9s4.4-.4 4.4-.9v-.5z"/></g><g><path class="st15" d="M1.8 185.5h7.7l19.4-32.2 19.6 32.2h7.6M110.2 299.6v-117h-4.6c-10-9.6-12.4-33.8-12.4-33.8H73.7s-2.4 24.2-12.4 33.8h-4.6v117h53.5z"/><path class="st15" d="M103.43 255.61h-16.3v-15.4h16.3zM90.572 235.286h-14.1v-23.2h14.1zM103.215 231.8h-7.2V212h7.2zM103.502 203.298h-7.4v-11.9h7.4zM90.572 207.074h-14.1v-15.7h14.1zM88.22 177.082h-9.6v-11.9h9.6zM63.5 240.2h16.3v15.4H63.5zM63.8 212H71v19.8h-7.2zM63.5 191.4h7.4v11.9h-7.4zM75.3 289.9H89l-.1-19.7M74.237 289.88h-12.7v-19.4h12.7zM110.2 262.3H56.9M138.33 171.118h-2.5v-2.5h2.5zM1.2 186.4h8.6l19.1-31.6 19.3 31.6h8.5v113.3H1.2V276zM94.5 269.7h10.7v24.9H94.5z"/><path class="st15" d="M139.03 169.018h-3.9v-3.9h3.9z"/><path class="st15" d="M163.6 186v-1.2l-1.8-1.2c.3-.4.4-.9.4-1.4 0-1.4-1.2-2.6-2.6-2.6-1 0-1.8.5-2.3 1.3h-.3c-.6 0-1.1.4-1.2.9-8.3-1.5-6.7-18-6.7-18H145.9c0-4.5-4-8.1-8.8-8.1h-.1c-4.9 0-8.8 3.6-8.8 8.1H125s1.7 16.5-6.7 18c-.2-.5-.7-.9-1.2-.9h-.3c-.4-.8-1.3-1.3-2.3-1.3-1.4 0-2.6 1.1-2.6 2.6 0 .5.2 1 .4 1.4l-1.8 1.2v1.2"/><path class="st15" d="M126.2 186v-21h2.6c0-4.5 3.6-8.1 8-8.1s8 3.6 8 8.1h3v21h15.7l.4 113.7h-53.4l-.3-113.7h16z"/><path class="st15" d="M141.33 185.934h-8.6v-11.9h8.6zM155.792 208.548h-10.7v-11.8h10.7zM128.89 208.548h-10.7v-11.8h10.7z"/><path class="st15" d="M145.1 212.816h-16.2v-16.1h16.2zM155.83 235.554h-15.7v-16.3h15.7zM133.854 235.554h-15.7v-16.3h15.7zM155.83 259.734h-15.7v-17.7h15.7zM133.854 259.734h-15.7v-17.7h15.7zM163.772 266.346h-53.3v-6.6h53.3zM158.64 290.493h-23.5v-19.8h23.5zM157.7 275.9h-22.6M89.5 294.8h20.7v4.8H89.5zM135.154 299.71h-24.8v-4.8h24.8z"/><path class="st2" d="M115.2 271.1c-1.1 0-2-.9-2-2s.9-2 2-2c.4 0 .8.1 1.1.4l3.5-1.4c.1-1.5 1.4-2.8 2.9-2.8s2.8 1.2 2.9 2.8l3.5 1.4c.3-.2.7-.4 1.1-.4 1.1 0 2 .9 2 2s-.9 2-2 2h-15z"/><path class="st16" d="M122.8 264.6c.9 0 1.7.8 1.7 1.7 0 .2 0 .4-.1.6l5.3 2.1c.1-.4.4-.6.7-.6.4 0 .7.3.7.8 0 .4-.3.8-.7.8h-15.2c-.4 0-.7-.3-.7-.8 0-.4.3-.8.7-.8.4 0 .7.3.7.6l5.3-2.1c-.1-.2-.1-.4-.1-.6 0-1 .7-1.7 1.7-1.7m0-2.5c-1.9 0-3.5 1.3-4 3.1l-2.3.9c-.4-.2-.8-.2-1.2-.2-1.8 0-3.2 1.5-3.2 3.3 0 1.8 1.5 3.3 3.2 3.3h15.2c1.8 0 3.2-1.5 3.2-3.3 0-1.8-1.5-3.3-3.2-3.3-.4 0-.9.1-1.2.2l-2.3-.9c-.7-1.8-2.3-3.1-4.2-3.1z"/><path class="st15" d="M158 196.7h-41.7"/><path class="st2" d="M116.8 271.4h11.9v22.4h-11.9z"/><path class="st16" d="M127.5 272.6v19.9h-9.4v-19.9h9.4m2.5-2.5h-14.4V295H130v-24.9z"/><path class="st15" d="M2.2 201H56M1.9 234.7h53.9M2.1 262.3h53.7M39.953 200.922h-22v-31.8h22zM28.9 154.8v-8.5M48.1 186.4h-7.8M17.8 186.4H9.7"/><path class="st15" d="M35.253 196.554h-12.7v-15.3h12.7z"/><ellipse class="st15" cx="45.6" cy="193.4" rx="2.6" ry="2.6"/><ellipse class="st15" cx="12.2" cy="193.4" rx="2.6" ry="2.6"/><ellipse class="st15" cx="28.9" cy="175.4" rx="2.6" ry="2.6"/><path class="st15" d="M42 169.1H15.9M28.9 181.3v15M37 196.5H20.9M37 180.4l-8.2-1.6-7.9 1.6zM37.753 229.477h-17.6v-16.5h17.6zM37.753 212.93h-17.6v-5.3h17.6zM28.9 213v16.2M14.878 225.125h-7.1v-17.5h7.1zM14.7 212.7H8M50.028 225.125h-7.1v-17.5h7.1zM49.9 212.7h-6.7"/><g><path class="st15" d="M37.753 261.38h-17.6v-16.5h17.6zM37.753 244.832h-17.6v-5.3h17.6zM28.9 244.9v16.6"/></g><g><path class="st15" d="M37.753 292.784h-17.6v-23.2h17.6zM28.9 269.7V293"/></g><g><path class="st15" d="M14.878 257.128h-7.1v-17.5h7.1zM14.7 244.6H8"/><g><path class="st15" d="M50.028 257.128h-7.1v-17.5h7.1zM49.9 244.6h-6.7"/></g></g><path class="st15" d="M44.453 299.18h-31.1v-3.1h31.1zM41.953 296.054h-26.1v-3.1h26.1z"/><g><path class="st15" d="M49.913 288.783h-7.5v-17h7.5zM15.286 288.783h-7.5v-17h7.5zM51.4 288.8H41M16.4 288.8h-10"/></g><path class="st15" d="M88.9 262.5l2 9.9H59.7l2.8-9.9zM72.9 148.6c-2.4 23.8-11.4 30.3-11.4 30.3-.4-1-1.3-1.7-2.5-1.7-1.4 0-2.6 1.2-2.6 2.6s1.2 2.6 2.6 2.6M94.2 148.6c2.3 23.8 11 30.3 11 30.3.4-1 1.3-1.7 2.3-1.7 1.4 0 2.5 1.2 2.5 2.6 0 1.5-1.1 2.6-2.5 2.6"/><path class="st15" d="M83.2 141.9h.6c9.5.3 12.4 8.4 11.6 8.4H71.6c-.8 0 2.1-8.1 11.6-8.4zM85.3 159h-3.7M139 169h-3.9M1.2 299.8h164.6v8.6l-.5.1c-5.2 0-10.2-3.4-10.2-3.4s-4.9 3.4-10.2 3.4-10.2-3.4-10.2-3.4-6.4 3.4-10.2 3.4h-.6c-5.2 0-10.2-3.4-10.2-3.4s-4.9 3.4-10.2 3.4c-5.3 0-10.2-3.4-10.2-3.4s-6.4 3.4-10.2 3.4h-.6c-5.2 0-10.2-3.4-10.2-3.4s-4.9 3.4-10.2 3.4c-5.3 0-10.2-3.4-10.2-3.4s-6.4 3.4-10.2 3.4h-.6c-5.2 0-10.3-3.2-10.3-3.2s-4.9 3.6-10.3 3.6-10.2-3.4-10.2-3.4-5.4 3.4-9.1 3.4v-9.1z"/></g><g><path class="st17" d="M606.2 266.3h139.6v32.6H606.2zM676.2 251.7l-93.9-2.9 25.2 17.5h137.7l26-18.5zM616.3 222h120v21.1h-120z"/><path class="st17" d="M763.6 208.7c-1.2-1.7-1.8-3.8-1.8-3.8s-25.6 3.6-34.7 2.8c-4.6-.4-7.1-11.7-7.1-11.7s-13.5 3.2-43.8 3.6c-30.3-.4-43.5-3.6-43.5-3.6s-2.5 11.3-7.1 11.7c-9.1.8-34.7-2.8-34.7-2.8s-.5 2.1-1.8 3.8 20.4 12.1 26.7 13c9.8 1.4 39.5 2.7 61.5 2.7s51-1.3 59.6-2.7c6.3-1 27.9-11.3 26.7-13zM770.2 241.3c-16 4.5-33.7 2.1-33.7 2.1l-60.5-.3-59.9.3s-17.6 2.3-33.7-2.1L580 247c13.4 10 27.6 11.3 27.6 11.3H745s14.2-1.3 27.6-11.3l-2.4-5.7z"/><g><path class="st17" d="M632.7 241.5v-18.4M717.5 242.8v-18.5M689.3 242.8v-18.5M661 242.8v-18.5M634.1 241.5v-18.4M718.8 242.8v-18.5M690.6 242.8v-18.5M662.3 242.8v-18.5"/></g><g><path class="st17" d="M633.4 290.2v-31.3M718.2 290.9v-32M689.9 290.9v-32M661.7 290.9v-32"/></g><path class="st17" d="M762.2 208.7s-30.1 4.5-39.2 3.6c-4.6-.4-7.1-9-7.1-9s-10.2 3.2-40.5 3.6c-30.3-.4-39.5-3.6-39.5-3.6s-2.5 8.6-7.1 9c-9.1.8-39.8-3.2-39.8-3.2M770.1 246.8c-16 4.5-34.3 2.1-34.3 2.1l-60.5-.3-59.9.3s-18.3 2.3-34.3-2.1M725 276.6h14.7V292H725zM669 277.3h14.7v21.4H669zM612.6 276.6h14.7V292h-14.7z"/><g><path class="st17" d="M591.4 292.1h72.2v9.1h-72.2zM689 292.1h72.2v9.1H689z"/></g></g><g><path class="st18" d="M220.6 237.6h-63.4l16.7-27.2h45.5zM161.1 238.2h42.8v59.7h-42.8zM219.4 153.9h26.4v29.9h-26.4z"/><path class="st18" d="M177.8 239.1h42.8v58.8h-42.8zM243.6 184.1h.3c-1.3-13.1-10.3-36.8-10.3-36.8s-11 24-12.4 36.8h.2l-.4.4V298h23.2V184.5l-.6-.4z"/><path class="st18" d="M221.2 184.6c1.4-12.8 11.9-17.8 11.9-31.1 0 13.3 9.6 18 10.9 31.1 0 0-6.8-54.3-10.9-121.3-4 66.3-11.9 121.3-11.9 121.3z"/><ellipse class="st18" cx="232.6" cy="182.3" rx="8.2" ry="8.7"/><path class="st18" d="M233 63.3l.2-17.4"/><ellipse class="st18" cx="233.2" cy="45.9" rx="2.1" ry="2.2"/><path class="st18" d="M228.5 204.5s.7-6.5 4.1-8.2c3.4 1.3 4.1 8.2 4.1 8.2v11.2h-8.2v-11.2zM224.4 237.6h-50.5l25-27.2zM221 268.7h23.2v29.2H221zM244.6 268.7h-23.2v-24.6z"/><g><path class="st19" d="M198.6 250.6v0z"/><path class="st20" d="M196.8 281.6v-31c0-1 .8-1.9 1.8-1.9s1.8.8 1.8 1.9v31h-3.6z"/><path class="st19" d="M207.5 256.5v25.1-25.1z"/><path class="st20" d="M205.7 281.6v-25.1c0-1 .8-1.9 1.8-1.9s1.8.8 1.8 1.9v25.1h-3.6z"/><g><path class="st19" d="M189.7 256.5v25.1-25.1z"/><path class="st20" d="M187.9 281.6v-25.1c0-1 .8-1.9 1.8-1.9s1.8.8 1.8 1.9v25.1h-3.6z"/></g></g><path class="st18" d="M232.7 176.2v6.4l-1.9-4.5"/></g><g><path class="st15" d="M897.3 244.7v3.6M890.4 221v4.1M911.9 229.3h-48.6l-11 18.6.1 17.4 8.4 8.6H909l8.5-18.1z"/><path class="st15" d="M905.1 225.1l-7.8 25.4-1.7 34.3H910.2l.7-34.3z"/><path class="st15" d="M890.4 225.1l-8.1 25.4.1 34.3h13.9l1-34.3zM875.1 221v4.1"/><path class="st15" d="M875.1 225.1l-7.8 25.4 1.3 34.3H881.7l.6-34.3zM897.3 248.3l-7.5 22.9V302H904.8v-30.8z"/><ellipse class="st21" cx="897.3" cy="269" rx="1.4" ry="3.2"/><ellipse class="st2" cx="897.3" cy="287.7" rx="3.6" ry="3.8"/><path class="st16" d="M897.3 285.1c1.3 0 2.3 1.1 2.3 2.5s-1 2.5-2.3 2.5-2.3-1.1-2.3-2.5c0-1.3 1-2.5 2.3-2.5m0-2.5c-2.7 0-4.8 2.3-4.8 5s2.2 5 4.8 5 4.8-2.3 4.8-5-2.1-5-4.8-5z"/><path class="st15" d="M882.3 248.3l-7.5 22.9V302H889.8v-30.8z"/><ellipse class="st21" cx="882.3" cy="269" rx="1.4" ry="3.2"/><ellipse class="st2" cx="882.3" cy="287.7" rx="3.6" ry="3.8"/><path class="st16" d="M882.3 285.1c1.3 0 2.3 1.1 2.3 2.5s-1 2.5-2.3 2.5c-1.3 0-2.3-1.1-2.3-2.5 0-1.3 1-2.5 2.3-2.5m0-2.5c-2.7 0-4.8 2.3-4.8 5s2.2 5 4.8 5 4.8-2.3 4.8-5-2.1-5-4.8-5z"/><path class="st15" d="M867.3 248.3l-7.4 22.9V302H874.9v-30.8z"/><ellipse class="st21" cx="867.4" cy="269" rx="1.4" ry="3.2"/><ellipse class="st2" cx="867.4" cy="287.7" rx="3.6" ry="3.8"/><path class="st16" d="M867.4 285.1c1.3 0 2.3 1.1 2.3 2.5s-1 2.5-2.3 2.5-2.3-1.1-2.3-2.5c0-1.3 1-2.5 2.3-2.5m0-2.5c-2.7 0-4.8 2.3-4.8 5s2.2 5 4.8 5 4.8-2.3 4.8-5-2.2-5-4.8-5z"/><path class="st15" d="M852.4 248.3l-7.5 22.9V302H859.9v-30.8z"/><ellipse class="st21" cx="852.4" cy="269" rx="1.4" ry="3.2"/><ellipse class="st2" cx="852.4" cy="287.7" rx="3.6" ry="3.8"/><path class="st16" d="M852.4 285.1c1.3 0 2.3 1.1 2.3 2.5s-1 2.5-2.3 2.5-2.3-1.1-2.3-2.5c0-1.3 1-2.5 2.3-2.5m0-2.5c-2.7 0-4.8 2.3-4.8 5s2.2 5 4.8 5 4.8-2.3 4.8-5-2.2-5-4.8-5z"/><ellipse class="st21" cx="889.7" cy="248" rx="1.3" ry="3.6"/><ellipse class="st21" cx="875.1" cy="248" rx="1.3" ry="3.6"/><path class="st15" d="M867.4 244.7v3.6M852.4 244.7v3.6"/><ellipse class="st21" cx="904.4" cy="248" rx="1.3" ry="3.6"/><path class="st15" d="M998 271l-6.9-41.3-3.5-12.7-9.2-1.8-2.9 2.2-5.5-10-7.4-4.9-2.6 1.8-8.3-1h-.2l-8.3 1-2.6-1.8-7.4 4.9-5.5 10-2.9-2.2-9.2 1.8-3.5 12.7L905 271l.2 31.3s39.6 1.5 46.2 1.5 46.4-1.5 46.4-1.5l.2-31.3z"/><path class="st15" d="M927.5 216.9s-10.6 3.5-15.6 12.8c0 0 2.8-55.3 9.6-93.3 5.3 30.3 6 80.5 6 80.5z"/><path class="st15" d="M915.7 179.8c1.5-14.5 3.4-29.3 5.8-43 1.9 12.4 3.3 25.5 4.3 39.1 0 .1-5.8-1.2-10.1 3.9zM943 204.4s-10.6 3.7-15.5 13.3c0 0 2.4-57.4 9.2-96.7 5.3 31.3 6.3 83.4 6.3 83.4z"/><path class="st2" d="M975.8 307.4h-.2l-17-3.2c-.5-.1-1-.6-1-1.1-.8-9.1-3.1-22.3-6-25-2.9 2.7-5.2 15.9-6 25 0 .6-.5 1-1 1.1l-17 3.2h-.5l-11.2-3.3c-.6-.2-1-.8-.9-1.5 7.9-36.2 7.4-56.7 7.4-56.8-.1-1.3.3-2.6 1.2-3.6.7-.8 1.6-1.2 2.6-1.2 1.6 0 3.2 1.2 3.3 4.7-.2 8.5 3.9 33.9 6.2 41.2 3.2-11.7 12.1-68.8 12.1-96.9-.1-3.2 1-7.1 2.4-8.6.5-.5 1-.7 1.5-.7.6 0 1.2.2 1.6.7 1.4 1.5 2.5 5.3 2.4 8.6 0 28 8.9 85.1 12.1 96.8 2.2-7.3 6.4-32.6 6.2-41.1.1-3.5 1.8-4.7 3.3-4.7.9 0 1.9.4 2.6 1.2.9.9 1.3 2.2 1.2 3.6 0 .2-.5 20.7 7.4 56.8.1.6-.2 1.3-.9 1.5l-11.2 3.3c-.3-.1-.5 0-.6 0z"/><path class="st16" d="M951.6 181.9c1.2 0 2.8 4.2 2.7 8 0 30.2 11 99.7 13.2 99.7s7.8-35 7.5-44c.1-2.5 1-3.5 2.1-3.5 1.3 0 2.7 1.5 2.5 3.4-.1 1.2-.3 21.9 7.4 57.2l-11.2 3.3-17-3.2s-2.1-24-7.2-26.4c-5.1 2.4-7.2 26.4-7.2 26.4l-17 3.2-11.2-3.3c7.7-35.3 7.5-56 7.4-57.2-.1-2 1.2-3.4 2.5-3.4 1 0 2 1 2.1 3.5-.3 9 5.3 44 7.5 44s13.2-69.5 13.2-99.7c-.2-3.8 1.4-8 2.7-8m0-2.5c-.7 0-1.6.2-2.5 1.1-1.7 1.7-2.9 5.9-2.7 9.5 0 24.6-7.2 73.4-10.9 91.5-2.2-10.2-5-29-4.8-35.7v-.1c-.1-4.4-2.5-5.9-4.6-5.9-1.3 0-2.5.6-3.5 1.6-1.1 1.2-1.7 2.8-1.5 4.5 0 .2.5 20.4-7.4 56.5-.3 1.3.5 2.6 1.7 2.9l11.2 3.3c.2.1.5.1.7.1h.5l17-3.2c1.1-.2 1.9-1.1 2-2.2.9-10.8 3-19.6 4.7-23 1.7 3.4 3.8 12.2 4.7 23 .1 1.1.9 2 2 2.2l17 3.2h.5c.2 0 .5 0 .7-.1l11.2-3.3c1.3-.4 2-1.6 1.7-2.9-7.9-36-7.4-56.3-7.4-56.5.1-1.7-.4-3.3-1.5-4.5-.9-1-2.2-1.6-3.5-1.6-2 0-4.5 1.5-4.6 5.9v.1c.2 6.7-2.6 25.5-4.8 35.7-3.7-18.1-10.9-66.8-10.9-91.5.1-3.6-1.1-7.7-2.7-9.5-.8-.9-1.7-1.1-2.3-1.1z"/><path class="st15" d="M929.5 287.1s-1.2-8.7-3.1-9c-1.9.3-3.1 9-3.1 9l3.1-.4 3.1.4zM973.7 287.1s1.2-8.7 3.1-9c1.9.3 3.1 9 3.1 9l-3.1-.4-3.1.4zM957.1 268.5s-2-12.3-5.3-12.7c-3.3.4-5.3 12.7-5.3 12.7l5.3-.5 5.3.5zM975.4 216.9s10.6 3.5 15.6 12.8c0 0-2.8-55.3-9.6-93.3-5.2 30.3-6 80.5-6 80.5z"/><path class="st15" d="M987.3 179.8c-1.5-14.5-3.4-29.3-5.8-43-1.9 12.4-3.3 25.5-4.3 39.1-.1.1 5.8-1.2 10.1 3.9zM959.9 204.4s10.6 3.7 15.5 13.3c0 0-2.4-57.4-9.2-96.7-5.3 31.3-6.3 83.4-6.3 83.4zM905.1 221v4.1M930.9 164.3c1.5-14.5 3.4-29.3 5.8-43 1.9 12.4 3.3 25.5 4.3 39.1.1 0-5.8-1.2-10.1 3.9z"/><path class="st15" d="M977.4 137c1.2-2.5 3.6-4.4 4-4.4.5 0 3 1.9 4.1 4.4-.5 2.4-3.5 4.7-4 5.1v.1-.1c-.6-.4-3.6-2.7-4.1-5.1zM972 164.3c-1.5-14.5-3.4-29.3-5.8-43-1.9 12.4-3.3 25.5-4.3 39.1 0 0 5.8-1.2 10.1 3.9zM925.5 137c-1.2-2.5-3.6-4.4-4-4.4-.5 0-3 1.9-4.1 4.4.5 2.4 3.5 4.7 4 5.1v.1-.1c.6-.4 3.7-2.7 4.1-5.1zM940.5 122.2c-1.2-2.5-3.6-4.4-4-4.4-.5 0-3 1.9-4.1 4.4.5 2.4 3.5 4.7 4 5.1v.1-.1c.6-.4 3.6-2.8 4.1-5.1z"/><path class="st15" d="M962.4 122.2c1.2-2.5 3.6-4.4 4-4.4.5 0 3 1.9 4.1 4.4-.5 2.4-3.5 4.7-4 5.1v.1-.1c-.6-.4-3.6-2.8-4.1-5.1zM945.3 222.1c-3-.8-11.6 2.8-17.1 13.1 0 0-12 1.5-19 15.4M957.4 222.1c3-.8 12.4 2.8 17.8 13.1 0 0 12 1.5 19 15.4"/></g><g><path class="st22" d="M1086.1 237.1l-2-11.3-3.7-10.3-6.6-8.2-8.8-7-9.3-3.2-8.1-1.5-9.1 1.2-10.8 5.1-8.8 8.3-5 7.9-2.6 8.1v.2l-1.6 10.7.2.1h-.2l1.6 10.7v.2l2.6 8.1 5 7.9 8.8 8.3 10.8 5.1 9.1 1.2 8.1-1.5 9.3-3.2 8.8-7 6.6-8.2 3.7-10.3 2-11.4z"/><path class="st23" d="M1086.1 237.1h-76.4l1.7-10.9 2.6-8.1 5-8 8.7-8.2 10.8-5.1 9.1-1.2 8.1 1.5 9.2 3.3 8.8 6.9 6.6 8.2 3.8 10.3z"/><path class="st23" d="M1011.4 226.5l.5 10.4 3.5-10.5 1.6 10.4 5.1-10.6 3.5 10.6 5.7-10 5.2 10.2 5.3-10.5 6.2 10.3 5.1-10.9 6.8 11.1 4.9-11.3 5.5 11.3 3.7-10.4 4.7 10.5 2-10.6 3.4 10.7v-11.4"/><path class="st23" d="M1011.3 226.5l4.1-.3h6.7l9.2.6 10.6-.2 11.2-.6 11.7-.3 9.4.8h6.5l3.4-.7"/><path class="st23" d="M1084.1 225.8l-5.1-9 1.5 9.8-5.1-7.7-1.4 7.7-5.7-10-3.5 9.1-7-10.1-4.6 10.2-6.5-9.5-4.6 10.2-4.6-7.7-6.2 8-1.9-10.3-7.3 9.7-.5-10.2-6.4 10.1 1.1-9.1-4.9 9.2"/><path class="st23" d="M1014 218.1l2.3-1.1 5.3-1 7.8.5 8.1 2.3 9.2-2.5 11.1-.7 10.5 1 7.1 2.3 3.6-2.1 1.3-1.3"/><path class="st23" d="M1037.5 218.8l1.5-8.8-9.6 6.5 1.4-9-9.2 8.5 1.8-8-7.1 9 2.7-6.9"/><path class="st23" d="M1027.7 201.9l-4.1 5.5 10.3-7-3.1 7.1 11-5.5-2.8 8 10.8-2.6-3.1 8.9-7.7-6.3-8.2-2.5-7.4.5-4.4 2.1M1073.7 207.3l5.3 9.5-7.7-6.8 4.1 8.9"/><path class="st23" d="M1073.7 207.3l-9.7-5.3 7.3 8-9.5-2.8 6.5 9.4 3-6.6 2.4-2.7"/><path class="st23" d="M1064.9 200.4l-.9 1.6-2.2 5.2-4 8.4-8-8.2-8-5.4-7.9-1.6-6.2 1.5"/><path class="st23" d="M1055.7 197.1l8.3 4.9-10.7-1.7 8.5 6.9-12 .2 3.5-7.1 2.4-3.2-10.4.3"/><path class="st23" d="M1047.6 195.6l-2.3 1.8-3.5 4.6 11.5-1.7-8-2.9-6.8-.6-4.6 3.6 11.5-2.9"/><g><path class="st23" d="M1086.1 237.2h-76.4l1.7 10.9 2.6 8.1 5 8 8.7 8.2 10.8 5.1 9.1 1.2 8.1-1.5 9.2-3.3 8.8-6.9 6.6-8.2 3.8-10.3z"/><path class="st23" d="M1011.4 247.8l.5-10.4 3.5 10.5 1.6-10.4 5.1 10.6 3.5-10.6 5.7 10 5.2-10.2 5.3 10.5 6.2-10.3 5.1 10.9 6.8-11.1 4.9 11.3 5.5-11.3 3.7 10.4 4.7-10.5 2 10.6 3.4-10.7v11.4"/><path class="st23" d="M1011.3 247.8l4.1.3h6.7l9.2-.6 10.6.2 11.2.6 11.7.3 9.4-.8h6.5l3.4.7"/><path class="st23" d="M1084.1 248.5l-5.1 9 1.5-9.8-5.1 7.7-1.4-7.7-5.7 10-3.5-9.1-7 10.1-4.6-10.2-6.5 9.5-4.6-10.2-4.6 7.7-6.2-8-1.9 10.3-7.3-9.7-.5 10.2-6.4-10.1 1.1 9.1-4.9-9.2"/><path class="st23" d="M1014 256.2l2.3 1.1 5.3 1 7.8-.5 8.1-2.3 9.2 2.5 11.1.7 10.5-1 7.1-2.3 3.6 2.1 1.3 1.3"/><path class="st23" d="M1037.5 255.5l1.5 8.8-9.6-6.5 1.4 9-9.2-8.5 1.8 8-7.1-9 2.7 6.9"/><path class="st23" d="M1027.7 272.4l-4.1-5.5 10.3 7-3.1-7.1 11 5.5-2.8-8 10.8 2.6-3.1-8.9-7.7 6.3-8.2 2.5-7.4-.5-4.4-2.1M1073.7 267l5.3-9.5-7.7 6.8 4.1-8.9"/><path class="st23" d="M1073.7 267l-9.7 5.3 7.3-8-9.5 2.8 6.5-9.4 3 6.6 2.4 2.7"/><path class="st23" d="M1064.9 273.9l-.9-1.6-2.2-5.2-4-8.4-8 8.2-8 5.4-7.9 1.6-6.2-1.5"/><path class="st23" d="M1055.7 277.2l8.3-4.9-10.7 1.7 8.5-6.9-12-.2 3.5 7.1 2.4 3.2-10.4-.3"/><path class="st23" d="M1047.6 278.7l-2.3-1.8-3.5-4.6 11.5 1.7-8 2.9-6.8.6-4.6-3.6 11.5 2.9"/></g><path class="st23" d="M984.8 274.7H1111V300H984.8z"/><path class="st23" d="M985.3 274.9l-3.5-14.6 37.2 5.6M981.8 260.3l29.8 14.4M1111.1 274.9l3.5-14.6-37.3 5.6M1114.6 260.3l-29.9 14.4M1086.3 300.1s-14.6 1.7-38.4 1.7c-23.7 0-38.4-1.7-38.4-1.7v-9.6s14.2 1.3 38.4 1.3c21.9 0 38.4-1.3 38.4-1.3v9.6z"/><path class="st23" d="M1086.3 290.6s-17.7 1.1-39.5 1.1c-24.5 0-37.3-1.1-37.3-1.1l9.7-15.8 58.5.4 8.6 15.4z"/><g><path class="st23" d="M1020.1 290.2l6.7.3v12.1l-6.7-.4zM1020.4 289.8l7.8-14.2h5.9l-7.1 14.5z"/><g><path class="st23" d="M1075.6 290.2l-6.6.3v12.1l6.6-.4zM1075.4 289.8l-7.8-14.2h-5.9l7.1 14.5z"/></g></g><g><path class="st23" d="M1043.7 291.4h8.1v12.2h-8.1zM1050.6 275.2h-5.2l-1.5 16.2h8.2z"/></g><path class="st23" d="M1077.2 275.2s-11.3.9-29.3.9-29.3-.9-29.3-.9v-9.6s13 .9 29.3.9 29.3-.9 29.3-.9v9.6z"/></g></g></svg>