<svg id="Layer_1" xmlns="http://www.w3.org/2000/svg" viewBox="0 0 316 156"><style>.st0{fill:#FFFFFF;} .st1{fill:none;stroke:#FFFFFF;stroke-width:2.5709;stroke-miterlimit:10;}</style><path class="st0" d="M.2 121.4h7l5.5 25.1 6.5-24.2h5.7l6.5 24.2 5.4-25.1h6.6L34.7 155H28l-6.2-22.2-6.4 22.2H8.9L.2 121.4zM63.2 155.9c-2.5 0-4.7-.5-6.8-1.4-2.1-.9-4-2.2-5.5-3.8-1.6-1.6-2.8-3.5-3.7-5.6-.9-2.1-1.4-4.4-1.4-6.9s.5-4.8 1.4-6.9c.9-2.1 2.1-4 3.7-5.6 1.6-1.6 3.4-2.9 5.5-3.8 2.1-.9 4.4-1.4 6.9-1.4s4.7.5 6.8 1.4c2.1.9 4 2.2 5.5 3.8 1.6 1.6 2.8 3.5 3.7 5.6.9 2.1 1.4 4.4 1.4 6.9s-.5 4.8-1.4 6.9c-.9 2.1-2.1 4-3.7 5.6-1.6 1.6-3.4 2.9-5.5 3.8-2.2 1-4.5 1.4-6.9 1.4zm0-6c1.6 0 3.1-.3 4.5-1 1.3-.6 2.5-1.5 3.4-2.6.9-1.1 1.7-2.4 2.2-3.8.5-1.4.8-3 .8-4.5 0-1.6-.3-3.1-.8-4.6-.5-1.4-1.2-2.7-2.2-3.8-.9-1.1-2.1-1.9-3.4-2.5-1.3-.6-2.8-.9-4.5-.9-1.7 0-3.2.3-4.5.9-1.3.6-2.5 1.5-3.4 2.5-.9 1.1-1.7 2.3-2.2 3.8-.5 1.4-.8 2.9-.8 4.6 0 1.6.3 3.1.8 4.5s1.2 2.7 2.2 3.8c.9 1.1 2.1 2 3.4 2.6 1.3.7 2.8 1 4.5 1zM86.4 121.4h11.1c2.1 0 3.9.3 5.4 1 1.5.6 2.7 1.5 3.6 2.4.9 1 1.6 2.1 2 3.2.4 1.2.6 2.3.6 3.4 0 2.1-.5 4-1.4 5.6-.9 1.6-2.3 2.9-4.3 3.9l7.8 14.1H104l-6.8-13.2h-4.8V155h-6.1v-33.6zm11.2 15.1c1.6 0 2.9-.5 3.8-1.4.9-.9 1.3-2.1 1.3-3.4 0-1.4-.5-2.6-1.4-3.5-.9-.9-2.2-1.4-3.7-1.4h-5.1v9.7h5.1zM115.9 121.4h6.3v28h16.6v5.6h-22.9v-33.6zM143.8 121.4h12.5c2.6 0 5 .3 7.2 1s4.1 1.7 5.6 3.1c1.6 1.4 2.8 3.1 3.7 5.3.9 2.1 1.3 4.7 1.3 7.6 0 2.8-.4 5.2-1.3 7.3-.9 2.1-2.1 3.8-3.7 5.2-1.6 1.4-3.5 2.4-5.7 3.1-2.2.7-4.6 1-7.2 1h-12.5v-33.6zm11.9 28c3.8 0 6.7-.9 8.8-2.8 2-1.8 3-4.5 3-8.1 0-3.5-.9-6.3-2.8-8.4-1.9-2-4.9-3.1-9-3.1h-5.6v22.3h5.6zM198 127h-11.4v-5.6h29.1v5.6h-11.4v28H198v-28zM233.8 155.9c-2.5 0-4.7-.5-6.8-1.4-2.1-.9-4-2.2-5.5-3.8-1.6-1.6-2.8-3.5-3.7-5.6-.9-2.1-1.4-4.4-1.4-6.9s.5-4.8 1.4-6.9c.9-2.1 2.1-4 3.7-5.6 1.6-1.6 3.4-2.9 5.5-3.8 2.1-.9 4.4-1.4 6.9-1.4s4.7.5 6.9 1.4c2.1.9 4 2.2 5.5 3.8 1.6 1.6 2.8 3.5 3.7 5.6.9 2.1 1.4 4.4 1.4 6.9s-.5 4.8-1.4 6.9c-.9 2.1-2.1 4-3.7 5.6-1.6 1.6-3.4 2.9-5.5 3.8-2.2 1-4.5 1.4-7 1.4zm0-6c1.6 0 3.1-.3 4.5-1 1.3-.6 2.5-1.5 3.4-2.6.9-1.1 1.7-2.4 2.2-3.8.5-1.4.8-3 .8-4.5 0-1.6-.3-3.1-.8-4.6-.5-1.4-1.2-2.7-2.2-3.8-.9-1.1-2.1-1.9-3.4-2.5-1.3-.6-2.8-.9-4.5-.9-1.7 0-3.2.3-4.5.9-1.3.6-2.5 1.5-3.4 2.5-.9 1.1-1.7 2.3-2.2 3.8-.5 1.4-.8 2.9-.8 4.6 0 1.6.3 3.1.8 4.5s1.2 2.7 2.2 3.8c.9 1.1 2.1 2 3.4 2.6 1.3.7 2.8 1 4.5 1zM256.8 121.4h6.3v20.1c0 1.3.1 2.4.4 3.4.3 1 .7 1.9 1.2 2.6.6.7 1.3 1.3 2.3 1.7.9.4 2.1.6 3.5.6s2.5-.2 3.5-.6c.9-.4 1.7-.9 2.3-1.7.6-.7 1-1.6 1.2-2.6.3-1 .4-2.2.4-3.4v-20.1h6.3v21.2c0 1.9-.3 3.6-.9 5.2-.6 1.6-1.5 3-2.7 4.2-1.2 1.2-2.6 2.1-4.3 2.8-1.7.7-3.6 1-5.8 1-2.2 0-4.1-.3-5.8-1-1.7-.7-3.1-1.6-4.3-2.8-1.2-1.2-2.1-2.6-2.7-4.2-.6-1.6-.9-3.4-.9-5.2v-21.2zM291 121.4h11.1c2.1 0 3.9.3 5.4 1 1.5.6 2.7 1.5 3.6 2.4.9 1 1.6 2.1 2 3.2.4 1.2.6 2.3.6 3.4 0 2.1-.5 4-1.4 5.6-.9 1.6-2.3 2.9-4.3 3.9l7.8 14.1h-7.2l-6.8-13.2H297V155h-6v-33.6zm11.2 15.1c1.6 0 2.9-.5 3.8-1.4.9-.9 1.3-2.1 1.3-3.4 0-1.4-.5-2.6-1.4-3.5-.9-.9-2.2-1.4-3.7-1.4h-5.1v9.7h5.1z"/><g><path class="st1" d="M162.7 96.2l-4.2-8.2c-2 3-8.6 10.3-20.8 10.3-13.4 0-23.6-9.5-23.6-20.7 0-11.3 7.9-26.2 39.8-26.2 0-7.5-6.5-10.3-13.4-10.3-5.3 0-12.7 2.2-19.1 8.2l-6.1-17.1c4.2-2.6 13.9-9.3 28.3-9.3 21.5 0 30.3 13 30.3 33.9v39.4h-11.2zM133.9 75c0 4.8 7.7 9.3 14.2 5.9 6.3-3.4 5.8-8.6 5.8-16.1-12 0-20 4.3-20 10.2m-48.2 5.5c8.7 0 15.5-4.1 15.5-4.1l5.7 15.7c-2.8 1.5-12.2 5.5-23.4 5.5-25.7 0-36.1-17-36.1-37.4C47.4 41 59 23.5 79.6 23.5c20.3 0 34.1 16.8 30.4 43.8H67c.9 9.5 9.2 13.2 18.7 13.2M67.2 52.1h23.5c-.6-9.5-6.2-12.8-11.6-12.8-5.4 0-11.2 4.4-11.9 12.8m150.3 44h20V57c0-6.5 3.8-14.1 10.4-14.1 6.6 0 7.2 9.2 7.2 13.5v39.7h20V57.3c0-8.8 4.9-14.3 10.3-14.3 6.5 0 7.5 7.2 7.5 14v39.1H313V50.8c0-9.1-3.1-27.2-22.8-27.2-9.4 0-14.8 3.1-19.2 10.9-4.1-7.4-11.6-10.9-19-10.9s-15.4 3.9-19.6 11.9l-3.9-9.8h-10.9v70.4zM3 96.1h20V57c0-6.5 1.6-14.5 8.2-14.5 3 0 5.7.8 8.1 2.8.1.1 7.3-16.7 7.2-16.6-4.5-4.1-9.2-5.1-12.6-5.1-7.4 0-13.6 4.5-16.1 11.2L14 25.7H3v70.4zM185.4 1.3h20.3v94.8h-20.3V1.3z"/></g></svg>