<?xml version="1.0" encoding="UTF-8" standalone="no"?>
<svg width="32px" height="32px" viewBox="0 0 32 32" version="1.1" xmlns="http://www.w3.org/2000/svg" xmlns:xlink="http://www.w3.org/1999/xlink">
    <!-- Generator: Sketch 40.1 (33804) - http://www.bohemiancoding.com/sketch -->
    <title>rmp-api-bridge</title>
    <desc>Created with Sketch.</desc>
    <defs></defs>
    <g id="Diagrams-&amp;-Graphics-" stroke="none" stroke-width="1" fill="none" fill-rule="evenodd">
        <g id="rmp-api-bridge" fill="#39477F">
            <g id="api-bridge">
                <path d="M11.0753737,1.82859679 L11.0753737,1.7793558 C11.0757339,1.77092169 11.0759146,1.76247317 11.0759146,1.75401065 C11.0759146,0.785297319 8.70841544,1.07469589e-13 5.78795728,1.07469589e-13 C2.86749912,1.07469589e-13 0.5,0.785297319 0.5,1.75401065 C0.5,1.7541467 0.500000047,1.75428274 0.50000014,1.75441878 L0.500037339,10.1742409 C0.537752332,11.1425042 2.90464004,11.9272724 5.82411425,11.9272724 C8.74457242,11.9272724 11.1120715,11.1419751 11.0753737,10.1732618 C11.0759361,10.1584169 11.0759339,10.1436151 11.0753737,10.1288586 L11.0753737,10.1288559 L11.0753737,1.83263214 C10.9601277,2.82408766 8.67226465,3.57987235 5.78795728,3.57987235 C2.82787324,3.57987235 0.502659248,2.78385398 0.502659248,1.75401065 C0.502659248,2.661594 2.52732569,3.5798723 5.78795722,3.5798723 C8.95927416,3.5798723 10.9677232,2.71121161 11.0753738,1.82859667 L11.0753737,1.82859679 Z" id="Server-Copy-4" stroke="#FFFFFF" opacity="0.75"></path>
                <path d="M21.5753737,21.8285968 L21.5753737,21.7793558 C21.5757339,21.7709217 21.5759146,21.7624732 21.5759146,21.7540107 C21.5759146,20.7852973 19.2084154,20 16.2879573,20 C13.3674991,20 11,20.7852973 11,21.7540107 C11,21.7541467 11,21.7542827 11.0000001,21.7544188 L11.0000373,30.1742409 C11.0377523,31.1425042 13.40464,31.9272724 16.3241143,31.9272724 C19.2445724,31.9272724 21.6120715,31.1419751 21.5753737,30.1732618 C21.5759361,30.1584169 21.5759339,30.1436151 21.5753737,30.1288586 L21.5753737,30.1288559 L21.5753737,21.8326321 C21.4601277,22.8240877 19.1722646,23.5798723 16.2879573,23.5798723 C13.3278732,23.5798723 11.0026592,22.783854 11.0026592,21.7540107 C11.0026592,22.661594 13.0273257,23.5798723 16.2879572,23.5798723 C19.4592742,23.5798723 21.4677232,22.7112116 21.5753738,21.8285967 L21.5753737,21.8285968 Z" id="Server-Copy-3" stroke="#FFFFFF"></path>
                <path d="M31.5753737,1.82859679 L31.5753737,1.7793558 C31.5757339,1.77092169 31.5759146,1.76247317 31.5759146,1.75401065 C31.5759146,0.785297319 29.2084154,1.07469589e-13 26.2879573,1.07469589e-13 C23.3674991,1.07469589e-13 21,0.785297319 21,1.75401065 C21,1.7541467 21,1.75428274 21.0000001,1.75441878 L21.0000373,10.1742409 C21.0377523,11.1425042 23.40464,11.9272724 26.3241143,11.9272724 C29.2445724,11.9272724 31.6120715,11.1419751 31.5753737,10.1732618 C31.5759361,10.1584169 31.5759339,10.1436151 31.5753737,10.1288586 L31.5753737,10.1288559 L31.5753737,1.83263214 C31.4601277,2.82408766 29.1722646,3.57987235 26.2879573,3.57987235 C23.3278732,3.57987235 21.0026592,2.78385398 21.0026592,1.75401065 C21.0026592,2.661594 23.0273257,3.5798723 26.2879572,3.5798723 C29.4592742,3.5798723 31.4677232,2.71121161 31.5753738,1.82859667 L31.5753737,1.82859679 Z" id="Server-Copy-2" stroke="#FFFFFF" opacity="0.502098881"></path>
                <path d="M15.8267781,16.1213203 L13.8502772,14.1448194 C13.6502685,13.9448107 13.3400598,13.9511845 13.1447976,14.1464466 C12.9552461,14.3359982 12.948807,14.6575627 13.1431704,14.8519262 L15.974852,17.6836077 C16.0745785,17.7833343 16.2017022,17.8317515 16.3283137,17.8310279 C16.4532776,17.8275016 16.5818003,17.7805117 16.6787043,17.6836077 L19.5103859,14.8519262 C19.7103946,14.6519175 19.7040208,14.3417088 19.5087587,14.1464466 C19.3192071,13.956895 18.9976425,13.9504559 18.8032791,14.1448194 L16.8267781,16.1213203 L16.8267781,9.50043583 C16.8267781,9.23079681 16.6029205,9 16.3267781,9 C16.0587117,9 15.8267781,9.22405275 15.8267781,9.50043583 L15.8267781,16.1213203 L15.8267781,16.1213203 Z" id="Combined-Shape"></path>
            </g>
        </g>
    </g>
</svg>