<?xml version="1.0" encoding="UTF-8" standalone="no"?>
<svg width="32px" height="32px" viewBox="0 0 32 32" version="1.1" xmlns="http://www.w3.org/2000/svg" xmlns:xlink="http://www.w3.org/1999/xlink">
    <!-- Generator: Sketch 40.1 (33804) - http://www.bohemiancoding.com/sketch -->
    <title>rmp-data-push</title>
    <desc>Created with Sketch.</desc>
    <defs></defs>
    <g id="Diagrams-&amp;-Graphics-" stroke="none" stroke-width="1" fill="none" fill-rule="evenodd">
        <g id="rmp-data-push" fill="#39477F">
            <g id="data-push" transform="translate(-0.500000, 6.000000)">
                <path d="M16.8660262,4.05497454 C16.866865,2.51308548 13.1946253,1.2950069 8.66468815,1.2950069 C4.13475096,1.2950069 0.462511292,2.51308548 0.462511292,4.01566156 C0.462511292,4.01587257 0.462569209,17.0763225 0.462569209,17.0763225 C0.521069122,18.5782006 4.19236043,19.7954586 8.72077141,19.7954586 C13.2507086,19.7954586 16.9229483,18.57738 16.8660262,17.0748039 C16.8668984,17.051778 16.866895,17.0288188 16.8660262,17.0059299 L16.8660262,4.13761173 C16.6872674,5.67546333 13.1385517,6.84776472 8.66468815,6.84776472 C4.07328707,6.84776472 0.466636064,5.61305666 0.466636064,4.01566156 C0.466636064,5.4234186 3.60710627,6.84776465 8.66468805,6.84776465 C13.5837336,6.84776465 16.6990488,5.50038072 16.8660262,4.1313523 L16.8660262,4.05497454 Z" id="Server-Copy" stroke="#FFFFFF"></path>
                <path d="M29.9349007,4.62736005 L27.5475617,7.01469909 C27.3059789,7.25628188 27.3136775,7.63097099 27.5495271,7.86682059 C27.7784792,8.0957726 28.1668845,8.10355014 28.4016486,7.86878602 L31.8219272,4.44850742 C31.9423831,4.32805156 32.0008643,4.17450374 31.9999903,4.02157469 C31.9957311,3.87063557 31.9389738,3.71539794 31.8219272,3.59835137 L28.4016486,0.17807276 C28.1600658,-0.0635100278 27.7853767,-0.0558113948 27.5495271,0.180038199 C27.3205751,0.408990213 27.3127976,0.79739558 27.5475617,1.03215969 L29.9349007,3.41949873 L21.9377904,3.41949873 C21.6121039,3.41949873 21.3333333,3.6898877 21.3333333,4.02342939 C21.3333333,4.34721644 21.603958,4.62736005 21.9377904,4.62736005 L29.9349007,4.62736005 L29.9349007,4.62736005 L29.9349007,4.62736005 Z" id="Combined-Shape" opacity="0.75"></path>
                <path d="M29.9349007,16.4792119 L27.5475617,18.8665509 C27.3059789,19.1081337 27.3136775,19.4828228 27.5495271,19.7186724 C27.7784792,19.9476245 28.1668845,19.955402 28.4016486,19.7206379 L31.8219272,16.3003593 C31.9423831,16.1799034 32.0008643,16.0263556 31.9999903,15.8734265 C31.9957311,15.7224874 31.9389738,15.5672498 31.8219272,15.4502032 L28.4016486,12.0299246 C28.1600658,11.7883418 27.7853767,11.7960405 27.5495271,12.0318901 C27.3205751,12.2608421 27.3127976,12.6492474 27.5475617,12.8840115 L29.9349007,15.2713506 L21.9377904,15.2713506 C21.6121039,15.2713506 21.3333333,15.5417396 21.3333333,15.8752812 C21.3333333,16.1990683 21.603958,16.4792119 21.9377904,16.4792119 L29.9349007,16.4792119 L29.9349007,16.4792119 L29.9349007,16.4792119 Z" id="Combined-Shape-Copy-2" opacity="0.5"></path>
            </g>
        </g>
    </g>
</svg>