<?xml version="1.0" encoding="UTF-8" standalone="no"?>
<svg width="32px" height="32px" viewBox="0 0 32 32" version="1.1" xmlns="http://www.w3.org/2000/svg" xmlns:xlink="http://www.w3.org/1999/xlink">
    <!-- Generator: Sketch 40.1 (33804) - http://www.bohemiancoding.com/sketch -->
    <title>rmp-real-time-collaboration</title>
    <desc>Created with Sketch.</desc>
    <defs></defs>
    <g id="Diagrams-&amp;-Graphics-" stroke="none" stroke-width="1" fill="none" fill-rule="evenodd">
        <g id="rmp-real-time-collaboration" fill="#39477F">
            <g id="real-time-collaboration" transform="translate(2.000000, 0.000000)">
                <path d="M17.7658979,14.6600668 C18.8673719,14.6600668 19.7533402,13.7655059 19.7533402,12.6632792 C19.7533402,11.5610524 18.8673719,10.6664915 17.7658979,10.6664915 C16.6644239,10.6664915 15.770474,11.5610524 15.770474,12.6632792 C15.770474,13.7655059 16.6644239,14.6600668 17.7658979,14.6600668 L17.7658979,14.6600668 Z M11.7796261,13.8613518 C13.1045876,13.8613518 14.1661531,12.7910736 14.1661531,11.4652066 C14.1661531,10.1393396 13.1045876,9.06906139 11.7796261,9.06906139 C10.4546646,9.06906139 9.3851174,10.1393396 9.3851174,11.4652066 C9.3851174,12.7910736 10.4546646,13.8613518 11.7796261,13.8613518 L11.7796261,13.8613518 Z M17.7658979,16.2574969 C16.3052476,16.2574969 13.3759653,16.9923148 13.3759653,18.4539634 L13.3759653,20.2510722 L22.1558306,20.2510722 L22.1558306,18.4539634 C22.1558306,16.9923148 19.2265482,16.2574969 17.7658979,16.2574969 L17.7658979,16.2574969 Z M11.7796261,15.4587819 C9.91989101,15.4587819 6.1924391,16.3932785 6.1924391,18.2542846 L6.1924391,20.2510722 L11.7796261,20.2510722 L11.7796261,18.4539634 C11.7796261,17.7750555 12.0430221,16.5849701 13.671288,15.6824221 C12.9768805,15.5386534 12.306418,15.4587819 11.7796261,15.4587819 L11.7796261,15.4587819 Z" id="Combined-Shape"></path>
                <path d="M20.0605487,3.18157601 C24.3262759,4.40049736 27.5722852,8.03589672 28.2233067,12.5125043 C28.2749664,12.8677311 28.2575573,12.8021707 28.2575573,12.8021707 C28.3028098,13.3058165 27.9241573,13.7144537 27.4187371,13.7144524 C26.9097932,13.7144511 26.4637701,13.3075772 26.4146462,12.8056741 C26.4146462,12.8056741 26.4398598,12.9228625 26.384339,12.5882988 C25.7276177,8.63095178 22.6503824,5.49141014 18.7250871,4.74212794 C18.2838394,4.65790012 18.2857286,4.67633747 18.2857286,4.67633747 C18.1236499,4.65833132 17.9716346,4.60021615 17.8398527,4.51293356 C17.7559987,4.47000113 17.677118,4.41324665 17.6065004,4.34262905 C17.2494496,3.98557827 17.2515572,3.40457703 17.6005384,3.05559581 L20.198453,0.457681255 C20.552211,0.103923207 21.1259461,0.104103202 21.4854862,0.463643276 C21.842537,0.820694057 21.8404294,1.40169529 21.4914482,1.75067651 L20.0605487,3.18157601 L20.0605487,3.18157601 Z M8.28230843,28.818424 C4.01658124,27.5995026 0.770571974,23.9641033 0.119550472,19.4874957 C0.0678907483,19.1322689 0.0852998906,19.1978293 0.0852998906,19.1978293 C0.0400473875,18.6941835 0.418699813,18.2855463 0.92412004,18.2855476 C1.43306396,18.2855489 1.87908708,18.6924228 1.92821094,19.1943259 C1.92821094,19.1943259 1.90299738,19.0771375 1.95851818,19.4117012 C2.61523949,23.3690482 5.69247478,26.5085899 9.61777003,27.2578721 C10.0590177,27.3420999 10.0571286,27.3236625 10.0571286,27.3236625 C10.2192072,27.3416687 10.3712225,27.3997839 10.5030045,27.4870664 C10.5868585,27.5299989 10.6657391,27.5867534 10.7363567,27.657371 C11.0934075,28.0144217 11.0913,28.595423 10.7423187,28.9444042 L8.14440419,31.5423187 C7.79064614,31.8960768 7.21691103,31.8958968 6.85737095,31.5363567 C6.50032017,31.1793059 6.50242771,30.5983047 6.85140893,30.2493235 L8.28230843,28.818424 L8.28230843,28.818424 Z" id="Combined-Shape" opacity="0.497726213"></path>
            </g>
        </g>
    </g>
</svg>