<?xml version="1.0" encoding="UTF-8" standalone="no"?>
<svg width="32px" height="32px" viewBox="0 0 32 32" version="1.1" xmlns="http://www.w3.org/2000/svg" xmlns:xlink="http://www.w3.org/1999/xlink">
    <!-- Generator: Sketch 40.1 (33804) - http://www.bohemiancoding.com/sketch -->
    <title>rmp-messaging</title>
    <desc>Created with Sketch.</desc>
    <defs></defs>
    <g id="Diagrams-&amp;-Graphics-" stroke="none" stroke-width="1" fill="none" fill-rule="evenodd">
        <g id="rmp-messaging" fill="#39477F">
            <g transform="translate(0.000000, 4.000000)">
                <path d="M2.50364013,16.8132837 C2.80339824,17.7502105 2.50364016,19.8566176 0.562132353,21.8931985 C8.14099247,21.8931985 9.18167211,24.0941176 13.0659234,24.0941176 C19.1475531,24.0941176 24.0776881,19.5432238 24.0776881,13.9294118 C24.0776881,8.31559972 19.1475531,3.76470588 13.0659234,3.76470588 C6.98429371,3.76470588 2.05415872,8.31559972 2.05415872,13.9294118 C2.05415872,14.9311536 2.21114248,15.8990504 2.50364013,16.8132837 Z" id="Oval-Copy-2"></path>
                <path d="M24.7178842,18.1960528 C27.3791947,16.4364198 29.8887821,14.4742336 31.7708666,14.9351304 C31.6116919,14.4677569 29.5804426,12.4123162 29.5804415,12.1909634 C29.5804403,11.9696106 29.724747,11.102913 29.724747,10.5411765 C29.724747,4.92736443 24.794612,0.376470588 18.7129823,0.376470588 C15.9990625,0.376470588 13.5144491,1.28272628 11.5949311,2.78527849 C12.4314139,2.61083103 13.3017248,2.51874791 14.1953352,2.51874791 C20.6845638,2.51874791 25.945123,7.3746487 25.945123,13.3647059 C25.945123,15.1005951 25.5033349,16.7412365 24.7178842,18.1960528 Z" id="Combined-Shape" opacity="0.500991138"></path>
            </g>
        </g>
    </g>
</svg>