<?xml version="1.0" encoding="UTF-8" standalone="no"?>
<svg width="50px" height="50px" viewBox="0 0 50 50" version="1.1" xmlns="http://www.w3.org/2000/svg" xmlns:xlink="http://www.w3.org/1999/xlink">
    <!-- Generator: Sketch 40.1 (33804) - http://www.bohemiancoding.com/sketch -->
    <title>android</title>
    <desc>Created with Sketch.</desc>
    <defs></defs>
    <g id="Page-1" stroke="none" stroke-width="1" fill="none" fill-rule="evenodd">
        <g id="android" fill="#FFFFFF">
            <path d="M37.9598604,18.1377243 C36.7346355,18.1377243 35.7321788,19.140181 35.7321788,20.3654059 L35.7321788,29.2761322 C35.7321788,30.501357 36.7346355,31.5038137 37.9598604,31.5038137 C39.1850852,31.5038137 40.1875419,30.501357 40.1875419,29.2761322 L40.1875419,20.3654059 C40.1875419,19.140181 39.1850852,18.1377243 37.9598604,18.1377243 L37.9598604,18.1377243 Z M11.2276816,18.1377243 C10.0024567,18.1377243 9,19.140181 9,20.3654059 L9,29.2761322 C9,30.501357 10.0024567,31.5038137 11.2276816,31.5038137 C12.4529064,31.5038137 13.4553631,30.501357 13.4553631,29.2761322 L13.4553631,20.3654059 C13.4553631,19.140181 12.4529064,18.1377243 11.2276816,18.1377243 L11.2276816,18.1377243 Z M14.5692039,32.6176545 C14.5692039,34.4632887 16.0650921,35.9591769 17.9107263,35.9591769 L19.0245671,35.9591769 L19.0245671,40.41454 C19.0245671,41.6397649 20.0270238,42.6422216 21.2522486,42.6422216 C22.4774735,42.6422216 23.4799302,41.6397649 23.4799302,40.41454 L23.4799302,35.9591769 L25.7076118,35.9591769 L25.7076118,40.41454 C25.7076118,41.6397649 26.7100685,42.6422216 27.9352933,42.6422216 C29.1605182,42.6422216 30.1629749,41.6397649 30.1629749,40.41454 L30.1629749,35.9591769 L31.2768157,35.9591769 C33.1224499,35.9591769 34.618338,34.4632887 34.618338,32.6176545 L34.618338,20.3654059 L14.5692039,20.3654059 L14.5692039,32.6176545 L14.5692039,32.6176545 Z M28.7216649,10.1147292 L30.1317874,7.40698223 C30.2030732,7.27109365 30.1496088,7.10178986 30.0137202,7.03161789 C29.8778317,6.96144592 29.7085279,7.01379643 29.6383559,7.14968501 L28.2070705,9.89864406 C27.0865466,9.46536 25.8680048,9.22699807 24.593771,9.22699807 C23.3195371,9.22699807 22.1021091,9.46536 20.9804715,9.89864406 L19.5491861,7.14968501 C19.4790141,7.01379643 19.3097103,6.96033208 19.1738217,7.03161789 C19.0379331,7.1029037 18.9844688,7.27109365 19.0557546,7.40698223 L20.465877,10.115843 C17.3114799,11.5437869 15.0269925,14.5567262 14.631579,18.1388382 L34.5570768,18.1388382 C34.1616633,14.5567262 31.8771759,11.5437869 28.7227788,10.115843 L28.7216649,10.1147292 Z M20.1384078,16.4112711 C19.2462214,16.4112711 18.5233387,15.6883885 18.5233387,14.796202 C18.5233387,13.9040155 19.2462214,13.1811329 20.1384078,13.1811329 C21.0305943,13.1811329 21.753477,13.9040155 21.753477,14.796202 C21.753477,15.6883885 21.0305943,16.4112711 20.1384078,16.4112711 L20.1384078,16.4112711 Z M29.0491341,16.4112711 C28.1569476,16.4112711 27.434065,15.6883885 27.434065,14.796202 C27.434065,13.9040155 28.1569476,13.1811329 29.0491341,13.1811329 C29.9413206,13.1811329 30.6642032,13.9040155 30.6642032,14.796202 C30.6642032,15.6883885 29.9413206,16.4112711 29.0491341,16.4112711 L29.0491341,16.4112711 Z" id="Shape"></path>
        </g>
    </g>
</svg>