<?xml version="1.0" encoding="UTF-8" standalone="no"?>
<svg width="50px" height="50px" viewBox="0 0 50 50" version="1.1" xmlns="http://www.w3.org/2000/svg" xmlns:xlink="http://www.w3.org/1999/xlink">
    <!-- Generator: Sketch 40.1 (33804) - http://www.bohemiancoding.com/sketch -->
    <title>apple</title>
    <desc>Created with Sketch.</desc>
    <defs></defs>
    <g id="Page-1" stroke="none" stroke-width="1" fill="none" fill-rule="evenodd">
        <g id="apple" fill="#FFFFFF">
            <path d="M42.3719231,33.9773321 C41.7308149,36.0332996 40.7191484,38.089267 39.3369235,40.1452345 C37.2146345,43.3697242 35.1007673,44.981969 32.9953218,44.981969 C32.1889362,44.981969 31.0372576,44.7187883 29.5402859,44.192427 C28.1254265,43.6660656 26.8837401,43.4028849 25.8152265,43.4028849 C24.8119818,43.4028849 23.6439859,43.6744874 22.311239,44.2176923 C20.978492,44.7766881 19.8926085,45.056186 19.0535885,45.056186 C16.5533721,45.056186 14.0778946,42.9260016 11.6271561,38.6656327 C9.20905204,34.3726295 8,30.2359556 8,26.255611 C8,22.5047599 8.92955416,19.4287041 10.7886625,17.0274436 C12.6309272,14.6588175 14.9669189,13.4745045 17.7966376,13.4745045 C18.9809507,13.4745045 20.4368662,13.7213679 22.1643842,14.2150949 C23.8750586,14.7088218 25.0098937,14.9556853 25.5688894,14.9556853 C26.3089535,14.9556853 27.4848448,14.6761874 29.0965633,14.1171917 C30.7746033,13.5581959 32.197358,13.278698 33.3648275,13.278698 C35.321839,13.278698 37.0735696,13.8134812 38.6200193,14.8830475 C39.4748302,15.4746776 40.3301674,16.2973804 41.1860309,17.3511559 C39.8869711,18.4533565 38.9495215,19.4239669 38.3736822,20.2629869 C37.3041159,21.8094366 36.7693328,23.5116892 36.7693328,25.3697448 C36.7693328,27.4088687 37.3367503,29.2427117 38.4715854,30.8712737 C39.6064205,32.4998358 40.9060067,33.5362413 42.370344,33.9804903 L42.3719231,33.9773321 Z M33.0948041,5.03587915 C33.0948041,6.0391239 32.8563624,7.15764179 32.379479,8.39143281 C31.8857521,9.62522384 31.120949,10.7600589 30.0850699,11.7959381 C29.1965719,12.6844361 28.3086003,13.2765926 27.421155,13.5724077 C26.8126813,13.753476 25.9573441,13.8934881 24.8551434,13.992444 C24.9046214,11.5417055 25.5462559,9.42783833 26.7800469,7.65084238 C27.9969944,5.89069 30.0529618,4.67374254 32.9479493,4 C32.9647929,4.04947797 32.985321,4.14001212 33.0095336,4.27160246 C33.0337462,4.4031928 33.0542743,4.49372695 33.0711179,4.54320492 C33.0711179,4.60952645 33.0753288,4.69163883 33.0837505,4.78954204 C33.0921723,4.88744525 33.0963832,4.96955762 33.0963832,5.03587915 L33.0948041,5.03587915 Z"></path>
        </g>
    </g>
</svg>