<?xml version="1.0" encoding="UTF-8" standalone="no"?>
<svg width="22px" height="22px" viewBox="0 0 22 22" version="1.1" xmlns="http://www.w3.org/2000/svg" xmlns:xlink="http://www.w3.org/1999/xlink">
    <!-- Generator: Sketch 41.2 (35397) - http://www.bohemiancoding.com/sketch -->
    <title>close-icon</title>
    <desc>Created with Sketch.</desc>
    <defs></defs>
    <g id="Page-1" stroke="none" stroke-width="1" fill="none" fill-rule="evenodd" opacity="0.5">
        <path d="M11,8.0338173 L3.57805045,0.61186772 C2.76876694,-0.19741578 1.43744921,-0.20072828 0.61836047,0.61836047 C-0.20643881,1.44315974 -0.20363518,2.76254755 0.61186772,3.57805045 L8.0338173,11 L0.61186772,18.4219496 C-0.19741578,19.2312331 -0.20072828,20.5625508 0.61836047,21.3816395 C1.44315974,22.2064388 2.76254755,22.2036352 3.57805045,21.3881323 L11,13.9661827 L18.4219496,21.3881323 C19.2312331,22.1974158 20.5625508,22.2007283 21.3816395,21.3816395 C22.2064388,20.5568403 22.2036352,19.2374525 21.3881323,18.4219496 L13.9661827,11 L21.3881323,3.57805045 C22.1974158,2.76876694 22.2007283,1.43744921 21.3816395,0.61836047 C20.5568403,-0.20643881 19.2374525,-0.20363518 18.4219496,0.61186772 L11,8.0338173 Z" id="close-icon" fill="#FFFFFF"></path>
    </g>
</svg>