<?xml version="1.0" encoding="UTF-8" standalone="no"?>
<svg width="50px" height="50px" viewBox="0 0 50 50" version="1.1" xmlns="http://www.w3.org/2000/svg" xmlns:xlink="http://www.w3.org/1999/xlink">
    <!-- Generator: Sketch 40.1 (33804) - http://www.bohemiancoding.com/sketch -->
    <title>linux</title>
    <desc>Created with Sketch.</desc>
    <defs></defs>
    <g id="Page-1" stroke="none" stroke-width="1" fill="none" fill-rule="evenodd">
        <g id="linux" fill="#FFFFFF">
            <path d="M35.1772717,45.367215 C34.6964262,45.818911 32.6814736,46.0429669 31.5620993,45.4774509 C30.2354079,44.8069298 30.9392599,43.7605604 28.8907576,43.7110608 C27.8726243,43.6877156 26.8825149,43.6789006 25.8903332,43.6906217 C25.0125164,43.7022458 24.1354891,43.728594 23.2406014,43.7745094 C20.1648877,43.8007607 19.8639276,45.7751266 17.9047266,45.702863 C16.5638259,45.6540415 14.871542,44.6157121 11.9653527,44.0181328 C9.92296828,43.600728 7.96218846,43.5015351 7.54222575,42.61432 C7.12295377,41.730011 8.05958113,40.7383721 8.12194401,39.8569692 C8.19841748,38.7078227 7.23524643,37.1449526 7.94718979,36.5393331 C8.53509811,36.0379438 9.82320741,36.405752 10.6534626,35.9504718 C11.5364105,35.4696185 11.8909514,35.0690689 11.8909514,34.0133033 C12.215791,35.091736 11.8761501,35.9854412 11.1462478,36.4232851 C10.7121745,36.6808574 9.90500935,36.8172477 9.24131829,36.7508931 C8.71577285,36.7020715 8.39024255,36.7858625 8.230487,36.982311 C8.02682088,37.2376553 8.0922427,37.6842174 8.34860151,38.2788907 C8.60653913,38.8735641 8.91647871,39.2507685 8.87483768,39.978248 C8.83319664,40.7064057 8.01784141,41.5709536 8.14799433,42.1831601 C8.19851616,42.4181621 8.43405445,42.6144169 8.99897139,42.7712464 C9.93550007,43.0295936 11.6070622,43.2638207 13.2564223,43.6584614 C15.0900094,44.0999863 16.9830979,44.9317928 18.1596053,44.7719604 C21.6774837,44.2911071 19.6714118,40.5874516 19.1021531,39.7067267 C16.1328116,35.1179873 14.1691702,32.114107 12.5971716,33.3063598 C12.1868791,33.6164346 12.1712884,32.5256028 12.1891486,32.1053889 C12.25684,30.5972492 13.0372641,30.0696086 13.5010387,28.8956639 C14.3691853,26.6972421 15.0461975,24.1792523 16.3893677,22.8775386 C17.3890487,21.6218372 18.9484168,19.5547685 19.2472061,18.4639367 C18.9959784,16.0919272 18.9187155,13.5950547 18.879936,11.4083539 C18.8420447,9.08225983 19.2174061,7.04144239 21.8931882,5.61428446 C22.5457289,5.26623733 23.3937457,5.13856515 24.292383,5.12984702 C25.899214,5.11231389 27.671129,5.55374189 28.8031338,6.37750834 C30.607809,7.69084623 31.7419846,10.4861694 31.6096609,12.4963765 C31.502598,14.0439415 31.7865859,15.6659012 32.2920016,17.3331952 C32.8969808,19.3133732 33.85433,20.7055617 35.3750173,22.2888711 C37.2078151,24.1968823 38.6341687,27.9560432 39.0355804,30.3368677 C39.413902,32.5608628 38.9211169,33.9355182 38.4238913,34.0047789 C37.6836281,34.1120119 37.2220243,36.4205728 34.9030526,36.3133398 C33.4232169,36.2433042 33.2782627,35.3852464 32.8680689,34.6541827 C32.2087195,33.4852752 31.5383185,33.8508555 31.2692306,35.0693595 C31.1302955,35.6924152 31.2313392,36.5862173 31.4350053,37.2816335 C31.8482581,38.7058854 31.7063628,40.0570987 31.4595755,41.6951385 C30.9861307,44.8391869 33.6975347,45.4338602 35.5266814,43.9395727 C37.3313567,42.4642713 37.7178684,42.2292693 40.001909,41.4639143 C43.4460769,40.3059529 42.2889099,39.2822506 40.4366731,38.6708191 C38.7762613,38.1228362 38.7078792,35.3683913 39.3024975,34.8488876 C39.4348212,37.8068524 41.0030701,38.2358813 41.66834,38.6394338 C44.5176922,40.3756979 40.5917909,41.7999498 38.9210182,42.6259442 C37.5802162,43.2877472 35.8312926,44.7580114 35.1772717,45.367215 Z M32.4211678,33.5463021 C32.4954704,31.7433928 35.3547888,31.876199 36.2913175,32.6306078 C36.2913175,32.2126219 35.3927789,31.8382267 35.0330082,31.6616361 C35.6565383,29.6259527 35.3637683,28.8079983 34.9505155,26.88536 C34.6368263,25.4180986 33.2751051,23.4436359 32.2086208,22.8257142 C32.4777088,23.0569383 32.989045,23.7304623 33.5293917,24.7183234 C34.4599999,26.4191337 35.3785696,28.9327644 34.7668805,31.0436175 C34.5313422,31.8498508 33.9931663,31.9513686 33.6238241,31.9921501 C31.9841342,32.1599257 32.9480946,30.0899509 32.2673327,27.2385411 C31.5092093,24.0689195 30.7317454,23.8311083 30.536368,23.582351 C29.5968791,19.4583848 28.5518074,19.8699774 28.2560771,18.3129193 C27.9907388,16.935261 29.4793566,15.7957045 27.4555232,15.4103631 C26.8386043,15.2914091 25.9557551,14.6770715 25.603385,14.6332871 C25.2547647,14.5865967 25.0837601,12.3596956 26.36289,12.2692208 C27.6420198,12.176518 27.8865375,13.6876606 27.6354085,14.2823339 C27.2718882,14.8711952 27.6621496,15.0914733 28.2946592,14.8996744 C28.8120146,14.743523 28.4782942,13.4205952 28.6016385,13.2244373 C28.2679182,11.3302782 27.4622331,11.0574007 26.6230971,10.8983432 C23.4382484,11.1383824 24.8682529,14.6013206 24.5456829,14.2678037 C24.0945388,13.7978965 22.7380474,14.2415525 22.7447573,13.9401958 C22.7737679,12.1743869 22.1709596,11.1507815 21.3407044,11.1295674 C20.4161154,11.1033162 20.0348335,12.3744196 19.9789832,13.0900812 C19.9261918,13.7774573 20.3952949,15.2097493 20.7377974,15.1002883 C20.962284,15.0273466 21.3465262,14.5844656 20.935543,14.5865967 C20.7229961,14.5895027 20.4019061,14.0999313 20.3684552,13.504483 C20.3364843,12.9105846 20.5580107,12.3130052 21.3436646,12.3443904 C22.2652933,12.3794567 22.2563138,14.1466217 22.1559609,14.2152043 C21.8609213,14.4158182 21.4825997,14.8047437 21.441748,14.8710983 C21.1488793,15.3527266 20.560971,15.4715838 20.3454638,15.6832406 C19.9351713,16.0859214 19.8518892,16.5412015 20.1595592,16.715661 C21.2136104,17.3095594 20.8709106,17.9705874 22.3455164,18.0319049 C23.3139173,18.0691991 24.0431288,17.8837936 24.7023795,17.6860857 C25.2159852,17.5336153 26.8652467,17.1884742 27.2130776,16.5938978 C27.3639524,16.3414594 27.5535079,16.3326445 27.6798125,16.4049081 C27.9012402,16.5303523 27.9489004,16.950663 27.3787537,17.1010023 C26.5633985,17.3184713 25.7398532,17.7452722 25.0181409,18.0290957 C24.2979089,18.3158254 24.0675017,18.4260613 23.3881212,18.5485994 C21.8569743,18.8177959 20.7265484,18.0057505 21.7537598,18.9805344 C22.0941901,19.3053331 22.4218912,19.5080781 23.3026683,19.4731087 C25.2314773,19.3979391 27.3927656,17.1243475 27.6061019,18.1422377 C27.6507032,18.3508916 26.9952022,18.6347152 26.4838661,18.8842475 C24.6755398,19.7577072 23.4023305,21.4825409 22.2442754,20.8856396 C21.2081832,20.3493777 20.1773208,17.8262539 20.1950824,18.9565111 C20.224093,20.6995559 17.8545008,22.2508988 18.9448645,24.2347578 C18.2388417,24.4236506 16.628853,27.7581417 16.3977551,29.4946964 C16.2714506,30.4781983 16.4937664,31.7135574 16.2535903,32.4038396 C15.90497,33.4012905 14.3219197,31.453079 14.8272367,29.0656675 C14.9180181,28.6453567 14.841446,28.5563349 14.7268838,28.7591768 C14.0833225,29.8755818 14.4369753,31.4327367 14.9446605,32.5256997 C15.1669763,32.9985129 15.6865025,33.2071668 16.070646,33.6281557 C16.9001119,34.5387159 20.073909,36.8496017 20.6491868,37.4033967 C21.3462302,38.0760489 21.1508528,39.6192548 19.6687476,39.7666881 C20.4283512,41.1734068 21.1686144,41.3068911 21.1574641,43.6068307 C22.0167299,43.1536817 21.6710698,42.1628178 21.3113977,41.5098298 C21.0601701,41.0633647 20.7316795,40.8605228 20.8030218,40.7561959 C20.8566026,40.6774421 21.2987673,40.3038218 21.564895,40.5963635 C22.3475886,41.4574241 23.8251548,41.6114444 25.4142242,41.4173207 C27.0003333,41.2196129 28.7016954,40.675311 29.4880401,39.4341398 C29.8566915,38.8510907 30.1228192,38.6446647 30.2937251,38.7467637 C30.4624601,38.8510907 30.536072,39.2625864 30.5181131,39.9236144 C30.4980819,40.6575841 30.1851821,41.4200331 29.9903968,42.0293335 C29.7710412,42.7196157 29.7035472,43.2091871 30.3887496,43.2354384 C30.5924157,41.959201 30.9500155,40.7034996 31.05323,39.434043 C31.168779,37.9897394 30.1029855,35.301068 31.2513703,33.9614789 C31.5649609,33.5959955 31.9344018,33.5551171 32.4211678,33.5463021 Z"></path>
        </g>
    </g>
</svg>