<?xml version="1.0" encoding="UTF-8" standalone="no"?>
<svg width="97px" height="23px" viewBox="0 0 97 23" version="1.1" xmlns="http://www.w3.org/2000/svg" xmlns:xlink="http://www.w3.org/1999/xlink">
    <!-- Generator: Sketch 40.2 (33826) - http://www.bohemiancoding.com/sketch -->
    <title>macOS</title>
    <desc>Created with Sketch.</desc>
    <defs></defs>
    <g id="Page-1" stroke="none" stroke-width="1" fill="none" fill-rule="evenodd">
        <g id="Artboard" transform="translate(-5.000000, 0.000000)" fill="#FFFFFF">
            <path d="M5,22.644728 L7.03895232,22.644728 L7.03895232,12.4963062 C7.03895232,9.63868368 8.81531229,7.64607119 11.2867696,7.64607119 C13.5728677,7.64607119 15.1329752,9.23707186 15.1329752,11.6158496 L15.1329752,22.644728 L17.1719275,22.644728 L17.1719275,12.2491605 C17.1719275,9.56145064 18.9019476,7.64607119 21.3888516,7.64607119 C23.8294157,7.64607119 25.2659503,9.22162525 25.2659503,11.8166555 L25.2659503,22.644728 L27.3203492,22.644728 L27.3203492,11.3532572 C27.3203492,7.98589657 25.1887173,5.82337139 21.9449295,5.82337139 C19.4425789,5.82337139 17.465413,7.25990598 16.677636,9.3143049 L16.6312962,9.3143049 C15.9979852,7.21356615 14.2370719,5.82337139 11.8274009,5.82337139 C9.46406985,5.82337139 7.68770987,7.15177972 6.97716588,9.11349899 L6.91537945,9.11349899 L6.91537945,6.00873069 L5,6.00873069 L5,22.644728 Z M36.2175957,21.0382807 C33.9006044,21.0382807 32.3250504,19.8179987 32.3250504,18.0261921 C32.3250504,16.1571525 33.8079248,15.0758899 36.6037609,14.8905306 L41.4694426,14.5507052 L41.4694426,16.3888516 C41.4694426,19.014775 39.1987911,21.0382807 36.2175957,21.0382807 L36.2175957,21.0382807 Z M35.8159839,22.8300873 C38.3646743,22.8300873 40.6198791,21.4862324 41.5157824,19.4627267 L41.5621222,19.4627267 L41.5621222,22.644728 L43.5083949,22.644728 L43.5083949,11.3069174 C43.5083949,7.95500336 41.0832774,5.82337139 37.2679651,5.82337139 C33.7770316,5.82337139 31.1511081,7.89321692 30.9811954,10.8126259 L32.9429147,10.8126259 C33.3136333,8.83546004 34.9355272,7.64607119 37.2525185,7.64607119 C39.9402283,7.64607119 41.4694426,9.05171256 41.4694426,11.4768301 L41.4694426,12.8979181 L36.3566152,13.2377435 C32.3713902,13.5157824 30.2397582,15.1685695 30.2397582,18.0107455 C30.2397582,20.8838146 32.4949631,22.8300873 35.8159839,22.8300873 L35.8159839,22.8300873 Z M60.5768972,11.245131 C60.1752854,8.31027535 57.626595,5.82337139 53.7340497,5.82337139 C49.22364,5.82337139 46.2578912,9.17528543 46.2578912,14.319006 C46.2578912,19.5708529 49.2390866,22.8300873 53.7649429,22.8300873 C57.4412357,22.8300873 60.113499,20.6521155 60.5923439,17.516454 L58.5688381,17.516454 C58.0899933,19.6944258 56.3136333,20.9919409 53.7649429,20.9919409 C50.5057085,20.9919409 48.3431833,18.4432505 48.3431833,14.319006 C48.3431833,10.2719946 50.4902619,7.64607119 53.7494963,7.64607119 C56.406313,7.64607119 58.1517797,9.20617864 58.5533915,11.245131 L60.5768972,11.245131 Z M72.7179315,0 C66.5083949,0 62.600403,4.44862324 62.600403,11.5077233 C62.600403,18.5668234 66.5083949,23 72.7179315,23 C78.9429147,23 82.8509066,18.5668234 82.8509066,11.5077233 C82.8509066,4.44862324 78.9274681,0 72.7179315,0 L72.7179315,0 Z M72.7179315,1.96171927 C77.5990598,1.96171927 80.6883815,5.6534587 80.6883815,11.5077233 C80.6883815,17.3465413 77.5990598,21.0382807 72.7179315,21.0382807 C67.8368032,21.0382807 64.7629281,17.3465413 64.7629281,11.5077233 C64.7629281,5.6534587 67.8368032,1.96171927 72.7179315,1.96171927 L72.7179315,1.96171927 Z M85.0443251,16.5896575 C85.2760242,20.4204164 88.5507052,23 93.2155809,23 C98.143049,23 101.294157,20.435863 101.294157,16.5278711 C101.294157,13.4231028 99.4096709,11.7085292 94.9301545,10.5809268 L92.5204835,9.96306246 C89.2458026,9.1289456 87.8556078,8.00134318 87.8556078,6.08596373 C87.8556078,3.62995299 90.1417058,1.91537945 93.2310275,1.91537945 C96.3975823,1.91537945 98.6218939,3.58361316 98.8226998,6.10141034 L100.938885,6.10141034 C100.815312,2.564137 97.6333109,0 93.292814,0 C88.9059772,0 85.6621894,2.564137 85.6621894,6.16319678 C85.6621894,9.09805238 87.5003358,10.8435191 91.6245803,11.8938885 L94.3895232,12.6044325 C97.6950974,13.4385494 99.131632,14.674278 99.131632,16.7595702 C99.131632,19.2619208 96.7374077,21.0846206 93.4009402,21.0846206 C89.9100067,21.0846206 87.3922095,19.2619208 87.1605104,16.5896575 L85.0443251,16.5896575 Z" id="macOS"></path>
        </g>
    </g>
</svg>