<?xml version="1.0" encoding="UTF-8" standalone="no"?>
<svg width="50px" height="50px" viewBox="0 0 50 50" version="1.1" xmlns="http://www.w3.org/2000/svg" xmlns:xlink="http://www.w3.org/1999/xlink">
    <!-- Generator: Sketch 40.1 (33804) - http://www.bohemiancoding.com/sketch -->
    <title>objc</title>
    <desc>Created with Sketch.</desc>
    <defs></defs>
    <g id="Page-1" stroke="none" stroke-width="1" fill="none" fill-rule="evenodd">
        <g id="objc" fill="#FFFFFF">
            <path d="M5.08884722,13.2626082 L13.2172816,13.2626082 L13.2172816,16.9099826 L9.18780133,16.9099826 L9.18780133,37.3005424 L13.2172816,37.3005424 L13.2172816,41.0173906 L5.08884722,41.0173906 L5.08884722,13.2626082 Z M35.9699506,33.5489573 C35.6225799,34.0815924 35.1420576,34.6257984 34.5283693,35.1815916 C33.914681,35.7373847 33.1910029,36.2526436 32.3573131,36.7273836 C31.5236234,37.2021236 30.6088942,37.5900151 29.6130981,37.8910697 C28.617302,38.1921243 27.5636266,38.3426494 26.4520402,38.3426494 C24.7151866,38.3426494 23.1288841,38.0415993 21.693085,37.43949 C20.257286,36.8373807 19.018349,35.9979141 17.9762368,34.9210648 C16.9341246,33.8442156 16.1236051,32.5763314 15.5446539,31.1173744 C14.9657027,29.6584173 14.6762314,28.0605359 14.6762314,26.3236823 C14.6762314,24.6331447 14.9657027,23.0468422 15.5446539,21.5647271 C16.1236051,20.082612 16.9399141,18.7857807 17.9936053,17.6741944 C19.0472965,16.562608 20.3036018,15.6826154 21.7625588,15.03419 C23.2215159,14.3857647 24.8309761,14.0615568 26.5909878,14.0615568 C27.7257322,14.0615568 28.7678288,14.1831348 29.7173088,14.4262943 C30.6667888,14.6694538 31.5294131,14.999451 32.3052078,15.4162959 C33.0810024,15.8331408 33.769944,16.3252419 34.3720533,16.8926141 C34.9741625,17.4599863 35.5067897,18.067876 35.9699506,18.7163013 L32.8783666,21.4605164 C32.137309,20.3952461 31.2746847,19.5384112 30.2904676,18.8899858 C29.3062505,18.2415605 28.0731029,17.9173526 26.5909878,17.9173526 C25.4562435,17.9173526 24.4373046,18.1431402 23.5341407,18.5947222 C22.6309768,19.0463041 21.8609832,19.6484044 21.2241369,20.4010409 C20.5872906,21.1536775 20.1009788,22.0336702 19.7651871,23.0410453 C19.4293954,24.0484204 19.2615021,25.1078852 19.2615021,26.2194716 C19.2615021,27.3310579 19.4293954,28.3731544 19.7651871,29.3457925 C20.1009788,30.3184305 20.5815011,31.1636866 21.2067685,31.8815861 C21.8320358,32.5994856 22.5788716,33.1668493 23.4472985,33.5836942 C24.3157253,34.0005391 25.2941382,34.2089584 26.3825664,34.2089584 C27.3783625,34.2089584 28.2294081,34.0931699 28.9357285,33.8615894 C29.642049,33.6300089 30.2441492,33.3405376 30.7420473,32.9931669 C31.2399453,32.6457962 31.656784,32.2810624 31.9925757,31.8989546 C32.3283674,31.5168468 32.6352069,31.1868495 32.9131035,30.908953 L35.9699506,33.5489573 Z M37.567848,37.3005424 L41.5973283,37.3005424 L41.5973283,16.9099826 L37.567848,16.9099826 L37.567848,13.2626082 L45.6962824,13.2626082 L45.6962824,41.0173906 L37.567848,41.0173906 L37.567848,37.3005424 Z"></path>
        </g>
    </g>
</svg>