<?xml version="1.0" encoding="UTF-8" standalone="no"?>
<svg width="50px" height="50px" viewBox="0 0 50 50" version="1.1" xmlns="http://www.w3.org/2000/svg" xmlns:xlink="http://www.w3.org/1999/xlink">
    <!-- Generator: Sketch 40.1 (33804) - http://www.bohemiancoding.com/sketch -->
    <title>swift</title>
    <desc>Created with Sketch.</desc>
    <defs></defs>
    <g id="Page-1" stroke="none" stroke-width="1" fill="none" fill-rule="evenodd">
        <g id="swift" fill="#FFFFFF">
            <path d="M29.395251,8 C45.539458,18.5500498 40.6032079,31.8175367 40.6032079,31.8175367 C40.6032079,31.8175367 42.3442498,33.8156522 43.2147708,36.2933154 C44.0852917,38.7709786 44.0756998,41.8081142 43.9174232,41.8880388 C43.7591467,41.9679634 41.7183993,38.4512801 38.1499215,38.4512801 C34.5814436,38.4512801 32.7685179,41.8880388 26.4374576,41.8880388 C12.1824571,41.8880388 6,30.0791765 6,30.0791765 C6,30.0791765 12.2717079,34.6148984 18.8401849,34.4550492 C25.4086618,34.2951999 27.2288403,32.377009 27.2288403,32.377009 C27.2288403,32.377009 24.2918539,29.895022 19.2358756,24.9040571 C14.1798973,19.9130922 9.42273017,13.035251 9.42273017,13.035251 C9.42273017,13.035251 17.0442825,19.1357269 19.4889313,20.9302312 C21.9335801,22.7247355 24.378229,24.3510049 24.378229,24.3510049 C24.378229,24.3510049 22.0106175,21.7714056 20.3438114,19.69651 C18.6770053,17.6216145 14.4084412,11.356834 14.4084412,11.356834 C14.4084412,11.356834 20.9552071,17.326286 23.9337474,19.6965095 C26.9122878,22.0667331 32.6102432,26.0629641 32.6102432,26.0629641 C32.6102432,26.0629641 36.0428657,18.1504267 29.395251,8 L29.395251,8 Z" id="Swift-logo"></path>
        </g>
    </g>
</svg>