<?xml version="1.0" encoding="UTF-8" standalone="no"?>
<svg width="34px" height="29px" viewBox="0 0 34 29" version="1.1" xmlns="http://www.w3.org/2000/svg" xmlns:xlink="http://www.w3.org/1999/xlink">
    <!-- Generator: Sketch 40.1 (33804) - http://www.bohemiancoding.com/sketch -->
    <title>Artboard 6</title>
    <desc>Created with Sketch.</desc>
    <defs></defs>
    <g id="Page-1" stroke="none" stroke-width="1" fill="none" fill-rule="evenodd">
        <g id="Artboard-6" fill="#1DA1F2">
            <path d="M32.4497463,24.0804034 C31.346522,23.5817181 30.1601223,23.2446713 28.9153464,23.0928237 C30.1857991,23.8690059 31.1612979,25.0974675 31.6208467,26.5609766 C30.4318135,25.84231 29.1150547,25.3210253 27.7124872,25.0400412 C26.5903893,26.258086 24.9907469,27.0194479 23.2205842,27.0194479 C19.8213714,27.0194479 17.0662732,24.21296 17.0662732,20.7508425 C17.0662732,20.2593327 17.1201945,19.7807433 17.2255572,19.3222273 C12.1103883,19.5833167 7.57547112,22.0797609 4.5399033,25.8720403 C4.01010542,24.9466034 3.70663643,23.8699001 3.70663643,22.7208607 C3.70663643,20.5456817 4.79272098,18.6272555 6.44461677,17.5026485 C5.43578204,17.5347706 4.4866404,17.8168947 3.65681904,18.2867663 C3.65587534,18.2603891 3.65587534,18.2342801 3.65587534,18.2080818 C3.65587534,15.1702347 5.77761263,12.6371307 8.59284285,12.0608563 C8.07684897,11.91757 7.53326902,11.8417915 6.97191283,11.8417915 C6.57493199,11.8417915 6.19002147,11.8800384 5.81358208,11.9535592 C6.59729496,9.4631505 8.86977916,7.65050134 11.5634287,7.59975877 C9.45534176,5.91810143 6.80202902,4.91643895 3.91832735,4.91643895 C3.42188732,4.91643895 2.93161413,4.94621386 2.4497463,5.0038413 C5.17455905,3.22521426 8.40917693,2.18774141 11.8852006,2.18774141 C23.2053756,2.18774141 29.3950196,11.7396358 29.3950196,20.0243075 C29.3950196,20.2959702 29.3888747,20.5657775 29.3776823,20.8346236 C30.5796636,21.7191758 31.6229754,22.8229717 32.4485832,24.0803587" id="twitter" transform="translate(17.449746, 14.603595) scale(1, -1) translate(-17.449746, -14.603595) "></path>
        </g>
    </g>
</svg>