<?xml version="1.0" encoding="UTF-8" standalone="no"?>
<svg width="50px" height="50px" viewBox="0 0 50 50" version="1.1" xmlns="http://www.w3.org/2000/svg" xmlns:xlink="http://www.w3.org/1999/xlink">
    <!-- Generator: Sketch 40.1 (33804) - http://www.bohemiancoding.com/sketch -->
    <title>xamarin</title>
    <desc>Created with Sketch.</desc>
    <defs></defs>
    <g id="Page-1" stroke="none" stroke-width="1" fill="none" fill-rule="evenodd">
        <g id="xamarin" fill="#FFFFFF">
            <path d="M17.54599,9 C16.5588677,9.00209891 15.5925861,9.56393355 15.0956623,10.4210315 L7.36688916,23.8828848 C6.87770361,24.7422776 6.87770361,25.8655655 7.36688916,26.7249585 L15.0956623,40.1868116 C15.5926383,41.0439167 16.5588677,41.6059018 17.54599,41.6078432 L33.0034814,41.6078432 C33.990604,41.6057445 34.9568328,41.0439167 35.4538089,40.1868116 L43.1825805,26.7249585 C43.6717659,25.8655655 43.6717153,24.7422776 43.1825805,23.8828848 L35.4538089,10.4210315 C34.9568328,9.56393355 33.990604,9.00194149 33.0034814,9 L17.54599,9 L17.54599,9 Z M17.6862675,16.8753471 C17.7075017,16.8732482 17.7297731,16.8732482 17.7510734,16.8753471 L20.4172582,16.8753471 C20.5352781,16.8777958 20.6497579,16.9461851 20.7086948,17.0489055 L25.2315569,25.1303615 C25.2543227,25.1703176 25.2689916,25.2148355 25.2745577,25.2605284 C25.2801273,25.2148248 25.2947824,25.1703036 25.3175586,25.1303615 L29.8295952,17.0489055 C29.8904024,16.9430717 30.0102448,16.8743047 30.131808,16.8753471 L32.7979936,16.8753471 C33.0340873,16.877446 33.2108921,17.1756128 33.1002562,17.3851849 L28.6853978,25.3039234 L33.1002562,33.2118141 C33.2213638,33.4225894 33.0402086,33.7345809 32.7979936,33.7324962 L30.131808,33.7324962 C30.0081203,33.7314466 29.8875695,33.657922 29.8295952,33.5480898 L25.3175586,25.466634 C25.2947928,25.4266776 25.2801238,25.3821564 25.2745577,25.3364667 C25.2689881,25.3821672 25.2543331,25.4266951 25.2315569,25.466634 L20.7086948,33.5480898 C20.6524418,33.6548157 20.5373528,33.7276372 20.4172582,33.7324962 L17.7510734,33.7324962 C17.5088581,33.7345949 17.3277519,33.4225894 17.4488595,33.2118141 L21.8637164,25.3039234 L17.4488595,17.3851849 C17.34303,17.1939747 17.4721474,16.9161603 17.6862675,16.8753471 L17.6862675,16.8753471 L17.6862675,16.8753471 Z" id="Logo"></path>
        </g>
    </g>
</svg>