<svg id="Layer_2" data-name="Layer 2" xmlns="http://www.w3.org/2000/svg" viewBox="0 0 1183.66 226.07"><defs><style>.cls-1{fill:#99519f;}.cls-2{fill:#59569d;}.cls-3{fill:#cf509c;}.cls-4{fill:#ee5291;}.cls-5,.cls-6,.cls-7,.cls-8,.cls-9{fill:none;stroke-width:3px;}.cls-5,.cls-6{stroke:#f27c87;}.cls-5,.cls-6,.cls-8{stroke-miterlimit:10;}.cls-6,.cls-8,.cls-9{stroke-linecap:round;}.cls-7,.cls-8,.cls-9{stroke:#ee5291;}.cls-7,.cls-9{stroke-linejoin:round;}.cls-10{fill:#f69d95;}</style></defs><title>world-tour-log</title><rect class="cls-1" x="824.18" y="161.64" width="15.19" height="3.19" rx="1.59" ry="1.59" transform="matrix(0.25, -0.97, 0.97, 0.25, 463.58, 926.73)"/><rect class="cls-1" x="818.9" y="160.26" width="15.19" height="3.19" rx="1.59" ry="1.59" transform="translate(460.97 920.59) rotate(-75.36)"/><rect class="cls-1" x="809.55" y="157.82" width="15.19" height="3.19" rx="1.59" ry="1.59" transform="matrix(0.25, -0.97, 0.97, 0.25, 456.35, 909.72)"/><rect class="cls-1" x="804.27" y="156.44" width="15.19" height="3.19" rx="1.59" ry="1.59" transform="translate(453.74 903.58) rotate(-75.36)"/><path class="cls-2" d="M202.74,96a46.7,46.7,0,1,1,14.67-15.62A46.7,46.7,0,0,1,202.74,96ZM153.22,20.85a43.34,43.34,0,1,0,65.67,25h0A43.34,43.34,0,0,0,153.22,20.85Z"/><path class="cls-2" d="M197.81,88.63a37.8,37.8,0,1,1,15.73-41.37A37.64,37.64,0,0,1,197.81,88.63ZM158,28.24a34.61,34.61,0,1,0,10.09-4.52A34.36,34.36,0,0,0,158,28.24Z"/><path class="cls-2" d="M190.39,38.62a1.64,1.64,0,0,1-.48.21l-33.14,8.89a1.64,1.64,0,1,1-.85-3.17l33.14-8.89A1.64,1.64,0,0,1,190.39,38.62Z"/><path class="cls-2" d="M203.53,59.88a1.64,1.64,0,0,1-.48.21L156,72.71a1.64,1.64,0,1,1-.85-3.17l47-12.61A1.64,1.64,0,0,1,203.53,59.88Z"/><path class="cls-2" d="M199.28,71.76a1.64,1.64,0,0,1-.48.21l-33.14,8.89a1.64,1.64,0,1,1-.85-3.17L198,68.81A1.64,1.64,0,0,1,199.28,71.76Z"/><path class="cls-2" d="M201.43,50.46l-0.26.07a0.87,0.87,0,0,1-1-.68l-2.07-7.72a0.87,0.87,0,0,1,.53-1.1l0.26-.07a0.87,0.87,0,0,1,1,.68L202,49.37A0.87,0.87,0,0,1,201.43,50.46ZM196,51.91l-0.26.07a0.87,0.87,0,0,1-1-.68l-2.07-7.72a0.87,0.87,0,0,1,.53-1.1l0.26-.07a0.87,0.87,0,0,1,1,.68l2.07,7.72A0.87,0.87,0,0,1,196,51.91Zm-5.4,1.45-0.26.07a0.87,0.87,0,0,1-1-.68L187.3,45a0.87,0.87,0,0,1,.53-1.1l0.26-.07a0.87,0.87,0,0,1,1,.68l2.07,7.72A0.87,0.87,0,0,1,190.64,53.36Zm-5.4,1.45-0.26.07a0.87,0.87,0,0,1-1-.68l-2.07-7.72a0.87,0.87,0,0,1,.53-1.1l0.26-.07a0.87,0.87,0,0,1,1,.68l2.07,7.72A0.87,0.87,0,0,1,185.25,54.8ZM174.46,57.7l-0.26.07a0.87,0.87,0,0,1-1-.68l-2.07-7.72a0.87,0.87,0,0,1,.53-1.1l0.26-.07a0.87,0.87,0,0,1,1,.68L175,56.6A0.87,0.87,0,0,1,174.46,57.7Zm-5.4,1.45-0.26.07a0.87,0.87,0,0,1-1-.68l-2.07-7.72a0.87,0.87,0,0,1,.53-1.1l0.26-.07a0.87,0.87,0,0,1,1,.68L169.59,58A0.87,0.87,0,0,1,169.06,59.15ZM158.27,62l-0.26.07a0.87,0.87,0,0,1-1-.68l-2.07-7.72a0.87,0.87,0,0,1,.53-1.1l0.26-.07a0.87,0.87,0,0,1,1,.68l2.07,7.72A0.87,0.87,0,0,1,158.27,62Zm-5.4,1.45-0.26.07a0.87,0.87,0,0,1-1-.68l-2.07-7.72a0.87,0.87,0,0,1,.53-1.1l0.26-.07a0.87,0.87,0,0,1,1,.68l2.07,7.72A0.87,0.87,0,0,1,152.88,63.49Z"/><path class="cls-2" d="M201.71,50.49a0.83,0.83,0,0,1-.24.11l-0.26.07a1,1,0,0,1-1.18-.78L198,42.16a1,1,0,0,1,.63-1.27l0.26-.07a1,1,0,0,1,1.18.78l2.07,7.72a1.13,1.13,0,0,1-.06.78A0.91,0.91,0,0,1,201.71,50.49Zm-0.32-.15a0.6,0.6,0,0,0,.39-0.34,0.86,0.86,0,0,0,0-.6l-2.07-7.72a0.73,0.73,0,0,0-.84-0.59l-0.26.07a0.74,0.74,0,0,0-.44.93l2.07,7.72a0.73,0.73,0,0,0,.84.59Zm-5.08,1.6a0.82,0.82,0,0,1-.24.11l-0.26.07a1,1,0,0,1-1.18-.78l-2.07-7.73a1.13,1.13,0,0,1,.06-0.78,0.88,0.88,0,0,1,.56-0.48l0.26-.07a1,1,0,0,1,1.18.78l2.07,7.72A1.05,1.05,0,0,1,196.31,51.93ZM196,51.78a0.74,0.74,0,0,0,.44-0.93l-2.07-7.72a0.73,0.73,0,0,0-.84-0.59l-0.26.07a0.62,0.62,0,0,0-.39.34,0.86,0.86,0,0,0,0,.6l2.07,7.72a0.73,0.73,0,0,0,.84.59Zm-5.08,1.6a0.83,0.83,0,0,1-.24.11l-0.26.07a1,1,0,0,1-1.18-.78l-2.07-7.72a1,1,0,0,1,.63-1.26l0.26-.07a0.88,0.88,0,0,1,.73.13,1.13,1.13,0,0,1,.45.65l2.07,7.72a1.13,1.13,0,0,1-.07.79A0.91,0.91,0,0,1,190.92,53.38Zm-0.32-.15a0.6,0.6,0,0,0,.39-0.33,0.85,0.85,0,0,0,0-.6L189,44.57a0.85,0.85,0,0,0-.34-0.49,0.61,0.61,0,0,0-.5-0.1l-0.26.07a0.73,0.73,0,0,0-.44.93l2.07,7.72a0.73,0.73,0,0,0,.84.59Zm-5.08,1.6a0.82,0.82,0,0,1-.24.11L185,55a1,1,0,0,1-1.18-.78l-2.07-7.72a1.13,1.13,0,0,1,.06-0.78,0.87,0.87,0,0,1,.56-0.48l0.26-.07a1,1,0,0,1,1.18.78l2.07,7.72A1.05,1.05,0,0,1,185.52,54.83Zm-0.31-.15a0.73,0.73,0,0,0,.44-0.93L183.58,46a0.73,0.73,0,0,0-.84-0.59l-0.26.07a0.61,0.61,0,0,0-.39.34,0.86,0.86,0,0,0,0,.6l2.07,7.72a0.73,0.73,0,0,0,.84.59Zm-10.47,3a0.83,0.83,0,0,1-.24.11l-0.26.07a1,1,0,0,1-1.18-.78L171,49.39a1.13,1.13,0,0,1,.06-0.79,0.87,0.87,0,0,1,.56-0.48l0.26-.07a1,1,0,0,1,1.18.78l2.07,7.72a1.13,1.13,0,0,1-.06.79A0.92,0.92,0,0,1,174.74,57.72Zm-0.32-.15a0.6,0.6,0,0,0,.39-0.34,0.85,0.85,0,0,0,0-.59l-2.07-7.73a0.73,0.73,0,0,0-.84-0.59l-0.26.07a0.61,0.61,0,0,0-.39.34,0.85,0.85,0,0,0,0,.59L173.32,57a0.73,0.73,0,0,0,.84.59Zm-5.08,1.6a0.83,0.83,0,0,1-.24.11l-0.26.07a0.88,0.88,0,0,1-.73-0.13,1.13,1.13,0,0,1-.45-0.65l-2.07-7.72a1.13,1.13,0,0,1,.07-0.79,0.87,0.87,0,0,1,.56-0.48l0.26-.07a0.87,0.87,0,0,1,.67.1,1.13,1.13,0,0,1,.51.69L169.73,58a1.13,1.13,0,0,1-.07.79A0.91,0.91,0,0,1,169.34,59.17Zm-3.22-9.25a0.64,0.64,0,0,0-.22.26,0.85,0.85,0,0,0,0,.6l2.07,7.72a0.86,0.86,0,0,0,.34.49,0.61,0.61,0,0,0,.5.1L169,59a0.6,0.6,0,0,0,.39-0.33,0.86,0.86,0,0,0,0-.6l-2.07-7.72a0.85,0.85,0,0,0-.38-0.52,0.61,0.61,0,0,0-.46-0.07l-0.26.07A0.56,0.56,0,0,0,166.13,49.91Zm-7.58,12.15a0.82,0.82,0,0,1-.24.11l-0.26.07a0.87,0.87,0,0,1-.67-0.1,1.13,1.13,0,0,1-.51-0.69l-2.07-7.72a1.13,1.13,0,0,1,.07-0.79,0.87,0.87,0,0,1,.56-0.48l0.26-.07a1,1,0,0,1,1.18.78l2.07,7.72A1.05,1.05,0,0,1,158.55,62.06Zm-3.21-9.25a0.64,0.64,0,0,0-.22.26,0.86,0.86,0,0,0,0,.6l2.07,7.72a0.85,0.85,0,0,0,.38.52A0.61,0.61,0,0,0,158,62l0.26-.07a0.73,0.73,0,0,0,.44-0.93l-2.07-7.72a0.73,0.73,0,0,0-.84-0.59l-0.26.07A0.56,0.56,0,0,0,155.34,52.81Zm-2.18,10.7a0.83,0.83,0,0,1-.24.11l-0.26.07a1,1,0,0,1-1.18-.78l-2.07-7.72a1,1,0,0,1,.63-1.27l0.26-.07a1,1,0,0,1,1.18.78l2.07,7.72a1.13,1.13,0,0,1-.06.79A0.92,0.92,0,0,1,153.16,63.51Zm-0.32-.15a0.6,0.6,0,0,0,.39-0.34,0.85,0.85,0,0,0,0-.59l-2.07-7.72a0.73,0.73,0,0,0-.84-0.59l-0.26.07a0.73,0.73,0,0,0-.44.93l2.07,7.72a0.73,0.73,0,0,0,.84.59Z"/><path class="cls-1" d="M865.27,131.31a46.32,46.32,0,1,1-14.67-15.62A46.31,46.31,0,0,1,865.27,131.31Zm-51.6,65.15a43.38,43.38,0,0,0,53.08-30.63h0A43.34,43.34,0,1,0,813.67,196.46Z"/><path class="cls-1" d="M861.4,164.4A37.78,37.78,0,1,1,845.67,123,37.55,37.55,0,0,1,861.4,164.4ZM816,187.95a34.3,34.3,0,1,0-10.09-4.52A34.29,34.29,0,0,0,816,187.95Z"/><path class="cls-1" d="M851.39,151.78a1.64,1.64,0,0,0-.48-0.21l-47-12.61a1.64,1.64,0,1,0-.85,3.17l47,12.61A1.64,1.64,0,0,0,851.39,151.78Z"/><path class="cls-1" d="M847.14,139.9a1.64,1.64,0,0,0-.48-0.21l-33.14-8.89a1.64,1.64,0,1,0-.85,3.17l33.14,8.89A1.64,1.64,0,0,0,847.14,139.9Z"/><path class="cls-1" d="M835.8,176.57a1.64,1.64,0,0,0-.48-0.21l-33.14-8.89a1.64,1.64,0,1,0-.85,3.17l33.14,8.89A1.64,1.64,0,0,0,835.8,176.57Z"/><path class="cls-3" d="M235.36,101.41a1.5,1.5,0,0,1-.52-2.91L301.55,74a1.5,1.5,0,0,1,1,2.82l-66.71,24.5A1.5,1.5,0,0,1,235.36,101.41Z"/><path class="cls-3" d="M249.2,108.68a1.5,1.5,0,0,1-.52-2.91l47-17.27a1.5,1.5,0,0,1,1,2.82l-47,17.27A1.5,1.5,0,0,1,249.2,108.68Z"/><path class="cls-3" d="M300.23,66.45l-0.36.13a1.1,1.1,0,0,1-1.45-.57l-3.08-8.39a1.1,1.1,0,0,1,.74-1.37l0.36-.13a1.1,1.1,0,0,1,1.45.57L301,65.08A1.1,1.1,0,0,1,300.23,66.45Zm-7.66,2.81-0.36.13a1.1,1.1,0,0,1-1.45-.57l-3.08-8.39a1.1,1.1,0,0,1,.74-1.37l0.36-.13a1.1,1.1,0,0,1,1.45.57l3.08,8.39A1.1,1.1,0,0,1,292.57,69.26Zm-7.66,2.81-0.36.13a1.1,1.1,0,0,1-1.45-.57L280,63.25a1.1,1.1,0,0,1,.74-1.37l0.36-.13a1.1,1.1,0,0,1,1.45.57l3.08,8.39A1.1,1.1,0,0,1,284.92,72.07Zm-7.66,2.81L276.9,75a1.1,1.1,0,0,1-1.45-.57l-3.08-8.39a1.1,1.1,0,0,1,.74-1.37l0.36-.13a1.1,1.1,0,0,1,1.45.57L278,73.52A1.1,1.1,0,0,1,277.26,74.89ZM262,80.51l-0.36.13a1.1,1.1,0,0,1-1.45-.57l-3.08-8.39a1.1,1.1,0,0,1,.74-1.37l0.36-.13a1.1,1.1,0,0,1,1.45.57l3.08,8.39A1.1,1.1,0,0,1,262,80.51Zm-7.66,2.81-0.36.13a1.1,1.1,0,0,1-1.45-.57L249.4,74.5a1.1,1.1,0,0,1,.74-1.37L250.5,73a1.1,1.1,0,0,1,1.45.57L255,82A1.1,1.1,0,0,1,254.3,83.32ZM239,88.95l-0.36.13a1.1,1.1,0,0,1-1.45-.57l-3.08-8.39a1.1,1.1,0,0,1,.74-1.37l0.36-.13a1.1,1.1,0,0,1,1.45.57l3.08,8.39A1.1,1.1,0,0,1,239,88.95Zm-7.66,2.81-0.36.13a1.1,1.1,0,0,1-1.45-.57l-3.08-8.39a1.1,1.1,0,0,1,.74-1.37l0.36-.13A1.1,1.1,0,0,1,229,82l3.08,8.39A1.1,1.1,0,0,1,231.33,91.76Z"/><path class="cls-3" d="M230.52,92.1A1.31,1.31,0,0,1,230,92a1.09,1.09,0,0,1-.64-0.64L226.32,83a1.09,1.09,0,0,1,.08-0.9,1.36,1.36,0,0,1,.74-0.63l0.36-.13a1.23,1.23,0,0,1,1.61.64l3.08,8.39a1.09,1.09,0,0,1-.08.9,1.36,1.36,0,0,1-.74.63L231,92A1.41,1.41,0,0,1,230.52,92.1ZM228,81.48a1.18,1.18,0,0,0-.4.07l-0.36.13a1.11,1.11,0,0,0-.6.51,0.85,0.85,0,0,0-.06.7l3.08,8.39a0.85,0.85,0,0,0,.5.49,1.12,1.12,0,0,0,.79,0l0.36-.13a1.11,1.11,0,0,0,.6-0.51,0.85,0.85,0,0,0,.06-0.7L228.87,82A0.92,0.92,0,0,0,228,81.48Zm10.19,7.81a1.31,1.31,0,0,1-.48-0.09,1.09,1.09,0,0,1-.64-0.64L234,80.17a1.09,1.09,0,0,1,.08-0.9,1.36,1.36,0,0,1,.74-0.63l0.36-.13a1.36,1.36,0,0,1,1,0,1.09,1.09,0,0,1,.64.64l3.08,8.39a1.23,1.23,0,0,1-.81,1.53l-0.36.13A1.41,1.41,0,0,1,238.17,89.29Zm-2.54-10.62a1.18,1.18,0,0,0-.4.07l-0.36.13a1.11,1.11,0,0,0-.6.51,0.85,0.85,0,0,0-.06.7l3.08,8.39a0.85,0.85,0,0,0,.5.49,1.12,1.12,0,0,0,.79,0l0.36-.13a1,1,0,0,0,.66-1.21l-3.08-8.39a0.85,0.85,0,0,0-.5-0.49A1.06,1.06,0,0,0,235.64,78.66Zm17.85,5a1.16,1.16,0,0,1-1.12-.73l-3.08-8.39a1.23,1.23,0,0,1,.81-1.53l0.37-.13a1.23,1.23,0,0,1,1.61.64l3.08,8.39a1.23,1.23,0,0,1-.81,1.53l-0.36.13A1.41,1.41,0,0,1,253.49,83.66ZM250.95,73a1.17,1.17,0,0,0-.4.07l-0.37.13a1,1,0,0,0-.66,1.21l3.08,8.39a1,1,0,0,0,1.29.49l0.36-.13a1,1,0,0,0,.66-1.21l-3.08-8.39A0.92,0.92,0,0,0,250.95,73Zm10.2,7.81a1.16,1.16,0,0,1-1.12-.73l-3.08-8.39a1.23,1.23,0,0,1,.81-1.53l0.36-.13a1.23,1.23,0,0,1,1.61.64l3.08,8.39a1.23,1.23,0,0,1-.81,1.53l-0.36.13A1.41,1.41,0,0,1,261.14,80.85ZM258.6,70.23a1.18,1.18,0,0,0-.4.07l-0.36.13a1,1,0,0,0-.66,1.21L260.26,80a1,1,0,0,0,1.29.49l0.36-.13a1,1,0,0,0,.66-1.21l-3.08-8.39A0.92,0.92,0,0,0,258.6,70.23Zm17.85,5a1.31,1.31,0,0,1-.48-0.09,1.09,1.09,0,0,1-.64-0.64l-3.08-8.39a1.09,1.09,0,0,1,.08-0.9,1.36,1.36,0,0,1,.74-0.63l0.36-.13a1.35,1.35,0,0,1,1,0,1.09,1.09,0,0,1,.64.64l3.08,8.39A1.23,1.23,0,0,1,277.3,75l-0.37.13A1.41,1.41,0,0,1,276.45,75.23ZM273.91,64.6a1.18,1.18,0,0,0-.4.07l-0.36.13a1.11,1.11,0,0,0-.6.51,0.85,0.85,0,0,0-.06.7l3.08,8.39a0.85,0.85,0,0,0,.5.49,1.12,1.12,0,0,0,.79,0l0.37-.13a1,1,0,0,0,.66-1.21l-3.08-8.39a0.85,0.85,0,0,0-.5-0.49A1.05,1.05,0,0,0,273.91,64.6Zm10.19,7.81a1.31,1.31,0,0,1-.48-0.09,1.09,1.09,0,0,1-.64-0.64l-3.08-8.39a1.09,1.09,0,0,1,.08-0.9,1.36,1.36,0,0,1,.74-0.63l0.36-.13a1.36,1.36,0,0,1,1,0,1.09,1.09,0,0,1,.64.64l3.08,8.39a1.23,1.23,0,0,1-.81,1.53l-0.36.13A1.41,1.41,0,0,1,284.11,72.41Zm-2.54-10.62a1.18,1.18,0,0,0-.4.07L280.8,62a1.11,1.11,0,0,0-.6.51,0.85,0.85,0,0,0-.06.7l3.08,8.39a0.85,0.85,0,0,0,.5.49,1.12,1.12,0,0,0,.79,0l0.36-.13a1,1,0,0,0,.66-1.21l-3.08-8.39a0.85,0.85,0,0,0-.5-0.49A1.06,1.06,0,0,0,281.57,61.79Zm10.19,7.81a1.31,1.31,0,0,1-.48-0.09,1.09,1.09,0,0,1-.64-0.64l-3.08-8.39a1.09,1.09,0,0,1,.08-0.9,1.36,1.36,0,0,1,.74-0.63l0.36-.13a1.35,1.35,0,0,1,1,0,1.09,1.09,0,0,1,.64.64l3.08,8.39a1.09,1.09,0,0,1-.08.9,1.36,1.36,0,0,1-.74.63l-0.36.13A1.41,1.41,0,0,1,291.76,69.6ZM289.22,59a1.18,1.18,0,0,0-.4.07l-0.36.13a1.11,1.11,0,0,0-.6.51,0.85,0.85,0,0,0-.06.7l3.08,8.39a0.85,0.85,0,0,0,.5.49,1.12,1.12,0,0,0,.79,0l0.36-.13a1.11,1.11,0,0,0,.6-0.51,0.85,0.85,0,0,0,.06-0.7l-3.08-8.39a0.85,0.85,0,0,0-.5-0.49A1.06,1.06,0,0,0,289.22,59Zm10.19,7.81a1.3,1.3,0,0,1-.48-0.09,1.09,1.09,0,0,1-.64-0.64l-3.08-8.39a1.23,1.23,0,0,1,.81-1.53l0.37-.13a1.36,1.36,0,0,1,1,0,1.09,1.09,0,0,1,.64.64L301.08,65a1.09,1.09,0,0,1-.08.9,1.36,1.36,0,0,1-.74.63l-0.36.13A1.42,1.42,0,0,1,299.42,66.79Zm-2.54-10.62a1.18,1.18,0,0,0-.4.07l-0.37.13a1,1,0,0,0-.66,1.21L298.53,66a0.85,0.85,0,0,0,.5.49,1.12,1.12,0,0,0,.79,0l0.36-.13a1.11,1.11,0,0,0,.6-0.51,0.85,0.85,0,0,0,.06-0.7l-3.08-8.39a0.85,0.85,0,0,0-.5-0.49A1.06,1.06,0,0,0,296.88,56.17Z"/><path class="cls-3" d="M230.84,136.56a14.91,14.91,0,0,1-14-9.76L200.27,81.59a14.88,14.88,0,0,1,8.84-19.1l88.75-32.6A14.88,14.88,0,0,1,317,38.73l16.61,45.21a14.9,14.9,0,0,1-8.84,19.1L236,135.64A14.89,14.89,0,0,1,230.84,136.56ZM303,32a11.87,11.87,0,0,0-4.1.74l-88.75,32.6a11.88,11.88,0,0,0-7.05,15.25l16.61,45.21a11.88,11.88,0,0,0,15.25,7.05l88.75-32.6A11.89,11.89,0,0,0,330.75,85L314.14,39.76A11.9,11.9,0,0,0,303,32Z"/><path class="cls-3" d="M232.42,126.66a8.68,8.68,0,0,1-8.14-5.68l-14.6-39.75a8.66,8.66,0,0,1,5.14-11.12L298.44,39.4a8.66,8.66,0,0,1,11.12,5.14l14.6,39.75A8.67,8.67,0,0,1,319,95.41L235.4,126.13A8.63,8.63,0,0,1,232.42,126.66Zm69-84.79a5.66,5.66,0,0,0-2,.35L215.86,72.94a5.66,5.66,0,0,0-3.36,7.27L227.09,120a5.67,5.67,0,0,0,7.27,3.36L318,92.6a5.67,5.67,0,0,0,3.36-7.27l-14.6-39.75A5.67,5.67,0,0,0,301.43,41.87Z"/><path class="cls-1" d="M114.08,150.41L40.4,134.79a1.54,1.54,0,0,1,.64-3l73.68,15.62A1.54,1.54,0,0,1,114.08,150.41Z"/><path class="cls-1" d="M101,158.46l-51.94-11a1.54,1.54,0,0,1,.64-3l51.94,11A1.54,1.54,0,1,1,101,158.46Z"/><path class="cls-1" d="M105.59,136.88l-51.94-11a1.54,1.54,0,0,1,.64-3l51.94,11A1.54,1.54,0,0,1,105.59,136.88Z"/><path class="cls-1" d="M71.4,168.26a6.28,6.28,0,0,1-1.49-.52L30.48,148.16a6.27,6.27,0,0,1-3.34-6.91l6.15-29a6.27,6.27,0,0,1,5.86-5l44-1.9a6.29,6.29,0,0,1,3,.64l40.19,19.76a6.26,6.26,0,0,1,3.36,6.92l-6.15,29a6.26,6.26,0,0,1-5.89,5h0l-44.75,1.76A6.24,6.24,0,0,1,71.4,168.26Zm12.67-59.75a3.19,3.19,0,0,0-.8-0.07l-44,1.9a3.19,3.19,0,0,0-3,2.52l-6.15,29a3.19,3.19,0,0,0,1.7,3.52L71.28,165a3.18,3.18,0,0,0,1.54.33l44.75-1.75a3.19,3.19,0,0,0,3-2.53l6.15-29a3.19,3.19,0,0,0-1.71-3.52L84.82,108.77A3.19,3.19,0,0,0,84.07,108.51Zm33.57,56.59h0Z"/><path class="cls-1" d="M69.9,175a6.69,6.69,0,0,1-1.68-.6l-45.3-23.39a7.29,7.29,0,0,1-3.64-8l7.55-35.62a7.29,7.29,0,0,1,6.58-5.87l50.89-3a6.69,6.69,0,0,1,3.43.72l46.16,23.59a7.28,7.28,0,0,1,3.66,8L130,166.49a7.29,7.29,0,0,1-6.61,5.87h0l-51.76,2.83A6.69,6.69,0,0,1,69.9,175ZM85.46,101.7a3.6,3.6,0,0,0-1-.07l-50.89,3A4.21,4.21,0,0,0,29.85,108L22.3,143.67a4.21,4.21,0,0,0,2,4.66l45.3,23.39a3.6,3.6,0,0,0,1.85.4l51.76-2.83a4.2,4.2,0,0,0,3.77-3.43l7.54-35.58a4.2,4.2,0,0,0-2.05-4.67L86.35,102A3.61,3.61,0,0,0,85.46,101.7Zm37.88,69.12h0Z"/><path class="cls-1" d="M84.22,114.39l0.19,1.8a1,1,0,0,0,.81.9L87,117.46a1,1,0,0,1,.21,1.94l-1.65.74a1,1,0,0,0-.6,1l0.19,1.8a1,1,0,0,1-1.78.79l-1.21-1.34a1,1,0,0,0-1.18-.25l-1.65.74A1,1,0,0,1,78,121.47l0.9-1.57a1,1,0,0,0-.13-1.2l-1.21-1.34a1,1,0,0,1,1-1.69L80.3,116a1,1,0,0,0,1.1-.49l0.9-1.57A1,1,0,0,1,84.22,114.39Z"/><path class="cls-2" d="M1036.42,138.37a44.19,44.19,0,1,1,19.73-4.7A44.19,44.19,0,0,1,1036.42,138.37Zm0-85.15a41,41,0,1,0,38.89,53.94h0A41,41,0,0,0,1036.41,53.22Z"/><path class="cls-2" d="M1036.35,130a35.77,35.77,0,1,1,34-24.5A35.62,35.62,0,0,1,1036.35,130Zm0-68.45a32.75,32.75,0,1,0,10.33,1.68A32.52,32.52,0,0,0,1036.35,61.55Z"/><path class="cls-2" d="M1056.53,86.62a1.55,1.55,0,0,1-.49-0.08l-30.82-10.23a1.55,1.55,0,1,1,1-2.95L1057,83.59A1.55,1.55,0,0,1,1056.53,86.62Z"/><path class="cls-2" d="M1055.84,110.26a1.55,1.55,0,0,1-.49-0.08l-43.72-14.52a1.55,1.55,0,1,1,1-2.95l43.72,14.52A1.55,1.55,0,0,1,1055.84,110.26Z"/><path class="cls-2" d="M1046.3,117.44a1.55,1.55,0,0,1-.49-0.08L1015,107.12a1.55,1.55,0,1,1,1-2.95l30.82,10.23A1.55,1.55,0,0,1,1046.3,117.44Z"/><path class="cls-2" d="M1059.09,101.73l-0.24-.08a0.82,0.82,0,0,1-.44-1.07l2.39-7.18a0.82,0.82,0,0,1,1-.59l0.24,0.08a0.82,0.82,0,0,1,.44,1.07l-2.39,7.18A0.82,0.82,0,0,1,1059.09,101.73Zm-5-1.67-0.24-.08a0.82,0.82,0,0,1-.44-1.07l2.39-7.18a0.82,0.82,0,0,1,1-.59l0.24,0.08a0.82,0.82,0,0,1,.44,1.07l-2.39,7.18A0.82,0.82,0,0,1,1054.07,100.06Zm-5-1.67-0.24-.08a0.82,0.82,0,0,1-.44-1.07l2.39-7.18a0.82,0.82,0,0,1,1-.59l0.24,0.08a0.82,0.82,0,0,1,.44,1.07L1050,97.8A0.82,0.82,0,0,1,1049.06,98.39Zm-5-1.67-0.24-.08a0.82,0.82,0,0,1-.44-1.07l2.39-7.18a0.82,0.82,0,0,1,1-.59l0.24,0.08a0.82,0.82,0,0,1,.44,1.07L1045,96.14A0.82,0.82,0,0,1,1044,96.73Zm-10-3.33-0.24-.08a0.82,0.82,0,0,1-.44-1.07l2.39-7.18a0.82,0.82,0,0,1,1-.59l0.24,0.08a0.82,0.82,0,0,1,.44,1.07L1035,92.8A0.82,0.82,0,0,1,1034,93.39Zm-5-1.67-0.24-.08a0.82,0.82,0,0,1-.44-1.07l2.39-7.18a0.82,0.82,0,0,1,1-.59l0.24,0.08a0.82,0.82,0,0,1,.44,1.07L1030,91.14A0.82,0.82,0,0,1,1029,91.73Zm-10-3.33-0.24-.08a0.82,0.82,0,0,1-.44-1.07l2.39-7.18a0.82,0.82,0,0,1,1-.59l0.24,0.08a0.82,0.82,0,0,1,.44,1.07l-2.39,7.18A0.82,0.82,0,0,1,1019,88.4Zm-5-1.67-0.24-.08a0.82,0.82,0,0,1-.44-1.07l2.39-7.18a0.82,0.82,0,0,1,1-.59l0.24,0.08a0.82,0.82,0,0,1,.44,1.07l-2.39,7.18A0.82,0.82,0,0,1,1013.94,86.73Z"/><path class="cls-2" d="M1059.3,101.89a0.79,0.79,0,0,1-.25,0l-0.24-.08a1,1,0,0,1-.52-1.23l2.39-7.18a1,1,0,0,1,1.16-.67l0.24,0.08a1,1,0,0,1,.52,1.23l-2.39,7.18a1.07,1.07,0,0,1-.46.59A0.86,0.86,0,0,1,1059.3,101.89Zm-0.17-.29a0.57,0.57,0,0,0,.48-0.06,0.81,0.81,0,0,0,.35-0.45l2.39-7.18A0.69,0.69,0,0,0,1062,93l-0.24-.08a0.7,0.7,0,0,0-.83.51l-2.38,7.18a0.69,0.69,0,0,0,.36.9Zm-4.85-1.38a0.78,0.78,0,0,1-.25,0l-0.24-.08a1,1,0,0,1-.52-1.23l2.39-7.18a1.07,1.07,0,0,1,.46-0.59,0.83,0.83,0,0,1,.69-0.09l0.24,0.08a1,1,0,0,1,.52,1.23l-2.39,7.18A1,1,0,0,1,1054.28,100.22Zm-0.17-.29a0.7,0.7,0,0,0,.83-0.51l2.38-7.18a0.69,0.69,0,0,0-.36-0.9l-0.24-.08a0.58,0.58,0,0,0-.48.06,0.81,0.81,0,0,0-.35.45L1053.52,99a0.69,0.69,0,0,0,.36.9Zm-4.85-1.38a0.79,0.79,0,0,1-.25,0l-0.24-.08a1,1,0,0,1-.52-1.23l2.38-7.18a1,1,0,0,1,1.15-.67l0.24,0.08a0.83,0.83,0,0,1,.51.48,1.07,1.07,0,0,1,0,.75l-2.38,7.18a1.07,1.07,0,0,1-.46.59A0.86,0.86,0,0,1,1049.27,98.56Zm-0.17-.29a0.57,0.57,0,0,0,.48-0.06,0.8,0.8,0,0,0,.35-0.45l2.39-7.18a0.81,0.81,0,0,0,0-.57,0.58,0.58,0,0,0-.35-0.34l-0.24-.08a0.69,0.69,0,0,0-.83.51l-2.38,7.18a0.69,0.69,0,0,0,.36.9Zm-4.85-1.38a0.78,0.78,0,0,1-.25,0l-0.24-.08a1,1,0,0,1-.52-1.23l2.39-7.18a1.07,1.07,0,0,1,.46-0.59,0.82,0.82,0,0,1,.69-0.09l0.24,0.08a1,1,0,0,1,.52,1.23l-2.39,7.18A1,1,0,0,1,1044.25,96.89Zm-0.17-.29a0.69,0.69,0,0,0,.83-0.51l2.38-7.18a0.69,0.69,0,0,0-.36-0.9l-0.24-.08a0.58,0.58,0,0,0-.48.06,0.81,0.81,0,0,0-.35.45l-2.39,7.18a0.69,0.69,0,0,0,.36.9Zm-9.86-3a0.79,0.79,0,0,1-.25,0l-0.24-.08a1,1,0,0,1-.52-1.23l2.39-7.18a1.07,1.07,0,0,1,.46-0.59,0.83,0.83,0,0,1,.69-0.09l0.24,0.08a1,1,0,0,1,.52,1.23l-2.39,7.18a1.07,1.07,0,0,1-.46.59A0.87,0.87,0,0,1,1034.22,93.56Zm-0.17-.29a0.57,0.57,0,0,0,.48-0.06,0.8,0.8,0,0,0,.35-0.45l2.39-7.18a0.69,0.69,0,0,0-.36-0.9l-0.24-.08a0.58,0.58,0,0,0-.48.06,0.8,0.8,0,0,0-.35.45l-2.39,7.18a0.69,0.69,0,0,0,.36.9Zm-4.85-1.38a0.78,0.78,0,0,1-.25,0l-0.24-.08a0.83,0.83,0,0,1-.51-0.48,1.07,1.07,0,0,1,0-.75l2.38-7.18a1.07,1.07,0,0,1,.46-0.59,0.82,0.82,0,0,1,.69-0.09l0.24,0.08a0.83,0.83,0,0,1,.48.42,1.07,1.07,0,0,1,0,.81l-2.38,7.18a1.07,1.07,0,0,1-.46.59A0.86,0.86,0,0,1,1029.2,91.89Zm2.28-9a0.61,0.61,0,0,0-.31.09,0.8,0.8,0,0,0-.35.45l-2.39,7.18a0.81,0.81,0,0,0,0,.57,0.58,0.58,0,0,0,.35.34l0.24,0.08a0.57,0.57,0,0,0,.48-0.06,0.81,0.81,0,0,0,.35-0.45l2.38-7.18a0.81,0.81,0,0,0,0-.61,0.57,0.57,0,0,0-.33-0.29l-0.24-.08Zm-12.31,5.65a0.77,0.77,0,0,1-.25,0l-0.24-.08a0.83,0.83,0,0,1-.48-0.42,1.07,1.07,0,0,1,0-.81l2.38-7.18a1.07,1.07,0,0,1,.46-0.59,0.82,0.82,0,0,1,.69-0.09l0.24,0.08a1,1,0,0,1,.52,1.23l-2.39,7.18A1,1,0,0,1,1019.16,88.56Zm2.28-9a0.61,0.61,0,0,0-.31.09,0.81,0.81,0,0,0-.35.45l-2.38,7.18a0.81,0.81,0,0,0,0,.61,0.57,0.57,0,0,0,.33.29l0.24,0.08a0.69,0.69,0,0,0,.83-0.51l2.38-7.18a0.69,0.69,0,0,0-.36-0.9l-0.24-.08Zm-7.29,7.32a0.79,0.79,0,0,1-.25,0l-0.24-.08a1,1,0,0,1-.52-1.23l2.38-7.18a1,1,0,0,1,1.16-.67l0.24,0.08a1,1,0,0,1,.52,1.23l-2.39,7.18a1.07,1.07,0,0,1-.46.59A0.87,0.87,0,0,1,1014.15,86.89Zm-0.17-.29a0.57,0.57,0,0,0,.48-0.06,0.81,0.81,0,0,0,.35-0.45l2.39-7.18a0.7,0.7,0,0,0-.36-0.9l-0.24-.08a0.7,0.7,0,0,0-.83.51l-2.38,7.18a0.69,0.69,0,0,0,.36.9Z"/><path class="cls-4" d="M954,86.44L879.92,73a1.54,1.54,0,1,1,.55-3l74.11,13.4A1.54,1.54,0,1,1,954,86.44Z"/><path class="cls-4" d="M941.22,94.88L889,85.44a1.54,1.54,0,1,1,.55-3l52.24,9.44A1.54,1.54,0,1,1,941.22,94.88Z"/><path class="cls-4" d="M945.14,73.17L892.9,63.73a1.54,1.54,0,1,1,.55-3l52.24,9.44A1.54,1.54,0,0,1,945.14,73.17Z"/><path class="cls-4" d="M911.92,105.57a6.28,6.28,0,0,1-1.5-.47l-40-18.39a6.27,6.27,0,0,1-3.55-6.81l5.28-29.19a6.27,6.27,0,0,1,5.71-5.14l43.91-3.22a6.29,6.29,0,0,1,3.05.55l40.76,18.54a6.26,6.26,0,0,1,3.57,6.82l-5.27,29.16a6.26,6.26,0,0,1-5.73,5.14h0l-44.68,3.1A6.24,6.24,0,0,1,911.92,105.57Zm10.86-60.11a3.19,3.19,0,0,0-.8,0l-43.91,3.22a3.19,3.19,0,0,0-2.9,2.61l-5.28,29.19a3.19,3.19,0,0,0,1.81,3.46l40,18.39a3.18,3.18,0,0,0,1.55.28l44.68-3.1a3.19,3.19,0,0,0,2.92-2.61l5.27-29.16a3.19,3.19,0,0,0-1.82-3.47L923.54,45.7A3.19,3.19,0,0,0,922.78,45.46ZM958,101h0Z"/><path class="cls-4" d="M910.62,112.39a6.69,6.69,0,0,1-1.7-.55l-46-22a7.29,7.29,0,0,1-3.88-7.92l6.48-35.83A7.29,7.29,0,0,1,872,40l50.78-4.52a6.69,6.69,0,0,1,3.45.62L973,58.31a7.28,7.28,0,0,1,3.9,7.93L970.47,102A7.29,7.29,0,0,1,964,108.1h0l-51.66,4.38A6.69,6.69,0,0,1,910.62,112.39ZM924,38.61a3.6,3.6,0,0,0-1,0l-50.78,4.52a4.21,4.21,0,0,0-3.65,3.54L862.1,82.46a4.21,4.21,0,0,0,2.18,4.6l46,22a3.6,3.6,0,0,0,1.86.34L963.77,105a4.2,4.2,0,0,0,3.66-3.54l6.47-35.79a4.2,4.2,0,0,0-2.19-4.6L924.86,38.9A3.61,3.61,0,0,0,924,38.61Zm39.94,67.95h0Z"/><path class="cls-4" d="M923.1,51.34l0.24,1.79a1,1,0,0,0,.83.87L926,54.32a1,1,0,0,1,.26,1.93L924.6,57a1,1,0,0,0-.57,1.06l0.24,1.79a1,1,0,0,1-1.76.85l-1.25-1.31a1,1,0,0,0-1.19-.21l-1.63.79a1,1,0,0,1-1.35-1.41L918,57a1,1,0,0,0-.16-1.2l-1.25-1.31a1,1,0,0,1,.92-1.72l1.78,0.32a1,1,0,0,0,1.09-.52L921.18,51A1,1,0,0,1,923.1,51.34Z"/><path class="cls-3" d="M1132.65,175.56a31.44,31.44,0,1,1,22.24-38.5A31.47,31.47,0,0,1,1132.65,175.56Zm-15.48-57.84A28.44,28.44,0,1,0,1152,137.84,28.47,28.47,0,0,0,1117.17,117.72Z"/><path class="cls-3" d="M1129.47,184.77a13.32,13.32,0,0,1-10.25-1.46,12.94,12.94,0,0,1-13.95-4.8,12.94,12.94,0,0,1-11.12-9.68,13.51,13.51,0,0,1-6.78-13.69,13.51,13.51,0,0,1-1-15.24,12.94,12.94,0,0,1,4.8-13.95,12.94,12.94,0,0,1,9.68-11.12,13.5,13.5,0,0,1,13.69-6.78,13.51,13.51,0,0,1,15.24-1,12.94,12.94,0,0,1,13.95,4.8,12.94,12.94,0,0,1,11.12,9.68,13.51,13.51,0,0,1,6.78,13.69,13.51,13.51,0,0,1,1,15.24,12.94,12.94,0,0,1-4.8,13.94,12.94,12.94,0,0,1-9.68,11.12,13.51,13.51,0,0,1-13.69,6.78A15.25,15.25,0,0,1,1129.47,184.77Zm-10.42-4.53a1.5,1.5,0,0,1,1.19.18c4.22,2.65,8.79,2.36,12.88-.82a1.5,1.5,0,0,1,1.13-.3c5.13,0.71,9.24-1.32,11.57-5.72a1.49,1.49,0,0,1,1-.76,10,10,0,0,0,8.13-9.34,1.5,1.5,0,0,1,.62-1.08,10.07,10.07,0,0,0,4-11.71,1.5,1.5,0,0,1,.17-1.22c2.65-4.22,2.36-8.79-.83-12.88a1.51,1.51,0,0,1-.3-1.13c0.71-5.13-1.32-9.24-5.72-11.57a1.5,1.5,0,0,1-.76-1,10.07,10.07,0,0,0-9.34-8.13,1.5,1.5,0,0,1-1.08-.62,10,10,0,0,0-11.41-4.11l-0.3.08a1.49,1.49,0,0,1-1.22-.17c-4.22-2.65-8.79-2.36-12.88.83a1.5,1.5,0,0,1-1.13.3c-5.13-.71-9.24,1.32-11.57,5.72a1.62,1.62,0,0,1-1,.76,10,10,0,0,0-8.13,9.34,1.5,1.5,0,0,1-.62,1.08,10.07,10.07,0,0,0-4,11.71,1.5,1.5,0,0,1-.17,1.22c-2.65,4.22-2.36,8.79.82,12.88a1.51,1.51,0,0,1,.3,1.13c-0.71,5.13,1.32,9.24,5.72,11.57a1.5,1.5,0,0,1,.76,1,10.07,10.07,0,0,0,9.34,8.13,1.5,1.5,0,0,1,1.08.62,10,10,0,0,0,11.41,4.11l0.3-.08h0Z"/><path class="cls-3" d="M1117.89,142.14h0a1,1,0,0,1-1.24-.71l-1.78-6.66a1,1,0,0,1,.71-1.24h0a1,1,0,0,1,1.24.71l1.78,6.66A1,1,0,0,1,1117.89,142.14Zm-3.72,1h0a1,1,0,0,1-1.24-.71l-1.78-6.66a1,1,0,0,1,.71-1.24h0a1,1,0,0,1,1.24.71l1.78,6.66A1,1,0,0,1,1114.17,143.14Z"/><path class="cls-3" d="M1132.45,138.25h0a1,1,0,0,1-1.24-.71l-1.78-6.66a1,1,0,0,1,.71-1.24h0a1,1,0,0,1,1.24.71l1.78,6.66A1,1,0,0,1,1132.45,138.25Zm-3.72,1h0a1,1,0,0,1-1.24-.71l-1.78-6.66a1,1,0,0,1,.71-1.24h0a1,1,0,0,1,1.24.71l1.78,6.66A1,1,0,0,1,1128.73,139.24Z"/><circle class="cls-3" cx="1122.16" cy="136.39" r="1.32" transform="translate(2.9 294.82) rotate(-14.99)"/><path class="cls-3" d="M1139.83,161.62l-20.36,5.45a1.5,1.5,0,1,1-.78-2.9l20.36-5.45A1.5,1.5,0,0,1,1139.83,161.62Z"/><path class="cls-3" d="M1130,124.91l-20.36,5.45a1.5,1.5,0,0,1-.78-2.9l20.36-5.45A1.5,1.5,0,0,1,1130,124.91Z"/><path class="cls-3" d="M1143.54,154.44l-30.87,8.26a1.5,1.5,0,0,1-.78-2.9l30.87-8.26A1.5,1.5,0,1,1,1143.54,154.44Z"/><path class="cls-3" d="M1148.16,143.29l-45.06,12.06a1.5,1.5,0,0,1-.78-2.9l45.06-12.06A1.5,1.5,0,0,1,1148.16,143.29Z"/><path class="cls-3" d="M1104.57,138.42l0.61,1a0.67,0.67,0,0,0,.72.31l1.15-.27a0.67,0.67,0,0,1,.66,1.09l-0.77.89a0.67,0.67,0,0,0-.07.78l0.61,1a0.67,0.67,0,0,1-.83,1l-1.08-.46a0.67,0.67,0,0,0-.77.18l-0.77.89a0.67,0.67,0,0,1-1.17-.49l0.1-1.17a0.67,0.67,0,0,0-.41-0.67l-1.08-.46a0.67,0.67,0,0,1,.11-1.27l1.15-.27a0.67,0.67,0,0,0,.51-0.59l0.1-1.17A0.67,0.67,0,0,1,1104.57,138.42Z"/><path class="cls-3" d="M1139.78,129l0.61,1a0.67,0.67,0,0,0,.72.31l1.15-.27a0.67,0.67,0,0,1,.66,1.09l-0.77.89a0.67,0.67,0,0,0-.07.78l0.61,1a0.67,0.67,0,0,1-.83,1l-1.08-.46a0.67,0.67,0,0,0-.77.18l-0.77.89a0.67,0.67,0,0,1-1.17-.49l0.1-1.17a0.67,0.67,0,0,0-.41-0.67l-1.08-.46a0.67,0.67,0,0,1,.11-1.27l1.15-.27a0.67,0.67,0,0,0,.51-0.59l0.1-1.17A0.67,0.67,0,0,1,1139.78,129Z"/><ellipse class="cls-5" cx="344.97" cy="158.06" rx="68.5" ry="41" transform="translate(-25.78 77.22) rotate(-12.32)"/><ellipse class="cls-5" cx="344.97" cy="158.06" rx="56.5" ry="30.04" transform="translate(-25.78 77.22) rotate(-12.32)"/><path class="cls-6" d="M302.54,159.72c3.62-8.54,16.76-17.16,33.92-21.7q2-.53,4.07-1t4.23-.83c17.34-3,32.76-.66,39.64,5.51"/><path class="cls-6" d="M333.17,180.88A88.88,88.88,0,0,0,344.7,180q2-.3,4.13-0.69t4.22-.9a88.2,88.2,0,0,0,11.78-3.65"/><line class="cls-6" x1="325.66" y1="156.01" x2="361.92" y2="148.6"/><line class="cls-6" x1="311.1" y1="170.48" x2="380.99" y2="156.21"/><rect class="cls-7" x="137.59" y="143.03" width="68.6" height="68.6" rx="1.6" ry="1.6" transform="translate(-13.63 14.32) rotate(-4.59)"/><path class="cls-8" d="M119.61,161.92s14.7-13.14,26.44-2.12,24.35-2,24.35-2"/><path class="cls-8" d="M120.26,170s14.7-13.14,26.44-2.12,24.35-2,24.35-2"/><line class="cls-9" x1="148.79" y1="192.82" x2="197.17" y2="188.94"/><line class="cls-9" x1="152.34" y1="200.99" x2="194.97" y2="197.57"/><line class="cls-9" x1="181.75" y1="153.9" x2="182.71" y2="165.9"/><line class="cls-9" x1="189.75" y1="153.26" x2="190.71" y2="165.25"/><line class="cls-9" x1="184.53" y1="173.56" x2="184.94" y2="178.62"/><line class="cls-9" x1="189.03" y1="173.2" x2="189.44" y2="178.25"/><line class="cls-9" x1="193.41" y1="172.85" x2="193.82" y2="177.9"/><line class="cls-9" x1="197.91" y1="172.48" x2="198.32" y2="177.54"/><line class="cls-9" x1="172.76" y1="174.5" x2="173.16" y2="179.56"/><line class="cls-9" x1="177.25" y1="174.14" x2="177.66" y2="179.2"/><path class="cls-10" d="M936.54,156.86a1.5,1.5,0,0,0,.78,2.85l70.77-6.5a1.5,1.5,0,0,0-.27-3l-70.77,6.5A1.5,1.5,0,0,0,936.54,156.86Z"/><path class="cls-10" d="M945.93,144.35a1.5,1.5,0,0,0,.78,2.85l49.89-4.58a1.5,1.5,0,0,0-.27-3l-49.89,4.58A1.5,1.5,0,0,0,945.93,144.35Z"/><path class="cls-10" d="M1011.39,161.51l0.82,8.9a1.1,1.1,0,0,1-1.07,1.13l-0.39,0a1.1,1.1,0,0,1-1.25-.92l-0.82-8.9a1.1,1.1,0,0,1,1.07-1.13l0.39,0A1.1,1.1,0,0,1,1011.39,161.51Zm-8.12.75,0.82,8.9a1.1,1.1,0,0,1-1.07,1.13l-0.39,0a1.1,1.1,0,0,1-1.25-.92l-0.82-8.9a1.1,1.1,0,0,1,1.07-1.13l0.39,0A1.1,1.1,0,0,1,1003.27,162.25Zm-8.12.75,0.82,8.9A1.1,1.1,0,0,1,994.9,173l-0.39,0a1.1,1.1,0,0,1-1.25-.92l-0.82-8.9a1.1,1.1,0,0,1,1.07-1.13l0.39,0A1.1,1.1,0,0,1,995.15,163Zm-8.12.75,0.82,8.9a1.1,1.1,0,0,1-1.07,1.13l-0.39,0a1.1,1.1,0,0,1-1.25-.92l-0.82-8.9a1.1,1.1,0,0,1,1.07-1.13l0.39,0A1.1,1.1,0,0,1,987,163.75Zm-16.24,1.49,0.82,8.9a1.1,1.1,0,0,1-1.07,1.13l-0.39,0a1.1,1.1,0,0,1-1.25-.92l-0.82-8.9a1.1,1.1,0,0,1,1.07-1.13l0.39,0A1.1,1.1,0,0,1,970.79,165.24Zm-8.12.75,0.82,8.9a1.1,1.1,0,0,1-1.07,1.13l-0.39,0a1.1,1.1,0,0,1-1.25-.92l-0.82-8.9A1.1,1.1,0,0,1,961,165.1l0.39,0A1.1,1.1,0,0,1,962.67,166Zm-16.24,1.49,0.82,8.9a1.1,1.1,0,0,1-1.07,1.13l-0.39,0a1.1,1.1,0,0,1-1.25-.92l-0.82-8.9a1.1,1.1,0,0,1,1.07-1.13l0.39,0A1.1,1.1,0,0,1,946.42,167.47Zm-8.12.75,0.82,8.9a1.1,1.1,0,0,1-1.07,1.13l-0.39,0a1.1,1.1,0,0,1-1.25-.92l-0.82-8.9a1.1,1.1,0,0,1,1.07-1.13l0.39,0A1.1,1.1,0,0,1,938.3,168.22Z"/><path class="cls-10" d="M936.65,167.21l0.39,0a1.36,1.36,0,0,1,.93.25,1.09,1.09,0,0,1,.46.78l0.82,8.9a1.23,1.23,0,0,1-1.18,1.27l-0.39,0a1.36,1.36,0,0,1-.93-0.25,1.09,1.09,0,0,1-.46-0.78l-0.82-8.9a1.09,1.09,0,0,1,.31-0.85,1.31,1.31,0,0,1,.39-0.28A1.41,1.41,0,0,1,936.65,167.21Zm2.35,9.92-0.82-8.9a0.85,0.85,0,0,0-.36-0.61,1.11,1.11,0,0,0-.76-0.2l-0.39,0a1.12,1.12,0,0,0-.71.34,0.85,0.85,0,0,0-.24.66l0.82,8.9a0.85,0.85,0,0,0,.36.61,1.11,1.11,0,0,0,.76.2l0.39,0a1.18,1.18,0,0,0,.39-0.11A0.92,0.92,0,0,0,939,177.13Zm5.78-10.67,0.39,0a1.23,1.23,0,0,1,1.39,1l0.82,8.9a1.09,1.09,0,0,1-.31.85,1.36,1.36,0,0,1-.87.41l-0.39,0a1.36,1.36,0,0,1-.93-0.25,1.09,1.09,0,0,1-.46-0.78l-0.82-8.9a1.09,1.09,0,0,1,.31-0.85,1.31,1.31,0,0,1,.39-0.28A1.41,1.41,0,0,1,944.77,166.47ZM946.88,177a0.85,0.85,0,0,0,.24-0.66l-0.82-8.9a1,1,0,0,0-1.12-.81l-0.39,0a1.12,1.12,0,0,0-.71.34,0.85,0.85,0,0,0-.24.66l0.82,8.9a0.85,0.85,0,0,0,.36.61,1.11,1.11,0,0,0,.76.2l0.39,0a1.18,1.18,0,0,0,.4-0.11A1.06,1.06,0,0,0,946.88,177ZM961,165l0.39,0a1.23,1.23,0,0,1,1.39,1l0.82,8.9a1.23,1.23,0,0,1-1.18,1.27l-0.39,0a1.23,1.23,0,0,1-1.39-1l-0.82-8.9a1.16,1.16,0,0,1,.7-1.14A1.41,1.41,0,0,1,961,165Zm2.35,9.92-0.82-8.9a1,1,0,0,0-1.12-.81l-0.39,0a1,1,0,0,0-1,1l0.82,8.9a1,1,0,0,0,1.12.81l0.39,0a1.17,1.17,0,0,0,.39-0.11A0.92,0.92,0,0,0,963.36,174.9Zm5.78-10.67,0.39,0a1.23,1.23,0,0,1,1.39,1l0.82,8.9a1.23,1.23,0,0,1-1.18,1.27l-0.39,0a1.23,1.23,0,0,1-1.39-1L968,165.5a1.16,1.16,0,0,1,.7-1.14A1.41,1.41,0,0,1,969.13,164.23Zm2.35,9.92-0.82-8.9a1,1,0,0,0-1.12-.81l-0.39,0a1,1,0,0,0-1,1l0.82,8.9a1,1,0,0,0,1.12.81l0.39,0a1.18,1.18,0,0,0,.39-0.11A0.92,0.92,0,0,0,971.48,174.15Zm13.9-11.41,0.39,0a1.23,1.23,0,0,1,1.39,1l0.82,8.9a1.09,1.09,0,0,1-.31.85,1.35,1.35,0,0,1-.87.41l-0.39,0a1.36,1.36,0,0,1-.93-0.25,1.09,1.09,0,0,1-.46-0.78L984.2,164a1.09,1.09,0,0,1,.31-0.85,1.31,1.31,0,0,1,.39-0.28A1.41,1.41,0,0,1,985.38,162.74Zm2.11,10.58a0.85,0.85,0,0,0,.24-0.66l-0.82-8.9a1,1,0,0,0-1.12-.81l-0.39,0a1.12,1.12,0,0,0-.71.34,0.85,0.85,0,0,0-.24.66l0.82,8.9a0.85,0.85,0,0,0,.36.61,1.11,1.11,0,0,0,.76.2l0.39,0a1.18,1.18,0,0,0,.4-0.11A1.05,1.05,0,0,0,987.48,173.32Zm6-11.33,0.39,0a1.23,1.23,0,0,1,1.39,1l0.82,8.9a1.09,1.09,0,0,1-.31.85,1.36,1.36,0,0,1-.87.41l-0.39,0a1.36,1.36,0,0,1-.93-0.25,1.09,1.09,0,0,1-.46-0.78l-0.82-8.9a1.09,1.09,0,0,1,.31-0.85,1.31,1.31,0,0,1,.39-0.28A1.41,1.41,0,0,1,993.5,162Zm2.11,10.58a0.85,0.85,0,0,0,.24-0.66L995,163a1,1,0,0,0-1.12-.81l-0.39,0a1.12,1.12,0,0,0-.71.34,0.85,0.85,0,0,0-.24.66l0.82,8.9a0.85,0.85,0,0,0,.36.61,1.11,1.11,0,0,0,.76.2l0.39,0a1.18,1.18,0,0,0,.4-0.11A1.06,1.06,0,0,0,995.6,172.57Zm6-11.33,0.39,0a1.36,1.36,0,0,1,.93.25,1.09,1.09,0,0,1,.46.78l0.82,8.9a1.09,1.09,0,0,1-.31.85,1.35,1.35,0,0,1-.87.41l-0.39,0a1.36,1.36,0,0,1-.93-0.25,1.09,1.09,0,0,1-.46-0.78l-0.82-8.9a1.09,1.09,0,0,1,.31-0.85,1.31,1.31,0,0,1,.39-0.28A1.41,1.41,0,0,1,1001.62,161.24Zm2.11,10.58a0.85,0.85,0,0,0,.24-0.66l-0.82-8.9a0.85,0.85,0,0,0-.36-0.61,1.11,1.11,0,0,0-.76-0.2l-0.39,0a1.12,1.12,0,0,0-.71.34,0.85,0.85,0,0,0-.24.66l0.82,8.9a0.85,0.85,0,0,0,.36.61,1.11,1.11,0,0,0,.76.2l0.39,0a1.18,1.18,0,0,0,.4-0.11A1.06,1.06,0,0,0,1003.73,171.83Zm6-11.33,0.39,0a1.36,1.36,0,0,1,.93.25,1.09,1.09,0,0,1,.46.78l0.82,8.9a1.09,1.09,0,0,1-.31.85,1.36,1.36,0,0,1-.87.41l-0.39,0a1.23,1.23,0,0,1-1.39-1l-0.82-8.9a1.09,1.09,0,0,1,.31-0.85,1.3,1.3,0,0,1,.39-0.28A1.42,1.42,0,0,1,1009.74,160.5Zm2.11,10.58a0.85,0.85,0,0,0,.24-0.66l-0.82-8.9a0.85,0.85,0,0,0-.36-0.61,1.11,1.11,0,0,0-.76-0.2l-0.39,0a1.12,1.12,0,0,0-.71.34,0.85,0.85,0,0,0-.24.66l0.82,8.9a1,1,0,0,0,1.12.81l0.39,0a1.18,1.18,0,0,0,.4-0.11A1.06,1.06,0,0,0,1011.85,171.08Z"/><path class="cls-10" d="M922.41,125.67l94.15-8.65a14.9,14.9,0,0,1,16.18,13.46l4.41,48a14.88,14.88,0,0,1-13.46,16.18l-94.15,8.65a14.88,14.88,0,0,1-16.18-13.46l-4.41-48A14.85,14.85,0,0,1,922.41,125.67Zm109.05,61.73a11.8,11.8,0,0,0,2.7-8.68l-4.41-48A11.89,11.89,0,0,0,1016.84,120l-94.15,8.65a11.88,11.88,0,0,0-10.74,12.92l4.41,48a11.88,11.88,0,0,0,12.92,10.74l94.15-8.65A11.8,11.8,0,0,0,1031.46,187.4Z"/><path class="cls-10" d="M926,134.51l88.71-8.15a8.67,8.67,0,0,1,9.42,7.83l3.87,42.17a8.66,8.66,0,0,1-7.83,9.42l-88.71,8.15A8.66,8.66,0,0,1,922,186.1l-3.87-42.17A8.66,8.66,0,0,1,926,134.51Zm97.72,46.27a5.62,5.62,0,0,0,1.28-4.14l-3.87-42.17a5.67,5.67,0,0,0-6.16-5.12l-88.71,8.15a5.67,5.67,0,0,0-5.12,6.16L925,185.82a5.66,5.66,0,0,0,6.16,5.12l88.71-8.15A5.62,5.62,0,0,0,1023.69,180.78Z"/></svg>