<?xml version="1.0" encoding="UTF-8"?>
<svg width="250px" height="250px" viewBox="0 0 250 250" version="1.1" xmlns="http://www.w3.org/2000/svg" xmlns:xlink="http://www.w3.org/1999/xlink">
    <!-- Generator: Sketch 41.2 (35397) - http://www.bohemiancoding.com/sketch -->
    <title>add_on</title>
    <desc>Created with Sketch.</desc>
    <defs>
        <linearGradient x1="50%" y1="0%" x2="50%" y2="100%" id="linearGradient-1">
            <stop stop-color="#FCC397" offset="0%"></stop>
            <stop stop-color="#FC9F95" offset="16.0654496%"></stop>
            <stop stop-color="#F77C88" offset="30.0482302%"></stop>
            <stop stop-color="#F25192" offset="42.703683%"></stop>
            <stop stop-color="#D34CA3" offset="56.3317124%"></stop>
            <stop stop-color="#9A50A5" offset="69.1147162%"></stop>
            <stop stop-color="#59569E" offset="83.848852%"></stop>
            <stop stop-color="#39477F" offset="100%"></stop>
        </linearGradient>
    </defs>
    <g id="Page-1" stroke="none" stroke-width="1" fill="none" fill-rule="evenodd">
        <g id="add_on">
            <rect id="Rectangle-2" stroke="#9A9BA5" stroke-width="4" x="13" y="168" width="107" height="65" rx="4"></rect>
            <rect id="Rectangle-2-Copy" stroke="#1D2340" stroke-width="4" x="130" y="168" width="107" height="65" rx="4"></rect>
            <rect id="Rectangle-2-Copy-5" stroke="#9A9BA5" stroke-width="4" x="130" y="18" width="107" height="65" rx="4"></rect>
            <rect id="Rectangle-2-Copy-6" stroke="#9A9BA5" stroke-width="4" x="13" y="18" width="107" height="65" rx="4"></rect>
            <rect id="Rectangle-2-Copy-3" stroke="#9A9BA5" stroke-width="4" x="73" y="93" width="107" height="65" rx="4"></rect>
            <rect id="Rectangle-2-Copy-2" stroke="#9A9BA5" stroke-width="4" x="190" y="93" width="48" height="65" rx="4"></rect>
            <rect id="Rectangle-2-Copy-4" stroke="#9A9BA5" stroke-width="4" x="15" y="93" width="48" height="65" rx="4"></rect>
            <g id="ROS-Copy" transform="translate(167.000000, 178.000000)" fill="url(#linearGradient-1)">
                <path d="M12.0182606,12.5766631 C10.0120319,13.8434393 7.8541457,14.8824161 5.69578995,15.7058658 C4.94072335,15.9939367 4.24079001,16.2340629 3.6148232,16.4281852 C3.24493382,16.5428938 2.9860973,16.6157706 2.85708247,16.6488712 C2.42468899,16.7834707 2.13720498,16.8884234 1.92243566,16.9873055 C1.76776262,17.0585186 1.63766382,17.1310819 1.51410932,17.2258922 C1.08552807,17.5547661 0.800004181,18.0085867 1.06930952,18.7080307 C1.28923652,19.2792288 1.65807917,19.4518453 2.11790836,19.5281105 C2.25931073,19.5515629 2.40178087,19.5577194 2.56394886,19.5537631 C2.8038218,19.5479108 3.11171509,19.5174506 3.49039469,19.4639895 L24.3318011,16.5503518 C17.015761,20.6766505 2.38842683,28.9368555 2.38842683,28.9368555 C-0.0226852524,30.2984351 0.753098236,32.5106003 3.49039469,32.1241555 L23.5326714,29.3201596 C21.3810494,30.5324316 19.2510767,31.8692422 17.2399047,33.3111794 C12.9793646,36.3658316 9.72832156,39.5464162 7.88490904,42.822929 L10.082161,44.0227724 C11.7148597,41.120786 14.7273383,38.1735957 18.7181412,35.3123352 C20.9684154,33.6989704 23.3856231,32.2151044 25.8032995,30.8971056 C26.6495373,30.4357781 27.4346821,30.0285091 28.1380779,29.6795813 C28.5569144,29.4718126 28.8530535,29.3307243 29.0058927,29.2605336 C31.5302936,27.9837045 30.800247,25.7683531 28.0315701,26.1592282 L7.1505131,29.0997436 C7.15104102,29.1001028 29.1335379,16.6863623 29.1335379,16.6863623 C31.5251566,15.3357908 30.7969876,13.1086473 28.0315701,13.4990622 L11.4178383,15.810298 C11.4110381,15.810978 12.7312126,15.0661757 13.3738505,14.6604002 C18.8450277,11.2057806 22.4730915,6.72634538 23.3002477,1.09609615 L20.8139509,0.741571058 C20.1069751,5.55378144 16.9316407,9.47424853 12.0182606,12.5766631 Z" id="Path-12-Copy-2"></path>
            </g>
        </g>
    </g>
</svg>