<?xml version="1.0" encoding="UTF-8"?>
<svg width="250px" height="250px" viewBox="0 0 250 250" version="1.1" xmlns="http://www.w3.org/2000/svg" xmlns:xlink="http://www.w3.org/1999/xlink">
    <!-- Generator: Sketch 41.2 (35397) - http://www.bohemiancoding.com/sketch -->
    <title>conflict</title>
    <desc>Created with Sketch.</desc>
    <defs></defs>
    <g id="Page-1" stroke="none" stroke-width="1" fill="none" fill-rule="evenodd">
        <g id="conflict" stroke-width="4">
            <path d="M162.341745,64 L146.530114,64 C146.530114,80.6419999 138.33432,88.9451172 130.380628,96.9840629 C128.44086,98.9413705 126.440616,100.929467 124.637087,103.011951 C122.831936,100.929467 120.89926,98.9413705 118.961117,96.9840629 C111.0058,88.9451172 102.811631,80.6419999 102.811631,64 L87,64 C87,87.1690699 98.9813088,99.3059545 107.744319,108.159361 C112.942441,113.411907 116.118202,116.749735 116.731271,120.350596 C116.711811,120.750512 116.665322,121.158425 116.6637,121.56972 L116.6637,159.768922 L100.24393,153.26693 C99.6924895,153.050717 99.0449857,153.264763 98.6897953,153.741034 C98.5113861,153.975131 98.4195111,154.206437 98.4195111,154.486053 C98.4195111,154.76892 98.5081427,155.061454 98.6897953,155.298802 L123.55595,187.673304 C123.805718,187.998438 124.1608,188.215136 124.569516,188.215136 C124.978229,188.215136 125.333313,187.998447 125.583082,187.673304 L150.449236,155.298802 C150.810913,154.827358 150.806048,154.214103 150.449236,153.741034 C150.094044,153.264717 149.44654,153.049089 148.895101,153.26693 L132.475331,159.768922 L132.475331,121.705178 C132.678044,121.262995 132.633177,120.779775 132.610473,120.350596 C133.225164,116.749735 136.400927,113.410281 141.597426,108.159361 C150.362062,99.3059545 162.341745,87.1690699 162.341745,64 Z" id="Shape" stroke="#9A9BA5"></path>
            <path d="M105.744319,38.4302786 C105.744319,32.7007862 101.120808,28 95.405945,28 C89.69108,28 85,32.7007862 85,38.4302786 C85,44.1585053 89.69108,48.7928282 95.405945,48.7928282 C101.120808,48.7928282 105.744319,44.159771 105.744319,38.4302786 Z" id="Path" stroke="#9A9BA5"></path>
            <path d="M134.676748,211.430279 C134.676748,205.700786 130.053237,201 124.338374,201 C118.623509,201 114,205.700786 114,211.430279 C114,217.158507 118.623509,221.792828 124.338374,221.792828 C130.053237,221.792828 134.676748,217.159773 134.676748,211.430279 Z" id="Path" stroke="#1D2340"></path>
            <path d="M165.744319,38.4302786 C165.744319,32.7007862 161.053237,28 155.338374,28 C149.623509,28 145,32.7007862 145,38.4302786 C145,44.1585053 149.623509,48.7928282 155.338374,48.7928282 C161.053237,48.7928282 165.744319,44.159771 165.744319,38.4302786 Z" id="Path" stroke="#59569E"></path>
        </g>
    </g>
</svg>