<?xml version="1.0" encoding="UTF-8"?>
<svg width="250px" height="250px" viewBox="0 0 250 250" version="1.1" xmlns="http://www.w3.org/2000/svg" xmlns:xlink="http://www.w3.org/1999/xlink">
    <!-- Generator: Sketch 41.2 (35397) - http://www.bohemiancoding.com/sketch -->
    <title>gears</title>
    <desc>Created with Sketch.</desc>
    <defs></defs>
    <g id="Page-1" stroke="none" stroke-width="1" fill="none" fill-rule="evenodd">
        <g id="gears" stroke-width="4">
            <g id="Group-Copy" transform="translate(10.000000, 20.000000)">
                <path d="M162.916667,92.4117538 L162.916667,70.4705495 C151.704167,66.4751424 144.64125,65.3637102 141.066667,56.759692 C137.492083,48.1365113 141.7375,42.2727484 146.816667,31.6087482 L131.310833,16.0966041 C120.72125,21.1267929 114.79875,25.4288019 106.145,21.8453913 C97.52,18.2715619 96.39875,11.1526471 92.43125,0 L70.4854167,0 C66.5370833,11.0951592 65.40625,18.2715619 56.7716667,21.8453913 L56.7620833,21.8453913 C48.1370833,25.4288019 42.29125,21.1746994 31.6058333,16.0966041 L16.1095833,31.6087482 C21.16,42.2440044 25.4341667,48.12693 21.8595833,56.759692 C18.2658333,65.3924541 11.0975,66.5230489 0,70.4705495 L0,92.4021725 C11.06875,96.3496731 18.2754167,97.4898492 21.85,106.11303 C25.4533333,114.812861 21.07375,120.810762 16.1,131.263974 L31.6058333,146.776118 C42.2145833,141.745929 48.1275,137.44392 56.7620833,141.027331 L56.7716667,141.027331 C65.3966667,144.60116 66.5275,151.739238 70.4854167,162.872722 L92.4216667,162.872722 C96.37,151.777563 97.5008333,144.620323 106.192917,141.008168 L106.2025,141.008168 C114.77,137.44392 120.587083,141.688441 131.30125,146.776118 L146.807083,131.263974 C141.775833,120.657462 137.472917,114.755373 141.0475,106.11303 C144.631667,97.4994305 151.838333,96.3496731 162.916667,92.4117538 Z M81.4583333,108.59459 C66.47,108.59459 54.30875,96.4359049 54.30875,81.4411517 C54.30875,66.4463984 66.47,54.2877136 81.4583333,54.2877136 C96.4466667,54.2877136 108.607917,66.4463984 108.607917,81.4411517 C108.607917,96.4359049 96.4466667,108.59459 81.4583333,108.59459 Z" id="Shape" stroke="#59569E"></path>
                <path d="M230,148.884007 L230,138.564934 C224.729167,136.686996 221.40375,136.160024 219.717083,132.116711 C218.030417,128.054234 220.033333,125.304398 222.419583,120.274209 L215.117083,112.973249 C210.13375,115.349415 207.345,117.36149 203.281667,115.684761 C199.218333,114.008031 198.69125,110.654572 196.8225,105.404013 L186.510833,105.404013 C184.651667,110.625828 184.115,113.99845 180.051667,115.684761 C175.988333,117.371072 173.237917,115.368577 168.21625,112.973249 L160.91375,120.274209 C163.290417,125.285235 165.302917,128.054234 163.61625,132.116711 C161.929583,136.179187 158.55625,136.706159 153.333333,138.564934 L153.333333,148.884007 C158.546667,150.7332 161.929583,151.279335 163.61625,155.332229 C165.3125,159.42345 163.252083,162.249937 160.91375,167.174731 L168.21625,174.475691 C173.209167,172.099525 175.997917,170.08745 180.051667,171.764179 C184.115,173.440909 184.642083,176.80395 186.510833,182.044927 L196.8225,182.044927 C198.681667,176.823112 199.218333,173.45049 203.300833,171.754598 L203.310417,171.754598 C207.345,170.077869 210.07625,172.080363 215.117083,174.475691 L222.419583,167.174731 C220.0525,162.182868 218.030417,159.394706 219.717083,155.341811 C221.40375,151.288916 224.786667,150.7332 230,148.884007 Z M191.666667,156.491568 C184.613333,156.491568 178.892083,150.771525 178.892083,143.719679 C178.892083,136.667834 184.613333,130.947791 191.666667,130.947791 C198.72,130.947791 204.44125,136.667834 204.44125,143.719679 C204.44125,150.771525 198.72,156.491568 191.666667,156.491568 Z" id="Combined-Shape" stroke="#9A9BA5"></path>
                <path d="M153.333333,185.915777 L153.333333,178.174077 C149.385,176.765624 146.88375,176.372791 145.61875,173.335515 C144.35375,170.298239 145.84875,168.228675 147.650417,164.453638 L142.16875,158.982709 C138.440833,160.764833 136.351667,162.278681 133.294583,161.013947 C130.2375,159.749214 129.854167,157.238911 128.445417,153.300991 L120.711667,153.300991 C119.3125,157.219748 118.91,159.749214 115.8625,161.013947 C112.824583,162.278681 110.754583,160.783996 106.988333,158.982709 L101.506667,164.453638 C103.29875,168.219094 104.803333,170.288657 103.538333,173.335515 C102.273333,176.382372 99.7433333,176.775206 95.82375,178.174077 L95.82375,185.915777 C99.73375,187.305067 102.273333,187.717064 103.538333,190.75434 C104.812917,193.82036 103.27,195.947411 101.506667,199.636216 L106.988333,205.107145 C110.725833,203.325021 112.815,201.811174 115.8625,203.075907 C118.91,204.34064 119.302917,206.860525 120.711667,210.788863 L128.445417,210.788863 C129.844583,206.870107 130.247083,204.34064 133.304167,203.075907 L133.31375,203.075907 C136.3325,201.820755 138.383333,203.31544 142.16875,205.116726 L147.650417,199.645797 C145.867917,195.899504 144.35375,193.810778 145.61875,190.763921 C146.88375,187.717064 149.423333,187.305067 153.333333,185.915777 Z M124.583333,191.626239 C119.293333,191.626239 115,187.343393 115,182.044927 C115,176.746462 119.293333,172.463615 124.583333,172.463615 C129.873333,172.463615 134.166667,176.746462 134.166667,182.044927 C134.166667,187.343393 129.873333,191.626239 124.583333,191.626239 Z" id="Combined-Shape" stroke="#9A9BA5"></path>
            </g>
        </g>
    </g>
</svg>