<?xml version="1.0" encoding="UTF-8"?>
<svg width="28px" height="15px" viewBox="0 0 28 15" version="1.1" xmlns="http://www.w3.org/2000/svg" xmlns:xlink="http://www.w3.org/1999/xlink">
    <!-- Generator: Sketch 40.3 (33839) - http://www.bohemiancoding.com/sketch -->
    <title>Untitled 3</title>
    <desc>Created with Sketch.</desc>
    <defs></defs>
    <g id="Page-1" stroke="none" stroke-width="1" fill="none" fill-rule="evenodd">
        <g id="check-plus" fill="#4CD37C">
            <g id="Page-1">
                <g id="check-plus">
                    <path d="M20.9989566,8 C20.4472481,8 20,8.44386482 20,9 L20,9 C20,9.55228475 20.4426603,10 20.9989566,10 L23,10 L23,12.0010434 C23,12.5527519 23.4438648,13 24,13 L24,13 C24.5522847,13 25,12.5573397 25,12.0010434 L25,10 L27.0010434,10 C27.5527519,10 28,9.55613518 28,9 L28,9 C28,8.44771525 27.5573397,8 27.0010434,8 L25,8 L25,5.99895656 C25,5.44724809 24.5561352,5 24,5 L24,5 C23.4477153,5 23,5.44266033 23,5.99895656 L23,8 L20.9989566,8 Z M2.29679334,7.87844882 C1.90554021,7.48719569 1.26693715,7.48918853 0.877806945,7.87557838 L0.710559945,8.04164759 C0.318128523,8.43131541 0.318673466,9.06587707 0.705120623,9.45232422 L5.5476758,14.2948794 C5.93710316,14.6843067 6.57135904,14.6814374 6.95556658,14.2972298 L18.972845,2.27995137 C19.3609743,1.89182213 19.3564491,1.25801506 18.9700592,0.871625208 L18.80399,0.705556002 C18.4143222,0.315888182 17.7815918,0.316543 17.3929099,0.70485785 L6.25279642,11.8344519 L2.29679334,7.87844882 Z" id="Combined-Shape"></path>
                </g>
            </g>
        </g>
    </g>
</svg>