<?xml version="1.0" encoding="UTF-8"?>
<svg width="62px" height="43px" viewBox="0 0 62 43" version="1.1" xmlns="http://www.w3.org/2000/svg" xmlns:xlink="http://www.w3.org/1999/xlink">
    <!-- Generator: Sketch 44.1 (41455) - http://www.bohemiancoding.com/sketch -->
    <title>database-icon</title>
    <desc>Created with Sketch.</desc>
    <defs></defs>
    <g id="Page-1" stroke="none" stroke-width="1" fill="none" fill-rule="evenodd">
        <g id="database-icon" fill-rule="nonzero" fill="#FFFFFF">
            <g>
                <path d="M31.044,19.4491967 C14.213616,19.4491967 0.650666667,15.5100946 0.650666667,9.91245902 C0.650666667,4.3148234 14.213616,0.375721311 31.044,0.375721311 C47.874384,0.375721311 61.4373333,4.3148234 61.4373333,9.91245902 C61.4373333,15.5100946 47.874384,19.4491967 31.044,19.4491967 Z M31.044,17.4491967 C46.6805954,17.4491967 59.4373333,13.7442435 59.4373333,9.91245902 C59.4373333,6.08067454 46.6805954,2.37572131 31.044,2.37572131 C15.4074046,2.37572131 2.65066667,6.08067454 2.65066667,9.91245902 C2.65066667,13.7442435 15.4074046,17.4491967 31.044,17.4491967 Z" id="Oval"></path>
                <path d="M0.65,15.3694918 L0.65,17.1681148 C0.65,22.7732582 14.1970329,26.7048525 31.044,26.7048525 C47.8535044,26.7048525 61.4373333,22.7528613 61.4373333,17.1681148 L61.4373333,15.3694918 C61.4373333,14.8172071 60.9896181,14.3694918 60.4373333,14.3694918 C59.8850486,14.3694918 59.4373333,14.8172071 59.4373333,15.3694918 L59.4373333,17.1681148 C59.4373333,20.9878085 46.6610676,24.7048525 31.044,24.7048525 C15.3913965,24.7048525 2.65,21.0070685 2.65,17.1681148 L2.65,15.3694918 C2.65,14.8172071 2.20228475,14.3694918 1.65,14.3694918 C1.09771525,14.3694918 0.65,14.8172071 0.65,15.3694918 Z" id="Shape"></path>
                <path d="M0.65,23.2354426 L0.65,25.0347377 C0.65,30.6398812 14.1970329,34.5714754 31.044,34.5714754 C47.8535044,34.5714754 61.4373333,30.6194843 61.4373333,25.0347377 L61.4373333,23.2354426 C61.4373333,22.6831579 60.9896181,22.2354426 60.4373333,22.2354426 C59.8850486,22.2354426 59.4373333,22.6831579 59.4373333,23.2354426 L59.4373333,25.0347377 C59.4373333,28.8544315 46.6610676,32.5714754 31.044,32.5714754 C15.3913965,32.5714754 2.65,28.8736914 2.65,25.0347377 L2.65,23.2354426 C2.65,22.6831579 2.20228475,22.2354426 1.65,22.2354426 C1.09771525,22.2354426 0.65,22.6831579 0.65,23.2354426 Z" id="Shape"></path>
                <path d="M0.65,31.1013934 L0.65,32.9006885 C0.65,38.505832 14.1970329,42.4374262 31.044,42.4374262 C47.8535044,42.4374262 61.4373333,38.4854351 61.4373333,32.9006885 L61.4373333,31.1013934 C61.4373333,30.5491087 60.9896181,30.1013934 60.4373333,30.1013934 C59.8850486,30.1013934 59.4373333,30.5491087 59.4373333,31.1013934 L59.4373333,32.9006885 C59.4373333,36.7203823 46.6610676,40.4374262 31.044,40.4374262 C15.3913965,40.4374262 2.65,36.7396423 2.65,32.9006885 L2.65,31.1013934 C2.65,30.5491087 2.20228475,30.1013934 1.65,30.1013934 C1.09771525,30.1013934 0.65,30.5491087 0.65,31.1013934 Z" id="Shape"></path>
            </g>
        </g>
    </g>
</svg>