<?xml version="1.0" encoding="UTF-8"?>
<svg width="62px" height="43px" viewBox="0 0 62 43" version="1.1" xmlns="http://www.w3.org/2000/svg" xmlns:xlink="http://www.w3.org/1999/xlink">
    <!-- Generator: Sketch 44.1 (41455) - http://www.bohemiancoding.com/sketch -->
    <title>platform-icon</title>
    <desc>Created with Sketch.</desc>
    <defs></defs>
    <g id="Page-1" stroke="none" stroke-width="1" fill="none" fill-rule="evenodd">
        <g id="platform-icon" fill-rule="nonzero" fill="#FFFFFF">
            <g transform="translate(2.000000, 1.000000)" id="Shape">
                <path d="M29.539236,2.44251351 L3.64558239,13.0853997 L29.539236,23.7028918 L55.4334359,13.0853997 L29.539236,2.44251351 Z M58.0441638,13.8896253 L29.8662534,25.4435154 C29.6566474,25.529461 29.4218112,25.5294601 29.2122058,25.443513 L1.03488991,13.8896229 C0.318409772,13.5958358 0.317985163,12.577759 1.03421998,12.2833701 L29.2115359,0.701846261 C29.4215334,0.615532485 29.6569253,0.615531611 29.8669233,0.701843828 L58.0448337,12.2833676 C58.7610764,12.5777536 58.7606518,13.5958412 58.0441638,13.8896253 Z"></path>
                <path d="M29.539236,31.3871422 L3.64217729,20.7428564 L6.92093214,19.3937341 C7.36275921,19.2119337 7.57407819,18.7051018 7.39292628,18.2616931 C7.21177437,17.8182845 6.70675012,17.6062092 6.26492305,17.7880095 L1.03391212,19.9404344 C0.318262848,20.2349055 0.318457856,21.2520909 1.03421998,21.5462856 L29.2115359,33.1278094 C29.4215334,33.2141232 29.6569253,33.2141241 29.8669233,33.1278118 L58.0448337,21.546288 C58.7607829,21.2520227 58.7607431,20.2344886 58.044771,19.9402796 L53.1371317,17.9236203 C52.6952194,17.7420286 52.1902946,17.9543424 52.0093507,18.3978365 C51.8284067,18.8413306 52.0399632,19.3480628 52.4818755,19.5296545 L55.4355517,20.7433864 L29.539236,31.3871422 Z"></path>
                <path d="M29.539236,39.0440799 L3.64217729,28.3997941 L6.92093214,27.0506718 C7.36275921,26.8688715 7.57407819,26.3620395 7.39292628,25.9186309 C7.21177437,25.4752223 6.70675012,25.2631469 6.26492305,25.4449472 L1.03391212,27.5973721 C0.318262848,27.8918432 0.318457856,28.9090287 1.03421998,29.2032233 L29.2115359,40.7847471 C29.4215334,40.8710609 29.6569253,40.8710618 29.8669233,40.7847496 L58.0448337,29.2032258 C58.7608233,28.9089438 58.7607306,27.8913336 58.0446874,27.597183 L53.1370481,25.5811244 C52.6951169,25.399579 52.1902143,25.6119458 52.0093164,26.0554589 C51.8284186,26.4989719 52.0400279,27.0056819 52.4819591,27.1872273 L55.4352606,28.4004437 L29.539236,39.0440799 Z"></path>
            </g>
        </g>
    </g>
</svg>