<?xml version="1.0" encoding="UTF-8" standalone="no"?>
<svg width="1000px" height="584px" viewBox="0 0 1000 584" version="1.1" xmlns="http://www.w3.org/2000/svg" xmlns:xlink="http://www.w3.org/1999/xlink">
    <!-- Generator: Sketch 39.1 (31720) - http://www.bohemiancoding.com/sketch -->
    <title>language-swift-news</title>
    <desc>Created with Sketch.</desc>
    <defs></defs>
    <g id="Page-1" stroke="none" stroke-width="1" fill="none" fill-rule="evenodd">
        <g id="language-swift-news">
            <g id="Group-2" transform="translate(140.000000, 92.000000)">
                <g id="Group-Copy" transform="translate(320.000000, 0.000000)">
                    <circle id="Oval-3" fill="#1C233F" cx="200" cy="200" r="200"></circle>
                    <path d="M187.882353,263 L236.117647,263 L236.117647,205.307692 L187.882353,205.307692 L187.882353,263 L187.882353,263 Z M130,263 L178.235294,263 L178.235294,138 L130,138 L130,263 L130,263 Z M245.764706,263 L294,263 L294,205.307692 L245.764706,205.307692 L245.764706,263 L245.764706,263 Z M187.882353,138 L187.882353,195.692308 L294,195.692308 L294,138 L187.882353,138 L187.882353,138 Z" id="Shape" fill="#FFFFFF"></path>
                </g>
                <g id="Group">
                    <circle id="Oval-3" fill="#FF6D23" cx="200" cy="200" r="200"></circle>
                    <g id="Swift_logo" transform="translate(90.987124, 99.570815)" fill="#FFFFFF">
                        <g id="Swift-logo">
                            <g id="Page-1">
                                <path d="M128.129982,0 C216.547796,57.3188589 189.513179,129.401666 189.513179,129.401666 C189.513179,129.401666 199.048433,140.257511 203.816061,153.718758 C208.583688,167.180005 208.531155,183.680889 207.664314,184.115122 C206.797472,184.549356 195.620806,165.44307 176.077138,165.44307 C156.533471,165.44307 146.604527,184.115122 111.930881,184.115122 C33.8597827,184.115122 0,119.957083 0,119.957083 C0,119.957083 34.348587,144.599849 70.3225048,143.731381 C106.296423,142.862913 116.265088,132.441303 116.265088,132.441303 C116.265088,132.441303 100.179943,118.956564 72.4896048,91.8404443 C44.7992668,64.7243246 18.7454434,27.3567281 18.7454434,27.3567281 C18.7454434,27.3567281 60.4867934,60.500867 73.875528,70.250483 C87.2642627,80.0000996 100.652998,88.8356888 100.652998,88.8356888 C100.652998,88.8356888 87.6861771,74.8206188 78.557494,63.5476249 C69.4288109,52.2746312 46.0509448,18.2378187 46.0509448,18.2378187 C46.0509448,18.2378187 81.9059563,50.670099 98.2186821,63.5476222 C114.531409,76.4251452 145.737696,98.1368341 145.737696,98.1368341 C145.737696,98.1368341 164.537317,55.14769 128.129982,0 L128.129982,0 Z" id="Swift-logo"></path>
                            </g>
                        </g>
                    </g>
                </g>
            </g>
        </g>
    </g>
</svg>