<?xml version="1.0" encoding="UTF-8" standalone="no"?>
<svg width="1000px" height="584px" viewBox="0 0 1000 584" version="1.1" xmlns="http://www.w3.org/2000/svg" xmlns:xlink="http://www.w3.org/1999/xlink">
    <!-- Generator: Sketch 39.1 (31720) - http://www.bohemiancoding.com/sketch -->
    <title>language-xamarin-news</title>
    <desc>Created with Sketch.</desc>
    <defs></defs>
    <g id="Page-1" stroke="none" stroke-width="1" fill="none" fill-rule="evenodd">
        <g id="language-xamarin-news">
            <g id="Group-4" transform="translate(135.000000, 92.000000)">
                <g id="Group-3" transform="translate(330.000000, 0.000000)">
                    <g id="Group-2">
                        <g id="Group-Copy">
                            <circle id="Oval-3" fill="#1C233F" cx="200" cy="200" r="200"></circle>
                            <path d="M187.882353,263 L236.117647,263 L236.117647,205.307692 L187.882353,205.307692 L187.882353,263 L187.882353,263 Z M130,263 L178.235294,263 L178.235294,138 L130,138 L130,263 L130,263 Z M245.764706,263 L294,263 L294,205.307692 L245.764706,205.307692 L245.764706,263 L245.764706,263 Z M187.882353,138 L187.882353,195.692308 L294,195.692308 L294,138 L187.882353,138 L187.882353,138 Z" id="Shape" fill="#FFFFFF"></path>
                        </g>
                    </g>
                </g>
                <g id="Group" transform="translate(0.000000, 1.000000)">
                    <circle id="Oval-3" fill="#4990E2" cx="200" cy="200" r="200"></circle>
                    <path d="M154.259364,108.154506 C148.417321,108.166938 142.698619,111.494629 139.757697,116.571136 L94.0168376,196.304369 C91.1217122,201.394468 91.1217122,208.047592 94.0168376,213.137692 L139.757697,292.870924 C142.698929,297.947473 148.417321,301.276055 154.259364,301.287554 L245.740759,301.287554 C251.582803,301.275123 257.301193,297.947473 260.242425,292.870924 L305.983275,213.137692 C308.8784,208.047592 308.878101,201.394468 305.983275,196.304369 L260.242425,116.571136 C257.301193,111.494629 251.582803,108.166006 245.740759,108.154506 L154.259364,108.154506 L154.259364,108.154506 Z M155.089563,154.799413 C155.215232,154.786981 155.34704,154.786981 155.4731,154.799413 L171.252265,154.799413 C171.950738,154.813916 172.628258,155.218979 172.977062,155.827382 L199.744518,203.693051 C199.879252,203.929707 199.966067,204.193382 199.999008,204.464017 C200.031971,204.193318 200.118703,203.929624 200.253498,203.693051 L226.956887,155.827382 C227.31676,155.200539 228.026018,154.793238 228.74546,154.799413 L244.52463,154.799413 C245.921893,154.811844 246.968268,156.577857 246.313497,157.819132 L220.185234,204.721041 L246.313497,251.558699 C247.030243,252.807101 245.95812,254.654996 244.52463,254.642648 L228.74546,254.642648 C228.013445,254.636432 227.299994,254.200953 226.956887,253.550428 L200.253498,205.68476 C200.118765,205.448102 200.03195,205.184407 199.999008,204.913792 C199.966046,205.184471 199.879314,205.448206 199.744518,205.68476 L172.977062,253.550428 C172.644142,254.182554 171.963016,254.613869 171.252265,254.642648 L155.4731,254.642648 C154.039608,254.655079 152.967775,252.807101 153.684521,251.558699 L179.812776,204.721041 L153.684521,157.819132 C153.058195,156.686613 153.822345,155.041145 155.089563,154.799413 L155.089563,154.799413 L155.089563,154.799413 Z" id="Logo" fill="#FFFFFF"></path>
                </g>
            </g>
        </g>
    </g>
</svg>